<svg viewBox="0 0 200 200" xmlns="http://www.w3.org/2000/svg" fill-rule="evenodd" clip-rule="evenodd" stroke-linejoin="round" stroke-miterlimit="2">
  <g transform="translate(-21092.579 -3327.36)">
    <path fill="none" d="M21092.6 3327.36H21292.581V3527.3410000000003H21092.6z"/>
    <clipPath id="a">
      <path d="M21092.6 3327.36H21292.581V3527.3410000000003H21092.6z"/>
    </clipPath>
    <g clip-path="url(#a)">
      <path d="M21166.907 3527.358c10.08-20.216 17.43-40.954 18.726-63.134 1.19-8.158-3.746-8.299-4.515-2.548-14.246 54.573-90.162 39.796-87.571-11.54 2.134-41.633 43.47-50.59 65.065-36.974 8.505 5.012 8.016 2.009 3.36-3.192-32.025-35.742-12.635-81.768 30.696-82.612 46.83 2.78 58.975 52.046 30.24 81.023-3.57 3.48-11.48 14.669.42 6.846 29.015-20.608 69.266 1.55 68.426 33.324-1.505 58.587-72.906 62.955-88.201 14.021-1.47-5.429-5.706-8.152-4.515 1.064 2.1 16.682 6.475 41.836 19.005 63.722h-51.136z" fill-rule="nonzero"/>
    </g>
  </g>
</svg>
