<?xml version="1.0" encoding="UTF-8" standalone="no"?>
<!DOCTYPE svg PUBLIC "-//W3C//DTD SVG 1.1//EN" "http://www.w3.org/Graphics/SVG/1.1/DTD/svg11.dtd">
<svg width="100%" height="100%" viewBox="0 0 200 200" version="1.1" xmlns="http://www.w3.org/2000/svg" xmlns:xlink="http://www.w3.org/1999/xlink" xml:space="preserve" xmlns:serif="http://www.serif.com/" style="fill-rule:evenodd;clip-rule:evenodd;stroke-linejoin:round;stroke-miterlimit:2;">
    <g transform="matrix(1,0,0,1,-21092,-3327)">
        <g id="Artboard5" transform="matrix(1,0,0,1,-0.620336,-0.359681)">
            <rect x="21092.6" y="3327.36" width="199.981" height="199.981" style="fill:none;"/>
            <clipPath id="_clip1">
                <rect x="21092.6" y="3327.36" width="199.981" height="199.981"/>
            </clipPath>
            <g clip-path="url(#_clip1)">
                <g transform="matrix(0.82914,0,0,0.82914,20805.7,2888.43)">
                    <path d="M416.468,530.206C446.218,528.227 461.76,553.652 464.802,573.689C466.593,576.873 467.593,575.977 468.26,573.514C469.718,547.789 492.76,526.764 514.093,529.639C548.76,530.089 569.843,568.702 563.927,601.381C556.677,641.306 535.177,665.344 518.885,690.102C500.468,715.739 475.677,752.769 467.677,770.589C467.677,770.589 442.468,732.239 409.718,687.135C387.76,656.973 370.218,624.289 368.593,596.152C366.718,564.006 379.927,535.189 416.468,530.206Z" style="fill-rule:nonzero;"/>
                </g>
            </g>
        </g>
    </g>
</svg>
