<svg viewBox="0 0 200 200" xmlns="http://www.w3.org/2000/svg" fill-rule="evenodd" clip-rule="evenodd" stroke-linejoin="round" stroke-miterlimit="2"><g transform="translate(-21092.62 -3327.36)"><path fill="none" d="M21092.6 3327.36H21292.581V3527.3410000000003H21092.6z"/><clipPath id="a"><path d="M21092.6 3327.36H21292.581V3527.3410000000003H21092.6z"/></clipPath><g clip-path="url(#a)"><path d="M21151.01 3328.045c24.667-1.64 37.554 19.44 40.076 36.053 1.485 2.64 2.314 1.898 2.867-.145 1.209-21.33 20.314-38.762 38.002-36.378 28.744.373 46.225 32.389 41.32 59.484-6.012 33.103-23.838 53.034-37.347 73.562-15.27 21.257-35.825 51.96-42.458 66.735 0 0-20.902-31.797-48.056-69.195-18.207-25.008-32.751-52.108-34.099-75.438-1.554-26.653 9.398-50.546 39.695-54.678z" fill-rule="nonzero"/></g></g></svg>