<svg viewBox="0 0 217 210" xmlns="http://www.w3.org/2000/svg" fill-rule="evenodd" clip-rule="evenodd" stroke-linejoin="round" stroke-miterlimit="2">
  <g transform="matrix(1.00231 0 0 1.00719 -27361.214 -3988.986)">
    <path fill="none" d="M27298.2 3960.49H27514.7V4168.99H27298.2z"/>
    <path d="M27328.908 4146.781l-28.344-66.8c-3.792-8.895.4-19.147 9.382-22.881l9.182-3.805 31.937 114.313c-12.975-1.347-17.366-10.46-22.157-20.827z" fill="#aeed00"/>
    <path d="M27361.197 4167.712l-36.128-128.914c0-.535-.2-1.072-.2-1.608-1.597-8.778 3.792-17.469 12.575-19.88l13.773-3.712 21.957 154.114a1105.11 1105.11 0 0 0-11.977 0z" fill="#aeed00"/>
    <path d="M27384.121 4167.771l-24.158-168.045c0-1.38-.234-2.745 0-4.082.47-9.563 7.74-17.728 17.826-19.112l106.25-14.706c22.281-2.607 29.317 11.492 29.552 25.532 0 .476.234 121.864 0 153.808-.235 15.492-9.147 26.233-29.553 26.62-28.615.544-75.055 0-93.35 0-2.345 0-4.456-.006-6.567-.015z" fill="#fff"/>
  </g>
  <path d="M27428.771 4112.668c5.358-10.693 9.264-21.662 9.953-33.393.632-4.315-1.991-4.389-2.4-1.347-7.571 28.864-47.92 21.048-46.543-6.104 1.135-22.02 23.104-26.757 34.582-19.556 4.52 2.651 4.26 1.063 1.785-1.688-17.02-18.904-6.715-43.248 16.315-43.694 24.89 1.47 31.344 27.527 16.072 42.853-1.897 1.84-6.102 7.76.223 3.621 15.421-10.9 36.814.82 36.367 17.626-.8 30.987-38.748 33.297-46.877 7.416-.781-2.872-3.032-4.312-2.4.562 1.116 8.823 3.441 22.128 10.101 33.704h-27.178z" fill-rule="nonzero"/>
</svg>
