<?xml version="1.0" encoding="UTF-8" standalone="no"?>
<!DOCTYPE svg PUBLIC "-//W3C//DTD SVG 1.1//EN" "http://www.w3.org/Graphics/SVG/1.1/DTD/svg11.dtd">
<svg width="100%" height="100%" viewBox="0 0 1383 200" version="1.1" xmlns="http://www.w3.org/2000/svg" xmlns:xlink="http://www.w3.org/1999/xlink" xml:space="preserve" xmlns:serif="http://www.serif.com/" style="fill-rule:evenodd;clip-rule:evenodd;stroke-linejoin:round;stroke-miterlimit:2;">
    <g transform="matrix(1,0,0,1,-19483.8,-4095.93)">
        <g class="logo-court" transform="matrix(0.968183,0,0,0.968183,619.912,130.319)">
            <g transform="matrix(2.06455,0,0,2.06455,5859.94,-3629.04)">
                <path d="M6626.45,3841.36C6639.52,3841.36 6653.84,3833.51 6653.84,3811.77L6653.84,3802.68L6634.98,3802.68L6634.98,3809.7C6634.98,3817.27 6632.91,3820.71 6627.27,3820.71C6620.8,3820.71 6619.57,3814.52 6619.57,3802.13L6619.57,3779.97C6619.57,3771.17 6620.39,3762.77 6627.69,3762.77C6632.64,3762.77 6634.7,3765.66 6634.7,3773.64L6634.7,3776.53L6653.56,3776.53L6653.56,3769.38C6653.56,3753.83 6642.82,3742.13 6628.1,3742.13C6601.4,3742.13 6598.92,3766.62 6598.92,3782.87L6598.92,3801.86C6598.92,3832.41 6610.34,3841.36 6626.45,3841.36Z" style="fill-rule:nonzero;"/>
            </g>
            <g transform="matrix(2.06455,0,0,2.06455,5859.94,-3629.04)">
                <path d="M6686.45,3841.36C6713.7,3841.36 6715.49,3817.41 6715.49,3801.17L6715.49,3781.49C6715.49,3765.11 6713.84,3742.13 6687.28,3742.13C6660.58,3742.13 6658.93,3765.11 6658.93,3781.49L6658.93,3801.17C6658.93,3817.41 6660.72,3841.36 6686.45,3841.36ZM6687,3820.71C6680.81,3820.71 6679.57,3813.42 6679.57,3802.68L6679.57,3783.42C6679.57,3771.44 6680.12,3762.08 6687.42,3762.08C6694.57,3762.08 6694.85,3771.44 6694.85,3783.42L6694.85,3802.68C6694.85,3813.42 6693.61,3820.71 6687,3820.71Z" style="fill-rule:nonzero;"/>
            </g>
            <g transform="matrix(2.06455,0,0,2.06455,5859.94,-3629.04)">
                <path d="M6748.11,3841.5C6773.3,3841.5 6775.5,3821.54 6775.5,3805.3L6775.5,3743.78L6754.86,3743.78L6754.86,3807.23C6754.86,3815.48 6753.48,3820.03 6747.97,3820.03C6742.33,3820.03 6740.95,3815.07 6740.95,3806.95L6740.95,3743.78L6720.31,3743.78L6720.31,3805.3C6720.31,3821.54 6723.75,3841.5 6748.11,3841.5Z" style="fill-rule:nonzero;"/>
            </g>
            <g transform="matrix(2.06455,0,0,2.06455,5859.94,-3629.04)">
                <path d="M6838.67,3839.71L6824.63,3801.86C6832.34,3797.45 6837.3,3790.16 6837.3,3781.08L6837.3,3769.79C6837.3,3749.15 6820.37,3743.92 6805.5,3743.78L6783.9,3743.64L6783.21,3839.71L6803.85,3839.71L6803.85,3806.54L6806.47,3806.54L6817.48,3839.71L6838.67,3839.71ZM6803.85,3762.22L6809.36,3762.22C6814.31,3762.22 6817.48,3767.86 6817.48,3771.86L6817.48,3776.95C6817.48,3783 6814.86,3788.23 6807.84,3788.23L6803.85,3788.23L6803.85,3762.22Z" style="fill-rule:nonzero;"/>
            </g>
            <g transform="matrix(2.06455,0,0,2.06455,5859.94,-3629.04)">
                <path d="M6878.86,3839.84L6879,3763.74L6895.38,3763.74L6895.38,3743.78L6842.11,3743.78L6842.11,3763.74L6858.63,3763.74L6858.49,3839.71L6878.86,3839.84Z" style="fill-rule:nonzero;"/>
            </g>
        </g>
        <g class="logo-shuffle" transform="matrix(0.968183,0,0,0.968183,622.912,130.319)">
            <g transform="matrix(2.06455,0,0,2.06455,5859.94,-3629.04)">
                <path d="M6923.45,3841.77C6940.38,3841.77 6950.01,3829.11 6949.88,3814.11C6949.74,3801.31 6944.23,3795.94 6931.98,3784.79C6923.59,3777.5 6918.91,3774.2 6918.91,3768.97C6918.91,3764.7 6920.97,3762.22 6924.55,3762.22C6927.58,3762.22 6929.78,3764.84 6929.78,3769.65L6929.78,3772.82L6948.22,3772.82L6948.22,3765.94C6948.22,3744.19 6931.85,3741.71 6924.41,3741.71C6907.49,3741.71 6898.68,3755.2 6898.82,3768.83C6898.95,3780.66 6904.32,3786.58 6912.44,3793.6C6923.18,3803.37 6928.54,3808.47 6928.68,3814.24C6928.82,3818.65 6926.62,3821.68 6922.9,3821.68C6919.74,3821.68 6917.12,3819.06 6917.12,3813.7L6917.12,3808.74L6897.44,3808.74L6897.44,3813.56C6897.44,3835.3 6911.75,3841.77 6923.45,3841.77Z" style="fill-rule:nonzero;"/>
            </g>
            <g transform="matrix(2.06455,0,0,2.06455,5859.94,-3629.04)">
                <path d="M6990.75,3743.78L6990.75,3782.59L6976.16,3782.59L6976.16,3743.78L6956.21,3743.78L6956.21,3839.71L6976.16,3839.71L6976.16,3802.68L6990.75,3802.68L6990.75,3839.71L7010.71,3839.71L7010.71,3743.78L6990.75,3743.78Z" style="fill-rule:nonzero;"/>
            </g>
            <g transform="matrix(2.06455,0,0,2.06455,5859.94,-3629.04)">
                <path d="M7046.22,3841.5C7071.4,3841.5 7073.61,3821.54 7073.61,3805.3L7073.61,3743.78L7052.96,3743.78L7052.96,3807.23C7052.96,3815.48 7051.58,3820.03 7046.08,3820.03C7040.44,3820.03 7039.06,3815.07 7039.06,3806.95L7039.06,3743.78L7018.41,3743.78L7018.41,3805.3C7018.41,3821.54 7021.86,3841.5 7046.22,3841.5Z" style="fill-rule:nonzero;"/>
            </g>
            <g transform="matrix(2.06455,0,0,2.06455,5859.94,-3629.04)">
                <path d="M7103.06,3839.84L7103.06,3801.72L7123.15,3801.72L7123.15,3781.76L7103.06,3781.76L7103.06,3764.15L7129.35,3764.15L7129.35,3743.78L7082.96,3743.78L7082.69,3839.71L7103.06,3839.84Z" style="fill-rule:nonzero;"/>
            </g>
            <g transform="matrix(2.06455,0,0,2.06455,5859.94,-3629.04)">
                <path d="M7156.73,3839.84L7156.73,3801.72L7176.83,3801.72L7176.83,3781.76L7156.73,3781.76L7156.73,3764.15L7183.02,3764.15L7183.02,3743.78L7136.64,3743.78L7136.36,3839.71L7156.73,3839.84Z" style="fill-rule:nonzero;"/>
            </g>
            <g transform="matrix(2.06455,0,0,2.06455,5859.94,-3629.04)">
                <path d="M7190.04,3839.71L7235.73,3839.71L7235.73,3819.06L7210.68,3819.06L7210.68,3743.78L7190.04,3743.78L7190.04,3839.71Z" style="fill-rule:nonzero;"/>
            </g>
            <g transform="matrix(2.06455,0,0,2.06455,5859.94,-3629.04)">
                <path d="M7288.03,3839.84L7288.03,3819.34L7263.67,3819.34L7263.67,3801.72L7285.42,3801.72L7285.42,3781.76L7263.67,3781.76L7263.67,3764.15L7289.13,3764.15L7289.13,3743.78L7243.72,3743.78L7243.44,3839.71L7288.03,3839.84Z" style="fill-rule:nonzero;"/>
            </g>
        </g>
    </g>
</svg>
