<svg clip-rule="evenodd" fill-rule="evenodd" stroke-linejoin="round" stroke-miterlimit="2" viewBox="0 0 1634 236" xmlns="http://www.w3.org/2000/svg">
  <g transform="matrix(1.15905774138 0 0 1.15905774138 -19505.94231234 -841.378949672)">
    <path fill="var(--logo-court-color, var(--accent))" d="m16839.1 778.174 28.7 104.121-38-90.549c-1.9-4.524.2-9.738 4.7-11.637z"/>
    <path fill="var(--logo-court-color, var(--accent))" d="m16856.4 757.985 17.3 123.234-30.4-110.418c0-.272-.1-.545-.1-.818-.8-4.464 1.9-8.884 6.3-10.11z"/>
    <path fill="var(--logo-card-color, #fff)" d="m16983.6 726.001c4.9-.682 9.4 2.708 10.1 7.566l23.7 169.13c0 .168.1.335.1.501.1 1.506-.2 2.966-.7 4.274-1.2 2.742-3.8 4.818-6.9 5.264l-114.5 16.069c-4.8.683-9.3-2.708-10-7.566l-23.8-169.13c0-.597-.1-1.188 0-1.767.2-4.139 3.3-7.673 7.6-8.272zm7.2 179.258c1.4-4.348 3.5-8.705 5.3-11.963 5.4-9.611 6.5-12.282 7.1-17.575.9-8.286-7-13.751-12.6-8.542-1.3 1.227-2.5 4.275-2.3 5.494.1.877-.4 1.434-1 1.011-.1-.085-.2-.474-.2-1.038-.2-3.672.4-9.768 2.7-13.862l-11.2 1.583c4 4.034 5.8 8.423 6.3 12.71.3 1.84-.8 1.812-1.4-.035-2.5-9.061-14.1-5.654-13.4 3.657.4 4.873 4.1 9.588 8.9 14.73 3.9 4.195 8.6 8.662 11.8 13.83zm-49.9-42.599c2.1-.134 4.2-.453 6.2-.943l.2.077v.018c1 .397 2.2.53 3.7.254 1.5-.297 3.6-1.115 6.1-2.566 4.5-2.541 9.2-7.081 12.1-11.416 2.3-3.195 3.5-6.337 3.5-8.588 0-.489-.1-1.068-.3-1.724.6-1.731 1-3.517 1.2-5.349l.8-.733c.5-.57.8-1.425 1-2.548.8-4.641-1.8-15.936-5.4-20.945-.4-.619-1-1.508-1-1.508s.2.725.2.877l-.2-1.086c-.2-.251-.5-.726-.9-1.306-1.6-1.888-5.7-5.799-6.7-6.369v-.021c-.6-.304-.9-.484-1.2-.575l-1-.159-.7.091v.016c-1.2-.792-2.4-1.516-3.7-2.167-.1-.356-.3-.669-.6-.958-.5-.638-1.1-1.19-2.2-1.703-1.1-.493-2.7-1.003-5.3-1.774l-.1-.009c-1.8-.498-6.1-1.364-11.8-.696 0 .006-.1.013-.1.022-10.9 1.947-16.3 4.718-23 11.623-2 1.995-3.2 3.702-3.7 5.127-.4 1.044-.5 2.002-.4 2.887-.9 1.667-1.7 3.415-2.3 5.231-.1.087-.3.178-.4.273v.005c-1.2.918-2 2.215-2.5 4.426-.4 1.629-.5 3.892-.5 7.115 0 7.873 1.5 13.346 5.8 20.374v.007c1.9 3.012 8 8.916 11.7 11.079 5.3 3.149 11.8 5.136 16.6 5.181h.1c1.5 0 2.4-.119 3.1-.395.6-.23 1.1-.562 1.7-1.145zm-52.7-113.114c-1.3 4.355-3.4 8.718-5.2 11.981-5.5 9.623-6.5 12.298-7.1 17.598-1 8.298 7 13.773 12.6 8.557 1.3-1.229 2.5-4.281 2.3-5.502-.1-.878.4-1.436 1-1.012.1.085.2.474.2 1.039.2 3.677-.4 9.783-2.7 13.882l11.2-1.583c-4-4.041-5.8-8.437-6.3-12.73-.3-1.842.8-1.814 1.3.036 2.5 9.075 14.2 5.664 13.5-3.661-.4-4.88-4.2-9.603-8.9-14.753-3.9-4.202-8.6-8.676-11.9-13.852z"/>
  </g>
  <path fill="var(--logo-ball-color, var(--accent))" d="m16966.9 791.51c-.9.961-.9 2.149.5 9.046 2.4 11.702 7.8 22.895 14.2 29.001 1.4 1.357 2.8 2.205 3.4 2.092 4.1-.792.4-20.691-5.2-28.436-.9-1.301-1.7-2.544-1.7-2.77 0-.735-7.4-8.254-8.8-8.989-1.5-.848-1.5-.848-2.4.056zm-31.7-10.458c-13.9 2.487-20.7 5.992-29.4 14.811-6.2 6.332-6.2 9.781.2 12.381 1.8.735 5.4 2.261 8 3.336 6.3 2.544 14 7.745 19.2 12.833 10.4 10.119 15.3 20.747 16.3 35.22.6 8.706 1.1 10.232 3.5 11.25 2.1.848 5.4-.057 10.4-2.94 9.5-5.371 19.5-17.808 19.5-24.253 0-2.148-2.3-5.992-6.6-11.08-9-10.628-14-22.274-15.4-36.181-.4-3.618-1.1-7.576-1.4-8.819-.9-3.053-1.5-3.392-9.5-5.71-2.3-.622-7.7-1.683-14.8-.848zm-38.9 33.411c-2.1 1.696-2.9 4.975-2.9 13.059 0 10.006 2 16.96 7.5 25.892 2.3 3.788 10.1 11.193 14.7 13.907 6.6 3.957 14.8 6.501 20.9 6.558 3.1 0 3.5-.17 5.1-1.979 2.2-2.487 2.7-6.614 2-14.359-.9-8.367-3.8-16.169-8.4-21.935-6.3-8.197-12.4-13.229-21-17.412-10.4-5.088-15-5.993-17.9-3.731z" transform="matrix(.85573760818 0 0 .85573760818 -14369.26510934 -590.3318389548)"/>
  <g fill="var(--logo-card-color, #fff)" fill-rule="nonzero" transform="matrix(3.99497 0 0 3.99497 -2601.49 -1523.813)">
    <path d="m883.679 428.734c7.35 0 11.8-5.2 11.8-10.35 0-6.8-5.7-9.25-10.1-11.4-3.5-1.7-5.45-3-5.45-4.65 0-1.45.95-2.75 3.05-2.75 2.65 0 5.6 1.9 6.75 2.7 1 .6 1.85.2 2.2-.35l2.55-3.85c.2-.35.3-1.25-.3-1.6-1.5-1.1-5.5-3.75-10.7-3.75-7.7 0-11.55 5-11.55 9.95 0 6 4.85 8.7 9.7 11.05 3.3 1.6 5.15 2.95 5.15 5.05 0 1.75-1.45 3-3.45 3-3.15 0-5.7-1.8-7.1-2.75-.5-.35-1.3-.35-1.7.3l-2.3 4.05c-.35.65-.2 1.1.2 1.5 1.15 1.15 4.75 3.85 11.25 3.85z"/>
    <path d="m898.379 427.284c0 .5.45.95.95.95h5.95c.55 0 .95-.45.95-.95v-13.15h14.3v13.15c0 .5.4.95.95.95h5.95c.5 0 .95-.45.95-.95v-33.1c0-.5-.45-.95-.95-.95h-5.95c-.55 0-.95.45-.95.95v12.6h-14.3v-12.6c0-.5-.4-.95-.95-.95h-5.95c-.5 0-.95.45-.95.95z"/>
    <path d="m931.929 415.434c0 7.6 6.35 13.3 14.2 13.3 7.9 0 14.3-5.7 14.3-13.3v-21.25c0-.5-.45-.95-.95-.95h-6.15c-.55 0-.95.45-.95.95v20.85c0 3.65-2.65 5.7-6.25 5.7-3.55 0-6.15-2.05-6.15-5.7v-20.85c0-.5-.4-.95-.95-.95h-6.15c-.5 0-.95.45-.95.95z"/>
    <path d="m963.979 427.284c0 .5.4.95.95.95h5.9c.5 0 .95-.45.95-.95v-12.15h11.4c.5 0 .95-.45.95-.95v-5.45c0-.5-.45-.95-.95-.95h-11.4v-7.2h13.85c.55 0 .95-.45.95-.95v-5.45c0-.5-.4-.95-.95-.95h-20.7c-.55 0-.95.45-.95.95z"/>
    <path d="m989.279 427.284c0 .5.4.95.95.95h5.9c.5 0 .95-.45.95-.95v-12.15h11.401c.5 0 .95-.45.95-.95v-5.45c0-.5-.45-.95-.95-.95h-11.401v-7.2h13.851c.55 0 .95-.45.95-.95v-5.45c0-.5-.4-.95-.95-.95h-20.701c-.55 0-.95.45-.95.95z"/>
    <path d="m1014.58 427.284c0 .5.4.95.95.95h18.8c.55 0 .95-.45.95-.95v-5.45c0-.5-.4-.95-.95-.95h-11.9v-26.7c0-.5-.45-.95-.95-.95h-5.95c-.55 0-.95.45-.95.95z"/>
    <path d="m1037.58 427.284c0 .5.4.95.95.95h20.7c.55 0 .95-.45.95-.95v-5.45c0-.5-.4-.95-.95-.95h-13.85v-6.75h11.4c.5 0 .95-.4.95-.95v-5.45c0-.5-.45-.95-.95-.95h-11.4v-6.2h13.85c.55 0 .95-.45.95-.95v-5.45c0-.5-.4-.95-.95-.95h-20.7c-.55 0-.95.45-.95.95z"/>
  </g>
  <g fill="var(--logo-court-color, var(--accent))" fill-rule="nonzero" transform="matrix(3.99497 0 0 3.99497 -2604.17 -1523.813)">
    <path d="m713.829 410.784c0 10 8.05 17.95 18.05 17.95 4.45 0 8.75-1.55 12.15-4.85.35-.35.4-1 .05-1.35l-3.9-4.15c-.3-.35-.95-.35-1.3-.05-1.8 1.55-3.95 2.4-6.7 2.4-5.65 0-9.85-4.6-9.85-10.15 0-5.6 4.15-10.3 9.8-10.3 2.45 0 4.7.75 6.75 2.55.35.35.9.35 1.25 0l3.9-4.05c.4-.4.4-1-.05-1.4-3.4-3.1-7.1-4.65-12.1-4.65-10 0-18.05 8.05-18.05 18.05z"/>
    <path d="m745.379 410.784c0 10 7.95 17.95 17.95 17.95s18-7.95 18-17.95-8-18.05-18-18.05-17.95 8.05-17.95 18.05zm8 0c0-5.5 4.5-10.05 9.95-10.05 5.5 0 10 4.55 10 10.05 0 5.45-4.5 9.95-10 9.95-5.45 0-9.95-4.5-9.95-9.95z"/>
    <path d="m783.879 415.434c0 7.6 6.35 13.3 14.2 13.3 7.9 0 14.3-5.7 14.3-13.3v-21.25c0-.5-.45-.95-.95-.95h-6.15c-.55 0-.95.45-.95.95v20.85c0 3.65-2.65 5.7-6.25 5.7-3.55 0-6.15-2.05-6.15-5.7v-20.85c0-.5-.4-.95-.95-.95h-6.15c-.5 0-.95.45-.95.95z"/>
    <path d="m815.929 427.284c0 .5.4.95.95.95h5.95c.5 0 .95-.45.95-.95v-12.75h3.45l6.65 13.25c.1.2.4.45.8.45h6.65c.85 0 1.2-.8.85-1.45l-6.85-12.7c4.65-1.75 7.4-5.45 7.4-10.05 0-5.95-4.55-10.8-10.9-10.8h-14.95c-.55 0-.95.45-.95.95zm7.85-19.1v-7.8h7.4c2.05 0 3.8 1.45 3.8 3.8s-1.75 4-3.8 4z"/>
    <path d="m852.979 427.284c0 .5.45.95.95.95h6c.5 0 .95-.45.95-.95v-26.7h7.15c.55 0 .95-.45.95-.95v-5.45c0-.5-.4-.95-.95-.95h-22.2c-.55 0-.95.45-.95.95v5.45c0 .5.4.95.95.95h7.15z"/>
  </g>
</svg>
