<svg viewBox="0 0 219 236" xmlns="http://www.w3.org/2000/svg" fill-rule="evenodd" clip-rule="evenodd" stroke-linejoin="round" stroke-miterlimit="2"><path d="M11.591 60.573l33.265 120.682L.811 76.303c-2.202-5.243.232-11.287 5.448-13.488l5.332-2.242zm20.051-23.401l20.052 142.836L16.459 52.027c0-.315-.116-.632-.116-.948-.928-5.174 2.202-10.297 7.302-11.718l7.997-2.189z" fill="#00e727"/><path d="M179.074.101c5.68-.79 10.896 3.139 11.707 8.77l27.47 196.031c0 .195.115.388.115.581.116 1.745-.231 3.437-.811 4.954-1.391 3.178-4.404 5.584-7.997 6.101L76.846 235.163c-5.564.791-10.78-3.139-11.591-8.77L37.669 30.362c0-.692-.116-1.377 0-2.048a10.18 10.18 0 0 1 8.809-9.588L179.074.101zm8.346 207.771c1.622-5.04 4.056-10.09 6.143-13.866 6.259-11.14 7.534-14.236 8.229-20.371 1.043-9.604-8.113-15.938-14.604-9.9-1.507 1.422-2.898 4.955-2.666 6.367.116 1.017-.464 1.663-1.159 1.172-.116-.098-.232-.549-.232-1.203-.232-4.256.464-11.322 3.13-16.067l-12.982 1.835c4.636 4.676 6.723 9.763 7.302 14.732.348 2.132-.927 2.1-1.622-.041-2.898-10.502-16.343-6.553-15.532 4.239.464 5.648 4.752 11.113 10.316 17.073 4.52 4.862 9.968 10.04 13.677 16.03zM68.5 27.391c-1.506 5.048-3.94 10.105-6.027 13.887-6.375 11.153-7.534 14.254-8.229 20.397-1.159 9.618 8.113 15.964 14.604 9.918 1.507-1.424 2.898-4.962 2.666-6.377-.116-1.018.463-1.665 1.159-1.173.116.098.232.549.232 1.204.232 4.262-.464 11.339-3.13 16.09l12.982-1.835c-4.637-4.683-6.723-9.779-7.302-14.754-.348-2.135.927-2.103 1.506.041 2.898 10.519 16.459 6.565 15.648-4.243-.464-5.656-4.868-11.13-10.316-17.1-4.52-4.87-9.968-10.056-13.793-16.055zm81.493 59.605c-.77.822-.77 1.839.428 7.741 2.054 10.014 6.675 19.592 12.151 24.817 1.198 1.162 2.396 1.887 2.91 1.791 3.508-.678.342-17.707-4.45-24.334-.77-1.114-1.455-2.177-1.455-2.371 0-.629-6.332-7.063-7.53-7.692-1.284-.726-1.284-.726-2.054.048zm-27.127-8.949c-11.895 2.128-17.714 5.127-25.159 12.674-5.305 5.419-5.305 8.37.172 10.595 1.54.629 4.621 1.935 6.845 2.855 5.392 2.177 11.981 6.627 16.431 10.981 8.899 8.66 13.092 17.754 13.948 30.139.514 7.451.941 8.756 2.995 9.628 1.797.725 4.621-.049 8.9-2.516 8.129-4.597 16.687-15.239 16.687-20.755 0-1.838-1.968-5.127-5.648-9.481-7.702-9.095-11.98-19.061-13.178-30.962-.343-3.096-.942-6.483-1.198-7.546-.771-2.613-1.284-2.903-8.13-4.887-1.968-.532-6.589-1.44-12.665-.725zm-33.288 28.591c-1.797 1.451-2.482 4.257-2.482 11.175 0 8.562 1.712 14.513 6.418 22.157 1.969 3.241 8.643 9.578 12.58 11.9 5.648 3.387 12.665 5.564 17.885 5.612 2.652 0 2.995-.145 4.364-1.693 1.882-2.128 2.31-5.66 1.711-12.288-.77-7.16-3.251-13.836-7.188-18.77-5.391-7.015-10.611-11.321-17.97-14.9-8.9-4.354-12.836-5.129-15.318-3.193z" fill="#fff"/></svg>