<svg clip-rule="evenodd" fill-rule="evenodd" stroke-linejoin="round" stroke-miterlimit="2" viewBox="0 0 2243 208" xmlns="http://www.w3.org/2000/svg">
  <g class="icon-shuffle" fill-rule="nonzero" transform="matrix(5.74222 0 0 5.74222 -3845 -2253.88)">
    <path d="m883.679 428.734c7.35 0 11.8-5.2 11.8-10.35 0-6.8-5.7-9.25-10.1-11.4-3.5-1.7-5.45-3-5.45-4.65 0-1.45.95-2.75 3.05-2.75 2.65 0 5.6 1.9 6.75 2.7 1 .6 1.85.2 2.2-.35l2.55-3.85c.2-.35.3-1.25-.3-1.6-1.5-1.1-5.5-3.75-10.7-3.75-7.7 0-11.55 5-11.55 9.95 0 6 4.85 8.7 9.7 11.05 3.3 1.6 5.15 2.95 5.15 5.05 0 1.75-1.45 3-3.45 3-3.15 0-5.7-1.8-7.1-2.75-.5-.35-1.3-.35-1.7.3l-2.3 4.05c-.35.65-.2 1.1.2 1.5 1.15 1.15 4.75 3.85 11.25 3.85z"/>
    <path d="m898.379 427.284c0 .5.45.95.95.95h5.95c.55 0 .95-.45.95-.95v-13.15h14.3v13.15c0 .5.4.95.95.95h5.95c.5 0 .95-.45.95-.95v-33.1c0-.5-.45-.95-.95-.95h-5.95c-.55 0-.95.45-.95.95v12.6h-14.3v-12.6c0-.5-.4-.95-.95-.95h-5.95c-.5 0-.95.45-.95.95z"/>
    <path d="m931.929 415.434c0 7.6 6.35 13.3 14.2 13.3 7.9 0 14.3-5.7 14.3-13.3v-21.25c0-.5-.45-.95-.95-.95h-6.15c-.55 0-.95.45-.95.95v20.85c0 3.65-2.65 5.7-6.25 5.7-3.55 0-6.15-2.05-6.15-5.7v-20.85c0-.5-.4-.95-.95-.95h-6.15c-.5 0-.95.45-.95.95z"/>
    <path d="m963.979 427.284c0 .5.4.95.95.95h5.9c.5 0 .95-.45.95-.95v-12.15h11.4c.5 0 .95-.45.95-.95v-5.45c0-.5-.45-.95-.95-.95h-11.4v-7.2h13.85c.55 0 .95-.45.95-.95v-5.45c0-.5-.4-.95-.95-.95h-20.7c-.55 0-.95.45-.95.95z"/>
    <path d="m989.279 427.284c0 .5.4.95.95.95h5.9c.5 0 .95-.45.95-.95v-12.15h11.401c.5 0 .95-.45.95-.95v-5.45c0-.5-.45-.95-.95-.95h-11.401v-7.2h13.851c.55 0 .95-.45.95-.95v-5.45c0-.5-.4-.95-.95-.95h-20.701c-.55 0-.95.45-.95.95z"/>
    <path d="m1014.58 427.284c0 .5.4.95.95.95h18.8c.55 0 .95-.45.95-.95v-5.45c0-.5-.4-.95-.95-.95h-11.9v-26.7c0-.5-.45-.95-.95-.95h-5.95c-.55 0-.95.45-.95.95z"/>
    <path d="m1037.58 427.284c0 .5.4.95.95.95h20.7c.55 0 .95-.45.95-.95v-5.45c0-.5-.4-.95-.95-.95h-13.85v-6.75h11.4c.5 0 .95-.4.95-.95v-5.45c0-.5-.45-.95-.95-.95h-11.4v-6.2h13.85c.55 0 .95-.45.95-.95v-5.45c0-.5-.4-.95-.95-.95h-20.7c-.55 0-.95.45-.95.95z"/>
  </g>
  <g class="icon-court" fill-rule="nonzero" transform="matrix(5.74222 0 0 5.74222 -3848.9 -2253.88)">
    <path d="m713.829 410.784c0 10 8.05 17.95 18.05 17.95 4.45 0 8.75-1.55 12.15-4.85.35-.35.4-1 .05-1.35l-3.9-4.15c-.3-.35-.95-.35-1.3-.05-1.8 1.55-3.95 2.4-6.7 2.4-5.65 0-9.85-4.6-9.85-10.15 0-5.6 4.15-10.3 9.8-10.3 2.45 0 4.7.75 6.75 2.55.35.35.9.35 1.25 0l3.9-4.05c.4-.4.4-1-.05-1.4-3.4-3.1-7.1-4.65-12.1-4.65-10 0-18.05 8.05-18.05 18.05z"/>
    <path d="m744.879 410.784c0 10 7.95 17.95 17.95 17.95s18-7.95 18-17.95-8-18.05-18-18.05-17.95 8.05-17.95 18.05zm8 0c0-5.5 4.5-10.05 9.95-10.05 5.5 0 10 4.55 10 10.05 0 5.45-4.5 9.95-10 9.95-5.45 0-9.95-4.5-9.95-9.95z"/>
    <path d="m783.379 415.434c0 7.6 6.35 13.3 14.2 13.3 7.9 0 14.3-5.7 14.3-13.3v-21.25c0-.5-.45-.95-.95-.95h-6.15c-.55 0-.95.45-.95.95v20.85c0 3.65-2.65 5.7-6.25 5.7-3.55 0-6.15-2.05-6.15-5.7v-20.85c0-.5-.4-.95-.95-.95h-6.15c-.5 0-.95.45-.95.95z"/>
    <path d="m815.429 427.284c0 .5.4.95.95.95h5.95c.5 0 .95-.45.95-.95v-12.75h3.45l6.65 13.25c.1.2.4.45.8.45h6.65c.85 0 1.2-.8.85-1.45l-6.85-12.7c4.65-1.75 7.4-5.45 7.4-10.05 0-5.95-4.55-10.8-10.9-10.8h-14.95c-.55 0-.95.45-.95.95zm7.85-19.1v-7.8h7.4c2.05 0 3.8 1.45 3.8 3.8s-1.75 4-3.8 4z"/>
    <path d="m852.479 427.284c0 .5.45.95.95.95h6c.5 0 .95-.45.95-.95v-26.7h7.15c.55 0 .95-.45.95-.95v-5.45c0-.5-.4-.95-.95-.95h-22.2c-.55 0-.95.45-.95.95v5.45c0 .5.4.95.95.95h7.15z"/>
  </g>
  <g class="icon-card-slice small">
    <path d="m16844 825.719-14.2-33.973c-1.9-4.524.2-9.738 4.7-11.637l4.6-1.935 16 58.137c-6.5-.685-8.7-5.32-11.1-10.592z" transform="matrix(2.0006790012 0 0 1.980406815 -33669.7172246 -1448.630255)"/>
  </g>
  <g class="icon-card-slice big">
    <path d="m16861.4 836.364-18.1-65.563c0-.272-.1-.545-.1-.818-.8-4.464 1.9-8.884 6.3-10.11l6.9-1.888 11 78.379c-2-.009-3.9-.013-6 0z" transform="matrix(2.0006790012 0 0 1.980406815 -33672.1655694 -1448.630255)"/>
  </g>
    <g class="icon-card">
    <g class="icon-card-face">
      <path d="m16871.9 824.842-10.3-72.733c0-.597-.1-1.188 0-1.767.2-4.139 3.3-7.673 7.6-8.272l45.3-6.365c9.5-1.128 12.5 4.974 12.6 11.051 0 .206.1 52.745 0 66.571-.1 6.705-3.9 11.354-12.6 11.521-12.2.236-32 0-39.8 0-1 0-1.9-.002-2.8-.006z" transform="matrix(2.3508725812 0 0 2.32705902 -39578.626818 -1711.685765)"/>
    </g>
    <g class="icon-clubs">
      <path d="m437.739 768.595c14.917-26.055 20.125-56 22.625-75.859 1.417-10.971-3.625-7.729-5.375-1.266-18.208 58.254-103.208 53.054-105-16.692-1-37.825 46.917-64.204 81.458-39.671 14.167 9.313 4.75-4.008.5-8.15-34.208-34.496-19.75-93.146 36-96.454.018 0 .035.001.052.001s.035-.001.052-.001c55.75 3.308 70.208 61.958 36 96.454-4.25 4.142-13.667 17.463.5 8.15 34.541-24.533 82.458 1.846 81.458 39.671-1.792 69.746-86.792 74.946-105 16.692-1.75-6.463-6.792-9.705-5.375 1.266 2.5 19.859 7.708 49.804 22.625 75.859z" transform="matrix(.447484 0 0 .447484 -65.9 -191.66)"/>
    </g>
    <g class="icon-hearts">
      <path d="m466.669 770.589c-8-17.82-33.799-54.85-52.216-80.487-16.292-24.758-37.792-48.796-45.042-88.721-5.916-32.679 15.167-71.292 49.834-71.742 21.333-2.875 44.375 18.15 45.833 43.875.388 1.432.888 2.334 1.591 2.213.703.121 1.203-.781 1.591-2.213 1.458-25.725 24.5-46.75 45.833-43.875 34.667.45 55.75 39.063 49.834 71.742-7.25 39.925-28.75 63.963-45.042 88.721-18.417 25.637-44.216 62.667-52.216 80.487z" transform="matrix(.441517 0 0 .441517 -62.5 -187.95)"/>
    </g>
    <g class="icon-diamonds">
      <path d="m468.009 775.193c-22.768-46.539-53.896-87.586-90.67-125.626 36.774-38.04 67.902-79.087 90.67-125.626 22.768 46.539 53.896 87.586 90.67 125.626-36.774 38.04-67.902 79.087-90.67 125.626z" transform="matrix(.42384 0 0 .42384 -54.6 -176.33)"/>
    </g>
    <g class="icon-spades">
      <path d="m274.217 358.676c-17.805-23.608-23.758-47.4-23.434-69.776.045-9.616 5.739-8.67 7.013 1.172 6.276 48.275 68.531 39.211 71.436-9.078 3.088-45.645-63.212-111.95-85.644-161.427-22.432 49.477-88.732 115.782-85.644 161.427 2.905 48.289 65.16 57.353 71.436 9.078 1.274-9.842 6.968-10.788 7.013-1.172.324 22.376-5.629 46.168-23.434 69.776z" transform="matrix(.445404 0 0 .445404 35.1 -7.48)"/>
    </g>
  </g>
</svg>

