<svg viewBox="0 0 1387 144" xmlns="http://www.w3.org/2000/svg" fill-rule="evenodd" clip-rule="evenodd" stroke-linejoin="round" stroke-miterlimit="2"><path d="M681.226 143.819c29.363 0 47.14-20.774 47.14-41.348 0-27.166-22.771-36.953-40.349-45.543-13.982-6.791-21.772-11.985-21.772-18.576 0-5.793 3.795-10.986 12.184-10.986 10.587 0 22.372 7.59 26.966 10.786 3.995 2.397 7.391.799 8.789-1.398l10.187-15.381c.799-1.398 1.199-4.994-1.198-6.392C717.18 10.587 701.201 0 680.427 0c-30.762 0-46.142 19.975-46.142 39.75 0 23.97 19.375 34.756 38.751 44.144 13.183 6.392 20.574 11.786 20.574 20.175 0 6.991-5.793 11.985-13.783 11.985-12.584 0-22.771-7.191-28.364-10.986-1.997-1.399-5.193-1.399-6.791 1.198l-9.189 16.18c-1.398 2.597-.799 4.394.799 5.992 4.594 4.595 18.976 15.381 44.944 15.381zm58.726-5.793c0 1.998 1.797 3.795 3.795 3.795h23.77c2.197 0 3.795-1.797 3.795-3.795V85.492h57.128v52.534c0 1.998 1.598 3.795 3.796 3.795h23.77c1.997 0 3.795-1.797 3.795-3.795V5.793c0-1.998-1.798-3.796-3.795-3.796h-23.77c-2.198 0-3.796 1.798-3.796 3.796v50.336h-57.128V5.793c0-1.998-1.598-3.796-3.795-3.796h-23.77c-1.998 0-3.795 1.798-3.795 3.796v132.233zm134.031-47.34c0 30.362 25.368 53.133 56.729 53.133 31.56 0 57.128-22.771 57.128-53.133V5.793c0-1.998-1.798-3.796-3.796-3.796h-24.569c-2.197 0-3.795 1.798-3.795 3.796v83.295c0 14.581-10.587 22.771-24.968 22.771-14.183 0-24.57-8.19-24.57-22.771V5.793c0-1.998-1.598-3.796-3.795-3.796h-24.569c-1.997 0-3.795 1.798-3.795 3.796v84.893zm128.037 47.34c0 1.998 1.598 3.795 3.795 3.795h23.57c1.998 0 3.796-1.797 3.796-3.795V89.487h45.542c1.998 0 3.795-1.797 3.795-3.795V63.92c0-1.998-1.797-3.796-3.795-3.796h-45.542V31.361h55.33c2.197 0 3.795-1.798 3.795-3.796V5.793c0-1.998-1.598-3.796-3.795-3.796h-82.696c-2.197 0-3.795 1.798-3.795 3.796v132.233zm101.07 0c0 1.998 1.598 3.795 3.796 3.795h23.57c1.998 0 3.795-1.797 3.795-3.795V89.487h45.547c1.997 0 3.795-1.797 3.795-3.795V63.92c0-1.998-1.798-3.796-3.795-3.796h-45.547V31.361h55.335c2.197 0 3.795-1.798 3.795-3.796V5.793c0-1.998-1.598-3.796-3.795-3.796h-82.7c-2.198 0-3.796 1.798-3.796 3.796v132.233zm101.08 0c0 1.998 1.598 3.795 3.795 3.795h75.106c2.197 0 3.795-1.797 3.795-3.795v-21.772c0-1.998-1.598-3.796-3.795-3.796h-47.54V5.793c0-1.998-1.798-3.796-3.795-3.796h-23.771c-2.197 0-3.795 1.798-3.795 3.796v132.233zm91.89 0c0 1.998 1.598 3.795 3.795 3.795h82.696c2.197 0 3.795-1.797 3.795-3.795v-21.772c0-1.998-1.598-3.796-3.795-3.796h-55.331V85.492h45.543c1.997 0 3.795-1.598 3.795-3.795V59.925c0-1.998-1.798-3.796-3.795-3.796h-45.543V31.361h55.331c2.197 0 3.795-1.798 3.795-3.796V5.793c0-1.998-1.598-3.796-3.795-3.796h-82.696c-2.197 0-3.795 1.798-3.795 3.796v132.233z" fill="#fff" fill-rule="nonzero"/><path d="M0 72.109c0 39.95 32.16 71.71 72.109 71.71 17.778 0 34.956-6.192 48.539-19.376 1.398-1.398 1.598-3.995.2-5.393l-15.581-16.579c-1.198-1.398-3.795-1.398-5.193-.2-7.191 6.192-15.78 9.588-26.766 9.588-22.572 0-39.351-18.377-39.351-40.549 0-22.372 16.579-41.148 39.151-41.148 9.788 0 18.776 2.996 26.966 10.187a3.498 3.498 0 0 0 4.994 0l15.58-16.179c1.598-1.598 1.598-3.995-.2-5.593C106.865 6.192 92.084 0 72.109 0 32.16 0 0 32.16 0 72.109zm126.041 0c0 39.95 31.76 71.71 71.71 71.71 39.95 0 71.909-31.76 71.909-71.71C269.66 32.16 237.701 0 197.751 0s-71.71 32.16-71.71 72.109zm31.96 0c0-21.972 17.977-40.149 39.75-40.149 21.972 0 39.95 18.177 39.95 40.149 0 21.773-17.978 39.75-39.95 39.75-21.773 0-39.75-17.977-39.75-39.75zm121.847 18.577c0 30.362 25.368 53.133 56.728 53.133 31.56 0 57.128-22.771 57.128-53.133V5.793c0-1.998-1.797-3.796-3.795-3.796H365.34c-2.197 0-3.795 1.798-3.795 3.796v83.295c0 14.581-10.587 22.771-24.969 22.771-14.182 0-24.569-8.19-24.569-22.771V5.793c0-1.998-1.598-3.796-3.795-3.796h-24.569c-1.998 0-3.795 1.798-3.795 3.796v84.893zm128.038 47.34c0 1.998 1.598 3.795 3.796 3.795h23.77c1.997 0 3.795-1.797 3.795-3.795V87.09h13.783l26.566 52.934c.4.799 1.598 1.797 3.196 1.797h26.567c3.395 0 4.794-3.196 3.395-5.792l-27.365-50.736c18.576-6.992 29.563-21.773 29.563-40.15 0-23.77-18.177-43.146-43.546-43.146h-59.724c-2.198 0-3.796 1.798-3.796 3.796v132.233zm31.361-76.304v-31.16h29.563c8.189 0 15.181 5.792 15.181 15.18 0 9.389-6.992 15.98-15.181 15.98h-29.563zM555.9 138.026c0 1.998 1.798 3.795 3.795 3.795h23.97c1.998 0 3.795-1.797 3.795-3.795V31.361h28.564c2.198 0 3.796-1.798 3.796-3.796V5.793c0-1.998-1.598-3.796-3.796-3.796h-88.688c-2.197 0-3.795 1.798-3.795 3.796v21.772c0 1.998 1.598 3.796 3.795 3.796H555.9v106.665z" fill="#00e727" fill-rule="nonzero"/></svg>