<svg viewBox="0 0 200 200" xmlns="http://www.w3.org/2000/svg" fill-rule="evenodd" clip-rule="evenodd" stroke-linejoin="round" stroke-miterlimit="2"><g transform="translate(-21092.661 -3327.36)"><path fill="none" d="M21092.6 3327.36H21292.581V3527.3410000000003H21092.6z"/><clipPath id="a"><path d="M21092.6 3327.36H21292.581V3527.3410000000003H21092.6z"/></clipPath><g clip-path="url(#a)"><path d="M21192.947 3327.36c-8.302 17.855-19.986 35.274-29.787 48.148-29.034 37.96-35.274 48.765-41.01 71.114-8.984 34.986 21.982 63.253 48.84 44.242 6.328-4.478 13.335-16.825 13.363-22.155.022-3.834 2.64-5.903 4.768-3.753.427.432.535 2.148.405 4.6-1.488 15.852-7.846 41.629-20.159 57.805h49.199c-14.893-19.747-19.872-39.648-19.601-58.364.037-8.043 4.8-7.252 5.866.98 5.25 40.38 57.322 32.798 59.751-7.593 1.43-21.119-11.9-43.622-29.272-68.56-14.173-20.346-31.415-42.316-42.363-66.463z"/></g></g></svg>