<svg xmlns="http://www.w3.org/2000/svg" fill-rule="evenodd" stroke-linejoin="round" stroke-miterlimit="2" clip-rule="evenodd" viewBox="0 0 934 1300"><path fill-rule="nonzero" d="M899.92 1241.94h-12.96v-131.28h12.96zm-51.38 0c12.48 0 22.5-11.2 22.5-25.1v-81.09c0-13.89-10.02-25.1-22.5-25.1h-7.27c-12.48 0-22.52 11.21-22.52 25.1v81.09c0 13.9 10.04 25.1 22.52 25.1zm-3.75-12.42c-7.37 0-13.3-5.57-13.3-12.5v-82.18c0-6.94 5.93-12.52 13.3-12.52s13.3 5.58 13.3 12.52v82.18c0 6.93-5.93 12.5-13.3 12.5M33.39 58.07h12.97v131.28H33.39zm51.38 0c-12.48 0-22.5 11.2-22.5 25.1v81.08c0 13.9 10.02 25.1 22.5 25.1h7.27c12.47 0 22.52-11.2 22.52-25.1V83.16c0-13.9-10.05-25.1-22.52-25.1zm3.75 12.4c7.37 0 13.3 5.58 13.3 12.52v82.17c0 6.94-5.93 12.53-13.3 12.53s-13.3-5.59-13.3-12.53V83c0-6.94 5.93-12.51 13.3-12.51m559.96 558.97c12-24.07 20.7-48.76 22.3-75.16 1.4-9.72-4.5-9.88-5.38-3.04-17 64.97-107.34 47.38-104.25-13.73 2.54-49.57 51.75-60.23 77.41-44.02 10.17 5.97 9.59 2.4 4.04-3.8-38.12-42.55-15.04-97.34 36.5-98.35 55.75 3.31 70.21 61.96 36.05 96.46-4.25 4.14-13.71 17.46.5 8.15 34.54-24.54 82.45 1.84 81.45 39.66-1.79 69.75-86.83 74.95-105 16.7-1.75-6.46-6.79-9.7-5.41 1.27 2.54 19.86 7.75 49.8 22.66 75.86zm-431.42 0c12-24.07 20.75-48.76 22.3-75.16 1.45-9.72-4.46-9.88-5.34-3.04-17 64.97-107.37 47.38-104.25-13.73 2.5-49.57 51.75-60.23 77.42-44.02 10.12 5.97 9.58 2.4 4.04-3.8-38.17-42.55-15.04-97.34 36.5-98.35 55.75 3.31 70.2 61.96 36 96.46-4.25 4.14-13.67 17.46.54 8.15 34.5-24.54 82.42 1.84 81.46 39.66-1.8 69.75-86.83 74.95-105 16.7-1.75-6.46-6.8-9.7-5.42 1.27 2.54 19.86 7.75 49.8 22.67 75.86zm215.5-136.11c12-24.07 20.75-48.75 22.3-75.16 1.41-9.71-4.5-9.87-5.38-3.03-17 64.97-107.33 47.37-104.25-13.74 2.54-49.56 51.75-60.22 77.46-44.02 10.12 5.97 9.54 2.4 4-3.8-38.13-42.54-15.04-97.34 36.5-98.34 55.75 3.3 70.25 61.96 36.04 96.45-4.25 4.15-13.67 17.47.5 8.15 34.54-24.53 82.46 1.85 81.5 39.67-1.83 69.75-86.88 74.95-105.04 16.7-1.75-6.47-6.8-9.7-5.38 1.26 2.5 19.86 7.71 49.8 22.63 75.86zm215.92-136.1c12-24.07 20.7-48.76 22.3-75.16 1.4-9.72-4.5-9.88-5.38-3.04-17 64.97-107.34 47.38-104.25-13.73 2.54-49.56 51.75-60.23 77.41-44.02 10.17 5.97 9.59 2.4 4.04-3.8-38.12-42.55-15.04-97.34 36.5-98.34 55.75 3.3 70.21 61.95 36.05 96.45-4.25 4.14-13.71 17.46.5 8.15 34.54-24.54 82.45 1.84 81.45 39.67-1.79 69.74-86.83 74.94-105 16.69-1.75-6.46-6.79-9.7-5.41 1.26 2.54 19.87 7.75 49.81 22.66 75.86zm-431.42 0c12-24.07 20.75-48.76 22.3-75.16 1.45-9.72-4.46-9.88-5.34-3.04-17 64.97-107.37 47.38-104.25-13.73 2.5-49.56 51.75-60.23 77.42-44.02 10.12 5.97 9.58 2.4 4.04-3.8-38.17-42.55-15.04-97.34 36.5-98.34 55.75 3.3 70.2 61.95 36 96.45-4.25 4.14-13.67 17.46.54 8.15 34.5-24.54 82.42 1.84 81.46 39.67-1.8 69.74-86.83 74.94-105 16.69-1.75-6.46-6.8-9.7-5.42 1.26 2.54 19.87 7.75 49.81 22.67 75.86zm61.3 313.32c-12 24.07-20.76 48.76-22.3 75.16-1.41 9.71 4.46 9.88 5.38 3.03 16.96-64.96 107.33-47.37 104.2 13.74-2.5 49.56-51.74 60.23-77.41 44.02-10.13-5.97-9.54-2.4-4.04 3.8 38.16 42.55 15.04 97.34-36.5 98.34-55.75-3.3-70.21-61.95-36-96.45 4.25-4.14 13.66-17.46-.5-8.15-34.54 24.53-82.46-1.85-81.5-39.67 1.83-69.75 86.83-74.95 105.04-16.7 1.75 6.47 6.8 9.72 5.37-1.26-2.5-19.86-7.75-49.8-22.66-75.86zm0 272.21c-12 24.07-20.76 48.76-22.3 75.16-1.41 9.71 4.46 9.88 5.38 3.04 16.96-64.97 107.33-47.38 104.2 13.73-2.5 49.56-51.74 60.22-77.41 44.02-10.13-5.97-9.54-2.4-4.04 3.8 38.16 42.55 15.04 97.34-36.5 98.34-55.75-3.3-70.21-61.96-36-96.45 4.25-4.14 13.66-17.46-.5-8.15-34.54 24.54-82.46-1.84-81.5-39.67 1.83-69.75 86.83-74.95 105.04-16.69 1.75 6.46 6.8 9.7 5.37-1.27-2.5-19.86-7.75-49.8-22.66-75.86zm431.37-272.2c-12 24.06-20.75 48.75-22.3 75.15-1.4 9.71 4.5 9.88 5.38 3.03 17-64.96 107.34-47.37 104.25 13.74-2.54 49.56-51.75 60.23-77.41 44.02-10.17-5.97-9.59-2.4-4.05 3.8 38.13 42.55 15.05 97.34-36.5 98.34-55.79-3.3-70.25-61.95-36.04-96.45 4.25-4.14 13.67-17.46-.5-8.15-34.54 24.53-82.46-1.85-81.46-39.67 1.8-69.75 86.84-74.95 105-16.7 1.75 6.47 6.8 9.72 5.38-1.26-2.5-19.86-7.7-49.8-22.63-75.86zm0 272.2c-12 24.07-20.75 48.76-22.3 75.16-1.4 9.71 4.5 9.88 5.38 3.04 17-64.97 107.34-47.38 104.25 13.73-2.54 49.56-51.75 60.22-77.41 44.02-10.17-5.97-9.59-2.4-4.05 3.8 38.13 42.55 15.05 97.34-36.5 98.34-55.79-3.3-70.25-61.96-36.04-96.45 4.25-4.14 13.67-17.46-.5-8.15-34.54 24.54-82.46-1.84-81.46-39.67 1.8-69.75 86.84-74.95 105-16.69 1.75 6.46 6.8 9.7 5.38-1.27-2.5-19.86-7.7-49.8-22.63-75.86zm-213.96-136.1c-12 24.06-20.75 48.75-22.3 75.15-1.4 9.72 4.5 9.88 5.38 3.04 17-64.97 107.34-47.37 104.25 13.73-2.54 49.57-51.75 60.23-77.45 44.03-10.13-5.98-9.55-2.4-4 3.8 38.12 42.54 15.04 97.33-36.5 98.34-55.75-3.31-70.21-61.96-36.05-96.45 4.25-4.15 13.71-17.47-.5-8.16-34.54 24.54-82.45-1.84-81.45-39.66 1.79-69.75 86.83-74.95 105-16.7 1.75 6.46 6.79 9.7 5.37-1.27-2.5-19.85-7.7-49.8-22.62-75.85zM56.44 313.9c4.96-10.18 9.79-19.67 12.46-30.83 1.75-10.54-1.84-6.62-3.88.28-3 9.57-11.33 13.93-19.08 14.04-14.04.18-21.04-10.85-20.63-22.73-1.5-12.5 11.13-21.33 20.67-20.65 7.2.51 13.46 4.38 17.25 7.4 2.46 1.31 5.12 1.89 1.42-1.5-7-7.64-12.8-12.35-12.67-23.79.12-10.75 9.3-21.95 21.46-21.6 15.2.44 22.12 12.04 22.12 22.83a24.7 24.7 0 0 1-10.08 19.6c-3.92 3.2-2.83 5.58 1.67 2.56a23 23 0 0 1 14.79-5.46c14.54-.23 20.2 12.34 19.37 24.02-.79 10.94-10.08 22.2-22.37 20.93-10.96-1.26-16.71-10.46-20-19.9-1.09-2.9-2.84-3.69-2.8.63 2.55 21.07 10.38 34.19 10.46 34.17zM876.9 988.92c-5 10.18-9.84 19.66-12.46 30.83-1.75 10.53 1.83 6.62 3.87-.28 3-9.58 11.34-13.93 19.09-14.04 14.04-.19 21.04 10.85 20.62 22.73 1.5 12.49-11.17 21.33-20.7 20.65-7.17-.51-13.42-4.39-17.22-7.4-2.5-1.31-5.12-1.89-1.41 1.5 6.96 7.64 12.79 12.35 12.66 23.79-.12 10.75-9.29 21.95-21.45 21.6-15.25-.44-22.17-12.04-22.13-22.83.04-7.87 4-15.11 10.04-19.6 3.96-3.19 2.84-5.58-1.62-2.56a23 23 0 0 1-14.8 5.46c-14.54.23-20.2-12.34-19.37-24.02.75-10.94 10.08-22.2 22.38-20.93 10.95 1.26 16.7 10.46 20 19.91 1.08 2.89 2.83 3.68 2.79-.64-2.54-21.07-10.42-34.19-10.46-34.17z"/></svg>