<svg xmlns="http://www.w3.org/2000/svg" fill-rule="evenodd" stroke-linejoin="round" stroke-miterlimit="2" clip-rule="evenodd" viewBox="0 0 934 1300"><path fill="#d40000" fill-rule="nonzero" d="M138.43 239.18c41.33-40.34 68.48-84.32 94.44-126.62 22.77 46.54 55.43 87.26 90.77 126.62-37.8 39.03-67.1 80.78-90.65 124.65-26.12-44.98-53.62-85.7-94.56-124.65m0 272.21c41.33-40.34 68.48-84.32 94.44-126.62 22.77 46.54 55.44 87.26 90.77 126.62-37.8 39.03-67.1 80.77-90.65 124.65-26.12-44.98-53.62-85.71-94.56-124.65m0 278.73c41.33-40.34 68.48-84.32 94.44-126.62 22.77 46.54 55.44 87.26 90.77 126.62-37.8 39.04-67.1 80.78-90.65 124.66-26.12-44.98-53.62-85.72-94.56-124.66m0 271.27c41.33-40.34 68.48-84.32 94.44-126.62 22.77 46.54 55.44 87.26 90.77 126.62-37.8 39.04-67.1 80.78-90.65 124.66-26.12-44.98-53.62-85.71-94.56-124.66M372.5 382.36c41.34-40.34 68.5-84.32 94.45-126.62 22.77 46.54 55.44 87.26 90.78 126.62-37.8 39.03-67.11 80.78-90.67 124.65-26.1-44.98-53.6-85.71-94.56-124.65m-1.94 534.75c41.33-40.34 68.48-84.32 94.45-126.62 22.76 46.55 55.44 87.26 90.78 126.62-37.81 39.04-67.11 80.78-90.67 124.66-26.12-44.98-53.6-85.71-94.56-124.66m232.57-677.93c41.33-40.34 68.48-84.32 94.44-126.62 22.77 46.54 55.45 87.26 90.79 126.62-37.81 39.03-67.12 80.78-90.67 124.65-26.12-44.98-53.6-85.7-94.56-124.65m0 272.21c41.33-40.34 68.48-84.32 94.44-126.62 22.77 46.54 55.45 87.26 90.79 126.62-37.81 39.03-67.12 80.77-90.67 124.65-26.12-44.98-53.6-85.71-94.56-124.65m0 278.73c41.33-40.34 68.48-84.32 94.44-126.62 22.77 46.54 55.45 87.26 90.79 126.62-37.81 39.04-67.12 80.78-90.67 124.66-26.12-44.98-53.6-85.72-94.56-124.66m0 271.27c41.33-40.34 68.48-84.32 94.44-126.62 22.77 46.54 55.45 87.26 90.79 126.62-37.81 39.04-67.12 80.78-90.67 124.66-26.12-44.98-53.6-85.71-94.56-124.66m218.84-25.18c16.94-16.53 28.07-34.54 38.7-51.87 9.32 19.06 22.7 35.74 37.18 51.87a227 227 0 0 0-37.14 51.06c-10.7-18.42-21.95-35.11-38.74-51.06M35.26 261.81c16.94-16.53 28.05-34.54 38.69-51.88 9.33 19.07 22.72 35.75 37.2 51.87-15.5 16-27.5 33.1-37.15 51.07-10.7-18.43-21.96-35.11-38.74-51.07M33.33 58.06H46.3v131.28H33.33zm51.38 0c-12.48 0-22.51 11.2-22.51 25.1v81.08c0 13.9 10.03 25.1 22.51 25.1h7.27c12.48 0 22.53-11.2 22.53-25.1V83.17c0-13.9-10.05-25.1-22.53-25.1zm3.75 12.42c7.37 0 13.3 5.57 13.3 12.5v82.18c0 6.94-5.93 12.52-13.3 12.52s-13.3-5.58-13.3-12.52V82.98c0-6.93 5.93-12.5 13.3-12.5m811.41 1171.46h-12.96v-131.28h12.96zm-51.37 0c12.48 0 22.5-11.2 22.5-25.1v-81.09c0-13.9-10.02-25.09-22.5-25.09h-7.27c-12.48 0-22.52 11.19-22.52 25.09v81.09c0 13.9 10.04 25.1 22.52 25.1zm-3.76-12.41c-7.36 0-13.3-5.57-13.3-12.51v-82.18c0-6.93 5.94-12.52 13.3-12.52 7.38 0 13.3 5.59 13.3 12.52v82.18c0 6.94-5.92 12.51-13.3 12.51"/></svg>