<svg xmlns="http://www.w3.org/2000/svg" fill-rule="evenodd" stroke-linejoin="round" stroke-miterlimit="2" clip-rule="evenodd" viewBox="0 0 224 312"><path fill="#d40000" fill-rule="nonzero" d="M8 13.93h3.12v31.5H8.01zm12.34 0c-3 0-5.4 2.69-5.4 6.03v19.46c0 3.33 2.4 6.02 5.4 6.02h1.74c3 0 5.41-2.69 5.41-6.02V19.95c0-3.33-2.41-6.02-5.4-6.02zm.9 2.98c1.77 0 3.2 1.34 3.2 3v19.73c0 1.66-1.43 3-3.2 3s-3.19-1.34-3.19-3V19.9c0-1.66 1.42-3 3.2-3m191.62 249.65h3.1v31.5h-3.1zm-9.22 31.5c3 0 5.4-2.68 5.4-6.01v-19.47c0-3.33-2.4-6.02-5.4-6.02h-1.75c-3 0-5.4 2.69-5.4 6.02v19.47c0 3.33 2.4 6.02 5.4 6.02zm-.9-2.97c-1.77 0-3.2-1.34-3.2-3v-19.72c0-1.67 1.43-3.01 3.2-3.01s3.19 1.34 3.19 3v19.73c0 1.66-1.42 3-3.2 3M8.92 60.23c-1.6-3.47-1.76-9.4 2.97-10.2 3.56-.46 5 1.2 5.3 3.74.14.74.56.79.69-.06a4.2 4.2 0 0 1 4.8-3.75c5.53.95 5.2 7.03 3.4 11.16-2.73 5.48-5.6 8.93-8.24 14.45-3.04-5.74-6.51-10.4-8.92-15.34m34.5-31.81c7.14-.48 10.87 5.63 11.59 10.43.44.77.67.55.84-.04.35-6.17 5.87-11.22 10.99-10.53 8.33.11 13.39 9.38 11.97 17.22-1.74 9.58-6.9 15.35-10.81 21.3-4.42 6.15-10.37 15.03-12.3 19.31 0 0-6.04-9.2-13.91-20.03-5.26-7.24-9.47-15.08-9.86-21.83-.45-7.72 2.72-14.64 11.49-15.83M99.6 61.08c7.14-.47 10.87 5.63 11.6 10.44.43.76.67.55.83-.04.35-6.18 5.88-11.22 10.99-10.53 8.33.1 13.39 9.37 11.97 17.22-1.74 9.58-6.9 15.35-10.81 21.29-4.42 6.15-10.37 15.04-12.3 19.32 0 0-6.03-9.2-13.9-20.03-5.27-7.24-9.48-15.09-9.87-21.84-.45-7.71 2.72-14.63 11.49-15.83m55.35-32.66c7.14-.48 10.87 5.62 11.59 10.43.44.77.68.55.84-.04.35-6.17 5.88-11.22 10.99-10.53 8.33.11 13.39 9.38 11.97 17.22-1.74 9.58-6.9 15.35-10.81 21.3-4.42 6.15-10.37 15.03-12.3 19.31 0 0-6.03-9.2-13.9-20.03-5.27-7.24-9.48-15.08-9.87-21.83-.45-7.72 2.72-14.64 11.49-15.83m0 65.33c7.14-.48 10.87 5.63 11.59 10.43.44.77.68.55.84-.04.35-6.17 5.88-11.22 10.99-10.53 8.33.11 13.39 9.38 11.97 17.22-1.74 9.58-6.9 15.35-10.81 21.3-4.42 6.15-10.37 15.03-12.3 19.31 0 0-6.03-9.2-13.9-20.03-5.27-7.24-9.48-15.08-9.87-21.83-.45-7.72 2.72-14.63 11.49-15.83m-111.53 0c7.14-.48 10.87 5.63 11.59 10.44.44.76.67.54.84-.05.35-6.17 5.87-11.22 10.99-10.53 8.33.11 13.39 9.38 11.97 17.22-1.74 9.58-6.9 15.35-10.81 21.3-4.42 6.15-10.37 15.03-12.3 19.31 0 0-6.04-9.2-13.91-20.03-5.26-7.24-9.47-15.08-9.86-21.83-.45-7.72 2.72-14.63 11.49-15.83m111.53 124.39c7.14.47 10.87-5.63 11.59-10.44.44-.76.68-.55.84.05.35 6.17 5.88 11.22 10.99 10.53 8.33-.11 13.39-9.38 11.97-17.22-1.74-9.59-6.9-15.35-10.81-21.3-4.42-6.15-10.37-15.04-12.3-19.31 0 0-6.03 9.2-13.9 20.03-5.27 7.23-9.48 15.08-9.87 21.83-.45 7.72 2.72 14.63 11.49 15.83m0 65.1c7.14.48 10.87-5.62 11.59-10.43.44-.77.68-.55.84.04.35 6.17 5.88 11.22 10.99 10.53 8.33-.1 13.39-9.37 11.97-17.22-1.74-9.58-6.9-15.35-10.81-21.3-4.42-6.14-10.37-15.03-12.3-19.3 0 0-6.03 9.2-13.9 20.02-5.27 7.24-9.48 15.08-9.87 21.84-.45 7.71 2.72 14.63 11.49 15.82M99.12 250.7c7.15.48 10.87-5.63 11.6-10.44.43-.76.67-.54.83.05.35 6.17 5.88 11.22 11 10.53 8.33-.11 13.39-9.38 11.96-17.22-1.73-9.58-6.9-15.35-10.8-21.3-4.43-6.15-10.38-15.03-12.3-19.31 0 0-6.04 9.2-13.91 20.03-5.26 7.24-9.47 15.08-9.87 21.83-.44 7.72 2.72 14.64 11.49 15.83M43.4 218.14c7.14.47 10.87-5.63 11.59-10.44.44-.76.67-.55.84.04.35 6.18 5.87 11.22 10.99 10.53 8.33-.1 13.39-9.37 11.97-17.21-1.74-9.59-6.9-15.36-10.81-21.3-4.42-6.15-10.37-15.04-12.3-19.31 0 0-6.04 9.2-13.91 20.03-5.26 7.23-9.47 15.08-9.86 21.83-.45 7.72 2.72 14.63 11.49 15.83m0 65.1c7.14.48 10.87-5.62 11.59-10.43.44-.77.67-.55.84.04.35 6.17 5.87 11.22 10.99 10.53 8.33-.1 13.39-9.38 11.97-17.22-1.74-9.58-6.9-15.35-10.81-21.3-4.42-6.14-10.37-15.03-12.3-19.3 0 0-6.04 9.2-13.91 20.02-5.26 7.24-9.47 15.08-9.86 21.84-.45 7.71 2.72 14.63 11.49 15.82m154.3-32.15c-1.57 3.47-1.75 9.4 2.98 10.21 3.56.46 5-1.2 5.3-3.74.14-.75.56-.79.7.06a4.2 4.2 0 0 0 4.8 3.75c5.53-.95 5.2-7.03 3.4-11.16-2.73-5.48-5.6-8.94-8.24-14.45-3.04 5.74-6.51 10.4-8.93 15.33"/></svg>