<svg xmlns="http://www.w3.org/2000/svg" fill-rule="evenodd" stroke-linejoin="round" stroke-miterlimit="2" clip-rule="evenodd" viewBox="0 0 934 1300"><path fill-rule="nonzero" d="M886.97 1110.67h12.96v131.28h-12.96zm-38.42 131.28c12.48 0 22.51-11.2 22.51-25.1v-81.08c0-13.9-10.03-25.11-22.51-25.11h-7.27c-12.48 0-22.53 11.21-22.53 25.11v81.08c0 13.9 10.05 25.1 22.53 25.1zm-3.75-12.42c-7.37 0-13.3-5.57-13.3-12.5v-82.18c0-6.94 5.93-12.52 13.3-12.52s13.3 5.58 13.3 12.52v82.18c0 6.93-5.93 12.5-13.3 12.5M33.37 58.05h12.96v131.28H33.37zm51.37 0c-12.48 0-22.5 11.2-22.5 25.1v81.08c0 13.9 10.02 25.1 22.5 25.1H92c12.47 0 22.52-11.2 22.52-25.1V83.14c0-13.9-10.05-25.1-22.52-25.1zm3.75 12.41c7.37 0 13.3 5.57 13.3 12.5v82.18c0 6.94-5.93 12.53-13.3 12.53s-13.3-5.59-13.3-12.52V82.96c0-6.94 5.93-12.5 13.3-12.5m133.66 215.42c.04-8.44-6.62-8.6-6.54-2.44-.59 30.96-26.75 46.2-45.75 42.58-29.34-5.57-38.67-34.67-38.42-51.81.88-52.9 54.13-91.91 102.17-159.73 35.2 61.21 93.33 109.3 96.79 156.6 4.54 62.92-75.04 86.38-86.42 13.06-.75-5.18-6.83-7.5-6.37-.27 1.75 20.1-.71 28.46 21.96 78h-59.25c13.12-23.15 20.91-51.56 21.83-75.99M454.28 422c.08-8.43-6.63-8.6-6.55-2.43-.54 30.95-26.7 46.2-45.75 42.58-29.29-5.57-38.66-34.68-38.37-51.82.83-52.9 54.12-91.9 102.16-159.73 35.21 61.22 93.34 109.3 96.76 156.61 4.58 62.91-75.05 86.38-86.42 13.06-.71-5.18-6.84-7.5-6.34-.27 1.71 20.09-.75 28.46 21.92 78h-59.25c13.13-23.15 20.96-51.57 21.84-76m232.58-136.1c.04-8.44-6.63-8.6-6.54-2.44-.59 30.96-26.75 46.2-45.75 42.58-29.34-5.57-38.67-34.67-38.42-51.81.87-52.9 54.12-91.91 102.17-159.73 35.25 61.21 93.33 109.3 96.79 156.6 4.58 62.92-75.04 86.38-86.42 13.06-.7-5.18-6.83-7.5-6.37-.27 1.75 20.1-.71 28.46 21.95 78h-59.25c13.13-23.15 20.92-51.56 21.84-75.99m0 272.22c.04-8.44-6.63-8.6-6.54-2.44-.59 30.95-26.75 46.19-45.75 42.57-29.34-5.57-38.67-34.67-38.42-51.81.87-52.9 54.12-91.91 102.17-159.73 35.25 61.21 93.33 109.3 96.79 156.6 4.58 62.92-75.04 86.38-86.42 13.06-.7-5.18-6.83-7.5-6.37-.27 1.75 20.1-.71 28.46 21.95 78h-59.25c13.13-23.15 20.92-51.56 21.84-75.98m-464.71 0c.04-8.44-6.63-8.6-6.54-2.44-.59 30.95-26.75 46.19-45.75 42.57-29.34-5.57-38.67-34.67-38.42-51.81.88-52.9 54.13-91.91 102.17-159.73 35.2 61.21 93.33 109.3 96.79 156.6 4.54 62.92-75.04 86.38-86.42 13.06-.75-5.18-6.83-7.5-6.37-.27 1.75 20.1-.71 28.46 21.96 78h-59.25c13.12-23.15 20.91-51.56 21.83-75.98M686.9 742c.04 8.44-6.62 8.6-6.54 2.44-.54-30.95-26.75-46.2-45.75-42.58-29.34 5.58-38.67 34.68-38.42 51.81.88 52.9 54.13 91.92 102.17 159.73 35.25-61.2 93.33-109.29 96.79-156.6 4.58-62.91-75.04-86.38-86.42-13.05-.7 5.17-6.83 7.5-6.37.27 1.75-20.1-.71-28.47 21.96-78h-59.25c13.12 23.14 20.91 51.56 21.83 75.98m0 272.21c.04 8.44-6.63 8.6-6.54 2.44-.54-30.95-26.75-46.2-45.75-42.58-29.34 5.58-38.67 34.68-38.42 51.82.88 52.9 54.13 91.91 102.17 159.73 35.25-61.22 93.33-109.3 96.79-156.61 4.58-62.91-75.04-86.38-86.42-13.06-.7 5.18-6.83 7.51-6.37.27 1.75-20.09-.71-28.46 21.96-78h-59.25c13.12 23.15 20.91 51.57 21.83 75.99m-230.62-136.1c.08 8.43-6.63 8.6-6.55 2.43-.54-30.95-26.75-46.19-45.75-42.57-29.33 5.57-38.66 34.67-38.37 51.81.83 52.9 54.08 91.91 102.16 159.73 35.21-61.21 93.3-109.29 96.76-156.6 4.58-62.91-75.05-86.38-86.42-13.06-.71 5.18-6.84 7.5-6.34.27 1.71-20.1-.75-28.46 21.92-78h-59.25c13.13 23.15 20.96 51.56 21.84 75.98M222.18 742c.04 8.44-6.62 8.6-6.54 2.44-.58-30.95-26.75-46.2-45.75-42.58-29.33 5.58-38.67 34.68-38.42 51.81.88 52.9 54.13 91.92 102.17 159.73 35.2-61.2 93.33-109.29 96.8-156.6 4.53-62.91-75.05-86.38-86.42-13.05-.75 5.17-6.84 7.5-6.38.27 1.75-20.1-.7-28.47 21.96-78h-59.25c13.12 23.14 20.91 51.56 21.83 75.98m0 272.21c.04 8.44-6.62 8.6-6.54 2.44-.58-30.95-26.75-46.2-45.75-42.58-29.33 5.58-38.67 34.68-38.42 51.82.88 52.9 54.13 91.91 102.17 159.73 35.2-61.22 93.33-109.3 96.8-156.61 4.53-62.91-75.05-86.38-86.42-13.06-.75 5.18-6.84 7.51-6.38.27 1.75-20.09-.7-28.46 21.96-78h-59.25c13.12 23.15 20.91 51.57 21.83 75.99M71.53 291.52c.04-3.63-3.75-1.94-4.25-.8-4.84 8.28-11.92 10.2-18.96 7.22-6.92-2.95-10.84-9.5-10.21-18.84 1.29-14.33 12.67-30 18.12-38.86a283 283 0 0 0 17-29.8c7.09 14 10.67 18 18.38 30.79 6.75 11.27 16.2 22.3 16.92 35.92 0 10.36-4.34 20.14-14.17 21.92-5.54 1-10.71-1.84-14.58-8.49-1.17-1.7-3.55-.81-3.5 1.51.7 8.72 4 16.6 11.79 25.88H59.36c5.87-6.56 11.87-15.43 12.17-26.45m786.7 719.77c.04 3.63-3.7 1.94-4.2.79-4.88-8.27-11.96-10.19-18.96-7.21-6.96 2.95-10.88 9.5-10.21 18.84 1.29 14.33 12.62 30 18.12 38.86a290 290 0 0 1 17 29.81c7.05-14.01 10.67-18 18.34-30.8 6.79-11.27 16.2-22.3 16.95-35.93 0-10.35-4.37-20.13-14.16-21.91-5.54-1.01-10.75 1.84-14.59 8.49-1.2 1.69-3.54.81-3.5-1.51.67-8.72 3.96-16.6 11.8-25.88H846.1c5.87 6.56 11.87 15.43 12.12 26.45"/></svg>