<svg xmlns="http://www.w3.org/2000/svg" fill-rule="evenodd" stroke-linejoin="round" stroke-miterlimit="2" clip-rule="evenodd" viewBox="0 0 934 1300"><path fill-rule="nonzero" d="m35.66 194.71.7-8.41c2.11-26 7.8-34.78 40.08-61.9 15.67-13.16 20.81-19.66 21.53-27.2 2.04-17.74-13.96-23.29-24.39-23.38-13.5-.12-28.79 7.97-21.5 26.72L36.91 105c-3.05-17.5.07-33.94 14.27-41.22 18.94-9.5 43.25-5.78 55.52 9.2 8.25 10.05 10.11 23.94 5.7 34.8-12.92 27.8-56.75 40.03-60.38 72.17h48.46v-17.89h14.28V195zm860.88 910.58-.7 8.4c-2.11 26.01-7.8 34.79-40.08 61.91-15.67 13.16-20.82 19.64-21.54 27.18-2.05 17.75 13.97 23.3 24.4 23.4 13.5.12 28.78-7.97 21.5-26.74l15.15-4.44c3.06 17.5-.06 33.92-14.26 41.22-18.95 9.5-43.26 5.78-55.52-9.19-8.25-10.06-10.11-23.95-5.7-34.82 12.92-27.8 56.75-40.02 60.38-72.17H831.7v17.9h-14.28V1105zm-460.5-750.43c12-24.06 20.73-48.75 22.28-75.15 1.43-9.72-4.47-9.88-5.37-3.04-16.98 64.97-107.34 47.38-104.23-13.73 2.52-49.57 51.74-60.23 77.42-44.02 10.14 5.97 9.57 2.39 4.04-3.8-38.15-42.55-15.05-97.34 36.5-98.35 55.75 3.3 70.21 61.96 36.02 96.45-4.25 4.15-13.68 17.47.5 8.16 34.54-24.54 82.46 1.84 81.48 39.66-1.8 69.75-86.83 74.95-105.01 16.7-1.75-6.46-6.8-9.7-5.4 1.26 2.52 19.87 7.73 49.81 22.66 75.86zm61.26 590.28c-12 24.07-20.74 48.75-22.29 75.15-1.42 9.72 4.48 9.88 5.37 3.04 16.98-64.97 107.34-47.37 104.24 13.74-2.52 49.56-51.75 60.22-77.43 44.02-10.14-5.97-9.57-2.4-4.03 3.79 38.14 42.55 15.04 97.34-36.5 98.35-55.76-3.31-70.22-61.96-36.02-96.45 4.25-4.15 13.68-17.46-.52-8.15-34.52 24.53-82.45-1.85-81.47-39.67 1.8-69.75 86.83-74.95 105.02-16.7 1.75 6.46 6.78 9.71 5.4-1.26-2.53-19.87-7.74-49.81-22.66-75.86zM58.72 311.45c4.97-10.19 9.8-19.67 12.44-30.84 1.74-10.53-1.83-6.61-3.86.29-3 9.57-11.34 13.93-19.08 14.03-14.05.2-21.05-10.85-20.62-22.72-1.53-12.5 11.13-21.34 20.68-20.65 7.17.51 13.43 4.38 17.22 7.4 2.48 1.3 5.14 1.89 1.43-1.5-6.99-7.64-12.81-12.35-12.69-23.8.12-10.74 9.3-21.95 21.48-21.6 15.22.44 22.14 12.05 22.1 22.84a24.7 24.7 0 0 1-10.05 19.6c-3.93 3.19-2.83 5.58 1.66 2.56 4.31-3.72 9.44-5.35 14.77-5.46 14.54-.23 20.23 12.34 19.4 24.02-.78 10.94-10.1 22.2-22.38 20.92-10.95-1.25-16.72-10.46-20.02-19.9-1.09-2.9-2.81-3.68-2.76.63 2.53 21.08 10.38 34.2 10.43 34.18zm815.89 676.74c-4.97 10.18-9.8 19.67-12.43 30.83-1.75 10.54 1.82 6.63 3.85-.28 3-9.57 11.34-13.93 19.08-14.04 14.05-.18 21.06 10.85 20.62 22.73 1.53 12.49-11.13 21.33-20.67 20.65-7.18-.51-13.44-4.38-17.23-7.39-2.48-1.32-5.14-1.9-1.43 1.49 6.99 7.64 12.82 12.35 12.69 23.79-.12 10.75-9.3 21.95-21.48 21.61-15.22-.45-22.13-12.05-22.1-22.84a24.7 24.7 0 0 1 10.05-19.6c3.93-3.19 2.83-5.58-1.66-2.56-4.31 3.72-9.44 5.34-14.77 5.46-14.54.23-20.23-12.34-19.4-24.02.79-10.94 10.1-22.2 22.38-20.92 10.96 1.25 16.72 10.45 20.02 19.9 1.1 2.9 2.81 3.68 2.77-.64-2.54-21.07-10.39-34.18-10.44-34.17z"/></svg>