<svg xmlns="http://www.w3.org/2000/svg" fill-rule="evenodd" stroke-linejoin="round" stroke-miterlimit="2" clip-rule="evenodd" viewBox="0 0 934 1300"><path fill="#d40000" fill-rule="nonzero" d="M374.05 236.8c41.34-40.34 68.5-84.32 94.45-126.62 22.77 46.54 55.44 87.26 90.78 126.62-37.8 39.04-67.11 80.77-90.67 124.65-26.12-44.98-53.6-85.71-94.56-124.65m0 828.36c41.34-40.33 68.5-84.32 94.45-126.62 22.77 46.55 55.44 87.27 90.78 126.62-37.8 39.04-67.11 80.78-90.67 124.66-26.12-44.98-53.6-85.71-94.56-124.66m445.54-26.85c16.94-16.53 28.06-34.54 38.7-51.87 9.32 19.06 22.7 35.74 37.18 51.87a227 227 0 0 0-37.14 51.06c-10.7-18.43-21.96-35.11-38.74-51.06M37.82 262.18c16.94-16.53 28.06-34.55 38.7-51.88 9.32 19.07 22.7 35.76 37.18 51.88a227 227 0 0 0-37.14 51.06c-10.7-18.42-21.95-35.1-38.74-51.06m-1.61-67.47.69-8.41c2.12-26 7.81-34.78 40.09-61.9 15.67-13.16 20.81-19.66 21.53-27.2 2.04-17.74-13.97-23.29-24.39-23.38-13.51-.12-28.79 7.97-21.51 26.72L37.46 105c-3.04-17.5.08-33.94 14.28-41.22 18.94-9.5 43.25-5.78 55.52 9.2 8.24 10.05 10.11 23.94 5.7 34.8-12.93 27.8-56.76 40.03-60.38 72.17h48.46v-17.89h14.27V195zm860.87 910.58-.69 8.4c-2.12 26.01-7.81 34.79-40.09 61.91-15.67 13.16-20.8 19.64-21.54 27.18-2.04 17.75 13.98 23.3 24.4 23.4 13.51.12 28.8-7.97 21.5-26.74l15.16-4.44c3.06 17.5-.07 33.92-14.27 41.22-18.94 9.5-43.25 5.78-55.52-9.19-8.24-10.06-10.1-23.95-5.7-34.82 12.93-27.8 56.76-40.02 60.38-72.17h-48.46v17.9h-14.27V1105z"/></svg>