<svg xmlns="http://www.w3.org/2000/svg" fill-rule="evenodd" stroke-linejoin="round" stroke-miterlimit="2" clip-rule="evenodd" viewBox="0 0 934 1300"><path fill="#d40000" fill-rule="nonzero" d="M39.44 251.34c-6.58-14.47-7.33-39.19 12.38-42.54 14.83-1.9 20.87 5 22.08 15.6.58 3.1 2.33 3.28 2.92-.25.83-10.87 11.58-17.22 20-15.62 23.04 3.94 21.7 29.28 14.16 46.48-11.37 22.83-23.33 37.24-34.33 60.22-12.67-23.93-27.12-43.36-37.2-63.9M821.6 1048.3c-6.58 14.47-7.3 39.19 12.42 42.54 14.83 1.91 20.87-4.99 22.08-15.59.58-3.1 2.33-3.29 2.87.24.84 10.87 11.63 17.22 20.05 15.62 23-3.94 21.66-29.28 14.12-46.48-11.37-22.83-23.33-37.24-34.33-60.21-12.67 23.92-27.13 43.35-37.21 63.88M36.03 194.71l.69-8.41c2.12-26 7.81-34.78 40.1-61.9 15.66-13.16 20.8-19.66 21.52-27.2 2.04-17.74-13.96-23.29-24.39-23.38-13.5-.12-28.79 7.97-21.51 26.72L37.28 105c-3.04-17.5.08-33.94 14.28-41.22 18.94-9.5 43.25-5.78 55.52 9.2 8.24 10.05 10.11 23.94 5.7 34.8-12.93 27.8-56.75 40.03-60.38 72.17h48.46v-17.89h14.27V195zm860.52 910.58-.69 8.4c-2.12 26.01-7.81 34.79-40.09 61.91-15.67 13.16-20.81 19.64-21.54 27.18-2.04 17.75 13.98 23.3 24.4 23.4 13.51.12 28.79-7.97 21.5-26.74l15.15-4.44c3.07 17.5-.06 33.92-14.26 41.22-18.94 9.5-43.25 5.78-55.52-9.19-8.24-10.06-10.1-23.95-5.7-34.82 12.93-27.8 56.76-40.02 60.38-72.17h-48.46v17.9h-14.27V1105zM416.47 116.04c29.75-1.98 45.29 23.45 48.33 43.49 1.8 3.18 2.8 2.28 3.46-.18 1.46-25.73 24.5-46.75 45.79-43.88 34.7.46 55.8 39.07 49.87 71.75-7.25 39.92-28.75 63.96-45.04 88.72-18.41 25.64-43.2 62.66-51.2 80.49 0 0-25.21-38.35-57.96-83.46-21.96-30.16-39.5-62.85-41.13-90.98-1.87-32.15 11.33-60.97 47.88-65.95m0 1067.92c29.75 1.98 45.29-23.45 48.33-43.48 1.8-3.19 2.8-2.29 3.46.17 1.46 25.73 24.5 46.75 45.79 43.88 34.7-.45 55.8-39.07 49.87-71.75-7.25-39.92-28.75-63.96-45.04-88.72-18.41-25.63-43.2-62.66-51.2-80.48 0 0-25.21 38.35-57.96 83.45-21.96 30.16-39.5 62.85-41.13 90.98-1.87 32.15 11.33 60.97 47.88 65.95"/></svg>