<svg xmlns="http://www.w3.org/2000/svg" fill-rule="evenodd" stroke-linejoin="round" stroke-miterlimit="2" clip-rule="evenodd" viewBox="0 0 934 1300"><path fill-rule="nonzero" d="m36.03 194.71.7-8.41c2.11-26 7.8-34.78 40.08-61.9 15.67-13.16 20.81-19.66 21.53-27.2 2.04-17.74-13.96-23.29-24.39-23.38-13.5-.12-28.79 7.97-21.51 26.72L37.29 105c-3.05-17.5.07-33.94 14.27-41.22 18.94-9.5 43.25-5.78 55.52 9.2 8.24 10.05 10.11 23.94 5.7 34.8-12.92 27.8-56.75 40.03-60.38 72.17h48.46v-17.89h14.28V195zM897.1 1105.3l-.69 8.4c-2.12 26.01-7.81 34.79-40.09 61.91-15.67 13.16-20.8 19.64-21.54 27.18-2.04 17.75 13.98 23.3 24.4 23.4 13.51.12 28.8-7.97 21.5-26.74l15.16-4.44c3.06 17.5-.07 33.92-14.27 41.22-18.94 9.5-43.25 5.78-55.52-9.19-8.24-10.06-10.1-23.95-5.7-34.82 12.93-27.8 56.76-40.02 60.38-72.17h-48.45v17.9H818V1105zM457.78 283.47c.05-8.44-6.62-8.6-6.54-2.44-.54 30.95-26.75 46.2-45.75 42.58-29.33-5.57-38.66-34.68-38.41-51.81.87-52.9 54.12-91.92 102.16-159.73 35.21 61.21 93.34 109.29 96.8 156.6 4.54 62.91-75.05 86.38-86.42 13.06-.75-5.18-6.84-7.5-6.38-.27 1.75 20.1-.7 28.46 21.96 78h-59.25c13.13-23.15 20.92-51.56 21.83-75.99m.05 733.06c.04 8.43-6.63 8.6-6.55 2.44-.54-30.96-26.75-46.2-45.75-42.58-29.33 5.57-38.66 34.68-38.37 51.81.83 52.9 54.08 91.92 102.17 159.73 35.2-61.21 93.29-109.29 96.75-156.61 4.54-62.9-75.05-86.37-86.42-13.05-.75 5.18-6.83 7.5-6.33.27 1.7-20.1-.75-28.46 21.91-78H436c13.13 23.15 20.92 51.56 21.84 75.99M73.8 289.07c.04-3.63-3.7-1.94-4.2-.79-4.88 8.27-11.97 10.2-18.97 7.22-6.95-2.96-10.83-9.5-10.25-18.85 1.34-14.32 12.67-30 18.17-38.86a292 292 0 0 0 17-29.8c7.04 14 10.63 18 18.33 30.8 6.8 11.26 16.21 22.3 16.96 35.92 0 10.35-4.37 20.13-14.16 21.91-5.55 1.01-10.75-1.84-14.59-8.49-1.2-1.69-3.54-.8-3.5 1.51.67 8.73 3.96 16.6 11.8 25.89H61.66c5.88-6.57 11.88-15.44 12.13-26.46m782 721.5c.04 3.63-3.76 1.93-4.26.79-4.83-8.27-11.91-10.2-18.95-7.21-6.96 2.95-10.84 9.5-10.21 18.84 1.29 14.32 12.62 30 18.12 38.86a282 282 0 0 1 17 29.81c7.09-14.02 10.67-18.01 18.38-30.8 6.75-11.27 16.2-22.3 16.91-35.93 0-10.35-4.33-20.13-14.16-21.91-5.54-1.01-10.71 1.84-14.59 8.48-1.16 1.7-3.54.82-3.5-1.5.71-8.73 4-16.6 11.8-25.88h-28.71c5.87 6.56 11.87 15.43 12.16 26.45"/></svg>