<svg xmlns="http://www.w3.org/2000/svg" fill-rule="evenodd" stroke-linejoin="round" stroke-miterlimit="2" clip-rule="evenodd" viewBox="0 0 934 1300"><path fill-rule="nonzero" d="M435.79 769.93c12.14-24.36 21-49.34 22.56-76.06 1.43-9.83-4.51-10-5.4-3.07-17.2 65.74-108.66 47.94-105.5-13.9 2.53-50.16 52.37-60.95 78.35-44.55 10.24 6.04 9.7 2.42 4.09-3.85-38.63-43.06-15.23-98.5 36.94-99.52 56.42 3.34 71.05 62.7 36.43 97.6-4.3 4.2-13.83 17.68.55 8.26 34.91-24.83 83.4 1.86 82.43 40.14-1.81 70.59-87.87 75.85-106.26 16.9-1.77-6.54-6.87-9.82-5.48 1.28 2.57 20.1 7.84 50.4 22.94 76.77zm-.25-415.02c12.14-24.36 21-49.34 22.56-76.06 1.43-9.83-4.56-10-5.44-3.07-17.2 65.75-108.63 47.94-105.5-13.9 2.57-50.16 52.37-60.95 78.38-44.55 10.25 6.04 9.66 2.42 4.1-3.84-38.63-43.06-15.27-98.51 36.93-99.53 56.38 3.35 71.05 62.7 36.43 97.61-4.3 4.2-13.83 17.67.51 8.25 34.96-24.83 83.45 1.87 82.48 40.15-1.86 70.58-87.88 75.84-106.3 16.89-1.77-6.54-6.88-9.82-5.44 1.28 2.53 20.1 7.8 50.4 22.94 76.77zm61.98 590.18c-12.14 24.35-20.95 49.34-22.51 76.06-1.48 9.83 4.5 9.99 5.4 3.07 17.2-65.75 108.66-47.95 105.5 13.9-2.53 50.16-52.38 60.95-78.35 44.54-10.25-6.04-9.7-2.42-4.1 3.85 38.6 43.06 15.23 98.51-36.93 99.53-56.42-3.35-71.05-62.71-36.43-97.62 4.3-4.19 13.83-17.67-.55-8.24-34.96 24.82-83.45-1.87-82.44-40.15 1.82-70.58 87.88-75.85 106.26-16.89 1.78 6.54 6.88 9.82 5.49-1.28-2.58-20.1-7.85-50.4-22.94-76.77zM60.83 313.84c4.97-10.21 9.81-19.72 12.49-30.9 1.75-10.56-1.84-6.64-3.89.28-3 9.6-11.35 13.96-19.12 14.06-14.07.2-21.09-10.87-20.67-22.77-1.5-12.52 11.15-21.38 20.75-20.7 7.18.52 13.45 4.4 17.25 7.42 2.46 1.31 5.13 1.9 1.42-1.5-6.98-7.65-12.82-12.38-12.7-23.85.13-10.76 9.31-22 21.5-21.64 15.25.44 22.18 12.07 22.18 22.88a24.7 24.7 0 0 1-10.1 19.64c-3.93 3.2-2.8 5.6 1.67 2.57a23 23 0 0 1 14.82-5.47c14.57-.23 20.25 12.36 19.41 24.07-.79 10.96-10.1 22.24-22.42 20.97-10.98-1.26-16.74-10.48-20.04-19.95-1.13-2.9-2.84-3.68-2.8.64 2.55 21.12 10.44 34.26 10.48 34.25zM36.2 163.79l10.61-7.67c9.24 14.73 19.53 24.42 35.28 22.76 23.64-1.6 33.43-25.92 28.49-44.26-4.78-16.45-24.37-24.46-39.92-15.68-3.66 2.07-7.9 4.63-7.9 4.63l-5.55-9.03 36.52-42.48H54.09v17.58H38.9V58.13h77.46V68.8s-20.75 21.13-27.62 32.7c16.9.62 30.52 11.13 35.38 27.75 2.86 8.75 1.58 28.76-2.15 37.37-6.23 14.38-23.26 26.03-38.84 26.7-26.13 1.74-40-16.25-46.93-29.55m835.33 822.38c-4.97 10.21-9.81 19.72-12.48 30.91-1.76 10.55 1.83 6.63 3.88-.29 3-9.59 11.36-13.96 19.12-14.06 14.07-.2 21.09 10.87 20.67 22.77 1.5 12.52-11.15 21.38-20.75 20.69-7.18-.51-13.45-4.39-17.25-7.41-2.46-1.32-5.13-1.89-1.42 1.5 6.98 7.65 12.82 12.38 12.7 23.85-.13 10.76-9.31 21.99-21.5 21.64-15.25-.44-22.18-12.07-22.18-22.88a24.7 24.7 0 0 1 10.1-19.64c3.93-3.2 2.8-5.6-1.66-2.57a23 23 0 0 1-14.83 5.47c-14.57.23-20.25-12.36-19.41-24.07.79-10.96 10.1-22.24 22.42-20.97 10.98 1.26 16.74 10.48 20.04 19.95 1.13 2.9 2.84 3.68 2.8-.64-2.55-21.12-10.44-34.26-10.48-34.25zm24.39 150.05-10.62 7.67c-9.22-14.72-19.52-24.42-35.27-22.76-23.64 1.6-33.43 25.92-28.48 44.27 4.78 16.44 24.36 24.45 39.91 15.67 3.66-2.07 7.9-4.23 7.9-4.23l6.57 8.47-37.54 42.64h39.63v-17.58h15.2v31.52h-77.46v-10.69s20.75-21.13 27.61-32.7c-16.88-.62-30.5-11.12-35.37-27.75-2.86-8.75-1.58-28.75 2.14-37.36 6.24-14.39 23.27-26.04 38.85-26.72 26.12-1.73 40 16.26 46.93 29.55"/></svg>