<svg xmlns="http://www.w3.org/2000/svg" fill-rule="evenodd" stroke-linejoin="round" stroke-miterlimit="2" clip-rule="evenodd" viewBox="0 0 934 1300"><path fill="#d40000" fill-rule="nonzero" d="M374.06 240.36c41.33-40.35 68.48-84.33 94.44-126.63 22.77 46.54 55.44 87.26 90.78 126.62-37.81 39.04-67.1 80.78-90.66 124.66-26.12-44.99-53.62-85.72-94.56-124.65m0 821.25c41.33-40.34 68.48-84.32 94.44-126.62 22.77 46.54 55.44 87.26 90.77 126.62-37.8 39.04-67.1 80.78-90.65 124.66-26.12-44.99-53.62-85.72-94.56-124.66m0-410.98C415.39 610.3 442.54 566.3 468.5 524c22.77 46.55 55.44 87.27 90.77 126.62-37.8 39.04-67.1 80.78-90.65 124.66-26.12-44.98-53.62-85.71-94.56-124.66m445.53 387.68c16.94-16.53 28.06-34.54 38.7-51.87 9.32 19.06 22.7 35.74 37.18 51.87a227 227 0 0 0-37.14 51.06c-10.7-18.43-21.96-35.11-38.74-51.06M37.82 262.18c16.94-16.53 28.06-34.55 38.7-51.88 9.32 19.07 22.7 35.76 37.18 51.88a227 227 0 0 0-37.14 51.06c-10.7-18.42-21.95-35.1-38.74-51.06m-1.01-98.4 10.6-7.66c9.24 14.73 19.54 24.42 35.28 22.76 23.65-1.6 33.43-25.92 28.5-44.26-4.79-16.45-24.37-24.46-39.92-15.68-3.67 2.07-7.9 4.63-7.9 4.63l-5.55-9.03 36.52-42.48H54.7v17.58H39.5V58.13h77.45V68.8s-20.74 21.13-27.62 32.7c16.9.62 30.52 11.13 35.39 27.75 2.86 8.75 1.58 28.76-2.16 37.37-6.22 14.38-23.25 26.03-38.83 26.7-26.13 1.74-40-16.25-46.93-29.55m859.72 972.43-10.63 7.67c-9.22-14.72-19.52-24.42-35.26-22.76-23.65 1.6-33.43 25.92-28.49 44.27 4.78 16.44 24.36 24.45 39.92 15.67 3.66-2.07 7.9-4.23 7.9-4.23l6.56 8.47-37.53 42.64h39.63v-17.58h15.2v31.52h-77.46v-10.69s20.75-21.13 27.6-32.7c-16.88-.62-30.5-11.12-35.37-27.75-2.86-8.75-1.58-28.75 2.15-37.36 6.23-14.39 23.27-26.04 38.85-26.72 26.12-1.73 40 16.26 46.93 29.55"/></svg>