<svg xmlns="http://www.w3.org/2000/svg" fill-rule="evenodd" stroke-linejoin="round" stroke-miterlimit="2" clip-rule="evenodd" viewBox="0 0 934 1300"><path fill="#d40000" fill-rule="nonzero" d="m36.19 163.79 10.61-7.67c9.24 14.73 19.53 24.42 35.28 22.76 23.64-1.6 33.43-25.92 28.49-44.26-4.78-16.45-24.37-24.46-39.92-15.68-3.66 2.07-7.9 4.63-7.9 4.63l-5.55-9.03 36.52-42.48H54.09v17.58H38.9V58.13h77.46V68.8s-20.75 21.13-27.62 32.7c16.9.62 30.52 11.13 35.38 27.75 2.86 8.75 1.58 28.76-2.15 37.37-6.23 14.38-23.26 26.03-38.84 26.7-26.13 1.74-40-16.25-46.93-29.55m859.72 972.43-10.62 7.67c-9.22-14.72-19.52-24.42-35.27-22.76-23.64 1.6-33.43 25.92-28.48 44.27 4.78 16.44 24.36 24.45 39.91 15.67 3.66-2.07 7.9-4.23 7.9-4.23l6.57 8.47-37.54 42.64h39.63v-17.58h15.2v31.52h-77.46v-10.69s20.75-21.13 27.61-32.7c-16.88-.62-30.5-11.12-35.37-27.75-2.86-8.75-1.58-28.75 2.14-37.36 6.24-14.39 23.27-26.04 38.85-26.72 26.12-1.73 40 16.26 46.93 29.55M41.61 253.17c-6.63-14.46-7.34-39.18 12.37-42.53 14.83-1.9 20.88 5 22.08 15.6.59 3.09 2.34 3.28 2.88-.25.83-10.88 11.62-17.22 20.04-15.63 23 3.94 21.67 29.29 14.17 46.48-11.38 22.84-23.34 37.25-34.38 60.22-12.66-23.92-27.12-43.35-37.16-63.89m373.95-133.03c29.8-1.97 45.3 23.45 48.34 43.49 1.79 3.18 2.79 2.29 3.5-.18 1.46-25.72 24.46-46.75 45.79-43.87 34.7.45 55.79 39.06 49.83 71.74-7.2 39.92-28.7 63.96-45 88.72-18.46 25.64-43.25 62.67-51.2 80.49 0 0-25.21-38.35-58-83.46-21.92-30.16-39.46-62.84-41.13-90.98-1.83-32.15 11.33-60.96 47.87-65.95m.3 410.1c29.75-1.98 45.29 23.44 48.29 43.48 1.83 3.18 2.79 2.29 3.5-.18 1.46-25.72 24.46-46.75 45.79-43.87 34.7.45 55.79 39.06 49.87 71.74-7.25 39.93-28.75 63.96-45.04 88.72-18.41 25.64-43.2 62.67-51.2 80.49 0 0-25.21-38.35-58-83.45-21.92-30.17-39.46-62.85-41.09-90.99-1.87-32.14 11.33-60.96 47.88-65.94m404.83 519.65c-6.58 14.47-7.3 39.19 12.37 42.53 14.88 1.92 20.92-4.99 22.09-15.59.58-3.09 2.37-3.28 2.91.25.84 10.87 11.63 17.21 20 15.62 23.05-3.94 21.71-29.29 14.17-46.48-11.37-22.83-23.33-37.24-34.33-60.22-12.67 23.92-27.13 43.36-37.21 63.89m-405.13 131.07c29.8 1.98 45.3-23.44 48.34-43.48 1.79-3.19 2.79-2.29 3.5.17 1.46 25.73 24.46 46.75 45.79 43.88 34.7-.45 55.79-39.07 49.83-71.75-7.2-39.92-28.7-63.96-45-88.72-18.46-25.63-43.25-62.66-51.2-80.49 0 0-25.21 38.36-58 83.46-21.92 30.16-39.46 62.84-41.13 90.98-1.83 32.15 11.33 60.97 47.87 65.95"/></svg>