<svg xmlns="http://www.w3.org/2000/svg" fill-rule="evenodd" stroke-linejoin="round" stroke-miterlimit="2" clip-rule="evenodd" viewBox="0 0 934 1300"><path fill-rule="nonzero" d="M457.51 287.03c.09-8.44-6.58-8.6-6.54-2.44-.54 30.95-26.7 46.19-45.75 42.58-29.3-5.58-38.67-34.68-38.37-51.82.87-52.9 54.12-91.91 102.16-159.73 35.21 61.21 93.34 109.29 96.75 156.6 4.59 62.92-75.04 86.38-86.41 13.06-.71-5.18-6.84-7.5-6.34-.27 1.71 20.1-.75 28.47 21.92 78h-59.25c13.12-23.15 20.96-51.56 21.83-75.98m.34 314.77c.04 8.44-6.63 8.6-6.55 2.44-.58-30.95-26.75-46.2-45.75-42.58-29.33 5.58-38.66 34.68-38.41 51.82.87 52.9 54.12 91.91 102.16 159.73 35.21-61.22 93.34-109.3 96.75-156.61 4.59-62.91-75-86.38-86.37-13.06-.75 5.18-6.83 7.51-6.38.28 1.75-20.1-.7-28.47 21.96-78h-59.25c13.13 23.14 20.92 51.56 21.84 75.98m-.3 411.17c.09 8.45-6.58 8.6-6.54 2.45-.54-30.96-26.7-46.2-45.75-42.58-29.29 5.57-38.66 34.67-38.37 51.81.87 52.9 54.12 91.91 102.16 159.73 35.21-61.22 93.34-109.29 96.75-156.61 4.59-62.91-75.04-86.37-86.37-13.05-.75 5.18-6.83 7.5-6.38.27 1.71-20.1-.75-28.47 21.96-78h-59.29c13.13 23.15 20.96 51.56 21.83 75.98M79.15 290.91c.04-3.64-3.71-1.94-4.21-.8-4.88 8.28-11.96 10.2-18.96 7.22-6.96-2.96-10.83-9.5-10.25-18.84 1.33-14.33 12.67-30 18.17-38.86 5.2-8.04 10.96-17.6 17-29.81 7.04 14.01 10.62 18 18.33 30.8 6.8 11.27 16.2 22.3 16.96 35.92 0 10.36-4.38 20.14-14.17 21.92-5.54 1-10.75-1.84-14.58-8.5-1.2-1.68-3.54-.8-3.5 1.52.67 8.72 3.96 16.6 11.8 25.88H67.01c5.88-6.57 11.88-15.43 12.13-26.45M36.19 163.78l10.61-7.66c9.24 14.73 19.53 24.42 35.28 22.76 23.64-1.6 33.43-25.92 28.49-44.26-4.78-16.45-24.37-24.46-39.92-15.68-3.66 2.07-7.9 4.63-7.9 4.63l-5.55-9.03 36.52-42.48H54.09v17.58H38.9V58.13h77.46V68.8s-20.75 21.13-27.62 32.7c16.9.62 30.52 11.13 35.38 27.75 2.86 8.75 1.58 28.76-2.15 37.37-6.23 14.38-23.26 26.03-38.84 26.7-26.13 1.74-40-16.25-46.93-29.55m859.72 972.43-10.62 7.67c-9.22-14.72-19.52-24.42-35.27-22.76-23.64 1.6-33.43 25.92-28.48 44.27 4.78 16.44 24.36 24.45 39.91 15.67 3.66-2.07 7.9-4.23 7.9-4.23l6.57 8.47-37.54 42.64h39.63v-17.58h15.2v31.52h-77.46v-10.69s20.75-21.13 27.61-32.7c-16.88-.62-30.5-11.12-35.37-27.75-2.86-8.75-1.58-28.75 2.14-37.36 6.24-14.39 23.27-26.04 38.85-26.72 26.12-1.73 40 16.26 46.93 29.55m-46.5-124.05c.04 3.63-3.75 1.93-4.25.79-4.83-8.28-11.96-10.2-18.96-7.22-6.96 2.96-10.83 9.51-10.2 18.84 1.29 14.33 12.62 30 18.12 38.87a290 290 0 0 1 17 29.8c7.08-14.01 10.67-18 18.33-30.8 6.8-11.26 16.25-22.3 16.96-35.92 0-10.35-4.33-20.13-14.17-21.91-5.54-1.01-10.75 1.83-14.58 8.48-1.17 1.7-3.54.81-3.5-1.51.67-8.72 3.96-16.6 11.8-25.88h-28.72c5.88 6.57 11.88 15.44 12.17 26.46"/></svg>