<svg xmlns="http://www.w3.org/2000/svg" fill-rule="evenodd" stroke-linejoin="round" stroke-miterlimit="2" clip-rule="evenodd" viewBox="0 0 934 1300"><path fill-rule="nonzero" d="M75.99 193.13v-11.71h10.77V162.1H32.91v-13.64l58.27-87.9 9.52.03v87.87h16.47v13.64H100.7l-.31 19.32h9.03v11.71zm10.77-100.4-36.99 55.73h37zM857.22 1105.9v11.72h-10.78v19.32h53.86v13.62l-58.27 87.91-9.52-.02v-87.89h-16.47v-13.62h16.47l.31-19.32h-9.03v-11.72zm-10.78 100.41 37-55.75h-37zM643.42 354.78c12-24.07 20.7-48.75 22.29-75.15 1.41-9.72-4.5-9.88-5.38-3.04-17 64.97-107.33 47.38-104.25-13.74 2.54-49.56 51.75-60.22 77.42-44.02 10.17 5.97 9.58 2.4 4.04-3.8-38.12-42.54-15.04-97.33 36.5-98.34 55.75 3.3 70.2 61.96 36.04 96.45-4.25 4.15-13.7 17.47.5 8.16 34.54-24.54 82.46 1.84 81.46 39.66-1.8 69.75-86.83 74.95-105 16.7-1.75-6.46-6.8-9.71-5.42 1.26 2.55 19.86 7.75 49.8 22.67 75.86zm-414.71 0c12-24.07 20.7-48.75 22.25-75.15 1.46-9.72-4.46-9.88-5.34-3.04-17 64.97-107.37 47.38-104.25-13.74 2.5-49.56 51.75-60.22 77.42-44.02 10.13 5.97 9.58 2.4 4.04-3.8-38.16-42.54-15.04-97.33 36.5-98.34 55.75 3.3 70.21 61.96 36 96.45-4.25 4.15-13.66 17.47.54 8.16 34.5-24.54 82.42 1.84 81.46 39.66-1.79 69.75-86.83 74.95-105 16.7-1.75-6.46-6.79-9.71-5.41 1.26 2.54 19.86 7.75 49.8 22.66 75.86zm475.96 590.44c-12 24.06-20.75 48.75-22.3 75.16-1.41 9.71 4.5 9.87 5.38 3.03 17-64.97 107.33-47.38 104.25 13.74-2.54 49.56-51.75 60.22-77.42 44.02-10.16-5.97-9.58-2.4-4.04 3.8 38.13 42.54 15.04 97.33-36.5 98.34-55.75-3.31-70.25-61.96-36.04-96.45 4.25-4.15 13.67-17.47-.5-8.16-34.54 24.54-82.46-1.84-81.46-39.66 1.8-69.75 86.83-74.95 105-16.69 1.75 6.45 6.8 9.7 5.38-1.27-2.5-19.86-7.71-49.8-22.63-75.86zm-414.71 0c-12 24.06-20.75 48.75-22.3 75.16-1.41 9.71 4.46 9.87 5.38 3.03 16.96-64.97 107.33-47.38 104.25 13.74-2.54 49.56-51.75 60.22-77.46 44.02-10.12-5.97-9.54-2.4-4 3.8 38.13 42.54 15.04 97.33-36.54 98.34-55.75-3.31-70.2-61.96-36-96.45 4.25-4.15 13.67-17.47-.5-8.16-34.54 24.54-82.46-1.84-81.5-39.66 1.83-69.75 86.83-74.95 105.04-16.69 1.75 6.45 6.8 9.7 5.38-1.27-2.5-19.86-7.71-49.8-22.67-75.86zM57.43 314.16c5-10.2 9.83-19.67 12.46-30.84 1.75-10.53-1.84-6.62-3.88.28-3 9.57-11.33 13.94-19.08 14.04-14.04.19-21.04-10.85-20.58-22.73-1.55-12.5 11.12-21.33 20.66-20.65 7.17.51 13.42 4.38 17.21 7.4 2.5 1.3 5.13 1.9 1.42-1.5-6.96-7.63-12.8-12.35-12.67-23.8.13-10.74 9.3-21.94 21.46-21.6 15.25.45 22.16 12.05 22.12 22.85-.04 7.86-4 15.1-10.04 19.59-3.96 3.19-2.83 5.58 1.63 2.56a23 23 0 0 1 14.79-5.46c14.54-.22 20.2 12.34 19.37 24.02-.75 10.94-10.08 22.2-22.37 20.93-10.96-1.26-16.71-10.46-20-19.9-1.09-2.9-2.84-3.69-2.75.63 2.5 21.07 10.37 34.18 10.41 34.17zm813.53 671.9c-4.96 10.2-9.8 19.67-12.42 30.84-1.75 10.53 1.83 6.62 3.83-.28 3-9.58 11.38-13.93 19.09-14.04 14.04-.19 21.04 10.85 20.62 22.72 1.54 12.5-11.12 21.34-20.66 20.66-7.17-.52-13.46-4.39-17.21-7.4-2.5-1.31-5.17-1.9-1.46 1.49 7 7.64 12.83 12.36 12.7 23.8-.12 10.74-9.33 21.95-21.5 21.6-15.2-.44-22.12-12.04-22.08-22.84a24.6 24.6 0 0 1 10.05-19.59c3.91-3.19 2.83-5.58-1.67-2.56-4.3 3.71-9.42 5.34-14.75 5.45-14.54.23-20.25-12.34-19.42-24.01.8-10.94 10.13-22.2 22.38-20.93 10.96 1.26 16.7 10.46 20.04 19.9 1.08 2.9 2.8 3.68 2.75-.63-2.54-21.07-10.38-34.19-10.46-34.17z"/></svg>