<svg xmlns="http://www.w3.org/2000/svg" fill-rule="evenodd" stroke-linejoin="round" stroke-miterlimit="2" clip-rule="evenodd" viewBox="0 0 934 1300"><path fill="#d40000" fill-rule="nonzero" d="M146.72 229.27c41.33-40.34 68.47-84.32 94.44-126.62 22.77 46.54 55.45 87.26 90.77 126.62-37.8 39.04-67.1 80.78-90.66 124.66-26.11-44.99-53.61-85.72-94.55-124.66m0 828.53c41.33-40.35 68.47-84.33 94.44-126.62 22.77 46.55 55.45 87.25 90.77 126.62-37.8 39.03-67.1 80.78-90.66 124.66-26.11-44.98-53.61-85.71-94.55-124.66m464.71-828.53c41.35-40.34 68.5-84.32 94.45-126.62 22.76 46.54 55.44 87.26 90.78 126.62-37.81 39.04-67.11 80.78-90.67 124.66-26.12-44.99-53.6-85.72-94.56-124.66m0 828.53c41.35-40.35 68.5-84.33 94.45-126.62 22.76 46.55 55.44 87.25 90.78 126.62-37.81 39.03-67.11 80.78-90.67 124.66-26.12-44.98-53.6-85.71-94.56-124.66m204.96-21.62c16.94-16.53 28.05-34.54 38.69-51.87 9.33 19.06 22.71 35.74 37.18 51.87a226 226 0 0 0-37.13 51.06c-10.7-18.43-21.97-35.11-38.74-51.06M36.31 264.88C53.25 248.34 64.36 230.32 75 213c9.33 19.07 22.7 35.76 37.18 51.87a227 227 0 0 0-37.13 51.07c-10.7-18.42-21.97-35.1-38.74-51.07m39.63-71.74v-11.71h10.78V162.1H32.86v-13.64l58.27-87.9 9.52.03v87.87h16.47v13.64h-16.47l-.31 19.32h9.03v11.71zm10.78-100.4-37 55.73h37zM857.43 1105.9v11.72h-10.77v19.32h53.85v13.62l-58.27 87.91-9.52-.02v-87.89h-16.47v-13.62h16.47l.32-19.32H824v-11.72zm-10.77 100.41 37-55.75h-37z"/></svg>