<svg xmlns="http://www.w3.org/2000/svg" fill-rule="evenodd" stroke-linejoin="round" stroke-miterlimit="2" clip-rule="evenodd" viewBox="0 0 934 1300"><path fill="#d40000" fill-rule="nonzero" d="M75.92 193.62v-11.71H86.7v-19.32H32.84v-13.64l58.27-87.9 9.52.03v87.87h16.47v13.64h-16.47l-.31 19.31h9.03v11.72zm10.77-100.4L49.7 148.95h37zm770.72 1013.17v11.72h-10.77v19.32h53.85v13.62l-58.27 87.91-9.52-.03v-87.88h-16.47v-13.62h16.47l.31-19.32h-9.03v-11.72zm-10.77 100.41 37-55.75h-37zM38.1 254.53c-6.63-14.47-7.34-39.2 12.37-42.53 14.83-1.92 20.88 4.99 22.08 15.58.59 3.1 2.34 3.3 2.88-.24.87-10.87 11.62-17.21 20.04-15.62 23.04 3.94 21.67 29.29 14.17 46.48-11.38 22.83-23.34 37.24-34.38 60.22-12.66-23.92-27.12-43.36-37.16-63.89m150.17-138.57c29.75-1.98 45.3 23.44 48.3 43.49 1.83 3.17 2.79 2.28 3.5-.18 1.45-25.73 24.5-46.75 45.79-43.88 34.7.45 55.79 39.06 49.87 71.75-7.25 39.92-28.75 63.96-45.04 88.72-18.42 25.63-43.2 62.66-51.2 80.49 0 0-25.22-38.36-58-83.46-21.93-30.16-39.47-62.84-41.1-90.98-1.87-32.15 11.34-60.97 47.88-65.95m456.38 0c29.75-1.98 45.29 23.44 48.33 43.49 1.8 3.17 2.8 2.28 3.46-.18 1.46-25.73 24.5-46.75 45.83-43.88 34.67.45 55.8 39.06 49.84 71.75-7.25 39.92-28.75 63.96-45.05 88.72-18.41 25.63-43.2 62.66-51.2 80.49 0 0-25.21-38.36-57.96-83.46-21.92-30.16-39.5-62.84-41.13-90.98-1.87-32.15 11.34-60.97 47.88-65.95M188.27 1184.04c29.75 1.98 45.3-23.44 48.3-43.48 1.83-3.18 2.79-2.29 3.5.17 1.45 25.73 24.5 46.75 45.79 43.88 34.7-.45 55.79-39.06 49.87-71.74-7.25-39.93-28.75-63.97-45.04-88.72-18.42-25.64-43.2-62.67-51.2-80.5 0 0-25.22 38.36-58 83.46-21.93 30.17-39.47 62.85-41.1 90.99-1.87 32.14 11.34 60.96 47.88 65.94m456.38 0c29.75 1.98 45.29-23.44 48.33-43.48 1.8-3.18 2.8-2.29 3.46.17 1.46 25.73 24.5 46.75 45.83 43.88 34.67-.45 55.8-39.06 49.84-71.74-7.25-39.93-28.75-63.97-45.05-88.72-18.41-25.64-43.2-62.67-51.2-80.5 0 0-25.21 38.36-57.96 83.46-21.92 30.17-39.5 62.85-41.13 90.99-1.87 32.14 11.34 60.96 47.88 65.94m173.53-137.38c-6.63 14.47-7.33 39.2 12.37 42.54 14.84 1.91 20.88-4.99 22.09-15.59.58-3.1 2.33-3.29 2.87.24.88 10.87 11.63 17.22 20.04 15.63 23-3.94 21.67-29.29 14.17-46.49-11.37-22.83-23.37-37.24-34.37-60.21-12.67 23.92-27.13 43.35-37.17 63.88"/></svg>