<svg xmlns="http://www.w3.org/2000/svg" fill-rule="evenodd" stroke-linejoin="round" stroke-miterlimit="2" clip-rule="evenodd" viewBox="0 0 934 1300"><path fill-rule="nonzero" d="M75.92 193.62v-11.71H86.7v-19.32H32.84v-13.64l58.27-87.9 9.52.03v87.87h16.47v13.64h-16.47l-.31 19.31h9.03v11.72zm10.77-100.4L49.7 148.95h37zm770.72 1013.17v11.72h-10.77v19.32h53.85v13.62l-58.27 87.91-9.52-.03v-87.88h-16.47v-13.62h16.47l.31-19.32h-9.03v-11.72zm-10.77 100.41 37-55.75h-37zM225.4 283.4c.08-8.45-6.63-8.6-6.54-2.45-.54 30.96-26.75 46.2-45.75 42.58-29.34-5.57-38.67-34.67-38.38-51.81.84-52.9 54.09-91.91 102.17-159.73 35.2 61.21 93.29 109.3 96.75 156.6 4.58 62.92-75.04 86.38-86.42 13.06-.7-5.18-6.83-7.5-6.33-.27 1.7 20.1-.75 28.46 21.92 78h-59.25c13.12-23.15 20.91-51.56 21.83-75.99m464.7 0c.09-8.44-6.58-8.6-6.53-2.44-.55 30.96-26.71 46.2-45.75 42.58-29.3-5.57-38.67-34.67-38.38-51.81.88-52.9 54.13-91.91 102.17-159.73 35.2 61.21 93.33 109.3 96.75 156.6 4.58 62.92-75.05 86.38-86.38 13.06-.75-5.18-6.83-7.5-6.37-.27 1.7 20.1-.75 28.46 21.91 78h-59.25c13.13-23.15 20.96-51.56 21.84-75.99m-464.67 733.22c.08 8.44-6.62 8.6-6.54 2.44-.54-30.96-26.71-46.2-45.75-42.58-29.3 5.57-38.67 34.67-38.38 51.82.84 52.89 54.09 91.9 102.17 159.72 35.2-61.21 93.3-109.29 96.75-156.6 4.58-62.91-75.04-86.38-86.42-13.06-.7 5.18-6.83 7.51-6.33.27 1.7-20.1-.75-28.46 21.92-78h-59.25c13.12 23.15 20.95 51.57 21.83 75.99m464.7 0c.1 8.44-6.57 8.6-6.5 2.44-.57-30.96-26.74-46.2-45.78-42.58-29.3 5.57-38.67 34.67-38.38 51.82.88 52.89 54.13 91.9 102.17 159.72 35.2-61.21 93.33-109.29 96.75-156.6 4.58-62.91-75.04-86.38-86.42-13.06-.7 5.18-6.79 7.51-6.33.27 1.7-20.1-.75-28.46 21.96-78h-59.3c13.13 23.15 20.96 51.57 21.84 75.99M72.43 292.26c.04-3.63-3.7-1.93-4.2-.8-4.88 8.28-11.97 10.2-18.97 7.23-6.96-2.96-10.83-9.5-10.25-18.85 1.34-14.32 12.67-30 18.17-38.86a292 292 0 0 0 17-29.8c7.04 14.01 10.62 18 18.33 30.8 6.8 11.26 16.21 22.3 16.96 35.92 0 10.35-4.37 20.13-14.17 21.92-5.54 1-10.75-1.85-14.58-8.5-1.2-1.69-3.54-.8-3.5 1.52.67 8.72 3.96 16.6 11.8 25.88H60.3c5.87-6.57 11.87-15.43 12.12-26.46m780.08 716.67c.04 3.63-3.7 1.94-4.25.79-4.83-8.27-11.91-10.2-18.91-7.21-6.96 2.95-10.88 9.5-10.25 18.84 1.29 14.32 12.66 30 18.16 38.86a289 289 0 0 1 17 29.81c7.04-14.01 10.63-18 18.34-30.8 6.79-11.27 16.2-22.31 16.95-35.93 0-10.35-4.37-20.13-14.16-21.91-5.54-1.01-10.75 1.84-14.63 8.49-1.16 1.69-3.5.81-3.46-1.51.67-8.72 3.96-16.6 11.75-25.88H840.4c5.87 6.56 11.87 15.43 12.12 26.45"/></svg>