<svg xmlns="http://www.w3.org/2000/svg" fill-rule="evenodd" stroke-linejoin="round" stroke-miterlimit="2" clip-rule="evenodd" viewBox="0 0 934 1300"><path fill-rule="nonzero" d="m36.03 156.8 13.41-.1c2.56 8.08 8.22 16.35 15.9 18.62 21.72 5.1 35.71-7.02 40.31-21.02 5.59-16.98-.12-40.81-15.07-49.28-12.4-7.02-30.81-1.1-39.26 13.9l-9.4-5.74 5.04-55.93h61.38v13.22H58.6l-.78 23.3c10.7-7.51 27.16-7.44 37.86-2.17 20.26 9.66 29.68 31.64 25.73 57.54-5.46 25.77-17.49 40.37-44.66 42.46-30.18.27-40.84-20.5-40.72-34.8M898 1143.21l-13.43.11c-2.54-8.1-8.21-16.36-15.89-18.64-21.71-5.1-35.7 7.02-40.3 21.02-5.59 16.98.12 40.82 15.06 49.29 12.4 7.03 30.82 1.11 39.27-13.91l9.4 5.75-5.05 55.92h-61.37v-13.21h49.74l.78-23.3c-10.7 7.51-27.16 7.43-37.86 2.16-20.27-9.66-29.68-31.62-25.74-57.54 5.47-25.76 17.48-40.35 44.66-42.45 30.19-.26 40.85 20.49 40.73 34.79zM436.03 769.04c12-24.06 20.75-48.75 22.3-75.15 1.41-9.72-4.5-9.88-5.38-3.04-17 64.97-107.33 47.38-104.25-13.73 2.54-49.56 51.75-60.23 77.46-44.02 10.12 5.97 9.54 2.4 4-3.8-38.13-42.55-15.05-97.34 36.54-98.34 55.75 3.3 70.2 61.96 36 96.45-4.25 4.14-13.67 17.46.5 8.15 34.54-24.53 82.46 1.84 81.5 39.67-1.84 69.74-86.84 74.95-105.04 16.69-1.75-6.46-6.8-9.7-5.38 1.27 2.5 19.86 7.71 49.8 22.63 75.85zm205.59-409.69c12-24.06 20.75-48.75 22.29-75.15 1.41-9.72-4.46-9.88-5.38-3.04-16.96 64.97-107.33 47.38-104.2-13.74 2.5-49.55 51.74-60.22 77.41-44.01 10.13 5.97 9.58 2.39 4.04-3.8-38.16-42.55-15.04-97.34 36.5-98.34 55.75 3.3 70.21 61.95 36 96.45-4.25 4.14-13.66 17.46.54 8.15 34.5-24.54 82.42 1.84 81.46 39.67-1.79 69.74-86.83 74.94-105 16.69-1.79-6.46-6.83-9.7-5.41 1.27 2.5 19.86 7.75 49.8 22.66 75.85zm-411.17 0c12-24.06 20.75-48.75 22.29-75.15 1.42-9.72-4.46-9.88-5.37-3.04-16.96 64.97-107.34 47.38-104.25-13.74 2.54-49.55 51.79-60.22 77.45-44.01 10.13 5.97 9.55 2.39 4.05-3.8-38.17-42.55-15.09-97.34 36.5-98.34 55.75 3.3 70.2 61.95 36 96.45-4.25 4.14-13.67 17.46.5 8.15 34.54-24.54 82.45 1.84 81.5 39.67-1.84 69.74-86.84 74.94-105.05 16.69-1.75-6.46-6.79-9.7-5.37 1.27 2.5 19.86 7.7 49.8 22.66 75.85zm472.46 581.3c-12 24.06-20.75 48.75-22.3 75.15-1.41 9.72 4.46 9.88 5.38 3.04 16.96-64.97 107.33-47.38 104.2 13.73-2.5 49.56-51.74 60.23-77.4 44.02-10.13-5.97-9.6-2.39-4.05 3.8 38.17 42.55 15.04 97.34-36.5 98.34-55.75-3.3-70.2-61.95-36-96.45 4.25-4.14 13.67-17.46-.54-8.15-34.5 24.54-82.42-1.84-81.46-39.67 1.8-69.74 86.83-74.94 105-16.69 1.75 6.46 6.8 9.7 5.42-1.27-2.5-19.86-7.75-49.8-22.67-75.85zm-411.21 0c-11.96 24.06-20.71 48.75-22.25 75.15-1.46 9.72 4.46 9.88 5.33 3.04 17-64.97 107.38-47.38 104.25 13.73-2.5 49.56-51.75 60.23-77.41 44.02-10.13-5.97-9.59-2.39-4.05 3.8 38.17 42.55 15.05 97.34-36.5 98.34-55.75-3.3-70.2-61.95-36-96.45 4.25-4.14 13.67-17.46-.54-8.15-34.5 24.54-82.46-1.84-81.46-39.67 1.8-69.74 86.84-74.94 105-16.69 1.75 6.46 6.8 9.7 5.42-1.27-2.54-19.86-7.75-49.8-22.67-75.85zM60.85 313.02c4.96-10.19 9.8-19.67 12.42-30.84 1.75-10.53-1.83-6.62-3.83.28-3 9.58-11.38 13.94-19.09 14.04-14.04.2-21.08-10.85-20.62-22.72-1.54-12.5 11.12-21.34 20.67-20.66 7.16.51 13.45 4.39 17.2 7.4 2.5 1.31 5.17 1.9 1.46-1.5-7-7.63-12.83-12.34-12.7-23.79.12-10.75 9.33-21.95 21.5-21.6 15.2.44 22.12 12.05 22.08 22.84a24.7 24.7 0 0 1-10.04 19.6c-3.92 3.19-2.84 5.57 1.66 2.55 4.3-3.71 9.42-5.34 14.75-5.45 14.54-.23 20.25 12.34 19.42 24.01-.8 10.94-10.13 22.2-22.38 20.93-10.95-1.26-16.7-10.46-20.04-19.9-1.08-2.9-2.79-3.68-2.75.63 2.54 21.08 10.38 34.19 10.42 34.18zm811.67 675.01c-5 10.19-9.83 19.67-12.46 30.84-1.75 10.53 1.84 6.62 3.88-.29 3-9.57 11.33-13.93 19.08-14.03 14.04-.19 21.04 10.85 20.58 22.72 1.55 12.49-11.12 21.34-20.66 20.66-7.17-.52-13.42-4.39-17.21-7.4-2.5-1.32-5.13-1.9-1.46 1.49 7 7.64 12.83 12.35 12.7 23.8-.12 10.74-9.28 21.95-21.5 21.6-15.2-.44-22.12-12.05-22.07-22.84a24.7 24.7 0 0 1 10.04-19.6c3.96-3.19 2.83-5.58-1.67-2.56-4.3 3.72-9.42 5.35-14.75 5.46-14.54.23-20.25-12.34-19.37-24.02.75-10.93 10.08-22.2 22.33-20.92 11 1.25 16.75 10.46 20.04 19.9 1.08 2.9 2.83 3.68 2.75-.63-2.5-21.08-10.37-34.2-10.42-34.18z"/></svg>