<svg xmlns="http://www.w3.org/2000/svg" fill-rule="evenodd" stroke-linejoin="round" stroke-miterlimit="2" clip-rule="evenodd" viewBox="0 0 934 1300"><path fill="#d40000" fill-rule="nonzero" d="M143.47 241.3c41.33-40.35 68.48-84.33 94.45-126.63 22.76 46.54 55.43 87.26 90.77 126.63-37.8 39.03-67.1 80.77-90.66 124.65-26.12-44.99-53.61-85.72-94.56-124.65m0 819.37c41.33-40.34 68.48-84.32 94.45-126.62 22.76 46.54 55.43 87.26 90.77 126.62-37.8 39.04-67.1 80.78-90.66 124.66-26.12-44.97-53.61-85.72-94.56-124.66M604.64 241.3c41.34-40.35 68.49-84.33 94.45-126.63 22.76 46.54 55.44 87.26 90.77 126.63-37.8 39.03-67.1 80.77-90.65 124.65-26.12-44.99-53.62-85.72-94.58-124.65M374.05 650.97c41.34-40.33 68.48-84.3 94.45-126.6 22.77 46.53 55.44 87.25 90.78 126.6-37.8 39.04-67.11 80.79-90.67 124.67-26.12-44.99-53.6-85.72-94.56-124.67m230.59 409.7c41.34-40.34 68.49-84.32 94.45-126.62 22.76 46.54 55.44 87.26 90.77 126.62-37.8 39.04-67.1 80.78-90.65 124.66-26.12-44.97-53.62-85.72-94.58-124.66m212.75-22.56c16.94-16.53 28.05-34.54 38.7-51.87 9.32 19.07 22.7 35.74 37.17 51.87a227 227 0 0 0-37.13 51.07c-10.7-18.43-21.96-35.12-38.74-51.07M39.44 263.71c16.92-16.52 28.05-34.55 38.69-51.87 9.32 19.06 22.7 35.73 37.18 51.87a227 227 0 0 0-37.13 51.06c-10.7-18.42-21.97-35.12-38.74-51.06M35.7 156.8l13.41-.12c2.56 8.1 8.22 16.36 15.9 18.63 21.72 5.1 35.7-7.02 40.31-21.02 5.58-16.98-.12-40.81-15.08-49.28-12.4-7.02-30.8-1.1-39.25 13.9l-9.4-5.74 5.04-55.93H108v13.22H58.26l-.78 23.3c10.69-7.51 27.16-7.44 37.86-2.17 20.26 9.66 29.68 31.64 25.73 57.54-5.46 25.77-17.49 40.37-44.66 42.46-30.18.27-40.84-20.5-40.72-34.8m861.95 986.41-13.42.11c-2.55-8.1-8.22-16.36-15.9-18.64-21.7-5.1-35.7 7.02-40.3 21.02-5.58 16.98.13 40.82 15.07 49.29 12.4 7.03 30.82 1.11 39.26-13.91l9.41 5.75-5.05 55.92h-61.37v-13.21h49.74l.77-23.3c-10.68 7.51-27.15 7.43-37.85 2.16-20.28-9.66-29.68-31.62-25.75-57.54 5.47-25.76 17.5-40.35 44.66-42.45 30.2-.26 40.86 20.49 40.73 34.79z"/></svg>