<svg xmlns="http://www.w3.org/2000/svg" fill-rule="evenodd" stroke-linejoin="round" stroke-miterlimit="2" clip-rule="evenodd" viewBox="0 0 934 1300"><path fill="#d40000" fill-rule="nonzero" d="m35.69 156.8 13.41-.1c2.56 8.08 8.22 16.35 15.9 18.62 21.72 5.1 35.7-7.02 40.31-21.02 5.58-16.98-.12-40.81-15.08-49.28-12.4-7.02-30.8-1.1-39.25 13.9l-9.4-5.74 5.04-55.93H108v13.22H58.26l-.78 23.3c10.69-7.51 27.16-7.44 37.86-2.17 20.26 9.66 29.68 31.64 25.73 57.54-5.46 25.77-17.49 40.37-44.66 42.46-30.18.27-40.84-20.5-40.72-34.8m861.95 986.41-13.42.11c-2.55-8.1-8.22-16.36-15.9-18.64-21.7-5.1-35.7 7.02-40.3 21.02-5.58 16.98.13 40.82 15.07 49.29 12.4 7.03 30.82 1.11 39.26-13.91l9.41 5.75-5.05 55.92h-61.37v-13.21h49.74l.77-23.3c-10.68 7.51-27.15 7.43-37.85 2.16-20.28-9.66-29.68-31.62-25.75-57.54 5.47-25.76 17.5-40.35 44.66-42.45 30.2-.26 40.86 20.49 40.73 34.79zM41.22 252.91c-6.58-14.47-7.33-39.2 12.37-42.54 14.84-1.91 20.88 5 22.09 15.6.58 3.09 2.33 3.28 2.91-.25.84-10.87 11.59-17.22 20-15.62 23.05 3.93 21.71 29.28 14.17 46.47-11.37 22.83-23.33 37.25-34.33 60.22-12.67-23.92-27.13-43.35-37.21-63.89m144.64-132.37c29.79-1.98 45.29 23.45 48.33 43.48 1.8 3.19 2.8 2.3 3.5-.17 1.46-25.73 24.46-46.75 45.8-43.88 34.7.45 55.79 39.07 49.83 71.75-7.21 39.92-28.71 63.96-45 88.72-18.42 25.63-43.21 62.66-51.21 80.49 0 0-25.21-38.36-58-83.46-21.92-30.16-39.46-62.84-41.13-90.98-1.83-32.15 11.38-60.96 47.88-65.95m461.2 0c29.76-1.98 45.26 23.45 48.3 43.48 1.79 3.19 2.79 2.3 3.5-.17 1.46-25.73 24.46-46.75 45.79-43.88 34.7.45 55.8 39.07 49.88 71.75-7.25 39.92-28.75 63.96-45.05 88.72-18.41 25.63-43.2 62.66-51.2 80.49 0 0-25.21-38.36-58-83.46-21.92-30.16-39.46-62.84-41.09-90.98-1.87-32.15 11.33-60.96 47.88-65.95m-230.61 409.7c29.79-1.99 45.29 23.44 48.33 43.48 1.8 3.18 2.8 2.28 3.5-.18 1.46-25.72 24.46-46.75 45.8-43.87 34.7.45 55.78 39.06 49.82 71.74-7.2 39.92-28.7 63.96-45 88.72-18.41 25.64-43.24 62.67-51.2 80.49 0 0-25.21-38.35-58-83.46-21.92-30.16-39.46-62.84-41.13-90.98-1.83-32.15 11.33-60.96 47.88-65.95m-230.6 649.25c29.79 1.97 45.29-23.45 48.33-43.49 1.8-3.18 2.8-2.28 3.5.18 1.46 25.72 24.46 46.75 45.8 43.88 34.7-.46 55.79-39.07 49.83-71.75-7.21-39.92-28.71-63.96-45-88.72-18.42-25.64-43.21-62.67-51.21-80.49 0 0-25.21 38.35-58 83.46-21.92 30.16-39.46 62.84-41.13 90.98-1.83 32.14 11.38 60.97 47.88 65.95m461.2 0c29.76 1.97 45.26-23.45 48.3-43.49 1.79-3.18 2.79-2.28 3.5.18 1.46 25.72 24.46 46.75 45.79 43.88 34.7-.46 55.8-39.07 49.88-71.75-7.25-39.92-28.75-63.96-45.05-88.72-18.41-25.64-43.2-62.67-51.2-80.49 0 0-25.21 38.35-58 83.46-21.92 30.16-39.46 62.84-41.09 90.98-1.87 32.14 11.33 60.97 47.88 65.95m172.1-131.32c-6.58 14.46-7.33 39.18 12.38 42.53 14.84 1.91 20.88-5 22.09-15.59.58-3.1 2.33-3.29 2.87.24.88 10.87 11.63 17.22 20.04 15.62 23.04-3.93 21.67-29.28 14.17-46.48-11.38-22.83-23.33-37.24-34.38-60.21-12.62 23.92-27.08 43.35-37.16 63.89"/></svg>