<svg xmlns="http://www.w3.org/2000/svg" fill-rule="evenodd" stroke-linejoin="round" stroke-miterlimit="2" clip-rule="evenodd" viewBox="0 0 934 1300"><path fill-rule="nonzero" d="m35.69 156.8 13.41-.1c2.56 8.08 8.22 16.35 15.9 18.62 21.72 5.1 35.7-7.02 40.31-21.02 5.58-16.98-.12-40.81-15.08-49.28-12.4-7.02-30.8-1.1-39.25 13.9l-9.4-5.74 5.04-55.93H108v13.22H58.26l-.78 23.3c10.69-7.51 27.16-7.44 37.86-2.17 20.26 9.66 29.68 31.64 25.73 57.54-5.46 25.77-17.49 40.37-44.66 42.46-30.18.27-40.84-20.5-40.72-34.8m861.95 986.41-13.42.11c-2.55-8.1-8.22-16.36-15.9-18.64-21.7-5.1-35.7 7.02-40.3 21.02-5.58 16.98.13 40.82 15.07 49.29 12.4 7.03 30.82 1.11 39.26-13.91l9.41 5.75-5.05 55.92h-61.37v-13.21h49.74l.77-23.3c-10.68 7.51-27.15 7.43-37.85 2.16-20.28-9.66-29.68-31.62-25.75-57.54 5.47-25.76 17.5-40.35 44.66-42.45 30.2-.26 40.86 20.49 40.73 34.79zM225.87 287.97c.08-8.45-6.59-8.6-6.55-2.45-.54 30.96-26.7 46.2-45.75 42.58-29.29-5.57-38.66-34.67-38.37-51.81.87-52.9 54.12-91.91 102.17-159.73 35.2 61.22 93.33 109.29 96.75 156.61 4.58 62.9-75.05 86.37-86.38 13.05-.75-5.18-6.83-7.5-6.37-.27 1.7 20.1-.75 28.47 21.95 78h-59.29c13.13-23.15 20.96-51.56 21.84-75.98m461.16 0c.09-8.44-6.58-8.6-6.5-2.44-.58 30.95-26.75 46.2-45.75 42.57-29.33-5.57-38.7-34.67-38.41-51.81.87-52.9 54.12-91.91 102.16-159.73 35.21 61.22 93.34 109.29 96.75 156.61 4.59 62.9-75.04 86.37-86.37 13.05-.75-5.18-6.84-7.5-6.38-.27 1.71 20.1-.7 28.47 21.96 78H665.2c13.13-23.15 20.96-51.56 21.83-75.98M457.78 697.7c.09-8.44-6.62-8.6-6.54-2.44-.54 30.95-26.7 46.2-45.75 42.58-29.29-5.58-38.66-34.68-38.37-51.82.87-52.9 54.12-91.9 102.16-159.72 35.21 61.2 93.34 109.29 96.75 156.6 4.59 62.91-75.04 86.38-86.41 13.06-.71-5.18-6.84-7.51-6.34-.27 1.71 20.09-.75 28.46 21.92 78h-59.25c13.12-23.15 20.96-51.57 21.83-75.99m-231.87 314.32c.08 8.44-6.59 8.6-6.5 2.44-.59-30.95-26.75-46.2-45.8-42.57-29.29 5.57-38.66 34.67-38.37 51.81.88 52.9 54.13 91.91 102.17 159.73 35.2-61.21 93.33-109.29 96.75-156.61 4.58-62.9-75.04-86.38-86.38-13.06-.75 5.18-6.83 7.51-6.37.28 1.7-20.1-.75-28.47 21.96-78h-59.3c13.13 23.15 20.96 51.56 21.84 75.98m461.2 0c.05 8.44-6.62 8.6-6.54 2.44-.58-30.95-26.75-46.2-45.75-42.57-29.33 5.57-38.7 34.67-38.41 51.81.87 52.9 54.12 91.91 102.16 159.73 35.21-61.21 93.34-109.29 96.75-156.61 4.59-62.9-75-86.38-86.37-13.06-.75 5.18-6.83 7.51-6.38.28 1.71-20.1-.7-28.47 21.96-78h-59.25c13.13 23.15 20.92 51.56 21.84 75.98M75.55 290.63c.04-3.63-3.7-1.93-4.2-.79-4.88 8.28-11.96 10.2-18.96 7.22-6.96-2.96-10.84-9.5-10.25-18.84 1.33-14.33 12.66-30 18.16-38.86a291 291 0 0 0 17-29.8c7.04 14 10.67 18 18.34 30.79 6.79 11.27 16.2 22.3 16.95 35.93 0 10.35-4.37 20.12-14.16 21.9-5.54 1.02-10.75-1.83-14.59-8.48-1.16-1.7-3.54-.81-3.5 1.5.67 8.73 3.96 16.6 11.8 25.9H63.43c5.87-6.57 11.87-15.44 12.12-26.46m777.96 719.77c.04 3.63-3.7 1.94-4.2.8-4.88-8.28-11.97-10.21-18.97-7.22-6.95 2.95-10.87 9.5-10.25 18.84 1.3 14.32 12.67 30 18.17 38.86a283 283 0 0 1 16.96 29.81c7.08-14.02 10.67-18 18.37-30.8 6.8-11.27 16.21-22.3 16.96-35.93 0-10.35-4.37-20.13-14.16-21.91-5.55-1.01-10.75 1.84-14.63 8.49-1.17 1.69-3.5.81-3.5-1.51.7-8.72 4-16.6 11.83-25.89h-28.7c5.87 6.57 11.87 15.44 12.12 26.46"/></svg>