<svg xmlns="http://www.w3.org/2000/svg" fill-rule="evenodd" stroke-linejoin="round" stroke-miterlimit="2" clip-rule="evenodd" viewBox="0 0 934 1300"><path fill-rule="nonzero" d="M35.44 150.4c-1.7-11.45-1.67-41.03-.28-49.76 4.3-26.8 14.73-39.04 32.2-43.06 16.94-3.9 40.77.45 46 22.84l-14.18.26C91.5 65.54 72.1 69.6 61.19 76.18c-8.73 5.26-12.67 27.16-10.97 28.51-.02 0 16.48-11.99 29.48-11.1 27.78 2.84 39.23 26.48 38.27 48.82-.88 26.87-9.56 48.35-39.01 49.78-28-1.05-40.82-16.04-43.52-41.8m69.04-7.1c.17-18.65-8.46-32.6-24.78-34.13-16.31-1.54-32.77 14.09-31.63 33.1 1.14 19.06 8.66 35.13 28.44 35.03 21.27-.09 27.87-20.73 27.97-34M896.9 1149.61c1.7 11.44 1.68 41.02.28 49.75-4.28 26.79-14.72 39.04-32.18 43.06-16.95 3.9-40.78-.44-46.01-22.84l14.19-.27c7.67 15.14 27.07 11.09 37.98 4.51 8.72-5.26 12.67-27.16 10.98-28.51 0 0-16.49 11.99-29.48 11.1-27.79-2.84-39.24-26.48-38.28-48.83.88-26.87 9.56-48.34 39-49.77 28 1.05 40.84 16.04 43.52 41.8m-69.04 7.1c-.15 18.65 8.48 32.59 24.8 34.13 16.3 1.54 32.76-14.09 31.62-33.09-1.14-19.07-8.67-35.13-28.45-35.04-21.27.09-27.86 20.73-27.97 34M643.5 769.45c12-24.06 20.7-48.75 22.3-75.15 1.4-9.72-4.5-9.88-5.38-3.04-17 64.97-107.38 47.38-104.25-13.73 2.5-49.57 51.75-60.23 77.41-44.02 10.17 5.97 9.59 2.4 4.05-3.8-38.17-42.55-15.05-97.34 36.5-98.35 55.75 3.31 70.2 61.96 36 96.45-4.25 4.15-13.67 17.47.54 8.16 34.54-24.54 82.46 1.84 81.46 39.66-1.8 69.75-86.84 74.95-105 16.7-1.75-6.46-6.8-9.7-5.42 1.26 2.54 19.87 7.75 49.81 22.67 75.86zm-414.75 0c12-24.06 20.75-48.75 22.3-75.15 1.4-9.72-4.47-9.88-5.38-3.04-16.96 64.97-107.34 47.38-104.21-13.73 2.5-49.57 51.75-60.23 77.41-44.02 10.13 5.97 9.59 2.4 4.05-3.8-38.17-42.55-15.04-97.34 36.5-98.35 55.75 3.31 70.2 61.96 36 96.45-4.25 4.15-13.67 17.47.5 8.16 34.54-24.54 82.46 1.84 81.5 39.66-1.84 69.75-86.84 74.95-105.04 16.7-1.75-6.46-6.75-9.7-5.38 1.26 2.5 19.87 7.75 49.81 22.67 75.86zM643.5 357.4c12-24.07 20.7-48.76 22.3-75.16 1.4-9.71-4.5-9.88-5.38-3.04-17 64.97-107.38 47.38-104.25-13.73 2.5-49.57 51.75-60.23 77.41-44.02 10.17 5.97 9.59 2.4 4.05-3.8-38.17-42.55-15.05-97.34 36.5-98.35 55.75 3.31 70.2 61.96 36 96.46-4.25 4.14-13.67 17.46.54 8.15 34.54-24.53 82.46 1.84 81.46 39.67-1.8 69.75-86.84 74.95-105 16.7-1.75-6.47-6.8-9.71-5.42 1.26 2.54 19.86 7.75 49.8 22.67 75.86zm-414.75 0c12-24.07 20.75-48.76 22.3-75.16 1.4-9.71-4.47-9.88-5.38-3.04-16.96 64.97-107.34 47.38-104.21-13.73 2.5-49.57 51.75-60.23 77.41-44.02 10.13 5.97 9.59 2.4 4.05-3.8-38.17-42.55-15.04-97.34 36.5-98.35 55.75 3.31 70.2 61.96 36 96.46-4.25 4.14-13.67 17.46.5 8.15 34.54-24.53 82.46 1.84 81.5 39.67-1.84 69.75-86.84 74.95-105.04 16.7-1.75-6.47-6.75-9.71-5.38 1.26 2.5 19.86 7.75 49.8 22.67 75.86zm476 584.8c-12 24.05-20.75 48.75-22.3 75.15-1.4 9.71 4.5 9.88 5.38 3.03 17-64.97 107.34-47.37 104.25 13.74-2.54 49.56-51.75 60.22-77.46 44.02-10.12-5.97-9.54-2.4-4.04 3.79 38.17 42.55 15.09 97.35-36.5 98.35-55.7-3.31-70.2-61.96-36-96.45 4.25-4.15 13.67-17.47-.5-8.15-34.54 24.53-82.46-1.85-81.5-39.67 1.84-69.75 86.84-74.95 105.04-16.69 1.75 6.46 6.8 9.7 5.38-1.27-2.5-19.86-7.7-49.8-22.67-75.86zm-414.7 0c-12 24.05-20.76 48.75-22.3 75.15-1.42 9.71 4.46 9.88 5.38 3.03 16.95-64.97 107.33-47.37 104.2 13.74-2.5 49.56-51.75 60.22-77.41 44.02-10.13-5.97-9.59-2.4-4.05 3.79 38.17 42.55 15.05 97.35-36.5 98.35-55.74-3.31-70.2-61.96-36-96.45 4.25-4.15 13.67-17.47-.54-8.15-34.5 24.53-82.41-1.85-81.46-39.67 1.8-69.75 86.84-74.95 105.05-16.69 1.7 6.46 6.75 9.7 5.37-1.27-2.5-19.86-7.75-49.8-22.66-75.86zM56.41 307.9c5-10.19 9.83-19.67 12.46-30.84 1.75-10.53-1.84-6.62-3.88.29-3 9.57-11.33 13.93-19.08 14.03-14.04.2-21.04-10.85-20.59-22.72C23.8 256.16 36.46 247.33 46 248c7.17.5 13.42 4.38 17.2 7.4 2.5 1.3 5.17 1.89 1.47-1.5-7-7.64-12.84-12.35-12.71-23.8.12-10.74 9.29-21.95 21.46-21.6 15.25.45 22.16 12.05 22.12 22.84a24.6 24.6 0 0 1-10.04 19.6c-3.96 3.19-2.83 5.58 1.63 2.56a23 23 0 0 1 14.79-5.46c14.54-.23 20.2 12.34 19.37 24.01-.75 10.95-10.08 22.2-22.33 20.93-10.96-1.26-16.75-10.46-20.04-19.9-1.09-2.9-2.84-3.68-2.75.64 2.5 21.07 10.37 34.18 10.41 34.17zm820.46 675.01c-4.96 10.2-9.8 19.67-12.42 30.84-1.75 10.53 1.79 6.62 3.83-.28 3-9.58 11.33-13.94 19.08-14.04 14.05-.2 21.05 10.85 20.63 22.72 1.54 12.5-11.13 21.34-20.67 20.66-7.2-.52-13.46-4.39-17.25-7.4-2.46-1.31-5.12-1.89-1.41 1.49 7 7.64 12.83 12.36 12.66 23.8-.08 10.74-9.29 21.95-21.46 21.6-15.2-.44-22.12-12.04-22.08-22.84a24.6 24.6 0 0 1 10.04-19.59c3.92-3.19 2.84-5.59-1.66-2.56a23 23 0 0 1-14.75 5.45c-14.59.23-20.25-12.33-19.42-24.01.8-10.94 10.08-22.2 22.37-20.93 10.96 1.26 16.71 10.46 20 19.91 1.13 2.89 2.84 3.67 2.8-.65-2.55-21.07-10.38-34.18-10.46-34.17z"/></svg>