<svg xmlns="http://www.w3.org/2000/svg" fill-rule="evenodd" stroke-linejoin="round" stroke-miterlimit="2" clip-rule="evenodd" viewBox="0 0 934 1300"><path fill="#d40000" fill-rule="nonzero" d="M142.29 239.33c41.33-40.34 68.48-84.32 94.44-126.62 22.77 46.54 55.44 87.26 90.77 126.62-37.8 39.04-67.1 80.77-90.65 124.65-26.12-44.97-53.62-85.71-94.56-124.65m0 412.06c41.33-40.35 68.48-84.33 94.44-126.63 22.77 46.55 55.44 87.26 90.77 126.63-37.8 39.03-67.1 80.77-90.65 124.66-26.12-44.99-53.62-85.72-94.56-124.66m0 410.83c41.33-40.34 68.48-84.33 94.44-126.63 22.77 46.55 55.44 87.27 90.77 126.63-37.8 39.03-67.1 80.77-90.65 124.65-26.12-44.98-53.62-85.71-94.56-124.65M607 239.33c41.33-40.34 68.48-84.32 94.45-126.62 22.76 46.54 55.44 87.26 90.78 126.62-37.8 39.04-67.11 80.77-90.67 124.65-26.12-44.97-53.6-85.71-94.56-124.65m0 412.06c41.33-40.35 68.48-84.33 94.45-126.63 22.76 46.55 55.44 87.26 90.78 126.63-37.8 39.03-67.11 80.77-90.67 124.66-26.12-44.99-53.6-85.72-94.56-124.66m0 410.83c41.33-40.34 68.48-84.33 94.45-126.63 22.76 46.55 55.44 87.27 90.78 126.63-37.8 39.03-67.11 80.77-90.67 124.65-26.12-44.98-53.6-85.71-94.56-124.65m215.57-29.21c16.94-16.52 28.06-34.54 38.7-51.87 9.32 19.07 22.7 35.75 37.18 51.87a227 227 0 0 0-37.14 51.07c-10.7-18.43-21.95-35.12-38.74-51.07M35.85 258.6c16.93-16.52 28.05-34.54 38.69-51.87 9.33 19.07 22.71 35.75 37.19 51.87-15.5 16-27.5 33.1-37.14 51.07-10.7-18.43-21.97-35.11-38.74-51.07m.09-108.2c-1.7-11.45-1.67-41.03-.28-49.76 4.29-26.8 14.73-39.04 32.19-43.06 16.95-3.9 40.78.45 46.01 22.84l-14.19.26C92 65.54 72.6 69.6 61.7 76.18c-8.73 5.26-12.67 27.16-10.98 28.51 0 0 16.49-11.99 29.48-11.1 27.79 2.84 39.24 26.48 38.28 48.82-.88 26.87-9.56 48.35-39.02 49.78-27.98-1.05-40.82-16.04-43.51-41.8m69.04-7.1c.16-18.65-8.47-32.6-24.79-34.13-16.3-1.54-32.76 14.09-31.62 33.1 1.14 19.06 8.65 35.13 28.44 35.03 21.27-.09 27.87-20.73 27.97-34m792.4 1006.32c1.71 11.44 1.69 41.02.28 49.75-4.27 26.79-14.71 39.04-32.17 43.06-16.95 3.9-40.78-.44-46.02-22.84l14.2-.27c7.67 15.14 27.06 11.09 37.98 4.51 8.71-5.26 12.67-27.16 10.97-28.51.02 0-16.48 11.99-29.48 11.1-27.78-2.84-39.23-26.48-38.27-48.83.88-26.87 9.56-48.34 39-49.77 28 1.05 40.83 16.04 43.52 41.8m-69.05 7.1c-.15 18.65 8.48 32.59 24.8 34.13 16.31 1.54 32.77-14.09 31.63-33.09-1.14-19.07-8.67-35.13-28.45-35.04-21.28.09-27.86 20.73-27.98 34"/></svg>