<svg xmlns="http://www.w3.org/2000/svg" fill-rule="evenodd" stroke-linejoin="round" stroke-miterlimit="2" clip-rule="evenodd" viewBox="0 0 934 1300"><path fill="#d40000" fill-rule="nonzero" d="M35.44 150.4c-1.7-11.45-1.67-41.03-.28-49.76 4.3-26.8 14.73-39.04 32.2-43.06 16.94-3.9 40.77.45 46 22.84l-14.18.26C91.5 65.54 72.1 69.6 61.19 76.18c-8.73 5.26-12.67 27.16-10.97 28.51-.02 0 16.48-11.99 29.48-11.1 27.78 2.84 39.23 26.48 38.27 48.82-.88 26.87-9.56 48.35-39.02 49.78-27.98-1.05-40.81-16.04-43.51-41.8m69.04-7.1c.17-18.65-8.47-32.6-24.79-34.13-16.3-1.54-32.76 14.09-31.62 33.1 1.14 19.06 8.66 35.13 28.44 35.03 21.27-.09 27.87-20.73 27.97-34M896.9 1149.61c1.7 11.44 1.68 41.02.28 49.75-4.28 26.79-14.72 39.04-32.18 43.06-16.95 3.9-40.78-.44-46.01-22.84l14.18-.27c7.68 15.14 27.08 11.09 37.99 4.51 8.72-5.26 12.67-27.16 10.98-28.51 0 0-16.49 11.99-29.48 11.1-27.79-2.84-39.24-26.48-38.28-48.83.88-26.87 9.56-48.34 39-49.77 28 1.05 40.84 16.04 43.52 41.8m-69.04 7.1c-.15 18.65 8.48 32.59 24.8 34.13 16.3 1.54 32.76-14.09 31.62-33.09-1.14-19.07-8.67-35.13-28.45-35.04-21.28.09-27.86 20.73-27.97 34M37.18 247.79c-6.62-14.47-7.33-39.2 12.38-42.54 14.83-1.9 20.87 5 22.08 15.6.58 3.1 2.33 3.28 2.88-.25.87-10.87 11.62-17.22 20.04-15.62 23.04 3.94 21.66 29.28 14.16 46.48-11.37 22.83-23.33 37.24-34.37 60.22-12.63-23.93-27.08-43.36-37.17-63.9m147.04-129.2c29.75-1.98 45.25 23.44 48.3 43.48 1.79 3.18 2.79 2.29 3.5-.18 1.45-25.72 24.45-46.75 45.79-43.87 34.7.45 55.79 39.06 49.87 71.74-7.25 39.92-28.75 63.96-45.04 88.73-18.42 25.63-43.2 62.66-51.2 80.48 0 0-25.22-38.35-58-83.46-21.93-30.16-39.47-62.84-41.1-90.98-1.87-32.14 11.34-60.96 47.88-65.94m464.71 0c29.75-1.98 45.3 23.44 48.3 43.48 1.83 3.18 2.79 2.29 3.5-.18 1.45-25.72 24.5-46.75 45.79-43.87 34.7.45 55.79 39.06 49.87 71.74-7.25 39.92-28.75 63.96-45.04 88.73-18.42 25.63-43.21 62.66-51.21 80.48 0 0-25.2-38.35-57.96-83.46-21.96-30.16-39.5-62.84-41.12-90.98-1.88-32.14 11.33-60.96 47.87-65.94m0 412.05c29.75-1.98 45.3 23.45 48.3 43.49 1.83 3.18 2.79 2.28 3.5-.18 1.45-25.73 24.5-46.75 45.79-43.88 34.7.46 55.79 39.07 49.87 71.75-7.25 39.92-28.75 63.96-45.04 88.72-18.42 25.64-43.21 62.67-51.21 80.49 0 0-25.2-38.36-57.96-83.46-21.96-30.16-39.5-62.84-41.12-90.98-1.88-32.15 11.33-60.97 47.87-65.95m-464.7 0c29.74-1.98 45.24 23.45 48.29 43.49 1.79 3.18 2.79 2.28 3.5-.18 1.45-25.73 24.45-46.75 45.79-43.88 34.7.46 55.79 39.07 49.87 71.75-7.25 39.92-28.75 63.96-45.04 88.72-18.42 25.64-43.2 62.67-51.2 80.49 0 0-25.22-38.36-58-83.46-21.92-30.16-39.47-62.84-41.1-90.98-1.87-32.15 11.34-60.97 47.88-65.95m0 650.38c29.75 1.98 45.25-23.44 48.3-43.48 1.79-3.18 2.79-2.29 3.5.17 1.45 25.73 24.45 46.75 45.79 43.88 34.7-.45 55.79-39.06 49.87-71.74-7.25-39.93-28.75-63.97-45.04-88.73-18.42-25.63-43.2-62.66-51.2-80.48 0 0-25.22 38.35-58 83.45-21.92 30.17-39.47 62.85-41.1 90.99-1.87 32.14 11.34 60.96 47.88 65.94m464.71 0c29.75 1.98 45.3-23.44 48.3-43.48 1.83-3.18 2.79-2.29 3.5.17 1.45 25.73 24.5 46.75 45.79 43.88 34.7-.45 55.79-39.06 49.87-71.74-7.25-39.93-28.75-63.97-45.04-88.73-18.42-25.63-43.21-62.66-51.21-80.48 0 0-25.2 38.35-57.96 83.45-21.96 30.17-39.5 62.85-41.12 90.99-1.88 32.14 11.33 60.96 47.87 65.94m174.96-137.98c-6.58 14.47-7.3 39.19 12.38 42.53 14.87 1.91 20.91-4.99 22.08-15.59.62-3.1 2.37-3.29 2.92.24.83 10.87 11.62 17.22 20 15.63 23.04-3.94 21.7-29.29 14.16-46.49-11.37-22.83-23.33-37.23-34.33-60.21-12.67 23.92-27.13 43.35-37.21 63.89"/></svg>