<svg xmlns="http://www.w3.org/2000/svg" fill-rule="evenodd" stroke-linejoin="round" stroke-miterlimit="2" clip-rule="evenodd" viewBox="0 0 934 1300"><path fill-rule="nonzero" d="M35.94 150.4c-1.7-11.45-1.67-41.03-.28-49.76 4.29-26.8 14.73-39.04 32.19-43.06 16.95-3.9 40.78.45 46.01 22.84l-14.19.26C92 65.54 72.6 69.6 61.7 76.18c-8.73 5.26-12.67 27.16-10.98 28.51 0 0 16.49-11.99 29.48-11.1 27.79 2.84 39.24 26.48 38.28 48.82-.88 26.87-9.56 48.35-39.02 49.78-27.98-1.05-40.82-16.04-43.51-41.8m69.04-7.1c.16-18.65-8.47-32.6-24.79-34.13-16.3-1.54-32.76 14.09-31.62 33.1 1.14 19.06 8.65 35.13 28.44 35.03 21.27-.09 27.87-20.73 27.97-34m792.4 1006.32c1.71 11.44 1.69 41.02.28 49.75-4.27 26.79-14.71 39.04-32.17 43.06-16.95 3.9-40.78-.44-46.02-22.84l14.2-.27c7.67 15.14 27.06 11.09 37.98 4.51 8.71-5.26 12.67-27.16 10.97-28.51.02 0-16.48 11.99-29.48 11.1-27.78-2.84-39.23-26.48-38.27-48.83.88-26.87 9.56-48.34 39-49.77 28 1.05 40.83 16.04 43.52 41.8m-69.05 7.1c-.15 18.65 8.48 32.59 24.8 34.13 16.31 1.54 32.77-14.09 31.63-33.09-1.14-19.07-8.67-35.13-28.45-35.04-21.28.09-27.86 20.73-27.98 34M225.97 286.06c.08-8.44-6.58-8.6-6.5-2.44-.58 30.96-26.75 46.2-45.8 42.58-29.28-5.57-38.66-34.67-38.37-51.82.88-52.9 54.13-91.9 102.17-159.72 35.2 61.2 93.33 109.29 96.75 156.6 4.58 62.91-75.04 86.38-86.37 13.06-.75-5.18-6.84-7.5-6.38-.27 1.75 20.1-.7 28.46 21.96 78h-59.3c13.13-23.15 20.97-51.57 21.84-75.99m464.75 0c.04-8.44-6.62-8.6-6.54-2.44-.58 30.96-26.75 46.2-45.75 42.58-29.33-5.57-38.67-34.67-38.42-51.82.88-52.9 54.13-91.9 102.17-159.72 35.2 61.2 93.33 109.29 96.8 156.6 4.53 62.91-75.05 86.38-86.43 13.06-.75-5.18-6.83-7.5-6.37-.27 1.75 20.1-.7 28.46 21.96 78h-59.25c13.12-23.15 20.91-51.57 21.83-75.99M226.02 602.8c.08 8.44-6.6 8.6-6.5 2.44-.6-30.95-26.76-46.19-45.76-42.57-29.33 5.57-38.7 34.67-38.41 51.81.87 52.9 54.12 91.9 102.16 159.73 35.21-61.21 93.34-109.3 96.75-156.6 4.59-62.92-75-86.38-86.37-13.06-.75 5.18-6.84 7.5-6.38.27 1.75-20.1-.7-28.47 21.96-78h-59.25c13.13 23.15 20.92 51.56 21.8 75.98m464.74 0c.04 8.44-6.62 8.6-6.54 2.44-.54-30.95-26.75-46.19-45.75-42.57-29.33 5.57-38.67 34.67-38.42 51.81.88 52.9 54.13 91.9 102.17 159.73 35.2-61.21 93.33-109.3 96.8-156.6 4.58-62.92-75.05-86.38-86.42-13.06-.75 5.18-6.84 7.5-6.38.27 1.75-20.1-.7-28.47 21.96-78h-59.25c13.12 23.15 20.92 51.56 21.83 75.98m0 410.83c.04 8.44-6.62 8.6-6.54 2.44-.54-30.95-26.75-46.19-45.75-42.58-29.33 5.58-38.67 34.68-38.42 51.82.88 52.9 54.13 91.91 102.17 159.72 35.2-61.21 93.33-109.28 96.8-156.6 4.58-62.91-75.05-86.37-86.42-13.05-.75 5.18-6.84 7.5-6.38.27 1.75-20.1-.7-28.47 21.96-78h-59.25c13.12 23.14 20.92 51.56 21.83 75.98m-464.75 0c.09 8.44-6.58 8.6-6.5 2.44-.58-30.95-26.75-46.19-45.75-42.58-29.33 5.58-38.7 34.68-38.41 51.82.87 52.9 54.12 91.91 102.16 159.72 35.21-61.21 93.34-109.28 96.75-156.6 4.59-62.91-75-86.37-86.37-13.05-.75 5.18-6.84 7.5-6.38.27 1.75-20.1-.7-28.47 21.96-78h-59.25c13.13 23.14 20.92 51.56 21.8 75.98m-154-728.11c.03-3.63-3.72-1.94-4.26-.8-4.83 8.28-11.91 10.2-18.91 7.22-6.96-2.95-10.88-9.5-10.25-18.84 1.29-14.32 12.66-30 18.16-38.86a283 283 0 0 0 16.96-29.81c7.08 14.02 10.67 18 18.38 30.8 6.79 11.27 16.2 22.3 16.95 35.93 0 10.35-4.37 20.13-14.16 21.91-5.54 1.01-10.75-1.84-14.63-8.49-1.16-1.7-3.54-.8-3.46 1.51.67 8.72 3.96 16.6 11.75 25.88H59.9c5.87-6.56 11.87-15.43 12.12-26.45m786.75 719.77c.04 3.64-3.75 1.94-4.25.79-4.83-8.27-11.91-10.2-18.96-7.21-6.95 2.96-10.83 9.5-10.2 18.84 1.29 14.32 12.62 30 18.12 38.86a290 290 0 0 1 17 29.81c7.08-14.01 10.67-18 18.33-30.8 6.8-11.27 16.25-22.3 16.96-35.93 0-10.35-4.33-20.13-14.16-21.9-5.55-1.02-10.75 1.83-14.59 8.48-1.16 1.69-3.54.81-3.5-1.51.71-8.72 4-16.6 11.8-25.88H846.6c5.87 6.57 11.87 15.43 12.16 26.45"/></svg>