<svg xmlns="http://www.w3.org/2000/svg" fill-rule="evenodd" stroke-linejoin="round" stroke-miterlimit="2" clip-rule="evenodd" viewBox="0 0 934 1300"><path fill-rule="nonzero" d="M51.81 194.19c8.88-46.2 18.37-80.88 43.26-118.53H44.5v16.2H31.07V61.32h73.97l9.12 14.34c-26.42 28.32-50.62 119.87-46.33 118.53zm827.27 911.62c-8.88 46.21-18.38 80.88-43.25 118.54h50.57v-16.21h13.43v30.54h-73.97l-9.12-14.33c26.42-28.32 50.61-119.87 46.32-118.54zm-231.13-742.4c12-24.06 20.75-48.75 22.3-75.15 1.41-9.72-4.46-9.88-5.38-3.04-16.96 64.97-107.33 47.38-104.2-13.73 2.5-49.56 51.7-60.23 77.4-44.02 10.13 5.97 9.55 2.4 4.05-3.8-38.17-42.55-15.04-97.34 36.5-98.34 55.75 3.3 70.2 61.96 36 96.45-4.25 4.14-13.67 17.46.54 8.15 34.5-24.53 82.42 1.84 81.46 39.67-1.83 69.74-86.83 74.95-105.04 16.69-1.75-6.46-6.75-9.7-5.38 1.27 2.5 19.86 7.75 49.8 22.67 75.85zm0 417.7c12-24.06 20.75-48.75 22.3-75.15 1.41-9.72-4.46-9.88-5.38-3.03-16.96 64.96-107.33 47.37-104.2-13.74 2.5-49.56 51.7-60.22 77.4-44.02 10.13 5.97 9.55 2.4 4.05-3.8-38.17-42.55-15.04-97.34 36.5-98.34 55.75 3.3 70.2 61.96 36 96.45-4.25 4.14-13.67 17.46.54 8.15 34.5-24.53 82.42 1.85 81.46 39.67-1.83 69.75-86.83 74.95-105.04 16.69-1.75-6.46-6.75-9.7-5.38 1.27 2.5 19.86 7.75 49.8 22.67 75.85zm-423.04 0c12-24.06 20.75-48.75 22.3-75.15 1.41-9.72-4.5-9.88-5.38-3.03-17 64.96-107.34 47.37-104.25-13.74 2.54-49.56 51.75-60.22 77.46-44.02 10.12 5.97 9.54 2.4 4-3.8-38.13-42.55-15.05-97.34 36.54-98.34 55.7 3.3 70.2 61.96 36 96.45-4.25 4.14-13.67 17.46.5 8.15 34.54-24.53 82.46 1.85 81.5 39.67-1.84 69.75-86.88 74.95-105.04 16.69-1.75-6.46-6.8-9.7-5.38 1.27 2.5 19.86 7.71 49.8 22.63 75.85zm210.13-208.84c12-24.07 20.75-48.76 22.29-75.16 1.41-9.72-4.46-9.88-5.38-3.04-16.96 64.97-107.33 47.38-104.2-13.73 2.5-49.56 51.74-60.22 77.41-44.02 10.13 5.97 9.58 2.4 4.04-3.8-38.16-42.55-15.04-97.34 36.5-98.34 55.75 3.3 70.21 61.96 36 96.45-4.25 4.14-13.66 17.46.54 8.15 34.5-24.53 82.42 1.85 81.46 39.67-1.79 69.74-86.83 74.95-105 16.69-1.75-6.46-6.79-9.7-5.41 1.27 2.54 19.86 7.75 49.8 22.66 75.85zM224.9 363.42c12-24.07 20.75-48.76 22.3-75.16 1.41-9.72-4.5-9.88-5.38-3.04-17 64.97-107.34 47.38-104.25-13.73 2.54-49.56 51.75-60.23 77.46-44.02 10.12 5.97 9.54 2.4 4-3.8-38.13-42.55-15.05-97.34 36.54-98.34 55.7 3.3 70.2 61.96 36 96.45-4.25 4.14-13.67 17.46.5 8.15 34.54-24.53 82.46 1.84 81.5 39.67-1.84 69.74-86.88 74.95-105.04 16.69-1.75-6.46-6.8-9.7-5.38 1.27 2.5 19.86 7.71 49.8 22.63 75.85zm484.34 590.44c-12 24.06-20.75 48.75-22.3 75.15-1.46 9.72 4.46 9.88 5.38 3.04 16.96-64.97 107.33-47.38 104.2 13.73-2.5 49.56-51.74 60.23-77.41 44.02-10.13-5.97-9.58-2.39-4.04 3.8 38.16 42.55 15.04 97.34-36.5 98.34-55.75-3.3-70.21-61.95-36-96.45 4.25-4.14 13.66-17.46-.54-8.15-34.5 24.53-82.42-1.84-81.46-39.67 1.79-69.74 86.83-74.95 105-16.69 1.75 6.46 6.79 9.71 5.41-1.27-2.54-19.86-7.75-49.8-22.66-75.85zm-423.09 0c-12 24.06-20.7 48.75-22.29 75.15-1.42 9.72 4.5 9.88 5.38 3.04 17-64.97 107.37-47.38 104.25 13.73-2.55 49.56-51.75 60.23-77.42 44.02-10.17-5.97-9.58-2.39-4.04 3.8 38.12 42.55 15.04 97.34-36.5 98.34-55.75-3.3-70.21-61.95-36.04-96.45 4.25-4.14 13.7-17.46-.5-8.15-34.55 24.53-82.46-1.84-81.46-39.67 1.79-69.74 86.83-74.95 105-16.69 1.75 6.46 6.79 9.71 5.41-1.27-2.54-19.86-7.75-49.8-22.66-75.85zM56.46 318.68c4.96-10.19 9.8-19.67 12.43-30.84 1.75-10.53-1.83-6.62-3.85.28-3.01 9.58-11.35 13.94-19.09 14.04-14.05.2-21.05-10.85-20.61-22.72-1.54-12.5 11.13-21.34 20.67-20.66 7.18.51 13.43 4.39 17.22 7.4 2.49 1.31 5.14 1.9 1.44-1.5-7-7.63-12.82-12.34-12.7-23.79.13-10.74 9.31-21.95 21.49-21.6 15.21.44 22.13 12.05 22.1 22.84a24.7 24.7 0 0 1-10.06 19.6c-3.93 3.18-2.83 5.58 1.66 2.56 4.31-3.72 9.45-5.35 14.77-5.46 14.57-.23 20.23 12.34 19.4 24.01-.8 10.94-10.08 22.2-22.37 20.93-10.96-1.25-16.72-10.46-20.02-19.9-1.1-2.9-2.82-3.68-2.77.63 2.53 21.08 10.38 34.19 10.44 34.18zM876.9 993.69c-5 10.19-9.83 19.67-12.46 30.84-1.75 10.53 1.84 6.62 3.88-.29 3-9.57 11.33-13.93 19.08-14.03 14.04-.2 21.04 10.85 20.59 22.72 1.54 12.49-11.13 21.34-20.67 20.66-7.17-.52-13.42-4.39-17.21-7.4-2.5-1.32-5.12-1.9-1.46 1.49 7 7.64 12.84 12.35 12.71 23.8-.12 10.74-9.3 21.95-21.46 21.6-15.25-.44-22.16-12.05-22.12-22.84a24.7 24.7 0 0 1 10.04-19.6c3.96-3.19 2.83-5.57-1.63-2.56a23 23 0 0 1-14.79 5.46c-14.54.23-20.2-12.34-19.37-24.02.75-10.93 10.08-22.2 22.33-20.92 11 1.25 16.75 10.46 20.04 19.9 1.09 2.9 2.8 3.68 2.75-.63-2.5-21.08-10.37-34.2-10.41-34.18z"/></svg>