<svg xmlns="http://www.w3.org/2000/svg" fill-rule="evenodd" stroke-linejoin="round" stroke-miterlimit="2" clip-rule="evenodd" viewBox="0 0 934 1300"><path fill="#d40000" fill-rule="nonzero" d="M139.15 245.35c41.33-40.34 68.48-84.32 94.45-126.62 22.76 46.54 55.44 87.26 90.78 126.62-37.81 39.04-67.11 80.78-90.67 124.66-26.12-44.99-53.62-85.72-94.56-124.66m0 417.7c41.33-40.34 68.48-84.32 94.45-126.62 22.76 46.54 55.44 87.26 90.78 126.62-37.81 39.04-67.11 80.78-90.67 124.66-26.12-44.98-53.62-85.71-94.56-124.66m0 410.83c41.33-40.34 68.48-84.32 94.45-126.62 22.76 46.54 55.44 87.26 90.78 126.62-37.81 39.04-67.11 80.78-90.67 124.66-26.12-44.98-53.62-85.72-94.56-124.66M374.29 454.2c41.33-40.34 68.48-84.32 94.45-126.62 22.76 46.54 55.44 87.26 90.77 126.62-37.8 39.04-67.1 80.78-90.66 124.66-26.12-44.99-53.62-85.72-94.56-124.66m229.57-208.85c41.35-40.34 68.5-84.32 94.45-126.62 22.78 46.54 55.44 87.26 90.78 126.62-37.8 39.04-67.11 80.78-90.66 124.66-26.11-44.99-53.61-85.72-94.57-124.66m0 417.7c41.35-40.34 68.5-84.32 94.45-126.62 22.78 46.54 55.44 87.26 90.78 126.62-37.8 39.04-67.11 80.78-90.66 124.66-26.11-44.98-53.61-85.71-94.57-124.66m0 410.83c41.35-40.34 68.5-84.32 94.45-126.62 22.78 46.54 55.44 87.26 90.78 126.62-37.8 39.04-67.11 80.78-90.66 124.66-26.11-44.98-53.61-85.72-94.57-124.66m219.45-30.09c16.94-16.53 28.06-34.54 38.7-51.87 9.32 19.06 22.7 35.74 37.18 51.87a227 227 0 0 0-37.14 51.06c-10.7-18.42-21.95-35.11-38.74-51.06M36.6 269.38c16.93-16.52 28.05-34.54 38.68-51.87 9.34 19.06 22.72 35.75 37.2 51.87-15.5 16-27.5 33.09-37.15 51.06-10.7-18.42-21.96-35.1-38.73-51.06m16.44-75.2c8.88-46.2 18.37-80.87 43.25-118.52H45.72v16.2H32.28V61.32h73.98l9.12 14.34c-26.42 28.32-50.62 119.87-46.33 118.53zm827.27 911.63c-8.88 46.21-18.38 80.88-43.25 118.54h50.56v-16.21h13.44v30.54h-73.97l-9.12-14.33c26.41-28.32 50.61-119.87 46.32-118.54z"/></svg>