<svg xmlns="http://www.w3.org/2000/svg" fill-rule="evenodd" stroke-linejoin="round" stroke-miterlimit="2" clip-rule="evenodd" viewBox="0 0 934 1300"><path fill="#d40000" fill-rule="nonzero" d="M52.77 194.19c8.88-46.2 18.37-80.88 43.25-118.53H45.46v16.2H32.02V61.32H106l9.12 14.34C88.7 103.98 64.5 195.53 68.79 194.19zm827.27 911.62c-8.88 46.21-18.38 80.88-43.25 118.54h50.56v-16.21h13.44v30.54H826.8l-9.12-14.33c26.42-28.32 50.62-119.87 46.33-118.54zM38.12 258.57c-6.58-14.47-7.29-39.2 12.38-42.54 14.87-1.9 20.92 5 22.08 15.6.63 3.09 2.38 3.28 2.92-.25.83-10.87 11.62-17.22 20-15.62 23.04 3.93 21.7 29.28 14.17 46.48-11.38 22.83-23.34 37.24-34.34 60.21-12.66-23.92-27.12-43.35-37.2-63.88m143.16-133.98c29.8-1.97 45.3 23.45 48.33 43.5 1.8 3.17 2.8 2.27 3.46-.19 1.46-25.72 24.5-46.75 45.83-43.87 34.71.45 55.8 39.06 49.84 71.74-7.25 39.92-28.75 63.97-45 88.72-18.46 25.64-43.25 62.67-51.21 80.5 0 0-25.2-38.36-58-83.47-21.92-30.16-39.5-62.84-41.13-90.98-1.83-32.15 11.34-60.96 47.88-65.95m464.75 0c29.75-1.97 45.25 23.45 48.3 43.5 1.78 3.17 2.78 2.27 3.5-.19 1.45-25.72 24.45-46.75 45.78-43.87 34.71.45 55.8 39.06 49.88 71.74-7.25 39.92-28.75 63.97-45.04 88.72-18.42 25.64-43.21 62.67-51.21 80.5 0 0-25.21-38.36-58-83.47-21.92-30.16-39.46-62.84-41.08-90.98-1.88-32.15 11.33-60.96 47.87-65.95M416.46 333.44c29.75-1.97 45.29 23.45 48.29 43.5 1.83 3.17 2.79 2.27 3.5-.19 1.46-25.72 24.46-46.75 45.79-43.87 34.7.45 55.8 39.06 49.88 71.74-7.25 39.93-28.75 63.97-45.05 88.72-18.41 25.64-43.2 62.67-51.2 80.5 0 0-25.21-38.36-58-83.47-21.92-30.16-39.46-62.84-41.09-90.98-1.87-32.14 11.34-60.96 47.88-65.95M181.29 542.3c29.8-1.98 45.3 23.44 48.33 43.48 1.8 3.19 2.8 2.29 3.46-.17 1.46-25.73 24.5-46.76 45.83-43.88 34.71.45 55.8 39.06 49.84 71.74-7.25 39.93-28.75 63.97-45 88.72-18.46 25.64-43.25 62.67-51.21 80.5 0 0-25.2-38.36-58-83.46-21.92-30.17-39.5-62.85-41.13-90.99-1.83-32.14 11.34-60.96 47.88-65.94m464.75 0c29.75-1.98 45.25 23.44 48.3 43.48 1.78 3.18 2.78 2.29 3.5-.17 1.45-25.73 24.45-46.76 45.78-43.88 34.71.45 55.8 39.06 49.88 71.74-7.25 39.93-28.75 63.97-45.04 88.72-18.42 25.64-43.21 62.67-51.21 80.5 0 0-25.21-38.36-58-83.46-21.92-30.17-39.46-62.85-41.08-90.99-1.88-32.14 11.33-60.96 47.87-65.94m178.83 511.51c-6.62 14.46-7.33 39.18 12.38 42.53 14.83 1.91 20.87-5 22.08-15.59.58-3.1 2.33-3.29 2.88.24.87 10.87 11.62 17.22 20.04 15.63 23.04-3.94 21.67-29.29 14.17-46.48-11.38-22.84-23.34-37.25-34.38-60.22-12.62 23.92-27.08 43.35-37.17 63.89m-178.83 138.87c29.75 1.98 45.25-23.45 48.3-43.49 1.78-3.18 2.78-2.28 3.5.18 1.45 25.72 24.45 46.75 45.78 43.87 34.71-.45 55.8-39.06 49.88-71.74-7.25-39.92-28.75-63.96-45.04-88.72-18.42-25.64-43.21-62.66-51.21-80.49 0 0-25.21 38.35-58 83.46-21.92 30.16-39.46 62.84-41.08 90.98-1.88 32.15 11.33 60.97 47.87 65.95m-464.75 0c29.8 1.98 45.3-23.45 48.33-43.49 1.8-3.18 2.8-2.28 3.46.18 1.46 25.72 24.5 46.75 45.84 43.87 34.7-.45 55.79-39.06 49.83-71.74-7.25-39.92-28.75-63.96-45-88.72-18.46-25.64-43.25-62.66-51.21-80.49 0 0-25.2 38.35-58 83.46-21.92 30.16-39.5 62.84-41.12 90.98-1.84 32.15 11.33 60.97 47.87 65.95"/></svg>