<svg xmlns="http://www.w3.org/2000/svg" fill-rule="evenodd" stroke-linejoin="round" stroke-miterlimit="2" clip-rule="evenodd" viewBox="0 0 934 1300"><path fill-rule="nonzero" d="M53.03 194.19c8.88-46.2 18.37-80.88 43.26-118.53H45.72v16.2H32.28V61.32h73.98l9.12 14.34c-26.42 28.32-50.62 119.87-46.33 118.53zM880.3 1105.8c-8.88 46.21-18.38 80.88-43.25 118.54h50.56v-16.21h13.44v30.54h-73.97l-9.12-14.33c26.41-28.32 50.61-119.87 46.32-118.54zM222.83 292.08c.09-8.44-6.62-8.6-6.54-2.44-.54 30.95-26.7 46.2-45.75 42.58-29.33-5.58-38.66-34.68-38.37-51.81.83-52.9 54.12-91.92 102.16-159.73 35.21 61.21 93.3 109.29 96.75 156.6 4.59 62.91-75.04 86.38-86.41 13.06-.71-5.18-6.84-7.5-6.34-.27 1.71 20.1-.75 28.46 21.92 78H201c13.13-23.15 20.96-51.57 21.83-75.99m464.71 0c.09-8.44-6.58-8.6-6.5-2.44-.58 30.95-26.75 46.2-45.79 42.58-29.3-5.58-38.67-34.68-38.37-51.81.87-52.9 54.12-91.92 102.16-159.73 35.21 61.21 93.34 109.29 96.75 156.6 4.59 62.91-75.04 86.38-86.37 13.06-.75-5.18-6.84-7.5-6.38-.27 1.71 20.1-.75 28.46 21.96 78h-59.3c13.13-23.15 20.97-51.57 21.84-75.99M458 500.93c.04-8.44-6.62-8.6-6.54-2.44-.58 30.95-26.75 46.2-45.8 42.58-29.28-5.57-38.66-34.68-38.37-51.81.88-52.9 54.13-91.92 102.17-159.73 35.2 61.21 93.33 109.29 96.75 156.6 4.58 62.91-75 86.38-86.38 13.06-.75-5.18-6.83-7.5-6.37-.27 1.7 20.1-.7 28.46 21.96 78h-59.25c13.08-23.15 20.91-51.56 21.83-75.99m229.54 208.85c.09-8.44-6.58-8.6-6.5-2.44-.58 30.95-26.75 46.2-45.79 42.58-29.3-5.57-38.67-34.68-38.37-51.81.87-52.9 54.12-91.91 102.16-159.73 35.21 61.21 93.34 109.29 96.75 156.6 4.59 62.91-75.04 86.38-86.37 13.06-.75-5.18-6.84-7.5-6.38-.27 1.71 20.1-.75 28.46 21.96 78h-59.3c13.13-23.15 20.97-51.56 21.84-75.98zm-464.7 0c.08-8.44-6.63-8.6-6.55-2.44-.54 30.95-26.7 46.2-45.75 42.58-29.33-5.57-38.66-34.68-38.37-51.81.83-52.9 54.12-91.91 102.16-159.73 35.21 61.21 93.3 109.29 96.75 156.6 4.59 62.91-75.04 86.38-86.41 13.06-.71-5.18-6.84-7.5-6.34-.27 1.71 20.1-.75 28.46 21.92 78H201c13.13-23.15 20.96-51.56 21.83-75.98zm464.74 315.51c.09 8.45-6.58 8.61-6.5 2.45-.58-30.96-26.75-46.2-45.75-42.58-29.33 5.57-38.7 34.67-38.41 51.81.87 52.9 54.12 91.91 102.16 159.73 35.21-61.21 93.34-109.29 96.75-156.61 4.59-62.9-75-86.37-86.37-13.05-.75 5.18-6.83 7.5-6.38.27 1.75-20.09-.7-28.46 21.96-78h-59.29c13.13 23.15 20.96 51.56 21.83 75.98m-464.7 0c.08 8.45-6.59 8.61-6.55 2.45-.54-30.96-26.7-46.2-45.75-42.58-29.29 5.57-38.66 34.67-38.37 51.81.87 52.9 54.12 91.91 102.17 159.73 35.2-61.21 93.33-109.29 96.75-156.61 4.58-62.9-75.05-86.37-86.42-13.05-.7 5.18-6.83 7.5-6.33.27 1.7-20.09-.75-28.46 21.91-78h-59.25c13.13 23.15 20.96 51.56 21.84 75.98m-150.14-729c.04-3.63-3.73-1.93-4.24-.79-4.85 8.28-11.94 10.2-18.95 7.22-6.95-2.96-10.85-9.5-10.22-18.84 1.29-14.33 12.65-30 18.14-38.86a288 288 0 0 0 16.99-29.8c7.07 14 10.66 18 18.35 30.79 6.78 11.27 16.23 22.3 16.94 35.93 0 10.35-4.35 20.13-14.15 21.9-5.55 1.02-10.74-1.83-14.6-8.48-1.17-1.7-3.54-.8-3.5 1.5.69 8.73 3.98 16.6 11.8 25.9H60.6c5.87-6.57 11.86-15.44 12.14-26.46m786.72 719.77c.04 3.63-3.7 1.94-4.2.8-4.88-8.28-11.97-10.2-18.97-7.22-6.96 2.95-10.87 9.5-10.25 18.84 1.3 14.33 12.67 30 18.17 38.86a289 289 0 0 1 17 29.81c7.04-14.02 10.62-18 18.33-30.8 6.8-11.27 16.21-22.3 16.96-35.93 0-10.35-4.37-20.13-14.17-21.91-5.54-1.01-10.75 1.84-14.58 8.49-1.2 1.69-3.54.81-3.5-1.51.67-8.72 3.96-16.6 11.8-25.89h-28.72c5.88 6.57 11.88 15.44 12.13 26.46"/></svg>