<svg xmlns="http://www.w3.org/2000/svg" fill-rule="evenodd" stroke-linejoin="round" stroke-miterlimit="2" clip-rule="evenodd" viewBox="0 0 934 1300"><path fill-rule="nonzero" d="M32.51 156.85c.67-18.23 7.38-25.08 20.6-34.61-10.54-7.49-14.99-18.5-14.09-27.87 2.17-22.7 20.05-34.05 39.52-33.56 19.48.5 36.28 15.68 37.58 32.18 1.14 14.35-3.21 21.26-13.57 28.81 12.3 10.17 20.17 16.87 19.87 34.84s-15.86 39.33-42.98 39.99c-27.12.65-47.6-21.54-46.93-39.78m75.72.06c1.17-16.5-13.7-27.65-30.47-27.8-16.34-.18-30.96 13.51-30.96 28.33 0 15.93 19 24.57 31.3 24.62 14.91.05 29.13-10.92 30.13-25.15m-5.36-59.06c.32-13.9-12.74-23.87-26.2-23.47-11.98.37-24.68 9.35-24.69 20.96 0 14.56 14.43 21.8 26.75 22.08 11.16.25 23.9-9.06 24.14-19.57m799.6 1045.3c-.67 18.23-7.38 25.08-20.6 34.62 10.54 7.48 15 18.49 14.09 27.86-2.17 22.7-20.04 34.05-39.52 33.56-19.48-.5-36.27-15.68-37.58-32.17-1.14-14.35 3.21-21.26 13.57-28.82-12.3-10.17-20.17-16.87-19.87-34.83s15.86-39.33 42.98-39.99 47.6 21.54 46.93 39.77m-75.72-.06c-1.17 16.51 13.7 27.65 30.47 27.82 16.35.17 30.96-13.53 30.96-28.35 0-15.92-19.02-24.57-31.3-24.62-14.91-.05-29.14 10.93-30.13 25.15m5.36 59.05c-.32 13.91 12.74 23.88 26.2 23.48 11.98-.36 24.68-9.34 24.68-20.97.02-14.54-14.43-21.8-26.73-22.07-11.17-.25-23.9 9.06-24.15 19.56M651.75 354.78c11.96-24.07 20.7-48.75 22.25-75.16 1.42-9.71-4.46-9.87-5.33-3.03-17 64.97-107.38 47.37-104.25-13.74 2.5-49.56 51.75-60.22 77.41-44.02 10.13 5.97 9.59 2.4 4.05-3.8-38.17-42.54-15.05-97.34 36.5-98.34 55.75 3.3 70.2 61.96 36 96.45-4.25 4.15-13.67 17.46.54 8.15 34.5-24.53 82.41 1.85 81.46 39.67-1.8 69.75-86.84 74.95-105 16.7-1.75-6.46-6.8-9.71-5.42 1.26 2.54 19.86 7.75 49.8 22.67 75.86zm0 417.7c11.96-24.06 20.7-48.75 22.25-75.15 1.42-9.72-4.46-9.88-5.33-3.04-17 64.97-107.38 47.38-104.25-13.74 2.5-49.56 51.75-60.22 77.41-44.02 10.13 5.97 9.59 2.4 4.05-3.8-38.17-42.54-15.05-97.33 36.5-98.34 55.75 3.3 70.2 61.96 36 96.45-4.25 4.15-13.67 17.47.54 8.16 34.5-24.54 82.41 1.84 81.46 39.66-1.8 69.75-86.84 74.95-105 16.7-1.75-6.46-6.8-9.7-5.42 1.26 2.54 19.86 7.75 49.8 22.67 75.86zm-431.42 0c12-24.06 20.75-48.75 22.3-75.15 1.41-9.72-4.46-9.88-5.38-3.04-16.96 64.97-107.33 47.38-104.2-13.74 2.5-49.56 51.7-60.22 77.4-44.02 10.13 5.97 9.55 2.4 4.05-3.8-38.17-42.54-15.08-97.33 36.5-98.34 55.75 3.3 70.2 61.96 36 96.45-4.25 4.15-13.67 17.47.5 8.16 34.54-24.54 82.46 1.84 81.5 39.66-1.83 69.75-86.83 74.95-105.04 16.7-1.75-6.46-6.8-9.7-5.38 1.26 2.5 19.86 7.75 49.8 22.67 75.86zm209.09-208.85c12-24.07 20.75-48.75 22.29-75.15 1.46-9.72-4.46-9.88-5.33-3.04-17 64.97-107.38 47.37-104.25-13.74 2.5-49.56 51.75-60.22 77.41-44.02 10.13 5.97 9.59 2.4 4.04-3.8-38.16-42.54-15.04-97.34 36.5-98.34 55.75 3.3 70.21 61.96 36 96.45-4.25 4.15-13.66 17.46.55 8.15 34.5-24.53 82.41 1.85 81.45 39.67-1.79 69.75-86.83 74.95-105 16.7-1.75-6.46-6.79-9.71-5.41 1.26 2.54 19.86 7.75 49.8 22.66 75.86zM220.33 354.78c12-24.07 20.75-48.75 22.3-75.16 1.41-9.71-4.46-9.87-5.38-3.03-16.96 64.97-107.33 47.37-104.2-13.74 2.5-49.56 51.7-60.22 77.4-44.02 10.13 5.97 9.55 2.4 4.05-3.8-38.17-42.54-15.08-97.34 36.5-98.34 55.75 3.3 70.2 61.96 36 96.45-4.25 4.15-13.67 17.46.5 8.15 34.54-24.53 82.46 1.85 81.5 39.67-1.83 69.75-86.83 74.95-105.04 16.7-1.75-6.46-6.8-9.71-5.38 1.26 2.5 19.86 7.75 49.8 22.67 75.86zM713 945.22c-12 24.06-20.75 48.75-22.3 75.16-1.4 9.71 4.47 9.87 5.38 3.03 16.96-64.97 107.34-47.38 104.21 13.74-2.5 49.56-51.7 60.22-77.42 44.02-10.12-5.97-9.54-2.4-4.04 3.79 38.17 42.55 15.04 97.34-36.5 98.35-55.75-3.31-70.2-61.96-36-96.46 4.25-4.14 13.67-17.46-.5-8.15-34.54 24.54-82.46-1.84-81.5-39.67 1.84-69.74 86.84-74.94 105.04-16.68 1.75 6.45 6.75 9.7 5.38-1.27-2.5-19.86-7.75-49.8-22.67-75.86zM490.7 739.8c-12 24.07-20.74 48.76-22.28 75.16-1.42 9.71 4.46 9.88 5.37 3.04 16.96-64.98 107.33-47.38 104.21 13.73-2.5 49.57-51.75 60.23-77.42 44.02-10.12-5.97-9.54-2.4-4.04 3.8 38.17 42.55 15.04 97.34-36.5 98.34-55.75-3.3-70.2-61.95-36-96.45 4.25-4.14 13.67-17.46-.5-8.15-34.54 24.53-82.46-1.84-81.5-39.67 1.83-69.75 86.83-74.95 105.04-16.7 1.75 6.47 6.8 9.71 5.38-1.26-2.5-19.86-7.71-49.8-22.67-75.86zM281.59 945.22c-11.95 24.06-20.7 48.75-22.25 75.16-1.41 9.71 4.46 9.87 5.34 3.03 17-64.97 107.37-47.38 104.25 13.74-2.5 49.56-51.75 60.22-77.42 44.02-10.12-5.97-9.58-2.4-4.04 3.79 38.17 42.55 15.04 97.34-36.5 98.35-55.75-3.31-70.21-61.96-36-96.46 4.25-4.14 13.67-17.46-.54-8.15-34.5 24.54-82.42-1.84-81.46-39.67 1.79-69.74 86.83-74.94 105-16.68 1.75 6.45 6.79 9.7 5.42-1.27-2.55-19.86-7.75-49.8-22.67-75.86zm592.8 48.47c-4.97 10.2-9.8 19.66-12.44 30.83-1.75 10.54 1.83 6.62 3.85-.29 3-9.54 11.35-13.92 19.09-14 14.04-.21 21.05 10.83 20.61 22.71 1.54 12.5-11.12 21.33-20.67 20.66-7.18-.54-13.43-4.41-17.22-7.41-2.48-1.34-5.14-1.88-1.44 1.5 7 7.62 12.82 12.33 12.7 23.79-.13 10.75-9.32 21.96-21.49 21.58-15.21-.42-22.13-12.04-22.1-22.83a24.7 24.7 0 0 1 10.05-19.59c3.94-3.2 2.83-5.58-1.66-2.54-4.3 3.71-9.44 5.34-14.77 5.46-14.54.21-20.22-12.37-19.4-24.04.79-10.92 10.1-22.21 22.38-20.92 10.96 1.25 16.72 10.46 20.02 19.92 1.1 2.87 2.82 3.67 2.77-.67-2.53-21.04-10.38-34.16-10.44-34.16zM60.6 314.16c5-10.2 9.83-19.67 12.46-30.84 1.75-10.53-1.84-6.62-3.88.28-3 9.57-11.33 13.94-19.08 14.04-14.04.19-21.04-10.85-20.59-22.72-1.54-12.5 11.13-21.34 20.67-20.66 7.17.51 13.42 4.38 17.2 7.4 2.5 1.3 5.13 1.9 1.43-1.5-6.96-7.63-12.8-12.35-12.67-23.8.12-10.74 9.3-21.94 21.46-21.6 15.25.45 22.16 12.05 22.12 22.85-.04 7.86-4 15.1-10.04 19.59-3.96 3.19-2.83 5.58 1.63 2.56a23 23 0 0 1 14.79-5.46c14.54-.22 20.2 12.34 19.37 24.02-.75 10.94-10.08 22.2-22.37 20.93-10.96-1.26-16.71-10.46-20-19.9-1.09-2.9-2.84-3.69-2.75.63 2.5 21.07 10.37 34.18 10.41 34.17z"/></svg>