<svg xmlns="http://www.w3.org/2000/svg" fill-rule="evenodd" stroke-linejoin="round" stroke-miterlimit="2" clip-rule="evenodd" viewBox="0 0 934 1300"><path fill="#d40000" fill-rule="nonzero" d="M141.7 236.3c41.34-40.33 68.49-84.32 94.45-126.62 22.76 46.55 55.44 87.27 90.77 126.62-37.8 39.04-67.1 80.79-90.67 124.67-26.1-44.99-53.6-85.72-94.56-124.67m0 414.68c41.35-40.34 68.5-84.32 94.46-126.62 22.76 46.54 55.44 87.26 90.77 126.62-37.8 39.04-67.1 80.78-90.67 124.66-26.1-44.98-53.6-85.72-94.56-124.66m0 413.45c41.35-40.34 68.5-84.33 94.46-126.62 22.76 46.54 55.44 87.26 90.77 126.62-37.8 39.03-67.1 80.77-90.67 124.65-26.1-44.98-53.6-85.71-94.56-124.65m232.36-620.59c41.34-40.33 68.48-84.31 94.45-126.6 22.77 46.53 55.44 87.25 90.78 126.6-37.8 39.04-67.11 80.79-90.67 124.67-26.12-44.99-53.6-85.72-94.56-124.67M606.42 236.3c41.33-40.33 68.48-84.32 94.45-126.62 22.77 46.55 55.44 87.27 90.77 126.62-37.8 39.04-67.1 80.79-90.66 124.67-26.12-44.99-53.61-85.72-94.56-124.67m0 414.68c41.33-40.34 68.48-84.32 94.45-126.62 22.77 46.54 55.44 87.26 90.77 126.62-37.8 39.04-67.1 80.78-90.66 124.66-26.12-44.98-53.61-85.72-94.56-124.66m0 413.45c41.33-40.34 68.48-84.33 94.45-126.62 22.77 46.54 55.44 87.26 90.77 126.62-37.8 39.03-67.1 80.77-90.66 124.65-26.12-44.98-53.61-85.71-94.56-124.65M374.05 858.11c41.34-40.34 68.48-84.32 94.45-126.62 22.77 46.54 55.44 87.26 90.78 126.62-37.8 39.04-67.11 80.78-90.67 124.66-26.12-44.98-53.6-85.72-94.56-124.66M39.73 273.34c16.93-16.53 28.05-34.54 38.69-51.88 9.33 19.07 22.71 35.76 37.19 51.88a226 226 0 0 0-37.14 51.06c-10.7-18.42-21.97-35.1-38.74-51.06m-9.61-116.5c.67-18.22 7.38-25.07 20.6-34.6-10.54-7.49-15-18.5-14.09-27.87 2.17-22.7 20.05-34.05 39.52-33.56 19.48.5 36.27 15.68 37.58 32.18 1.14 14.35-3.21 21.26-13.57 28.81 12.3 10.17 20.17 16.87 19.87 34.84s-15.86 39.33-42.98 39.99c-27.12.65-47.6-21.54-46.93-39.78m75.72.06c1.16-16.5-13.7-27.65-30.47-27.8-16.35-.18-30.96 13.51-30.96 28.33 0 15.93 19 24.57 31.3 24.62 14.91.05 29.12-10.92 30.13-25.15m-5.36-59.06c.32-13.9-12.74-23.87-26.2-23.47-11.98.37-24.68 9.35-24.7 20.96 0 14.56 14.44 21.8 26.75 22.08 11.17.25 23.9-9.06 24.15-19.57m793.12 928.81c-16.93 16.53-28.04 34.54-38.68 51.88-9.33-19.07-22.72-35.76-37.2-51.88a226 226 0 0 0 37.15-51.06c10.7 18.42 21.96 35.11 38.73 51.06m9.61 116.49c-.66 18.23-7.37 25.08-20.6 34.62 10.54 7.48 15 18.49 14.1 27.86-2.18 22.7-20.04 34.05-39.52 33.56-19.48-.5-36.28-15.68-37.58-32.17-1.15-14.35 3.2-21.26 13.57-28.82-12.3-10.17-20.17-16.87-19.87-34.83s15.85-39.33 42.98-39.99 47.59 21.54 46.92 39.77m-75.71-.06c-1.17 16.51 13.7 27.65 30.47 27.82 16.34.17 30.96-13.53 30.96-28.35 0-15.92-19.02-24.57-31.3-24.62-14.92-.05-29.14 10.93-30.13 25.15m5.35 59.05c-.31 13.91 12.75 23.88 26.2 23.48 11.99-.36 24.68-9.34 24.68-20.97.03-14.54-14.42-21.8-26.73-22.07-11.16-.25-23.9 9.06-24.15 19.56"/></svg>