<svg xmlns="http://www.w3.org/2000/svg" fill-rule="evenodd" stroke-linejoin="round" stroke-miterlimit="2" clip-rule="evenodd" viewBox="0 0 934 1300"><path fill="#d40000" fill-rule="nonzero" d="M30.12 156.85c.67-18.23 7.38-25.08 20.6-34.61-10.54-7.49-15-18.5-14.09-27.87 2.17-22.7 20.05-34.05 39.52-33.56 19.48.5 36.27 15.68 37.58 32.18 1.14 14.35-3.21 21.26-13.57 28.81 12.3 10.17 20.17 16.87 19.87 34.84s-15.86 39.33-42.98 39.99c-27.12.65-47.6-21.54-46.93-39.78m75.72.06c1.16-16.5-13.7-27.65-30.47-27.8-16.35-.18-30.96 13.51-30.96 28.33 0 15.93 19 24.57 31.3 24.62 14.91.05 29.12-10.92 30.13-25.15m-5.36-59.06c.32-13.9-12.74-23.87-26.2-23.47-11.98.37-24.68 9.35-24.7 20.96 0 14.56 14.44 21.8 26.75 22.08 11.17.25 23.9-9.06 24.15-19.57M40.81 262.52c-6.63-14.46-7.33-39.19 12.37-42.53 14.84-1.91 20.88 5 22.09 15.6.58 3.09 2.33 3.27 2.87-.25.88-10.88 11.63-17.22 20.04-15.63 23 3.94 21.67 29.29 14.17 46.48-11.37 22.83-23.33 37.25-34.37 60.22-12.67-23.92-27.13-43.35-37.17-63.89m862.78 880.63c-.67 18.23-7.38 25.08-20.6 34.61 10.54 7.49 14.99 18.49 14.09 27.87-2.18 22.7-20.05 34.05-39.52 33.56-19.48-.5-36.28-15.68-37.58-32.18-1.14-14.35 3.2-21.26 13.57-28.81-12.3-10.17-20.17-16.87-19.87-34.84.3-17.96 15.86-39.33 42.98-39.99 27.12-.65 47.59 21.54 46.93 39.78m-75.72-.06c-1.17 16.51 13.7 27.65 30.47 27.81 16.34.17 30.96-13.52 30.96-28.34 0-15.93-19-24.57-31.3-24.62-14.92-.05-29.13 10.92-30.13 25.15m5.35 59.06c-.3 13.9 12.75 23.87 26.2 23.47 11.99-.37 24.68-9.35 24.7-20.97 0-14.55-14.43-21.8-26.75-22.07-11.16-.25-23.9 9.05-24.15 19.57m59.68-164.67c6.62 14.46 7.33 39.19-12.38 42.53-14.83 1.91-20.87-4.99-22.08-15.59-.59-3.1-2.34-3.29-2.88.24-.87 10.88-11.62 17.22-20.04 15.63-23-3.94-21.67-29.29-14.17-46.48 11.38-22.83 23.34-37.25 34.38-60.22 12.67 23.92 27.12 43.35 37.17 63.89M186.52 115.55c29.79-1.98 45.29 23.45 48.33 43.49 1.8 3.18 2.8 2.28 3.5-.18 1.46-25.72 24.46-46.75 45.8-43.87 34.7.45 55.78 39.06 49.87 71.74-7.25 39.92-28.75 63.96-45.04 88.72-18.42 25.64-43.21 62.67-51.21 80.49 0 0-25.21-38.35-58-83.46-21.92-30.16-39.46-62.84-41.13-90.98-1.83-32.15 11.34-60.96 47.88-65.95m456.41 0c29.75-1.98 45.3 23.45 48.3 43.49 1.83 3.18 2.79 2.28 3.5-.18 1.45-25.72 24.45-46.75 45.79-43.87 34.7.45 55.79 39.06 49.87 71.74-7.25 39.92-28.75 63.96-45.04 88.72-18.42 25.64-43.2 62.66-51.2 80.49 0 0-25.22-38.35-58-83.46-21.92-30.16-39.47-62.84-41.1-90.98-1.87-32.15 11.34-60.96 47.88-65.95M412.31 324.4c29.75-1.97 45.3 23.45 48.3 43.49 1.82 3.18 2.78 2.28 3.5-.18 1.45-25.72 24.45-46.75 45.78-43.87 34.71.45 55.8 39.06 49.88 71.74-7.25 39.92-28.75 63.96-45.04 88.72-18.42 25.64-43.21 62.66-51.21 80.49 0 0-25.21-38.35-58-83.46-21.92-30.16-39.46-62.84-41.09-90.98-1.87-32.15 11.34-60.96 47.88-65.95M186.5 533.25c29.8-1.97 45.3 23.45 48.34 43.49 1.8 3.18 2.8 2.28 3.5-.18 1.46-25.72 24.46-46.75 45.8-43.87 34.7.45 55.78 39.06 49.87 71.74-7.25 39.93-28.75 63.96-45.04 88.72-18.42 25.64-43.21 62.67-51.21 80.49 0 0-25.21-38.35-58-83.46-21.92-30.16-39.46-62.84-41.13-90.98-1.83-32.15 11.34-60.96 47.88-65.95m456.41 0c29.75-1.97 45.3 23.45 48.3 43.49 1.83 3.18 2.79 2.28 3.5-.18 1.45-25.72 24.45-46.75 45.79-43.87 34.7.45 55.79 39.06 49.87 71.74-7.25 39.93-28.75 63.96-45.04 88.72-18.42 25.64-43.2 62.67-51.2 80.49 0 0-25.22-38.35-58-83.46-21.92-30.16-39.47-62.84-41.1-90.98-1.87-32.15 11.34-60.96 47.88-65.95m0 650.39c29.75 1.98 45.3-23.45 48.3-43.49 1.83-3.18 2.79-2.28 3.5.18 1.45 25.72 24.45 46.75 45.79 43.87 34.7-.45 55.79-39.06 49.87-71.74-7.25-39.92-28.75-63.97-45.04-88.72-18.42-25.64-43.2-62.67-51.2-80.5 0 0-25.22 38.36-58 83.47-21.92 30.16-39.47 62.84-41.1 90.98-1.87 32.15 11.34 60.96 47.88 65.95M412.31 978.22c29.75 1.98 45.3-23.45 48.3-43.48 1.82-3.18 2.78-2.29 3.5.17 1.45 25.73 24.45 46.76 45.78 43.88 34.71-.45 55.8-39.07 49.88-71.75-7.25-39.92-28.75-63.96-45.04-88.72-18.42-25.63-43.21-62.66-51.21-80.48 0 0-25.21 38.35-58 83.45-21.92 30.16-39.46 62.85-41.09 90.98-1.87 32.15 11.34 60.97 47.88 65.95m-225.8 205.42c29.8 1.98 45.3-23.45 48.34-43.49 1.8-3.18 2.8-2.28 3.5.18 1.46 25.72 24.46 46.75 45.8 43.87 34.7-.45 55.78-39.06 49.87-71.74-7.25-39.92-28.75-63.97-45.04-88.72-18.42-25.64-43.21-62.67-51.21-80.5 0 0-25.21 38.36-58 83.47-21.92 30.16-39.46 62.84-41.13 90.98-1.83 32.15 11.34 60.96 47.88 65.95"/></svg>