<svg xmlns="http://www.w3.org/2000/svg" fill-rule="evenodd" stroke-linejoin="round" stroke-miterlimit="2" clip-rule="evenodd" viewBox="0 0 934 1300"><path fill-rule="nonzero" d="M30.12 156.85c.67-18.23 7.38-25.08 20.6-34.61-10.54-7.49-15-18.5-14.09-27.87 2.17-22.7 20.05-34.05 39.52-33.56 19.48.5 36.27 15.68 37.58 32.18 1.14 14.35-3.21 21.26-13.57 28.81 12.3 10.17 20.17 16.87 19.87 34.84s-15.86 39.33-42.98 39.99c-27.12.65-47.6-21.54-46.93-39.78m75.72.06c1.16-16.5-13.7-27.65-30.47-27.8-16.35-.18-30.96 13.51-30.96 28.33 0 15.93 19 24.57 31.3 24.62 14.91.05 29.12-10.92 30.13-25.15m-5.36-59.06c.32-13.9-12.74-23.87-26.2-23.47-11.98.37-24.68 9.35-24.7 20.96 0 14.56 14.44 21.8 26.75 22.08 11.17.25 23.9-9.06 24.15-19.57m802.73 1045.3c-.66 18.23-7.37 25.08-20.6 34.62 10.54 7.48 15 18.49 14.1 27.86-2.18 22.7-20.04 34.05-39.52 33.56-19.48-.5-36.28-15.68-37.59-32.17-1.14-14.35 3.22-21.26 13.58-28.82-12.3-10.17-20.17-16.87-19.87-34.83s15.85-39.33 42.98-39.99 47.59 21.54 46.92 39.77m-75.71-.06c-1.17 16.51 13.7 27.65 30.47 27.82 16.34.17 30.95-13.53 30.95-28.35 0-15.92-19.01-24.57-31.3-24.62-14.9-.05-29.13 10.93-30.12 25.15m5.35 59.05c-.31 13.91 12.75 23.88 26.2 23.48 11.99-.36 24.68-9.34 24.68-20.97.03-14.54-14.42-21.8-26.73-22.07-11.16-.25-23.9 9.06-24.15 19.56m-612.63-919.1c.08-8.44-6.58-8.6-6.54-2.44-.54 30.95-26.7 46.19-45.75 42.58-29.3-5.58-38.67-34.68-38.38-51.82.88-52.9 54.13-91.9 102.17-159.72 35.2 61.2 93.33 109.28 96.75 156.6 4.58 62.91-75.04 86.38-86.42 13.05-.7-5.17-6.79-7.5-6.33-.27 1.7 20.1-.75 28.47 21.92 78h-59.25c13.12-23.14 20.96-51.56 21.83-75.98m464.75 0c.04-8.44-6.62-8.6-6.54-2.44-.58 30.95-26.75 46.19-45.75 42.58-29.33-5.58-38.7-34.68-38.42-51.82.88-52.9 54.13-91.9 102.17-159.72 35.2 61.2 93.33 109.28 96.75 156.6 4.58 62.91-75 86.38-86.38 13.05-.75-5.17-6.83-7.5-6.37-.27 1.75 20.1-.7 28.47 21.96 78h-59.25c13.08-23.14 20.91-51.56 21.83-75.98M454.35 491.89c.04-8.44-6.63-8.6-6.55-2.44-.58 30.95-26.75 46.2-45.75 42.58-29.33-5.58-38.66-34.68-38.41-51.82.87-52.9 54.12-91.9 102.16-159.72 35.21 61.2 93.34 109.29 96.8 156.6 4.54 62.91-75.05 86.37-86.42 13.05-.75-5.18-6.83-7.5-6.38-.27 1.75 20.1-.7 28.47 21.96 78h-59.25c13.13-23.14 20.92-51.56 21.84-75.98M220.22 700.74c.08-8.44-6.58-8.6-6.54-2.44-.54 30.95-26.7 46.2-45.75 42.58-29.3-5.58-38.67-34.68-38.38-51.82.88-52.9 54.13-91.9 102.17-159.72 35.2 61.2 93.33 109.29 96.75 156.6 4.58 62.91-75.04 86.38-86.42 13.06-.7-5.18-6.79-7.51-6.33-.27 1.7 20.09-.75 28.46 21.92 78h-59.25c13.12-23.15 20.96-51.57 21.83-75.99m464.75 0c.04-8.44-6.62-8.6-6.54-2.44-.58 30.95-26.75 46.2-45.75 42.58-29.33-5.58-38.7-34.68-38.42-51.82.88-52.9 54.13-91.9 102.17-159.72 35.2 61.2 93.33 109.29 96.75 156.6 4.58 62.91-75 86.38-86.38 13.06-.75-5.18-6.83-7.51-6.37-.27 1.75 20.09-.7 28.46 21.96 78h-59.25c13.08-23.15 20.91-51.57 21.83-75.99m.04 315.51c.04 8.44-6.62 8.6-6.54 2.44-.58-30.95-26.75-46.2-45.75-42.57-29.33 5.57-38.7 34.67-38.42 51.81.88 52.9 54.13 91.91 102.17 159.73 35.2-61.22 93.33-109.29 96.75-156.61 4.58-62.91-75-86.37-86.37-13.05-.75 5.18-6.84 7.5-6.38.27 1.75-20.1-.7-28.47 21.96-78h-59.25c13.12 23.15 20.92 51.56 21.83 75.98M454.4 810.84c.04 8.44-6.63 8.6-6.54 2.44-.59-30.95-26.75-46.2-45.75-42.58-29.34 5.57-38.67 34.68-38.42 51.81.87 52.9 54.12 91.92 102.17 159.73 35.2-61.2 93.33-109.29 96.79-156.6 4.54-62.91-75.04-86.38-86.42-13.06-.75 5.18-6.83 7.5-6.37.27 1.75-20.09-.71-28.46 21.95-78h-59.25c13.13 23.15 20.92 51.57 21.84 75.99m-234.13 205.41c.09 8.44-6.58 8.6-6.54 2.44-.54-30.95-26.7-46.2-45.75-42.58-29.3 5.58-38.67 34.68-38.37 51.82.87 52.9 54.12 91.91 102.16 159.73 35.21-61.22 93.34-109.29 96.75-156.61 4.59-62.91-75.04-86.37-86.37-13.05-.75 5.18-6.84 7.5-6.38.27 1.71-20.1-.7-28.47 21.92-78h-59.25c13.12 23.14 20.96 51.56 21.83 75.98m-144.37-716c.04-3.63-3.75-1.93-4.25-.79-4.84 8.28-11.92 10.2-18.96 7.22-6.92-2.96-10.83-9.5-10.2-18.84 1.28-14.33 12.66-30 18.16-38.86a290 290 0 0 0 16.96-29.81c7.08 14.01 10.66 18 18.37 30.8 6.75 11.27 16.2 22.3 16.92 35.92 0 10.35-4.34 20.13-14.13 21.92-5.58 1-10.75-1.84-14.62-8.5-1.17-1.68-3.54-.8-3.5 1.52.7 8.72 4 16.6 11.79 25.88h-28.7c5.9-6.57 11.87-15.43 12.16-26.45m781.56 699.48c-.05 3.64 3.75 1.94 4.25.8 4.83-8.28 11.91-10.2 18.95-7.22 6.92 2.96 10.84 9.5 10.21 18.84-1.29 14.33-12.66 30-18.16 38.86a290 290 0 0 0-16.96 29.81c-7.09-14.01-10.67-18-18.38-30.79-6.75-11.28-16.2-22.31-16.91-35.93 0-10.35 4.33-20.13 14.12-21.92 5.58-1 10.75 1.84 14.63 8.49 1.16 1.69 3.54.81 3.5-1.5-.71-8.73-4-16.6-11.8-25.9h28.71c-5.91 6.58-11.87 15.44-12.16 26.46"/></svg>