<svg xmlns="http://www.w3.org/2000/svg" fill-rule="evenodd" stroke-linejoin="round" stroke-miterlimit="2" clip-rule="evenodd" viewBox="0 0 934 1300"><path fill-rule="nonzero" d="m35.9 164.35 12.6-3.93c4.76 12.49 14.38 16.17 24.55 15.38 18.26-1.41 24.31-21.45 25.7-39.16-7.13 7.39-17.82 11.14-26.93 10.78-29.09-1.53-36.54-24.39-36.8-48.34-.82-20.2 7.69-34.82 22.28-41.52 7.71-3.4 25.39-3.4 33.17.63 17.83 9.23 24.44 25.2 23.24 63.3.02 31.35-6.77 67.86-41 68.64-19.76 2.68-34.8-12.42-36.81-25.78M85.42 130c5.93-3.68 9.28-7.15 11.96-12.34 2.18-4.25 2.92-6.47 2.3-15.3-1.61-22.72-13.76-35.6-31.36-33.05-9.82 1.43-15.17 6.83-18.26 16.88-5.7 18.52 1.52 40.23 15.03 45.23 6.1 2.25 15.48 1.6 20.33-1.42m808.96 1005.65-12.62 3.92c-4.76-12.48-14.37-16.16-24.54-15.37-18.26 1.42-24.32 21.45-25.7 39.17 7.12-7.4 17.82-11.15 26.92-10.79 29.1 1.54 36.54 24.4 36.81 48.34.8 20.2-7.7 34.82-22.29 41.52-7.71 3.4-25.39 3.4-33.15-.62-17.85-9.24-24.45-25.21-23.26-63.3-.01-31.35 6.78-67.86 41-68.64 19.78-2.69 34.8 12.41 36.83 25.77M844.84 1170c-5.94 3.68-9.28 7.15-11.94 12.34-2.19 4.26-2.93 6.47-2.3 15.29 1.6 22.73 13.74 35.62 31.35 33.06 9.82-1.43 15.18-6.83 18.26-16.87 5.69-18.54-1.53-40.24-15.04-45.24-6.1-2.25-15.48-1.6-20.33 1.42M647.6 630.91c11.96-24.07 20.71-48.75 22.25-75.15 1.46-9.72-4.45-9.88-5.33-3.04-17 64.97-107.37 47.37-104.25-13.74 2.5-49.56 51.75-60.22 77.42-44.02 10.12 5.98 9.58 2.4 4.04-3.8-38.17-42.54-15.04-97.34 36.5-98.34 55.75 3.3 70.2 61.96 36 96.45-4.25 4.15-13.67 17.46.54 8.15 34.5-24.53 82.42 1.85 81.46 39.67-1.8 69.75-86.83 74.95-105 16.7-1.75-6.46-6.8-9.7-5.42 1.26 2.54 19.86 7.75 49.81 22.67 75.86zM435.81 744.05c12-24.07 20.75-48.76 22.3-75.16 1.41-9.71-4.46-9.88-5.34-3.03-17 64.96-107.37 47.37-104.25-13.74 2.5-49.56 51.75-60.23 77.42-44.02 10.12 5.97 9.58 2.4 4.04-3.8-38.17-42.55-15.04-97.34 36.5-98.34 55.75 3.3 70.2 61.95 36 96.45-4.25 4.14-13.67 17.46.54 8.15 34.5-24.53 82.42 1.85 81.46 39.67-1.8 69.75-86.83 74.95-105 16.7-1.75-6.47-6.8-9.71-5.42 1.26 2.54 19.86 7.75 49.8 22.67 75.86zM224.52 630.9c12-24.07 20.75-48.75 22.3-75.15 1.4-9.72-4.47-9.88-5.38-3.04-16.96 64.97-107.34 47.37-104.21-13.74 2.5-49.56 51.7-60.22 77.42-44.02 10.12 5.98 9.54 2.4 4.04-3.8-38.17-42.54-15.04-97.34 36.5-98.34 55.75 3.3 70.2 61.96 36 96.45-4.25 4.15-13.67 17.46.5 8.15 34.54-24.53 82.46 1.85 81.5 39.67-1.84 69.75-86.84 74.95-105.04 16.7-1.75-6.46-6.8-9.7-5.38 1.26 2.5 19.86 7.75 49.81 22.67 75.86zM647.6 358.7c11.96-24.07 20.71-48.76 22.25-75.16 1.46-9.71-4.45-9.88-5.33-3.03-17 64.97-107.37 47.38-104.25-13.74 2.5-49.56 51.75-60.22 77.42-44.02 10.12 5.97 9.58 2.4 4.04-3.8-38.17-42.54-15.04-97.34 36.5-98.34 55.75 3.3 70.2 61.96 36 96.45-4.25 4.15-13.67 17.47.54 8.15 34.5-24.53 82.42 1.85 81.46 39.67-1.8 69.75-86.83 74.95-105 16.7-1.75-6.47-6.8-9.7-5.42 1.26 2.54 19.86 7.75 49.8 22.67 75.86zm-423.08 0c12-24.07 20.75-48.76 22.3-75.16 1.4-9.71-4.47-9.88-5.38-3.03-16.96 64.97-107.34 47.38-104.21-13.74 2.5-49.56 51.7-60.22 77.42-44.02 10.12 5.97 9.54 2.4 4.04-3.8-38.17-42.54-15.04-97.34 36.5-98.34 55.75 3.3 70.2 61.96 36 96.45-4.25 4.15-13.67 17.47.5 8.15 34.54-24.53 82.46 1.85 81.5 39.67-1.84 69.75-86.84 74.95-105.04 16.7-1.75-6.47-6.8-9.7-5.38 1.26 2.5 19.86 7.75 49.8 22.67 75.86zm61.25 584.13c-11.96 24.06-20.7 48.75-22.25 75.16-1.46 9.71 4.46 9.87 5.33 3.03 17-64.97 107.38-47.38 104.25 13.74-2.5 49.56-51.75 60.22-77.41 44.02-10.17-5.97-9.59-2.4-4.04 3.8 38.16 42.54 15.04 97.33-36.5 98.34-55.75-3.31-70.21-61.96-36-96.45 4.25-4.15 13.66-17.46-.55-8.15-34.5 24.53-82.41-1.85-81.45-39.67 1.79-69.75 86.83-74.95 105-16.69 1.75 6.45 6.79 9.7 5.41-1.27-2.54-19.86-7.75-49.8-22.66-75.86zm423.08 0c-12 24.06-20.75 48.75-22.29 75.16-1.41 9.71 4.46 9.87 5.38 3.03 16.96-64.97 107.33-47.38 104.2 13.74-2.5 49.56-51.7 60.22-77.41 44.02-10.13-5.97-9.54-2.4-4.04 3.8 38.16 42.54 15.04 97.33-36.5 98.34-55.75-3.31-70.21-61.96-36-96.45 4.25-4.15 13.66-17.46-.5-8.15-34.54 24.53-82.46-1.85-81.5-39.67 1.83-69.75 86.83-74.95 105.04-16.69 1.75 6.45 6.75 9.7 5.37-1.27-2.5-19.86-7.75-49.8-22.66-75.86zm0-271.27c-12 24.06-20.75 48.75-22.29 75.15-1.41 9.72 4.46 9.88 5.38 3.04 16.96-64.97 107.33-47.38 104.2 13.73-2.5 49.57-51.7 60.23-77.41 44.03-10.13-5.98-9.54-2.4-4.04 3.8 38.16 42.54 15.04 97.33-36.5 98.34-55.75-3.31-70.21-61.96-36-96.46 4.25-4.14 13.66-17.46-.5-8.15-34.54 24.54-82.46-1.84-81.5-39.67 1.83-69.74 86.83-74.94 105.04-16.69 1.75 6.46 6.75 9.7 5.37-1.27-2.5-19.85-7.75-49.8-22.66-75.85zm-423.08 0c-11.96 24.06-20.7 48.75-22.25 75.15-1.46 9.72 4.46 9.88 5.33 3.04 17-64.97 107.38-47.38 104.25 13.73-2.5 49.57-51.75 60.23-77.41 44.03-10.17-5.98-9.59-2.4-4.04 3.8 38.16 42.54 15.04 97.33-36.5 98.34-55.75-3.31-70.21-61.96-36-96.46 4.25-4.14 13.66-17.46-.55-8.15-34.5 24.54-82.41-1.84-81.45-39.67 1.79-69.74 86.83-74.94 105-16.69 1.75 6.46 6.79 9.7 5.41-1.27-2.54-19.85-7.75-49.8-22.66-75.85zM56.44 303.53c5-10.19 9.83-19.67 12.46-30.84 1.75-10.53-1.84-6.62-3.88.29-3 9.57-11.33 13.93-19.08 14.03-14.04.2-21.04-10.85-20.63-22.72-1.5-12.5 11.17-21.33 20.71-20.66 7.17.52 13.42 4.39 17.2 7.4 2.47 1.32 5.13 1.9 1.43-1.5-6.96-7.63-12.8-12.34-12.67-23.79.12-10.74 9.3-21.95 21.46-21.6 15.2.44 22.16 12.04 22.12 22.84a24.7 24.7 0 0 1-10.08 19.6c-3.92 3.19-2.83 5.58 1.67 2.55a23 23 0 0 1 14.79-5.45c14.54-.23 20.2 12.34 19.37 24.02-.75 10.93-10.08 22.2-22.37 20.92-10.96-1.26-16.71-10.46-20-19.9-1.09-2.9-2.84-3.68-2.8.64 2.55 21.07 10.38 34.18 10.46 34.17zM876.9 989.67c-5 10.19-9.8 19.67-12.46 30.84-1.75 10.53 1.83 6.61 3.87-.29 3-9.57 11.34-13.93 19.09-14.04 14.04-.19 21.04 10.85 20.62 22.73 1.5 12.49-11.12 21.33-20.7 20.65-7.17-.51-13.42-4.38-17.22-7.4-2.45-1.31-5.12-1.89-1.41 1.5 6.96 7.63 12.79 12.35 12.66 23.79-.12 10.75-9.29 21.95-21.45 21.6-15.21-.44-22.17-12.04-22.13-22.84.04-7.86 4-15.1 10.08-19.59 3.92-3.19 2.84-5.58-1.66-2.56a23 23 0 0 1-14.8 5.46c-14.54.23-20.2-12.34-19.37-24.02.75-10.94 10.08-22.2 22.38-20.93 10.95 1.26 16.7 10.46 20 19.91 1.08 2.89 2.83 3.68 2.79-.64-2.54-21.07-10.38-34.18-10.46-34.17z"/></svg>