<svg xmlns="http://www.w3.org/2000/svg" fill-rule="evenodd" stroke-linejoin="round" stroke-miterlimit="2" clip-rule="evenodd" viewBox="0 0 934 1300"><path fill="#d40000" fill-rule="nonzero" d="M137.75 240.63c41.34-40.33 68.48-84.32 94.45-126.62 22.77 46.55 55.44 87.27 90.77 126.62-37.8 39.04-67.1 80.79-90.66 124.67-26.12-44.99-53.61-85.72-94.56-124.67m0 272.21c41.34-40.33 68.48-84.32 94.45-126.62 22.77 46.55 55.44 87.27 90.77 126.62-37.8 39.04-67.1 80.79-90.66 124.66-26.12-44.98-53.61-85.7-94.56-124.66m0 278.74c41.34-40.34 68.48-84.32 94.45-126.62 22.77 46.54 55.44 87.26 90.77 126.62-37.8 39.04-67.1 80.78-90.66 124.66-26.12-44.98-53.61-85.72-94.56-124.66m0 271.28c41.34-40.34 68.48-84.33 94.45-126.62 22.77 46.54 55.44 87.26 90.77 126.62-37.8 39.03-67.1 80.77-90.66 124.65-26.12-44.98-53.61-85.71-94.56-124.65m235.18-411.94c41.35-40.35 68.5-84.33 94.45-126.63 22.77 46.54 55.44 87.26 90.78 126.63-37.8 39.03-67.11 80.77-90.67 124.65-26.12-44.98-53.6-85.7-94.56-124.65m229.54-410.29c41.33-40.33 68.49-84.32 94.44-126.62 22.77 46.55 55.45 87.27 90.78 126.62-37.8 39.04-67.1 80.79-90.67 124.67-26.1-44.99-53.6-85.72-94.55-124.67m0 272.21c41.33-40.33 68.49-84.32 94.44-126.62 22.77 46.55 55.45 87.27 90.79 126.62-37.81 39.04-67.12 80.79-90.67 124.66-26.11-44.98-53.6-85.7-94.56-124.66m0 278.74c41.33-40.34 68.49-84.32 94.44-126.62 22.77 46.54 55.45 87.26 90.79 126.62-37.81 39.04-67.12 80.78-90.67 124.66-26.11-44.98-53.6-85.72-94.56-124.66m0 271.28c41.33-40.34 68.49-84.33 94.44-126.62 22.77 46.54 55.45 87.26 90.79 126.62-37.81 39.03-67.12 80.77-90.67 124.65-26.11-44.98-53.6-85.71-94.56-124.65m219.82-34.22c16.94-16.52 28.06-34.54 38.7-51.87 9.32 19.07 22.7 35.75 37.18 51.87a227 227 0 0 0-37.14 51.07c-10.7-18.43-21.95-35.12-38.74-51.07M35.57 254.23c16.93-16.52 28.05-34.53 38.68-51.87 9.34 19.07 22.72 35.75 37.2 51.87-15.5 16-27.5 33.1-37.15 51.07-10.7-18.43-21.96-35.11-38.73-51.07m.52-89.88 12.61-3.93c4.76 12.49 14.38 16.17 24.55 15.38 18.25-1.41 24.31-21.45 25.69-39.16-7.12 7.39-17.81 11.14-26.92 10.78-29.09-1.53-36.54-24.39-36.8-48.34-.82-20.2 7.69-34.82 22.27-41.52 7.72-3.4 25.4-3.4 33.17.63 17.84 9.23 24.45 25.2 23.25 63.3.02 31.35-6.78 67.86-41 68.64-19.77 2.68-34.8-12.42-36.82-25.78M85.62 130c5.93-3.68 9.28-7.15 11.95-12.34 2.19-4.25 2.93-6.47 2.3-15.3-1.6-22.72-13.75-35.6-31.35-33.05-9.82 1.43-15.18 6.83-18.26 16.88-5.7 18.52 1.51 40.23 15.02 45.23 6.1 2.25 15.48 1.6 20.34-1.42m808.95 1005.65-12.62 3.92c-4.75-12.48-14.36-16.16-24.53-15.37-18.27 1.42-24.33 21.45-25.7 39.17 7.12-7.4 17.82-11.15 26.91-10.79 29.1 1.54 36.54 24.4 36.82 48.34.8 20.2-7.7 34.82-22.3 41.52-7.7 3.4-25.38 3.4-33.15-.62-17.85-9.24-24.45-25.21-23.25-63.3-.02-31.35 6.77-67.86 41-68.64 19.77-2.69 34.79 12.41 36.82 25.77M845.03 1170c-5.93 3.68-9.28 7.15-11.94 12.34-2.18 4.26-2.92 6.47-2.3 15.29 1.6 22.73 13.74 35.62 31.36 33.06 9.82-1.43 15.17-6.83 18.26-16.87 5.68-18.54-1.53-40.24-15.04-45.24-6.1-2.25-15.48-1.6-20.34 1.42"/></svg>