<svg xmlns="http://www.w3.org/2000/svg" fill-rule="evenodd" stroke-linejoin="round" stroke-miterlimit="2" clip-rule="evenodd" viewBox="0 0 934 1300"><path fill="#d40000" fill-rule="nonzero" d="m35.9 164.35 12.6-3.93c4.75 12.49 14.38 16.17 24.55 15.38 18.25-1.41 24.3-21.45 25.69-39.16-7.13 7.39-17.81 11.14-26.92 10.78-29.1-1.53-36.54-24.39-36.8-48.34-.82-20.2 7.68-34.82 22.27-41.52 7.72-3.4 25.4-3.4 33.17.63 17.84 9.23 24.45 25.2 23.24 63.3.03 31.35-6.77 67.86-41 68.64-19.76 2.68-34.79-12.42-36.8-25.78M85.41 130c5.93-3.68 9.28-7.15 11.95-12.34 2.18-4.25 2.92-6.47 2.3-15.3-1.6-22.72-13.75-35.6-31.35-33.05-9.82 1.43-15.18 6.83-18.27 16.88-5.7 18.52 1.52 40.23 15.03 45.23 6.1 2.25 15.48 1.6 20.34-1.42m808.95 1005.65-12.62 3.92c-4.75-12.48-14.36-16.16-24.54-15.37-18.26 1.42-24.32 21.45-25.69 39.17 7.12-7.4 17.82-11.15 26.91-10.79 29.1 1.54 36.54 24.4 36.82 48.34.8 20.2-7.7 34.82-22.3 41.52-7.7 3.4-25.38 3.4-33.15-.62-17.85-9.24-24.45-25.21-23.25-63.3-.02-31.35 6.77-67.86 40.99-68.64 19.78-2.69 34.8 12.41 36.83 25.77M844.83 1170c-5.93 3.68-9.28 7.15-11.94 12.34-2.18 4.26-2.92 6.47-2.3 15.29 1.6 22.73 13.74 35.62 31.35 33.06 9.82-1.43 15.18-6.83 18.27-16.87 5.68-18.54-1.53-40.24-15.04-45.24-6.1-2.25-15.48-1.6-20.34 1.42M37.18 243.42c-6.62-14.47-7.33-39.2 12.38-42.53 14.83-1.92 20.87 4.99 22.08 15.59.58 3.1 2.33 3.28 2.88-.25.87-10.87 11.62-17.22 20.04-15.62 23 3.94 21.66 29.28 14.16 46.48-11.37 22.83-23.33 37.24-34.37 60.22-12.67-23.93-27.13-43.36-37.17-63.9m151.09-123.53c29.79-1.98 45.29 23.45 48.33 43.48 1.79 3.19 2.79 2.29 3.5-.18 1.46-25.72 24.46-46.75 45.79-43.87 34.7.45 55.8 39.07 49.88 71.75-7.25 39.92-28.75 63.96-45.05 88.72-18.41 25.63-43.2 62.66-51.2 80.48 0 0-25.21-38.35-58-83.45-21.92-30.16-39.46-62.85-41.13-90.98-1.83-32.15 11.33-60.97 47.88-65.95m456.41 0c29.75-1.98 45.3 23.45 48.3 43.48 1.79 3.19 2.79 2.29 3.5-.17 1.45-25.73 24.45-46.75 45.79-43.88 34.7.45 55.79 39.07 49.87 71.75-7.25 39.92-28.75 63.96-45.04 88.72-18.42 25.63-43.21 62.66-51.21 80.48 0 0-25.2-38.35-58-83.45-21.92-30.16-39.46-62.85-41.08-90.98-1.88-32.15 11.33-60.97 47.87-65.95m0 272.2c29.75-1.97 45.3 23.46 48.3 43.5 1.79 3.18 2.79 2.28 3.5-.18 1.45-25.73 24.45-46.75 45.79-43.88 34.7.45 55.79 39.07 49.87 71.75-7.25 39.92-28.75 63.96-45.04 88.72-18.42 25.63-43.21 62.66-51.21 80.49 0 0-25.2-38.36-58-83.46-21.92-30.16-39.46-62.84-41.08-90.98-1.88-32.15 11.33-60.97 47.87-65.95M416.27 530.23c29.75-1.98 45.29 23.44 48.29 43.48 1.83 3.18 2.79 2.29 3.5-.18 1.46-25.72 24.46-46.74 45.79-43.87 34.7.45 55.79 39.06 49.87 71.74-7.25 39.93-28.75 63.96-45.04 88.72-18.41 25.64-43.2 62.67-51.2 80.49 0 0-25.21-38.35-58-83.45-21.92-30.17-39.46-62.85-41.09-90.99-1.87-32.14 11.33-60.96 47.88-65.94m-228-138.14c29.79-1.98 45.29 23.44 48.33 43.48 1.79 3.19 2.79 2.29 3.5-.17 1.46-25.73 24.46-46.75 45.79-43.88 34.7.45 55.8 39.06 49.88 71.75-7.25 39.92-28.75 63.96-45.05 88.72-18.41 25.63-43.2 62.66-51.2 80.49 0 0-25.21-38.36-58-83.46-21.92-30.16-39.46-62.84-41.13-90.98-1.83-32.15 11.33-60.97 47.88-65.95m456.41 518.3c29.75 1.97 45.3-23.46 48.3-43.5 1.79-3.18 2.79-2.28 3.5.18 1.45 25.73 24.45 46.75 45.79 43.88 34.7-.45 55.79-39.07 49.87-71.75-7.25-39.92-28.75-63.96-45.04-88.72-18.42-25.63-43.21-62.66-51.21-80.49 0 0-25.2 38.36-58 83.46-21.92 30.16-39.46 62.84-41.08 90.98-1.88 32.15 11.33 60.97 47.87 65.95m0 271.28c29.75 1.97 45.3-23.45 48.3-43.49 1.79-3.18 2.79-2.29 3.5.17 1.45 25.73 24.45 46.76 45.79 43.88 34.7-.45 55.79-39.06 49.87-71.74-7.25-39.93-28.75-63.97-45.04-88.72-18.42-25.64-43.21-62.67-51.21-80.5 0 0-25.2 38.36-58 83.46-21.92 30.16-39.46 62.85-41.08 90.99-1.88 32.14 11.33 60.96 47.87 65.94zm-456.41 0c29.79 1.97 45.29-23.45 48.33-43.49 1.79-3.18 2.79-2.29 3.5.17 1.46 25.73 24.46 46.76 45.79 43.88 34.7-.45 55.8-39.06 49.88-71.74-7.25-39.93-28.75-63.97-45.05-88.72-18.41-25.64-43.2-62.67-51.2-80.5 0 0-25.21 38.36-58 83.46-21.92 30.16-39.46 62.85-41.13 90.99-1.83 32.14 11.33 60.96 47.88 65.94zm0-271.28c29.79 1.98 45.29-23.44 48.33-43.48 1.79-3.19 2.79-2.29 3.5.17 1.46 25.73 24.46 46.75 45.79 43.88 34.7-.45 55.8-39.06 49.88-71.75-7.25-39.92-28.75-63.96-45.05-88.72-18.41-25.63-43.2-62.66-51.2-80.49 0 0-25.21 38.36-58 83.46-21.92 30.16-39.46 62.84-41.13 90.98-1.83 32.15 11.33 60.97 47.88 65.95m635.62 128.28c-6.58 14.47-7.33 39.19 12.37 42.53 14.84 1.91 20.88-4.99 22.09-15.59.58-3.09 2.33-3.29 2.91.24.84 10.87 11.59 17.22 20 15.63 23.05-3.94 21.71-29.29 14.17-46.48-11.37-22.83-23.33-37.24-34.33-60.22-12.67 23.92-27.13 43.36-37.21 63.89"/></svg>