<svg xmlns="http://www.w3.org/2000/svg" fill-rule="evenodd" stroke-linejoin="round" stroke-miterlimit="2" clip-rule="evenodd" viewBox="0 0 934 1300"><path fill-rule="nonzero" d="m37.43 164.35 12.6-3.93c4.76 12.49 14.38 16.17 24.55 15.38 18.26-1.41 24.32-21.45 25.7-39.16-7.13 7.39-17.82 11.14-26.92 10.78-29.1-1.53-36.55-24.39-36.81-48.34-.81-20.2 7.69-34.82 22.28-41.52 7.71-3.4 25.39-3.4 33.17.63 17.83 9.23 24.45 25.2 23.24 63.3.03 31.35-6.77 67.86-41 68.64-19.76 2.68-34.8-12.42-36.81-25.78M86.95 130c5.94-3.68 9.29-7.15 11.96-12.34 2.18-4.25 2.92-6.47 2.3-15.3-1.61-22.72-13.75-35.6-31.35-33.05-9.83 1.43-15.18 6.83-18.27 16.88-5.7 18.52 1.52 40.23 15.03 45.23 6.1 2.25 15.48 1.6 20.33-1.42m808.96 1005.65-12.62 3.92c-4.76-12.48-14.37-16.16-24.54-15.37-18.26 1.42-24.32 21.45-25.69 39.17 7.11-7.4 17.81-11.15 26.9-10.79 29.11 1.54 36.55 24.4 36.82 48.34.8 20.2-7.7 34.82-22.29 41.52-7.71 3.4-25.39 3.4-33.15-.62-17.85-9.24-24.45-25.21-23.26-63.3-.01-31.35 6.78-67.86 41-68.64 19.78-2.69 34.8 12.41 36.83 25.77M846.37 1170c-5.93 3.68-9.28 7.15-11.94 12.34-2.18 4.26-2.93 6.47-2.3 15.29 1.6 22.73 13.74 35.62 31.35 33.06 9.82-1.43 15.18-6.83 18.26-16.87 5.69-18.54-1.53-40.24-15.04-45.24-6.1-2.25-15.48-1.6-20.33 1.42M222.76 287.36c.08-8.43-6.58-8.6-6.54-2.44-.54 30.96-26.71 46.2-45.75 42.58-29.3-5.57-38.67-34.67-38.38-51.81.88-52.9 54.13-91.91 102.17-159.73 35.2 61.21 93.33 109.3 96.75 156.6 4.58 62.92-75.04 86.38-86.42 13.06-.7-5.18-6.79-7.5-6.33-.27 1.7 20.1-.75 28.46 21.92 78h-59.25c13.12-23.15 20.96-51.56 21.83-75.99m464.75 0c.04-8.43-6.62-8.6-6.54-2.44-.59 30.96-26.75 46.2-45.75 42.58-29.34-5.57-38.71-34.67-38.42-51.81.88-52.9 54.13-91.91 102.17-159.73 35.2 61.21 93.33 109.3 96.79 156.6 4.54 62.92-75.04 86.38-86.42 13.06-.75-5.18-6.83-7.5-6.37-.27 1.75 20.1-.71 28.46 21.96 78h-59.25c13.08-23.15 20.91-51.56 21.83-75.99m0 272.22c.04-8.44-6.63-8.6-6.54-2.44-.59 30.95-26.75 46.2-45.75 42.57-29.34-5.57-38.71-34.67-38.42-51.81.88-52.9 54.13-91.91 102.17-159.73 35.2 61.21 93.33 109.29 96.79 156.61 4.54 62.9-75.04 86.37-86.42 13.05-.75-5.18-6.83-7.5-6.37-.27 1.75 20.1-.71 28.47 21.96 78h-59.25c13.08-23.15 20.91-51.56 21.83-75.98m-464.75 0c.08-8.45-6.58-8.6-6.54-2.45-.54 30.96-26.71 46.2-45.75 42.58-29.3-5.57-38.67-34.67-38.38-51.81.88-52.9 54.13-91.91 102.17-159.73 35.2 61.21 93.33 109.29 96.75 156.61 4.58 62.9-75.04 86.37-86.42 13.05-.7-5.18-6.79-7.5-6.33-.27 1.7 20.1-.75 28.47 21.92 78h-59.25c13.12-23.15 20.95-51.56 21.83-75.98m464.8 454.69c.03 8.44-6.63 8.6-6.55 2.44-.58-30.95-26.75-46.2-45.75-42.58-29.33 5.58-38.7 34.68-38.42 51.82.88 52.9 54.13 91.91 102.17 159.72 35.2-61.21 93.33-109.29 96.8-156.6 4.53-62.91-75.05-86.38-86.43-13.06-.75 5.18-6.83 7.51-6.37.27 1.75-20.1-.7-28.46 21.96-78h-59.25c13.12 23.16 20.91 51.57 21.83 75.99m0-271.27c.04 8.44-6.62 8.6-6.54 2.44-.58-30.95-26.75-46.2-45.75-42.58-29.33 5.58-38.7 34.68-38.42 51.82.88 52.9 54.13 91.9 102.17 159.72 35.2-61.21 93.33-109.29 96.8-156.6 4.53-62.91-75.05-86.38-86.43-13.06-.75 5.18-6.83 7.5-6.37.27 1.75-20.1-.7-28.46 21.96-78h-59.25c13.12 23.15 20.91 51.57 21.83 75.99M458.01 602.33c.04 8.44-6.62 8.6-6.54 2.44-.59-30.95-26.75-46.19-45.75-42.58-29.34 5.58-38.67 34.68-38.42 51.82.88 52.9 54.13 91.9 102.17 159.73 35.2-61.21 93.33-109.3 96.79-156.6 4.58-62.92-75.04-86.38-86.42-13.06-.75 5.18-6.83 7.5-6.37.27 1.75-20.1-.71-28.47 21.96-78h-59.25c13.12 23.14 20.91 51.56 21.83 75.98M222.81 743c.07 8.44-6.6 8.6-6.55 2.44-.54-30.95-26.7-46.2-45.75-42.58-29.3 5.58-38.67 34.68-38.37 51.82.87 52.9 54.12 91.9 102.16 159.72 35.21-61.21 93.33-109.29 96.75-156.6 4.59-62.91-75.04-86.38-86.37-13.06-.75 5.18-6.84 7.5-6.38.27 1.71-20.1-.7-28.46 21.92-78h-59.25c13.12 23.15 20.96 51.57 21.83 75.99m0 271.27c.09 8.44-6.58 8.6-6.54 2.44-.54-30.95-26.7-46.2-45.75-42.58-29.3 5.58-38.67 34.68-38.37 51.82.87 52.9 54.12 91.91 102.16 159.72 35.21-61.21 93.34-109.29 96.75-156.6 4.59-62.91-75.04-86.38-86.37-13.06-.75 5.18-6.84 7.51-6.38.27 1.71-20.1-.7-28.46 21.92-78h-59.25c13.12 23.16 20.96 51.57 21.83 75.99M73.05 281.15c.04-3.63-3.75-1.94-4.25-.8-4.83 8.28-11.91 10.2-18.96 7.22-6.91-2.95-10.83-9.5-10.2-18.84 1.29-14.32 12.66-30 18.16-38.86a291 291 0 0 0 16.96-29.8c7.08 14 10.67 18 18.38 30.79 6.75 11.27 16.2 22.3 16.91 35.93 0 10.35-4.33 20.13-14.12 21.91-5.59 1.01-10.75-1.84-14.63-8.49-1.16-1.7-3.54-.8-3.5 1.51.71 8.72 4 16.6 11.8 25.89H60.92c5.87-6.57 11.83-15.44 12.12-26.46m786.75 719.77c.04 3.64-3.75 1.94-4.25.79-4.87-8.27-11.96-10.2-18.96-7.2-6.95 2.95-10.83 9.49-10.2 18.83 1.29 14.33 12.62 30 18.12 38.86a290 290 0 0 1 17 29.81c7.04-14.01 10.67-18 18.33-30.8 6.8-11.27 16.25-22.3 16.96-35.93 0-10.35-4.37-20.13-14.16-21.9-5.55-1.02-10.75 1.83-14.59 8.48-1.16 1.69-3.54.81-3.5-1.51.67-8.72 3.96-16.6 11.8-25.88h-28.71c5.87 6.57 11.87 15.43 12.16 26.45"/></svg>