<svg xmlns="http://www.w3.org/2000/svg" fill-rule="evenodd" stroke-linejoin="round" stroke-miterlimit="2" clip-rule="evenodd" viewBox="0 0 934 1300"><path fill-rule="nonzero" d="M33.11 191.9v-11.4H44.2L67.8 58.53h13.42l26.01 121.97h8.95v11.4H85.7v-11.4h8.22l-3.27-18.7H59.88l-2.38 18.7h8.24v11.4zm54.9-43.4L74.65 83.2l-12.53 65.3zm814.92 958.73v11.4h-11.09l-23.6 121.97h-13.43l-26-121.97h-8.96v-11.4h30.5v11.4h-8.25l3.29 18.7h30.77l2.37-18.7h-8.23v-11.4zm-54.9 43.4 13.37 65.3 12.51-65.3zM437.37 768.59c12-24.06 20.75-48.75 22.3-75.15 1.41-9.72-4.46-9.88-5.38-3.04-16.96 64.97-107.33 47.38-104.25-13.73 2.54-49.57 51.75-60.23 77.46-44.02 10.12 5.97 9.54 2.39 4-3.8-38.13-42.55-15.04-97.34 36.54-98.35 55.75 3.31 70.2 61.96 36 96.46-4.25 4.14-13.67 17.46.5 8.15 34.54-24.54 82.46 1.84 81.46 39.67-1.8 69.74-86.8 74.94-105 16.69-1.75-6.46-6.8-9.7-5.38 1.27 2.5 19.85 7.71 49.8 22.63 75.85zM56.75 313.2c4.96-10.18 9.8-19.66 12.43-30.83 1.75-10.53-1.83-6.62-3.85.28-3 9.58-11.35 13.94-19.09 14.04-14.04.2-21.05-10.85-20.61-22.72-1.54-12.5 11.12-21.34 20.67-20.66 7.18.51 13.43 4.39 17.22 7.4 2.48 1.31 5.14 1.9 1.44-1.5-7-7.63-12.82-12.34-12.7-23.79.13-10.74 9.31-21.95 21.49-21.6 15.21.44 22.13 12.05 22.1 22.84a24.7 24.7 0 0 1-10.05 19.6c-3.94 3.19-2.83 5.58 1.65 2.56a22.8 22.8 0 0 1 14.78-5.46c14.53-.23 20.24 12.34 19.4 24.01-.79 10.94-10.1 22.2-22.38 20.93-10.96-1.25-16.72-10.46-20.02-19.9-1.1-2.9-2.82-3.68-2.77.63 2.53 21.08 10.38 34.2 10.44 34.18zm818.63 674.3c-5 10.19-9.83 19.67-12.45 30.84-1.75 10.53 1.83 6.62 3.87-.29 3-9.57 11.33-13.93 19.08-14.03 14.05-.19 21.05 10.85 20.63 22.72 1.5 12.5-11.17 21.34-20.7 20.65-7.18-.51-13.43-4.38-17.22-7.39-2.5-1.31-5.12-1.9-1.41 1.5 6.95 7.63 12.79 12.35 12.66 23.79-.12 10.74-9.29 21.95-21.46 21.6-15.25-.44-22.16-12.04-22.12-22.84.04-7.87 4-15.11 10.04-19.59 3.96-3.19 2.83-5.59-1.62-2.57a23 23 0 0 1-14.8 5.46c-14.54.23-20.2-12.33-19.37-24.01.75-10.95 10.08-22.21 22.37-20.93 10.96 1.26 16.71 10.46 20 19.9 1.09 2.9 2.84 3.68 2.75-.64-2.5-21.07-10.37-34.18-10.41-34.17z"/></svg>