<svg xmlns="http://www.w3.org/2000/svg" fill-rule="evenodd" stroke-linejoin="round" stroke-miterlimit="2" clip-rule="evenodd" viewBox="0 0 934 1300"><path fill="#d40000" fill-rule="nonzero" d="M373.45 650.55c41.33-40.34 68.48-84.32 94.45-126.62 22.76 46.54 55.44 87.26 90.78 126.62-37.81 39.04-67.11 80.77-90.67 124.65-26.12-44.98-53.6-85.71-94.56-124.65m445.77 387.51c16.94-16.52 28.06-34.55 38.69-51.87 9.33 19.06 22.72 35.73 37.2 51.87a227 227 0 0 0-37.15 51.06c-10.7-18.42-21.95-35.12-38.74-51.06M34.3 264.36c16.94-16.53 28.06-34.54 38.7-51.87 9.32 19.07 22.7 35.74 37.18 51.87a227 227 0 0 0-37.14 51.06c-10.69-18.43-21.95-35.11-38.74-51.05m-2.54-72.03v-11.4h11.09l23.6-121.97h13.41l26.02 121.96h8.95v11.4H84.34v-11.4h8.23l-3.27-18.69H58.53l-2.39 18.7h8.24v11.4zm54.9-43.4L73.3 83.63l-12.53 65.3zm814.92 958.72v11.41h-11.1l-23.59 121.97h-13.43l-26-121.97h-8.97v-11.41H849v11.41h-8.24l3.29 18.69h30.77l2.37-18.69h-8.23v-11.41zm-54.91 43.41 13.37 65.29 12.52-65.29z"/></svg>