<svg xmlns="http://www.w3.org/2000/svg" fill-rule="evenodd" stroke-linejoin="round" stroke-miterlimit="2" clip-rule="evenodd" viewBox="0 0 934 1300"><path fill="#d40000" fill-rule="nonzero" d="M31.76 192.34v-11.4h11.09l23.6-121.97h13.41l26.02 121.96h8.95v11.4H84.34v-11.4h8.23l-3.27-18.69H58.53l-2.39 18.7h8.24v11.4zm54.9-43.4L73.3 83.63l-12.53 65.3zm814.92 958.72v11.41h-11.1l-23.59 121.97h-13.43l-26-121.97h-8.97v-11.41H849v11.41h-8.24l3.29 18.69h30.77l2.37-18.69h-8.23v-11.41zm-54.91 43.41 13.37 65.29 12.52-65.29zM36.14 253.52c-6.63-14.47-7.34-39.19 12.37-42.53 14.83-1.91 20.87 4.99 22.08 15.59.59 3.1 2.34 3.28 2.88-.24.87-10.88 11.62-17.23 20.04-15.63 23 3.94 21.67 29.28 14.17 46.48-11.38 22.83-23.34 37.24-34.38 60.22-12.67-23.93-27.08-43.36-37.17-63.9m380.34 276.7c29.75-1.98 45.29 23.44 48.33 43.48 1.8 3.18 2.8 2.29 3.46-.18 1.46-25.72 24.5-46.75 45.83-43.87 34.67.45 55.75 39.06 49.84 71.74-7.25 39.93-28.75 63.96-45.04 88.72-18.42 25.64-43.21 62.67-51.21 80.49 0 0-25.21-38.35-57.96-83.46-21.96-30.16-39.5-62.84-41.13-90.98-1.87-32.14 11.34-60.96 47.88-65.94m404.58 517.84c-6.62 14.46-7.33 39.19 12.38 42.53 14.83 1.91 20.87-4.99 22.08-15.59.58-3.1 2.33-3.28 2.88.25.87 10.87 11.62 17.21 20.04 15.62 23.04-3.94 21.66-29.29 14.16-46.48-11.37-22.83-23.33-37.25-34.37-60.22-12.67 23.92-27.13 43.35-37.17 63.89"/></svg>