<svg xmlns="http://www.w3.org/2000/svg" fill-rule="evenodd" stroke-linejoin="round" stroke-miterlimit="2" clip-rule="evenodd" viewBox="0 0 934 1300"><path fill-rule="nonzero" d="M31.16 192.34v-11.4h11.09L65.84 58.96h13.42l26.02 121.96h8.94v11.4H83.74v-11.4h8.23l-3.27-18.69H57.92l-2.38 18.7h8.24v11.4zm54.9-43.4L72.7 83.63l-12.53 65.3zm814.91 958.72v11.41H889.9l-23.6 121.97h-13.44l-26-121.97h-8.96v-11.41h30.5v11.41h-8.24l3.28 18.69h30.77l2.37-18.69h-8.22v-11.41zm-54.9 43.41 13.37 65.29 12.52-65.29zM460.7 697.26c.04-8.45-6.63-8.6-6.54-2.45-.59 30.96-26.75 46.2-45.75 42.58-29.34-5.57-38.67-34.67-38.42-51.8.88-52.91 54.13-91.92 102.17-159.74 35.2 61.21 93.33 109.3 96.79 156.61 4.54 62.9-75.04 86.38-86.42 13.05-.75-5.17-6.83-7.5-6.37-.27 1.75 20.1-.71 28.47 21.96 78h-59.25c13.12-23.15 20.91-51.56 21.83-75.98m-386.69-406c.04-3.64-3.73-1.94-4.24-.8-4.85 8.27-11.94 10.2-18.95 7.21-6.95-2.95-10.85-9.5-10.23-18.84 1.3-14.32 12.65-30 18.15-38.86a288 288 0 0 0 16.99-29.8c7.07 14 10.65 18 18.35 30.8 6.78 11.26 16.22 22.3 16.95 35.92 0 10.35-4.36 20.13-14.17 21.91-5.54 1.01-10.74-1.84-14.6-8.49-1.17-1.69-3.53-.8-3.5 1.51.7 8.72 3.99 16.6 11.8 25.89h-28.7c5.88-6.57 11.87-15.44 12.15-26.46m784.9 719.07c.04 3.62-3.71 1.93-4.21.79-4.88-8.27-11.96-10.2-18.96-7.22-6.96 2.96-10.83 9.5-10.25 18.85 1.3 14.32 12.67 29.99 18.17 38.85 5.2 8.05 10.96 17.6 17 29.81 7.04-14.01 10.62-18 18.33-30.8 6.8-11.26 16.2-22.3 16.96-35.92 0-10.36-4.38-20.14-14.17-21.92-5.54-1-10.75 1.84-14.58 8.49-1.21 1.69-3.54.81-3.5-1.51.66-8.72 3.96-16.6 11.79-25.88h-28.7c5.87 6.57 11.87 15.43 12.12 26.46"/></svg>