<svg xmlns="http://www.w3.org/2000/svg" fill-rule="evenodd" stroke-linejoin="round" stroke-miterlimit="2" clip-rule="evenodd" viewBox="0 0 934 1300"><g fill-rule="nonzero"><path fill="#e2cf00" d="M258.66 1174.5c-3.57 5.1-19.02-30.45-28.94-57.4-4.88-13.25-11.4-24.16-8.7-27.64 7.07-7.14 25.36-.75 38.67 9.45 14.21 10.91 24.25 26.95 24.25 26.95zm-124.7-26.36-.44-19.84c12.25-11.01 29.73-26.93 47.53-47.48l-46.19.29-3.63-17.25-.48-753.83s50.63 52.4 51.94 52.43c.75 0 .08 312.97.36 522.25.42.99-26.68.37-28.46 14.07-1.18 9.04 29.4 7.8 29.88 8.4-.06 94.07-1.37 161.61-.7 161.61 23.2 0 28.08.91 28.08.91-26.2 27.06-53.4 49.19-77.9 78.44m165.03-96.85c-4.08-8.12-10.59-39.33-15.56-38.58-22.84 7.56-30.2-26.1-6.57-27.84 8.95-.65 18.95 11 24.55 25.48 2.7 7.59-.08 43.98-2.42 40.94m5.14-46.81c-6.73-11-13.18-51.13-25.45-48.85-11.21 2.54-18.38-7.26-17.29-15.85 5.75-24.13 46.81-1.2 57.59 4.35-5.34 12.12-12.9 42.32-14.85 60.35M218 894.37c-2.93-1.2 4.57-13.32 4.64-27.27.1-15.82-7.12-33.28-6.27-35.82 26.88-21.06 63.41-43.75 70.06-31.69 6.83 51.32 3.3 79.85-4.37 118.16l-5.06 2.64s-8.5-1.6-14.8-4.84l-33.09-16.63zm432.24-387.35c-4.98-39.53-1.37-101.04 5.7-125.38 2.7-8.24 53.88 25.84 57.96 28.38 3.83 2.38 5.68 2.02 3.36 12.42-2.67 12-2.26 26.13 1.53 42.22 1.41 6 2.51 8.34-1.26 10.97-3.92 2.74-66 35.38-67.3 31.39m-24.27-164.06c1.06-2.54 5.28-32.13 6.6-32.24 4.28-.37 10.56 28.98 21.5 38.66 20.64-2.38 23.06 11.59 19.03 18.34.99 2.97-6.67 9.4-13.83 8.79-17.8-6.94-41.8-13.09-33.3-33.55m-276.08-24.1c-5.82-4.1 5.22-33.59 36.65-26.82 13.52-25.45 14.26-82.83 20.8-86.38 9.83-3.64 110.1-31.46 107.12-7.2-3.2 26.03-8.38 151.47-46.15 182.29-3.8 4.5 59.76 47.46 59.76 47.46s67.02-41.71 63.19-41.1c-1.65.46-2.96 35.5-3.94 92.15-.94 54.7 7.06 93.84 23.72 151.68-2.12 7 12.76 41.99 29.4 76.68 18.85 39.33 44.38 79.04 44.38 79.04-43.87-14.77-84.18-9.02-133.37-25.9l-2.41 194.39s25.46 13.29 30.37 19.4c2.4 2.98 2.68 7.14 2.95 10.9 1.06 14.69-11.36 32.15-34.96 26.39-7.4 25.89-18.02 86.78-18.43 86.76-36.04 4.85-72.57 10.07-109.08 8.11 0 0 5.46-19.55 7.56-48.95.76-10.71 1.3-22.25 2.56-34.51 4.61-45.2 17.92-94.54 39.39-97.7-4.24 1.67-54.49-41.64-61.34-44.74-28.25 14.73-65.37 39.45-65.37 39.45s4.89-35.8 5.11-73.33c.24-40.22-2.6-84.68-3.88-96.25-9.73-66.28-36.83-126.61-58.72-171.75a2524 2524 0 0 1-21.94-47.16c32.27-3.71 68.8-1.95 125.82 15.07 0 0-3.2-196.19-3.22-195.1.51 1.75-14.66-6.24-28.56-15.07-7.44-4.73-6.68-17.3-7.4-17.8m284.56-43.99c.23-2 1.15-24.16 1.15-24.16 8.92 10.46 16.13 41.13 17.9 40.61 0 0 11.46-1.8 15.02 2 11.64 12.36.2 26.97-11.42 24.24-11.56-2.97-24.26-22.73-22.65-42.69M753 940.05s-3.04-346.23-2.98-520.63c12.44-2.02 25.32 6.24 36.96-11.44-6.16-12.76-23.75-8.87-36.97-11.45l-.12-160.79s-22.07-.38-22.09-1.83c-.02-1.33 11.38-12.05 32.93-34.57a831 831 0 0 0 9.77-10.43c10.87-11.85 28.15-31.6 28.97-30.8 6.77 5.75 6.07 15.1-25.4 44.31-22.94 21.3-23.83 19.88 1.55 19.52 24.2-.44 27.26-2.45 23.87 6.25.06 3.56 2.81 6.33 2.16 6.89-.7.6.16 756.43.16 756.43zm-73.9-806.42c.16.45 3.33 1.65 6.74 5.42 13.95 22.84 21.19 51.77 32.15 71.73-22.7 10.08-54.18-12.3-61.77-31.87-9.22-24.63 17.76-58.85 22.88-45.28"/><path fill="#131f67" d="m124.74 101.57.88 1097.53 686.42 1.01-2.96-1099.8zm227.29 230.75c.93 1.77 2.45 4.32 2.45 4.32s-1.66.43-2.81 1.19c-79.43 29.37-165.34 94.83-166.82 96.75l1.51-72.45-53.26-55.35.2-196.33h206.57l60.58 101.28c-3.64 26.54-13.08 77.9-13.08 77.9-5.56-1.35-24.31-3.11-34.45 11.42-4.83 6.93-7.41 16.38-.89 31.27m387.26 225.96 7.85-9.94-13.83.63 9.5-10.3-15.31-.35 11.93-10.13-16.1-.19 11.97-9.97-17.63.8L730.29 508l-17.42.07 13-10.9-17.06-.24 11.09-9.8-14.89-.17 16.83-11.81c7.18 3.14 16.82 4.92 26.52 5.12l.2 79.52zm12.06-137.9c39.34.14 47.75-20.87.21-24.21 0 0-3.71-104.27-2.65-147.43.01-5.27.5-11.2.5-11.2l-25.89-.65s69.42-74.93 75.96-81.02c5.94 251.84 5.67 836.58 5.67 836.58l-53.04-53.06-.58-165.34c-17.76-17.98-27.93-44.21-38.5-61.2l-29-14.1 6.81-23.3-2.92-6.62-9.05 32.97 31.73 15.08 3.36 6.82-5.34 31.06 30.03 10.3 5.2 7.14-1.88 30.34 6.21 1.9.07 6.01-6.24-.52-2.23 34.06 8.48 2.49-.01 7.69c-.01-.14-4.95.03-7.37-.18-3.35-1.81-8.87-8.99-8.87-8.99l3-37.82-38.07-7.63-2.83-4.01 7-37.8-39.97-12.23c4.1 10.1 9.54 19.53 14.07 29.47-5.5 1.59-11.23 1.94-16.78 3.14-1.5 51.07.23 104.21-1.35 152.24-32.17 2.32-17.08-.74-31.07-.52a9.92 9.92 0 0 0-5.37 18.25l-5.54 1.98-9.7-10.96 20.27-19.43-.12-5.59-25.16 25.16 10.89 12.56-6.48 3.36-9.94-10.46S573.48 966.6 574.81 967c.66.2 1.85 1.3 2.65 2.43 15.23 32.87-5.55 48.58-30.67 39.48-6.38 30.25-12.47 57.55-17.5 88.88-18.76 7.09-107.03 11.18-108 9.56 0 0-2.23-2.13-2.33-3.2.4-1.4-2.53 2.92-2.53 2.92 0 1.86-76.94-1.92-114.89-9.15 0 0-.78-3.64-.46-8.44.62-9.62-.13-9.53 8.64-8.13 17.89 1.19 31.77-4.95 37.29-20.69 3.1-8.82 1.64-16.76-3.08-40.35-4.57-22.9-4.62-20.44-4.08-23.53.64-3.64 4.57-7.7 10.2-12.27 4.25-3.45 4.67-9.96 1.26-6.36-2.36 3.43-6.5 4.66-10.2 6.58-8.71 4.56-8.42 8.96-3.28 27.77 2.4 8.83 4.93 18.34 5.02 19.45.26 3.45-1 2.04-6.18-1.52-3.32-2.43-7.15-4.43-10.56-6.44-10.42-5.55-5.8.53 4.22 7.2 7.9 5.85 9.2 8.37 2.4 5.58-7.02-2.87-17.08-1.63-24.96 1.33-1.55.86-2.69.76-2.93-.65-.35-2.2 1-7.74 1.58-20.52 1.47-32.33 9.08-66.79 30.6-86.7 30.78-28.5 81.37-9.16 109.45 17.24l3.03-4.61c-18.85-15.82-51.51-35.55-83.32-31.71 13.3-11.1 42.64-29.47 42.64-29.47 20.12 14.6 34.96 29.15 57.05 44.95l3.84-2.55-60.75-48.17-65.45 43.15s2.72-41.39 3.75-56.52l-28.4 25.1 21.9 32.41-23.22 23.88s3.93-.55-.36 6.82c-6.53 13.25-10.48 34.6-13.5 56.28.59 16.2-3.4 34.11-4.63 48.37-2.15-13.36-4.68-20.38-9.63-32.5-4.55-11.68-6.32-11.59-11.45-9.89-27.76 2.33-15.2-51.23 17.62-16.2 1.44 1.49 3.82 3.31 3.92 2.95.69-2.14-8.7-30.35-12.34-36.86-3.84-6.87-3.87-7.84-9.57-7.25-10.67 1.1-14.28-2.7-15.37-13.93 1.42-21.24 24.4-12.27 39.12-5.74 1.34 1.02-6.9-7.5-9.84-10.5-4.01-4.09-4.66-6.7-4.66-6.7l.87-11.28 22.52-20.56-18.52-27.34.78-9.78 19.79-23.73-21.1-22.9-.26-8.15 17.15-22.8-22.97-18.42-1.12-7.35s14.75-27.28 14.35-28.27c-.33-.83-24.9-17.79-24.9-17.79l-2.46-11.47 10.67-29.12-25.52-14.58-4.68-13.15 7.18-26.98-26.47-12.22-7.55-15.2 4.92-28.35-29.66-8.78-7.88-12.47 1.03-24.93-7.26-.75.1-6.15 8.1.06s-.63-.92.26-13.24c1.52-20.94 1.66-20.14-3.34-21-10.54-1.84-8.12-8.31 2.65-7.11 1.65.18 3.05.32 4.23.55 2.83.53 5.02 4.2 5.02 4.2l-2.37 38.68 37.95 6.33 3.6 4.86-6.36 35.84 35.62 10.3 4.8 8.69-10.1 37.27 35.9 15.79 2.37 6.92-15.24 33.09 33 16.02 2.05 7.94-18.31 34.12 38.03 27.66s-1.02-2.7-2.54-7.22l-30.15-21.53 15.28-29.12s1.21 2.12 2.5 1.67c-.76-4.85-1.36-9.74-1.71-14.53l-15.57-40.55 50.36-33.86c-21.58-12.99-48.8-12.55-73.8-17.42 0 0-1.09-3.48-2.97-6.6-7.26-11.66-13.8-26.49-21.91-41.79 5.97-2.81 8.55-2.45 14.97-3.7 0 0 16.22-101.62 28.92-151.27 0 0 1.96.59 2.92.62a11.18 11.18 0 0 0 7.3-19.64q2.08-.59 4.4-1.15c2.04-.03 10.3 9.09 10.3 9.09l-21.23 20.92-.12 6.92a6872 6872 0 0 1 27.07-27.84l-11.2-11.78 5.54-2.6 9.08 10 20.38-20.94 5.22 3.56c-6.86 9.02-11.33 11.95-21.6 22.6 5.36 6.36 26.16 26.4 26.16 26.4l-.06-6.92-20.5-19.88 19.93-19.89 1.16-1.32s15.82 6.84 16.83 6.83c-6.73-5.53-18.81-10.28-25.38-15.06-29.74-17.54-1.49-53.82 25.95-44.81.78 2.92 15.12-76.54 13.5-80.92 1.46-12.3 1.78-10.57-2.5-17.62-12.76-29.42-50.02-85.12-50.02-85.12l335.28-2.14c-3.5 6.8-7.01 12.33-9.66 20.28 0 0 18.84 19.63 25.73 45.43 3.85 14.4 9.37 27.88 19.06 37.46.15.34-.34.77-.93 1.17-26.51 9.35-56.72-13.27-66-39.07l-15.22 24.8c6.87.77-101.24-12.27-127.77-8.98 2.35.47 5.12 2.41 3.56 9.86-2.7 12.82-7.51 59.2-7.51 59.2-5.33 45.1-9.44 101.8-39.21 120.54 0 0 4.56 4.86 8.49 7.33.1-.06-3.5-3.7-3.62-4.12.01-1.31.76-2.15 1.64-2.84 6.3-5.11 14-15.7 13.72-15.98 24.57 21.33 63.02 39.7 86.19 32.07 9.14-1.92 13.2-10.73 18.05-3.58-6.3 38.81-5.87 81.5-3.42 115.03 3.79 74.74 20.3 117.57 36.65 170.51-8.41 2.97-51.57 31.9-51.57 31.9-.26 3.68 52.06 15.7 72.59 13.56 0 0 4.23 4.12 4.24 3.24l-.41-.8a9.9 9.9 0 0 0 5.1-8.69 9.9 9.9 0 0 0-9.9-9.92 10 10 0 0 0-2.94.45c-2.6-6.32-4.79-11.86-4.79-11.86l29.07 12.65-9.48 31.8 3.18 7.06 11.56-41.4-37.1-15.9-2.51-7.34 15.39-31.41-33.17-19.65-1.4-6.25 17.85-33.72-32.12-24.67 23.5-30.36-28.92-24.28.32-4.03 23.96-27.58-24.77-25.46-.69-10.3 27-24-23.31-33.86c9.71-6.53 15.14-13.98 21.5-21.4l5.7 2.5-20.7 15.68 22.12 31.95 23.33-21.06-12.65-20.63 7.7 3.5 7.07 11.05-1.15 11.3-23.06 20.98 19.82 28.7.16 5.27s-12.32 14.15-21.3 24.69l25.12 27.7-20.54 26.2 25.85 22-.73-6.6-19.06-16.08 14.63-17.73c1.05-10.68-1.27-29.02 4.19-37.07-8.82-8.63-4.22-29.43.12-36.17-8.43-9.97-3.61-31.87 1.77-32.8-6.44-8.06-3.88-24.4 1.5-29.72 1.72-.92-22.97-9.83-38.54-20.52 12.95-24.12 9.94-46.8 14.02-54.98 5.61 16.18 12.79 33.39 18.98 45.78.66 1.28 2.04 1 4.09 1.03 25.76 2.3 23.3 23.52 3.99 28.95 0 0 39.27 29.25 59.17 32.5.2.51.06 1.2-.6 2.58-2.83 5.84-4.46 15.94-4.88 24.83-1.44 13.22 4.96 33.52 4.96 33.52l-8.16 5.03c-1.62 6.99-10.74 7.13-11.62 12.1 1.93 21.37 43.65 103.2 52.47 112.45 3.33-58.39-3.05-121.77.15-180.04m-9.52 148.9 6.76-5.57-.16 8.84zm6.6 13.53-3.41-2.54 3.43-3.81zm-419.62 104.2a238 238 0 0 0 2.2 11.93 11.2 11.2 0 0 0 2.85 22c.89 0 1.73-.14 2.56-.33a363 363 0 0 0 4.75 15.38l2.27 1.62c-6.12-21.28 5.74-32.73-11.78-50.41-.26-.89-1.54-.64-2.85-.19m361.55-577.28 109.11.71v40.27l-84.08 89.4 32.42.4-.35 153.34c-8.89 3.7-17.36 9.42-25.56 14.96l-51.14-28.3-3.68-1.88s1.41-.4 4.42-2.36c5.78-3.8 7.99-13.12 5.36-20.12-4.3-11.45-13.17-9.38-20.56-9.41-6.15-4.74-11.4-20.6-15.7-31.19-2-4.6-3.9-8.12-4.4-10.78-.46-2.47-.44-4.62-.44-4.62s.99.3 2.44 3.28c8.15 17.16 27.19 25.46 37.3 9.23 5.13-9.95 1.58-21.31-7.02-24.49-2.64-.97-11.6.06-11.6.06-.52.31-6.5-8.42-14.93-37.13-3.47-11.86-4.38-37.59-1.07-41.29 5.58-6.78 7.02-16.3 11.75-23.15 2.15-4.3 2.04-1.62 5.4 3.18 11.49 16.34 31.68 29 50.15 28.21 13.12-.57 17.17-5.04 14.07-8.82-7.2-7.36-11.9-17.68-14.27-26.72-5.5-21.04-11.32-39.8-26.1-56.16zm-55.4 99.9c1.38 1.3.3 3.31.04 6.94-.63 9.22-.83 9.33-6.13 7-10.16-4.45-24.54-.56-33.21 8.85-10.93 11.86-11.27 24.06-4.45 48.16 7.8 27.1 7.61 30.68-1.74 36.23-5.62 4.79-11.38 14.82-9.23 14.79.3 0 1.08-.6 1.73-1.33s5.77-4.86 9.73-7.57c10.85-7.43 14.25-11.22 9.27-24.94-4.93-13.53-8.9-26.76-6.84-27.58.98-.39 4.72 4.02 7.04 5.34 4.74 2.73 14.75 7.76 15.99 7.76 1.7-.02-.12-1.23-5-4.44-13.07-8.58-18.42-16.35-5.81-11.43 6.75 2.63 13.9 1.1 17.93-.22 4.7-1.54 7.15-3.09 7.65-1.32.68 8.35.03 16.95-.49 25.34-.14.53-.78 6.25-1.42 12.67-2.38 24.38-6.55 44.93-17.25 58.16-35.86 44.27-76.66 31.37-122.48-4.07 17.1-47.35 15.91-84.26 20.13-99.28 3.96-1.2 8.6 1.13 11.48 2.75a47.6 47.6 0 0 0 20.62 6.19c6.5.35 7.62-.57 7.04 1.36-.45 1.48-10.92 4.55-17.33 5.88-11.65 2.43-10.8 5.13-.98 4.24 10.33-.93 20.3-5.03 30.88-12.06 7.32-4.87 7.6-4.88 5.63-11-.48-1.46-1.47-3.67 2.01-4.95 3.62-1.33 3.12-2.81 1.06-4.45-.5-.41-1.8-.5-2.33-.92-.65-.51.05-2.8.05-3.11-13.34-11.28-36.86-11.55-56.2.02-.96-.34-1.96-1.86-1.02-3.93 2.03-4.45 22.84-9.78 37.6-10.02 6.74-.1 8.06.75 18.2 3.85 4.17 1.27 6.5 1.6 6.87.97.87-1.44-.63-5.74-3.84-8.04-10.83-7.76-26.6-7.14-48.13 1.4-11.52 4.58-10.31 6.14-6.59-16.6 1.03-6.3 2.22-11.12 2.22-11.12s100.74 3.58 117.3 10.48M619.47 231c5.33.03 10.2 1.37 13.04 4.13 4.14 4.6-.21 6.02-6.8 3.52-8.44-3.2-18.03-1.38-25.47 3.24-4.76 2.96-5.79 1.37-1.77-2.88 4.86-5.14 13.22-8.06 21-8.01m-76.6 7.91c9.29-.06 17.8 1.6 21.3 5.53 3.19 3.58.11 3.94-7.86.83-11.22-4.39-26.18-3-38.53 3.13-6.35 3.16-8.3 3.8-7.45.2 3.72-5.81 18.97-9.6 32.54-9.69m74.3 2.9c8.85.02 16.37 2.05 14.97 6.67-.5 1.66-.93.66-7.26-1.29s-14.41-1.21-22.53 1.15c-7.57 2.21-9.02 2.71-5.62-.56 4.13-3.98 12.62-6 20.44-5.97m18.02 4.45c8.96 13.8 10.55 34.06 20.08 45.03 17.64-3.29 25.99 13.3 11.14 24.34-7.54 4.2-16.74 1.04-23.5-10.03-6.45-10.55-8.23-16.94-8.43-23.64.58-14.05-.21-21.58.71-35.7m-103.27 6.34 3.91.46c2.84 9.61 9.18 10.2 13 .12l2.95.49c-4.49 12.34-15.76 12.85-19.86-1.07m-6.05.17c1.63-.09 2.99 1.63 3.7 3.9 1.53 5.1-.2 4.46-3.73 2.3-3.59-2.18-6.34-3.62-4.28-4.5a15 15 0 0 1 4.31-1.7m33.55 3.28c1.36 1.68 1.66 2.96-.07 4.17a33 33 0 0 1-4.6 2.05c-1.57.48-2.54.1-1.88-2.17.42-1.94 1.63-4.72 2.55-5.8 1.53-.28 3.17.8 4 1.75m47.38-1.17 3.1.23c3.25 8.78 10.83 8.53 13.76.9l2.77-.02c-5.23 13.62-15.85 11.16-19.63-1.11m-5.58 1.16c2.97 0 5.86 4.26 4.23 6.45-1.64 1.37-8.97-.19-9.62-2.9-.25-1.62 2.42-3.55 5.39-3.55m28.66.82c1.43.35 1.33 1.43 1.37 1.6.76 3.6-3.55 4.86-4.51 3.48-.53-.75 1.73-3.63 3.14-5.08m-68.2 38.5c-7.24 2.03-10.62 8.29-10.16 15.28.37 5.65 3.3 10.25 7.6 11.23 8.65 1.96 14.64-4.08 23.47-6.52 3.83-1 2.93-5.92.5-8.06-3.15-2.75-7.97-1.03-14.44 3.91-12.68 9.71-15.73-8.96-4.17-12.26 1.8-.5.97-4.64-2.8-3.59M186.64 725.26l4.94 1.42-4.93 5.84s.03-5.05 0-7.26m13.73 19.97-10.16 11.43 13.8-1.04-9.36 9.72 14.37.58-10.56 10.92 14.12-.29-10.44 10.55 13.32.38-8.8 9.64 14.65-1.12-10.7 11.54 15.7-.28-11.9 10.76 15.66-.11-4.7 5.36 4.17 2.1c4.26-2 28.82-9.63 29.63-15.38-5.42-1.46-21.39 6.67-22.45 5.32-6.4-28.24-34.01-90.7-52.23-108.92l-1.24 176.67c-.43.4-.94.55-1.43.79-2.73 1.3-6.27.54-8.67 1.5-9.24-.48-24.67 14.96-16.6 18.02 4.21.93 27.56 4.93 27.62 6.09 2.86 51.16-1.76 102.59.37 157.2 6.52.97 27.86 2.19 27.86 2.19s-78.26 81.66-79.8 80.02c1.83-87.53.87-258.63-.66-259.27.01-5.13 1.8-15.94 1.8-15.94l-1.68-544.33s-.46-2.44-1.4-4c-1.6-2.65-1.72-3.33-1.84-11.49-.63-5.04.1-6.35.1-6.35l53.54 56.54.64 158.14s50.1 74.91 61.76 109.46c25.57 51.45 22.8 126.42 38.31 155.13q.49 0 .95-.04c.38 4.18.43 5.86 1.03 6.51 1.17 9.36 2.43 22.14 2.43 22.14l-5.6 8.9 6.25 8.02.05 21.37-8.34 8.48 7.62 9.68-2.12 19.95-5.95 5.3 3.38 4.55s.56 7.2-.8 15.43c-.9 5.59-6.42 4.83-17.88-1-16.24-6.15-32.87-17.17-45.7-25.47.77-10.4 13.64-34.08-4.27-60.21-6.62-4.96-25.84-3.14-27.52-3.89l.15-80.47m-.03-9.3 8.67-1.5-8.75 8.75zm412.63-401.7q-1.05.1-2.73 2.03c-1.2 1.35-3.13.98-8 .68-5.21-.31-6.54-.17-9.97 1.08-3.92 1.42-4 1.42-6.73.26-4.24-1.8-6.9-2.02-10.8-.91-4.8 1.36-7.82.99-10.77-.47-3-1.47-3.93-1.17-4.98 1.54a64 64 0 0 1-3.54 7.07c-3.2 4.88-2.42 5.7 4.27 3.64 4.6-1.42 13.08-2.31 19.39.3 4.8 1.99 10.52 1.35 17.34-1.62 6-2.6 11.91-3.43 17.65 1.4 3.34 2.81 3.16.68 2.3-5.14-.95-6.51-1.62-10.07-3.43-9.86m-227.21 20.54a11.18 11.18 0 1 0 0 22.37c2.92-2.44 4.44-21.92 0-22.37m215.98.1c-6.81 2.3-16.17 5.4-26.7 2.31-8.28-2.52-6.3 3.7 2.7 4.47 6.24.55 5.82.54.94 5.1-4.1 3.85 1.04 3.57 3.85 1.18 3.31-2.82 12.3-2.09 17.38.22 2.23 1.01 2.48-3.2-.18-4.13-6.68-2.33-5.08-2.5 2.21-4.88 2.7-.62 2.8-5.3-.2-4.28m-215.98 3.66c3.53 1.33 1.32 14.3 0 14.87a7.43 7.43 0 1 1 0-14.88m-59.66.47c2.85-.97 4.86 3.77 4.86 6.96a7.45 7.45 0 0 1-7.43 7.45c-5.03-4.9-5.94-10.36-.13-13.44a90 90 0 0 1 2.7-.97m29.4 10.95-23.9 24.17 23.46 23.75 23.5-24.28zm283.1 9.58a6.2 6.2 0 0 1 6.18 6.2 6.2 6.2 0 0 1-6.19 6.2 6.2 6.2 0 0 1-6.21-6.2 6.2 6.2 0 0 1 6.21-6.2m-283.29 8.1a6.2 6.2 0 0 1 6.2 6.22 6.2 6.2 0 0 1-6.2 6.2 6.2 6.2 0 0 1-6.19-6.2 6.2 6.2 0 0 1 6.19-6.21m254.04 5.93 17.12 23.05-20.99 18.82 1.08-11.7a9.93 9.93 0 0 0 1.76-19.02zm-285.1 1.28-.25 6.27 21.58 21.37-21.35 22.16.17 6.13 26.58-28.3zm60.97.01-26.37 27.06 25.44 27.79.32-7.04-19.97-20.65 20.36-20.21zm380.53 4.33c5.37 0 9.97 1.76 11.38 5.27 1.1 1.97 1.69 3.67 3.3 4.4 3.13 1.44 7.38.46 7.58-.6.37 0-5-.51-5.9-1.33-4.2-3.78-3.5-6.16 2.46-5.7 1.92.1 7.28.18 7.4 2.27 1.2 7.23-8.42 12.53-20.74 11.56-8.78-1.45-8.81 1.94-9.42 6.62-.4 1.54-1.74 4.02-2.84 5.99-3.1 5.56-4.13 4.79-1.96 6.94 2.1 2.74 4.82 6.14 4.77 9.33l-.09 29.34s-18.42-.08-24.82-4.71c-6.7-12.23-11.26-38.6-1.41-53.09 3.44-4.33 8.48-6.4 14.28-11 4.48-3.55 10.64-5.28 16.01-5.29m-104.12 3.3-.67 8.48a9.9 9.9 0 0 0-8.26 9.76 9.9 9.9 0 0 0 6.72 9.37l-.58 7.36-13.67-19.6zm-53.63 5.73a6.6 6.6 0 0 1 3.38 5.75 6.6 6.6 0 0 1-4.5 6.27zm-284.97 3.1c-9.45 4.9-6.2 23.94 0 22.36a11.19 11.19 0 0 0 0-22.36m61.73.28a11.19 11.19 0 1 0 0 22.36c8.2-2.58 3.56-22 0-22.36m275.91 2.83-.97 12.2a6.6 6.6 0 0 1-3.65-5.9 6.6 6.6 0 0 1 4.62-6.3m-337.64.63a7.4 7.4 0 0 1 7.43 7.43c0 4.1-3.32 7.45-7.43 7.45-2.45.48-4-13.6 0-14.88m61.73.28c4.98.4.84 13.08 0 14.88a7.44 7.44 0 1 1 0-14.88m250.72 7.07-24.67 24.58 24.37 26.86 20.28-24.65zm-280.55 4.67-23.66 24.37 22.36 23.11 23.6-24.91zm-155.47 13.34 8.64 9.17-8.92.08zm434.1.91a6.2 6.2 0 0 1 6.2 6.21 6.2 6.2 0 0 1-6.2 6.2 6.2 6.2 0 0 1-6.2-6.2 6.2 6.2 0 0 1 6.2-6.21m-278.75 3.36a6.2 6.2 0 1 1-6.2 6.2 6.2 6.2 0 0 1 6.2-6.2m30.58 7.24-26.15 27.02 25.25 26.9.35-6.38-20.24-20.36 20.52-21zm-61.49.05.27 6.83 20.98 20.8-22.06 22.19.9 5.97 27.11-28.05zm282.23 7.4 18.93 18.82-18.86 21-.02-10.9a9.95 9.95 0 0 0 6.68-9.39c0-4.35-2.8-8.02-6.7-9.35zm52.18.97.2 7.7a9.91 9.91 0 0 0 .5 19.28l.17 6.09-14.98-16.51zm-437.45 3.46s6.31 6.74 8.45 9.5a11 11 0 0 0-2.71 7.24 11.2 11.2 0 0 0 11.2 11.2c1.77 0 3.43-.44 4.93-1.18 1.15 1.7 6.2 8.68 6.2 8.68l-29.76-4.78zm164.38 4.48a11.18 11.18 0 1 0 0 22.36c11.23-2.29 9.02-21.83 0-22.36m-62.3.42a11.18 11.18 0 1 0 0 22.36 11.18 11.18 0 0 0 0-22.36m335.65 2.77.35 12.4a6.6 6.6 0 0 1-4.52-6.26 6.6 6.6 0 0 1 4.17-6.14m-273.35.55c7.24 2.63 5.03 15.37 0 14.88a7.44 7.44 0 0 1 0-14.88m-62.3.43a7.4 7.4 0 0 1 7.44 7.42 7.44 7.44 0 1 1-7.43-7.42m283.2.7a6.6 6.6 0 0 1 3.39 5.75 6.6 6.6 0 0 1-3.36 5.77zm-374.5 3.18 8.71 11.2a7 7 0 0 1-2.57.46 7.46 7.46 0 0 1-6.13-11.66m402.69 5.08-20.44 24.57 25.1 22.28 17.82-22.06zm-279.33 2.96-25.06 25.45 17.7 18.4-9.8-1.07-14.16-14.45-.32 4.8 7.7 8.82-8.22-.28 1.44 3.82c20.3.57 39.63 6.54 59.34 10.45l1.2-2.65-7.31-1.87 6.9-8.26-.07-6.27-11.95 12.79-4.04-.93 16.91-17.45-1.13-5.32-20.8 21.29-6.06-1.37 21.15-21.58zm280.36 14.65a6.2 6.2 0 0 1 6.2 6.19 6.2 6.2 0 0 1-6.2 6.2 6.2 6.2 0 1 1 0-12.4M340.66 503a6.2 6.2 0 0 1 6.19 6.2 6.2 6.2 0 0 1-6.2 6.2 6.2 6.2 0 1 1 0-12.4m-140.44 1.79s-1.6 20.36-2.51 30.17l32.4 8.66 4.03-32.54zm-14.13 1.53 4.51.17-.56 18.77-4.58-4.49zm59.95 8.24s3.26 5.24 6.98 11.01a11 11 0 0 0-3.24 7.85 11.2 11.2 0 0 0 14.45 10.7c1.46 2.76 4.17 7.13 4.17 7.13l-27.77-8.13zm347.62 2.09 21.8 17.75-16.94 20.84-1.14-8.95a9.9 9.9 0 0 0-2.4-19.18zm-377.05.3a6.2 6.2 0 0 1 6.2 6.2 6.2 6.2 0 1 1-6.2-6.2m435.66 1.96a9.92 9.92 0 1 0 0 19.83c2.16 1.6 2.76-17.02 0-19.83m0 3.32c.59 2.95 1.3 13.89 0 13.2a6.6 6.6 0 1 1 0-13.2m-397.14 6.6a321 321 0 0 1 7.22 11.92 7 7 0 0 1-1.38.12 7.46 7.46 0 0 1-5.84-12.04m340.27 1.7a6.58 6.58 0 0 1 1.56 12.34zm29.53 5.8-18.42 24.72 27.95 21.8 15.83-27.04zm-420.4 10.06 20.83 6.1-3.93 21.3c-.34-1.24-1.5-3.49-3.06-6.17a11 11 0 0 0 1.42-5.42 11.16 11.16 0 0 0-12.06-11.13zm30.86 5.19-6.78 33.97 31.33 12.61 7.63-35.9zm393.1.26a6.2 6.2 0 0 1 6.19 6.19 6.2 6.2 0 0 1-6.2 6.2 6.2 6.2 0 1 1 0-12.4m-418.12 3.14a7.4 7.4 0 0 1 5.68 7.23q-.01.69-.14 1.35a345 345 0 0 0-5.54-8.58m444.71.93-16.79 31.64 28.55 19.93-1.95-6.76-20.42-14.97 11.87-21.76zM249.3 567.34a6.2 6.2 0 0 1 6.19 6.21 6.2 6.2 0 0 1-6.2 6.2 6.2 6.2 0 0 1-6.19-6.2 6.2 6.2 0 0 1 6.2-6.21m29.56 3.16 6.66 11.6a11.1 11.1 0 0 0-4.54 8.96 11.2 11.2 0 0 0 13.87 10.85l4.82 10.22-29.09-12.73zm382.7.1c-2.6-.6-5.1 1.06-6.89 2.78a10 10 0 0 0-3.03 7.13 9.9 9.9 0 0 0 9.92 9.92c7.48-1.81 3.46-19.03 0-19.83m-60.17 2.73 23.64 16.9-13.8 26.63s-1.4-5.38-3.14-12.6a9.93 9.93 0 0 0-4.23-18.89h-.12a285 285 0 0 1-2.35-12.04m60.17.59c4.1 1.25 2.72 12.77 0 13.2-3.6.55-6.6-2.96-6.6-6.6a6.6 6.6 0 0 1 6.6-6.6m-374.4 11.65 6.05 12.85a7 7 0 0 1-1.03.08 7.45 7.45 0 0 1-5.02-12.93m317.33 3.16a6.6 6.6 0 0 1 5.97 6.56 6.6 6.6 0 0 1-3.18 5.62 719 719 0 0 1-2.79-12.18m31.18 3.38-16.19 32 29.91 18.23 13.76-30.94zm-400.54 6.15 18.43 8.38-5.2 19.03-2.24-4.66a11 11 0 0 0 1.74-5.95c0-5.77-4.37-10.51-9.98-11.1zm29.12 9.03-9.05 32 28.74 14.95 13.12-32.2zm-24.2 1.15a7.4 7.4 0 0 1 4.07 6.62q-.01.75-.16 1.48zm400.95 2.6a6.2 6.2 0 0 1 6.2 6.2 6.2 6.2 0 0 1-6.2 6.2 6.2 6.2 0 0 1-6.2-6.2 6.2 6.2 0 0 1 6.2-6.2m27.29 1.76-13.72 33.49 31.5 17.37-2.37-6.1-23.28-13.44 9.98-24.24zm-392.5 11.16a6.2 6.2 0 0 1 6.19 6.2 6.2 6.2 0 0 1-6.2 6.19 6.2 6.2 0 1 1 0-12.39m402.41 4.96c-5.47 0-9.91 4.44-9.91 9.92s4.44 10.12 9.91 9.91c9.96-.22 4.88-19.9 0-19.83m-371.6 1.12c1.89 3.4 3.3 6.96 4.6 10.62a11.1 11.1 0 0 0-4.92 9.25 11.2 11.2 0 0 0 10.52 11.17l1.25.16 1.78 6.74-24.72-12.97a168 168 0 0 1 11.5-24.97m371.6 2.2c2.88 1.21 3.66 12.83 0 13.2a6.6 6.6 0 1 1 0-13.2m-60.97 3.85L641.54 650l-12.21 26.33-3.62-12.06a9.9 9.9 0 0 0-5.45-18.12zm-304.73 8.3 3.86 12.86c-3.93-.2-6.35-3.36-6.35-7.34 0-2.2.97-4.16 2.49-5.53m308.8 5.23a6.58 6.58 0 0 1 3.38 11.27zm-362.7.84 18.8 11-8.47 21.93-2.47-7.91a11.14 11.14 0 0 0-5.69-18.1zm392.45.45-11.39 30.54 32.97 17.32 8.23-31.24zm-388.8 11.2a7.4 7.4 0 0 1 3.17 6.09 7 7 0 0 1-.46 2.54zm24.63 1.51L273.5 694.6l27.82 18.33 14.5-32.3zm374.52 5.04a6.2 6.2 0 0 1 6.18 6.2 6.2 6.2 0 0 1-6.18 6.18 6.2 6.2 0 1 1 0-12.38m32.6 13.62c-2.77 1.77-4.42 5.23-4.42 8.76a9.9 9.9 0 0 0 9.93 9.92q1.81-.01 3.29-.36c2.85-3.83-1.2-18.5-8.8-18.32m-398.8-.89a6.2 6.2 0 0 1 6.19 6.2 6.2 6.2 0 0 1-6.2 6.2 6.2 6.2 0 0 1-6.19-6.2 6.2 6.2 0 0 1 6.2-6.2m405.77 15.95q-.62.34-1.46.3c-3.65-.17-6.6-2.95-6.6-6.6 0-2.07.95-3.93 2.45-5.13 5.7-4.28 6.54 12.29 5.61 11.43m-369.15 5.28c1.14 5.08 2.4 9.91 3.63 14.4a8 8 0 0 1-1.56.19 7.45 7.45 0 0 1-7.45-7.45 7.4 7.4 0 0 1 5.38-7.14m345.5 3.64-8.62 34.34 32.99 12.03 6.31-32.5zm-402.14.46 17.5 12.09s-5.66 13.64-10.44 20.92l-1.35-6.31c2.9-2.02 4.8-5.36 4.8-9.17a11.16 11.16 0 0 0-9.11-10.99zm370.15 1.65a6.57 6.57 0 0 1 6.58 6.57c0 2.4-.72 3.38-2.62 4.54-1.44-3.26-3.44-6.49-5.24-10.87.54-.14.7-.24 1.28-.24m-367.86 9.06a7.4 7.4 0 0 1 4.47 6.82 7.4 7.4 0 0 1-1.95 5.02zm26.28 5.02-15.88 27.6 23.31 17.83 18.22-27.62zm384.66.93a6.2 6.2 0 0 1 6.2 6.22 6.2 6.2 0 0 1-6.2 6.19 6.2 6.2 0 1 1 0-12.4m28.54 8.57 4.04 6.27a10 10 0 0 0-2.02 5.98 9.94 9.94 0 0 0 9.94 9.91 10 10 0 0 0 2.16-.22l3.26 5.04-20.68-7.4zm-408.44 7.37a6.2 6.2 0 1 1 0 12.39 6.21 6.21 0 0 1-.01-12.4m414.47 2 6.12 9.49h-.18c-5.78-.11-8.22-4.87-5.94-9.5m-384.73.43-22.5 29.85 29.85 22.12-.47-6.6-21.82-15.58 16.6-22.1zm328.64 10.1 29.71 9.33-6.36 29.46-7-11.63a9.9 9.9 0 0 0-6.8-17.1 10 10 0 0 0-3.18.52zm-323.64 5.12a11.19 11.19 0 0 0 1.13 22.3c2.85.34 3.25-4.01 0-3.75a7.43 7.43 0 0 1-.49-14.85l-.54-3.7zm364 3.17-5.17 34.1 33.66 7.19 2.5-30.92zm-420.8.83 15.87 11.74-12.05 16.88-.65-4.84a11.2 11.2 0 0 0 4.75-9.16c0-4.85-3.08-8.94-7.38-10.49zm389.99 4.25a6.6 6.6 0 0 1 6.58 6.6 6.5 6.5 0 0 1-1.56 4.25l-6.42-10.68a7 7 0 0 1 1.4-.17m-106.73 4.48c.71.26 2.75.42 2.43 1.07-.27.55-5.65 6.46-5.65 6.46l.6 5.5 9.56-10.83 3.84 1.42-13.4 13.64-.64 5.08 17.87-17.55 7.63 2.1-20.78 20.47 23.94 24.26 23.96-24.42-17.02-18.6 8.42.79c3.55 4.04 7.45 10.48 13.98 13.92l-.65-4.86c-.33.23-7.92-7.13-6.72-8.34l6.7.49s9.67-2.81-2.44-2.81c-15.9 0-33.06-5.42-46.72-9.47-1.52-.46-3.84-1.68-4.98-1.73-2.79 2.8-6.23 2.2.07 3.4m-282.12-.07a7.4 7.4 0 0 1 3.04 5.97c0 1.74-.6 3.36-1.62 4.63zm431.97 5.92a6.2 6.2 0 0 1 6.2 6.2 6.2 6.2 0 0 1-6.2 6.19 6.2 6.2 0 0 1-6.18-6.2 6.2 6.2 0 0 1 6.18-6.19m-407.23.61-19.35 24.6 21.92 21.02 22.44-26.31zm434.46 6.3 1.54.26.08 16.78-2.5-.53zm-151.04 7.79a6.2 6.2 0 1 1 0 12.39c-3.42 0-6.21-2.78-6.21-6.2s2.8-6.2 6.21-6.2m-280.43 1.77a6.2 6.2 0 0 1 6.2 6.21 6.2 6.2 0 0 1-6.2 6.2 6.2 6.2 0 0 1-6.2-6.2 6.2 6.2 0 0 1 6.2-6.21m29.87 4.88-24.99 29.79 26.83 27.7-.08-6.2-20.84-21.85 19.53-22.76zm279.46 2.73-25.72 25.98 25.65 26.58.6-5.98-19.8-19.97 18.55-19.14zm-56.54 2.69.04 7.06 16.13 16.41-16.52 16.86.1 7.17 23.42-24.15zm131.77 3.1 30.3 5.72-1.87 28.62-7.29-8.8a10 10 0 0 0 1.99-5.96 9.9 9.9 0 0 0-9.92-9.9 10 10 0 0 0-4.35 1.02zm-408.3 5.1 14.94 15.7-14.27 16.13-.12-5.48a11.2 11.2 0 0 0 6.76-10.29c0-4.76-2.98-8.82-7.19-10.42zm55.37 3.96a11.19 11.19 0 0 0 0 21.8v-3.9c-2.87-1.04-4.94-3.79-4.94-7s2.07-5.96 4.94-7zm219.52 1.06c-4.6 3.02-2.54 20.1 0 19.83a9.9 9.9 0 0 0 9.9-9.92 9.9 9.9 0 0 0-9.9-9.91m58.67 1.61a9.92 9.92 0 0 0 0 19.84c4.36-1.44 2.57-18.85 0-19.84m87.95 1.28c3.64 0 6.6 2.93 6.6 6.57a6.6 6.6 0 0 1-.89 3.28l-7.85-9.5a7 7 0 0 1 2.14-.35m-146.62.42a6.6 6.6 0 0 1 6.57 6.6c0 3.64-2.93 6.6-6.57 6.6.33-2.36-1.24-13.47 0-13.2m-274.69 1.52a7.4 7.4 0 0 1 3.36 6.21 7.5 7.5 0 0 1-3.09 6.08zm333.36.1c.82 2.67 1.85 13.66 0 13.2a6.6 6.6 0 0 1-6.6-6.6 6.6 6.6 0 0 1 6.6-6.6m-30 9.61-24.14 24.03 24.65 25.2 23.32-24.88zm-278.5 1.3L295 854.67l20.83 27.04 24.43-24.32zm-117.18.85c6.65 0 12.86 1.14 15.38 5.57 10.18 13.63 7.26 41.63.2 51.26-15.84 14.38-24.8 18.18-42.66 14.9 2.05-8.08-6.53-12.44-7.77-10.65-.16.03-.82 1.44-.02 1.54 6.15.75 5.67 8.1 4.95 8.12-6.81-.2-11.23-.09-11.93-3.12-.43-1.87.67-4.76 4.63-8 4.67-3.73 26.1-3.64 26.1-3.64.1.03-.04-6.1 2.11-9.61 1.9-3.1 4.51-6.52 2.72-7.94-3.1-1.43-5.2-4.9-5.63-8.9-.84-8.4.48-28.59.18-28.8 3.61-.34 7.75-.73 11.74-.73m395.65 15.59a6.2 6.2 0 1 1 0 12.38 6.2 6.2 0 0 1-6.2-6.2 6.2 6.2 0 0 1 6.2-6.18m-278.31 2.4a6.2 6.2 0 0 1 6.19 6.2 6.2 6.2 0 1 1-6.19-6.2m307.83 5.83-25.24 25.74 26.9 27.83-.85-7.55-19.37-19.93L625 862.34zm-57 .49-.7 7.12 17.87 18.78-16.22 16.68-.25 8.1L592.2 882zm-276.32 9.7 14.26 20.01-16.97 14.9.44-5.69a11.2 11.2 0 0 0 8.6-10.88c0-4.69-2.88-8.68-6.96-10.35zm53.42 3.95c-.33 4.15-.55 7.5-.76 10.56a11.19 11.19 0 0 0-1.52 20.87c-.3 3.2-.7 6.75-1.28 11.2l-17.06-24.94zm403.36 1.17.67 70 50.57 52.64.55 196.47-208.85 1.27-53.73-91.16c-1.17-1.73-2.61-1.17-3.79-2.88l15.93-85.07c25.08 11.55 46.17-18.32 32.48-42.51 77.3-28.23 166.17-98.76 166.17-98.76m-123.32.38a9.9 9.9 0 0 0-9.92 9.9 9.93 9.93 0 0 0 9.92 9.94c5.47 0 3.4-3.39 3.4-8.87s2.07-10.97-3.4-10.97m-57.75.6c-2.75 3.12-4.32 19.96 0 19.83 5.48-.18 9.92-4.47 9.92-9.94a9.9 9.9 0 0 0-9.91-9.9m57.74 2.73c3.63 0 1.98 3.57 1.98 7.21s1.65 5.99-1.98 5.99a6.6 6.6 0 0 1-6.6-6.62 6.6 6.6 0 0 1 6.6-6.58m-57.75.59a6.58 6.58 0 0 1 0 13.18c.4-1.1-1.65-12.73 0-13.18m-276.64 2.61a7.4 7.4 0 0 1 3.52 6.32 7.4 7.4 0 0 1-4.56 6.86zm53.28 6.64c-.3 4.75-.52 8.65-.85 12.6a7.4 7.4 0 0 1-3.12-6.02 7.5 7.5 0 0 1 3.97-6.58m251.15 2.29-23.53 23.53 24.5 25.46 23.3-24.65zm-279.96 6.1-24.66 19.8 15.87 24.33 5.53 3.31 22.56-19.3zm-98.96 1.65 58.02 30.96s-15.05 6.3-14.64 16.35c.6 11.24 7.34 20.43 20.7 16.98 3.07-.44 4.47.83 7.43 7.73 5.66 13.22 11.25 27.73 9.07 27.28-7.12-5.68-6.06-6-14.43-9.75-15.63-4.3-25.13 10.23-20.2 21.99 4.6 10.86 12.26 11.48 19.93 10.37 1.13.25 2.08 1.49 2.84 2.91 2.44 4.94 6.13 13.73 9.03 27.26 4.45 20.86 5.46 46.97 2.2 53.53-4.5 9.08-10.7 21.38-10.7 21.38-12.1-23.07-38.47-43.28-68.1-36.14-1 .63-1.2 3.88.14 5.8 9.6 12.61 11.24 24.17 14.67 36.56 8.8 31.79 26.58 49.97 26.33 46.73l-9.3 16.86s-80.57.4-113.55 0V1153l86.38-88.47-34.22-1.45 1.19-152.5c12.5-2.62 27.2-15.68 27.2-15.68m379.36 9.78a6.2 6.2 0 0 1 6.19 6.2 6.2 6.2 0 1 1-6.19-6.2m-283.03 6.27a6.2 6.2 0 1 1-6.19 6.2 6.2 6.2 0 0 1 6.19-6.2m255.32 5.7.6 6.1 16.99 17.8-15.73 15.98c-2.29 3.14-8.15 2.45-10 2.67 0 .2.4 2.32 1.79 2.94 1.46.64 3.22.52 3.92.93a8 8 0 0 0 2.7 1.07l22.84-23.37zm.27 13.81c-4.12 1.3-3.4 18.83 0 19.84a9.92 9.92 0 0 0 0-19.84m58.22 2.7c.42 1.62 1.03 13.04 0 13.19a6.6 6.6 0 0 1 0-13.2m-58.22.63a6.6 6.6 0 0 1 6.6 6.6 6.6 6.6 0 0 1-6.6 6.6c-.89-1.52-2.36-12.98 0-13.2m-204.16 3.18c-.99.37-2.35.14-3.42.14-3.45 0-7.72-2.42-8.67-1.98-1.07.5-.7 2.76-.65 3.77.12.94 2.74 1.25 3.81 1.96 1.73 1.14 1.27 1.53-.7 2-1.75.41-3.16.52-4.28 2.1-.7.99-.75 2.7.43 2.69 6.88-.1 15.6-2.93 23.82-.17 4.7 1.68 7.77 2.72 8.52 2.08 1.56-1.35-3.94-6.6-9.2-7.6-5.32-.98-7.22-.58-5.5-2.16.89-.82 2.09-.5 2.17-1.09.25-1.65-.96-3.34-2.4-3.58-1.55-.25-2.76 1.37-3.93 1.84m29.57 16.51c-.56.01-1.37.4-2.46 1.28-3.13 2.08-8.04 4.87-19.86 1.62-6.51-2.14-13.81-.27-18.06.92-3.3.94-8.06 1.84-11.86.11-3.7-1.78-7.78-4.49-7.02-1.7.19.71.42 4.8.46 7.22.12 5.71.52 10.47 4.64 6 1.78-1.94 3.94-1.96 7.97-.37 2.88 1.14 4.9 1.9 7.13.44 3.15-2.06 5.88-2.57 11.72-.6 2.76.93 5.66 1.02 9.16-1.13 5.82-3.58 9.5-.1 11.74 3.56 1.77 2.9 2.65-1.24 5.9-9.84 1.68-4.1 2.21-7.53.54-7.5m-27.87 31.97c-3.17 1.78-7.58 2.32-10.8 4.44-6.8 4.69-.42 8.58 4.3 7.6 1.93-.43 4.16-1.4 6.64-3.04 8.5-5.64 13.22-4.82 14.02 2.02.87 7.39-10.5 10.72-9.45 14.15 1.43 2.24 6.95-.83 10.37-5.47 10.14-13.75-1.02-27.64-15.08-19.7m44.06 38.76c-11.54 1.31-28.9 6.88-37.63 13.43-6.85 5.34-8.73 6.68-5.83 8.81 2.67 1.94 4.7 2.01 1.06 5.74-1.3 1.33-3.51 4.12-3.5 4.66.04 2.67 16.32 10.61 25.66 11.86 7.2.96 18.86-.14 25.13-2.68 8.28-3.34 8.56-5.62.74-3.32-6.1 1.8-13.47 3.15-20.73 2.62-6.54-.47-12.94-2.46-16.98-3.91-10-3.57-8.26-7.74 1.84-4.19 11.63 5.03 26.7 4.94 40.09-1.09 5.4-2.44 6.91-4.35 7.9-3.52.23.2.78 1.53.92 1.9.34.88.38-2.27.85-7.28.4-4.16.8-9.74.8-9.74s-.81 2.36-.8 3.46c.11 7.28-3.42 7.32-13.41 1.74-11.75-6.45-17.45-5.82-28.62-5.75-4.88.03-5.1-1.38 1.78-3.65 3.27-1.09 8.3-2.83 15.78-5.22 6.2-1.98 7.87-4.2 4.95-3.87m-88.5 14.69c4.25 0 8.05 3.61 9.15 10.62l-4.24-.3c-1.4-10.46-9-8.09-11.98-1.87l-3.73.11c2.93-5.75 7.05-8.56 10.8-8.56m10.8.65c1.73-.16 9.73 3.72 10.22 4.91.53 1.31-2.51 2.72-5.18 3.5-3.07.91-2.44 1.03-3.4-.78-1.36-2.55-3.74-7.53-1.64-7.63m-20.41.5c.08 1.13-2.35 5.24-4.12 5.77-2.07.62-3.7-2.12-2-3.52 1.53-.8 5.8-3.85 6.12-2.25m82.3.54c5.38-.21 10.39 5.22 10.8 11.64l-2.7-.06c-2.52-13.37-12.8-10.34-15.1-.81l-3.2-.91c2.67-6.91 6.52-9.7 10.2-9.86m-10.56.96c1.47-.1 1.27 1.1-.49 4.65-.83 1.68-1.43 2.63-2.9 2.58-1.98-.3-3.3-.94-4.33-2.52-.69-1.55.93-2.77 4.37-3.87 1.58-.49 2.67-.8 3.35-.84m22.6.99c.95 0 2.66.61 5.37 1.8 6.9 3.05 7.72 4.3 4.1 6.03q-2.4 1.16-4 1.7c-3.24 1.08-3.15-.73-4.02-2.97-.49-1.27-1.08-2.42-1.71-3.76-.88-1.89-.92-2.81.26-2.8m-101.21 11.33c1.15-.01 3.64 1.51 8.65 3.3 7.18 2.57 14.42 1.62 23.96-1.41 3.93-1.26 5.28-2.05 3.72.23-1.23 1.82-7.93 5.13-13.4 6.48-10.24 2.54-23.77-2.27-23.78-7.53.08-.75.33-1.06.85-1.07m33.9 8.65c1.04.02.03 1.58-2.15 4.01-3.36 3.75-8.5 6.33-13.74 7.26-11.01 1.95-20.15-1.05-20.23-7.23-.07-4.44.71-4.5 6.15-1.7 4.61 2.38 15 2.96 23.35.26 2.75-.72 5.57-2.39 6.05-2.53q.36-.08.57-.07m84.72 5.97a406 406 0 0 1-25.36 5.99c-8.7 1.7-21.38.13-28-3.12-4.88-2.41-6.6-.99-4.44 3.68 1.4 3.05 3.52 6.25 9.8 8.44 9.1 3.18 30.45-1.98 46.32-10.18 9.22-4.1 7.45-6.58 1.68-4.81m-137.72 62.83 14.27-24.24c96.65 18.71 201.22 5.12 233.22.69 0 0 34.95 57.82 47.51 78.11 1.18 2.16 4.44 9.47 4.44 9.47l-330-.25c4.62-9.3 9-21.3 9-21.3-10.08-4.05-17.9-19.12-22.74-31.83-4.25-11.15-11.61-38.39-21.3-51.67 16.94-9.6 59.53 11.83 65.6 41.02"/><path fill="#d40000" d="M581.93 1192.64H255.1l42.6-85.12c79.44 12.03 157.77 10.53 235.2-1.72zm-446.63-67.85-.96-41.1 42.42.09zM490.39 855.1l-.48-132.52 59.81 39.34-2.18 134.57zm-143.03-31.24c2.14-47.4-9.2-91.63-17.94-136.47l61.94-40.68 3.38 149.62zM184.3 699.3l1.68-170.89c55.7 80.13 89.57 159.92 99.29 269.79-15.15 6.1-29.93 12.85-45.47 18.3-17.89-41.07-35.93-80.83-55.5-117.2m564.5 73.57c-51.48-65.4-82.53-155.1-98.74-262.46l47.13-22.89c15.64 37.91 30.85 76.48 50.65 107.94zm-203.27-116.5-5.01-143.43 47.18-28.66c2.5 49.21 10.27 95.37 19.57 134.13zM442.9 579.83 392 550.2l2.89-129.66 46.56 36.49zm317.87-359.54c3.65-13.58 28.2-30.9 38.7-40.25l-.43 38.4s-36.4 2.57-38.27 1.85m-356.89-20.76-52.82-90.15 331.12-2.78-42.54 90.78c-87.7-16.04-162.72-8.8-235.76 2.15"/><path d="M555.64 1010.33c.76.24 11-6.69 16.3-16.9 5.74-11.26.56-22.34 2.26-22.38 10.56 3.15 7.53 23.3 3.85 29.54-3.12 5.42-9.09 9.09-15.26 10.13-6.1 1.03-7.15-.39-7.15-.39m17.22-44.04c-2.13.03-3.06-.33-4.46-1.78-1.95-2.02-4.28-3.38-5.52-3.2-1.67.24-2.44-.06-2.45-.95-.01-.73.73-.85 3.48-.61 1.68.15 5.2-2.5 5.2-2.5l.04-190.39c14.97 6.21 37.35 9.78 54.54 11.82l1.15 169.7s25.23-13.2 34.39-18.48l.33-151.9 17.87-1.96-28.22-57.34c-3.96 3.05-59.5-2.14-73.37-11.17l50.68-31.62a919 919 0 0 1-14.14-46.6c-.13-.49-1.06-.44-1.2-.92-1.04-3.88-1.78-5.63-2.75-9.54-.19-.73.1-1.9-.1-2.64-10.92-37.6-18.38-87.45-19.9-132.07.17-.42 1.79-.06 1.79-.06l-.33-27.26-1.8 1.2.17-12.33 1.83-1.81c.05-2.4.22-6.9.22-6.9l-2.34-1.47 1.2-20.67 2.42-.35 1.32-32.72-64.17 41.54s-41.89-29.99-60.21-45.54c20.16-13.71 25.5-40.43 30.5-62.6 5.11-21.95 6.79-40.07 8.24-58.44 1.6-20.23 4.94-46.11 7.63-58.87 1.62-7.7 1.56-8.55-.71-8.68-.79-.04.02-.3 1.8-.57 41.15-1.64 85.34 4.49 124.59 9.6 0 0 9.7-18.1 13.07-24.77 0 0 1.98 6.13 4.08 10.38 4.77 9.02 15.66 18.6 24.97 23.76 3.48 2.28 13.48 5.63 20.24 6.78 3.98.66 10.38-.6 15.12-2.5 1.63-.67 2.9-1.53 2.92-2.38.01-.86-1.27-1.74-2.92-3.3a24 24 0 0 1-4.17-5.73c-2.85-5.78-7.2-15.5-9.64-24.59-6.83-18.07-11.9-39.89-27.63-49.5l10.85-21.7-341.55.08 52.85 89.01s1.6 2.66 2.12 3.6c1.56 2.81 2.2 2.41 2.2 2.41a916 916 0 0 1-14.8 91.88s-.7-2.4-10.73-2.26c-29.37.42-39.66 33.06-15.1 47.52 2.32 1.37 6.26 4 10.14 6.05 1.12.57 15.2 8.84 15.2 8.84l-16.87-7.6-1.23 195.89s-35.19-10.58-58.4-11.57l.24-169.84-32.4 17.49L277.67 528l-17.75 1.15s6.72 14.3 8.22 17.3c3 6.03 10.55 19.41 15.7 27.87a768 768 0 0 0 6.09 9.65c23.65.63 47.86 4.18 69.85 13.96l-50.9 33.12c21.26 59.9 47.77 147.56 33 289.04l3.56-2.26.98-15.25 63.37-43.6 78.17 62.95s-5.67-.15-6.95-.2c-19.93-.71-33.97 19.68-38.79 36.7-8.49 30.02-9.6 37.42-13.51 85.01-1.55 18.82-5.27 36.97-9.07 54.9-2 9.02-1.7 9.91-1.7 9.91 39.76 1.27 81.28-2.92 112.43-9.81 0 0 13.15-62.41 17.84-88.9 4.42 2.54 8.36 3.65 12.35 3.56 30.83-3.35 28.2-45.63 12.3-46.81M435.63 110.73l16.16 56.7-39.59 3.66-32.86-59.9zm243.35-.8-40.7 86.32c-85.37-11.98-134.64-13.12-233.72.91l-51.51-86.06 13.55-.12 38.84 68.71 57.68-5.75-15.94-62.88 15.24-.47 15.76 61.71 89.28-.47c2.9-20.68 8.5-61.11 8.5-61.11l16.48.18-10.98 62.48 52.73 6.6 30.47-69.83zm-114.5.8-5.2 52.49-73.85.57-11.81-53.1zm89.47-1-25.07 62.29-36.53-4.88 9.98-56.55zm-433.87 101.4c5.7 4.47 7.5 5.63 6.53 7.5-1.08 2.1-2.37 1.68-7.2-2.37-14.43-12.26-29.87-15.1-43.04-11.55-37.08 12.98-43.53 55.85-17.71 85.06 25.67 22.7 70.78 9 78.03-26.5.21-6.55 5.9-9.1 5.9-.62-2.84 29.7-16.84 55.3-28.68 74.22h68.24c-16.54-24.72-22.1-39.2-26.98-76.1.23-5.8 4-6.69 5.3-1.24 3.93 26.16 24.3 46.93 51.26 42.72 54.92-11.08 55.2-85.67 7.18-97.73-11.96-2.48-26.34.67-37.41 10.55-4.03 3.59-5.45 4.16-6.86 2.79-1.57-1.52.32-3.04 4.87-7.09 25.36-18.69 24.2-52.8 1.14-71.88-21.7-15.1-47.27-13.8-65.65 2.35-23.83 22.18-15.8 54.28 5.08 69.89M699 170.76a406 406 0 0 0 3.66 11.6c5.96 16.15 8.4 21.49 12.3 26.86.65.88.84.78-.1 1.54-17.94 8.77-50.37-12.81-58.18-32.58.98-1.91 5.32-9.93 5.32-9.93 2.26 4.41.56 8.78 2.05 12.75.37 1.69 4.08-11.44 4.08-11.44s3.57 5.83 4.01 17.03c.07 1.73 4.66-7.51 4.66-7.51 5.78 7.77 5.45 21.25 5.45 21.25 6.51-7.9 2.45-12.42 12.5 7.7 1.16-2.09.6-4.31 2.12-3.72 4.41 1.7 10.62 4.8 12.88 4.18-2.95-3.7-8.67-5.64-10.23-10.54 0 0 4.53.39 4.83.16-5.14-2.79-10.08-5.2-13.93-10.57 1.14-.43 5.8.37 5.6-.12-6.96-6.28-17.4-11.36-2.3-9.94-9.82-6.9-20.75-11.67-3.7-11.16-12.17-5.74-15.44-9.28-13.18-10.26 1.27-.54 4.91 1.64 10.7-.21-9.76-3.98-13.78-5.8-14.17-7.12-.48-1.59 4.17-2.46 7.35-5.9 0 0-3.94.89-5.66-.93 0 0 1.92-5.5 3.38-8.68 12.45 11.28 17.33 27.27 20.56 37.54m104.77-21.9s-54.95 59.2-82.16 88.58l26.58.39 1.22 160.3c9.27 1.25 25.32.03 31.4 6.2 3.78 5.58-10.83 16.57-19.05 14.26-5.49-1.48-12.27-.3-12.27-.3l.56 178.62c-17.54-32.56-30.96-53.17-50.38-109.72 5.63-3.91 11.41-6.93 12.38-7.6-7.46-18-12.62-46.3-2.21-70.97l7.19 4.28c-5.27 15.05-7.2 37.32 1.4 57.9l1.98-2.08s-2.13-4.1-3.5-8.64c-1.22-4.04-2.99-9.25-3-14.65-.34-9.56-.05-17.78 2.21-25.46.78-2.5 1.88-6.24 2.47-7.38.58-1.15 1.14-2.22 1.13-2.54-21.14-8.56-36.3-21.09-54.52-30.05a34 34 0 0 1-1.73-.88c-2.31-1.29-1.7-1.73 1.91-3.16 7.61-3.03 10.71-6.7 10.54-14.09-.24-10.5-5.85-14.6-18.13-13.9-4.46.25-4.75.19-5.54-1.34-1.86-3.56-8.27-17.73-8.28-18.3 0-.33-1.34-3.52-2.97-7.08-2.53-5.68-5.44-11.54-6.63-17.47-.6-2.95-2.31-4.1-2.74-1.06-3.25 22.6-6.25 34.54-12.09 48.12-1.73 4.05-3.05 7.45-2.91 7.57.56.5 10.33 5.04 14.91 6.92 17.86 7.35 25.97 11.88 23.22 12.97-1.92.76-2.6 2.1-3.1 5.89-1.28 9.96-1.13 15.05.53 18.2 1.74 3.3 1.7 3.54-1.15 5.4-2.49 1.62-1.95 1.62-2.63 9.94-.8 9.86-.26 16.14-.26 16.14l4.45 5.7-4.52 5.63-1.04 25.85 6.1 4.63-5.7 5.64 2.04 23.57s-.75 2.18-1.74 3.26c9.67 99.68 47.03 200.14 103 268.61l.55 163.76 54.85 54.88zm-4.3 10.54v12.9l-46.57 50.17 46.58.8v10.94l-71.5-.13zm-.72 21.9.12 36.15-34.8.05zm-735.3 14.6c-29.1 1.1-24.34 33.87-11.73 43.58 7.64 7.08 7.72 7.62-1.69 2.28-17.1-11.12-35.2-3.37-35.71 15.28-.92 30.15 34.65 32.63 41.97 7.52.57-3.3 3.54-7.37 3.32-1.21-.48 10.15-13.33 35.38-14.36 35.06H77.7c-2.42-6-10.57-21.46-10.74-33.9.2-8.61 2.29-2.99 3.54 1.31 7.22 25.59 42.34 21.43 43.37-5.4.44-19.53-18.16-31.36-33.49-19.8-8.72 6.1-8.8 4.54-1.8-3.17 15.9-16.3 6.99-42.4-15.14-41.56m415.9 3.64 7.25-.3c-.29 7.28-3.17 40.92-6.63 70.38-3.89 33.22-11.85 61.87-13.38 61.87l-7.01-4.25c11.6-38.1 14.7-87.14 19.76-127.7m32.93-1.05c-1.02 20.57-5.33 34.95-6.65 59.26-1.62 29.7-6.73 66.68-20.1 97.35-4.5 10.33-12.8 20.03-24.47 24.6-20.45 8.02-37.81-17.33-23.99-35.97 10.93-14.74 28.04-14.55 33.23.36 4.3 12.32-9.5 27.8-20.5 22.99-7.64-3.34-5.7-17.12 2.9-20.36 3.55-1.34 6.57 3.17 4.8 7.22-1.37 3.2-1.52 5.2.36 3.84 7.76-5.48 1.91-18.53-7.73-13.65-12.86 6.51-10.7 25.65 2.26 26.48 16.4 1.61 29.05-18.58 37.16-56.94 8.88-42.92 6.68-81.35 15.2-115.04zm-20.95.72 8.62-.25c-.69 3.18-.81 6.58-1.4 10.48-3.4 22.52-5.41 55.38-8.9 81.14-4.9 36.35-13.7 58.44-13.93 55.75-.98-4.41-3.77-7.98-5.9-11.47 8.88-24.17 12.47-46.17 14.75-66.87 2.66-24.2 3.42-46.65 6.76-68.78m-36.85 2.09 7.56-.4c-2.94 48.2-10 91.88-14.18 110.63-1.29 5.66-1.72 8.1-2.79 8.58-1.19.52-3.17-1.4-7.99-4.07 7.33 1.04 13.22-81.93 17.4-114.74m11.8-.7 8.2-.8c-1.21 17.42-4.15 44.8-7.44 69.5-3.99 29.86-9.2 56.31-11.8 55.92l-6.85-2.37c4.59 1.43 15.87-87.64 17.88-122.25m-15.58.85c-5.36 36.48-5.87 79.1-16.99 113.17l-7.69-3.57c2.1.68 7.58-22.17 9.42-48.02 1.62-22.51 5.68-47 6.89-60.57zM438 202.78c-3.06 12.88-3.06 31.87-5.35 47.7-2.84 19.6-5.86 59.42-10.4 58.51l-7.85-3.98c4.12 1.24 11.31-74.2 15.69-101zm-20.68 3.2 7.98-1.08c-3.84 29.45-10.78 98.13-14.89 98.64l-7.47-3.97c2.9-12.06 10.3-53.08 14.38-93.6m-4.95 1.15c-3.3 32.38-6.4 65.16-13.3 90.34l-8.18-3.68s5.68-27.7 8.37-47.14c2.66-19.2 3.06-21.94 3.9-26.94 1.87-11.03 2.39-11.44 2.39-11.44zm350.22 33.19-.8 155.47-9.06-.35.38-155.37zm21.4 1.23a6.2 6.2 0 0 1 6.2 6.2 6.2 6.2 0 0 1-6.2 6.2 6.2 6.2 0 0 1-6.19-6.2 6.2 6.2 0 0 1 6.2-6.2m-146.02 57.05c6.42 11.74 11.34 16.04 17 18.28 10.2 4.06 24.27-5.92 19.14-19.89-2.68-7.34-9.52-8.43-18.18-6.97 0 0-3.73-2.65-8.12-15.95-5.2-15.75-13.36-31.95-13.36-31.95-.51 19.75-5.16 40.32 3.52 56.48m155.18-42.62c3.43 0 6.22 2.77 6.22 6.19s-2.8 6.2-6.22 6.2a6.2 6.2 0 1 1 0-12.4m-17 .25a6.2 6.2 0 0 1 6.2 6.2 6.2 6.2 0 1 1-6.2-6.2m-138.92-1.49c5.75 11.93 6.96 20.9 12.54 31.7a591 591 0 0 0 4.63 8.76c18.22-8.57 25.22 13 10.45 19.9-14.54 6.77-30.9-18.98-29.32-46.73.44-7.64 1.7-13.63 1.7-13.63m147.08 16.1a6.2 6.2 0 1 1-6.2 6.2 6.2 6.2 0 0 1 6.2-6.2m16.4 11.64v13.25l-32.37 31.4v-12.8zm-425.7 10.2c6.19.08 9.15 1.91 5.05 3.54-13.59 5.4-19.63 14-20.38 29.04-.03 7.6.88 8.6-3.8 4.36-11.95-16.72 5.27-37.04 19.12-36.94m11.37 5.44a13 13 0 0 1 4.5.6c3.64 1.15 2.3 1.23-3.84 5.3-11.7 7.78-15.27 15.4-15.79 30.95-.15 2.35.34 4.3.14 5.27-.16.75-1.07.51-1.61.48-2.25-.37-3.62-2.73-4.26-4.73-7.43-14.82 6.3-37.32 20.86-37.87m12.68 5.15c1-.02 1.9.14 2.61.5 2.86 1.43 1.8 1.64-3.44 5.38-9.3 6.63-13.9 16.38-15 27.27-.68 7 4.7 15.3-4.84 8.46-6.7-5.57-5.37-20.04 1.75-29.97 4.39-6.12 13.48-11.58 18.92-11.64m401.67-3.04v15.09l-32.38 30.76v-15.44zm-391.27 7.87c3.67.04 5.32 2.4 1.03 5.1-10.48 6.59-16.78 19.16-16.17 32.28.6 7.92.9 9.35-4.17 4.1-8.15-8.43-2.4-31.34 13.4-39.9a13 13 0 0 1 5.9-1.58m10.73 4.39c6.04-.15 6.88 2.9 1.48 6.68-10.3 7.2-17.18 19.87-17.02 31.39.08 5.35-.34 6.02-2.71 4.2-11.9-9.08.85-40.79 16.98-42.19q.67-.06 1.27-.08m212.93.99c1.47.1 4.11 5.35 8.25 16.31 4 10.58 10.43 23.9 11.8 24.4.42.17 2.24-.47 4.03-1.4 13.58-7.14 23.14 13.1 9.75 20.62-9.52 5.35-18.52-.4-26.82-17.15-9.78-19.75-12.46-34.41-7.72-42.31q.29-.5.7-.47m-201.87 5.39a9 9 0 0 1 4.72 1c3.51 1.83 3 3.17-2.4 6.34-5.55 3.26-7.74 5.3-10.94 10.14-4.98 7.54-5.82 10.44-5.82 20.16q0 11.87-7.1 1.31c-8.14-12.13 8.2-38.37 21.54-38.95m13.57 7.1c5.32-.12 8.84 2.06 3.74 4.75-16.24 8.58-23.06 20.9-19.96 36.07.98 4.75-4.45.73-7.75-5.75-4.82-9.46 4.07-27.73 16.2-33.31a20 20 0 0 1 7.77-1.76m183.25 13.94c1.01.07 2.2 2.77 4.79 9.43 1.7 4.34 3.97 9.53 5.06 11.54 1.1 2 1.86 3.9 1.68 4.19-.91 1.52-8.44-1.07-10.97-3.79-3.9-4.2-5.15-13.58-2.5-18.94.76-1.57 1.32-2.47 1.94-2.43M784 351.33a6.2 6.2 0 0 1 6.19 6.19 6.2 6.2 0 1 1-12.38 0 6.2 6.2 0 0 1 6.19-6.2m-635.6 10a6.2 6.2 0 0 1 6.18 6.22 6.2 6.2 0 0 1-6.19 6.19 6.2 6.2 0 0 1-6.19-6.2 6.2 6.2 0 0 1 6.2-6.2m256.06 1.85c6.77-.23 8.86 2.97 10 13.24.78 7.06 2.3 7.71 13.4 5.85 11.7-1.97 15.63 1.2 16.47 13.34.66 9.62.57 9.54 13.9 9.63 13.12.09 14.52 1.42 16.03 14.85 1.12 9.99.74 9.71 13.64 9.54 14.28-.2 15.57.86 16.53 13.5.78 10.24 1.47 10.9 10.49 10.15 8.84-.72 25.14-.8 28.19-.14 7.6 1.66 7.91 1.35 9.55-8.9 2.15-13.5 4.82-15.2 21.41-13.52 8.16.82 9.1.65 10.26-6.52 1.54-9.57 3.46-12.38 3.46-4.09.01 20.94-1.44 21.92-15.42 18.2-10.49-2.8-10.66-.66-11.76 9.45-.96 8.9-2.47 12.56-5.74 13.98-2.55 1.1-11.12.16-14.56-.81-1.3-.37-9.45-.57-19.1-.47-23.24.25-23.49.3-23.48-16.03.02-6.87-1.49-8.35-13.66-7.98-15.26.46-14.46.87-17.06-17.46-.9-6.35-1.4-6.6-14.04-6.41-13.77.2-16.9.4-16.09-11.2.74-10.56-1.83-13.32-13.32-10.65-12.23 2.85-14.57-2.35-15.77-11.78-1.1-8.73-1.84-6.55-7.68-7-6.48-.5-5.72-7.79 1.15-8.46 1.17-.12 2.23-.27 3.2-.3m389.1 3.18a6.2 6.2 0 0 1 6.2 6.18 6.2 6.2 0 0 1-6.2 6.2 6.2 6.2 0 0 1-6.18-6.2 6.2 6.2 0 0 1 6.19-6.18m-17.45.34a6.2 6.2 0 0 1 6.2 6.21 6.2 6.2 0 0 1-6.2 6.2 6.2 6.2 0 0 1-6.19-6.2 6.2 6.2 0 0 1 6.2-6.21m-618.45 10.32a6.2 6.2 0 0 1 6.21 6.2 6.2 6.2 0 0 1-6.21 6.18 6.2 6.2 0 1 1 0-12.38m-17.4.14a6.2 6.2 0 0 1 6.19 6.2 6.2 6.2 0 0 1-6.2 6.19 6.2 6.2 0 0 1-6.18-6.2 6.2 6.2 0 0 1 6.19-6.2m323.85 5.29 64.44 48.07 60.98-40.81-.36 14.89-60.56 40.27-76.43-59.18zm320.67.71a6.2 6.2 0 0 1 6.2 6.21 6.2 6.2 0 0 1-6.2 6.2 6.2 6.2 0 0 1-6.19-6.2 6.2 6.2 0 0 1 6.2-6.2m-105.54 8.1 15.29 24.84-15.26 11.07 13.88 17.75-14.97 15.34 16.46 10.46-15.39 21.44-21.3 9.46 21.3-28-17.63-12.1 16.72-18.02-15-19.67 15.52-12.14-16.8-27.56 1.1-1.34zM396.8 385.8 510 470.49s10.45 7.86 13.45 9.77c6.35 4.02 7.62 2.41 13.97-1.94 14.3-8.5 48.94-32.06 48.94-32.06l-.29 12.2s-34.82 26.06-54.1 36.87c-2.74 1.5-5.67.08-7.73-1.48-42.05-33.3-85.07-65.59-127.7-98.21zm260.14 1.34c.47.85 2 1.16 2.73 2.3 5.02 7.77 14.11 21.57 14.11 21.57l-15.92 12.62 14.62 19.2-18.26 18.55 18.66 12.7s-11.6 17.74-20.35 25.85l-.21-13.78 7.48-9.02-8.59-5.91-.02-18.95 8.73-9.19-8-8.08 1.42-20.72 7.63-6.03-6.29-8.62zm-508.33 4.23c3.43 0 6.22 2.77 6.22 6.19s-2.79 6.2-6.22 6.2a6.2 6.2 0 0 1-6.18-6.2 6.2 6.2 0 0 1 6.18-6.2m650.9 22.6-31.5 29.1v-13.22l31.5-30.91zM166.6 399.74v15.95l-33.63 31.06v-15.4zm632.88 18.3v15.83l-31.5 29.6v-15.69zm-37.05 2.48.65 514.78 36.57 38.69.02 12.83-46.28-47.94-1.05-517.93zM166.6 419v17.92l-33.63 30.68v-16.86zm230.08 3.28 44.48 34.63-.18 120.71a286 286 0 0 0-46.15-28.48zm388.16 39.05a6.2 6.2 0 0 1 6.19 6.19 6.2 6.2 0 0 1-6.2 6.2 6.2 6.2 0 0 1-6.2-6.2 6.2 6.2 0 0 1 6.2-6.2m-330.27 5.9.16 123.18-8.77-8-.5-122.16zm-303.77 1.2a6.2 6.2 0 0 1 6.2 6.18 6.2 6.2 0 1 1-6.2-6.19m642.32 8.78a6.2 6.2 0 1 1-.02 12.41 6.2 6.2 0 0 1 .02-12.4m-17.65.76a6.2 6.2 0 0 1 6.2 6.2 6.2 6.2 0 0 1-6.2 6.19 6.2 6.2 0 0 1-6.19-6.2 6.2 6.2 0 0 1 6.2-6.18m-315.94-.6 27.13 25.36-27.95 26.51-.23-12.23 15.55-15-15.63-16.2zm10.32 2.23 22.63 16.7-3.55 4.3zm-309.89 3.75a6.19 6.19 0 1 1 0 12.38 6.19 6.19 0 1 1 0-12.38m-18.16.3a6.2 6.2 0 0 1 6.2 6.21 6.2 6.2 0 0 1-6.2 6.2 6.2 6.2 0 0 1-6.19-6.2 6.2 6.2 0 0 1 6.2-6.2m444.63 2.24c4.35 49.28 7.38 83.38 20.1 129.85l-58.51 37.42.53-142.72zm161.29 112.75-.23 169.24c-55.23-78.59-85.01-170.45-94.6-257.51 0 0 29.65-13.66 44.05-22.05 15.25 35.74 8.67 35.7 50.78 110.32m37.86-105.6a6.2 6.2 0 0 1 6.19 6.22 6.2 6.2 0 0 1-6.2 6.2 6.2 6.2 0 0 1-6.19-6.2 6.2 6.2 0 0 1 6.2-6.21m-634.56 6.66a6.2 6.2 0 0 1 6.2 6.2 6.2 6.2 0 0 1-6.2 6.2 6.2 6.2 0 0 1-6.2-6.2 6.2 6.2 0 0 1 6.2-6.2m345.3-.57 21.5 16.4.04 12.44-25.7-24.73zm-7.37 6.57 26.88 26.56-28.18 28.11-27.79-26.33zm202.36.93-25.91 10.62c9.9 89.81 35.63 157.13 70.3 211.7L736.5 603c-17.9-28.33-31.46-62.46-45.18-96.35m108.92 1.85v14.13L768 552.2v-14.07zm-311.3 7.77-17.12 16.72 17.24 16.68 16.6-16.68zm-322.34-1.85v15.03l-32.02 30.92V544.4zm360.55 8.42.27 143.75-7.13 3.36.5-150.16zm-38.53 2.18 7.77 7.8-8.14 8.18-7.65-7.8zm311.62 1.5v16.29L768 572.92l-.53-15.54zM443.37 587.6c33.3 28.8 58.87 72.52 86.95 96.96 11.36 9.84 39.12 25.2 54.11 29.93 17.04 5.37 30.3 7.57 47.4 7.87 13.5.24 13.56.32 13.56.32l5.72 10.16-9.46-.12-.61 35.87c10 .49 19.8-.07 29.48-1.27l3.5 6.54c-68.85 9.33-136.16-16.76-176.63-50.1-18.46-15.18-33.46-33.7-51.71-60.68-35.15-54.81-97.05-81.28-154.7-81.9l-4.77-7.42 9.63.32s.98-6.9 1.1-18.61c.14-13.2.06-15.51-.97-15.9-6.98-.8-28.03-.37-27.42.52l-4.33-7.74c68.72-7.09 136.35 16.83 179.15 55.25m-276.76-54.1v14.74l-32.02 30.2V563.7zm351.98 1.25-.85 13.18-15.26 15.1 16.24 15.76-.39 11-28.64-26.55zm-209.17 4.69c-1.47 0-2.36.12-2.53.4-.38.64-.17 6.3-1.41 26.78-.46 7.5-.98 7.53 5.31 8.3 5.29.17 17.1 3.2 24.97 4.12 6.63.88 5.24-1.13 7.1-6.43 2.04-5.8 3.15-10.93 5.68-19.2 2.31-7.57 1.25-7.81-13.68-10.6-10.31-1.93-21.02-3.37-25.44-3.37m148.95-1.26 25.92 25.87-25.51 25.91-.46-12.52c4.93-4.38 10.79-9.36 15.12-14.3l-15.04-15.36zm-129.98 8.39 2.79 4.57 6.67 1.1-1.16 4.66 3.4 4.8-4.18 3.13.14 5.8-5.23-.19-4.54 3.25-3.6-4.56-5.23-.17.28-6.5-3.39-2.86 4.05-3.64-.52-5.75 6.45 1.08zm-42.08 7.8 4.12 2.7-4.19 2.88-.19 4.43-2.56 2.18-9.4-18.4 6.12 2.48 4.67-3.1zm75.45-4.26c-3.3.05-3.72 6.14-7.28 17.64-4.97 16.04-5.33 14.56 4.2 17.9 4.25 1.5 12.37 4.24 16.66 6.26 10.48 4.92 10.53 4.9 14.43-1.78 1.74-2.97 5.03-10.25 7.33-14.02 5.74-9.42 5.9-8.96-4.65-14.05-6.21-2.98-9.97-4.2-23.03-9.5-3.62-1.47-5.94-2.48-7.66-2.45m10.44 10.64 4.58 2.87 5.13-2.14 1.03 5.53 5.62 2.17-1.6 5.44 2.48 4.07-4.79.93-3.48 7.53-5.25-3.68-5.57 2.01-1.55-4.14-5.71-2.76 2.08-4.56-2.86-6.16 6.54-.5zm114.92 5.65 28.61 28.04-26.05 26.1-28.6-28.12zm298.46 5.11a6.2 6.2 0 0 1 6.19 6.2 6.2 6.2 0 0 1-6.2 6.19 6.2 6.2 0 0 1-6.2-6.2 6.2 6.2 0 0 1 6.2-6.19m-374.84 1.36c-1.66.03-2.61 1.56-4.05 4.5a181 181 0 0 1-7.4 12.94c-7.35 11.52-7.36 10.93-.02 15.44 3.11 1.91 10.28 7.82 16.44 13.38 5.7 5.16 5.08 3.94 17.37-8.34 8-8.01 12.95-10.26 9.83-14.48-7.6-6.51-13.83-11.26-22.06-17.49-5.43-4.05-8.23-5.97-10.11-5.95m77.73 3.13-16.87 16.54 19.02 17.23 15.76-16.2zm-289.02-5.6.18 129.31c18.56 31.73 37.61 63.74 47.52 99.45l27.22-13.34c-13.02-105.65-43.3-164.24-74.92-215.43m-48.46 8.12a6.2 6.2 0 0 1 6.2 6.2 6.2 6.2 0 0 1-6.2 6.19 6.2 6.2 0 0 1-6.19-6.2 6.2 6.2 0 0 1 6.2-6.19m337.68 6.9 8.13 7.47-7.48 8.14-8.22-8.5zm304.5 1.22a6.2 6.2 0 0 1 6.2 6.2 6.2 6.2 0 0 1-6.2 6.18 6.2 6.2 0 0 1-6.2-6.19 6.2 6.2 0 0 1 6.2-6.19m-16.64.63a6.2 6.2 0 1 1 0 12.38 6.2 6.2 0 0 1-6.2-6.19 6.2 6.2 0 0 1 6.2-6.2m-361.98-.4 4.71 3.49 5.52-2.37.4 6.5 5.03 2.48-3.17 4.6 1.91 6.07-5.44.18-4.23 5.55-3.8-3.65-7.4.5-1.19-6.32-3.2-2.51 2.5-4.18-1.83-5.57 6.34-.44zm-272.67 6.9a6.2 6.2 0 0 1 6.19 6.2 6.2 6.2 0 0 1-6.2 6.19 6.2 6.2 0 0 1-6.19-6.2 6.2 6.2 0 0 1 6.2-6.19m17.82.18a6.2 6.2 0 0 1 6.2 6.22 6.2 6.2 0 0 1-6.2 6.2 6.2 6.2 0 0 1-6.19-6.2 6.2 6.2 0 0 1 6.2-6.22m358.68 14.78-14.77 13.8 14.56 15.17-.44 11.64-25.83-25.76 26.25-25.78zm-146.06-3L316.9 642.5l-3.37-9.2 49.42-32.37zm412.44-3a6.2 6.2 0 0 1 6.19 6.22 6.2 6.2 0 0 1-6.2 6.2 6.2 6.2 0 0 1-6.2-6.2 6.2 6.2 0 0 1 6.2-6.21m-332.39 3.74c-2.56.18-5.19 3.21-10.16 8.5-4.88 5.19-10.63 11.28-11.86 12.14-3.86 2.71-3.67 3.37 3.03 10.9 2.04 2.28 5.88 6.94 8.54 10.38 2.66 3.42 6.9 7.72 7.74 8.6 2.73 2.86 4.22 2.26 16.72-6.71 15.19-10.9 15.11-9.29 1.16-27.3-8.04-10.37-11.87-16.74-15.17-16.51m-301.57 3.8a6.2 6.2 0 1 1 0 12.4 6.2 6.2 0 0 1-6.22-6.2 6.2 6.2 0 0 1 6.22-6.2m325.18 2.26L486 623.26l-.9 1.07zm323.9 2.39v18.62L769 662.03V645zm-345.64 5.44 3.75 5.16 6.36-.4-.94 6.07 3.38 2.47-3.3 4.6-.26 5.81-5.25-1.24-4.3 5.17-4.24-4.96-4.98.58.16-6.04-5.08-2.88 3.6-3.94.1-6.76 7.4-.27zm152.69.39 3.08 9.39-77.16 50.2-6.74-7.74zm-202 6.28 6.13 4.63-80.98 52.07-2.45-6.78zm-236.89-2v15.5l-34.17 32.91v-15.99zm320.71 3.72.99-.81 26.48 25.43-5 5.32zm-73.14 7.47.73 150.18-7.06-4.88.53-142.5zm4.35 3.46 5.75 5.06-5.5 5.38zm379.92-1.28v15.23L769 682.93V667zm-631.84 7.32v14.31l-34.17 32.66V678.2zm318.42 1.94c-.89 0-1.84.56-3.24 1.66-1.27 1-4.37 3.16-6.9 4.8-9.3 6.04-17.17 11.7-17.52 12.54-.72 1.73 8.6 13.9 21.55 28.49 5.1 5.74 4.95 6.85 10.06 1.74 4.06-4.61 18.94-17.24 18.5-20.61-.81-3.87-5.92-8.26-18.62-25.44-1.7-2.16-2.7-3.15-3.83-3.18m-57.38 1.58 20.32 29.06-2.7 2.7-24.93-24.59zm-39.69 3.42.04 140.13-38.13 27.08c.7.37-4.68-84.19-19.26-129.28zm94.82 4.94 3.74 6.97 5.65-.95-.74 6.4 4.79 3.76-4.71 6.52.62 4.64-5.54-1.26-5.06 5.22-3.47-6.64-7.28.11 1.02-6.38-5.09-4.28 5.55-3.27.77-5.83 4.78.41zm33.1 1.09.62 5.72-3.4-2.95zm-97.49 10.17-.05-8.19 24.31 23.46-24.83 23.27.18-11.05 14.13-13.47zm200.92-4.53 3.45 10.44-49.95 30.76-10.07-5.23zm164.53 17.27a6.2 6.2 0 1 1-6.19 6.19 6.2 6.2 0 0 1 6.2-6.2M467.4 701.75l-17.55-17.56 2.2-2.4zm45.2-15.79c-5.94 5.09-18.63 19.75-18.6 22.17.01 2.42 17.56 17.59 28.12 24.32 3.31 2.11 4.63 2.18 5.91.27 18.24-27.25 19.02-26.34 11.8-31.65-7.34-5.61-15.92-13.96-21.79-16.84-2.46-1.2-2.89-.46-5.44 1.73m-65.76 1.33 28.93 27.74-26.83 25.87-27.84-29.37zm-295.35 2.1a6.19 6.19 0 1 1 0 12.37 6.19 6.19 0 0 1 0-12.37m365.47 5.57 4.87 4.33 5.8-1.51 1.3 5.73 5.6 2.06-3 5.83.42 7.36-5.64-1.06-3.9 6.04-5.73-5.77-6.56.55.36-6.43-5.8-2.8 3.68-4.23-2.3-5.78 6.95 1.1zm276.55 2.58a6.2 6.2 0 0 1 6.2 6.2 6.2 6.2 0 0 1-6.2 6.19 6.2 6.2 0 0 1-6.22-6.2 6.2 6.2 0 0 1 6.22-6.19m-361.87 14.62 17.13 17.53 15.76-15.12-16.7-17.64zm344.79-14.37a6.2 6.2 0 0 1 6.19 6.19 6.2 6.2 0 0 1-6.2 6.21 6.2 6.2 0 0 1-6.19-6.21 6.2 6.2 0 0 1 6.2-6.2m-633.48 6.46a6.2 6.2 0 0 1 6.2 6.22 6.2 6.2 0 0 1-6.2 6.19 6.2 6.2 0 0 1-6.2-6.2 6.2 6.2 0 0 1 6.2-6.21m18.15.06c3.42 0 6.2 2.8 6.2 6.22a6.2 6.2 0 0 1-6.2 6.19 6.2 6.2 0 0 1-6.2-6.2 6.2 6.2 0 0 1 6.2-6.21m286.8 1.38 7.78 8.04-7.2 7.6-8.06-8.3zm105.82 5.51c-3.99 2.86-14.83 23.4-16.69 27.9.02 1.1 5.23 4.4 11.76 7.45 5.56 2.6 23.62 9.84 25.28 10.25 3.63.88 4.26-.5 4.86-2.86a482 482 0 0 1 3.36-11.21c5.6-18.17 7.27-17.31-1.05-20.07-2.87-.96-11.88-4-17.55-6.6-5.62-2.6-8.16-4.9-9.97-4.86m231.05 3.29a6.2 6.2 0 0 1 6.2 6.2 6.2 6.2 0 0 1-6.2 6.2 6.2 6.2 0 0 1-6.2-6.2 6.2 6.2 0 0 1 6.2-6.2m-295.86 8.5.97 121.81-9.53-7.45-.27-122.22zm-42.63 20.76-26.32 26.78-.17-13.64 14.74-13.34-15-15.7.3-10.54c9.6 7.86 17.8 17.52 26.45 26.44m-294.92-23.37a6.2 6.2 0 0 1 6.2 6.2 6.21 6.21 0 1 1-6.2-6.2m406.14-.26 5.3 4.42 4.45-2.67 2.56 4.56 6.38.89-2.86 6.96 3.75 5.37-6.23 1.16-1.55 7.42-6.1-3.63-4.63 2-3.38-6.28-7.22-.29 3.94-6.83-3.71-5.4 5.24-.35zm-81.22.48-.05 10.74-11.45 11.6 11.5 12.52-.06 12.5-23.8-24.24zm122.09 7.05c-2.4.08-2.42 2.6-4.26 10.85-.4 1.79-1.67 6.57-2.82 10.64-3.46 12.33-3.9 12.57 6.8 14.7 6.2.91 33 7.16 33.56 2.89.67-7.27 1.1-24.36 1.2-30.17.23-1.94-.23-3.78-2.17-4-12.22-1.47-25.82-4.68-32.31-4.9m-104.45.52c15.22 10.39 29.96 20.98 47.47 30.47l.44 125.27-48.02-35.75zm305.57.35v15.36l-32 30.56v-14.67zm-187.48 5.34 2.77 5.94 5.83-1.95-.03 7.1 5.2 3.28-6.27 2.9-.56 8.63-6.34-1.96-5.23 3.24-4.63-4.86-5.67-.1 2.08-7.69-3.66-3.5 5.32-2.61.43-6.86 5.69 3.4zm-443.3-1.14v14.8l-34.84 32.06v-12.94zm486.93 9.27 7.81 13.22-2.82 5.34-5.24-2.56-5.76 2.13.88-7.06-4.44-3.54 4.5-4.13-.2-5.19zm-206.37 4.36L476 774.03l-27.21 28.1-26.72-28.08zm350.22 17.33-32 29.73v-14.46l32-30.35zm-630.78-12.09v14.45l-34.84 32.64V785.3zm280.63 5.17L432 773.9l17.2 17.27 17.39-16.84zm.23 9.84 7.43 7.62-7.1 7.38-7.66-7.45zm-29.79 10.55 26.49 27.19-3.05 3.59-23.46-18.23zm56.85 2.2.71 12.27-14.45 12.33 13.2 13.85.37 12.75-25.11-25.84zm308.62 12.46a6.2 6.2 0 0 1 6.2 6.19 6.2 6.2 0 0 1-6.2 6.2 6.2 6.2 0 1 1 0-12.4m-633.14 7.5a6.2 6.2 0 0 1 6.2 6.19 6.2 6.2 0 1 1-12.38 0 6.2 6.2 0 0 1 6.18-6.2m126.81 3.8-19.54 29.23 15.4 10.32-14.58 19.6 15.17 18.25-15.27 13.1 15.5 26.53c-6.16-1.21-12.43-5.32-18.1-8.17l-11.7-22.23 13.45-11.57-13.64-15.83 14.3-16.95-14.34-10.06 15.65-24.06zm513.73 3.9a6.2 6.2 0 0 1 6.2 6.19 6.2 6.2 0 0 1-6.2 6.2 6.2 6.2 0 0 1-6.19-6.2 6.2 6.2 0 0 1 6.2-6.2m-384.36-.48 134.88 103.97-.55 13.8-134.9-103.69-57.3 40.45.52-14.73zm367.84 1.32a6.2 6.2 0 0 1 6.2 6.19 6.2 6.2 0 0 1-6.2 6.2 6.2 6.2 0 0 1-6.2-6.2 6.2 6.2 0 0 1 6.2-6.2M462.2 821.09l-1.42.27-14.72-10.75 3.21-3.6s9.65 10.65 12.93 14.08m-300.9-5.99a6.21 6.21 0 0 1 0 12.41 6.2 6.2 0 0 1-6.2-6.2 6.2 6.2 0 0 1 6.2-6.21m-16.7.08a6.2 6.2 0 1 1 0 12.39 6.2 6.2 0 0 1-6.2-6.2 6.2 6.2 0 0 1 6.2-6.19m640.66 8.18a6.2 6.2 0 0 1 6.2 6.21 6.2 6.2 0 0 1-6.2 6.2 6.2 6.2 0 0 1-6.2-6.2 6.2 6.2 0 0 1 6.2-6.21m-633.2 6.86a6.2 6.2 0 0 1 6.2 6.21 6.2 6.2 0 0 1-6.2 6.2 6.2 6.2 0 0 1-6.19-6.2 6.2 6.2 0 0 1 6.2-6.21m647.43 11.54v13.67l-30.25 29.32v-13.2zm-408.29 4.1c4.5-.04 10.53.2 18.64.47 6.95.24 14.62.39 17.06.32 9.62-.26 12.76 3.01 12.93 13.4.16 9.24.12 9.2 12.21 9.71 14.56.62 18.42 4.35 18.61 18.12.08 5.35 4.41 7.46 12.9 6.25 13.37-1.9 15.97-.06 17.52 12.37 1.3 10.37.6 9.83 12.86 9.75 13.17-.09 16.11 2.12 16.26 12.26.1 5.9 1.53 7.66 6.62 8.12 5.45.49 7.8 3.28 5.1 6.05-.49.5-3 .81-6.97.87-8.4.12-11.18-2.52-12.74-12.14-1.09-6.68-1.76-7.03-12.93-6.72-14.24.4-15.36-.47-16.9-12.9-1.32-10.66-3.11-11.76-15.36-9.44-8.9 1.68-13.62-2.24-14.78-12.27-1.29-11.24-1.79-11.66-14.43-12.1-12.65-.45-16.17-2.67-16.28-10.28-.17-11.79-1.66-12.86-17.23-12.39-7.55.23-15.28.1-19.73-.36-9.42-.98-9.38-1.02-10.32 8.04-1.4 13.53-3.4 14.77-21.3 13.45-7.47-.55-8-.2-8.5 5.49-.65 7.12-3.29 11.5-5.3 8.82-1.07-1.4-1.08-1.53 0-11.96 1.17-11.67 1.31-11.75 16.52-10.58 10.3.79 9.8 1.16 10.91-8.2 1.34-11.4 1.13-14.02 14.63-14.15m-221.98-1.06v15l-35.35 32.83v-14.55zm109.82 17.64 7.7 10.5-2.5 19.55-6.54 4.91 4.63 9.3-1.48 11.4-1.83 1.05-12.84-24.91 15.2-13.36-15.58-18.98 14.71-19.82-15.26-10.73 18.34-27c3.17-3.86 3.36 11.46 3.36 11.46l-7.6 11.5 8.5 7.34h.01l.03 18.2zm9.7-8.85.83-24.5-6.63-5.13 5.12-8.5-.35-21.7-1.54-1.06c-12.75-155.37-88.8-247.17-100.71-268 0 0-2.64-2.12-2.16-7.46.21-2.31.32-16 .22-30.44-.48-73.64.15-124.1.15-124.1l-55.92-59.59.33 21.8 2.74 1.99-.01 99.28-2.33.13s-.71 26.7-.53 45.03l3.33.1-.2 68.22-2.84.34.17 44.2h3.08s.72 46.34-.38 68.88l-2.3.14.16 43.93 2.6.2.17 62.85-3.2.48.86 41.49 2.62.14c.94 25.63.5 69.94.5 69.94l-3 .14.74 41.19 2.14.14-.62 72.3-1.96.24.75 42.7 2.1.2-.35 35.51-1.45.25-.34 13.28 1.55 3.52.1 47.32-1.18.52-.35 23.77 86.72-87.68-31.92-.96.02-28.33c.01-46.76.63-84.5-.77-130.1-.42-.41-3.59-.92-7.04-1.12-16.43-.96-20.9-2.3-20.95-6.23-.07-4.88 7.38-10.92 13.56-11.01 1.4-.02 3.74-1.41 3.74-1.41l-1.99-518.83-38.8-40.63.17-12.9 47.81 50.6 1.8 518.56 1.8-.86.14-174.14c24.5 36.64 38.24 72.95 51.87 109.26 0 0 4.82-1.66 5.02-1.76.04-.04-1.72-.61-1.72-.61-13.9-46.41-31.5-80.06-54.31-115.18l.33-168.77c58.42 82.51 86.66 156.73 98.4 263.7l-29.57 14.76-2.87 3.83-22.33 11.16-2.14-3.56-13.54 9.38c10.45 18.25 10.07 44.47 1.55 58.36l3.67 2.28c.25 1 14.02-28.4-1.39-58.3l10.1-6.22c14.54 30.08 7.79 62.48.93 70.83 0 0 10.53 6.71 18.1 10.82 8.23 4.47 15.55 8.55 25.4 11.73 6.08 2.47 9.95-.43 9.92-.5l2.96-16.79-4.7-6.4 5.47-4.4 2.49-25.71-5.87-5.93zm510.75 6.86V877l-30.25 28.67v-16.3zm-630.27 17.74-35.35 32.44v-13.5l35.35-33.18zm618.25 22.07a6.21 6.21 0 0 1 0 12.41 6.2 6.2 0 0 1-6.2-6.2 6.2 6.2 0 0 1 6.2-6.2m-604.14 10.02.04 152.85h-9.33l.43-154.71zm-31.22-1.39a6.2 6.2 0 1 1 0 12.4 6.2 6.2 0 0 1-6.19-6.2 6.2 6.2 0 0 1 6.2-6.2m626.53 5.91a6.2 6.2 0 0 1 6.2 6.2 6.21 6.21 0 1 1-6.2-6.2m16.7.27a6.2 6.2 0 0 1 6.2 6.19 6.2 6.2 0 0 1-6.2 6.2 6.2 6.2 0 1 1 0-12.4m-633.56 9.32a6.2 6.2 0 1 1 0 12.4 6.2 6.2 0 0 1-6.2-6.2 6.2 6.2 0 0 1 6.2-6.2m319.11.18c32.29 4 23.73 37.87 10.12 44.9-18.53 8.64-33.38-8.75-21.54-26.36 8.68-12.93 25.2-4.38 18.83 9.79-3.6 7.97-11.05 7.04-10.99-1.03 2.67-7.67.22-4.93-1.85-2.23-6.54 8.5 6.64 17.52 13.41 9.13 4.16-5.15 5.03-11.26 3.6-16.14-2.42-8.35-12.05-13.22-22.94-5.5-13.02 15.6-19.97 35.8-23.82 58.4-8.19 48.07-8.6 98.66-15.62 111.49l-7.65-.18c11.12-55.03 11.18-102.13 23.04-145.51 5.87-21.5 20.86-36.8 35.41-36.76m-336.05.26a6.2 6.2 0 0 1 6.2 6.21 6.2 6.2 0 0 1-6.2 6.2 6.2 6.2 0 0 1-6.2-6.2 6.2 6.2 0 0 1 6.2-6.21m131.01.85c-8.51.17-17.15 7.22-16.48 16.23.8 10.94 7.28 15.81 17.95 14.72 5.7-.6 5.54-.69 9.38 6.19 3.46 6.18 12.57 32.58 12.63 36.59-4.38-5.81-14.6-16.6-24.04-16.15-10.13.73-18.66 10.34-11 23.94 4.07 6.67 11.31 7.97 18.68 5.77 11.03 17.15 13.1 34.33 16.61 54.26 0 0 4.36-42.66 5.68-59.68 2.5-26.09 6.07-42.98 16.15-63.66-8.4-4.86-17.42-8.67-26.48-12.16-3.6-1.39-7.38-1.41-10.95-3.74a14 14 0 0 0-8.13-2.31m512.29 3.48a6.2 6.2 0 0 1 6.19 6.2 6.2 6.2 0 1 1-12.38 0 6.2 6.2 0 0 1 6.19-6.2M293.3 942.83c6.38 10.37 12.6 25.34 13.16 34.76.21 6.23-1.02 13.9-2.08 21.06-.52 3.53-1.86.08-4.28-7.57-10.03-31.74-12.69-37.81-19.66-36.23-3.97.9-8.1 1.06-10.81-.43-8.84-4.88-9.65-21.23 3.25-24.36 10.21-2.22 16.78 6.84 20.42 12.77m-.23-7.89c12.87 5.07 21.09 12.71 18.74 25.14-1.03 4.68-1.72 8.53-2.98 8.03-1.44-.57-3.44-6.18-7.43-15.83-.91-3.12-10.08-17.28-8.33-17.34m212.94.54q1.02-.15 3.19 1.9c10.15 9.99 4.64 32.5-8.86 38.99-5.57 3.82-15.8 3.2-15.86-.5-.02-1.44.3-1.83 1.73-1.85 11.37.09 23.45-15.7 20.1-32.53-.41-2.53-1.18-5.88-.3-6m-353.64 5.46a6.2 6.2 0 0 1 6.2 6.2 6.2 6.2 0 1 1-6.2-6.2m364.3 1.9c.71-.1 3.17.96 4.8 2.92 9.56 11.52 1.8 31.14-13.22 37.86-5.74 3.1-10.57.96-9.35-2.23 10.23-4.25 19.89-15.23 18.87-30.26-.38-5.26-2.15-8.13-1.1-8.29m-202.57 2.1 3.47 1.64-1.43 3.01c-.68-1.8-.66-2.5-2.04-4.65m213.43 1.24c.76-.01 2.47-.27 4.08 1.3 6.18 6 7.16 22.83 1.22 31.16-2.78 3.9-11.42 10.99-14 11.7-3 .37-5.09.82-10.08-1.46-1.68-.05.75-1.63 3.9-3.45 11.19-6.46 18.61-17.99 16.67-28.8-1.21-6.7-3.24-10.41-1.79-10.45m11.34 5.43c2.96.25 5.25 2.86 6.67 5.07 7.34 10.55 1.24 32.74-13.8 37.34-10 3.06-13.73.17-5.63-4.57 11.64-6.79 17.69-20.06 14.32-30.6-1.62-5.04-3.14-7.13-1.56-7.24m12.12 7.72c3.5.06 6.21 2.74 7.44 5.5 2.9 6.82 2.45 16.36-1.32 23.07-3.77 6.7-10.97 12.27-18.97 13.09a11 11 0 0 1-5.49-.8c-3.52-1.52-2.3-1.74 4.31-5.2 10.55-5.51 16.77-16.97 15.18-29.63-.6-4.75-2.52-6.01-1.15-6.03m-381.78-2.3v16.36l-34.4 32.47V989.9zm292.33 2.12c.66.68 4.55 9.96 5.04 11.87-8.07 11.59-10.34 30.61-11.59 45.02-4.54 40.85-9.27 90.16-11.34 90.62l-8.96.2c3.41 2.27 7.8-67.73 14.74-112.08.53-3.48 7.97-37.7 12.11-35.63m104.1 7.24c11.81 8 5.5 32.95-10.94 39.13-5.96 2.29-8.15 2.58-10.85-.04-1.7-1.66-3.33-2.21 1-3.75 12.16-3.17 20.74-14.51 18.68-27.69-.24-3.2-3.25-11.67 2.1-7.65m81.88 2.12c13.99 16.62 23.87 41.71 27.22 59.72 1.6 9 2.42 17.46 1.7 19.46-1.3 3.56-3.3 2.85-4.52-1.37-11.43-54.7-71.27-56.53-90.08-10.02-17.19 44.78 31 85.26 67.03 56.01 5.04-4.1 6.77-5.5 8.2-3.84.93 1.1-1.4 4.29-5.87 8.02-41.06 38.01-4.28 82.2 34.5 79.99 45.98-2.62 61.67-57.4 23.4-84.11-2.54-1.97-4.13-2.77-3.99-4.16.3-2.92 2.36-2.5 7.02 1.41 36.96 32.98 82.67-2.72 76.08-41.26-11.2-65.45-83.47-48.94-94.52-3.14-1.78 5.64-4.78 6.46-4.85 1.12-.05-3.68.38-7.98 1.24-12.66 2.82-25.64 28.27-65.17 28.27-65.17zm-177.47 4.8 5.38 3.44c-5.8 17.29-7.94 37.67-10.32 57.39-2.86 23.87-5.39 48.43-8.87 71.86l-8.22.3c4.3-14.48 6.27-54.93 10.52-88.81 2.48-17.14 5.18-40.74 11.5-44.19m9.34 5.64 6.88 4c-2.43 9.64-5.3 20.21-6.73 30.32-3.16 22.49-4.41 49.77-11.69 91.74l-7.45.63c1.88-13.48 5.42-43.5 8.45-71.13 3.52-32.07 9.05-56.33 10.54-55.56m-310.16-1.08v16.06l-34.4 31.68v-14.79zm321.81 6.16s5.94 3.34 6.69 3.73c-4.48 17.72-6.67 34.19-8.88 50.25-2.97 21.66-5.18 42.75-9.28 66.56l-7.94.5c3.95-18.26 8.47-61.17 12.03-91.42 2.06-17.56 6.34-29.96 7.38-29.62m-189.4 36.07c.1 12.1-2.55 30.86-2.55 30.86-1.05.6-4.3-27.48-15.64-40.18-13.82 6.58-25.74-8.85-16.32-19.46 18.4-15.81 34.5 17.96 34.5 28.78m199.77-31.24 9.62 4.44c-1.18-.21-3.45 6.41-5.66 16.75-6.74 31.48-13.42 93.53-14.51 93.5l-7.42.61c2.4-16.66 5.7-43 9.15-66.28 3.91-26.39 7.57-48.89 8.82-49.02m13.37 6.04 7.3 4.39c-.63-.47-3.27 7.35-4.55 12.79-6.58 31.41-9.56 58.94-13.62 89.4l-7.97 1.03c-.6.89 6.88-59.94 13.05-90.67 2.1-10.49 5.2-17.3 5.8-16.94m11.38 5.46 7.83 3.87c-8.52 24.1-9.3 47.14-17.46 95.51l-8.28 1.5c3.33-30.97 8.06-64.22 14.84-94.53a14.4 14.4 0 0 1 3.07-6.35m329.98 1.17c6.6 9.06 10.4 20.96 11.57 31.85.37 3.73.07 6.23-1.14 6.24-1.01.02-1.51-.77-2.4-3.83-4.5-23.23-34.01-24.32-41.14-3.15-8 20.62 12.24 37.91 28.26 28.93 5.24-3.29 17.21-10.54 5.49.86-4.41 4.51-8.5 9.35-8.87 14.33-1.2 15.95 9.29 26.24 21.56 27.24 13.74 1.13 23.25-8.63 23.7-21.78.2-7.05-3.13-15.06-9.63-21.26-6.17-5.87-6.58-8.12-.35-4.05 6.86 4.48 14.31 7.98 20.14 6.81 27.78-5.6 21.91-42.56-2.15-44.91-8.84-.73-17.51 4.52-21.85 15.47-4.2 9.87-5.18 6.49-3.52-.64 2.91-11.64 6.78-22.61 14.1-32.11zm-318.78 4.48 8.8 3.54-18.44 88.8-7.44 1.01c4.63-25.6 7.03-55.21 13.28-78.54 1.32-4.94 2.06-10.5 3.8-14.81m-383.65 14.07a6.2 6.2 0 1 1 0 12.38 6.2 6.2 0 0 1-6.2-6.19 6.2 6.2 0 0 1 6.2-6.19m-8.04 14.92a6.2 6.2 0 1 1 .01 12.42 6.2 6.2 0 0 1-.01-12.42m7.73 14.28a6.2 6.2 0 1 1-.03 12.42 6.2 6.2 0 0 1 .03-12.42m56.05 20.69-74.32 75.29-.23-15.06 50.94-50.01-51.33-.77.12-10.19zm-34.07 14.36-39.81 38-.34-38.64zm42.54 2.78s-.22 1.39 3.52 7.93c10.86 18.88 13.37 36.33 22.98 56.56 4.78 11.07 15.54 22.26 17.95 22.89l-11.97 21.89 337.5-.71-54.03-94.3c-85.74 15.87-162.78 13.09-235.2.4-4.15 5.58-8.7 16.92-13.06 25.13-10.82-29.1-45.4-47.88-67.7-39.79m12.3 2.52c17.82-.25 32.69 8.23 45.9 26.21 4.19 5.73 5.82 8.31 5.81 10.73-.45 2.78-5.98 11.67-5.98 11.67s-3.2-8.83-3.96-13.1c-4.8 17.66-6.71-2.81-8.56-8.2-5.84 17.05-9-6.4-8.7-12.72-7.97 10.94-7.45-7.03-11.33-10.36-.1 9.47-5.68 2.99-12.9.97 3.78 5.29 11.13 8.86 1.74 10.02 9.37 6.47 14.06 5.48 4.97 9.06 7 3.86 18.54 8.51 5.79 11.06 7.79 4.91 20.33 6.98 6.85 11.67 10.18 6.23 23.74 5.78 4.67 10.79 6.91 4.03 19.09 5.55 5.46 9.06 2.1.94 5.75 3.39 5.75 3.39l-5.89 9.29s-2.11-.16-3.57-1.68c-6.24-6.53-12.32-18.54-17.77-35.37-4-12.39-8.78-25.48-14.03-36.33-2.85-5.75-2.58-6.04 5.74-6.16m301.42 21.25 46.64 79.81-11.07.16-41.18-68.32-55.56 6.27 18.3 61.09-16.51.45-16.4-60.09c-31.02 1.24-60.61 1.59-86.4-.48l-8.75 60.96-15.75-.52 9.98-60.34-52.14-6.67-28.28 67.67-16.28.31c10.5-17.73 36.76-74.99 41.66-80.64 113.57 18.18 172.54 8.39 231.74.34m-10.9 18.5 35.3 61.4-56.72.26-19.06-56.86zm-212.26 1.8c11.2 3.25 23.23 3.97 35.37 4.42l-10.32 54.92-50.26-.1zm141.5 6.46 13.33 53.35-94.62.48 7.8-53.18c24.84 1.49 49.1.12 73.49-.65"/></g><path d="M872.26 1120.97c-14.37.05-29.54 7.77-33.84 24.33-1.51 5.26-1.52 5.27-1.57 52.14-.04 38.75-.37 48.09-.37 48.09h-13.24V1261h43.11v-15.47h-14.3s-.2-48.2-.2-78.59c-.6-7.88.12-14.82 2.22-19.64 7.62-17.57 34.46-13.73 37.69 1.26 1.93 8.94.85 11.28.98 18.99h14.93s.4-13.56-1.06-21.48c-1.96-17.66-17.2-25.52-32.96-25.08zM67.93 39.02v14.5h14.34s.34 13.99.47 43.69c.13 28.82.72 43.12-1.14 51.32-5.05 18.93-32.96 19.02-38.5 5.42-3.24-7.92-2.37-14.06-2.54-22.02H25.14s.08 4 .1 8.9c.08 21.3 7.27 31.46 24.07 35.48 17.26 4.57 37.43-2.4 44.62-16.9 4.28-8.25 3.79-8.8 3.89-58.72.07-33.32.59-47.17.59-47.17h13.2v-14.5z"/></svg>