<svg xmlns="http://www.w3.org/2000/svg" fill-rule="evenodd" stroke-linejoin="round" stroke-miterlimit="2" clip-rule="evenodd" viewBox="0 0 934 1300"><g fill-rule="nonzero"><path fill="#131f67" d="M130.62 1199.7 128.5 103.84l679.72 1.28.85 1094.14zM374.3 286.56c-24.3-6.62-23.71 17.52-5.91 18.42 19.94 1.72 28.47-32.27 18.96-45.67 0 0-8.29 25.6-13.05 27.25m-157.73 136.5-29.2 13.03-.12 21.8c12.18-9.69 21.7-21.5 29.32-34.82m199.26 654.82c-5.74-2.9-12.67-9.13-11.6-10.22.52-.54 3.63.44 6.46 1.71 22.81 9.61 40.52 9 67.72-.88 2.07-.74 5.14 3.18 4 5.33-12.05 17.82-51.03 11.49-66.58 4.06m-12.02-26.74c-5.24-7.86 1.7-1.9 4.04.33 16.88 15.69 39.75 21.02 59.38 6.23.91-1.02 1.03-1.96.76-2.66-.55-1.46-.56.09-8.96 3-18.84 7.06-34.72 1.26-50.21-10.59-6.37-4.92-9.34-7.33-9.34-8.62 0-1.18 1.2-1.92 3.34-1.55 1.33.22 5.03 1 7.75 1.22 4.72.38 4.35.19 9.18-2.05 10.33-4.76 19.84-6.5 30.63-4.56 2.5.44 5.64 1.26 6.07 1.12 2.41-.8-1.15-3.98-10.3-11.24-1.8-1.42-4.04-2.65-4.78-3.88-1.15-1.92.1-2.43 1.4-2.42 3.77.05 20.66 14.17 26.46 22.55 1.76 2.56 2.97 2.83 2.98 5.47-.34 2.76-.78 5.4 2.2 9.25a38 38 0 0 1 4.23 7.43c.02.24-.43 1.63-2.39.34-.89-.16-1.33-1.12-2.96-.89-1.42.22-3.73 1.33-6.27 2.53-23.67 15.22-45.46 7.8-63.21-11.01m51.85-1.06c.48.04-1.64-8.7-4.02-11.28-4.7-5.09-11.87-6.02-16.2-.81-2.43 2.93-5.11 11.1-5.11 11.1s3.8 1.11 4.86 1.11c.15-1.83.16-6.95 3.92-9.94 1.85-1.46 5.85-1.42 7.41-.21 3.09 1.52 4.39 7.65 4.44 10.04 1.68.52 5.57.06 4.7-.01m-28.62-12.6c-3.34 1.48-7.68 2.48-8.67 4.72-1.31 2.94 3.32 3.83 5.73 4.83 3.34 1.61 3.41 1.01 4.5-1.55.67-1.61 1.55-3.7 2.4-5.63 2.5-4.82.01-4.15-3.96-2.37m36.12 8.37c1.92-1.93 2.28-3.2.56-5.37-.77-.99-2.99-1.99-5.4-2.81-3.08-1.03-4.43-2.3-2.5 1.89l2.78 5.98c1.42 2.87 2.67 2.11 4.56.31M147.33 841.47c1.17 0 12.82-3.82 16.97-5.66 4.1-1.57 4.6-1.53 2.96-3.8-.61-.85-1.11-3.26-.8-5.9l.3-3.66c-7.18-1.47-17.9 2.51-21.59 7.53-2.62 3.21-2.36 10.35 2.15 11.5m-1.46 17.9c2.18 2.19 2.79 2.27 9.34-.17 2.29-1.53 7.08-3.45 10.45-3.67 7.88-2.1 7.89-1.26 5.65-6.31-1.03-2.33-1.37-4.25-1.05-6.4.4-2.55.7-2.9-.74-3.35-3.77-1.17-21.33 5.39-24.47 10.5-2.21 3.59-1.92 6.67.82 9.4m412.16 155.05c-1.15 1.71-3.14 4.75-3.97 6.81-1.45 3.54-.57 4.22 0 11.17.34 4.04.42 10.3.43 13.66.02 6.45-.07 8.45 1.9 8.83 1.74.33 2.54-.97 3.37-4.33.42-1.68 1.41-3.43 1.71-4.5 1.24-7.25 3.54-19.35 8.76-24.44.73-.59 2.85-.97 6.7-1.02 4.73-.05 6.24-.19 7.7-1.29 8.26-7.22 1.75-16.57-5.62-17.22-8.54-.74-20.3 11.04-20.98 12.33m32.8-3.03c.51 8.31-7.77 13.98-16.2 12.06-3.41-.87-4.44-.08-6.72 4.79-4.98 13.36-6.94 26.78-8.26 35.55-.57 7.89-3.46 28.43-1.37 34.98 24.02 29.67 49.3 60.31 76.98 90.85l164.62.23 1-193.82-47.82-45.22.1-71.69c-51.19 24.12-102.22 48.57-153.3 72.9 11.13 35.7-26.62 43.19-34.9 19.25-7.15 6.58-13.03 42.02-10.39 43.78 0 0 .95 1.27 2.54-1.54a28.4 28.4 0 0 1 9.67-10.33c10.65-6.58 23.31-3.34 24.04 8.21m-131.03-3.62c-8.08-6.42-3.75-16.22 2.96-19.15 3.56-1.56 9.26-1.35 15.55.87 5.51 2.53 8.81 2.18 14.47 1.48 3.76-.41 3.06 7.44-.86 9.47-2.76 1.43-9.1.76-16.8-3.63-13.3-7.57-19.13 2.24-10.9 11.09 4.56 4.89-3.25.98-4.42-.13M186.13 890.39c7.1-4.57 4.15-12.63-2.47-13.98-8.91.18-11.18 10.42-4.8 13.95 0 1.25-3.17.23-4.89-1.05-2.65-2-.23-9.77-2.7-10.08-1.88.03-20.3 6.54-22.28 7.84-8.27 4.7-.51 15.29 4.29 14.08 9.97-2.52 23.52-4.76 32.85-10.76m-41.14-15.13c.16 4.71 1.48 6.81 4.58 6.85 6.48-1.12 12.5-4.2 18.55-6.17 4.73-1.54 6.64-3.28 3.04-6.24-1.09-1.24-2.05-3.04-1.52-6.44 1.23-3.9.28-4.09-1.36-4.28s-5.4 1.39-15.05 5.1c-5.08 1.94-6.05 2.78-7.37 5.58-.59 2.13-.96 3.45-.87 5.6m53.67 60.9c1.11-1.32 3.59-9.54 3.59-11.58-.5-3.38-3.03-4.15-5.25-1.96-2.71 2.42-1.98 6.09-3.6 8.9-.55.98-1.15 2.33-.98 2.88a3.83 3.83 0 0 0 6.24 1.75m21.11-44.77c82.5-87.86 133.6-209.45 44.2-377.14-10.02-4.27-13.12 12.03-14.08 12.7l-11.42 9.95c60.52 104.37 50 224.42-24 309.78l.08 5.41c.18 11.93 3.62 11.41 8.63 5.83 5.32-5.6 1.76-1.03-.41 1.27-1.87 1.98-4.85 5.93-5.64 6.96.97 7.15 5.47 20.48 2.64 25.24m-5.48-26.4c-.84-2.37-1.74-7.8-2.2-11.97-.3-2.72-.4-5.28-.55-7.94-.88-5.28-3.03-17.4-4.78-20.07-1.89-2.88-6.5-4.98-11.64-5.31-4.4-.28-4.76-.2-5.7 1.23-1.62 2.46-.5 14.86 1.12 19.41 1.85 5.34.76 8.24-.73 13.53-.52 1.91-.71 2.05.24 2.18 4.12-.29 5.48-5.34 7.11-3.83.55.55-.88 4.69-2.8 8.87-2.03 4.42-2.63 10.5-.22 18 1.35 4.18.77 5.5-.04 8.04-.55 1.69-1.5 6.86-1.53 12.02 1.93 6.46.96 9.35-.18 11.48-2.45 5.49-4.35 12.91-3.03 17.08.59 1.83 2.1.27 3.2-2.87 1.74-6.19 3.76-7.57 8.84-7.57 3.7 0 4.05 1.3 5.28-.35 2.78-3.77 9.57-17.09 9.7-20.8 2.62-9.47 2.75-17.6-2.09-31.13m39.46 62.2c2.24-.85 5.69-5.6 5.7-7.23 0-1.8-13.84-15.25-19.6-18.97-2.6-1.68-3.85-.48-8.46 5.73-4.1 5.51-4.64 5.56-3.88 6.62.91 1.28 15.01 10.45 19.7 13.05 1.61.9 4.36 1.63 6.54.8m25.92-23.95c-2.06-1.58-18.62-19.94-23.53-20.85-1.87-.34-7.85 6.48-7.85 8.02 0 1.06 10.33 11.59 17.66 17.98 2.1 1.83 4.4 3.33 5.13 3.33 2.33-1.2 8.3-6.02 8.6-8.48m17.59-17.31c0-1.09-1.83-3.33-6.29-7.7-11.35-11.16-17.68-16.26-19.67-16.24-2.17.72-6.1 7.33-6.34 9.64.74 1.38 19.73 18.6 22.2 20.27 3.03 2.93 9.67-3.9 10.1-5.97m17.8-17.79c.5-1.63-.45-3.03-2.87-5.34-1.7-1.63-7.75-7.56-13.45-13.17-11.94-11.77-11.97-11.78-15.8-6.28-3.95 5.66-3.93 5.7 7.71 17.07 12.41 12.1 15.32 14.56 17.24 14.56 2.95-1.36 6.15-3.62 7.18-6.84m-133.12-10.62a5.9 5.9 0 0 0-5.62 1.05c-8.8 7.48 3.68 17.1 8.81 11.1 3.42-3.37 3.28-10.61-3.2-12.15m151.4-7.83c0-1.25-2.56-4.06-11.43-12.54-21.97-20.96-20.97-20.16-23.41-18.86-1.52.81-4.46 6.45-4.46 8.54 0 1.57 2.1 3.74 18.37 18.94 9.55 8.92 12.37 11.17 14.02 11.17 2.6-1.3 6.8-4.08 6.91-7.25m-150.83.79c4.3-1.88 5.12-6.54 2.68-10.23a6.71 6.71 0 0 0-11.33 4.6c.81 5 5.05 7.1 8.65 5.63m168.88-18.4c0-2.5-37.6-37.66-40.28-37.66-1.82 0-3.12 1.48-4.82 5.46-1.49 3.45-1.33 5.5.53 7.29 2.72 2.61 9.96 9.3 16.86 15.53a314 314 0 0 1 10.4 9.8c3.87 3.96 8.14 7.04 9.76 7.04 2.33-1.37 5.57-3.2 7.55-7.45m-170.85-4.54a5.4 5.4 0 0 0-1.34-3.92c-2.57-2.75-7.38-1.3-8.58 2.34-1.1 8.56 9.57 8.93 9.92 1.58m27.85-273.67 7.35-22.48 22.47-.58 3.15-22.35 23.13-3.33.37-23.1 22.12-3.01-1.37-24.73 20.51-4.86-1.01-22.9 18.64-5.71-.75-19.93 3.2-2.51-8.06-8.2-6.94 2.26-.13 20.48-18.61 5.99 1.96 22.66-18.82 4.3-.24 24.64-21.62 2.42-1.54 21.74-21.09 4.16-3.15 21.3-20.46 1.38-6.24 18.73-13.52.15v12.53zm244.47 402.28c-.7-1.69 1.13-1.44 4.35.6 3.36 2.11 8.25 3.89 11.73 3.9 1.45 0 6.64-.93 11.53-2.06 5.83-2.14 11-2.27 17.07-.96 4.5.6 9.05 1.1 10.09 1.09 3 .42 8.12-3.3 9.49-5.63 3.7-6.35 2.82 5.17 2.84 6.49.06 5.9.8 12.68-3.42 9.53-2.5-1.3-6.88-2.45-10.36-.12-3.5 2.35-6.42 2.85-10.53.37-3.37-1.33-5.15-1.6-7.68.74-2.81 2.61-9.64 1.68-13.3.48-6.28-1.05-9.8-1.96-14 1.38-2.26 1.28-2.83.32-4.53-4.66-1.69-4.98-3.02-10.53-3.28-11.15m16-4.16c-.4-.65 2.97-3.95 5.24-5.13 6.7-3.45 19.97-3.3 29.47.2 4.95 1.84 5.72 4.97.9 4.3-10.02-2.1-22.6-3.82-32.28.79-.76.4-3.15.14-3.33-.16m8.47-15.66c-6.85-2.54-10.21-5.25-10.21-6.11 0-.93 1.47-.76 6.85.71 7.34 2.73 16.02 4.16 23.27 1.62 5.2-1.92 7.8-3.14 7.8-1.98 0 1.22-2.14 4.41-5.73 6.25-7.12 2.9-16.52 1.52-21.98-.49m148.79-19.04 5.08-.7-1.76-21.22 18.73-5.56-1.31-21.12 19.97-6.87-1.2-23.76 20.76-4.09 2.7-20.8 19.6-1.39 4.06-22.62 21.04-.73 4.34-18.8 14-.09-.07-10.56-21.8.07-4.62 20.35-20.59.6-4.37 22.36-21.58-.17-2.76 24.1-20.3 3.33.01 25.95-19.57 5.08 1.51 22.19-19.56 7.13 2.21 21.17zm130.81-498.08c-2.8 2-3.85 5.94-2.99 9.16 2.76 7.28 12.46 5.01 13.6-.29.59-2.3-.94-5.76-3.6-6.52-.45-.12-2.1.03-2.95-.85-.63-.65 3.23-2.62 5.5-1.87 2.85.94 5.17 4.7 5.18 7.94 0 1.26-.36 3.13.1 3.76 4.7-.12 10.07-2.7 15.1-4.1 8.5-2.35 11.58-7.23 9.7-12.94-1.58-4.76-6.45-6.64-12.85-4.24-8.79 3.3-19.1 4.9-26.79 9.95M393.91 940.35c28.8-20.23 45.75-31.8 82.7-33.79-13.18-5.42-15.33-12.55-19.04-19.37-45.78 4.33-70.1 18.95-91.84 32.6 8.98 4.23 18.37 9.15 28.18 20.56m160.5-28.06c-13.96-9.87-30.58-15.83-47.81-20.44l-13.22 13.68c-.76-.48 38.26.4 61.03 6.76m134.07-129.85c-90.05-138.39-29.56-260.16 33.06-337.75 2.01-2.55 2.5-2.68 2.04-4.7-.59-2.67-1.33-16.12-.87-23.9-115.75 114.73-118.72 264.18-46.11 382.79 5.18-4.64 15.65-10.82 11.88-16.44m13.5-11.84c-14.78-24.62-93.52-157.92 26.75-306.63 0 0-.41-7.59-1.3-10.44-1.63-5.1-4.13-7.16-4.13-7.16-50.52 75.82-123.93 170.7-32.24 335.48zm-68.84-250.9c1.8-1.47 4.41-6.8 4.41-9 0-1.97-1.41-3.6-14.98-17.37-18.1-18.35-21.21-21.16-23.52-21.16-2.2 0-7.9 5.42-7.9 7.5 0 .98 5.32 6.72 17.89 19.25 23.3 23.28 22.2 22.33 24.1 20.78m16.66-33.8c0-1.1-1.68-3.3-5.64-7.37-10.46-10.76-25.37-24.4-26.67-24.4-1.68 0-6.24 3.7-7.44 6-.84 1.64-.82 2.01.16 3.55 1.85 2.88 25.18 25.02 31.8 30.6 4 3.65 7.6-5.6 7.79-8.38m9-13.73c1.86-.98 5.36-7.54 4.94-9.2-.2-.8-6.12-7.16-13.15-14.16-13.92-13.85-14.73-14.35-18.2-11.25-3.14 2.81-5.1 5.63-4.72 6.76.47 1.38 21.31 22.55 25.57 25.98 3.36 2.72 3.76 2.85 5.57 1.87m106.2-1.02c6.54-6.28-.87-13.17-6.26-9.99-2.3 1.42-3.65 4.5-2.95 6.56 1.16 3.4 5.78 5.26 9.2 3.43m12.96-1.6c11.07-2.9 16.37-4.85 18.7-8.3 1.6-2.4 1.78-3.86-.03-7.75-1.67-3.6-3.6-4.7-10.55-.9-4.76 2.61-15.36 3.86-19.07 6.05-1.49 1.28-.77 1.27.43 2.02 2.67 1.7 3.97 2.85 3.68 5.1-.63 4.88-.13 5.63 6.84 3.78m-11.72-17.36c5.37-2.75 4.3-9.38-1.72-12.02-7.91-2.09-13.02 7.45-6.53 12.1 1.73 1.22 6.14 1 8.25-.08m17.86-2.69c7.78-2.66 10.76-4.75 13.01-9.04 1.77-3.4 1.02-4.92.78-8.22-.35-4.99-2.86-4.42-10.1-1.8-3.55 1.36-20.47 6.12-20.7 7.86 8.17 4.67 6.08 7.13 6.15 13.09.42 1.35 4.26.38 10.86-1.89m-105.95-7.94c0-2.25-21.71-23.52-24.01-23.52-3.6 0-8.73 5.57-7.96 8.63.34 1.39 20.7 21.89 23.26 23.4 3.55 2.09 8.48-5.12 8.71-8.51m12.49-13.26c.93-.74 2.59-2.64 3.68-4.23 2.34-3.4 2.17-5.3-.62-7.1-1.03-.65-5.58-4.77-10.12-9.15-4.55-4.38-8.84-8.18-9.56-8.45-3.74-.5-10.51 5.5-9.8 8.58.4 1.6 17.04 18 20.75 20.44 2.4 1.59 3.56 1.56 5.67-.09m29.4-31.68c0-.6-3.78-3.04-9.83-6.33-18.5-10.04-18.8-10.11-24.59-5.4-1.98 1.6-3.6 3.45-3.6 4.08 0 .65 4.01 4.94 9.12 9.78 10.6 10.03 13.21 12.2 14.69 12.2 3.06-2.25 13.74-11.55 14.21-14.33m25.9-9.45c2.27-2.73 4.84-12.2 3.62-14.12-1.12-1.12-4-.95-5.39.3-1.42 1.3-4.94 13.2-4.4 14.61.55 1.44 4.18.77 6.16-.79M543.88 790.52c1.75-.23 5.18-2.37 10.17-6.65 5.32-4.58 22.2-14.76 24.03-18.86.82-2.32.22-5.66-1.53-5.92-1.35-.19-1.63.83-12.85 8.92-7.57 5.46-20.87 15.2-22.87 17.28-.87 2.21 1.1 5 3.05 5.23m-1.57 65.19c11.55-8.02 20.9-16.33 35.97-25.6a6.1 6.1 0 0 0 .63-5.69c-.88-2.3-2.09-1.4-6.65 1.77-11.1 7.48-22.51 16.29-32.08 22.82-3.06 2.07-5.65 3.22-5 4.4.86 1.55 5.6 2.01 7.13 2.3m11.23 4.91c7.6-6.21 16.69-12.15 24.8-18.16 1.13-1.13 1.43-4.95.27-6.52-.93-1.23-.16-1-2.4.27-3.29 1.86-22.94 15.26-26.6 18.29-2.13 1.76-3.91 2.64-3.38 3.26a19 19 0 0 0 7.31 2.86m9.55 4.81c1.57-1.05 15.08-9.68 16.16-10.83 1.25-1.31.88-7.19-.32-7.65-3.42 2.71-21.42 13.68-21.46 15.45 1.83 1.65 4.26 3.17 5.62 3.04m14.44 1.2c2.07-1.9 2.49-2.23 2.53-4.35.08-3.86-.87-3.7-6.37.23-3.84 2.49-6.18 4.23-5.49 5.72 2.72 4.27 6.6.9 9.33-1.6m1.5 7.88c1.07-.4 1.08-.96.92-2.3-.17-1.5-.4-1.44-2.02-1.44-4.38.16-.43 4.13 1.1 3.74m-52.6-21.6c2-6.55 4.77-11.73 9.32-16.64 18.17-16.1 12.61-35.92 1.14-52.05a1381 1381 0 0 0 42.42-62.96l-.05-32.8 1.72.18c-.6 71.57 2.67 188.91 2.67 188.91l14.76 11.26-1.99.98c2.43-.38-42.96-28.8-69.98-36.87m13.34-8.17c12.56-9.49 24.78-16.94 37.25-27.04 1.32-1.1 2.1-1.16 2.14-3.64.08-4.72-.87-4.77-5.52-1.43a991 991 0 0 1-16.8 11.6c-7.48 5.05-14.42 9.54-15.8 11.16-7.02 8.12-9.61 11.95-8.9 13.12.76 1.21 2.18-.1 7.63-3.77m13.7-22.99c6.46-4.25 21.9-14.97 23.3-16.3 2.46-2.3 2.9-5.96.68-6.39-1.09-.2-13.04 7.77-23.14 15.43-4.92 3.73-6.02 4.6-6.02 8.1 0 2.14 1.29 1.73 5.18-.84m6.44-16.7c19.8-14.07 19.28-12.88 18.86-18.12-.15-1.77-.54-2.58-1.33-2.73-.6-.11-4.12 2.4-8.05 5.17s-8.64 6.5-11 8.13c-6.88 4.77-9.15 6.06-9.15 8.8 0 2.7.72 4.4 1.92 4.4.45 0 4.38-2.54 8.75-5.65m-2.85-10.9c9.13-6.44 19.18-13.7 20.54-15.43 1.66-2.1 1.36-6.66-.76-6.66a390 390 0 0 0-27.9 20.5c-1 .89-2.28 1.73-2.67 2.88-.08 1.5 1.8 3.46 2.54 3.52 1.5 0 3.83-1.68 8.25-4.8m-5.93-21.8c6.96-4.72 13.3-10.32 20.21-15.08 5.2-3.56 6.66-4.66 6.35-9.13-.18-2.58-2.44-1.1-11.23 4.77-6.46 4.3-9.42 6-11.7 8.93-1.61 3.71-6.9 7.2-7.18 11.44-.02 1.57 1.03.82 3.55-.93m21.38-28.35c5.35-3.55 5.85-3.62 5.27-8.33-.73-5.89-1.33-5.54-6.44 2.26-3.36 5.14-4.51 6.62-4 7.57.87 1.63 1.83.7 5.17-1.5m-19.48-43.33c-.57-2.62-1.37-2.06-4.06.31-4.96 4.35-5.73 7.5-2.65 9.15 1.64.87 2.9.77 3.88-1.38 2.1-4.62 2.69-6.26 2.83-8.08m-27.74 41.17c-.64-2.4-3.57-5.65-5.8-6.8-2.2-1.15-3.53-.93-5.65 1.75-1.94 2.46-1.04 3.94 1.88 7.63 2.14 2.7 3.01 3.56 4.7 3.56 2.04-.8 5.3-3.55 4.87-6.14M417.92 845.1c-1.42-2.73-4.42-5.62-5.8-5.13-1.45.5-2.88 2.6-2.9 3.91.6 2.69 2.87 4.5 4.6 4.55 3.3-.46 5.29-1.03 4.1-3.33m13.08-4.16c-2.82-2.98-8.41-9.56-9.32-9.56-1.44 0-4.85 3.58-4.85 5.05 0 1.74 5.09 8.87 6.78 9.44 4.28-.4 12.14.08 7.4-4.93m16.16.84c-.3-1.45-16.22-18.37-17.4-18.37-1.51 0-4.5 3.33-4.5 4.87 0 1.23 5.13 7.94 9.88 12.9 2.37 2.48 2.58 2.83 5.48 2.38 3.15-.5 7.27.19 6.54-1.78M475.3 838c0-3.42-1.8-5.29-8.98-13.07a648 648 0 0 1-9.79-10.9c-5.37-6.13-7.67-8-9.81-8.01-1.7-.01-4.28 2.74-4.28 4.48 0 1.12 13.22 16.3 25.21 29.17 2.65 2.85 3.85 3.69 6.4 2.33 1.46-1 1.25-2.7 1.25-4m-20.71-40.64c-2.7 2.21-3.7 3.12-3.71 4.6-.02 2.24 22.82 27.33 24.85 27.33 1.2 0 1.01-.16 1.72-2.86 1.41-8.2-.8-10.6-6.72-16-3.98-3.62-11.98-16.08-16.14-13.07m40.26-16.78c-6.37-7.62-9.9-11.13-11.2-11.13-.88 0-2.2.85-3.63 2.43-2.38 2.26-2.16 2.18-.65 4.86.79 1.4 2.98 4.14 4.88 6.1 3.5 3.62 5.3 4.77 7 3.03 1.5-1.54 5.2-3.35 3.6-5.3m-3.33-19.01c-1.55-.02-4.16 2.78-4.16 4.3 0 1.3 5.17 7.78 8.78 11 2.92 2.62 4.3 3.32 6.32 1.6a5.2 5.2 0 0 0 .23-5.9c-2.58-2.94-8.22-10.87-11.17-11m17.92 1.87c-.04-2.22-6.56-10.7-8.63-11.55-1.71 0-5.36 4-5.36 5.84 0 .99 1.4 3.2 3.77 5.94 4.65 5.4 5.85 6.6 6.86 5.75 1.65-1.38 3.4-3.8 3.36-5.98m7.36-9.55c.43-1.87-.72-3.78-3.33-7.06-3.25-4.09-4.85-4.36-7.92-1.2-1.13 1.17-1.66 2.2-1.66 2.76 0 1.56 6.83 10.25 8.1 10.25 2.93-.37 3.83-2.5 4.81-4.75m-12.02 21.5c-.6 2.8-1.79 4.63-4.49 5.93-20.86 15.04-20.19 39.53-24.64 62.14-33.78-.34-87.18 13.52-86.85 14.25l179.51-181.1s2.23.56.87 2.14c-14.53 10.44-13.63 30.75-23.18 40.92-15.97 19.3-30.8 36.03-41.22 55.72m-97.43 73.97c.3-2.05-1.59-2.6-3.24-.96-1.61 1.62-.97 2.88 1.32 2.61 1.2-.14 1.77-.62 1.92-1.65m55.32-7.61c.66-1.72-.91-3.33-10.53-14-9.74-10.82-11.95-13.35-13.63-13.35-1.44 0-4.93 3.54-4.93 5 0 .65 1.54 2.85 3.41 4.86a528 528 0 0 1 7.9 8.78c4.25 4.85 6.27 7.2 7.9 8.33 1.58 1.1 2.78 1.05 5.33 1.05 3.5 0 4.25.11 4.55-.67m16.64-33.98c.67-2.13 1.61-4 1.61-4.8.02-1.5-12.28-14.03-14.36-15.37-2.49-1.6-7.17 3.65-6 6.72.31.84 3.98 5.14 8.13 9.55 5.27 5.61 7.91 8.25 8.77 8.12.87-.13.99-1.45 1.85-4.22m5.15-13.18c.9-1.32 1.63-3.06 1.63-3.87 0-.93-2.06-3.42-5-6.73-5.48-6.16-6.9-6.87-9.9-4s-1.97 4.2 3.28 10.15c6.58 7.45 7.33 8.36 9.99 4.45m47-58.86c2.05-2.44 2.1-3.64.22-5.86l-2.57-3.06c-1.69-2.02-3.92-1.69-6.22.94-1.1 1.25-1.83 2.51-1.82 2.94 0 .43 1.18 2.16 2.62 3.85 3.25 3.78 5.26 4.19 7.77 1.19m7.21-9.3c1.4-2.12.77-4.45-1.84-6.83-2.46-2.25-3.69-2.34-5.42-.42-2.31 2.57-1.94 3.44.54 6.19 2.82 3.1 5.07 3.57 6.72 1.07m5.77-7.71c1.92-1.93 1.9-3.57.16-5.76q-2.41-3.08-4.98-1.7c-2.95 1.58-2.65 4.3.27 7.36 1.76 1.87 2.6 2.06 4.55.1M407.1 1105c36.76 4.11 76.26 6.99 145.89-3.83l.35-23.63c-21.72 16.94-50.23 5.33-51.87-14.17-.2-17.37 4.44-37.41 8.36-51.7 2.9-10.62 3.74-14.72 1.01-16.79-6-3.38-16.66-3.8-19.39-10.87-1.3-3.73-1.43-7.71.48-4.87.88 1.3 7.8 4.53 13.23 5.74 9.42 2.1 10.94 2.8 12.01 6.68.67 2.44-.88 10.88-3.36 18.5-1.78 5.45-3.85 14.2-3.85 15.9 0 1.84 1.44 2.14 3.06 1.63.7-.23 4.01-3.54 6.1-5.4 9.05-8.09 11.69-7.84 3.95.06-3.08 3.15-7.32 7.48-7.32 7.81 0 1.68 1.57 1.49 5.04.23 5.36-1.94 17.92-1.7 23.5 1.11 6.96 3.49 7.25 3.33 7.1-7.25-1.26-19.76-4.48-43.16-10.92-61.4-9.83-27.85-30.23-53.68-60.36-52.51-36.75 1.91-58.92 16.54-83.92 34.07 15.1 33.49-6.72 59.14-14.62 62.53-.76.33 9.9 34.04 14.44 51.17 4.14 15.56 11.09 46.99 11.09 46.99m156.4-807.8c-.85-2.21-21.29-68.81-27-96.67-55.26-3.21-96.12-7.8-144.77 6.01 0 0-1.06 18.76-.55 19.68.5 2.31 2.17 2.26 3.54 1.5 22.47-12.34 46.83-6.79 48.52 23.67.64 11.62-3.27 19.82-3.98 30.85-.62 9.63-8.2 22.47-3.6 29.79.58.9 3.83 2.67 8.25 4.57 8.24 3.53 11.48 6.77 12.08 12.17.9 3.72-1.38 6.22-2.06 2.4-.44-2.43-.87-4.57-11.05-8.05-9.92-3.4-12.6-7.35-13.6-9.42-1.36-2.86-1.1-4.9.18-9.45 2.72-9.71 5.4-19.61 5.15-24.29-.1-1.68-1.96-.86-4.34 1.16-3.03 2.58-15.97 11.1-16.34 10.74-.17-.17 2.14-3.6 5.77-7.07 4.4-4.2 9.86-9.3 9.86-10.23 0-1.66-.64-.5-4.9.76-7.44 2.05-16 1.75-21.75-.8-4.88-2.14-8.3-3.38-9.03-2.2-1.81 29.65 2.6 60.23 15.04 84.08 11.14 21.67 34.32 48.8 69.16 42.72 36-6.3 71.03-35.25 69.77-35.28-13.44-30.42 1.88-53.08 15.66-66.65m-285.4 809.78c-15.95-15.98-56.16-33.35-83.8-41.33-2.2-.48-4.38-1.53-4.4 1.09l-.32 54.83-49.4 46.28.87 22.59 104.8-.51 69.55-101.99s3.36-.59 3.73-1.22c-12.77-54.15-32-97.4-44.21-119.09.2.27-17.57 14.36-33.2-3.15-8.76-9.83-3.38-27.1 4.94-33.42-7.02-5.16-21.56-14.52-31.1-17.22-1.98-.48-4.93 3.53-5.9 7.16-1.74 5.9-4.63 11.17-6.58 17.12-2.14 4.97-4.2 5.72-7.39 4.32-4.96-1.47-6.28-1.98-6.28-1.98l.16 64.45c38.12 13.22 77.36 47.12 88.54 102.07m158.46-688.83 11.3-12.27c-17.88-2.2-36.61-5.38-58.53-12.27 15.22 11.32 31.16 18.32 47.23 24.54m-62.08-34.5c19.92 6.63 45.13 22.12 76.6 16.29-28.69-11.38-50.47-37.97-59.76-92.1-2.03 10.5-6.22 32.35-12.83 34.72-9.28-35.93-46.6-15.03-31.64 14.27-37.83 25.98-83.31 40.65-124.56 60.7 0 0-6.2 19.05-37.11 45.16-5.84-30.6 1.12-76.02-2.5-106.77l-48.45-45.75c.75 8.71.41 14.11.02 24.32 1.33 1.78 3.17 2.7 5.04 3.82 3.12 176.32-1.09 350.6-1.05 510.75-.47 98.15 2.12 200.4.68 293.07l-1.8 3.35.07 22.15 49.46-47.1s-2.3-33.42.3-58.96c31.21 6.28 60.33 20.95 86.43 37.04 3.29.92-16.01-64.16-86.22-93.07 0 0-.1-20.33-.1-64.51 0-42.63-.66-47.14-1.6-47.83-2.85 3.08-38.77 15.19-40.6 13.14.97.32-10.12-75.45-.54-86.96l34.37.73c9.83 7.93 5.88-1.73 11.6-3.33 3.41-.92 19.3 5.28 19.3 5.28 65.5-77.32 58.96-204.48 11.95-276.02-12.03 9.78-24.84 23.03-36.9 28.72-.16-.41-.23-39.45-.23-39.45C247 495.14 315.08 378.78 310.74 378.38c0 0 19.38 18.88 26.9 29.55l-61.78 89.48c14.15 28.5 28.47 54.34 37.76 79.4 1.26 3.38 5.12 3.29 6.1 6.85.83 3.05-2.9 7.28-2.38 10.65 13.04 49.86 16 102.77 3.14 150.7-2.72 10.8 2.25 19.54 8.9 27.66.54.7-6.2-5.84-6.8-6.2-2.31-1.39-6.16 3.48-6.97 9.62.53 3.77 2.57 4.43 5.28 7.48 4.76 3.96 23.7 22.61 32.05 31.13 7.41 7.57 9.33 7.91 14.32 2.54 1.4-1.3 2.87-3.1 4.24-4.21.25.4 2.1-1.51 2.73-2.13L485.8 702c12.96-12.65-111.41 114.27-111.41 114.27s-60.31 59.2-75.1 73.8c-15.28 15.07-17.35 18.37-17.96 19.5-1.09 2 4.93 1.94 7.67 1.53.22-.03-2.3.58-4.85.56-15.7-3.5-21.05 13.85-30.95 17.35-26.2 18.6-8.59 48.47 16.44 38.61l6.1-2.93c15.16 28.17 37.04 79.49 47.32 124.11l-4.14 1.91-66 99H627.2c-26.89-26.76-49.76-59.62-73.05-84.22-37.32 11.17-150.18 8.89-148.4 4.04 0 0-17.09-69.19-26.75-103.17 30.69-26.28 27.54-67.73-17-86.34 32.42-25.6 65.06-34.28 96.89-36.36 10.34 26.26 34.6 27.9 46.06 3.87.08-.27 43.03 13.2 58.87 27.79-23.48-2.43-46.68-7.1-70.18-8.23 20.69 8.17 41.75 29.5 48.5 53.9 3.3 8.7 8.35 37.47 9.69 37.57 0 0 7.83-33.22 13.9-31.39 15.5 32.35 42.23 8.02 30.98-17.75 39.48-18.84 83.9-39.89 120.21-57.36 10.6-15.98 36.66-46.33 38.37-46.46 0 0 47.94-274.62 47.93-366.42-1.6-110.37 2.2-233.22-2.55-336.45l-.04-29.67-101.25.04-72.27 106.28s-.55 1.7-.53 2.42c9.86 42.88 22.51 79.38 42.38 119 27.4-20.7 50.5 13.38 29.94 33.18-3.86 3.71-2.82 4.65 1.04 7.23 3.8 2.55 29.8 15.64 31.02 15.64 4.7-6.99 6.07-17.3 9.24-25.19.8-3 3.06-3.38 7.6-2.84 5.83.68 5.8 3.1 5.6-33.96l-.16-31.83c-35.14-16.19-81.67-57.33-83.84-100.12 20.32 14.78 67 36.27 79.46 38.2 5.48 1.52 4.64-8.02 4.81-11.85 1.49 1 2.02 15.73 2.02 15.73-20.63-6.23-31.43-4.96-82.9-34.78 8.83 42.08 50.98 75.28 81.54 90.42 0 0 1.28 19.99 1.2 42.38-.18 68.29.5 71.3.5 71.3 0-.04 16.81-4.3 21.49-6.6 8.34-6.68 21.7-1.56 23.54 3.35 2.72 25.77.1 49.67-.47 74.28-14.24 1.02-22.04 4.02-29.07 4.3-4.56-.6-7.33-.63-9.68-3.23-6.8-14.7-6.36-5.38-7.18 5.65-.63 3.27-17.66-2.41-19.35-3.4-73.55 84.66-67.28 182.12-17.33 272.39 8.24-5.57 22.46-16.2 36.66-23.17.34 11.48.53 35.12.53 35.12-57.57 42.24-126.52 154.15-124.18 154.46l-23.4-27.93s14.73-23.4 19.92-29.6c.6-.7.99-7.97.99-7.97l35.75-51.68c-16.16-28.63-27.2-53.1-38.7-81.26-.66-2.36-3.46-12.48-2.84-13.44-23.85-107.73 1.99-161.32.08-165.4 0 0-.31-2.16-.82-2.58-.78-.65.2-1.27 1.08-2.81 1.7-2.98 4.41-9.1 3.48-10.92-.68-1.34-20.02-20.68-36.6-36.6-8.72-8.37-8.37-9.33-12.88-4.76-1.67 1.7-5.78 6.52-5.78 6.52-59.9 55.43-107.44 105.9-167.56 164.9l-2.88-2.63c87.45-86.92 175.7-172.97 262.3-260.74l-15.23.26c.44-1.1 1.06-2.13 1.96-2.43 8.16 0 16.56-2.47 22.63-5.91 12.35-9.18 30.08-21.47 31.47-33.57-.88-23.3-20.53-26.67-34.72-15.28-19.72-35.42-35.33-78.03-43.7-117.81-.4-1.98-3.17-5.39-3.59-7.64 4.23-13.21 71.2-104.47 71.2-104.47h-376.1l71.58 85.23c0-3.4 102-15.44 148.73-1.22L565.8 298.8c-25.85 25-33.48 66.08 14.05 87.47.92 2-4.5 5.3-4.5 5.3.75-1.23 2.06-2.5 1.53-3.63-12.81-5.6-26.53-19.79-26.53-19.79-28.6 22.34-55.33 34.78-81.52 35.89 0 0 13.83 9.37 16.5 19.67 0 0-1.28-.16-1.62-.57-2.84-3.47-9.36-14.7-14.86-18-9.32-2.23-14.83-.6-22.2 4.47l-9.95 9.61c-22.85-6.95-48.22-18.31-62.2-35.57m-3.83 247.37 10.43-10.3c1.2-7.63 3.26-17.34 12.07-27.91 9.78-11.74 20.58-22.77 28.54-33.2 9.55-12.56 14.74-23.91 12.23-29.17 14.24-2.57 27.32-15.14 27.73-37.95.17-11.98 5.95-29.47 6.4-29.22 0 0 99.4-3.38 167.78-68.58 0 0 4.8 1.05 3.67 1.91-25.9 25.95-53.46 45.09-86.04 57.27L373.85 633.3zm19.89-20.6c2.68-2.68 3.29-3.56 1.77-4.82-2.32-1.92-6.78 2.05-6.78 6.03 0 2.54 2.01 1.8 5-1.2m9.3-9.14c2.14-2.05 2.06-3.54.3-5.3-2.43-2.43-5.96-.94-7.15 2.98-1.2 3.94 3.5 5.53 6.86 2.32m8.18-8.28c1.1-1.26 2-2.54 2-2.85 0-1.4-3.43-4.54-4.94-4.54-1.92 0-5.37 3.23-5.37 5.05 0 1.5 3.46 4.61 5.14 4.61.65 0 2.07-1.02 3.17-2.27m7.72-15.42c-2.44-2.06-4.05-2.07-6.07-.06-2.34 2.34-2.1 4.92.7 7.38 2.12 2.21 3.04 2 5.91.23 2.4-2.47 2.84-4.77-.54-7.55m9.06-1.37c2.64-2.23 2.26-4.05-.62-6.94-3.03-3.03-5.37-3.05-7.53.16a5.5 5.5 0 0 0-.96 2.76c0 1.17 5 5.63 6.32 5.63.72 0 1.7-.7 2.79-1.61m8.7-8.6c2.26-2.35 1.96-4.03-1.26-7.34-2.7-2.8-4.6-3-6.98-.8-2.47 2.3-1.95 4.71.83 7.5 2.82 2.81 4.92 3.25 7.42.64m9.86-10c1.65-1.74 1.2-1.6.04-3.49-1.8-2.92-7.08-7.77-8.58-7.77-1.89 0-3.54 3.02-3.52 6 .01 2.95 1.45 4.15 5.2 7.1 2.5 1.96 1.73 2.14 3.65 1.02a13 13 0 0 0 3.21-2.85m7.83-7.16c3.53-4.02 2.86-4.8-5.66-13.78-2.9-3.05-3.5-3.4-5.56-3.23-1.97.17-2.1.65-3.12 2.72-1.86 3.82-.48 5.76 4.89 11.46 5.52 5.88 6.33 6.38 9.45 2.83m8.75-9.39c1.36-1.2 2.27-2.59 2.27-3.48 0-1.56-6.9-9.23-9.37-10.64-1.75-1-3.57-.43-5.84 1.52-1.35 1.16-1.33 1.45-1 2.74.52 2.1 9.41 11.46 10.87 11.46.61 0 1.82-.5 3.07-1.6m8.67-8.41c1.46-1.5 2.63-3.3 2.63-4.1 0-1.7-7.45-10.3-9.75-11.51-1.96-1.03-3.1-.6-5.03 2.11-2.23 3.13-1.36 4.56 3.06 9.65 4.19 4.82 5.53 6.29 6.31 6.29.26 0 1.33-.97 2.78-2.44m8.19-8.8c1.88-1.15 4.33-3.56 3.34-5.53-1.06-2.01-14.1-15.82-15.5-16.57-2.75-1.48-2.67.64-2.67 7.48v3.55l6 5.88c8.75 8.56 6.8 6.47 8.83 5.18m10.6-9.73c1.04-1.04 2.02-2.78 2-3.43-5.41-6.59-21.14-27.42-23.98-26.65-.3.08-.42.1-.62.7-.71 2.08-1 6.4-.5 9.89 4.96 4.77 16.67 20.31 19.32 21.28 1.58.6 2.28-.3 3.78-1.79m8.45-8.87c1-.95 1.8-2.24 1.8-2.87s-1.74-2.81-3.6-5c-1.86-2.2-5.5-6.63-8.1-9.87-14.82-18.48-15.9-19.87-18.16-17.99-1.49 1.24-1.85 5.6-1.1 7.22 1.29 2.81 17.48 22.34 22.7 27.37 3.32 3.2 3.98 3.52 6.46 1.14m8.53-8.17c1.27-1.2 2.3-2.78 2.3-3.52s-2.39-3.75-4.9-6.69a786 786 0 0 1-9.25-11.14c-6.66-8.19-6.71-8.48-11.67-9-7.52-.77-6.52.9 2 10.84 2.06 2.4 5.96 7.16 8.66 10.56 6.31 7.96 9.1 10.9 10.35 10.9.56 0 1.25-.76 2.5-1.95m8.7-8.52c3.86-3.25 3.1-4.3-9.44-17.26-4.11-4.24-4.4-4.92-7.6-4.92-3.21 0-4.24.66-4.24 2.22 0 .96 16.33 20.37 17.52 20.85 1.61.64 1.8.77 3.77-.89m9.13-9.36c1.03-1.1 1.87-2.52 1.87-3.16 0-1.4-3.54-5.9-6.86-8.81-1.56-1.37-3.52-2.78-4.78-2.78-2.13 0-5.8 1.2-6.42 2.22-.4.66 4.44 6.66 9.21 11.68 3.16 3.33 4.4 3.62 6.98.85m8.03-7.96c2.01-2.01 2-3.86-.07-6.57-1.5-1.96-1.95-2.16-5.03-2.16-5.82 0-6 1.5-1.48 6.32 3.36 3.6 4.28 4.7 6.58 2.41m8.58-8.44c2.28-2.89.33-4.47-3.4-2.78-.87.4-1.35 1.45-1.53 1.94-1.15 3 2.75 3.6 4.93.84m-143.4 24.37c-8.3 5.24-22.23 15.17-31.7 21.81a30 30 0 0 0 0 7.88c5.37-3.66 22.64-14.69 30.47-20.9.4-2.33.97-6.44 1.23-8.79m15.2-24.06c-.27-1.4-1.2-.52-3.65 1.56-3.22 2.72-30.48 22.92-37.73 28-2.75 1.94-5.34 3.57-5.64 4.25-.28.64-.55 6.13.5 7.51 5.9-4.51 33.95-23.32 34.37-23.97 2.9-4.62 9.35-12.69 12.16-17.35m-3.13 60.9s-33.44 40.2-44.2 60.23c0 0-.07 22.91-.39 36.1l-1.81.52s-.16-35.37-.62-73.75c-1.12-95.9-2.06-119.18-2.06-119.18l-10.86-7.95-.46-3.77s48.2 33.74 71.72 39.12c-17.19 26.93-33.08 37.31-11.32 68.68m-39.69 48.08c.67-1.62.22-1.54-1.16-1.48-1.02.05-1.6.98-1.64 2.01-.05 1.17.06 1.45.96 1.28.66-.13 1.52-1.03 1.84-1.81m8.04-11.91c4.82-5.93 8.8-9.77 9.51-14.14-3.08.52-20.82 12.95-21.1 14.27.17 6.58-1.33 7.38 4.08 4.47 2.38-1.29 4.3-2.88 7.51-4.6m1.52-14.7c5.18-4.3 24.04-14.44 26.2-19.43.83-2.3-1.85-4.46-2.28-4.24.35.3-27 16.68-36.98 25.28-.9 1.1-.66 3-.07 4.56 1.1 2.88 3.28.54 13.13-6.16m-6.27-7.9c5.62-3.76 18.92-12.96 22.24-15.26 5.63-3.9 6.75-5.22 4.72-8.12-.81-1.15-1.91-1.84-3.77-1.02-16.3 11.34-17.7 13.26-30.06 21.2-.83 2.24-.63 5.57.66 6.75.94.06 2.51-1.1 6.2-3.56m-.06-12.24c14.84-10.73 22.85-16.16 23.37-17.34.59-1.31.76-6.42-.2-6.96-5.53 4.2-20.3 13.24-30.38 21.42-.26 1.68-.57 5.45.25 6.27 2.04.84 2.65-.27 6.96-3.39m-1.76-38.74a775 775 0 0 1 32.02-22.5c9.53-6.33 11.13-7.74 7.46-9.62-1.25-.65-3.78-1.68-5.42-1.14-12.65 10.22-26.72 20-40.14 29.94-.33 1.48 0 4.39-.08 5.7-.13 2.03 2.54.3 6.16-2.38m-1.5-11.44c.9-.78 6.55-4.52 12.58-8.88 16.16-11.7 18.06-12.83 18.06-14.07 0-3.4-4.66-4.12-8.9-.67-7.8 6.35-26.39 17.9-26.44 19.54-.06 2.42-.47 4.8.24 5.86.9 1.34 2.2.22 4.47-1.78m4.67-15.83c16.44-11.47 15.78-10.94 15.78-13 0-1.8-1.6-.99-4.11-1.17-2.37-.17-2.42.5-6.92 3.9-9.6 7.25-13.11 9.23-14.12 11.37-.31.68-.53 3.34.04 3.92 1.17 1.16 2.5-.26 9.33-5.02m1.08-11.41c3.22-2.68 5.8-4.64 6.02-5.2.47-1.23-1.97-3.4-3.8-3.4-1.98 0-3.53 1.02-8.44 5.25-4.34 3.74-5.22 2.95-4.88 5.06.2 1.23.22 3.92.62 4.41 1.06 1.27 3.3-.15 10.48-6.12m-6.65-7.4c3.47-2.93 4.2-3.53 1.67-6.06-2.3-2.3-4.97-2.87-6.38-1.46-.78 1.03-.02 7.08-.1 8.29-.15 1.94 2.43 1.22 4.8-.78m74.46-63.1c0-1.25 6.05-5.68 10.59-6.69 5.78-1.28 13.04-.62 18.12 1.92 4.38 2.19 9.13 7.44 2.1 4.24-6.47-2.87-20.32-2.9-25.33-.59-3.72 1.9-5.48 2.37-5.48 1.12m-4.5-22.15c.47-.48 6.52 1.08 9.85 1.96 8.93 2.35 16.26.97 25.62-1.73 2.2-.63 3.29.89 1.93 2-4.76 3.3-10.91 5.2-16.23 5.7-11.7 1.1-24.28-4.88-21.17-7.93M379.51 338c4.99-2.44 11.09-36.68 9.12-42.57-6.1 9.34-12.96 13.52-22.72 11.9-15.97-2.64-16.56-22.31-4.22-24.29 4.93-.79 10.96 2.46 11.95 1.7 5.27-2.47 9.4-20.15 10.67-25.87.94-5.6 2.34-21.15 2.55-26.1.44-10.52.02-26.03.02-26.03l-77.75-93.02-170.3-.73s-.54 130.29-.13 196.94l48.22 46.27.6 74.8c53.88-23.5 106.03-48.2 157.09-74.91-5.92-7.08-5.75-24.9 5.04-31.65 15.9-9.92 29.1 3.22 29.86 13.56m42.69 15.86c.36-4.22 3.49-7.69 3.71-11.98 0-.95.78-2.06 3.31-.71 3.3 1.75 4.32.51 8.06-1.2 6.63-3.06 8.52-2.99 13.62-.95 3.31 1.77 4.33 1.76 7.43.15 4.23-2.8 8.73-3.7 12.46-2.4 5.56 1.94 7.5 3 10.67 1.47 1.59-.77 3.6-3.67 3.94-3.45 2.29 3.4 1.83 8.73 3.28 11.73 2.58 5.1 1.58 8.75-1.46 6.24-6.4-5.27-11.37-5.4-20.54-3.12-5.37 1.33-8.07 2.36-14.02 1.65-18.43-2.18-19.68-1.63-23.42.88-3.64 2.42-6.43 2.67-7.04 1.69m49.46-33.4c-5.32-1.33-11.4-6.17-15.8-4.87-5.44.37-8.53-6.04-5.75-9.55 4.77-4.64 12.17.04 15.05 2.22 6.24 4.74 7.13 5.12 9.66 5.12 10.36-.2 8.38-9.89 3.37-13.42-2.97-3.12-3.27-5.14-2.64-5.9 1.03-1.23 3.98-.19 7.23 3.22 6.2 5.83 6.34 17.44-1.27 20.95-3.78 2.11-6.27 3.12-9.85 2.23m21.63-33.56c-4.82-3.5-13.41-11.34-15.65-14.13-3.79-4.72-5.3-7.74-4.84-11.53.38-2.95.83-4.7-1.07-5.68-2.01-1.04-3.95-5.5-3.56-7.83.1-.65 2.38-.26 3.76 1.45 1.74.29 1.38-.75 3.27-2 19.7-13.23 35.51-10.68 54.2-1.59 5.43 2.6 19.6 13.35 12 9.86-.44-.2-5.41-2.36-10.42-4.89-16.22-7.76-34.28-12.46-48.98-2.48-2.54 1.77-4.07 3.13-2.1 3.13 8.27-1.6 16.45-5.05 24.93-4.51 12.67.17 20.32 6.41 29.82 10.73 10.3 4.6 12.3 6.18 8.54 9.98-1.06 1.17-1.91 1.13-6.9.76-5.34-.41-5.79-.26-8.8 1.67-7.89 5.05-18.14 7.81-27.24 7.05-10.73-.9-11.87-1.76-12.1-.22-.14.99 2.17 2.7 5.34 5.6 2.41 2.21 5.66 5.46 5.94 5.96.9 1.58-3.2.8-6.14-1.33m-3.01-17.17c-.02-1.26-2.39-6.79-3.8-8.21-1.35-1.37-2.42-.84-5.3 1.2-2.17 1.52-2.4 2.72-.4 4.5 4.24 3.76 9.54 4.7 9.5 2.51m16.15.76c4.33-2.1 8.74-9.52 6.73-11.93-1.18-1.44-2.22-.07-4.49 3.95-1.1 1.93-2.96 4.38-3.77 4.93-3.53 2.48-8.2.17-10.16-5.3-1.19-3.3-2.44-5.4-3.82-4.14-2.5 2.26.33 10.42 5.3 12.53 2.93 1.25 7.17 1.44 10.21-.04m13.47-1.22c4.4-1.35 6.49-3.33 6.12-5.24-.31-1.59-3.47-3.46-5.62-3.46-.96 0-2.84-.04-3.52.86-1.5 1.99-3.87 8.02-3.97 8.68.51 1.33 2 .7 6.99-.84m15.18-32.72c-21.9-8.38-39.2-11.73-60.03-2.86-6.67 2.9-10.47 3.2-10.8.84-.29-1.99 4.51-7.9 9.7-10.62 14.54-6.64 32-7.27 46.62-.25 5.47 2.67 20.8 13.58 20.8 14.57 0 1.09-1.38.24-6.3-1.68m256.3 245.35c5.21-2.75 7.6-8.16 4.41-11.35-.93-.93-2.24-.93-3.33-.93-1.82 0-15.52 3.67-18.18 5.1-1.73.92-1.1 2.54.55 4.04.77.69 1.33 2.17 1.45 3.78.16 2.08-.26 3.97 1.12 3.64 2.8-.64 7.2-1.25 13.97-4.28m-19.47 5.02c1.5-2.7.86-6.42-3.04-8.7-2.04-1.05-3.65-.48-5.28 1.85-3.88 7.08 5.75 10.12 8.32 6.85m-19.54 3.32c.83-9.05.43-35.75.43-35.75s-4.87 4.1-7.93 4.25c1.13-3.9 2.34-5.34 4.09-9.17 1-4.05 1.56-11.22 1.27-15.32-.3-4.49-3.46-4.6-.2-12.68 1.67-4.12 1.97-8.46-.2-13.56-.93-2.52-1.23-3.97 1.2-7.17 2.25-2.97 1.36-4.45 1.32-10.64-.06-8.58 0-9.97-2.6-3.05-3.88 5.73-5.66 4.63-11.58 3.94-5.7 12.81-12.4 26.24-12.66 37.28-.16 6.92-.26 8 4.06 22.56 1.61 5.42 2.17 7.22 2.26 13.77.09 6.26.55 8.46 1.5 11.91 1.7 6.15 8.59 16.31 19.04 13.63M553.54 1066.3l.01-12.88s-20.6 6.35-31.05 2.45c-10.76-2.92-10.72-3.45-10.51-2.29.37 2.09 8.36 6.3 15.76 8.04 5.2 1.21 15.62-.02 20.73-1.53 2.9-.86 3.2-.05 2.05.83-12.63 9.88-28.65 5.33-38.72-2.86-5.37-5.27-8.97-5.3-6.07 1.78 13.82 28.01 48.14 11.48 47.8 6.46m-13.91-19.14 4.69.09s-1.44-8.17-3.87-10.55c-4.96-4.87-11.99-4.12-16.44.66-2.04 2.19-3.6 9.94-3.6 9.94l3.77.08c1.4-3.62 7.34-20.59 15.45-.22m-18.75-12.35c-2.66-.73-8.5 1.93-11.35 3.78-1.05 1.16-1.05 1.33.2 2.98 2.73 3.59 6.9 5.31 7.2 3.97 1.2-1.9 4.23-9.99 3.95-10.73m30.96 9.08c.61-2.51-1.75-6.8-5.44-8.3-1.6-.4-3.18-.72-2.71 1.03a49 49 0 0 0 2.66 7.36c.74 1.62 1.22 2.43 2.8 1.82 1.23-.41 2.27-.8 2.69-1.91m201.03-170.72.04-21.82c-11.01 11.17-25.4 29.9-29.77 36.91zM416.42 272.02c4.67-2 8.1-8.1 6.92-11.18-.74-1.9-2.68-.38-4.64 2.46-3.15 4.55-3.95 5.05-6.72 5.05-2.95 0-4.13-.76-6.15-4.73-1.39-3.75-2.38-4.34-3.68-2.7-.6.74-.56 1.8.23 4.53 2.08 7.14 7.44 9.4 14.04 6.57m12.72-2.26c5.18-1.78 6.24-2.34 5.99-4.07-.26-1.8-4.38-4.2-6.7-3.76-1.7 1.02-6.07 7.94-5.82 9.18.6.96 2.33.1 6.53-1.35m-29.86-3.01c-.18-1.6-.4-3.17-.83-3.7-1.67-2-5.17-.58-5.17 1.96 0 1.93 2.75 4.12 4.97 4.12 1.58 0 1.35.38 1.03-2.38m29.26-13.04c7.36 2.77 11.1 3.08 7.09-.68-5.5-6.11-30.75-13.09-44.3-3.12-.95 1.37-.75 6.64.3 6.35 11.02-7.43 25.12-7.03 36.9-2.55m-25.2-21.07c-6.18 2.06-12 5.3-12.74 8.31-1.2 4.86.97 4.9 9.06 2.36a39 39 0 0 1 30.96 3.26c6.75 4.91 8.75 3.29 7.6-.84-3.76-13.63-24.84-16.1-34.88-13.09"/><path fill="#e2cf00" d="m800.48 145.06-45.5 45.08.63 53.36c4.57 8.39-70.24-23.9-82.04-33.68 1.37 35.64 50.02 76.25 81.65 91.12l.87 113.18s12.73-4.94 19.73-7.38c5.2-1.8 17.06-1.63 20.97-3.5 6.2-77.59 11.5-178.53 3.69-258.18m-253.1 55.84c-4.43.08-7.08 1.28-7.03 4.13-1.33-.22 16.82 66.62 25.08 94.53-16.08 16.25-32.86 44.47-8.84 70.6 5.12 5.57 14.51 10.3 23.43 15.64 3.99 3.86-48.82 37.9-95.83 37.93-15.08-33.04-36.12-14.77-47.74-3.24-9.07-.8-42.92-20.97-60.23-32.51-.28-.2-.1-4.97-.06-5.84C377.36 390 444 407 447 399.1c-1.93 0-29.9-18.91-37.93-37.57-10.24-21.06-18.46-49.97-18.46-49.97-3.73 10.69-2.46 25.5-12.73 30.81-3.08-34.8-52.77-17.05-28.03 16.98-13.9 4.08-25.79 11.27-39.28 17.25 28.23 38.4 67.08 63.95 108.11 79.02-5.41 11.53-37.37 37.47-11.12 68.06 1.19.95-25.08 29.6-38 52-9.72 16.87-6.8 29.82-5.68 30.23 35.59-40.78 55.59-75.28 55.59-75.28-.3 4.75 42.24 2.18 41.53-36.13.94-10.33 2.8-21.54 6.78-31.13 64.91 3.06 120.73-20.07 167.9-68.64 0 0 9.61 2.75 15.67 3.7 3.04.46 7.35-1.52 8.06-1.72 2.73-.14 6.68-.67 10.35-2.74 5.04-2.83 10.12-7.7 15.5-12.07 7.07-5.71 14.12-11.22 16.63-17.11 2.8-6.55.6-14.44-1.8-21.43-15.14-17.83-25.19 1.34-31.9-1.15-23.3-31.67-42.73-121.26-45.9-121.96-13.02-2.63-57.53-19.65-74.92-19.36m-159.9 61.14c-1.74.12-7.98 27.97-13.52 27.76-23.43-15.1-23.94 16.14-3.79 14.72 17.03-1.2 26.54-28.67 17.39-42.46zm-250.43 53c.78 169.35 3.82 338.63 7.8 507.93 15.3-3.78 26.43-6.66 41.44-.1 1.41-48.13-2.82-169.58-1.81-287.2 57.2-44.48 97.39-93.55 125.6-157.68l-87.33 40.9s-28.55 40.91-37.67 43.54c-1.3-5.82-2.75-75.08-1.57-104.78zm194.09 104.74-17.16 24.83s.4 85.28 1.39 126.38c.7 8.17 8.14 15.68 2.19 23 3.63 0 19.49 110.66 4.41 155.51-2.7 8.03-.17 13.71 4.05 15.55l32.7 33.19c10.33 3.42 20.36 2.08 29.03 0 30.96-28.32 74.93-77.95 74.93-77.95L346.41 610.4c-9.97-26.65-15.28-190.61-15.28-190.61m423.7 355.66c-84.17 62.93-120.36 152.47-120.9 151.87.3 1.04-.43 4.72 4.84 1.8 21.79-11.78 77.8-37.23 77.8-37.23 13.3-15.98 23.54-31.4 38.77-46.62 0 0 1.65 69.4.3 104.2C769.38 959.68 802 991.6 802 991.6s9.01-493-10.43-505.51c-18.87 3.65-28.35 10.55-35.4-11.34-4.97 100.37-.05 201.1-1.33 300.7m-182.8-277.46c-20.31 16.59-90.11 85.06-89.97 85.77 18.51 31.05 91.63 93.23 126.68 128l5.07 177.13c5.16-6.93 8.9-13.46 14.5-20.4 0 0-.91-89.68-3.08-131.73-.64-12.43-3.49-22.23-2.6-23.36-9.86-51.03-13.95-107.4.01-162.13-33.1-28.51-43.63-47.47-50.62-53.28m5.44 202.3a.4.4 0 0 0-.16.12c-17.14 24.4-49.91 77.4-52.26 77.27-.7-1.59-33.87-.1-40.14 20.76-5.26 15.54-5.66 29.84-9.5 45.87-66.56-2.18-115.29 18.86-166.6 66.16-14.59.57-27.37 1.76-36.35 5.09-7.52 2.78-11.56 7.8-16.2 11.16-13.02 9.43-16.54 17.5-15.9 27.35 1.16 17.86 32.72 20.4 34.33 7.81 1.6 0 30.9 66.9 33.74 78.3 6.9 18.43 14.3 52.92 15.18 52.96 11.79.77 77.99 19.33 78.22 12.6 6.24-2.68-23.01-98.41-23.01-98.41 51.13-42.9-5.24-88.74-18.5-87.07 29.13-20.72 62.53-34.68 99.38-36.52 5.7 20.48 32.14 31 45.45 3.78 0 0 57.27 20.5 57.04 27.3-23.58-3.56-42.97-5.42-66.59-7.68 45.25 24.56 46.63 56.92 55.87 89.14 1.26-5.7 13.2-30.63 13.2-30.63 15.34 34.02 44.52 10.41 32.48-17.06l36.3-16.84c4.2-2.12-54.27-67.88-107.44-77.2 2.69-4.89 3.74-9.5 6.52-13.48 13.32-13.09 23.66-32.23 3.27-55.15 13.46-18.8 44.66-64.18 42.68-65 0 0 .6-21.2-1.01-20.63M140.3 909.44c-.51 0-1.45 157.36-.35 235.48-1.3 3.23-2.15 20.52-2.15 20.52l48.41-45.48 1.45-58.78c12.65-3.02 91.44 36.97 85.13 36.75 6.02-2.53-36.37-82.57-85.81-91.45-.92-45.35-1.39-96.69-2.68-110.49-17.17 3.29-44 13.55-44 13.45m429.85 94.66c-13.56 4.04-19.21 32.54-14.82 46.36.81 2.56.3 3.11 2.45.6 5.29-7.75 3.62-23.19 12.96-31.35 24.64 7.43 22.2-24.62-.6-15.61"/><path fill="#d40000" d="m256.5 1189.71 64.1-96.82c76.52 25.57 154.63 26.03 233.58 13.41l70.55 83.41h-28.85l-44.4-63.42c-16.1 3.72-32.82 5.34-49.49 7.63l20.78 55.79h-22.62l-16.32-55.18c-38.3 1.48-64.39-1.93-90.98-5.04l-9.58 60.22h-23.02l15.54-62.18c-18.1-3.39-36.35-6.3-51.5-11.16l-47.06 73.34zm73.4-56.98 26.61 7.2-12.99 49.78h-48.68zm68.72 56.98 7.52-43.97c17.87 3.52 41.19 4.23 65.78 3.98l11.55 39.99zm125.95-40.77 20.99-5.56 31.46 46.33h-38.24zM690.7 1182c-22.18-44.61-52.48-83.41-85.4-120.34 32.15-33.8 59.26-72.87 85.3-117.3 25.83 44.84 55.62 86.38 88.45 119.05-36.11 35.92-63.77 75.02-88.35 118.59m178.77-80.32a356 356 0 0 0-39.18-52.39c14.34-16.12 26.83-33.39 38.08-51.44 12.97 19.91 26.34 37.18 40.08 52.06-14.53 16.24-26.71 34.03-38.98 51.77m-651.1-232.54c102.38-119.07 88.75-244.07 32.2-344.9l12.03-12.36c65.4 107.48 79.32 260.29-41.21 378.72-1.27-7.14-3.02-21.46-3.02-21.46M626.62 735.6c14.71 25.04 23.7 50.38 39.25 75.55L628.99 861zm-440.47 78.86c-.95-78.56.24-237.75.24-237.75l34.54-26.43c41.33 50.18 63.89 182.42-10.34 270.43-5.4-3.93-20.09-2.3-24.44-6.25m490.44-15.85c-94.74-159.8-46.56-276.32 44.75-379.8.26 7.98.86 15.92 1.58 23.86-78.4 89.76-109.74 222.5-32.88 342.6zM505.03 775.4l43.15-58.8s8.17-23.38 15.06-30.29l7.92-7c2.63 2.54 7.65 5.76 7.5 8.68-.17 2.76-4.23 17.35-4.23 17.35l-50.47 73.8s-15.31-2.7-18.93-3.74m229.5-285.37c1.36-1.54 18.49 5.6 18.49 5.6l1.1 241.6-34.3 22.03c-9.94 5.06-87.68-153.5 14.7-269.23m-361.2 101.78c15.6-21.27 32.05-39.68 47.18-59.21 3.91 1.34 14.18 1.57 14.18 1.57 1.1.59-3.45 16.2-14.64 26.97-11.26 11.47-38.04 42.9-38.83 58.72-.24 4.88-11.2 10.47-11.2 10.47l-7.8-8.21a101 101 0 0 1 11.1-30.31m-97.37-92.67 34.36-44.58L313.72 573zM158.54 236.5c32.7-34.81 61.61-74.77 88.92-116.07 24.92 41 52.57 82.92 87.15 116.91-31.49 34.54-61.33 75.97-87.37 117.05-25-40-52.97-81.4-88.7-117.89M28 246.94a230 230 0 0 0 39.05-49.93c12.09 18.34 23.5 37.25 39.67 52.26-14.92 16-19.7 21.08-40.04 50.92-11.48-18.6-23.4-36.93-38.68-53.25m360.38-48.2-68.02-85.03h32.94l40.51 60.17 48.52-5.54-17.08-54.63h20.11l14.2 53.75c29.76.7 58.84 3.02 87.1 5.85l14.5-59.6h20.48l-18.58 62.37 54.8 14.38 48.8-76.75h24.27l-69.2 99.1c-90.46-27.17-163.1-24.06-233.35-14.08m196.12-35.59 15.5-49.48 46.36.05-35.48 56.53zm-112.2-12.03-9.8-37.4h81.74l-10.55 41.8c-21.59-3.63-41.3-4.33-61.38-4.4m-98-37.4h32.63l12.71 38.7-18.81 2.13z"/></g><path fill="#d40000" d="M872.26 1120.97c-14.37.05-29.54 7.77-33.84 24.33-1.51 5.26-1.52 5.27-1.57 52.14-.04 38.75-.37 48.09-.37 48.09h-13.24V1261h43.11v-15.47h-14.3s-.2-48.2-.2-78.59c-.6-7.88.12-14.82 2.22-19.64 7.62-17.57 34.46-13.73 37.69 1.26 1.93 8.94.85 11.28.98 18.99h14.93s.4-13.56-1.06-21.48c-1.96-17.66-17.2-25.52-32.96-25.08zM67.93 39.02v14.5h14.34s.34 13.99.47 43.69c.13 28.82.72 43.12-1.14 51.32-5.05 18.93-32.96 19.02-38.5 5.42-3.24-7.92-2.37-14.06-2.54-22.02H25.14s.08 4 .1 8.9c.08 21.3 7.27 31.46 24.07 35.48 17.26 4.57 37.43-2.4 44.62-16.9 4.28-8.25 3.79-8.8 3.89-58.72.07-33.32.59-47.17.59-47.17h13.2v-14.5z"/><path fill-rule="nonzero" d="m309.7 108.23 78.77 94.24c16.42-5.87 99.13-15.3 148.76-3.99 8.64 33.88 17.8 68.09 27.47 98.93 0 0-3.1 3.62-5.33 5.92-31.7 36.52-9.27 71.8 19.73 83.3-5.22 10.86-60.8 37.9-94.64 34.68.06-.33-10.39-24.81-31.57-16.54-7.24 2.83-10.22 8.28-15.83 13.6-20.22-6.1-46.91-19.39-60.79-34 25.97 12.92 51.53 19.88 77.2 16.46 0 0-3.17-2.66-6.78-4.31-2.17-1-7.4-4.15-11.62-7-11.94-8.03-19.87-17.73-28.04-34.31-9.4-16.8-10.94-34.88-16.1-50.82-2.72 8.17-3.9 29.75-11.03 34.22-1.84 1.21-2.18.85-3.56-3.73-5.44-16.58-25.35-14.48-31.92-2.67-3.34 10.15-2.85 14.61 1.35 24.05l-12.06 6.7-.03 2-7.43 3.54-1.55-1.05c-34.55 16.68-68.4 34.06-103.65 50.04 0 0-18.73 31.05-35.85 43.4l-.68-105.46-50.72-45.82-.25 25.1 3.65 3.83c.7 176.55.11 350.24.22 510.53l.24 147.56-3.1.18-.16 17.21 3.5.78-.5 24.31-1.8.12-.27 15.38 2.76.43-.04 86.86-2.74 3.52.06 24.79 52.96-50.33 1.2-57.23c41.77 7.89 85.44 37.9 85.44 37.9-7.35-47.94-58.17-87.45-87.36-95.34l.1-113.6s-21.7 9.06-32.42 10.44c-5.31.76-7.36-.05-9.89-3.88-1.85-2.8-1.9-5.34-.22-11.12.77-2.7.75-3.4-.23-6.12-1.36-3.81-1.37-5.53-.03-12.27 1.4-3.95.78-6.06-.7-9.72-1.57-3.92-1.69-4.66-1.02-6.9 1.78-5.96 1.88-6.92.95-9.58-1.82-5.19-1.88-8.93-.2-12.3 7.81-13.11 25.32-9.88 34.82-9.4 4.81 5.35 7.69 8.34 8.13.58 3.38-9.27 16.45.22 22.55 4.16 51.98-69.65 77.62-163.94 12.42-281.95l-36.27 29.03.08-36.33c48.1-30.91 102.2-101.18 125.64-156.6 7.79 9.13 16.73 18.11 25.17 27.31l-5.51 9.22-1.63-.92c-14.92 28.47-55.44 82.32-56.1 81.77a817 817 0 0 1 39.72 84.25l2.98-1.33 2.65 8.56-5.25 1.57c17.75 58.2 18.33 112.1 4.98 161.81l3.13 13.2s18.77 18.2 23.84 23.54l27.98 27.1 17.13-16.77-.99-1.43 150.23-149.15 9.37 8.96a162399 162399 0 0 1-251.83 252.65l-5.54.8c-3.15.47-7.8.68-10.77.47-4.9-.34-5.5-.23-9.4 1.63-4.43 2.1-8.07 5.21-12.96 11.05-2.23 2.68-3.77 3.83-6.24 4.72-31.32 18.68-3 56.3 23.64 36.5 19.53 37.3 36.05 80.75 45.18 123.73 0 .32-3.51 1.51-3.51 1.51l-70.2 104.1h27l2.82-4.79h-20.24l64.59-93.29c82.17 22.39 157.58 25.57 234.12 12.25l66.62 81.04h-26.42l3.76 4.79 34.2.54-78.31-92.41c-28.03 7.5-102 13.53-148.38 5.68-7.1-34.47-18.8-71.92-27.45-101.73 44.27-34.65 11.03-80.4-16.3-86.78-1.32-2.5 55.41-36.99 95.83-34.6 11.57 27.8 36.91 23.68 46.01 3 16.76 6.15 38.51 12.3 55.78 26.03-23.02-5.05-49.7-7.8-71.66-8.15 41.76 16.2 53.48 50.33 58.62 82.52.91 5.33 3.77 12.22 3.77 12.22 3.56-11.62 6.47-23.62 13.47-33.57 3.23 11.38 15.08 20.22 27.03 13.45 6.94-5.02 9.35-13.64 7.15-25.56l-.92-5.13 9.28-5.02 1.21 1.03s10.18-4.34 15.22-6.8c.8-.38-.93-1.96-.93-1.96l93.84-44.25c-.35-.2 23.66-32.98 37.45-45.63.4 39.28.31 55.43.29 102.07l5.3 5.17c4.7 4.59 14.95 14.1 38.03 35.32a76 76 0 0 0 8.84 7.14l-.7-686.93h-.78l-.01-13.22 1.08-.06.02-34.37-.97-.57v-10.82l1.28-.95.1-92.79-1.5-.25-.09-22.26-52.3 55.32.39 52.17c-23.34-3.02-52.22-17.96-72.1-30.01-6.42-3.92-10.01-4.96-9.8-2.72 2.78 31.06 47.75 78.56 82.3 90.99l.06 116.85c0 .06 8.16-4.08 13.14-6.18l.75 2.08 11.14-4.61.9-2.4 9.66-1.22c.1 1.97.44 1.7.44 1.7 8.6 2.4 12.4 8.27 8.94 14.86-1.21 2.21-1.44 5.34-.44 6.16 3.73 5.88 4.7 11.07.2 16.63-1.74 2.85-1.72 4.46.06 7.48 4.66 9.4 2.01 8.77-1.48 14.36-.8 4.23 3.83 6.98 2.3 10.95-.7 2.63-3.47 5.7-5.35 7.1-2.2 1.59-4-1.37-4-1.37s-6.98 2.99-12 3.94c-4.92 1.6-13.4 4.46-16.34-2.18-1.68-3.8-.33-7.27-.45-11.51l-7.23-.79-.25 19.3c-4.14 2.2-20.6-6.21-20.6-6.21-70.55 91.46-68.58 192.9-16.24 277.88.5 1.37 36.87-24.87 36.87-24.87s-.07 21.51.24 33.17c-46.22 38.23-90.88 89.68-122.8 153.1l-19.79-23.44c3.41-3 3.54-7.77 3.47-11.38l14.36-21.4.12-5.57 37.34-52.15c.58 3.12-38.52-70.02-43.73-93.83l2.58-.7c-17.55-66.4-13.95-112.9-1.27-167.06l-3.62-3.5-49.26-49.19a2697 2697 0 0 0-11.97 11.13c-.6.57-3.6.24-4.22.8a2300 2300 0 0 0-75.51 74.06c-.64.66.43 3.36-.2 4.01-24.71 25.45-50.33 49.6-75.33 75l-9.14-8.7c88.55-88.52 255.35-252.93 255.35-252.93s.72-1.3 1.88-1.35c4.64-.18 8.79-1.23 13.37-2.56 5.5-1.27 6.39-1.68 8.7-4.06a51 51 0 0 1 5.16-4.56q3.61-2.66 16.57-13.94c5.28-4.59 8.54-11.28 8.42-17.25-.2-10.64-7.24-19.7-16.31-21.01-3.77-.54-11.16 1.42-14.9 3.95-2.86 1.93-4.2 2.8-5.43 1.94-18.07-36.64-35.66-82.73-43.11-120.76-.4-2.4-.18-3.11 1.77-6.13 1.22-1.87 3.87-6.01 5.9-9.2 16.15-23.36 34.89-51.73 52.46-77.34l8.59-12.44 4.28-7.04h-27.86l-3.44 5.48h22.94L621.4 211.9c-125.73-41.1-228.75-15.05-231.22-14.49l-67.96-83.7h31.08l-3.77-5.48zm61.18 0 3.47 5.48h32.6l-1.85-5.48zm54.38 5.48h20.1l-1.16-5.48h-20.62zm35.97-5.48 1.28 5.48h81.73l1.45-5.48zm99.93 5.48h20.48l1.54-5.48h-20.6zm40.53-5.48-1.76 5.48h46.43l3.48-5.48zm198.54 37.9.73 15.21-33.47 35.28.03 49.25-9.74-2.26-.38-50.9zm-9.38 32.43c.28 15.1-2.16 29.55 1.83 44.94 1.97 7.57 5.95 16.44 6.44 25.4l-11.04-.27c-1.4-4.52-1.94-9.5-3.6-15.06-4.07-13.71-7.38-28.16-4.37-42.7zm-240.97 24.61c.4.75 1.72 7.12 2.94 13.04 5.8 32.45 13.56 56.53 21.49 81.04 10.07 30.88 24.98 69.75 39.47 87.76 1.92 2.25 2.87 4.81 2.17 5.92-1.16 1.9-7.08-.74-11.05-4.92-1.63-1.72-4.75-6.52-7.05-10.83-5.06-9.47-11.87-23.27-12.55-25.45-.27-.88-2.94-7.7-5.94-15.15a386 386 0 0 1-12.73-36.4c-3.47-11.5-6.67-23.51-10.55-35.61-6.34-19.8-10-35.54-13.53-53.74-.52-2.67-1.41-5.79-1.08-6.42 2-1.45 7.45-.87 8.4.76m3.55 1.24c-.62-.53 5.76-.63 7.8 1.08.6.6 1.69 4.42 2.62 9.3 5.76 29.87 14.45 60.72 24.54 89.95 8.07 23.35 16.88 45.84 27.86 64.04 3.44 6.07 8.1 12.55 14.04 19.56 3.32 3.92 3.6 4.48 2.7 5.55-1.1 1.33-3.03 1.17-6.73-.6-3.46-1.64-7.2-5.23-10.71-10.3a605 605 0 0 0-4.07-5.8c-16.2-28-26.02-54.59-34.92-81.6-9.14-27.68-17.35-55.69-22.93-87.96q-.08-1.62-.2-3.22m20.34 4.2c1.42 1.45 2.23 4.2 3.47 9.97 6.74 27.68 12.26 52.42 20.22 75.14 4.28 12.22 8 24.44 12.59 35.95 7.33 18.4 16.31 35.15 27.34 49.1 3.65 4.6 10.25 10.26 15.8 13.56 3.84 2.28 4.42 2.86 4.16 4.19-.33 1.18-4.08 1.68-5.31 1.59-6.08-1.04-15.05-5.74-17.6-9.23-18.56-20.05-31.83-52.87-41.5-79.8-16.6-46.35-30-104.26-27.46-102.46-.17-1.35 6.65.2 8.3 2m7.97 1.66q.9.02 2.04.33c3.47.95 3.92 1.43 4.75 5.25a865 865 0 0 0 19.23 72.02c7.14 22.6 14.48 43.9 25.92 66.26 8.39 16.32 19 27.59 30.43 33.3 3.28 1.63 6.2 3.2 6.5 3.5s.22 1.14-.17 1.9c-.6 1.12-1.3 1.34-4.1 1.3-5.18-.1-8.81-1.7-14.37-5.44-14.59-10.06-27.34-32.84-32.97-45.76a521 521 0 0 1-18.87-50c-10.22-32.05-16.58-53.26-21.25-80.3 0-1.55 1.06-2.39 2.86-2.36m218.6 43.27-.1 9.38c-36.74 2.44-74.39-13.1-104.66-27.07 22.8 30.25 47.14 57.09 104.65 62.63l.1 9.68c-74.9-1.05-127.66-76.91-124.88-95.82 30.8 19.9 86.46 42.92 124.89 41.2M593.6 213.8c1.8.08 4.23.85 5.18 1.8 6.12 22.85 10.58 48.22 20.7 73.68 12.44 31.3 19.33 58.91 42.4 84.7 7.17 7.36 21.22 7.14 21.22 7.14s-1.77 3.99-4.17 4.65c-4.93.75-8.52.97-12.12-.2-13.35-5.63-23.57-19.9-28.84-29.57-4.94-7.24-16.99-37.1-26.92-67.53-10.82-33.12-19.73-67.57-18.71-74.5.38-.15.66-.2 1.26-.17m12.35 3.85q1.33 0 3.46 1c1.5.72 2.16 1.17 2.94 4 .51 1.83.43 4.68 1.33 9.32 5.2 23.85 12.39 43.23 19.52 62.1 6.77 17.94 14.04 35.54 23 51.46 4.52 8.02 9 15.52 11.84 18.35 7.71 7.72 20.81 8.1 24.67.44 2.14-4.35 1.7-11.25-2.53-14.82-3.29-3.13-10.73-1.8-10.93 1.97 0 1 1.85.56 4.53.25 7.5-.87 9.84 12.38.21 14.6-12.2 2.8-20.65-13.69-9.89-23.79 18.24-12.36 32.16 4.53 27.85 20.79-4.16 9.6-11.14 14.5-20.36 14.84-11.9.38-16.81-3.3-29.01-21.03-14-22.44-20.06-44.35-29.92-68.9a300 300 0 0 1-18.45-69.58q.4-1 1.74-1m11.57 3.83c1.07.04 3.34.6 4.34 1.22.6.37 1.46 1.2 1.46 1.2 16.4 59.84 30.07 95.7 44 121 0 0-.23 4.65-1.15 5.97-1.66 2.37-2.47 1.79-4.64-1.96-8.75-16.95-17.1-35.67-24.87-54.98-9.14-22.7-17.26-46.22-20.7-68.59.18-2.88-.47-3.69 1.56-3.86m110.63 34.21a4.2 4.2 0 1 1 0 8.4 4.2 4.2 0 1 1 0-8.4m-340.8-.77c-4.86 6.63-8.85 30.35-13.9 30.64-5.57-.09-12.34-3.29-16.71 1.75-5.3 6.11-2.05 12.87 4.5 16.6 3 1.48 9.4 1.84 13.29.72 15.9-5.34 21.96-31.16 12.82-49.7m356.71 6.22a6.07 6.07 0 0 1 6.07 6.08 6.05 6.05 0 0 1-6.07 6.06 6.05 6.05 0 0 1-6.06-6.06c0-3.35 2.7-6.08 6.06-6.08m-356.43 2.88c5.45 13.67-.58 30.03-7.2 35.54-6.1 5.08-15.68 5.73-21.15.79-4.56-4.28-2.53-14.56 5.96-13.8 2.86.1 6.26 2.7 8.18 5.44 5.53.57 11.9-27.48 14.21-27.97m377.58 3.34a6.85 6.85 0 0 1 6.85 6.85 6.85 6.85 0 0 1-6.85 6.85 6.85 6.85 0 0 1-6.85-6.85 6.85 6.85 0 0 1 6.85-6.85m24.25 4.83a7 7 0 0 1 6.99 7 7 7 0 0 1-7 6.98 7 7 0 0 1-6.98-6.99 7 7 0 0 1 6.99-6.99M563.8 304c1.04 0 1.77 1 2.45 3 1.42 4.17 1.4 4.67-.82 7.45-21.5 29.76-1.9 60.18 29.24 63.48 2.63.19 3.95 3.15 5.33 6.59-.18 1.63-.2 1.63-7.27 1.75-4.62.09-8.31-.2-10.63-.82-10.9-2.94-24.28-12.8-29.74-21.93-6.3-10.53-7.36-21.42-3.47-35.93 2.5-9.32 5.66-15.47 10.56-20.54 1.95-2.03 3.3-3.04 4.35-3.05m203.77 3.3.36 102.1-10.88 3.96.45-108.57zm20.57 3.95c13.55 33.63 14.15 64.46 1.92 92.5l-12.36 1.8c16.95-39.52 9.74-67.8.17-95.1zm-649.77 5.6 43.98 41.51 1.54 462.42-7.01-2.47-2.8-454.84-35.7-32.74zm429.53 1.33.23.02q1.75.23 3.24 4.43c1.16 3.31 1.14 3.4-.16 6.7-6.04 14.78-1.11 28.86 13.79 33.3 3.54 1.12 4.13 1.7 6.2 6.08 1.35 2.85 1.96 3.88 1.44 4.51-.78.57-2.68.83-8.28-.38-22.18-7.56-30.23-31.82-20.14-51.07q1.88-3.3 3.46-3.57zm-176.58-1.83s4.63 16.37 4.19 20.08c-1.17 7.17-11.37 18.63-20.28 22.81-8.27 3.18-20.75 1.58-25.98-3.92-18.98-22.22 16.43-44.51 25.33-21.4 5.35 15.19-16.4 18.77-17.38 7.12 0-3 .97-3.95 3.78-5.9 2.48-1.74 2.2-3.29.05-3.29-8.22 3-8.4 10.58-4.7 15.36 7.4 7.73 16.56 3.23 22.87-2.45 8.5-7.66 10.18-18.64 12.12-28.41m183.64 16.88c.43 0 9.13 20.79 10.28 23.75-.28 2.09-2.56 1.94-6.44-.78-3.94-2.74-5.12-4.69-6.78-11.07-.5-2.27-1.35-10.52 2.94-11.9M398.4 342c1.91 0 3.9 7.04 3 10.64-1.56 6.24-17.9 16.78-29.38 18.95l-5.48 1.03c-2.37.42-5.14-.9-8.04-3.85-2.04-2.08-3-4.14-2.51-4.63.4-.4 5.66.52 10.12.45 12.51.15 22.17-8.82 29.6-19.52 1.13-1.69 2.34-3.07 2.7-3.07m-248.63 5.21s8.47 7.66 12.93 12.06c-.48 20.38-8 42.5-8 60.72.18 15.85 10.44 29.05 11.48 42.85.62 8.93-2 22.18-6.4 32.23a73 73 0 0 0-6.25 29c.52 22.52 16.7 47.16 11.02 69.44-5.34 20.93-11.42 33.03-9.8 44.14 3.1 21.46 14.5 40.47 11.48 58.3-2.83 16.62-10.34 33.22-9.53 48.2.93 17.3 7.4 31.77 9.22 47.55 1.2 10.28-1.72 26.27-1.72 26.27l-11.86.97c6.52-24.3-3.2-46.27-6.92-69.63-3.17-19.9 5.74-35.72 8.4-52.69 1.65-10.54-.22-20.57-5.44-34-10.32-24.78-6.6-40.93.82-62.5 9.2-22.99-3.45-41.18-6.6-63.2-1.62-18.98-.36-32.4 6.76-49.27 5.32-16.24 6.82-25.65-1.1-41.24-5-9.85-6.31-15.67-6.33-28.64 2.6-25.73 9.54-40.16 7.84-70.56m254.28 10.26q2.76 0 2.76 3.93c0 4.8-7.16 10.88-19.82 16.84-6.56 3.08-10.38 3.55-14.21 1.73-3.59-1.7-3.42-3.18.52-4.33 9.9-2.89 16.91-6.84 24.91-14.02 2.54-2.28 5.18-4.15 5.84-4.15m-57.28 3.32c32.66 34.95 64.68 52.94 89.16 61.35l-3.85 9.13c-32.17-12.46-64.98-29.8-92.77-67.04zm62.92 5.7c.88 0 4.2 4.22 4.2 5.35 0 .65-1.2 2.76-2.7 4.66-2.15 2.77-4.06 4.2-9.45 7.16-7.32 4-11.73 4.98-14.91 3.3-3.15-1.67-2.09-3.07 5.78-7.69 4.07-2.4 9.49-6.25 12.04-8.57 2.56-2.3 4.82-4.2 5.04-4.2m-86.5 5.15c26.75 36.6 61.2 60.93 101.7 73.9l-6.36 8.61c-37-12.75-73.18-35.8-106.25-76.41zm93.43 4.51c1.34 0 4.37 3.42 4.37 4.94 0 .73-.6 2.07-1.31 2.98-1.43 1.82-8.9 7.43-12.08 9.08-2.5 1.3-4.36 1.27-7.07-.08-3.22-1.6-2.68-2.95 2.57-6.32a70 70 0 0 0 8.65-6.8c2.18-2.1 4.37-3.8 4.87-3.8M309 378.82c-.76.96-39.4 89.43-121.22 152.16l-.4-14.7c45.34-35.95 78.3-85.16 103.15-128.14zm115.39 6.35c1.24-.03 2.11.81 2.98 2.46 1.04 1.98-.1 3.74-4.67 7.2-2.86 2.15-3.92 2.58-6.28 2.53-6.1-.1-5.94-1.58.74-7.55 3.47-3.1 5.64-4.6 7.23-4.64m158.04 4.38 17.05 1.31c4.6 3.2-66.67 49.83-116.08 45.65l1.3-11.17c43.39 1.23 98.9-33.78 97.73-35.79m-146.33 4.36c3.92 2.2 8.8 4.8 7.58 5.65-1.81 1.13-13.38.4-16.05-1.03-2-1.07-1.88-1.63.87-4.71 3.36-3.79 3.95-1.94 7.6.1m-152.06-2.79c-27.03 47.7-59.23 91.22-96.5 119.58l-.5-25.22c35.48-27.3 62.33-77.18 62.4-77.36zm338.57 3.05 8.27 4.83c-51.55 47.7-107.22 68.27-160.71 63.12l4.3-9.67c86.8 6.86 144.46-57.36 148.14-58.28m12.53 1.7s2.77-.36 2.48.2c-17.12 16.78-40.62 34.68-56 44.67-72.9 74.85-135.27 133.91-198.76 200.59L372.7 630.7l9.19-9.72c.03-19.2 23.55-40.75 37.5-57.34 5.81-6.55 16.74-23.42 15.5-30.5-.42-1.63-.48-2.24-.48-2.24 22.06-4.41 27.34-22.3 27.81-38.1 1.03-10.58 2.44-20.18 6-28.87 99.84 8 164.17-65.5 166.91-68.07M461.16 406.9c11.32-.04 19.88 8.92 19.85 21.63-.1 5.31-1.96 9.35-9.17 23.4-6.98 12.01-7.88 19.32-10.63 33.2l-7.1-6.38-12.9 11.64.18-16.95s4.45-5.66 11.65-13.74c9.13-10.13 17.39-23.18 17.01-30.5-.24-7.32-7.99-13.3-15.9-8.5-6.88 4.8-10.06 13.5-14.1 39.5-.73 4.61-1.4 10.04-1.77 11.23-1.02 3.2-10.97 12.6-10.97 12.6-.85 0-4.77-19.08-4.77-19.08l-10.06 1.65a133 133 0 0 0 26.56-43.85c5.4-9.85 12.27-15.75 22.12-15.85m-218.74 4.04s-20.02 41.59-55.15 68.63l-.23-16.28c20.41-15.83 35.97-43.12 35.95-43.06zM724.17 412c-69.48 71.94-160.16 204.41-47.62 390.51l14.86-17.15c-90.62-168.31-26.4-255.55 33.25-343.08zm-375.7 5.93c20.35 14.47 41.58 28.82 69.04 37.95-1.47 4.9-39.21 36.66-12.12 66.03 1.13 1.54-1.75 5.27-6.17 10.58-12.93 17.68-25.85 30.28-36.66 50.18l-.45 37.4-10.81-9.55zm373.02 3.45.47 21.33c-103.23 125.46-91.6 238.42-33.25 342.48l-11.18 11.34c-95.64-164.62-35.97-288.72 43.96-375.15M466.83 434c-4.56 12.01-24.46 32.61-24.46 32.61s2.63-20.06 4.3-26.38c1.26-4.83 4.12-11.36 6.95-14.48 8.03-8.84 16.05 1.2 13.21 8.25m-136.96-11.28 1.93 168.1-14.5-14.64-2.15-128.53zm-19.6 32.9 2.88 114.13c-14.48-34.2-34.84-71.63-35.25-71.27 0 0 16.66-22.1 32.37-42.87m114.6 35.71s2.21-1.86 5.68-5.84c7.53-7.6 8.2-7.65 7.51 2.6-.26 3.94-.04 9-.04 9 4.4-2.55 14.8-14.82 17.73-12.6 2.27 2.12 4.1 6.56 4.15 13.47-.26 13.5-7.9 25.92-20.03 29.96-33.44 10.37-55.88-28.21-32.65-52.68 2.31-2.43 8.89-6.92 12.05-6.03 3.91 7.14 3.78 15.08 5.6 22.12m331.89-12.12c1.94 5.32 4.43 10.59 11.21 12.96-1.04 163.45-.26 452.8-.26 452.8l32.86 30.84-.2 13.47-43.57-39.87s-2.34-341.23-.04-470.2m32.64 7.57c1.17 15.8-1.5 32.46 1.2 48.7 2.68 11.23 6.75 21.36 7.07 32.4.3 10.1-.35 15.86-4.67 29.97-3 9.85-3.31 11.42-4 21.26-1.63 13.72 2.8 26.14 6.2 37.06 4.52 14.49 3.26 32-3.97 55.1-2.6 8.32-3.1 11.82-2.72 19.36 1 15.82 6.65 30.85 9.53 46.38 1.56 8.9-.04 20.54-5.52 40.28-2.04 7.35-4.2 20.14-4.2 24.97 0 5.19 1.67 14.96 3.28 19.17 7.6 19.98 7.97 23.56 8.35 35.56.06 9.02-2.54 18.14-5.74 26.07-5.33 12.68-1.83 25.7 0 39.94l-13.1-11.2a48.5 48.5 0 0 1 1.08-32.69c5.1-14.23 6.37-15.55 6.3-23.75-.1-10.86-6.32-23.7-8.9-31.35-4.57-13.56-4.59-26.86-.04-41.2 2.23-7.05 5.46-20.86 6.18-26.47 1.4-10.78.34-19.29-5.07-40.92-2.64-10.55-3.2-14.63-3.39-25.13-.17-9.74 1.25-19.85 4.38-31.58 4.5-18.64 4.44-29.84-1.42-47.13-4.73-14.3-6.06-23.99-4.85-35.37a55 55 0 0 1 5.54-18.96c5.61-14.02 6.47-27.42 2.3-40.81-7.19-27.38-7.07-41.3-6.36-66.02zm-36.82 8.96c-1.14 112 .02 240.24.02 240.24S719.42 759.2 719.55 758c-42.75-70.5-59.04-174.35 15.63-268.01 0 0 12.02 5.12 17.4 5.75m-504.63 26.7c60.51 112.98 68.39 227.12-31.67 344.21 3.23 10.35 2.7 20 1.1 29.44 19.5-15.18 175.92-171.41 44.19-388.95zm308.35-9.2 29.72 1.75 2 25.57-9.6 9.52s-.18-5.29-.3-10c-.16-5.8-.97-10.84-1.52-10.66-.5.16-1.04 6.9-1.47 14.25l-.44 10.98-3.32 3.32c-4.43 4.43-5.33 4.08-5.5-2.15-.37-13.56-.34-14.48-1.33-13.5-.55.56-.87 5.2-1 12.21-.12 5.56-.5 10.9-.87 11.84-.75 1.94-6.4 6.99-7.84 6.99-1.38 0-1.3-1.96-1.3-10.4 0-7.1-.76-11.01-1.9-8.39-.27.62-.75 7.69-.84 13.43-.1 5.74-.48 10.99-.83 11.64-1.24 2.3-7.07 7.25-8.1 6.85-1.47-.57-1.84-4.79-1.79-11.84.03-3.46.57-6.38-.76-7.31-1.34-.94-1.57 3.06-1.21 13.21l-.1 11.04-3.73 4.07c-5.9 6.08-6.31 5.78-6.32-4.72.26-8.3-.03-11.95-1.67-11.3-1.65.67-.99 4.68-.67 12.87.3 7.32.2 11-.3 11.93-.4.73-2.31 2.9-4.25 4.79s-4.33 4.5-4.61 4.5c-.45-8.81-1.21-27.8-1.21-27.8l-31-1.37s6.36-7.54 9.05-8.99c1.4-.74 3.59-.83 11.35-.5 5.3.23 12.42-.22 13.06-.46 2.33-.9-2.52-1.7-9.37-2.14-4.56-.32-5.75-.2-10.81-.94l4.5-4.66 3.39-3.36 9.9.32c5.97.2 10.42.17 11.11-.22 5.85-1.15.37-2.48-6.3-2.5-6.52 0-10.2-.02-10.2-1.45 0-1.45 7.3-8.06 9.37-8.5 1.07-.22 6.37-.44 11.78-.47 9.3-.08 12.67-.22 12.14-1.76s-6.67-1.09-10.77-1.27c-11.38-.02-11.9-.44-4.13-7.25l3.77-3.3 7.12.2c10.77.3 15.97-.12 15.97-1.15 0-.92-7-1.81-12.94-1.81-3.56 0-6.45.06-6.45.06 2.66-3.46 5.5-6.27 8.62-9.34l9.6-.18c7.02.1 11.32.37 11.45-.91.11-1.28-2.52-1.27-5.74-1.3-4.37-.02-9.55-.4-10.23-1.08-.73-.74.64-2.78 3.69-5.51zm-294.23.34c83.13 135.8 53.12 282.55-39.58 373.9l-2.72-17.83c87.52-106.42 102.8-216.3 32-345.59zm154.6 18.23c-14.92 22.45-37.74 44.58-46.35 62.91-1.77 2.06-2.34 6.71-5.08 7.64-1.37 0-1.81-2.59-1.47-8.58.26-4.51.68-6.02 2.86-10.43 11.78-21.5 25.43-36.96 40.5-57.38zm3.5 2.18 13.8.87a71 71 0 0 1-12.08 23.06c-6.27 8.12-13.8 16.3-22.57 26.3-12.7 14.47-19.07 29.2-18.48 35.68a106 106 0 0 1-9.42 9.1l-8.05-7.4c5.97-30.61 34.87-58.73 56.8-87.61m168.8 12.42 4.48.27c15.3.9 24.84 1.83 25.39 2.5.34.4.78 2.76 1 5.2.33 3.74.02 6.22-1.95 15.1-1.29 5.86-2.74 11.05-3.22 11.53-1.76 1.79-2.47 0-3.28-8.3-.5-5-.7-8.66-1.35-8.25-.32.2-1 5.57-.8 9.59.5 10.44.44 13-2.81 16.15-5.68 5.51-6 4.95-6.43-4.84-.17-4.06-1.14-9.98-1.42-10.27-1.23-1.23-1.64 4.4-1.66 13.92v10.15l-2.7 2.94c-3.52 3.81-4.66 4.4-5.95 3.1-.8-.8-.51-2.54-.51-8.34 0-6.8-1.19-10.7-2.48-9.4-.24.24-.3 6.82-.32 12.55s-.09 10.8-.16 11.25c-.21 1.38-6.65 7.85-7.8 7.85-1.37 0-2.45-7.47-2.45-13.59 0-4.08-.87-4.8-1.73-2.56-.22.57-.39 6.3-.39 11.44v9.35l-3.78 3.9c-5.06 5.24-5.89 4.94-5.9-2.23-.02-6.18-.43-9.44-1.67-9.44-.72 0-.89 2.92-.89 9.86 0 4.77-.31 9.47-.68 10.47s-2.04 3.2-3.69 4.88c-1.65 1.69-3.35 3.06-3.76 3.06-.7 0-1.7-5.85-1.44-8.38.06-.53.06-4.21 0-8.19-.13-9.5.51-9.1-14.64-9.57-17.78-.56-18.03-.67-12.68-5.84 5.08-4.92 4.36-4.73 16.15-3.95 9.46.63 10.6.6 11.55-.36.59-.58.92-1.21.73-1.4-.18-.17-3.78-.5-8.01-.73-11.71-.66-12.73-1.5-7.77-6.45l2.8-2.82h11.97c8.1 0 13.6-.36 13.9-.84.77-1.26-2.44-1.56-10.13-2.02-4.13-.24-8.02-.58-8.64-.76-1.95-.58-1.23-2.55 2.07-5.64l3.19-2.99h10.57c9.82 0 14.62-.63 14.62-1.93 0-.92-1.95-1.28-6.98-1.34-7.13-.1-11.89-.79-12.21-1.76 1.74-3.37 4.14-5.24 6.95-8.06l10.75.39c10.83.38 14.22 0 14.22-1.9 0-.98-4.63-1.69-10.63-1.32-3.86.23-8.54-.7-8.54-2.06 0-.58 1.55-2.62 3.46-4.5l3.48-3.43 10.54.42c5.87.24 12.14.18 12.6-.14 1.76-1.2-2.3-2.14-8.91-2.52-10.2-.6-10.88-1.38-5.48-6.49zm-367.27 5.64c54.58 97.71 46.4 189.78-11.71 268.12a53 53 0 0 0-21.39-6.81l-1.47-235.93zM612 590.24c1.08-.17 1.06 1.63.76 5.42-.25 3.04-.71 6.23-1.03 7.08-.63 1.65-1.13 1.72-6.43.97-6.03-.86-5.95-1.95.7-8.48 3.2-3.16 5.02-4.85 6-5m-292.98 4.4s7.2-.05 10.78.08c0 0 .56 18.28 2.03 28.83l23.39 1.12-9.08 9.45-17.74-.57s-5.4-25.95-9.38-38.91m278.7 11.05c3.3-.05 11.95 1.43 12.96 2.44.8.8.82 2.74.12 14.54-.25 4.25-.5 13.4-.56 20.3-.1 12.52-.1 12.57-1.55 12.77-1.91.27-2.12-.4-2.64-8.64-.3-4.64-.93-8.7-1.47-8.88-.63-.2-.57 3.89-.57 12.35v10.93c-1.86 1.54-3.58 3.59-5.71 4.67-1.31 0-2.01-2.05-2.67-7.77-.64-5.68-1.26-9.69-2.03-8.42-.18.3-.1 6.49.26 11.56l.66 9.24-4.1 4.14c-4.21 4.24-4.74 4.6-5.42 3.5-1.56-4.21.66-23.5-3.14-25.95-.61-.31-5.65-.45-11.5-.7-9.87-.42-15.47-.58-16.85-1.77-.84-.72 3.82-6.13 6.21-7.2 1.73-.8 3.68-.83 11.83-.29 9.42.63 14.18.56 12.93-.64-.33-.32-5.13-1.02-8.88-1.4-7.58-.75-10.25-1.5-10.25-2.91 1.76-3.14 3.92-4.98 6.52-7.66l3.66.39c2.02.2 6.8.7 10.6 1.14s11.5.5 8.4.24c1-1-2.92-2.04-8.38-2.72-10.28-1.27-11.22-2.43-6.04-7.53l3.18-3.12c5.4.41 10.86.55 16.21 1.37 3.92.62 6.05.4 6.05-.93 0-.92-1.95-.89-6.7-1.82-1.7-.35-10.56-.22-10.7-2.83 2.08-2.9 5.82-8.17 9.58-8.4m-239.66 22.18c1.57-.1 1.65 3.73 1.81 13.83.19 11.07.37 12.97 1.31 13.92.91.9 3.18 1.22 12.9 1.71 14.86.76 15.25.97 10 6.02-3.65 3.52-3.8 3.07-6.8 2.72-7.86-.92-19.35-.7-19.8.02-.78 1.26.06 1.5 7.25 2.06 8.74.66 11.14.97 11.14 2.45 0 .65-1.5 2.57-3.3 4.27l-3.31 3.09-9.2-.37c-9.7-.4-14.67-.53-14.67.78 0 .8 5.53 1.68 14.3 2.55 2.28.22 4.61.26 4.73.64.32.95-4.1 6.44-6.84 8.47-2.22 1.67-2.98.74-12.69.53-9.92-.21-10.77.16-8.92 2 .44.43 2.08.49 5.78.74 6.07.43 8.98 1.34 8.98 2.84 0 1.43-5.47 7.1-8.04 8.32-2.25 1.07-3.22 1.12-8.23.42-3.95-.55-4.7-1.38-4.6-5.08l.65-24.02c.59-22.3.78-23.44 3.73-23.02 1.25.18 1.55 1.7 1.9 9.26.35 8.05.69 9.65 2.02 9.65.5 0 .58-3.2.27-10.96-.5-12.04-.51-13.83 3.16-17.31 1.63-1.56 2.93-2.8 3.7-1.68 1.56 4.75 1.12 9.94 1.57 14.7-.04 4.8 1.83 5.8 2.26 1.24-.22-7.25-.27-13.76-.33-21.5l4.48-4.42c2.36-2.35 3.85-3.82 4.8-3.87m-28.99 9.02c1.77-.3 11.73-.13 13.18.2-2.51 3.96-7.84 9.1-11.5 11.38-.9.05-1.85-9.6-1.68-11.58m281.89 21.89 2.12 14.89-16.25-1.11zm-219 2.42a1 1 0 0 1 .29.04c1.17.44 1.5 3.32 1.97 17.13.22 6.52.67 11.6 1.07 12.1.47.56 2.5.83 6.27.83 3.05 0 8.82.2 12.8.43 8.7.5 8.92.87 3.75 5.98l-3.5 3.47-10.9-.45c-11.17-.46-13.03-.27-13.03 1.27 0 1.05 1.9 1.54 5.47 1.45a89 89 0 0 1 7.9.42c6.53.61 6.65 1.1 1.79 6.35l-3.5 3.76-3.41-.46c-5.47-.75-19.85-.57-20.68.26-1.34 1.34.4 1.92 6.95 2.32 10.16.62 11.92.92 11.92 2.07 0 .56-1.44 2.46-3.18 4.2l-3.16 3.18-12.9-.67c-9.02-.16-12.11 0-12.32.58-.35 1.02 1.14 1.34 10.45 2.3 8.96.92 10.26 1.84 6.85 6.08-3.73 4.65-5.14 5.17-12.18 4.5-7.75-.76-15.67-.78-16.82-.05q-2.69 1.69 5.56 2.3c8.35.62 13.21 1.5 13.21 2.73 0 1.38-2.76 4.93-5.43 6.97l-2.2 1.68-9.52-1c-9.5-1.02-14.35-.52-13 .84.4.39 3.93.94 7.84 1.23 7.16.51 10.71 1.44 10.71 2.92 0 .44-1.82 2.6-4.05 4.81-2.25 2.24-4.78 3.72-4.78 3.72l-29.33-2.64s-1.5-5.23 1.45-19.45c2.65-12.82 3.74-15.7 5.01-13.3.35.65.68 3.77.93 5.9.6 5.14 1.85 8.37 2.62 8.37.85 0 .85-3.06-.26-10.25-1.55-10.03-1.72-10.42 2.09-14.47 3.27-3.45 5.12-4.27 6.14-2.7.3.45.68 5 1.07 8.8.69 6.71 1.08 8.25 1.96 7.38.55-.57.98-2.48.35-12.42l-.78-9.67 4.3-4.37c3.9-4 4.36-4.27 5.15-3.25.54.7 1.14 4.86 1.43 9.8.42 7.33 1 9.73 2.07 8.67.5-.5.26-17.12-.28-20.96-.35-2.52-.18-2.88 3-6.45 3.79-4.24 5.77-6 6.81-6.02 1.36-.03 2.1 4.14 2.11 9.69.01 5.92.47 8.25 1.03 9 1.42 1.9 1.58-4.77 1.25-11.38l-.39-12.04 3.91-3.91c3.7-3.7 4-3.86 5.04-2.82.85.86.8 2.9 1.14 8.98.53 8.4 2.17 12.5 2.65 6.67.24-1.32.2-3.9-.09-5.72a74 74 0 0 1-.52-9.2c.01-4.93.25-6.23 1.45-8.18 1.73-2.81 6.85-7.2 8.45-7.35m169.4 9.16s6.55 5.6 6.55 7.19c0 .71-2.6 3.78-6.1 7.23-6.48 6.35-7.1 7.44-7.84 14.26-.28 2.54-1.56 5.91-4.56 11.92a148 148 0 0 1-5.59 9.99c-10.33 12.35-20.08 23.65-38.19 49.71-1.04 2.4-1.1 4.8-2.15 6.78a8.3 8.3 0 0 1-3.45 3.03c-1.19.5-3.58 1.97-5.31 3.3a34.8 34.8 0 0 0-13.09 20.42c-1.06 4.57-1.7 8.68-3.55 22.77-.75 5.8-3.3 15.9-3.3 15.9-38.91-.56-75.35 6.18-107.82 24.51zm52 5.99 8.66 39.33-8.92-.19-.9-28.55-27.82-2.66 9.95-9.63zm-42.23 3.6c2.38 2.43 5.35 5.1 7.5 7.73-7.43 24.88-31 57.16-54.4 89.18l-17.16-1.87c-.3-.7 23.76-34.27 35.28-47 4.39-5.3 7.37-10.34 11.28-18.17 1.42-2.83 3.9-10.16 5.8-17.8 4.04-4.89 11.72-12 11.7-12.07m9.24 8.72 12.97 13.15 3.17 186.22c-20-15.7-43.58-27.33-68.73-36.18l4.4-10.01 4.83-5.2c17.1-18.5 13.29-38.42.28-52.5 15.85-23.1 30.2-40.32 42.28-62.88l-.16-15.47c-.15-14.25.96-17.13.96-17.13m-155.17 7.77c1.36-.14 1.53 3.3 1.87 13.07.32 9.13.7 13.46 1.3 14.4.82 1.27 1.6 1.38 12.37 1.71 11.37.35 13.74.68 13.74 1.9 0 .35-1.47 2.1-3.25 3.88l-3.24 3.24-10.13-.16c-5.4.18-11.77.07-11.94.23-.9.83 2.48 1.96 7.41 1.97 3.08 0 7.96.55 8.52.77 1.92.73 1.02 2.63-3.16 6.64l-4.17 4.03-9.2-.18c-5.06-.1-11.2.06-12 .32-2.8.93-1.41 1.69 3.22 1.76 7.74.1 13.08.74 13.3 1.95.12.58-1.31 2.73-3.21 4.77l-3.45 3.68-13.53-.56c-12.8.1-14.52 1.05-3.85 2.11 4.08.41 10.5 1.42 10.74 1.45.22.05.59.52.8 1.08.45 1.16-4.7 6.97-7.45 8.4-1.41.72-2.4.77-4.86.21-2.87-.65-15.27-.53-16.6.27-1.13.66 1.3 1.43 4.75 1.5 5.17.1 11.35 1.61 11.35 2.85 0 1-2.62 4.26-5.41 6.7-1.3 1.13-4.37.12-12.94.4-5.85.2-9.76.74-9.76 1.13 0 .36 2.9 1.5 6.64 1.78 3.7.26 8.78 1.14 9.13 1.48.87.87-5.72 8.65-5.72 8.65l-28.14-.4-2.6-29.8 2.4-2.75c5.39-6.23 6.56-5.32 7.64 5.84.79 8.17 1.37 10.66 2.55 9.48.44-.43.26-5.1-.18-11.96a572 572 0 0 1-.66-11.44c0-1.55 6.4-8.27 7.65-8.04 1.23.24 1.92 3.02 2.58 10.66.54 6.27.84 7.98 2.07 6.74.58-.58.66-3.86.08-11.8l-.76-10.37 2.71-3.22c5.46-6.47 6.53-5.75 7.2 4.75.44 7.09 1.12 10.81 2.43 10.81.44 0 .45-5.29.18-13.28l-.4-12.01 3.4-3.46c1.88-1.9 3.79-3.45 4.24-3.45 1.32 0 2.08 3.02 2.91 10.13.94 7.98 1.26 9.35 2.02 8.58.32-.32.25-5.15-.18-11.36l-.95-11.88 4.15-4.2c2.29-2.32 4.58-4.11 5.1-4.02 1.25.25 2.05 3.84 2.15 8.93.09 4.75.9 8.84 1.95 9.89.52.52.68-2.4.55-10.88-.2-13.05-.54-14.04 5.33-20.16 1.57-1.63 2.6-2.69 3.31-2.76m151.93 5.33.12 18.21c-7.3 15.62-24.17 38.51-41.27 63.08l-8.92-4.83c21.4-28.04 39.28-54.17 50.07-76.46m-244.25 5.73q.6 0 1.35.04c4.61.27 4.73 1.86.44 5.88-1.8 1.68-3.84 3.02-4.63 3.02-1.33 0-1.4-.2-.99-3.66.5-4.27 1.02-5.26 3.83-5.28m278.75 13.13 12.6 12.4 3.16 133.37-13.26 21.64zm15.79 17.58c11.36 26.74 23.17 51.82 36.24 72.15l-33.7 47.59zm-113.39 41.57c15.5-.22 29.76 12.05 31.56 24.51 3.39 14.3-3.98 29.73-16.08 34.46-4.21 1.5-6.68 1.61-6.68 1.61-1.47-8.63-.84-16.94-2.8-25.7 0 0-7.25 9.56-11.33 12.91-2.12 1.17-3.07 1.49-2.79-1.28.14-4.84.51-15.6.51-15.6l-17.9 18.53s-1.46-2.01-3.19-6.62c-5.62-15.06 1.68-30.78 13.22-38a28.6 28.6 0 0 1 15.48-4.82m238.2-1.13.36 16.3c-28.11 21.79-68.19 67.7-102.54 127.52l-15.12 6.38c23.3-55.68 72.5-112.4 117.3-150.2m.32 21.44.3 24.3c-24.8 23.83-46.34 48.46-65.1 80.16a4790 4790 0 0 0-31.22 15.24c-2.52-.62 55.24-90.55 96.02-119.7m-250.11 20.8c1.13 0 1.07 2.19.72 5.35-.8 7.18-1.65 9.78-4.27 13.27-9.08 10.73-23.51 25.31-25.48 38.88-.99 7.24 4.66 14.02 10.22 13.32 17.26-2.16 19.12-32.83 20.58-47.96.6-3.75.88-6.9 1.5-8.09 3.65-4.64 7.56-9.16 12.46-12.83l2.11 23.45 9.73-3.24c-27.43 37.27-19.54 39.6-34 54.88-13.46 14.2-39.54-1.98-32.86-23.55 5.8-14.52 14.77-29.08 17.2-44.63.66-4.62 1.03-7.83 1.03-7.83l6.24 13.01c3.17-3.13 12.44-13.47 14.82-14.02m251.13 8.04-.06 16.74c-12.79 14.4-23.83 25.46-36.9 45.37l-20.75 9.46c13.55-25.81 35.78-49.95 57.71-71.57M500.02 843.7s1.38 7.81-1.65 22c-1.45 6.74-7.92 26.38-18.16 21.75-8.7-7.68 1.9-21.93 7.24-28.65 4.13-4.84 8.6-10.06 12.57-15.1m-27.32 2-5.65 12.11c-50.85.19-100.23 18.37-144.18 55.5l-11.12-3.64c46.57-44.04 104.29-65.45 160.95-63.96m53.45 9.3c57.3 19.18 83.77 47.18 105.44 76.55l-9.06 4.64c-22.71-29.39-50.75-56.29-102.94-71.85zm-65.65 18.1-2.43 10.38c-32.1.96-65.96 12.35-98.9 35.22l-11.9-1.9c33.17-26.02 71.05-40.87 113.23-43.7m146.66 70.07-10.18 4.8c-30.37-39.4-57.83-50.61-89.03-60.65l3.36-8.74c41.93 11.13 72.7 32.42 95.85 64.6m-423.48-46.47.88 105.14-7.32-1.46-1.05-101.68zm-16.96 5.7c-13.95 52.3-3.13 65.84 1.91 96.36l-11.55-1.85c-11.25-30.92-12.4-59.04-2.92-91.87zm351.22 8.04c.88.83-.71 3.4-2.86 4.67-2.08 1.23-1.62 1.04-4.96-.16-3.23-1.18-7.37-4.24-7.37-5.4 2.36.04 13.11-.07 15.19.89m9.85.74c1.91.23 7.44.13 7.79 1.85.13 1.04-2.05 2.71-6.48 5.74-6.75 4.6-9.04 5.52-11.02 3.32-1.88-2.06-1.33-4.22 1.83-7.12 3.08-2.84 4.86-3.8 7.88-3.8m-230.17 1.15c3.85 0 10.76 4.78 14.93 10.32 4.23 6.62 9.1 13.4 13.02 20.1 8.92 15.2 15.8 30.64 21.57 46.44 15.1 37.57 23.95 73.99 31.31 110.18-.13 3.05-2.78 3-4.95 2.28-1.13-.37-2.25-1.12-2.48-1.69-3.12-8.87-4.2-17.93-6.59-26.83-5.95-22.26-8.09-35-19.57-66.38-5.96-16.28-14.58-38.95-24-56.37-6.04-11.16-13.03-21.49-22.1-30.61-2.4-2.4-5.38-4.57-5.38-5.04 0-1.54 1.51-2.4 4.24-2.4m244.87 1.22c3.58.87 12.21 1.88 8.94 4.75-12.15 4.67-16.08 9.73-22.52 14.88-.97 0-4.81-4.76-4.81-5.92 5.23-6.42 11.8-9.16 18.39-13.71m-227.32.03c5.08-.18 10.05 6.39 12.39 10.52 15.62 22.97 28.98 55.74 39.98 87.85 11.83 34.55 19.35 67.79 22.61 91.37-.28.73-1.74 1-3.42.99-3.2-.03-3.65-.76-4.47-3.31-8.14-39-19.08-79.27-32.3-113.44-7.11-18.21-15.17-36.5-26.5-54.86-7.74-11.34-12.13-17.28-11.79-18.17.23-.6 1.5-.9 3-.9zm-34.9.69c6.86-.02 18.18 8.1 25.88 18.55 16.32 22.36 25.65 48.5 35.35 73.85 11.12 29.06 19.15 61.34 23.94 86.76.82 3.65 2.15 5.24-1.29 6.39-5.2-1.49-5.08-1.34-6.56-7.68-2.03-6.81-2.65-13.68-4.58-20.6-10.99-39.58-23.31-83.5-43.77-119.25-24.59-39.34-31.74-28.4-35.7-35.34.31-1.57 3.05-2.67 6.74-2.68m59.14 9.6c21.13 36.76 30.44 59.33 36.87 81.53 9.74 33.64 21.26 60.51 26.33 99.79 0 0-5.55.1-7.77-.81-.92-.91-1.9-4.83-2.48-8.05-5.07-27.74-13.33-60.55-22.12-86.42-9.46-28.78-20.7-56.16-37.35-82.61-4.36-7.12-5.2-9.92-2.52-10.05 4.76.33 6.87 4 9.04 6.63m220.09-3.93c.98 0 1.37-.13 3.16.49 2.8.96 3.69 1.56 3.84 2.67.24 1.61-1.5 2.14-6.9 3.4-4.25 1-12.54 5.42-18.31 10.22-2.67 2.22-4.97 4.6-5.62 4.6-1.33 0-4.5-3.48-4.5-4.93 4.42-6.74 18.48-16 28.33-16.45m-291.08.9c17.88.55 31.87 21.33 39.22 35.33 2.85 5.48 6.55 11.45 9.36 17.7 14.51 32.45 26.83 73.15 32.85 99.15 2.89 12.51 6.24 21.68 5.05 24.13-1.47.93-4.59.22-6.02-.99-.92-.77-1.42-3.64-3.04-8.86-4.17-13.4-11.08-51.7-29.09-91.93-.4-.9-9.11-26.36-24.16-50.52-6.12-9.83-16.04-16-25.07-18.03-4.55-.73-5.9-.2-5.62-2.65.18-1.57.67-2 3.1-2.76a12 12 0 0 1 3.42-.57m111.77 83c-1.22 0-2.3-2.33-3.12-6.16-.4-1.89-.95-3.22 2.58-5.44 22.19-23.59 3.11-58.23-24.77-61.25-2.59-.39-5.91-.4-6.89-.75-1.41-.81-4-5.82-5.14-7.84 38.54-9.34 79.43 45.82 37.34 81.44m191.96-77.07c2.29.57 7.28 5.21 6.66 6.22-.74 1.21-5.07 1.25-11.3 2.35-13.24 2.35-18.93 11-25.1 17.4-1.36.43-2.57-.52-3.8-2.61-.9-1.54-1.63-3.39-1.63-4.1 6.89-10.04 25.33-20.18 35.17-19.26m-312.8 2.95c11.27 0 22.53 5.47 28.87 14.37 23.13 34.6 49.1 111.55 55.3 149.49-.63 1.22-2.27 1.35-5.48.43-1.78-.52-1.57-1.1-2.7-4.62-7.26-27.64-15.22-54.48-24.59-79.11-4.82-12.69-10.5-25.09-15.84-36.22-3.39-7.05-10.2-19.6-12.77-23.43-6.08-11.42-18.37-14.77-26.11-11.08-8.02 4.34-9.03 14.69-2.93 19.29 5.07 3.53 13.06 2.95 15.98-2.53 1-1.93.7-4.34.05-4.95-.63-.6-1.76-.42-2 .22.42 6.73-8.16 7.16-11.9 4.51-5.99-4.47-2-18.62 14.3-12.93 6.29 3.3 8.4 9.57 5.42 16.2-3.06 6.8-7.79 9.9-15.09 9.86-8.86-.15-18.92-6.38-19-17.56.03-8.35 3.9-15.3 11.14-19.94 2.69-1.72 3.74-2 7.36-2m95.4 5.2c27.33 1.26 39.9 33.43 25.52 52.85-3.67 4.64-5.99 3.8-7.56-2.2-.77-2.46-1.62-2.83.59-4.73 12.8-12.27 2.28-36.11-18.81-37.07 0 0-3.94-5.74-4.33-8.78 1.4-.52 3.3-.07 4.59-.06m227.96 2.2c2.07.51 6.46 4.73 6.46 6.21 0 1.75-.86 1.42-5.71.58-11.5-2.05-23.02 4.6-32.63 19.12-4.66 8.71-5.25 7.89-7.7.38-1.26-3.85-1.27-3.77 3.6-10.88 9.13-11.7 22.6-17.04 35.98-15.4m10.7 14.76c9.61 8.74 5.12 27.98-7.88 29.97-11.46 1.33-21.64-11.07-14.42-19.5 4.7-5.09 10.57-5.6 14.17-1.23 3.74 4.52 2.16 10.69-3.15 11.33-.63.22-1.14.7-1.14 1.06 0 1.13 4.72.82 6.33-.49 3.24-3.56 3.29-9 .4-12.9-2.55-3.45-8.01-6.19-12.39-4.41-7.7 2.76-15.56 13.21-20.05 26.39-1.27 3.7-2 7.17-2.54 7.99-1.1 1.67-1.02 1.63-2.04.98-.89-.57-2.53-8.63-2.53-11.7 0-2.33 2.01-8.5 4.67-13.77 8.35-15.52 27.13-25.93 40.57-13.72M359 948.02c11.2.67 20.05 16.53 15.19 27.57-1.5 2.02-3.68 3.4-4.69 2.13-.36-.46-2.08-5.64-4.47-11.14-2.39-5.49-4.58-10.86-5.26-12.2-1.78-3.81-3.06-6.4-.77-6.37m-76.06 9.2c12.75 22.6 23.42 48.5 32.27 73.78 6.88 19.7 12.53 39.02 15.78 56.11.32 1.72.74 2.63-.01 3.38-1.25 1.25-7.34-1.86-7.34-1.86-10.67-36.75-19.29-73.59-44.68-120.38 0 0-1.1-1.86-1.4-3.08-.33-2.92.53-6.62 2.3-8.7.73-.77 1.7-.82 3.08.76m-143.1 42.66c60.32 4.05 106.97 29.46 131.88 96.59-8.85-5-53.76-39.46-131.19-44.03l-.12-9.3c55.5-.45 109.65 28.43 108.52 28.01-20.65-42.56-72.54-59.81-109.24-60.94zm418.4 13.57c-3.8 5.95-3.63 5.71-5.45 10.85.2 1.67.51 12.08.77 18.15.32 7.73.53 11.1 1.14 11.84 1.04 1.25 3.14 1.44 4.05.32.36-.44.99-2.11 1.41-3.7 4.98-18.81 7.32-25.85 9.33-28.17 1.32-1.71 1.77-1.55 7.23-.93 12.29 1.09 16.47-13.56 8.43-19.46-10.75-5.98-22.15 4.05-26.9 11.1m12.97 3.99c-8.78 7.23-9.04 17.64-11.7 27.22-1.43 6.45-3.45 9.85-4.25.12-1.5-13.49.38-23.56 6.23-31.49 3.62-5.82 9.57-9.75 14.92-10.12 11.5-.81 12.67 8.31 9.47 13.2-2.32 3.56-8.76 5.11-14.67 1.07m-415.42 4.35a7.85 7.85 0 1 1 .01 15.7 7.85 7.85 0 0 1-.01-15.7m25.04 5.37a7.02 7.02 0 1 1 .02 14.03 7.02 7.02 0 0 1-.02-14.03m22.8 7.7a5.71 5.71 0 1 1-5.71 5.71 5.7 5.7 0 0 1 5.72-5.71m16.2 10.25c2.43 0 4.4 1.98 4.4 4.43a4.4 4.4 0 0 1-4.4 4.41 4.43 4.43 0 1 1 0-8.84m-56.73 14.1c-1.69 8.51-.38 17.26 1.59 23.29 4.46 13.01 2.43 36.28 2.43 36.28l-13.1 13.11c.95-12.21 2.4-25.05 1.73-35.3-.48-6.81-3.55-13.17-4.35-20-.75-6.33.38-18.99.38-18.99zm21.2 3.91.46 55.52-44.81 43.42-.06-11.46 38.2-37.89-.8-51.43zm110.5 126.59-2.94 4.79h50.56l1.06-4.79zm65.43 0-1.18 4.79h23.4l.78-4.79zm38.35 0-.74 4.79h86.88l-1.3-4.79zm101.55 0 1.38 4.79h23.15l-1.92-4.79zm38.69 0 1.68 4.79h39.78l-3.3-4.79z"/></svg>