<svg xmlns="http://www.w3.org/2000/svg" fill-rule="evenodd" stroke-linejoin="round" stroke-miterlimit="2" clip-rule="evenodd" viewBox="0 0 934 1300"><g fill-rule="nonzero"><path fill="#131f67" d="m125.02 99.29-.16 1099.32 680.71 1.48.4-1100.01zm216.2 6.43 308.42 1.13s-35.33 45.71-42.64 66.52c-5.68 7.28-8.25 5.96-17.61 4.06-25.07-6.55-67.32-6.43-88.3-6.81-39.61-1.77-75.2 10.51-114.86 12.52-13.7-22.92-33.58-51.7-45-77.42m-207.68 2 198.35.59 46.5 84.85c1.7 2.36.08 7.23-.93 9.97-5.74 16.16-10.8 25.53-22.42 44.79-11 18.24-14.94 34.95-11.04 46.18.59 1.38 1.1 3.47.9 5.23-.65 5.6-5.35 12.09-11.76 16.52-4.34.7-13.38 1.26-18.62 6.43-4.48 4.44-8.16 10.93-7.58 22.79.27 4.24.8 6.93.8 6.93-59.13 24.61-101.52 53.44-100.12 54.5-.55-.26-51.98-23.93-73.39-29.79zm527.1 1.5 135.96.12.81 388-52.18-33.83c4.27-2.98 6.92-4.75 11.42-7.8.8-.25 2.31-.27 3.3-.49 9.09-2.03 15.42-8.83 12.27-15.87-2.14-4.79.78-4.5 3.42-8.4 2.96-4.38 2.34-8.29.46-11.98-.94-1.83-.42-2.56 1.15-5.95 4.16-5.16 1.16-13.9-4.22-16.72-.56-.83.59-2.11.85-3.31 1.52-7-1.27-13.14-7.32-14.7-3.12-.8-4.16-1.35-3.06-4.13 1.95-4.93-.62-6.77-4.67-8.37-6.81-2.7-4.88-3.13 3.54-6.91 17.25-7.76 21.3-30.8 9.44-51.72-1.5-2.66-5.54-8.9-8.27-13.08-3.19-4.9-6.29-9.1-6.29-9.1l22.83-31.83s-15.89-18.82-21.55-29.23c1.33-5.14 17.24-21.28 19.3-36.94 3.25-24.57-15.4-40.29-33.05-38.44-12.23 1.28-27.3 9.1-26.16 31.84.35 7.07 3.1 14.36 8.1 23.2 3.5 6.6 8.03 13.6 12.36 20.32l-22.97 31.4 23.2 29.4-.8 1.27c-2.3 3.67-9.02 14.49-11.92 20.82-8.56 16.93-11.6 35.51 5.98 48.61 3.07 1.89 5.44 3.5 6.75 4.8 1.73 1.7.65 3-2.12 3.65-3.26.69-6.59.64-10.03 2a110 110 0 0 0-29.92 16.87c-4.41 3.56-11.52 14.85-15.86 24.02-4.7 9.96-6.02 12.17-6.02 12.17l-80.73-51.68s-2.05-1.62-2.61-2.25c-1.5-1.68-.96-2.66.08-4.53.88-1.58.92-6.23.53-9.76-.12-6.78-.07-6.8 3.83-13.02 1.38-2.2 1.95-4.38 1.16-7.77-1.27-3.8-1.39-2.59 1.03-5.2.94-1.15 2.08-1.73 2.27-2.99.24-1.68.09-4.62.12-10.1.06-11-.1-10.1 6.08-14.93 7.67-6 10.53-8.83 11.75-11.54 1.75-3.9 0-6.83-4.31-14.6-1.97-3.55-5.01-8.34-6.49-11.02-2.75-4.81-6.73-11.15-8.63-17.2-2.87-4.66-2.44-12.72.22-17.45 3.33-5.95 4.26-9.54 4.15-21.56-.11-11.14-.92-10.1 1.91-13.83 21.22-28.07 54.9-80.27 54.9-80.27m86.42 41.07q.68 0 1.37.04a28.7 28.7 0 0 1 19.47 8.43c8.38 8.4 7.81 20.5 5.05 33.1-1.26 3.66-2.2 7.38-4.78 11.2-1.44 2.13-2.61 4.1-2.62 4.37 0 .26-2.06 3.59-4.58 7.4-2.47 3.72-5.3 8.91-5.3 8.91s3.94 7.08 10.94 15.94c5.28 7.84 8.7 14.67 9.1 14.27 0 0-1.34 3.4-3.18 5.8-5.55 7.3-15.76 22.5-16.17 24.08-.1.39-1.15.78-1.13 1.16.07 1.4 2.1 3.08 5.15 7.28 18.44 25.31 21.05 46.68 7.2 59.24-6.9 6.24-13.7 8.2-21 7.42-13.36-1.44-25.7-12.85-24.25-29.48.65-7.64.25-9.92 4.75-18.8 2.03-5 6.63-13.58 9.68-17.9 2.68-3.1 5.53-7.52 5.53-7.52s-6.56-10.1-18.62-24.3c-2.18-2.6-3.52-6.1-3.52-6.1l20.66-30.62s-2.4-5.94-6.43-11.95c-8.26-12.32-13.6-25.43-13.54-32.8.12-18.38 12.14-29.14 26.22-29.17m51.45 437.31c-12.2 6.5-24.08 28.66-.86 13.2l.58 12.74c-12.08 17.14-35.69 4.58-29.68-13.17-16.3 2.11-18.85-14.43-18.02-22.3-21.44-4.68-14.03-27.39-14.03-27.39-12.4-10.35-14.57-21.2-4.53-32.64-10.15-6.3-13-10.35-24.16-14.93 8.55 76.04 49.59 115.53 92.78 150.73 0 0 .96 24.49-3.98 19.98-61.67-46.09-101.32-98.78-108.15-184.02-.52 1.34-29.24-22.24-33.98-20.98-9.96 138.03 99.93 228.75 145.63 246.64 0 0 .65 19.23-.14 19.3-69.26-30.22-146.27-118.88-161.1-224.37L598 573.66l-15.3-6.55 66.07-104.1-44.68-28-72.75 115.26s-1.93 9.61 3.34 9.46c102.11 10.93 253.98 133.61 203.1 333.29-4.42-1.74-11.44-5.17-11.8-5.02 7.99-17.2 30.26-128.68-36.73-218.72-30.69-41.26-78.29-85.16-154.65-98.12 6.3 13.02 3.56 42.56 3.56 42.56l17.79 3.6c-6-6.35-11.03-11.58-13.4-18.47-3.34-10.72 1.55-17.07 13.42-10.69 4.72 2.64 5.9 2.54 10.5-.87 9.55-7.1 20.46.21 17.95 12.03-.38 1.75.09 2.85 4.62 3.25 10.3 1.03 20.65 6.13 27.36 14.12 3.3 4.21 4.04 3.59 6.95 1.05 7.19-6.23 19.07 2.4 16.95 12.05-1.21 5.51-.54 6.83 2 7.9 14.03 5.9 17.47 9.62 21.84 21.9 1.6 4.5 2.91 5.98 3.74 5.72.58-.17 2.89-.95 4.91-1.71 10.47-3.97 16.6 8.7 9.18 18.62-1.52 2.03-.4 3.98 2.3 5.46 8.72 4.75 14.65 16.1 15.68 28.02.4 4.53.86 4.54 5.4 4.35 11.59-.49 17.1 15.16 7.68 20.92-3.29 2-2.67 4.6-.12 7.62 6.76 8.03 8.34 13.82 7.74 22.95-.8 12.17-.02 11.93 3.86 13.4 11.27 4.3 9.16 22.3-1.88 22.24 7.96 18.54-2.52 41.14-2.18 41.56 21.23 11.95 2.06 24.63-4.1 22.4 0 0-3.15 8.33.42 12.62-18.62 24.64-43 28.73-70 40.96l-.85-86.74a1372 1372 0 0 0 33.48 25.88s2.83-.84.26-3.22c-4.95-4.57-17.4-12.61-20.88-15.82-7.51-5.7-35.06-32.04-39.96-38.27-2.19-4.16-5.5-1.76-5.41-1.5 3.3 5.68 5.74 12.31 10.01 18.23 9.21 12.76 18.15 26.95 17.22 41-.02 7.85-3.14 15.96-4.89 19.9-1.3 5.4-9.89-.91-7.73-5.45 3.83-12.45 7-22.64-6.67-42.63-6.65-9.74-15.28-27.43-15.28-27.43l-5.52 1.33.2 113.17c-4.63.19-16.37 3.23-13.95 3.31 36.59-7.31 47.79 45.05 12.45 46.75-6.7.24-13.64 11.79-14.35 18.05.3 15.2 2.53 31.24-8.6 45.84-2.91 3.84-4.26 9.93-6.97 14.72-13.58 24.05-19.64 37.83-18.26 44.03.36 1.6.7 3.7.7 3.7-43.27 10.82-75.7 13.58-119.28 14.6-.42-.68 14.63-43.03 25.62-64.74 8.12-16.04 12.3-27.01 10.03-30.32-34.56 1.73-27.93-48.94 5.13-47.16 0 0 8.3-29.18 17.57-42.36 8.8-4.89 26.48 1.78 36.4-4.78 23.36-7.17 38.65 20.45 38.65 20.45l6.3-26.28-206.6-.99s-21.29 7.97-32.17 3.48c-6.96-2.88-14.94-11.02-14.95-11.02s78.95-126.8 90.54-145.1c.95-1.48-2.05-4.68-2.05-4.7-.44-4.16-91.9 138.42-91.54 144.7 0 0-2.43 3.46-6.83.4-51.73-35.69-175.36-112.43-175.36-112.43l-.16-56.86c43-27.1 39.1-38.16-.69-8.63-.56.47-.85-21.35-.85-21.35 30.33-27.1 5.1-18.61-.88-9.23.15-6.75-1.43-15.93 2.9-19.96 13.26-12.22 28.88-1 29.66 17.06 17.3 3.39 15.15 18.58 19.6 24.69 17.64 9.95 8.35 25.05 12.72 30.18 18.57 11.71 5.62 30.53 1.7 30.1 2.34 1.58 25.4 17.05 27.39 16.49-2-81.1-91.31-158.54-93.8-154.47l1.9-17.5s111.62 71.4 110.64 185.96l35.59 21.15c-3.17-117.54-55.65-196.87-145.4-247.34l-1.9-22.14C207 596.54 276.86 667.5 293.13 783.82l41.71-64.74 14.7 7.11-66.97 107.46 41.82 27.5c32.44-42.7 59.5-95.07 75.98-120a85 85 0 0 0-1.34-5.54c-159.46-26.3-249.28-175.73-206.47-331.87l11.08 4.88c-33.25 115.63 20.97 282.08 194.4 316.12-.34-12.3-2.5-42.54-2.5-42.54s-22.79-6.85-19.43-4.11c5.58 4.78 18.12 25.34 12.82 32.65-3.81.54-10.2-1.6-17.17-6.7-2.63-1.93-2.7-1.53-5.66 1.63-8.2 8.76-20.1 3.74-20.22-8.29-.04-5.07-.24-6.16-7.44-6.2-10.93-.08-15.83-1.95-22.38-10.72-4.65-6.22-4.22-6.24-9.68-4.37-10.48 4.99-18.84-5.48-15.55-14.11 1.62-4.04-.11-5.34-4.88-6.13-9.27-1.53-19.77-13.17-21.7-22.68-.39-1.95-1.36-2.44-6.83-2.25-10.72.37-16.66-6.13-12.43-15.24 2.29-4.93 2.93-6.92-1.35-10.25-5.26-4.1-8.23-6.93-10.56-11.9-1.85-3.92-2.12-6.44-3.4-14.81-.44-2.91-1.4-3.39-5.21-3.88-11.1-1.45-15.47-12.8-7.32-20.16 2.48-2.25 2.48-2.2-1.3-7.08-7.26-9.4-9.97-21.66-6.8-29.82.85-2.21.01-4.92-2.58-5.56-10.11-2.52-10.28-13.74-.6-20.04 2.8-1.83 2.95-3.04.82-6.73-3.72-6.47-3.53-23.4.07-31.5 2.32-5.24 2.3-5.36-1.3-7.67-7.68-4.9-5.49-18.41 3.6-20.64 4.41-1.08 4.71-1.66 3.52-7.02-2.12-9.55-2.48-12.03 3.15-15.8 15.51-10.08 55.22-29.32 55.22-29.32l13.12-6.25s1.31 80.15.47 89.63c-.51 4.08 3.15 6.55 7.41 10.8 8.82 8.66 13.66 19.14 25.43 26.42 0 0 7.33-4.08 11.86-7l.45-114.21c.92-2.6 1.58-2.88 4.59-3.24 2.5-.48 8.79-1.18 10.9-1.8 5.06-1.48 5.86-3.52-.8-2.85-2 .2-5 1.06-8.36 1.74-20.8 6.24-36.18-26.14-20.35-42.46 3.04-2.72 14.4-7.46 19.56-7.78 1.5.01 5.92-5.45 8.95-10.5 3.05-5.06 4.32-8.83 2.57-13.9-3.67-10.7-.17-27.1 10.8-45.01 11.88-16.91 21.05-35.78 25.86-55.87 42.08-5.07 77.78-15.53 115.81-13.22 1.5 12.86-41.59 88.65-32.6 93.09 33.9 8.11 22.33 48.3-3.43 46.97-3.86-.02-4.24.32-6.69 8.85-4.68 12.46-7.7 21.97-12.72 33.57-.01 2.98-2.1 2.68-16.2 2.58-12.88-1.9-21.76 5.12-31.13 5.52-11.95.55-22.14-5.18-26.29-14.68-1.85-4.23-3.56-1.44-3.61 8.6-.05 7.99-.37 12.65-.37 12.65s49.38.15 105.64.25c113.75.2 102.42 1.94 111.43-2.57 5.27-2.63 8.74-5.49 17.86.46 14.6 9.54 14.11 8.24 9.86 14.38-28.59 42.4-91.77 144.4-91.77 144.4l4.43 4.33s63.81-100.84 92.88-148.08c1.32-1.54 7.4.4 7.4.4L798 501.95c-1.47 17.1.24 55.45.24 55.45-48.93 25.99-33.99 39.23-.3 7.76zM503.1 180.2s50.5.4 75.82 4.46c22.17 3.56 21.03 2.9 20.94 19-.06 11.44-.08 11.18-3 16.67-5.42 10.1-4.5 20.07 4.06 34.03 8.3 13.54 14.37 23.54 14.37 25.47 0 3-.51 6.64-7.7 11.67-8.5 5.93-10.11 10.07-10 16.1.1 4.87-.82 6.46-3.73 6.44-1.17 0-5.3 1.91-9.73 4-7.8 3.68-7.8 3.68-15.08 3.62-3.65-.03-5.41-1.4-6.43-1-1.96.9-3.74 7.46-3.68 9.37.2.68 1.25.27 3.4-.46 12.06-4.13 30-2.27 30.5-.47 2.44 2.2 2.44 5.61-1.23 9.14-2.38 3.74-3.46 5.68-2.46 11.47 1.35 7.86.34 10.99-3.68 13.7-12.27 8.3-28.65 9.35-54.84 4.31-27.6-5.3-46.47-15.83-62.17-34.67-7.01-8.42-8.75-11.37-5.28-11.95 4.28-.66 9.01-1.55 13.4-3.44 19.4-8.35 19.06-43.87-7.07-47.57-10.66-.38 22.01-50.64 33.59-89.9m24.9 24.46c-9.38 5.25-14.28 11.66-14.3 15.14-.01 1.43.31 1.17 4.79-1.78 13-8.55 47.26-20.9 59.49-13.77 8.8 5.3 12.23 3.57 7.13-3.55-11.98-16.7-44.3-3.02-57.1 3.96m33.49 5.6a22 22 0 0 0-4.27.46c-9.04 2.02-19 9.47-27.24 16.04-4.06 3.23-9.81 9.64-10.71 11.32-2.03 3.8 2.46 7.98 8.57 4.63 3.56-1.95 3.88-1.5 7.3-1.03 7.9 2.38 16.9 6.06 30.82 4.9 1.3.29 1.2.6.74 1.81-.82 2.23-5.75 6.48-12.19 11.24-3.32 2.46-6.22 4.47-6.45 4.84-1.02 1.63 3.41 1.76 8.27-1 6.9-3.9 14.84-12.56 19.7-19.5.45-.67 1.1-1.21 1.3-1.93.48-1.6-2.42-.94-3.98-1.37-.66-.19-.53-1.87-.7-2.65-.46-2.04.33-5.41.7-8.31.3-2.35 2.82-4.2 4.47-5.93 7.28-7.56 6.7-10.99-3.07-5.17-1.64.98-2.95 1.57-4.55 1.7-14.43.45-22.77-.1-34.8 10.03-5.34 4.3-8.56 4.73-3.8.14 7.26-5.88 16.36-14.25 26.43-16.46 6.08-1.51 11.86 3.14 14.51 1.94.02-3.33-5.05-5.75-11.05-5.7m-2.1 20.9c1.66 1.09 3.28 6.73 3.13 8.64-.18 2.2-3.98 1.3-4.5.24l-2.07-6.27c-.9-2.11 1.83-3.31 3.45-2.6m-7.35 1.27c1.76 1.74 2.16 5.52 3.17 8.63-.64 2.25-14.85-.79-16.62-3.3 2.12-2.77 9.44-6.08 13.45-5.33m24.9 40.48c-1.06-.07-2.48.45-3.76 1.76-6.4 6.54-4.33 17.7 3.36 21.3 3.75 1.77 9.42.47 17.77-2.1 3.98-1.22 6.86-1.78 7.6-1.78 3.26.02 5.04-5.04 2.75-7.36-2.64-2.68-8.91-2.28-15.67 2.94-3.41 2.63-5.85 3.91-8.6 3.88-6.76-.09-10.04-7.04-3.15-14.34 2.3-2.43 1.49-4.19-.3-4.3m-47.32 47.99c7.97 6.42 23.09 3.05 33.25-3.67 9.08-6.01 12.85-7.79 20.14-6.53 8.93 1.53 8.6-1.98 4.73-6.4-4.39-5-15.22-3.45-24.28 2.55-20.1 13.33-27.37 15.55-33.2 8.35-6.26-7.75 1.2-17.68 8.57-12.26 6.05 4.12 5.96 1.02 3.46-1.8-14.57-12.29-25.1 9.73-12.67 19.76M459 327.22c10.15 12.85 19.85 23.48 34.44 31.31l.16 2.43-47.15-.1c3.3-5.75 12.65-33.26 12.55-33.64m-159.64 33.5c-1 19.38 2.47 30.77 13.83 44.32 12.07 14.4 11.17 36.85 3.4 50.72-3.43 6.14-10.41-1.4-7.12-5.33 4.68-5.9 4.96-20.27 2.75-29.26-4.97-14.85-16.24-22.13-20.8-37.83-1.54-6.7-1.06-18.74-1.06-18.74zm14.76 1.64c.82-.13 2.14.72 4.08 2.4 6.67 5.77 5.54 22.3-2.1 32.9-2.34 3.21-4.28 2.3-6.5-.69-3.03-2.98-1.98-3.28.55-8.51 2.65-5.46 3.5-11.6 2.95-18.78-.36-4.84-.19-7.13 1.02-7.32m432.5 5.66c5.89-.1 13.24 1.16 13.92 3.3.63 2.59-.77 4.67-4.06 6.06-8.6 3.63-19.99-1.45-17.12-7.67.72-1.1 3.73-1.64 7.26-1.7m-14.92 1.42c1.7-.04 3 .38 4.04.85 2.83 1.45-1.61 11.4 12.44 11.2 3.35.5 5.84-.28 5.37 1.24-.7 2.29-6.72 5.72-13.26 6.69-19.57 2.9-18.72 1.91-17.83 15.75.58 9.03 0 12.07-1.24 17.55-2.12 9.5-2.96 18.67-1.53 15.65 1.9-4.04 6.78-16.78 6.75-24.02-.04-10.69 3.77-12.8 5.3-5.06.66 5.13-1.64 8.02 1.8 13.25 1.95 2.93 2.84 2.88 1.53 7.44-1.15 4.01-.34 5.2 1.06 7.24s2.83 2.52 1.64 5.4c-2.59 6.19 1.46 12.05 7.33 12.55 2.72.23 3.47 1.41 2.65 2.45-1.43 1.78-4.29 2.63-6.67 3.15l-62.17-39.73s4.61-9.25 5.98-11.73c8.93-19.58 16.02-28.5 42.14-38.76 1.8-.77 3.35-1.08 4.67-1.1m33.04 12.85c1.71-.06 2.98.83 4.43 2.69 3.81 4.9.48 11.04-8.9 16.32-8.02 4.56-10.35 5.1-12.1-2.07a10 10 0 0 0-2.15-3.51c-1.86-1.7-1.44-3.12.93-4.37 1.12-.6 4.73-2.08 7.62-3.98 5.01-3.32 7.96-5 10.17-5.08m-26.47 14.23c1.96.04 3.99.51 5.48 1.48 2.49 1.62 2.51 5.68 0 7.3-5 2.04-12.88-.7-12.21-5.28.34-2.33 3.46-3.55 6.73-3.5m31.99 5.02c1.76-.05 3.1.78 4.2 2.49 2.93 4.52-.5 9.06-10.37 13.89-6.49 3.17-14.78 4.55-14.23 2.68.44-1.5-1.88-8.92-2.91-10.1-.4-1.26.11-.13 8.3-2.71a44 44 0 0 0 8.22-3.52c2.81-1.77 5.02-2.68 6.79-2.73m-466.43 11.73c-4.56 10.96-5.29 15.8-3.12 27.33 1.81 9.6 3.9 14.41 13.75 28.6 7.5 10.78 9.9 14.98 8.1 18.4-1.28 1.83-4.14 3.54-5.92 1.78-3.66-4.8-5.86-10.6-9.44-15.94-13.76-20.19-14.72-25.33-16.48-41.27-.8-7.28 3.39-22.8 6.97-25.11 4-1.57 7.37 3.69 6.14 6.2m318-5.05q-.49.05-1.01.57c-1.87 1.87-7.22 10.59-7.04 11.9.4 2.9 2.78 1 8.98-8.1 1.49-2.19.48-4.55-.93-4.37m118.46 4.95c5.51.17 7.46 5.11 5 7.69-3.6 3.76-10.07.92-10.07-4.35 0-2.23 1.04-3.38 5.07-3.34m30.55 7.04c3.16.14 3.58 3.28 1.9 7.83-2.1 4.22-4.62 4.94-12.19 7.3-9.07 2.82-10.54 2.4-11.9-5.93-.53-3.2-.27-2.5 8.08-4.71a87 87 0 0 0 10-3.58c1.7-.68 3.06-.95 4.11-.9m-535.46 3.73 2.23 16.84 3.62-12.61zm506 5.66c4.47.02 6.85 4.01 4.6 6.41-1.27 1.34-4.48 1.37-6.03.59-3.54-2.59-2.9-7.02 1.43-7m-136.27 8.8 8.69 5.36-70.62 111.5-8.52-.18-.8-1.78zm160.25 1.07c5.22-.07 5.67 4.84-.65 9.36-2.58 1.66-5.48 2.06-7.73 2.16-3.15.14-5.26-.67-5.5-2.85-1.37-5.32-2.15-6.64 2.7-6.32.97.06 3.61-.1 5.73-1 2.16-.92 4-1.33 5.45-1.35m-21.59 4.87c3.6.02 5.9 3.93 3.47 5.85-2.98 2.36-6.7.9-6.69-2.67.02-2.29.64-3.2 3.22-3.18m-508.18 7.89-19.21 17.02c7.04 8.33 12.95 16.65 19.05 25.4zm388.52 1.09c8.34-.33 11.07 3.7 7.12 6.4-5.37 3.6-9.98 3.43-16.07 2.6-8.07-1.5-1.65-7.96 7.2-8.88a28 28 0 0 1 1.75-.12m-8.85 12.13c1.68-.04 4.16.43 7.38 1.52 5.45 1.85 12.25 7.56 11.93 10.73-.52 5.14-10.18 2.49-17.96-4.87-4.87-4.6-5.06-7.28-1.35-7.38m-7.38.08c4.73.45 9.45 16.45 5.78 21.37-3.6 4.83-9.93-5.55-8.78-13.7.46-3.23 1.27-7.5 2.53-7.65q.23-.03.47-.02m-308.83 3.52c2.67.64 6.08 4.32 5.35 7.12-.54 1.12-1.67.8-2.88.5-2.19-.92-3.88-3.97-3.46-6.5.2-.7.5-1.08 1-1.12m358.35 2.75 13.9 9.42-13.9.55zm-57.56 19.07c10.66.05 12.91 3.5 4.96 7.7-3.32 1.74-11.36 2.07-15.53.63-6.61-2.3 1.32-8.38 10.57-8.33m86.21 7.17.74 9.67-26.76 2.34-1.37-10.07zm-92.48 4.82c1.86-.12 4.8.74 8.68 2.73 7.28 3.74 11.42 10.02 7.66 12-3.4 1.8-9.47-.33-13.75-4.83-5.67-5.95-6.12-9.68-2.59-9.9m-9.1.02c4.86.29 9.07 13.6 5.87 20.2-1.75 3.6-3.97 2.81-7.16-3.12-3.08-5.73-3.25-15.86.3-16.96q.5-.15 1-.12m-347.93 3.76-11.69 23.51 21.19 18.5zm452.8 18.11 1.88 9.3-25.68 6.33-2.5-10.13zm-112.14 1.82c3.14.06 6.08.8 7.77 2.29 2.34 2.06 1.83 2.98-3.7 5.23-9.85 4.01-21.98 1.59-14.94-4.4 2.48-2.12 6.85-3.19 10.87-3.12m166.82-.54c-9.81 6.57-.37 10.19 6.64 5.22-.52-1.7-4.59-5.2-6.64-5.22m-174 13.18c7 .23 20.77 9.85 17.82 14.46-1.6 2.52-10.8.37-14.45-3.14-4.8-4.6-7.35-10.76-4.7-11.24a6 6 0 0 1 1.32-.08m-8.86.44c3.63-.67 9.41 16.2 5.04 20.53-1.63 1.61-2.1 1.52-4.84-.91-5.48-4.86-4.53-13.8-1.25-18.8q.49-.72 1.05-.82m215.55 8.9c-.96-1.79-2.15-2.62-3.46-3.6-34.1 13.1-25.35 25.58 3.46 3.6m-80.79 1.15 3.4 9.43-25.86 10.25-3.8-10.32zm-442.32 17.84-8.76 23.05c9.52.05 18.1 4.55 26.79 8.55zm450.91 6.77 5.48 9.26-24.32 13.16-4.85-9.76zm-565.07 18.04 9.96 7.03-14.63 18.2-1.33-2.57.16-15.1zm578.36 5.72 5.88 8.49-23.41 16.28-5.74-9.25zm-553.25 10.91 10.76 8.3-17.01 20.52-10.29-7.87zm118.36 5.08-.5 24.69 25.3.97zm292.58 11.13 28.78 16.56-4.33-25.28c-7.52 1.46-17.17 6.36-24.45 8.72M733.55 620l6.71 8.36-21.63 18.17-6.93-8.7zm-547.02 7.32 10.03 9.32-17.67 19.1-9.29-8.76zm565.5 13.55 7.78 7.9-19.71 20.5-7.78-7.9zm-542.71 10.05 7.76 9.06L196.9 676l-7.48-9.1zm116.27 2.12 5.67 24.18c-.42-1.76 25.11-7.2 28.44-5.37zm297.25 2.05 24.1 25.44 2.7-24.5zm149.03 4 8.7 6.81-16.17 23.05-9.87-7.74zm-545.19 15.36 7.18 10.37-21.15 12.6-6-9.16zm568.01 2.45 1.34 1.33-.02 16.46-6.72 9.87-9.15-5.4zm-136.33 18.48 21.32 38.76 6.01-28.9c-7.88-.12-20.36-5.17-27.33-9.86m-414.82 5.17 5.08 11.18-22.35 10.2-5.09-11.12zm12.08 26.7 4.08 11.22-23.76 7.88-3.76-10.81zm-106.22 20.3 7.4 5.2c38.55-20.26 26.53-26.25-7.4-5.2m217.84-12.88c1.46-.15 3.14 1.87 4.5 6.31 2.04 6.72.95 15.06-3.6 14.95-3.08-.38-4.22-8.26-4.24-10.54-.03-6.74 1.47-10.52 3.34-10.72m21.13 4.03 9.18.99-.04 2.59-73.11 116.07-8.86-5.62zM349 741.4c2.92.02 7.19 2.03 10.96 6.04 2.22 2.4 4.59 5.8 5.16 9.29-.06 1.14-2.02.7-3.92.44-4.86-.69-12-4.05-14.28-8.19-2.8-5.09-1.22-7.61 2.08-7.58m336.12 4.13 9.75 47.54c3.02-11.9 9.4-18.76 14.12-28.1-12.43-5.73-17.53-12.5-23.87-19.44m-420.06 9.62 2.28 12.3-24.63 5.7-2.54-11.94zm91.85 4.26q.53-.01 1.03.04c9 1.01 10.29 3.02 4.23 7.08-3.67 2.46-13.6 2.81-15.25.18-1.75-2.8 4.76-7.25 10-7.3m-178.7 7.22 7.64 4.47c13.1-9.46-1.2-11.36-7.65-4.47m165.74 4.15c2.75.03 4.41 4.94 5.38 9.46.94 4.37 1.26 8.32-.42 10.51-2.07 2.7-4.09 3.17-5.73.5-4.8-7.79-4.64-20.54.77-20.47m-20.3 7.14q1.94-.08 4.8.99c6.38 2.4 14.85 12.2 11.28 13.54-5.29 2-16.84-3.8-19.01-9.66-1.1-2.96.1-4.78 2.93-4.87m-52.69 7.88.58 12.15-25.9 1.05-.76-12.09zm63.45 10.23c2.55-.07 5.1.26 7.15 1.15 3.71 1.6 1.01 4.5-5.35 6.71-4.2 1.47-10.2 1.83-12.3.17-4.9-3.88 2.84-7.8 10.5-8.03m-200.29 1.41c17.74 10.78 54.3 34.78 54.3 34.78-1.73.34-3.57 1.7-5.29 3.03a17 17 0 0 1-4 2.61c-1.97.81-3.78.92-5.42 1.28-11.44 2.48-17.03 8.96-13.47 17 1.4 3.16 1.77 2.65-.67 5.32-6.82 6.5-5.98 8.45-3.55 16.78.03 1.18-8.12 11.19-.92 18.72 4 3.48 4.18 1.3 2.73 9.2-.5 4.75.8 8.65 7.71 10 3.84 1.77 3.8 1.16 2.43 4.42-.94 4.67.4 6.6 3.68 8.3 2.97 1.87 4.18 2.38 2.08 4.01-23.03 11.8-30.1 32.3-8.39 62.52 2.55 3.56 9 13.62 9 13.62-7.32 10.86-14.3 19.81-21.77 29.51l21.72 30.39c-3.52 5.51-11.74 16.73-16.8 27.8-7.6 16.62-2.57 39.91 19.27 46.88a28.4 28.4 0 0 0 29.53-8.49c6.33-7.35 9.78-21.94 4-37.14-7.3-17.03-16.05-25.39-18.88-30.22l23.26-29.21s-16.03-23.06-22.42-31.43c43.63-53.4 7.99-68.34 1.15-72.91-1.06-.72-.8-4.13-.8-4.13 39.17-4.5 52.56-26.02 64.08-53.28 23.38 15.06 56.85 35.3 80.3 51.14 2.25 2.1 3.74 3.4 3.4 4.54-.3.95-1.2 5.28-1.24 9.73 1.1 7.09.57 10.3-2.29 13-2.68 2.55-2.14 3.71-1.71 6.47.74 4.8 1.47 5.27-.67 7.69-2.64 2.97-3.52 4.36-3.03 11.58.29 4.29.83 7.5-.29 10.03-1.45 3.3-5.45 4.96-10.7 9.08-9.17 7.21-7.93 9.41 4.74 35.56 10.79 22.29 12.03 27.39 7.88 35.3-3.44 6.59-4.74 11.68-4.32 21.19.1 2.43.3 5.06.3 6.33-.03 3.08.01 2.73-1.76 4.65a67 67 0 0 0-5.1 6.6c-15.06 22.59-54.69 80.08-54.69 80.08l-133.26-.22zM321 807.96q2.36-.15 5.59 8.33c1.22 3.26 1.1 8.92-.9 11.1-3.96 4.34-9.42-5.83-7.7-13.87q1.18-5.44 3.01-5.56m374.79-6.11c.02 20.6-.43 47.31-7.5 67l8.03 3.65c-2.6-20.22.62-36.83 19.17-45.57-8.44-5.74-14.89-15.41-19.7-25.08m-394.76 12.98q.97 0 2.2.4c3 .83 6.67 2.6 8.9 4.86 3.8 3.89 7.74 8.56 6.75 9-6.3 2.77-22.3-5.69-20.2-12.3.46-1.4 1.27-1.93 2.35-1.96m-28.03.87.16 10.1-15.48-9.92zm353.7 4.85c2.5.22 6.38 3.51 5.78 5.79-1.08 2.47-2.41 2.24-4.14-.36-2.15-3.23-3.03-5.25-1.65-5.43m-313.81 12.48c3.75-.1 7 .73 7.35 2.69 0 1.86-2.86 4.25-6.38 5.34-8.8 2.7-15.42.96-13-3.36 1.5-2.86 7.2-4.54 12.03-4.67m306.68 11.44c-3.72 6.67-4.19 28.01 2.38 36.72 10.2 11.27 19.63 25.95 18.54 45.47l-9.8 4.39c.53-16.06-.1-26.5-12.65-40.36-14.92-16.22-11.41-44.33-6.26-52.6 4.43-8.17 10.8 3.39 7.79 6.38m-429.62-8.87c3.14-.19 6.97 1.67 13.92 6.25 17.74 12.55 27.36 17.4 44.96 29.84 2.58 2.41 2.45 2.07 2 3.96-6.73 25.75-26.26 46.18-55.21 49.92-3.36.43-1.63-1.66-3.65-5.7-2.07-4.16-5.9-5.97-10.16-6-11.96-.12-1.74-6.82 12.85-8.74 4.83-.74 10.64-1.4 13.71-4.3.67.3-2.53-20.14.75-27.35 1.67-6.47.09-9.6-1.72-5.61-1.13 2.5-2.72 9.06-3.57 15.79-.73 5.68-1.93 6.46-3.26 3.7-.61-1.26-.6-4.24.36-6.59 1.1-5.36-5.66-9.4-4.3-14.3 1.8-4.1-.08-8.61-2.35-10.1-1.24-2.66-1.09-4.58-.93-6.44.38-4.34-2.5-8.51-7.08-10.33-2.02-1.02-1.41-2.12.69-3.18a8 8 0 0 1 3-.82m-14.52 7.34a13 13 0 0 1 3.37.38c2.35 1.43 4.24 9.57 1.62 9.89-.96.11-3.98.48-6.33 1.17-7.94 2.33-11.7 2.02-11.55-2.54.17-4.66 6.68-8.8 12.89-8.9m10.55.83c3.12.01 5.65 3.67 3.68 5.62-2.03 2-5.94.54-5.92-2.37 0-1.56.72-3.27 2.24-3.25m2.12 12.67c.9-.03 1.89.16 2.96.65 2.9 1.35 4.57 6.34 2.73 8.17-1.41 1.4-5.43.9-7.59-.93-3.84-3.27-1.97-7.74 1.9-7.89m-9.84.73c1.8.04 3.1.62 3.44 1.86.3 1.07-.2 2.06.28 3.58.76 2.4 2.28 4.24.94 5.2-6.08-.37-18.72 7.27-22.38 6.91-3.04-.4-3.39-3.2-.74-7.76 3.05-5.26 13.06-9.9 18.46-9.79m3.67 14.78c1.33-.08 1.56.65 1.02 2.59-.38 1.38-.07 4.66.87 6.77 1 2.28 2.82 3.62 1.88 4.51-1.56.45-6.79 1.5-11.19 3.13-5.66 3.14-21.6 12.6-17.58-2.53 1.27-5.04 7.13-8.55 17.36-12.12 3.89-1.36 6.32-2.26 7.64-2.35m8.36.18a6.4 6.4 0 0 1 6.53 4.07c3.7 7.35-6.9 8.4-10.3 2.28-2-3.62.6-6.11 3.77-6.35m2.02 17.13c5.5.03 9.78 6.86 5.78 9.44-2.96 1.79-6.63 1.45-10.03.6-5.1-2.23-2.74-10.08 4.25-10.04m527.23.14c20.95 10.97 49.44 21.08 77.07 28.6l-.93 271.77-187.97.13-51.72-89.79s-1.72-2.93-2.27-4.21c-1.04-2.45-.67-4.44.04-6.98 1.72-6.12 6.9-18.13 11.69-26.64 12.5-22.94 30.23-48.09 20.62-70.13-1.1-2.52 9.93-16.18 9.93-16.18 16.98 1.38 31.02-9.69 26-35.82 35.44-14.49 64.64-26.27 97.54-50.75m-537 1.33c.48-.02-.96 5.95 2.05 9.6 1.87 2.9 1.57 2.8-4.8 5.3a36 36 0 0 0-6.1 4.46c-9.1 8.12-18.13-2.5-9.32-11.05a32.7 32.7 0 0 1 18.05-8.22q.08-.09.12-.09m433.1 5.62c3.06.54 7.02 4.61 5.75 6.83-4.3 7.22-4.5 11.1-4.89 18.57-.43 8.34 1 9.57-2.18 8.13-2.08-.97-5.94-2.64-6.82-4.75-2-4.9 3.12-29.67 8.15-28.78m-436.08 20.93c3.39-.06 6.94 1.05 8.94 3.62 1.67 2.15 1.84 3.98.18 4.86-3.94 2.07-16.99 1-17.65-1.69-1.02-4.12 3.58-6.7 8.53-6.79m197.7 5.3c15.94.06 34.55 3.45 48.95 9.74 20.44 7.72 38.46 27.37 42.53 35.77 1.23 2.56-1.3 2.56-3.49 2.8-24.34 4.01-32.45 33.98-11.9 48.29 6.44 4.04 11.64 3.61 11.64 3.61 5.21-.45-23.16 53.99-34.45 87.91-34.95-1.43-61.35 3.95-95.51-7.81-3.68-6.1-2.8-19.57-.13-26.52 2.45-6.32 5.69-11.2 4.13-18.46-2.72-12.66-14.26-29.16-18.12-39.61-3.39-7.99-3.17-10.96 2.73-15.53 6.95-5.39 8.67-6.52 10.58-9.24 1.78-2.54 1.02-3.13 1.04-8.84.04-6.93-.12-5.85 5.6-6.87 2-.36 6.72-1.86 10.32-3.77 7.47-3.93 12.68-3.8 17.06-1.35 1.91.51 1.73-1.46 2.53-4.08.35-1.15 1.16-3.01 1.1-3.58-.14-1.18-2.66-.83-5.45-.44-11.14 1.56-19.92 1.9-24.44.22-3.91-1.46-3.93-4.1-1.64-8.47 2.04-3.9 3.48-3.84 2.65-11.97-1.05-10.21.38-12.36 5.14-15.71 5.94-4.18 16.73-6.14 29.13-6.09m57.62 9h51.83c-5.09 8.2-10.75 20.85-13.96 32.85-.46.94-1.02 1.85-2.22.65-6.99-10-14.94-20.72-35.65-33.5m-42.96 36.5c-6.2.17-13.94 3.15-23.68 8.72-6.6 3.8-12.02 6.15-19.05 4.86-4-.74-4.52-.17-5.05 1.13-2.36 5.86 6.41 12.15 15.27 8.03 2.57-1.08 22.32-11.32 23.41-12.2 1.19-.95 9.37-3.36 11.53-3.33 6.53.08 10.56 5.22 9.76 11.14-1.07 7.92-12.28 8.31-13.02 1.28-.56-5.43-2.82-3.02-3.03-.35-.01 2.27 1.7 7.46 3.58 8.63 9.48 5.93 21.98-5.6 16-17.46-3.68-7.26-8.7-10.66-15.72-10.46m-42.52 27.58c-6.44 1.23-10.62 3.73-17.55 4.3-5.72 1.27-5.3 5.83-1.72 8.2 2.75 1.81 6.2.71 16.22-5.65 9.83-6.25 18.25 6.77 10.39 13.44-4.95 4.19-1.55 5.3 1.84 2.77 8.7-6.49 3.71-25.51-9.18-23.06m30.43 33.5c-.76-.05-1.94.22-3.54.96-7.36 3.37-13.03 6.93-16.56 11.66-.6 1.03-.27 2.76-.56 4.12-.23 1.08-1.09 2.44-.94 3.16.14.63 2.22 1.31 2.53 1.9 1.28 2.41.46 8.54-.28 12.98-.35 2.12-3.5 2.78-4.77 4.06-4.15 4.22-3.11 5.51 1.31 3.87 3.09-1.16 1.78-3.28 9.42-1.8 9.9 1.91 17.75-.77 25.54-5.1 8.65-4.8 11.78-7.47 12.13-6.89.58.94.13 1.44-6.04 6.57-15.46 12.85-26.95 15.83-35.63 11.01-2.6-1.76-4.67-2.48-2.7 1.3a14 14 0 0 0 3.81 2.71c8.91 4.02 20.08.62 34.3-10.61 3.11-2.47 5.87-5.24 9.48-8.26 11.8-9.86 8.69-14.38-4.63-9.58-4.2 1.51-5.39-.12-11.06-2.32-7.63-2.97-10.13-3.24-18.9-3.4-7.65-.13-8.79.58-8.78-.7 0-1.64 5.14-7.42 10.91-9.94 5.64-2.45 7.22-5.54 4.96-5.7m14.05 24.37c1.43 1.44-.62 2.36-6.12 4.97-3.12 1.48-6 2.7-6.4 2.69-.48.89-5.68-10.83-4.26-11.41.6-.23 13.33.84 16.78 3.75m-20-1.23a34 34 0 0 1 2.75 8c.12.79.68 1.93-.56 1.92-.98.14-2.6.23-3.18-.69-1.24-1.95-2.62-8.61-2.16-9.9.95-1.3 2.64-.39 3.15.67m45.33 21.06c-.46.01-1.32.35-2.68 1.15-21.93 12.95-48.22 19.7-65.13 13.31-5.7-2.15-6.74-1.4-4.67 2.51a14.3 14.3 0 0 0 8.64 7.07c13.81 3.8 36.05-1.73 53.17-12.96 6.97-4.57 12.67-11.09 10.67-11.08m129.04 34.7s38.75 79.87 46.28 83.62l-315.25-.56 53.12-75.92c.46 4.21 128.12 21.75 215.85-7.14"/><path fill="#d40000" d="m281.28 1190.31 50.92-75.19c75.3 14.32 143.04 6.76 217.24-6.49l49.42 83.36zm399.23-280.2-.33-44.63 15.55 5.78c-5.4-20.76 8.23-42.46 20.64-43.32-39.65-29.91-6.71-61.9-7.4-62.6-43.36-22.38-21.6-56.74-24.61-59.82-52.84-13.7-32.2-55.65-36.2-51.32-30.76 9.25-47.7-16.53-48.22-37.49-26.62 15.09-67.75-6.29-54.86-30.3 0 0 14.1 6.68 16.59 5.33 21.73-15.8 20.03 6.88 24.54 11.8 16.21-2.34 25.78 10.07 29.82 16.1 23.91.02 22.93-5.72 23.14 17.47 18 4.58 17.3 14.32 27.73 27.62 22.7.25 18.89 7.65 13.75 20.21 16.37 13.04 17.7 23.24 20.4 35.09 17.85 6.47 21.05 9.1 9.4 24.16 15.76 23.63 8.17 37.32 10.57 38.6 19.65 14.18 9.83 19.32 1.25 24.76 2.98 18.84 5.36 21.61-1.56 40.8 22.58 16.02-3.59 23.25-4.92 22.92l-.07 15.88zM133.56 793.73l-.46-55.3 191.5 123.73-24.2 37.98zm254.38 81.4 45.26-94.77L416.94 677l129.73 2.83c14.58 33.16 23.37 61.35 60.74 116.22l-39.48 12.3 1.38 66.44zm110.95-24.92c-1.32-2.74-2.06-4.61-1.82-5.84.49-1.58 1.7-1.5 3.24-.66 5.52 2.68 11.03 4.99 15.1-.08 2.03-2.65 1.5-6.43-.23-8.61-3.11-6.33-12.9-1.75-16.19-1.52-3.05.07-4.23-2.5-1.72-6.16a9.4 9.4 0 0 0 2.68-5.42c1.72-14.48-22.97-9.33-14.4 4.71 3.89 5.2 1.62 8.34-4.1 5.05-6.3-3.62-15.05-.25-14.76 7.37.22 5.76 7.46 9.33 13.56 5.85 1.4-.8 2.5-1.68 3.5-2.11 2.83-1.23 4.87-.22 3.93 2.97-2.54 3.99-5.51 9.72-3.02 13.48 2.5 5.5 11.08 4.99 14.02 1.57 2.03-2.35 2.6-6.18.2-10.6m299.26-290.49L606.28 435.37l6.63-10.5c8.6-4.8 12.13-10.77 11.84-19.08l5.2-11.49 168.39 108.05zM498.16 517.7l19.65 100.4-133.94 1.9c-7.36-33.7-53.37-110-53.25-108.67l35.72-87.77 177.75-.21zm-50.26-37.4c3.39-3.1 3.16-7.85-.58-13.2-3.62-5.17-2-8.9 3.8-5.4 3.22 2.16 8.32 2.61 11.77 1.52 4.38-1.5 6.2-5 5.55-9.4-.78-5.34-6.7-6.8-13.03-4.48-1.82.39-2.93 1.88-4.51 2.59-3.4 1.5-4.77-2.6-1.64-7.91 3.45-5.89-.14-12.2-6.5-12.76-6.79-.6-10.83 7.13-8.06 11.37 3.98 6.08 1.1 10.32-4.61 6.25-8.2-5.85-18.92 1.57-14.49 10.28 2.16 4.22 9.2 5.33 15.53 2.65 5.28-2.23 6.85.34 3.64 5.75-6.57 11.12 4.23 20.9 13.13 12.74m-194.34-98.57-1.42 53.5c-20.04-12.26-17.06-12.41-17.8-12.23 5.9 16.08-.98 35.95-17.98 45.71 30.63 28.74 14.08 48.94 9.05 62.59 39.13 22.72 19.28 61.97 19.44 59.94 38.58.22 37.8 33.96 38.91 48.03 47.71-3 41.32 35.13 47.61 38.4 23.12-10.35 50.13-6.8 57.3 24.29 4.64 17.63-12.37.64-19.78 1.38-26.37 16.42-21.3-8.64-22.78-12.13-21.84 2.07-24.78-8.34-34.34-15.73-23.6 4.54-21.65-3.22-20.26-17.54-18.5-3.75-22.53-15.3-29.9-26.6-25.55.82-15.13-17.22-15.03-20.77-3.1-2.78-17.78-17.22-18.5-33.74-26.23-7.42-9.76-20.65-8.81-25.19-9.93-12.36-12.53-21.48-9.2-37.05-23.3-10.9-3.85-21.07-2.2-27.25-7.59-20.3-2.06-26.37.94-37.35-14.98-17.56-6.03-16.59 4.93-27.25 1.4-1.92-2.44-10.74-2.23-15.93zm134.53-198.27-42-75.17h299.93s-32.64 45.23-45.3 67.99c-74.8-11.8-144.78-6.2-212.63 7.18"/><path fill="#e2cf00" d="M178.74 1141.49c-26.3-5.98-30.77-39.04-6.07-66.54 2-2.22 3.35-5.66 3.35-5.66s-4.4-7.23-15.92-23.19a273 273 0 0 1-5.27-7.72c6.32-9.11 12.94-16.65 20-26.52.95-1.33 2.7-2.82 2.46-4.05-.35-1.75-2.91-3.5-5.98-8.01-17.81-26.24-19.78-36.64-10.74-52.24 8.51-14.67 28.81-16.37 41.17-3.44 13.35 13.97 12.73 26.67-4.61 52.52-3.81 5.67-6.56 10.79-6.56 10.79s-.16 1.8 6.12 9.91c8.71 11.25 15.11 20.9 15.11 20.9s-3.97 5.06-7.72 9.47c-10.06 11.81-14.58 19.96-14.58 19.96s.69 2.36 2.19 4.06c27.56 31.23 25.4 67.1-5.78 70.15-1.6.15-5.5-.09-7.17-.39m221.7-398.55c-.72-1.18-99.18 158.16-99.18 158.16l11.23 7.21 94.2-147.3c1.42 1.08 2.81 2.37 2.52 4.16 0 0-77.58 126.42-90.5 146.63-.35.54 19.23 12.15 19.89 12.18 28.85-14.22 149.2-1.91 229.1-6.8.3.24-1.24 28.07-1.24 28.07s-18.22-21.08-21.9-21.2c-18.16-.64-37.27 7.1-50.96 6.23-8.74 2.67-18.71 34.53-20.68 42.51-15.9-1.84-31.26 14.8-27.58 30.29 5.2 17.22 14.12 15.92 23.79 16.2-.9 19.5-35.32 70.87-35.46 96.19 36.4-2.88 75.77-3.54 113.31-14.86 0 0 14.1-40.56 31.9-67.28 5.86-10.23 8.68-25.58 6.3-35.25-1.5-10.6 3.06-13.27 7.14-20.69 2.48-4.63 11.65-4.44 12.82-4.78 23.88-6.92 15.35-37.8 5.2-43.29-12.68-6.85-30.6 3.77-37.49-10.13-7.28-14.7-4.92-45.1-4.92-45.1l-180.29.86s50.94-96.8 49.65-97.51c-13.93-7.65-36.68-34.22-36.85-34.5m-120.58 88.1c.84-9.78 2.4-168.86-147.9-247.94l.8-20.91c.92-1.08 136.73 61.3 160.02 223.34l41.91-65.68 15.42 6.05c-22.78 34.23-68.09 117.3-70.25 105.14m-91.27-57.3c6.19-18.37-3.97-8.62-13.23-9.37-6.33-3.45-12.55-7.9-18.42-11.77 43.92-23.27 17.76-22.15-7.83-5.8-6.64-3.6-15.03-11.48-15.56-10.82 49.57-31.88 30.98-32.52-.74-9.44 1.1-21.65.32-13.53.75-20.8 27.04-28.98 1.85-13.23 0-12.89-6.66-28.9 25.18-22.85 28.1-1 5.6 4.17 16.61 9.32 19.86 27.25 15.29 9.74 13.69 17.8 12.98 29.47 5.97 5.9 21.42 18.38 3.41 29.89zm-57.02-131.9 1.01-16c2.08-6.52 118 76.19 109.64 182.46 1.37-.75-12.82-7.42-16.9-11.07.06-78.2-91.96-159.28-93.75-155.4m664.87 89.71c-77.35-35.45-150.8-120.4-154.65-230.9l-43.69 73.18-15.5-6.56c1.44 1.2 34.55-60.25 68.63-102.72 9.61 139.42 64.28 204.24 147.1 251.33zm-405.07-50.97c-74.94-9.3-183.31-111.35-150.92-249.67 4.6-14.05 76.87 63.77 76.87 63.77.46-3.53 65.03 100.5 63.22 120.82 54.5 15.52 160.87.8 160.87.8 88.44 19.75 180.92 115.18 147.54 250.8 0 0-23.51-15.44-43.17-33.41-59.69-57.7-78.63-105.12-99.78-157.42-76.42-6.92-148.07 6.79-154.63 4.3m405.8-115.2c1.3 6.9.45 21.17.7 21.14-19.91 21.7-21.98 22.09 3 15.11-3.1 20.8-18.48 24.22-27.61 17.14-3.37-2.6-3.4-16.94-3.4-16.94-15.15-3.8-20.35-8.35-18.2-24.64-17.44-2.08-16.75-10.57-15.32-28.3-15.88-8.93-11.93-23.16-2.53-29.23l7.86 5.41c-2.52 2.26-1.3 16.38 12.62 5.87 0 0 11.14 9.25 16.49 12.83-40.28 25.9-15.87 20.2 8.94 3.2 4.66 3.17 11.01 8.36 14.32 10.6-32.68 23.44-43.4 43.04 3.12 7.82m1.96 88.05-1.33 18.67c-79.52-48.65-101.05-112.82-106.96-181.15 0 0 10.68 7.86 15.56 11.12 7.1 88.16 87.82 147.68 92.73 151.36M363.48 422.09l190.69 1.21-50.57 96.73 26.7 31.54s66.23-103.24 99.54-157.32l-11.52-6.89-95.07 149.42-3.78-4.19 93.73-149.3c-5.62-3.68-16.26-9.58-16.26-9.58s-162.4 2.6-232.98 2.32c2.29-9.75 2.79-27.01 2.79-27.01 10.4 14.94 21.56 28.29 45.83 13.6 0 0 28.7.97 29.76-.4 3.5-5.68 9.73-23.54 16.99-43.71 27.69-1.86 24.93-15.25 28.08-19.64-2.12-39.35-24.19-18.16-22.29-32.47 6.23-25.5 38.12-83.2 34.1-88.27-8.23-5.46-89.8 10.6-113.53 13.53-2.2-.85-13.78 37.03-26 53.23-13.3 17.62-18.04 36.51-11.25 54.33-7.04 19.59-20.52 17.58-31.35 23.13-12.28 13.3-8.9 33.68 2.8 41.56 8.16 5.49 20.68 5.2 33.43-5.16zm378.93-136.82L720.1 255.3l21.63-31.52c-8.54-13.54-22.62-34.25-20.1-50.67 5.52-32.57 49.43-27.79 53.26 3.36 2.08 14.46-8.46 32.19-19.16 47.27 7.06 12.88 10.1 14.98 20.37 29.75-6.1 10.77-20.96 31.85-20.96 31.85 9.27 15.59 22.16 32.77 21.22 48.62-.98 13.62-15.81 27.42-29.66 24.52-43.07-9.02-19.02-55.07-4.29-73.21"/><path d="M338.98 104.87c11.82 22.21 45.4 82.15 45.4 82.15 79.88-16.57 147.04-20.78 217.62-5.32l50.43-76.47zm10.41 4.5h14.44l28.32 58.3 48.87-9.77-8.32-48.4 13.82.08 7 46.54 71.8-1.82 9.3-44.92 13.24.16-9.5 45.65 56.85 7.67 27.82-53.48h19.11l-42.3 66.03c-75.25-14.66-150-9.74-212.56 5.66zm27.23 0h42.16l10.11 39.35c-5.18 2.7-24.5 7.33-30.97 6.68-7.73-13.53-15.71-33.1-21.3-46.02m81.3 0h64.16l-5.48 33.5-53.8 1.72zm101.7 0h49.44l-19.51 40.68-37.28-5.08zM243.6 119.57c-9.93 21.34-23.9 42.17-35.61 57.56-34.71 45.38-42.17 58.3-49.03 85.02-10.74 41.83 26.28 75.62 58.39 52.9 7.56-5.36 15.94-20.12 15.97-26.5.03-4.58 3.16-7.05 5.7-4.48.52.51.64 2.57.49 5.5-1.78 18.95-9.38 49.77-24.1 69.1h58.82c-17.8-23.6-23.76-47.4-23.44-69.77.05-9.62 5.74-8.67 7.02 1.17 6.27 48.28 68.53 39.21 71.43-9.08 1.71-25.24-14.22-52.15-35-81.96-16.94-24.33-37.55-50.6-50.64-79.46m504.25 30.53q-4.33-.03-8 .75c-12.82 2.68-19.55 12.54-19.66 28.63-.04 7.37 5.39 20.4 13.65 32.73 4.03 6 6.72 11.54 6.72 11.54l-21.52 31.63 22.89 29.9s-3.57 4.18-5.68 7.18c-10.5 14.85-15.35 28.73-14.68 40.11.73 12.3 7.9 21.69 21.33 26.19 7.37 2.47 17.88-.55 24.95-6.96 5.7-5.17 8.58-11.89 8.7-19.77.17-11.27-5.27-24.92-16.12-39.81-2.94-4.05-4.38-7.22-4.38-7.22s15.17-21.62 20.9-31.5l-20.74-29.8c16.49-24.8 19.81-30.28 20.27-45.52-.74-15.1-11.7-28-28.63-28.08m-2.06 1.82q1.07-.02 2.15.06c18.83 1.45 28.78 15.45 26.28 33.42-2.56 17.14-18 33.1-20.48 38.62 7.43 12.07 21.43 29.23 21.43 29.23-5.95 10.8-21.3 31.75-21.3 31.75s.9 1.73 1.87 3.11c16.02 22.7 20.43 33.44 19.33 47.05-.87 10.74-9.35 20.32-19.92 22.26-16.74 3.08-30.48-8.8-32.17-24.85-1.03-14.04 8.03-27.7 15.07-38.35 2.98-4.47 5.54-8.74 5.54-8.74l-22.8-29.94s1.62-2.57 2.68-4.1c4.01-5.83 9.2-13.03 11.85-16.48 4.8-6.25 7.64-10.56 7.64-10.56s-3.4-5.47-6.55-10.45c-12.5-19.76-16-29.88-14.07-40.8 2.36-13.43 12.77-21.06 23.45-21.23m1.7 10.13c-6.96.18-13.6 5.32-16.26 12.74-3.82 13.91 10.83 34.98 17.5 40.63 12.48-14.36 20.44-30.47 15.82-41.75-3.03-6.82-10.1-11.8-17.06-11.62m1.72 4.5c12.61.27 17.34 15.24 7.6 32.28-3.36 5.8-8.3 11.88-8.3 11.88s-4.63-5.76-7.41-10.1c-11.27-17.65-8.37-31.43 5.48-33.9a18 18 0 0 1 2.63-.15m-251.02 7.78c-33.02.17-77.14 5.67-115.91 14.48-3.37 20.8-13.81 41.66-25.2 58.23-10.96 17.91-14.92 33.5-11.26 44.2 3.43 10-5.94 24.94-16.24 25.88-12.8 1.16-20.94 10.07-20.78 22.76-.37 20.33 13.67 32.8 32.72 25.88a4 4 0 0 1 3.2 1.01l-1.12 116.36c-10.72 1.69-17.88 4.02-27 8.86l-3.84-4.13a668 668 0 0 1-5.94-6.47 27 27 0 0 0-4.67-4c-1.4-.9-3.3-2.83-4.23-4.3-2.24-3.6-11.78-12.77-16.98-16.32-.89-.6-3.14-2.51-5-4.23l-3.4-3.11.03-38.64c0-21.25-.2-38.86-.48-39.14s-4.64 1.57-9.69 4.12c-17.36 7.6-33.94 18.07-46.67 26.57-5.63 3.77-6.2 5.87-4.08 15.43 1.19 5.36.9 5.93-3.52 7.01-9.09 2.23-11.93 16.7-4.25 21.62 3.6 2.3 3.63 2.42 1.3 7.66-3.6 8.1-3.46 23.6.26 30.06 2.13 3.7 1.98 4.89-.83 6.72-9.68 6.3-9.02 19.78 1.1 22.3 2.58.64 3.25 1.75 2.4 3.96-3.16 8.17-.28 20.57 6.97 29.97 3.78 4.88 3.76 4.83 1.28 7.07-8.15 7.36-3.73 20.55 7.36 22 3.8.5 3.83.5 4.27 3.42 1.27 8.37 1.85 10.7 3.7 14.64 2.33 4.95 5.13 8.3 10.39 12.39 4.28 3.33 4.29 3.38 2 8.3-4.23 9.12 2.5 18.15 13.22 17.78 5.47-.19 5.47-.2 5.86 1.74 1.94 9.51 13.24 20.67 22.51 22.2 4.77.79 5.52 1.92 3.9 5.97-2.6 6.5-.91 10.7 5.67 14.07 4.4 2.26 5.7 2.34 10.53.69 5.47-1.88 5.52-1.85 10.17 4.36 6.55 8.76 10.89 10.96 21.82 11.04 7.2.05 7.47.24 7.52 5.32.1 12.03 12.83 17.04 21.02 8.29 2.96-3.15 2.95-3.14 5.59-1.21 11.53 8.45 21.75 10.63 20.8 2.73-2.23-18.5-15.6-29.79-15.6-29.79l16.71 4.37c.74 19.53 1.43 43.08 5.5 59.36l-74.53 118.7s-4.51-2.76-9.28-6.04c-7-4.83-15.58-10.51-20.84-13.8-2.7-1.7-6.13-3.75-8.84-6.03-2.59-2.16 1.6-5.02 2.49-7.3 17.16-30.64 44.01-67.47 63.57-103.28l-18.93-7.31c-14.48 22.79-25.14 41.13-38.62 62.15-13.42-98.5-82.15-184.95-165.3-221.36l.28 25.78c87.3 44.65 149.6 136.82 147.94 245.51-.34.42-7.3-3.76-16.72-10.03-4.97-3.3-14.96-9.83-16.2-10.46 4.04-120.39-115.35-191.57-115.55-188.2l-1.09 22.76c50.87 34.09 90.84 96.1 94.9 151.28.03.45-23.89-14.92-23.89-14.92 14.23-7.09 10.31-25.45.06-30.43-3.21-1.44-3.4-2.13-1.8-6.47 3.28-8.9-2.74-22.28-11.02-24.53-3.63-.98-4.23-1.93-4.4-7.03-.33-9.32-5.5-15.43-14.79-17.47-2.56-.57-2.59-.59-2.72-3.8-.8-18.07-18.46-25.42-31.7-13.2a22 22 0 0 0-3.04 3.96l-.1 19.59c4.52-2.5 11.39-11 14.21-10.66 3.12.37 1.6 2.46-5.4 8.52-4.54 3.92-8.96 8.06-8.96 8.06l.29 25.8c7.55-4.9 15.1-10.44 22.18-15.37 6.1-4.25 9.22-5.63 9.97-4.4.84 1.38-.52 3.18-3.99 5.26-9.29 6.18-20.1 13.45-27.92 19.57l-.02 17.77 1.5 2.2.44 15.57-1.4.34.03 19.62 183.6 117.29 93.44-147.4 1.53 1.56-93.45 146.77s3.84 3.3 7.48 5.22c3.71 2.07 8.35 4.84 12.32 7.48 1.87 3.06 5.14 5.76 8.65 5.37 3.21-3.5 17.25-7.22 18.6-8.84 52.28-.77 202.33.25 202.33.25l.85 24c-6.75-23.27-28.5-28.07-45.6-17.65l-28.08.04c-.22 0-16.62 29.89-19.03 45.5-11.8-1.61-27.5 9.9-28.3 21.56-1.91 16.62 9 28.73 23.27 26.37.26.1-2.24 16.46-10.31 29.24-10.71 22.55-16.23 35.17-22.76 54.4-4.43 12.1-2.92 14.24-2.17 14.54 41.9-.6 80.44-4.66 120.2-17.49 0 0-.73-2.83-1.09-4.42-1.44-6.44 3.97-19.62 19.27-46.83 11.8-21.02 15.2-29.04 16.37-38.96.6-5.03.5-6.33-1.25-15.7-.11-.86-.79-2.12-.6-3.07 1.23-6.3 10.84-17.39 11.05-17.12 0 0 3.49-.64 4.88-.77 21.66-1.52 28.37-30.96 10.08-44.24-8.9-5.45-14.15-5.87-23.59-3.4l-.16-114.17 13.16.5 14.48-7.15c23.25 19.85 38.41 40.15 63.45 55.44l-.41 1-18.6-12.75.04 74.81c21.53-11.2 41.6-21.54 60.96-37.22l-3.9-3.38.16-10.7c18.19 1.44 19.94-21.71 5-24.48 0 0 .34-1.87 1.77-4.81 4.59-9.41 5.16-18.28 1.82-28.07-2.04-5.97-1.95-7.47.47-7.46 11.05.06 10.03-19.54-1.24-23.83-3.87-1.48-3.6-.25-2.8-12.42.59-9.13-1.64-15.33-8.4-23.35-2.55-3.03-2.33-4.49.95-6.49 9.44-5.76 2.6-22.38-9-21.9-4.52.19-4.51.19-4.9-4.35-1.04-11.9-7.69-23.26-16.4-28.02-2.7-1.47-3.1-2.68-1.58-4.71 7.42-9.93.48-23.5-10-19.53a132 132 0 0 1-4.74 1.72c-.83.25-1.5-.9-3.1-5.4-4.35-12.25-8.22-16.09-22.08-21.92-2.72-1.15-2.88-1.95-1.65-7.54 2.12-9.65-11.16-18.63-18.34-12.4-2.92 2.54-3.02 2.52-6.3-1.7-6.56-7.53-17.23-12.79-26.72-13.78-4.54-.41-5.22-.76-4.85-2.51 2.52-11.82-8.98-19.52-18.54-12.41-4.6 3.4-5.78 3.51-10.5.87-9.9-5.57-14.25-5.77-15.28-.75-.32 4.18.6 9.13 1.62 12.2 2.4 8.31 5.53 11.4 12.37 17.24 0 0-11.35-3.15-14.21-3.72.28-.3-.83-39.4-8.27-61.55l72.57-115.5 41.57 27.43-66.48 105.15 19.34 7.87s25.84-42.93 39.37-63.97c8.86 104.52 89.66 196.18 162.87 223.38-.26.12.23-15.03.54-22.37-77.23-34-150.69-129.02-146.06-243.07l31.02 19.86c9 91.4 48.81 144.97 115.18 190.26v-28c-45.7-33.83-83.68-78.02-93.76-148.72 0 0 15.5 9.8 22.45 14.44 0 0-1.96 1.12-2.98 1.96-8.29 6.9-5.8 21.06 5.14 29.08 1.78 1.3 1.8 1.3.12 5.76-3.32 8.84 1.8 19.54 10.44 21.77 4.95 1.29 4.92 1.23 5 6.9.19 11.01 4.63 16.09 16.39 18.72 1.6.36 1.66.53 1.64 5.46-.07 12.17 11.62 20.36 21.81 15.27 3.2-1.6 13.22-10 13.22-10v-19.58s-4.54 3.71-7.82 6.77c-5.75 5.35-7.56 6.02-7.54 2.75 0-2.37 2.65-5.48 8.17-9.59 2.86-2.12 7.2-6.67 7.2-6.67v-22.83s-2.57-4.06-2.4-8.93c.07-2.65.82-6.67.82-6.67l2.75.06-.04-26.43-3.34-2.6.14-17.52-181.55-117.47-94.56 150.39-2.36-2.77 94.66-149.44-25.15-16.07-15.18 7.48s-105.08-1.66-207.57-.34c0 0-.25-2.83-.2-10.82.05-10.04.51-11.45 2.36-7.22 4.15 9.5 14.44 15.22 26.39 14.68 6.74-.31 7.68-.58 15.18-4.63 2.79-1.5 3.3-1.55 16.44-1.46 14.1.1 16.62-.41 16.64-3.4 4.9-11.15 9.73-24.1 12.53-33.84 1.36-4.72 1.95-6.8 3.06-7.76.85-.75 1.53-.58 3.58-.71 9.02-.58 11.52-1.16 18.02-7.5 13.01-13.08 5.55-39.7-13.31-39.8-5-.02-1.58-13.31 8.98-34.87 10.91-22.3 12.45-25.73 18.1-40.68 3.68-9.78 5.44-16.78 5.9-21.05zm-1 6.45c2.62 2.2-3.9 18.3-15.66 42.68-9.7 20.13-14.04 30.2-16.11 37.49l-1.9 6.73c-.64 2.25-1.47 3.36-3.7 4.95a133 133 0 0 0-4.92 3.7c-3.17 2.55-3.93 1.74-3.15-3.4 1.44-9.52 5.22-19.8 13.95-37.7 6.92-14.24 13.68-29.5 18.95-45.07 1.18-3.63 1.73-7.33 3.7-8.67 2.82-1.59 5.81-1.28 8.85-.71m-14.15.93c1.8 1.25-6.74 23.3-21.52 53.94-18.44 38.23-19.41 65-2.83 71.56 13.08 5.16 26.25-9.24 18.18-19.76-3.88-5.05-12.25-5.47-15.14-.24-1.58 2.86.61 6.15 3.41 2.15 4.08-5.84 12.25.9 10.28 7.8-1.36 4.73-7.99 8.54-12.1 7.72-18.11-3.61-14.7-29.16 4.09-30.57 17.98-1.34 26.15 22.8 13.1 36.62-4.14 4.47-8.99 6.7-17.43 6.7-11.7-.02-22.64-9.7-21.53-18.65 1.55-8.2 1.78-14.83-1-21.3-.89-2.07-1.97-4.13-1.92-6.74.17-7.27 6.16-18.55 19.5-46.4 4.78-9.99 10.65-27.3 13.55-38.22 1.02-3.2.51-4.1 1.71-4.54 2.99-.65 7.25-1.55 9.65-.07m-15.43.38c2.74.12-3.56 20.22-11.5 37.35-6.03 13.11-14.26 29.95-20.39 45.53-1.95 3.3-3.27 3.56-7.28 1.42-4.42-2.37-3.1-6.12 7.33-26.87 7.86-15.76 15.42-33.6 20.72-51.54.48-2.16 1.2-4.02 3-5.06 2.71-1.19 5.37-.95 8.12-.83m-14.68 2.27c1.46 1.93-8.1 29.03-22.89 59.58-3.16 6.5-5.3 12.42-8.47 19.05-1.52 1.54-7.4 2.32-10.35 2.91-3.03-.4-.16-6.1 8.49-23.6 7.05-14.25 9.06-18.29 12.76-26.97 2.7-6.35 6.63-17.26 10.31-27.45.3-.83.58-2.65 1.38-3.08 2.74-1.16 6.09-1.63 8.77-.44m-14.44 1.7c.25.65-.3 2-.5 3.03-2.33 10.9-7.64 21.06-11.53 31.48-.46 1.42-4.72 10.3-9.46 19.71s-9.09 18.42-9.66 20c-.58 1.59-2.16 5.8-3.5 9.34-8.51 18.26.64 32.65 11.91 33.65 17.58 1.46 19.24-23.19 6.84-25.56-4.68-.78-9.82 1.78-9.85 7.16-.33 2.81 3.13 6.08 3.08 2.04-.19-7.34 10.07-7 11.34-.77 2.46 12.16-11.35 18.1-19.58 8.55-3.39-3.93-3.36-8.41-2.73-12.43 1.7-10.88 14.24-18.75 25.86-10.54 15.9 11.24 10.4 36.08-10.13 40.12-7.02 1.83-15.87-.51-21.41-6.2-3.53-3.64-5.85-8.98-6.73-15.62-.5-3.7-.7-8.04-.13-12.1 1.67-12.76 10.97-31.39 19.13-47.16 6.3-13.09 11.25-30.37 16.98-44.28 1.62-1.18 10.32-2.28 10.07-.42M423 187.8c.93.28-3.87 15.4-10.72 31.72-7.54 16.56-17.32 35.5-22.87 51.8-1.74 4-3.02 3.88-7.98-.75-2.63-2.44-1.15-6.08 8.04-24.85 14.14-28.87 19.4-41.18 21.51-48.06 1-3.23 1.8-7.2 3.93-8.45 2.72-1.28 5.4-2.23 8.09-1.41m-14.14 3.62c-1.5 4.86-6.4 19.26-14.78 36.33-5.26 10.77-10.4 22.7-15.58 33.82-2.9 6.87-2.98 6.86-7.93 7.89-8.33 1.74-8.33 1.65-.97-13.28 2.19-4.44 6.4-12.59 9.36-18.1 5.47-10.16 13.92-29.93 16.98-39.8.82-2.63 1.97-5.1 3.3-6.46.86-.46 7.42-2.42 9.62-.4m-18.21 1.81c1.49-.05 2.83.22 3.45 1.04.37 3.39-8.78 25.07-14.41 35.12-1.72 3.08-3.42 7.07-5.36 10.63-7.17 11.41-15.8 33.34-18.02 42.44-3.52 14.46 13 25.39 21.57 14.88 5.44-6.37-.22-17.81-8.06-14.62-2.74 1.12-1.62 2.34 2.12 2.66 6.17.51 6.64 10.03.1 12.12-7.27 2.23-12.63-4.08-12.6-10.54.06-13.23 14.54-18.1 23.6-10.87 9.05 7.53 10.49 25.44-3.2 32.37-13.36 6.76-29.8-2.4-33.1-18.44-2.53-12.24.2-23.45 11.98-42.32 6.77-10.86 17.29-29.6 22.66-46.05 1.06-2.8 2-5.1 2.96-6.27.9-1.04 3.82-2.06 6.3-2.15m-321.78 3.32s-5.32 10.21-12.67 22.46C47.2 234.17 34 249.13 32.06 266.07a32 32 0 0 0 1.25 12.64c4.1 12.47 21.95 14.35 28.18 3.84 1.87-3.15 2.5-3.74 4.33-2.75.79.43 1.11 1.65 1.07 3.38-1.55 11.18-5.86 17.33-12.05 25.74h29.79c-6.27-6.9-11.6-16.43-12.24-26.07-.2-3.94 2.22-4.28 5.82.04 11.62 16.06 29.88-1.98 28.4-16.96-1.67-16.67-19.1-38.23-23.9-46.7-7.27-10.75-13.86-22.67-13.86-22.67m679.76 35.2-17.93 22.8c5.18 7.48 17.47 22.19 17.47 22.19l17-21.96zm.17 12.76 7.42 9.62-8.5 10.03-7.96-9.36zm.66 49.58s-21.68 23.75-16.7 41.38c4.45 15.71 28.08 19.53 33.83-3.45.4-1.83.08-4.3-.16-7.38-.5-9.36-16.97-30.55-16.97-30.55m0 4.69s6.23 9.02 10.61 17.02c4.92 7.6 6.2 28.87-11.24 28.2-9.45.98-18.47-11.48-10.96-26.72 2.05-4.64 11.6-18.5 11.6-18.5m-357.89 3.82c1.21-.19 2.42 2.41 3.18 4.3 1.04 2.58-1.92 9.99-5.03 13.67-.6.62-4.58.97-10.5 3.99-.01-2.78 1.68-8.86 2.8-11.55 4.03-3.99 7.45-8.74 9.05-10.15q.25-.22.5-.26m-43.2 1.33c2.66 3.02 5.28 5.64 5.17 7.5-.15 2.74-3.37 6.11-5.8 8.52-3.05 3.01-9.14 1.22-9.12-2.7.01-1.44 8.7-13.32 9.75-13.32m91.77 3.92c2.58 1.38 5.19 6.08 5.52 8.21-3.77 20.32-17.74 45.16-17.26 44.22 0 0-8.56 1.53-12.2-.32 9.4-13.06 15.7-29.67 19.98-43.27 1.84-5.86 2.66-8.82 3.96-8.83m-7.92 2.85c1.44-.09 2 1.08.78 4.22-5.52 22.47-17.95 46.09-27.72 50.39-12.82 5.64-25.57.96-31.05-8.7-5.93-10.45-4.87-26.94 14.88-30.55 11.62-1.19 23.53 7.97 17.33 22.7-6.9 10.94-25.46 4.85-20.02-9.25 4.11-5.17 12.72-.69 9.91 5.15-1.43 2.97-.05 4.79 2.06 2.73 6.76-6.58-4.36-17.89-11.87-12.23-12.24 9.23 2.88 29.5 17.13 20.8 4.34-2.65 12.2-17.52 15.14-28.36 1.27-4.67 2.41-9.1 5.42-11.93 2.86-2.7 6.16-4.87 8-4.97m-32.44.89c.7.02 1.52.37 2.64.93 1.43.7 3.1 1.98 2.91 3.63-.22 1.92-1.31 6.07-3.51 8.1-1.33-.46-4.99-1.92-7.49-2.6-1.56-.42.52-3.8 1.48-5.66 1.55-3 2.4-4.27 3.66-4.38zm-40.37.76c1.84-.03 4.77 2.01 6.7 2.29.36 2.79-3.18 8.76-8.97 15.81-4.73 5.78-4.7 5.8-7.86-.57-2.05-4.14-2.1-4.02 3.74-11.3 3.15-3.9 4.66-5.7 6.02-6.19zm18.34 2.05c.08 1.49-.67 4.78-1.31 6.69-6.56 19.57-21.87 38.97-34.5 43.73-16.49 5.39-31.58-3.3-31.96-23.31.4-23.58 28.49-30.12 36.97-8.61 3.83 9.7-6.6 24.3-15.62 21.87-9.1-2.45-12.91-16.66-5.4-20.18 4.92-2.3 10 1.56 8.94 6.78-.38 1.8-.28 2.06.78 1.86 4.68-.88 2.21-10.27-3.31-12.62-10.44-4.43-18.33 9.63-11.29 20.12 8.44 12.55 21.7 10.15 29.34-5.34a48 48 0 0 1 5.48-8.39c4.63-5.35 6.1-7.46 10.19-14.54 2.26-3.9 3.46-6.36 4.61-7.64 1.83-.12 3.09.38 7.08-.42m36.98 1.03c1.98.01 3.5 1.3 3.46 4.04-.04 2.3-3.32 11.96-4.86 14.28-.58.88-1.96 4-2.16 3.31-1.92-6.43-5.37-8.42-5.86-10.1-.58-1.99 1.16-3.89 1.94-5.67 1.65-3.79 4.93-5.88 7.48-5.86m34.86 3.05c2.38-.02 5.77 1.08 6.47 2.85 2.18 3.83-12.59 39.48-13.13 39.59l-11.01-.49c6.6-14.21 12.46-28.3 16.71-41.87q.44-.07.96-.08m147.84 56.43 14.01 8.33-92.37 146.77-13.41-10.27zm-230.44 3.03c86.27.33 205.08.17 205.08.17l-5.01 9.52s-129.77-1.27-200.07-1.13zm-116.46 6-.18 48.25s-.65-.28-8.88-5.76c-9.87-6.58-20.71-13.35-24.2-15.12-5.14-2.62-4.47-3.88 5.42-10.18a2681 2681 0 0 0 27.84-17.18m369.38 4.8 8.68 5.47-97.05 154.47-5.4-10.6zm-252.9 2.13h13.5v15.27h-13.5zm30.94 0h16.4v15.27h-16.4zm35.82.17h16.86v15.26h-16.86zm35.16.06h17.05v15.26H468.9zm35.43.1h16.82v15.26h-16.82zm35.44.32h17.2v10.76l-2.6 4.5h-14.6zm92.75 4.97 164.6 106.5-.1 14.7-171.36-110.74zm-10.8 12.46 1.41 1.01-6.97 10.68-1.44-.81zm-254.28 1.58h184.77l-5.57 9.36-179.2-.26zm-151.67 4.77c1.24-.08 3.67 1.01 7.44 3.13 9.08 5.1 14.8 15.85 10.87 19.74-3.49 3.45-11.67-3.95-16.74-14.52-2.69-5.6-3.4-8.24-1.57-8.35m326.91 9.22-59.6 95.27c-13.48-18.47-28.58-34.42-61.57-23.62-17.2-13.3-35.38-15.35-54.73-4.06l.22-67.27zm-306.84.04 4.65 4.02c-1.37 2.63-2 6.42-2.9 9.8a54 54 0 0 0-1.75-13.82m377.87.99 183.65 120.83v11.2L607.3 435.16zm-402.23 2.75a8.1 8.1 0 0 1 6.45 3.07c2.77 3.34 1.63 9.46-2.27 12.07-7.76 5.2-17.07-4.87-10.92-11.8a9.3 9.3 0 0 1 6.74-3.34m30.4 1.43 10.03 8.03c-17.4 99.27 32.33 199.5 139.43 229.53l1.21 12.71c.21.6-45.5-13.57-65.46-28.5-27.3-18.47-50.36-44.47-66.26-74.71-10.84-19.5-16.8-40.98-20.64-58.33-4.55-29.78-4.42-59.25 1.7-88.73m-11.38 13.47q5.78.25 1.17 8.25c-3.98 6.84-9.93 11.6-19.58 15.67-5.31 2.24-6.7 1.22-6.08-4.45.92-8.52 6.85-14.76 17.12-18.05 2.47-.69 4.96-1.43 7.37-1.42m29.51 1.07 3.99 3.38a8.35 8.35 0 0 0 2.7 16.27 8.34 8.34 0 0 0 8.23-6.95c1.5 1.28 2.91 2.48 4 3.44a13.15 13.15 0 1 1-18.92-16.14m6.7 6.6q.68 0 1.31.2l2.91 2.48q.46.92.47 2a4.7 4.7 0 0 1-4.7 4.7 4.7 4.7 0 0 1-4.68-4.7 4.7 4.7 0 0 1 4.68-4.69m-31.6 3.04c-1.09 12.8-.75 26.18-.34 39.58-2.47-10.61-7.98-18.56-17.17-24 6.34-4.38 12.98-9.7 17.51-15.58m48.27 10.04 8.91 7.7c-7.66 105.1 84.43 144.97 86.9 143.22l3.89 11.89c-63.6-21.65-107.56-87.38-99.7-162.8M796.35 715.9l-.47 13.24c-72.16-28-154.4-131.31-153.36-230.3-18.53 28.4-28.94 47.37-44.84 72.95l-12.66-6.02c20.82-31.02 40.61-64.2 61.5-94.67 2.37-3.45 4.32-5.02 4.43 2.5-.01 34.06 10.55 174.17 145.4 242.3M209.59 472.18c2.33-.14 5.65.98 9.83 3.78 6.6 4.43 14 18.1 11.45 21.15-2.3 2.75-12.09-.52-16.95-5.66-9.62-10.18-10.25-18.89-4.33-19.27m56.27 1.38a13.15 13.15 0 1 1 .03 26.3 13.15 13.15 0 0 1-.03-26.3m29.46 1.25 8.6 10.07c1.68 88.2 71.3 115.4 70.64 115.61l2.1 9.49c-3.87.54-86.13-36.9-81.34-135.17m-29.46 3.52a8.37 8.37 0 0 0-8.36 8.37 8.37 8.37 0 0 0 16.74 0 8.37 8.37 0 0 0-8.38-8.37m0 3.68a4.7 4.7 0 0 1 4.7 4.7 4.7 4.7 0 0 1-9.39 0 4.7 4.7 0 0 1 4.7-4.7m44.48 7.99c1.06 0 6.03 7.21 6.03 7.21s-5.46 1.92-7.81-.46c-2.34-2.36-1.08-6.77 1.78-6.75m381.18 3.25 12.9 8.82c6.03 59.5 40.11 113.78 91.51 151.44l-.32 14.74c-62.6-42.3-97.37-99.79-104.09-175m-483.3 1.01h.62c7.89.14 11.23 12.26 2.79 15.73-5.3 2.19-11.08-.97-11.65-6.37-.4-3.8 2.43-7.87 6.27-9a9 9 0 0 1 1.96-.36m107.64 7.95c2.07 0 4.33 1.2 6.46 3.6 5.66 6.38 5.6 8.23-.37 10.65-8.39 3.4-15.37-1.32-12.57-8.53 1.46-3.78 3.83-5.73 6.48-5.72m-85.94.3a5 5 0 0 1 1.9.3c6.18 2.42-7.23 27-16.1 29.48-5.63 1.59-6.81-.61-4.97-9.24 2.05-9.58 12.57-20.4 19.17-20.54m39.46.57a13.15 13.15 0 1 1 .03 26.3 13.15 13.15 0 0 1-.03-26.3m0 4.77a8.37 8.37 0 1 0 0 16.75 8.37 8.37 0 0 0 0-16.75m-32.89.7a146 146 0 0 0 8.55 38.42c-5.07-8.1-12.3-12.13-19.23-16.72 4.86-7.23 10.48-14.46 10.68-21.7m32.9 2.98a4.7 4.7 0 0 1 4.68 4.7 4.7 4.7 0 0 1-9.38 0 4.7 4.7 0 0 1 4.7-4.7m74.48 1.43c13.73-.29 23.43 11.01 22.83 21.84.4 12.58.85 20.63-.18 36.25l-11.14-20.4c-.16-5.78.82-10.16.38-15.9-1.26-15.48-16.43-13.33-17.15-11.8l-4.8-7.78a28 28 0 0 1 10.06-2.2m48.34 1.55c12.86-.01 20.32 7.23 20.7 20.12.76 24.68-.56 81.02-.56 81.02l-27.82.02-15.18-37.65s-.6-3.62-.49-6.25c.96-12.07.36-25.5.77-36.41 1.6-11.56 11.1-20.84 22.58-20.85m-64.38 3.9c1.8-.02 3.45.53 4.72 1.8 6.45 6.53 6.41 10.8-.12 13.75-8.65 3.9-13.15 3.16-16.1-2.63-2.9-5.67 5.12-12.84 11.5-12.92m405.6 1.78 7.06 4.55s-1.5 2.32-2.3 3.7c-4 6.9 2.81 10.94 12.24 7.28a20 20 0 0 0 3.15-1.6l5.83 3.97s-4.2 2.26-8.78 4.5c-11.77 5.77-20.22 3.32-23.06-6.65a14.5 14.5 0 0 1 2.2-11.8 47 47 0 0 1 3.66-3.95m-298.43.83c10.76-.36 21.25 8.05 23.74 19.35 1.02 5.3-.3 75.3-.3 75.3l-42.73-.02.74-73.44c-.27-4.64 0-9.24 2.5-12.53 4.69-5.85 10.4-8.47 16.05-8.66m-44.36 3.22c-8.63.4-13.53 14.37-4.65 20.96 3.7 2.76 3.78 3.28 1.8 12.58-2.27 10.62.07 25.16 5.37 33.34 4.07 6.78 3.24 3.31 1.15-2.73-2.67-11.33-1.35-19.65 5.18-32.81 5.85-11.1 11.51-28.14-7.07-31.22a9 9 0 0 0-1.78-.12m354.56 3.2 3.85 2.6s-.57.48-1.4 1.3c-1.55 1.5-4.63 1.73-5.57.58-1.56-1.9 3.12-4.49 3.12-4.49m-307.78 5.42c-9.27-.31-15.38 16.9-3.52 21.05 2.7 1.74 3.16 4.02 1.48 7.24-2.24 4.32-4.5 14.6-4.14 18.88.5 6.16 2.08 14.2 3.31 16.99 3.11 7.68 2.5 4.61 1.68-4.27-.31-9.93 1.69-17.09 7.46-26.57 6.86-11.37 16.3-29.87-5.35-33.24a8 8 0 0 0-.92-.08m-159.57.06a13.15 13.15 0 1 1 .03 26.31 13.15 13.15 0 0 1-.03-26.3m61 1.33c2.27-.03 3.98 1.48 6.05 4.56 5.68 8.48 5.03 10.21-5.92 16.24-11.61 6.39-19.37-9.67-8.27-17.1 3.36-2.25 5.73-3.5 7.68-3.68q.24-.03.46-.02m-120.46.62c12.25.13 31.37 17.6 22.04 20.14-1.33.36-3 .61-3.72.57-15.38-.94-33-20.86-18.32-20.7m59.46 2.8a8.37 8.37 0 0 0 0 16.74 8.37 8.37 0 0 0 8.38-8.37 8.37 8.37 0 0 0-8.38-8.37m484.86 2.47 6.1 4.14s-3.73 1.72-8.13 4.07c-11.94 6.38-15.4 11.05-11.28 15.22 1.47 1.5 3.21 2.14 6.35.95 8.27-3.21 16-8.87 23.71-13.34l4.6 3.15c-.1-.2-18.26 12.9-28.17 18.42-15.56 8-24.45-8.34-15.8-19.25 6.69-6.64 13.84-8.81 22.62-13.36m-484.86 1.21a4.7 4.7 0 0 1 4.7 4.7 4.7 4.7 0 0 1-4.7 4.68 4.7 4.7 0 0 1-4.69-4.69 4.7 4.7 0 0 1 4.7-4.69m494.39 4.4 3.33 2.23s-.36.17-10.55 6.03c-11.1 6.37-11.58 6.48-12.2 5.48-.54-.3.22-2.9 3.63-5.2 5.97-4.01 16.53-8.89 15.79-8.55m-288.58.32a21.9 21.9 0 0 1 19.64 11.12c2.25 5.84 2.44 11.25 2.41 17.37l-.18 41.1h-43.03s-2-28.01 0-51.33c1.96-11.71 11.44-18.07 21.16-18.26m-133.63 6.09c2.73-.2 4.74 2.48 7.34 8.29 2.57 5.75.64 9-7.44 12.5a8 8 0 0 1-2.6.72 9.18 9.18 0 0 1-5.63-15.91c3.63-3.54 6.2-5.44 8.33-5.6m437.3 4.2 3.73 2.33s-1.91 1.73-15.81 11.87c-11.22 8.18-12.84 10.4-10.49 15 1.89 3.7 6 3.23 11.67-1.13a949 949 0 0 0 20.23-16.28l.4 7c-8.14 6.54-17.97 17.7-25.8 21.96-15.1 7.43-25.92-12.99-12.12-23.05 11.89-8.68 28.18-17.7 28.18-17.7m-302.03.03c-11.24-.1-15.43 16.6-3.34 20.13 3.48 1.87 3.2 2.83.88 11.14-1.41 5.04-1.87 11.24-1.1 15.19.91 5.03 2.02 4.91 1.56-.49.02-2.95 3.05-10.83 6.08-15.77 11.22-15.63 8.28-30.05-4.08-30.2m-262.03.2c7.42.05 11.56 10.38 5.13 14.84-4.56 3.16-14.1-.7-14.07-5.68.02-4.25 3.36-8.3 7.41-9.02a8 8 0 0 1 1.53-.14m21.35.87c2.33-.01 3.67 3.41 3.65 10.19-.02 9.71-3.47 18.18-9.42 23.13-8.6 7.16-10.53-12.36-2.48-25.28 3.35-5.37 6.18-8.04 8.25-8.04m550.6 2.56c2.11-.03 1.78 1.6-.67 3.3-1.9 1.32-5.14 3.98-15.17 12.44a83 83 0 0 1-5.78 4.44c-3.34 2.24-6.17 1.66-4.55-.93 1.6-2.54 24.26-19.22 26.17-19.25m-504.22.45a13.15 13.15 0 1 1 .01 26.3 13.15 13.15 0 0 1 0-26.3m0 4.77a8.37 8.37 0 1 0 0 16.74 8.37 8.37 0 0 0 0-16.74m-157.41.24c89 45.01 144.5 129.21 158.2 225.14l43.25-68.6 11.69 4.4-63.02 102.72-2.73-.85c-.26-100.35-50.28-195.27-147.6-247.36zm157.4 3.44a4.7 4.7 0 0 1 4.7 4.7 4.7 4.7 0 0 1-4.7 4.68 4.7 4.7 0 0 1-4.69-4.69 4.7 4.7 0 0 1 4.7-4.69m-36.75.55c3.9 8.6 8.63 17.64 15.95 27.96-7.42-6.97-15.53-6.67-23.57-7.72zm105.85 1.86a4.4 4.4 0 0 1 3.84 2c3.64 5 4.3 9.64 1.78 12.15-3.48 3.43-9 2.08-11.49-2.81-2.59-5.08 1.72-11.14 5.87-11.34m436.56 6.95.15 7.79s-1.67 2-3.42 3.64c-4.96 4.64-11.75 12.04-12.24 13.93-1.57 6.14 4.5 8.39 10.48 3.88a308 308 0 0 0 5.03-3.92v9.58c-5.04 4.29-10.08 8.5-16.96 7.12-4.01-1.23-7.54-4.38-8.27-8.41-2.87-12.08 8.82-18.82 17.9-26.9 2.92-2.6 7.33-6.7 7.33-6.7m-487.13 6.79h.66a13.15 13.15 0 1 1-.66 0m264.3 2.95c7.17-.03 10.97 9.63 5.2 15.1-2.27 2.15-7.4 3.68-10.3 1.66-7.99-5.57-2.1-16.4 5.1-16.76m-14.31 7.66c4.14 4.4 7.29 17.2 4.85 19.61-5.42 5.59-21.13-12.99-20.2-25.13 1.68-7.28 13.8 3.9 15.35 5.52m-192.36-6.97c3 .01 3.56 2.71 2.88 4.3-.65 1.52-3 1.64-4.87.87-3.18-1.3-1.69-5.2 1.99-5.17m-56.97 1.13a8.37 8.37 0 0 0-8.36 8.37 8.37 8.37 0 0 0 8.36 8.37 8.37 8.37 0 0 0 8.38-8.37 8.37 8.37 0 0 0-8.38-8.37m-62.65 3.68c15.87.02 32.62 12.52 18.06 15-10.82 1.84-17.83-.3-26.25-7.99-4.28-3.9-2.75-5.98 5.03-6.85a28 28 0 0 1 3.16-.16m62.65 0a4.7 4.7 0 0 1 4.7 4.69 4.69 4.69 0 1 1-9.39 0 4.7 4.7 0 0 1 4.7-4.7m21.97 11.92h.7a13.15 13.15 0 1 1-13.17 13.14c0-7.04 5.52-12.8 12.47-13.14m258.66.66c3.76-.06 7.05.65 8.96 2.39 2.33 2.13-1.17 6.22-8.31 9.7-8.34 4.07-22.89 3.5-22.87-.89.04-5.83 12.63-11.04 22.22-11.2m-316.87 3.46c7.3.04 9.27 22.66 2.94 33.5-3.3 5.63-7.72 1.87-10.88-9.24-2.6-9.1 2.38-24.29 7.94-24.26m58.9.65a8.37 8.37 0 0 0-8.37 8.37 8.37 8.37 0 1 0 16.74 0 8.37 8.37 0 0 0-8.37-8.37m272.74 1.47c.61.01 1.4.32 2.44.83 7.97 3.91 13.76 22.17 9.6 30.31-4.36 8.57-14.2-7.93-14.1-23.7.02-5.15.35-7.23 1.8-7.42zm-352.32 1.18h.5c7.2.17 12.44 10.13 5.67 15.24-2.97 2.24-7.53 2.6-10.33.81-5.53-3.51-5.23-12.06.52-15.04a9 9 0 0 1 3.64-1.01m79.58 1.03a4.7 4.7 0 0 1 4.69 4.69 4.7 4.7 0 0 1-4.69 4.69 4.7 4.7 0 0 1-4.7-4.7 4.7 4.7 0 0 1 4.7-4.68m-49.17 1.57c3.94 5.87 19.91 21.35 22.12 22.7-7.06-2.3-14.32-1.32-21.57-.35.81-5.36 1.68-14.16-.55-22.35m256.6 1.34c108.23 25.33 174.3 140.18 148.18 247.92 0 0-9.12-5.08-10.55-7.52 3.82-18.64 6.18-48.17 1.39-77.86-8.13-50.37-48.95-124.27-138.4-149.62-.98-3.26-.62-12.92-.62-12.92m58.32.79c1.22 7.37 2.4 14.8 4.22 21.42a134 134 0 0 0-25.1-13.99c6.3-1.33 12.07-2.44 20.88-7.43m31.2 2.36c4.31-.1 8.7 2.96 8.6 8.27-.04 2.34-2.53 6.54-4.47 7.52-7.2 3.68-14.58-3.32-11.4-10.8a7.9 7.9 0 0 1 7.27-4.99m-271.92 2.85a13.15 13.15 0 1 1 .03 26.31 13.15 13.15 0 0 1-.03-26.3m0 4.77a8.37 8.37 0 1 0 0 16.74 8.37 8.37 0 0 0 0-16.74m-223.96 1.25c53.78 31.74 102.02 99.24 105.6 175.58l-13.02-8.51c-5.6-51.42-31.93-107.36-93-153.22zm297.8 0h69.51v14.98l20.85-10.73v33.13l-20.85-12.61v14.46h-69.5v-15.21l-21.3 10.3.25-32.98L431.74 642zm-73.84 2.43a4.7 4.7 0 1 1 0 9.38 4.7 4.7 0 0 1 0-9.38m27.34 2.63h.26l.83 4.77-.4-.02a8.37 8.37 0 1 0 0 16.74 8 8 0 0 0 3.15-.6l.8 4.78a13 13 0 0 1-3.95.61 13.14 13.14 0 0 1-.7-26.28m157.03 1.65h.68c7.27 0 13.17 5.88 13.17 13.15 0 6.23-4.36 11.44-10.19 12.8l-.79-4.74a8.36 8.36 0 0 0 6.19-8.06 8.37 8.37 0 0 0-8.94-8.36l-.8-4.73q.32-.04.68-.06m92.3 4.45c16.23.09 22.97 9.4 9.66 13.37-6.16 1.83-14.23.86-22.2-2.67-6.64-2.95 2.5-10.75 12.54-10.7m-339.3.89c3.93-.01 7.73.59 10.54 1.92 6.79 3.22 6.63 5.4-.63 9.59-10.12 5.83-33.95-.08-26.75-6.64 3.39-3.08 10.3-4.85 16.84-4.87m90.67 1.44q.54 0 1.05.12l1.45 8.53a4.7 4.7 0 0 1-2.5.73 4.7 4.7 0 0 1-4.7-4.7 4.7 4.7 0 0 1 4.7-4.68M542.98 644a4.7 4.7 0 0 1 4.66 4.7 4.7 4.7 0 0 1-3.14 4.4zm28.64 3.36a13.15 13.15 0 1 1 .01 26.3 13.15 13.15 0 0 1-.01-26.3m-256.24 3.32q1.18-.07 2.61 1.09c7.9 6.45 11.82 20.1 8.71 30.25-2.95 9.68-15.25-7.52-15.18-21.23.04-6.33 1.52-9.98 3.86-10.11m340.79 1.15c1.09 0 2.24.84 3.38 2.73 4.9 8.15 4.68 25-.4 30.25-2.89 2.97-3.96 2.4-6.96-3.67-5.13-10.37-1.26-29.35 3.98-29.31m-84.55.3a8.37 8.37 0 1 0 0 16.74 8.37 8.37 0 0 0 0-16.74m-245.78 2.25a250 250 0 0 0 30.69 16.76c-9.9-2.34-17.22.98-24.77 5.46 1.45-8.28-1.38-15.01-5.92-22.22m298.63 1.77c7.4 1.04 14.74 2.26 23.33.64a73 73 0 0 0-1.44 22.29 141 141 0 0 0-21.9-22.93m-52.84-.34a4.7 4.7 0 0 1 4.68 4.7 4.7 4.7 0 0 1-4.68 4.68 4.7 4.7 0 0 1-4.7-4.69 4.7 4.7 0 0 1 4.7-4.69m-271.38 3.24q2.2.05 4.63 1.23c6.1 2.99 6.27 10.37.34 14.24-7.45 4.84-17.16-3.67-12.51-10.98 1.78-2.81 4.18-4.32 6.91-4.47q.3-.02.63-.02m297.78 5.5a13.15 13.15 0 1 1-13.16 13.14c0-7.27 5.9-13.14 13.16-13.14m77 2.2a8 8 0 0 1 3.9.95 7.68 7.68 0 0 1 1.94 12.3c-4.12 4.01-9.74 3.32-12.51-1.54-3.17-5.55 1.17-11.6 6.67-11.71m-126.96 1.94c64.79 22.06 108.18 94.13 97.72 163.51l-8.09-7.64c6.16-39.32-15.44-114.45-87.59-145.3zm49.96.63a8.37 8.37 0 1 0 0 16.74 8.37 8.37 0 0 0 0-16.74m0 3.68a4.7 4.7 0 1 1 0 9.39 4.7 4.7 0 0 1 0-9.4m-246.32.84c3.3.29 8.88-.3 10.19 2.81 1.47 3.94-6.62 10.75-16.86 12.09-4.18.25-13.13 1.31-15-1.7-1.77-3.75 10.3-13.09 21.67-13.2m-205.67 2.3c8.76-.38 18.63 11.34 9.77 20.9-7.1 7.33-21.62 17.34-21.62 17.34v-6.43s14.23-10.4 14.45-15.08c.04-5.45-4.44-8.51-9.44-5.25-.99.65-4.89 3.83-4.89 3.83l.33-10.78c2.64-2.9 7.31-4.35 11.4-4.53m223.72 2.75c6.5.25 21.55 23.46 17.71 28.2-3.03 3.77-15.26-4.57-19.85-13.54-2.47-4.81-1.72-13.4 1.25-14.52q.4-.15.9-.14m100.11 2.81s.67 54-2.36 59.1c-12.17 22.03-38.44 10.57-40.68-5.94-1.61-9.96-.65-53.06-.65-53.06zm3.85 0h41.97s-.18 76.01-1.88 80.38c-1.38 3.54-7.47 9.66-11.3 11.34-12.33 5.38-25.5-2.26-28.78-16.68-2.34-10.4-.01-75.04-.01-75.04m45.5 0h27.85s.96 4.04 2.06 7.34c1.93 5.78 8.5 22.34 9.27 23.35 3.4 4.55 3.57 54.23.2 59.9-12.3 18.42-32.74 13.06-40.22-7.35-1.87-6.53.83-83.24.83-83.24m32.49 1.88c49.97 23.74 88.21 74.06 83.42 138.65l-9.18-9.16c3.35-44.58-30.58-100.3-70.17-116.85zm68.8 1.52a13.15 13.15 0 1 1 0 26.3 13.16 13.16 0 1 1 0-26.3m49.3 1.33c4.89.07 10.86 1.76 15.32 5.45 5.34 4.4 6.09 7.88 1.94 9.15-8 2.47-17.6.08-23.63-5.86-5.6-5.52-.77-8.84 6.37-8.74m-49.3 3.44a8.37 8.37 0 0 0 0 16.74 8.38 8.38 0 0 0 0-16.74m-263.28 1.05c7 .04 10.22 9.9 4.85 14.9-2.2 2.05-8.22 2.49-10.84.8-7.2-4.68-2.98-15.75 5.99-15.7m92.66 2.5a114 114 0 0 1-9.14 19.36c-8.27 13.8-7.2 23.05 1.54 27.72 12.82 6.86 22.14-11.56 9.5-18.79-4.44-2.52-4.44-2.56-2.83-9.4 2-8.52 2.35-18.7.93-18.88m170.63.12a4.7 4.7 0 1 1-.01 9.39 4.7 4.7 0 0 1 0-9.39m-125.63 2.71c-.6-.04-.14 3.4-.19 9.48-.07 9.83-.89 12.82-7.17 26-8.03 16.84-6.96 28.34 2.99 32.07 7.72 2.9 15.24-3.01 15.28-12.03.03-4.3-1.89-7.66-4.83-8.53-2.66-.17-5.6-1.41-5.4-2.69 1.63-10.05 10.34-28.98-.68-44.3m166 1.35c6.49 4.1 13.17 7.97 22.84 8.45-4.12 9.88-3.7 17.1-4.39 24.98-4.13-10.61-10.52-22.34-18.46-33.43m-495.6 1.54a11 11 0 0 1 1.56.1c6.2.97 11.45 8.92 9.78 14.84-1.46 5.17-1.91 6.05-21.9 19.4-11.09 7.4-12.25 7.72-12.25 7.72l-5.94-4s5.03-3.36 13-8.72c15.33-10.3 17.59-12.77 16.01-17.37-1.71-5-7.45-3.95-16.52 3.03-13.42 10.34-14.82 11.03-14.82 11.03v-6.18s5.89-4.67 8.43-6.87c6.22-4.42 14.82-12.9 22.65-12.98m397.11 2.69c1.51-.01 2.68 1.39 2.15 2.73-.25.64-1.14 1.06-2.3 1.05-2.41 0-2.54-3.43-.15-3.76zM697.14 709c2.83 9.74-3.27 25.96-7 28.03-3.99 3.94-6.48.18-7.34-10 .02-8.27 9.49-34.1 14.34-18.03m-159.8-5.45c1.22 14.01 1.66 25.65-4.91 37.04-8.52 14.76-6.3 27.41 2.82 30.2 9.08 2.79 17.1-3.71 15.5-12.55-.49-2.7-4.2-7.12-6.47-7.7-2.8-.72-3.13-2.45-1.54-8 3.08-10.77 2.05-24.4-2.6-34.26-.43-1.47-2.14-4.78-2.8-4.73m30.58 4.67c7.66.04 11.28 10 5.54 15.26-3.2 2.94-5.23 1.6-8.58-5.57-3.1-6.67-2.14-9.72 3.04-9.69m71.37 2.04a13.15 13.15 0 1 1 .02 26.3 13.15 13.15 0 0 1-.02-26.3m0 4.77a8.37 8.37 0 0 0-8.37 8.38 8.37 8.37 0 0 0 16.74 0 8.37 8.37 0 0 0-8.37-8.38m0 3.69a4.69 4.69 0 1 1 0 9.38 4.69 4.69 0 1 1 0-9.38m-56.47 3.45a6.4 6.4 0 0 1 3.1.6c6.92 3.36 6.16 12.96-1.48 18.69-4.85 3.63-6.9 2.37-11.41-7-2.45-5.08 3.98-12.05 9.79-12.29m-401.87 1.1a8 8 0 0 1 2 .3c7.14 1.97 11.67 10.3 9.89 16.63-3.94 9.77-17.3 13.07-27.42 17.15l-5.26-3.84s7.43-4.22 14.64-7.54c6.75-3.11 7.85-4.35 7.34-8.27-.99-7.66-4.69-7.38-21.47 1.66a190 190 0 0 0-11.85 6.93l-3.72-3.05c5.55-3.66 8.9-5.68 14.96-9.83 10.14-6.94 15.92-9.92 20.16-10.13zm533.88 5.68c2.45 7.43-2.54 13.93-10.04 11.02-4.08-1.59-6.97-6.8-4.44-11.62 3.38-5.3 12.85-4.38 14.48.6m-150.65-2.58L576 747.6s.15 5.92.26 9.2c.45 13.8 3.4 18.37 11.48 17.03.58-.1 3.46-.93 3.46-.93l5.13 8.65s-5.55 2.43-7 2.73c-9.5 2-22.67-5.15-24.72-14.7-1.98-9.24-.44-43.22-.44-43.22m-387.48 8.73c3.57.26 2.05 2.99.4 3.88-6.94 3.54-13.5 7.39-20.76 11.57l-4.85-3.01s3.74-2.1 6.33-3.68c7.95-4.89 16.04-8.64 18.88-8.76m475.35 2.73a13.15 13.15 0 1 1-13.17 13.14c0-7.26 5.9-13.14 13.17-13.14m-55.69 1.8a7.8 7.8 0 0 1 7.2 3.94c3.52 5.84-.2 12.97-8.73 16.76-4.76 2.13-5.56 1.69-10.64-5.84-3.43-5.09-3.4-6 .39-9.24 4.25-3.63 8.35-5.52 11.78-5.62m-461.93 1.15 188.5 122.07-5.38 9.13-182.76-119.63zm560.1 1.58c11.45.22 26.4 13.48 21.1 18.73-.56.55-1.64.97-2.42.92-16.35-.96-34.4-19.95-18.69-19.65m-42.47.24a8.37 8.37 0 0 0 0 16.74 8.37 8.37 0 0 0 0-16.74m-251.75 2.33 5 12.98-93.82 149.35-9.22-5.92zm251.75 1.35a4.7 4.7 0 1 1 0 9.39 4.7 4.7 0 0 1 0-9.39m34.45 1.56c4.6 8.54 12.24 13.78 20.95 17.45-8.22 6.77-12.36 15.57-12.03 24.77-2.09-13.81-3.9-27.53-8.92-42.22m-495.95 4.51c2 .01 3.83.43 5.26 1.41 17.58 12.05 1.43 23.97-.06 23.03l-5.99-3.78c2.06-3.41 6.73-8.04-.78-12.35-4.27-1.87-9.02.37-13.17 3.25l-6.28-4.3s12.3-7.32 21.02-7.26m414.61 6.81a9 9 0 0 1 1.94.14c9.93 1.92 9.23 12.45-1.13 17.33-5.9 2.78-6.94 2.22-12.1-6.63-2.4-4.15 4.9-10.63 11.29-10.84m-417.78 3.87c1.05.02 2.4.95 2.57 1.81.5 2.77-4.62 5.54-4.62 5.54l-5.88-3.9c2.51-1.38 5.14-3.26 7.93-3.45m528.7 2.52c1.44-.11 2.49.57 2.91 2.28 2.01 8.19-7.07 23.36-15.47 25.83-4.9 1.43-6.31-.87-4.7-7.65 2.25-9.52 12.13-20.06 17.26-20.46m-304.05.63 15.26 11.08-91.59 144.76-15.85-9.42zm249.24 1.17a13.16 13.16 0 1 1 0 26.3 13.16 13.16 0 0 1 0-26.3m0 4.77a8.37 8.37 0 0 0-8.37 8.38 8.37 8.37 0 0 0 16.74 0 8.37 8.37 0 0 0-8.37-8.38m0 3.68a4.7 4.7 0 0 1 4.69 4.7 4.7 4.7 0 0 1-4.7 4.68 4.7 4.7 0 0 1-4.68-4.68 4.7 4.7 0 0 1 4.69-4.7m-210.46.49c9.93 11.2 21.1 36.26 60.09 24.44 13.28 10.82 31.62 16.98 54.22 4.97l.17 67.54-173.1.18zm-316.14 1.71 170.46 112.2-5.34 9.42L134.5 793.97zm478.56.1q.24 0 .42.05c8.71 2.13 9.7 10.84 1.6 14.17-4.34 1.78-5.22 1.34-9.36-4.75-1.65-2.43-2.59-4.45-2.35-5.06.59-1.48 7.25-4.43 9.69-4.4m109.38 9.22a8.1 8.1 0 0 1 7.5 4.81c2.14 4.77.9 8.77-3.5 11.42-7.28 4.39-15.42-3.67-11.64-11.52a8.3 8.3 0 0 1 7.64-4.71m-106.74 9.15c4.02.03 7.4 3.87 5.45 6.2-1.3 1.54-2.97 1.1-5.1-1.36-2.5-2.88-2.65-4.85-.35-4.84m48.87 1.68a13.15 13.15 0 1 1-13.16 13.15c0-7.27 5.9-13.15 13.16-13.15m37.08.73c9.93.06 23.67 16.63 21.33 25.72-.75 2.97-6.32 1.36-12.94-3.72-8.93-6.87-14.71-22.03-8.39-22m-37.08 4.04a8.37 8.37 0 0 0 0 16.75 8.37 8.37 0 0 0 0-16.75m31.89 1.7c2.74 8.03 5.54 16.38 17.91 22.18-19.2 8.95-22.86 24-19.97 43.31l-4.5-2.75c4.12-17.3 7.24-37 6.56-62.73m-31.89 1.97a4.7 4.7 0 0 1 4.7 4.7 4.69 4.69 0 1 1-9.39 0 4.7 4.7 0 0 1 4.7-4.7m-2.45 21.14a13.15 13.15 0 0 1 7.24 24.14l-4.25-3.18a8.4 8.4 0 0 0 5.38-7.82 8.37 8.37 0 0 0-8.37-8.38c-4.4 0-8 3.41-8.33 7.73l-4.27-3.2a13.2 13.2 0 0 1 12.6-9.3m59.88 1.68c6.27.03-3.47 17.4-12.4 22.14-6.81 3.6-13.05 3.89-13.03.58.05-8.63 15.87-22.77 25.43-22.72m-59.88 6.78a4.7 4.7 0 0 1 0 9.38c-2.58-.28-4.66-2.3-4.7-4.7a4.7 4.7 0 0 1 4.7-4.68m57.87 15.83c3.08.04 6.14 1.38 7.44 3.98 1.68 3.37 1.04 6.38-2.05 9.42-7.57 7.49-17.86-.2-12.92-9.64 1.35-2.56 4.44-3.8 7.53-3.76m-24.2 7.05c10.54.33 18.51 13.45 16.61 20.87-1.67 1.96-13.28-6.84-14.54-7.75-1.48-2.63-1.57-6.88-2.08-13.12m-14.38 8.13 33.05 19.85-32.96 21.17zm-294.18 9.82 177.47.65.01 7.46-182.33.1zm-7.24 11.67h11.94v14.54H375.7v-8.02zm170.53.35h14.36v14.53h-14.36zm-140.87.1h16.34v14.53h-16.34zm33.99.12h17.65v14.54H443.8zm36.12 0h16.98v14.54h-16.98zm36.27.25h16.17v14.53H516.2zm-147.77 17.9 196.84.47v8.72l-202.45-.47zm167.95 18.37c20.04-.22 31.71 22.14 16.05 37.85-14.4 14.43-38.42-4-26.42-20.24 6.69-9.07 23.15-1.76 19.04 7.9-2.7 6.36-11.58 3.4-11.3-3.5.01-2.77-2.03-.87-2.27 2.07-.3 3.72 3.53 7.85 7.99 7.86 11.63.03 13.37-15.39 2.16-21.05-10-5.05-20.55 1.4-22.99 14.2-.26 1.4-1.91 4.89-3.17 7.35-3.7 7.44-4.9 11.73-6.75 20.22-.86 1.06-3.46 2.76-5.26 3.66-5.72 2.86-5.48 1.65-3.33-7.64 6.15-26.77 16.22-44 28.52-47.51a29 29 0 0 1 7.73-1.17m59.26 1.39c12.37-.27 21.69 9.93 23.31 17.8 7.12 23.96-24.7 38.64-35.78 16.93-6.2-12.41 6.64-27.21 18.4-21.45 9.61 4.72 9 19.4-.83 19.35-5.34.25-8.6-4.54-5.65-8.39 1.53-1.51 3.36-.33 4.12-2.87.33-1.06-1.19-1.91-4.83-1.17-6.03 1.23-5.42 13.39 1.58 15.8 10.42 3.62 19.34-7.37 14.38-18.25-5.97-13.07-22.12-13.13-29.5.55a66 66 0 0 1-3.68 6.08c-11.02 14.96-11.89 17.2-15.17 25.52-.32.83-.9 1.44-1.9 1.33-3.03 0-6.01.66-8.05 1.46-1.37-.36.46-5.6.59-6 7.5-23.17 26.78-46.13 43-46.7m-95.87 6.52c-2.61 4.55-10.47 19.34-15.91 41.18-1.44-.89-5.3-2.5-8.1-3.47-1.04-.37-.2-1.6-.26-3.44 1.99-9.86 8.36-27.07 15.37-35.85 1.5-1.09 11.07-1.44 8.9 1.58m11.22 4.37c-6.72 8.58-13.74 31.38-15.2 43.14a41 41 0 0 1-.73 4.37c-1.05 3.52-7.64-4.04-7.6-8.7.05-7.95 8.85-32.16 15.14-41.4 2.19-3.22 2.45-3.76 7.14-3.93 7.52-.18 4.22 2.74 1.25 6.52m-328.66-5.66a23 23 0 0 0-4.93.65c-9.73 2.4-21.33 12.72-22.47 23.67-.53.33-1.85 7.98-1 11.87 3.2 14.69 11.78 24.65 22.28 39.22 0 0-13.18 20.43-22.22 29.87l21.39 30.95c-5.92 11.69-16.2 20.52-18.78 34.94-4.04 18.98 5.9 37.48 27.05 39.18 15.78.47 26.12-10.19 28.08-26.34.8-10.74-3.62-24.21-19.51-45.49-.79-1.06-2.32-3.24-2.32-3.24s1.78-2.1 2.72-3.5c5.6-7.56 20.16-26.04 20.16-26.04L191 1007.34s.95-2.07 2.64-4.37c17.77-24.24 21.08-36.56 17.93-48.6-1.24-4.75-4.2-8.4-8.19-12.46-6.46-6.56-13.86-9.7-21.05-9.52m-.5 2.97c6.94-.1 14.1 2.68 19.91 8.75 13.36 13.98 12.17 25.8-5.17 51.64a316 316 0 0 0-7.55 11.91l21.9 30.25s-3.55 5.31-7.23 9.65c-10.02 11.76-15.62 20.21-15.62 20.21 3.8 5.83 9.96 12.05 13.84 19.05 4.67 7.93 7.46 15.83 8.28 23.07 1.75 15.22-8.14 31.43-25.07 31.82-16.42.11-28.93-13.57-28.57-30.75.16-7.66 3.33-14.74 7.18-21.63 3.94-7.02 13.16-20.67 13.16-20.67l-21.19-30.89 22.45-29.97s-16.33-19.98-21.33-34.4c-4.07-16.35 3.55-25.68 4.56-27.1a25.5 25.5 0 0 1 20.45-10.94m472.43 1.7c12.6 14.36 19.42 34.9 22.34 52.56 1.18 7.26 1.4 19.63.37 20.97-1.99 2.58-6.47 1.19-6.2-1.92 2.28-24.9-24.52-42.73-47.73-31.94-17.9 8.32-27.46 27.67-22.99 51.74 8.44 45.38 46.5 78.64 72.27 124.16 9.12 15.42 11.28 24.1 11.22 23.79 0 0 3.37-9 11.04-21.81 18.36-33.71 43.28-55.46 61.83-89.19 8.7-15.83 14.23-31.48 15.16-45.63.18-32.91-31.96-57.72-57.06-40.44-9.93 6.11-18.33 17.9-19.65 27.63-.56 4.14-1.3 5.39-3.15 5.37-4.29-.02-4.34-1.64-.9-21.17 5.25-19.39 11.5-37.79 22.88-54.12zm-486.32 41.7c3.26 8.49 8.56 14.8 14.56 20.84 5.56-6.5 11.77-15.06 15.17-23.21 16.4-39.3-46.94-42.5-29.73 2.38m14.32 16.97c-8.04-9.35-13.71-17.13-14.26-29.46-.88-24.43 31.05-21.68 29.46.15-1.78 11.9-8.03 19.41-15.2 29.3m395.76-38.4c.61 3.44 3.96 9.27 3.68 10.64-1.56 3.6-3.83 5.4-6.98 11.35-.66 1.26-.35 1.52-2.12 1.2-1.67-.23-4.59-1.14-6.15-1.6-.89-.25-1.92-.74-1.5-1.87 3.03-6.97 6.43-15.27 13.07-19.71m-52.94 10.51-3.75 9.75c-.36 1.04-.4 1.21-1.5.99a30 30 0 0 0-6.15-.29c-4.66-.57 4.11-17.98 5.43-20.61 1.91.31 4.73 7.75 5.97 10.16m3.54 2.25h.24c1.92.24 4.76 1.28 6.88 2.2 1.17.48 1.2.51.69 1.96-1.08 2.14-2.4 8.33-3.83 10.49-.04.32-6.64-3.92-8.51-4.74-.07-1.17 2.09-9.58 4.53-9.91m55.95 1.15c2.18.08 4.87 2.06 6.35 3.2.69 1.36.06 2.74-2.37 6.93-2.15 3.7-4.39 7.7-4.93 7.27-1.63-1.27-4.65-2.93-6.15-4.99-1.12-1.54 1-5.46 2.45-7.6 2.27-3.39 3.36-4.61 4.65-4.81m-35.59-.5c2.02.45-1.18 10.84-1.78 12.14-1.9 2.86-4.87 6.62-7.23 8.13-1.21.78-4.92-1.44-4.84-4.04.06-1.85 3.6-11.16 4.77-13.63.17-.36 6.82-2.55 9.08-2.6m-82.3 3.97q.67-.01 1.35.02c7.92-.22 16.07 3.68 21.2 12.42 2.43 4.13 2.46 4.3 1.9 8.17-1.3 9.07-.85 15.17 1.54 20.72 2.72 6.33 2.32 8.5-4.35 22.59-6.68 14.18-14.8 31.44-20.96 47.45a169 169 0 0 0-6.81 20.99c-1.04 4-5.92 2.8-10.78 2.61-2.47.53 3.57-16.11 12.52-36 7.16-15.91 16.9-33.85 20.78-51.67 3.17-14.52 2.16-20.49.42-26.6-6.7-17.74-30.04-13.39-29.98 2.96.5 10.59 12.76 16.27 17.25 5.88.75-4.77-1.61-1.99-3.58.33-4.23 4.97-11.47-.56-10.34-7.89 1.5-9.63 13.93-12.8 19.94-5.17 6.58 8.33 5.14 16.94-4.37 23.39-9.79 7.2-18.7 3.11-23.6-4.37-10.43-16.77 3.84-35.39 17.86-35.83m48.42 7.04c9.72.2 20.28 8.35 21.98 14.8.92 4.37-.49 9.52 1.07 13.75 1.3 3.39 2.56 5.34 1.62 8.35-8 25.74-26.88 53.19-36.2 83.66-1.09 2.13-2.07 2.39-4.48 3.08-3.73 1.06-5.19.95-5.58-.99-.37-1.86.88-5.37 3.05-11.97 2.62-7.9 8.39-21.44 11.77-27.8 7.9-14.83 12.29-24.97 18.02-37.63 1.07-2.37 1.37-3.77 3.05-7.18 7.22-14.64-.93-29.07-15.9-29.15-11.84-.07-17.14 18.49-6.77 23.92 10.15 5.3 17.72-8.63 8.7-13.57-2.18-1.2-2.74-.05-1 2.04 4.03 4.83.42 11.32-5.17 8.74-8.65-4-4.2-18.75 5.9-17.9 15.6 1.32 17.63 24 1.72 29.74-21.86 7.91-33.33-27.3-12.76-39.14a21 21 0 0 1 10.98-2.75m46.06.7a23.3 23.3 0 0 1 16.76 6.68c12.23 11.74 8.98 29.86-11.68 64.91-6.76 11.74-13.36 25.84-16.97 36.14-.89 2.57-1.64 3.88-3.68 5-3.58 1.98-7.64 2.22-8.16.83-1.35-3.56 8.89-25.7 27.11-60.48 4.79-9.26 10.84-20.02 10.54-31.06-1.2-8.75-8.49-15.05-18.24-12.18-6.56 1.92-9.25 11.18-4.41 15.85 2.02 1.94 4.5 2.97 6.1 2.8 3.03.1 6.47-2.89.6-3.21-6.18-.03-8.3-7.81-3.06-11.32 7.5-5.04 16.13.9 15.52 10.72-1.25 19.73-30.06 16.79-30.83-3.54-.47-12.58 9.42-20.85 20.4-21.13M846.82 991c7.14 5.06 12.28 14.29 13.48 23.11.38 2.73.74 5.51-.44 6.13-1.45.76-2.46-.36-5.44-4.29-6.94-9.15-20.65-5.25-25.25 7.3-4.38 11.95.15 25.37 18.55 52.06 6.63 9.88 12.44 18.07 17.92 27.75 3.88-9.64 10.46-20 16.08-28.56 21.02-31.84 24.88-48.39 13.44-59.06-7.36-6.69-18.99-6.9-22.93 1.66-2.68 3.53-4.28 5.22-5.4 3.1-.49-.93-.44-3.75-.12-5.82 2-10.12 5.3-16.75 12.58-23.38zm-367.1 23.07c4.36-.33-3.14 23.13-16.23 49.45-7.15 14.59-12.56 30.25-18.12 45.5-1.5 2.04-10.53 2.41-10.51.3 16-51.3 27.32-60.14 32.8-79.68.94-3.38 1.64-8.26 1.77-8.68 4.05-1.15 7.46-6 10.29-6.89m-296.4 3.46-16.97 22.12 16.56 23.49 17.2-22.46zm367.33 6.83c-.01 2.65-5.1 15.41-8.9 23.07-16.61 33.54-20.75 42.58-23.61 51.52-.52 1.61-1.36 2.68-2.4 3.07-2.08.78-7.84 1.88-8.32 1.09 3.52-19.59 30.41-64.19 35.63-83.73 2.09-.09 7.43 3.09 7.6 4.98m13.3-2.04c1.13-.08 1.58.38 1.26 1.88-.53 2.43-3.42 8.15-8.47 18.08-14 27.51-21.34 43.8-23.68 52.18-.55 1.96-.89 3.5-1.82 4-1.93 1.03-8.66 3.74-8.98.81 2.1-12.43 10.3-20.52 31.48-72.38 1-1.7 1.86-2.54 2.8-2.69 2.6-.43 4.86-1.66 7.41-1.88m-57.42 8.52c-.53 3.2-4.2 9.9-10.27 22.29-10.1 20.62-16.62 35.98-20.58 49.6-.64 2.21-1.52 4.54-2.39 5.14-1.64 1.13-9 .78-9 .78-1.1-5.63 7.77-26.65 17.66-48.74 5.37-12.03 11.6-24 15.8-34.78 2.86.43 8.39 3.18 8.78 5.71m14.98-5.31c2.99-.03.67 5-6.5 19.17-5.83 11.5-15.1 27.63-21.1 46.16-1.56 4.08-3.4 9.15-4.08 11.28-.88 2.75-1.7 4.11-2.83 4.67-2.16 1.08-7.4 1.02-8.31-.1-1.46-1.78 6.28-22.64 13.83-38.66 6.66-13.45 11.35-24.27 17.1-36.71 1.58-2.48 1.65-2.65 3.25-2.96 3.33-.27 6.77-2.5 8.64-2.85m-337.91 2.67 8.73 11.69-10.25 12.76-8.54-12.42zm-1.32 50.41s-3.7 4.27-7.52 11.04c-11.16 18.58-11.46 32.29 1.7 40.44 5.55 2.82 12.8 2.2 17.37-1.78 14.9-13.01 3.82-30.87-5.8-42.99-2.56-3.56-5.75-6.71-5.75-6.71m.55 4.75c5.59 6.59 9.68 11.55 13.4 19.84 4.29 11.13 1.54 19.88-6.75 23.99-13.1 6.51-25.02-8.09-18.8-23.67a78 78 0 0 1 12.15-20.16m366.9 22c1.24 2.34-124.7 31.47-217.6 6.47l-56.54 81.81 326.37-.57zm-4.76 5.8s30.34 52.51 45.23 78.23h-20.93l-29.82-63.85a333 333 0 0 1-47.64 9.68l10.62 54.17h-15.67l-8.86-51.76a663 663 0 0 1-69.91 1.75l-10.26 50.01h-16.4l10.52-49.66c-18.05-2.43-36.01-4.73-54.35-7.74l-30.75 57.4H283.6l48.26-72.04c72.05 14.46 138.49 11.05 213.1-6.19m-11.4 28.19 23.66 50.04h-44.8l-8.26-44.64zm-191.81 3.64 39.16 5.07-10.1 41.33h-52.9zm127.86 6.16 5.38 40.24H407.5l7.5-39.45z"/></g><path d="M872.26 1120.97c-14.37.05-29.54 7.77-33.84 24.33-1.51 5.26-1.52 5.27-1.57 52.14-.04 38.75-.37 48.09-.37 48.09h-13.24V1261h43.11v-15.47h-14.3s-.2-48.2-.2-78.59c-.6-7.88.12-14.82 2.22-19.64 7.62-17.57 34.46-13.73 37.69 1.26 1.93 8.94.85 11.28.98 18.99h14.93s.4-13.56-1.06-21.48c-1.96-17.66-17.2-25.52-32.96-25.08zM67.93 39.02v14.5h14.34s.34 13.99.47 43.69c.13 28.82.72 43.12-1.14 51.32-5.05 18.93-32.96 19.02-38.5 5.42-3.24-7.92-2.37-14.06-2.54-22.02H25.14s.08 4 .1 8.9c.08 21.3 7.27 31.46 24.07 35.48 17.26 4.57 37.43-2.4 44.62-16.9 4.28-8.25 3.79-8.8 3.89-58.72.07-33.32.59-47.17.59-47.17h13.2v-14.5z"/></svg>