<svg xmlns="http://www.w3.org/2000/svg" fill-rule="evenodd" stroke-linejoin="round" stroke-miterlimit="2" clip-rule="evenodd" viewBox="0 0 934 1300"><g fill-rule="nonzero"><path fill="#e2cf00" d="m675.34 115.4-341.93 1.66 43.42 82.26c88.86-7.99 166.74-.88 247.88 1.77zM441.8 404.62c-.36.48-14.23 4.06-12.81 7.2 36.2 77.52 52.38 140.6 67.5 220.26 7.64-6.2 20.01-5.95 20.01-5.95-6.1-29.59 31.2-33.27 31.45-2.32 7.16 1.66 14.52 1.68 20.98 8.91 2.9-87.05 34.15-177.13 74.5-239.54-45.98 18.2-113.45 63.54-113.45 63.54s-56.14-23.18-88.18-52.1m279.5 9.27c-61.2 58.08-85.16 219.31-80.77 221.54-78.88-2.64-102.79 84.3-34.41 131.18-2.7 9.1-9.38 16.5-14.55 24.53 7.05 4.03 14.75 4.9 22.44 5.74 5.83 6.92 11.57 14.9 17.91 15.56 6.89-4.34 11.77-10.68 17.5-16.16 7.15-1.82 14.24-3.83 21.02-6.93-6-8.38-13.13-16.85-13.31-24.7 59.45-41.9 51.3-98.88-2.3-128.04 15.96-95.96 39.25-157.25 66.28-200.84zm-421.48 74.13c-7.77 3.8-12.01 11.8-17.65 18.08-7.75.35-15.2 3-22.59 6.29 0 0 17.74 24.48 16.64 25.8-57.5 37.65-57.03 92.68-1.82 128.93 9.35 78.31-57.22 202.25-60.58 198.65l-.12 25.62c46.33-51.23 72.54-144.3 77.13-220.75 94.62-6.3 97.97-97.68 32.84-132.05-5-4.59 16.37-25.82 16.37-25.82-5.43-5.35-14.51-5.95-22.46-6.61-5.02-6-9.4-11.97-17.76-18.14M700 551.26c13.38 29.75 62.25-6.5 70.73 9.33 6.88 8.98 21.87 9.9 21.06-5.22-2.82-14.98-12.68-18.3-51.8-11.77-14.86 2.47-20.94 3.94-20.86-2.83-10.26-12.39-19.07 4.47-19.13 10.5m45.39 43.4c-10.98 0-12.84 42.88-12.68 55.75-31.76 50.15 65.16 44.45 23.25-10.18 1.45-7.14-5.35-18.78-5.16-23.92-3.44-.44-4.94-19.8-5.41-21.65M186.6 620.45c-17.19.43-36.08 16.21-8.52 38.9 1.83.63-.93 5.41.01 12.77 7.77 16.76 5.67 41.57 11.46 37.76 6.68-4.4 12.27-22.92 10.82-48.77-.1-1.7-2.33-3.5-1.92-5.32 15.47-25.52 2.4-35.7-11.85-35.34m175.9 48.05c-4.41 83.75-24.94 165.93-71.45 237.2 40.03-18.66 78.9-42.73 116.5-63.33l87.87 54.37c5.09-2.2 8.61-3.3 11.98-6.63-40.5-59.2-53.02-144.42-70.66-221.51-6.72 4.76-19.35 7.14-19.35 7.14-.9 26.74-28.95 35.4-34.68.54zm-212.08 65.34c-9.38.6-16.42 23.8 10.13 27.23 18.73 2.65 42.73-6.58 54.63-2.3 13.84 22.06 26.26-10.42 7.77-15.72-19.87-5.7-60.33 9.16-64.8-3.46-2.3-4.31-5.1-5.92-7.73-5.75m159.37 362.79-53.01 93.61 338.93-2.04-44.3-89.29c.75-.99-148.03 17.69-241.62-2.28"/><path fill="#d40000" d="m383.33 207.33 5.51 13.13c72.8-8.8 148.97-17.91 225.22 1.48 0 0 5.6-12.14 5.5-13.02-71.04-18.07-229.93-13.39-236.23-1.59m73.68 184.44 69.27 44.8s33.18-23.43 47.32-33.35l-8.59-12.6c-29.3 64.57-80.8 13.5-100.1-16.89 0 0-5.25 11.77-7.9 18.04m186.06 21.68c4.8-.1 7.47 1.74 9.88 6.63 2.72 5.52 3.77 4.16 2.01-2.72-2.76-10.85 8.77-17.91 19.62-10.67 7.84 5.23 7.5 17.89-1.07 20.23-6.92 1.9-7.1 3.7-1.02 3.41 10.9-.53 13.8 14.02 6.04 21.13-8.92 8.18-20.29 2.38-21.33-7.88-.47-2.9-1.09-2.85-2.05-1.21-2.75 4.73-3 10.88-2.47 16.45l-16.1-10c5.73-2.83 9.23-4.54 13.38-8.85.53-.56.94-.97.94-1.22 0-.44-1.8.15-5.08.5-9.73 1-17.22-5.3-15.23-14.46 1.7-7.8 5.74-11.2 12.48-11.34M572.04 666.2c17.52-20.04 39.28-32.9 69.53-31.1 3.84-84 32.97-158.67 79.62-225.95l-51.32-30.85-20.6 12.42c-49.5 70.22-79.92 159.32-77.23 275.48M187.4 469.96s-34.74 26.02-50.88 38.59l.78 231.57 4.49 1.54c.32.5-.4-3.43 1.67-5.23a23 23 0 0 1 5.93-3.71c4.46-1.63 4.66-4.6.5-7.18-3.24-2-4.47-5.08-4.1-10.2.26-3.63.1-4.42-1.4-6.87-1.88-3.06-2.04-6.92-.44-10.93.74-1.86.67-2.36-.65-4.87q-2.52-4.8-.63-10.37c.48-1.42.82-4.52.78-6.92-.17-9.22 7.44-15.34 21.5-17.27 5.5-.75 5.68-.98 3.15-5.59-14.24-26.01 17.76-39.57 20.16-35.4zm438.27 12.92a23.53 23.53 0 1 1 .68 47.06 23.53 23.53 0 1 1-.68-47.06m.22 4.2a18.85 18.85 0 1 0 .58 37.7 18.85 18.85 0 0 0-.58-37.7m.5 5.98a12.78 12.78 0 1 1 .38 25.57 12.78 12.78 0 0 1-.39-25.57m-467.26 9.67a9 9 0 0 1 3 .46c5.88 1.86 7.92 7.03 4.75 11.92-2.5 3.85-2.21 4.18 2.15 2.55 3.44-1.27 5.2-.87 7.9 1.81 8.12 8.04-3.97 21.56-11.92 13.37-3.94-4.06-4.31-2.86-1.58 4.1.88 2.26 2.34 5.77 2.34 5.77l-11.65-.17 2.64-6.84c2.02-5.28 2.09-6.05-2.12-2.73-9.48 7.49-20.24-5.33-11.51-13.7q2.65-2.57 8.59-.23 4.31 1.7 1.07-2.38a8.5 8.5 0 0 1 6.34-13.93m241.58 20.75c-4.74 31.04-.6 74.59-.7 97.86 12.64 2.41 12.77 11.02 14.72 21.72 6.14-2.14 19.57 6.93 21.4 6.13 1.4-31.48-14.96-122.89-35.42-125.7m209.7 31.1c17.95 1.44 14.5 15.3 9.16 20.98-2.53 2.92-2.06 4.24.72 2.56 7.58-4.58 13.59-1.28 16.03 6.61 4.17 13.47-13.53 25.08-21.43 12.99-2.68-4.1-4.32-3.18-3.66 1.11.4 4.13 4.44 12.7 4.44 12.7l-17.6-1.58s5.38-8.95 6.32-11.36c1.96-5 .92-6.33-2.84-2.3-11 10.07-26.26-2.83-19.15-16.18 3.5-6.59 9.97-8.72 16.94-3.47 4.7 3.07 5.73 1.74 1.52-1.99-7.86-6.96-1-20.92 9.56-20.07m-450.44 11q.3-.02.6-.01c1.5.03 3.09.44 4.67 1.33 4.37 2.46 5.57 7.31 2.83 11.53-1.58 2.43-1.12 3.96.71 2.37 2.46-2.12 7.88-.7 9.99 2.6 5.43 8.5-5.18 19.63-11.95 12.55-2.99-3.13-4.13-3.25-3.79-1.2.98 3.85 3.51 10.42 3.51 10.42l-12.19.21s2.63-6.9 3.22-10.41c.45-2.78-.66-2.37-3.57.9-2.82 3.2-5.38 3.52-8.99 1.14-8.88-5.9-1.76-21 7.5-15.93 3.2 1.75 3.64.74 1.15-2.56-4.46-5.89.09-12.64 6.31-12.94m632.97-5.4c-19.74 20.39-13.55 8.33-4.4 23.88.03 10.25 6.01 18.27 1.27 34.44-1.52 3.16-1.65 4.66-.82 7.84-1.45 17.87-15.76 17.64-29.68 20.42 2.3-.16 22.05 36.32-14.78 39.18l.42 148.28 57.75-42.58-.25-231.46zM359.5 638.48c-16.37 10.55-39.38 36.92-68.31 31.19-3.5 92.52-33.86 164.14-77.18 225.7 14.96 8.83 31.42 19.44 46.71 26.25 12.93-6.67 20.2-9.45 32.88-19.9 52.07-80.42 68.58-168.35 65.9-263.24m135.96 16.92c2.93 47.51 10.66 92.5 35.38 128.6l1.67-100.97c-8.81-2.11-16.03-7.8-18.6-23.95zm-178.63 28.03 16.51.39s-3.74 7.46-5.36 11.64c-1.97 5.1-1.04 6.14 2.73 2.6 4.9-4.62 12.7-5.05 16.82-.93 10.91 10.93-.5 28.75-13.4 20.93-5.53-3.34-6.46-2.22-2.07 2.52 8.52 7.91-.38 19.31-10.35 19.36-7.2-.03-11.88-5.8-12.45-12.14-.28-4 1.73-8 5.2-9.95 3.61-2.03 1.02-3.35-2.9-1.24-12.83 6.9-21.4-10.82-11.73-20.9 5.58-5.81 11.48-5.27 17.15.28q5.94 5.81 4.26-1.05c-1.12-5.16-4.4-11.51-4.4-11.51m445.82 13.9 11.83.02c-1.16 2.92-2.67 5.9-3.61 8.8-1.02 3.16-.27 3.56 2.86.51 8.16-5.48 16.86 0 15.09 8.68-1.22 5.98-6.23 8.92-12.02 6.32-5.1-2.3-3.46-1.31-.56 2.18 3.45 4.15 2.57 9-2 12.21-8.07 5.68-18.73-3.76-13.39-11.99 3.15-4.9 1.7-4.36-1.16-2-4.3 3.16-10.82-1.3-10.95-7.48-.49-8.9 8.48-13.9 14.81-7.6 3.02 2.53 3.77 2.22 2.4-1.47-1.24-2.68-1.64-5.55-3.3-8.18m.64 64.66 12.4-.14s-.18.95-2.09 4.54c-2.25 4.22-1.9 8.58.44 5.62 3.96-5 12.36-3.6 15.12 2.5 3.2 7.12-3.05 14.98-9.54 12-4.22-1.95-4.5-1.53-1.7 2.52 2.72 3.94 1.51 8.79-2.92 11.62-8.7 5.55-19.15-5.54-11.9-12.65 1.94-1.9 1.34-2.82-1.02-1.54-9.61 5.22-16.7-7.77-8.4-15.38 3.55-3.24 6.25-3.01 12.08 1 1.81 1.26 2.16-.03.85-3.2-2.23-5.42-3.32-6.89-3.32-6.89m-460.4 7.78a25 25 0 1 1 .7 49.99 25 25 0 0 1-.7-49.99m.28 4.46a20.53 20.53 0 1 0 .6 41.06 20.53 20.53 0 1 0-.6-41.06m.23 7.89a12.64 12.64 0 1 1 .35 25.28 12.64 12.64 0 0 1-.35-25.28M272 842.67l14.43 7.06s-6.82 5.55-9.54 8.4c-3.47 3.7-3.23 5.42 1.46 3.66 8.93-3.37 17.88 1.67 18.05 10.94.22 12.38-14.42 18.34-21.45 8.97-2.09-2.79-4.58-3.95-3.6-1.67 2.37 5.54.92 12.51-3.23 15.38-3.31 2.3-9.39 2.97-12.45 1.38-10.54-5.46-11.08-17.6-1-22.39 5.05-2.4 5.23-4.66.24-3.42-10.37 2.58-16.42-9.97-8.94-18.6 7.94-9.15 20.89-7.25 22.32 6.29.25 2.4 1.9.67 2.63-3.02.88-2.75 1.08-12.98 1.08-12.98m134.5 20.36s-52.85 30.07-51.23 31.34c.3.18 11.7 16.22 11.7 16.22 26.22-59.4 89-10.2 99.05 20.12 2.18 1.34 2.56.95 4.92 2.02.23-2.14 4.59-23.2 4.59-23.2zm-84.74 218.37c-2.64 3.32-11.5 12.72-10.38 13.06 77.64 16.7 157.72 15.37 239.24 6.53l-6.22-19.58c-80.5 20.51-222.64-.01-222.64-.01"/><path fill="#131f67" d="m125.72 107.63 4.76 1091.61 681.43-2.4-4.09-1090.52zm207.25 7.78 339.85-1.39c-15.93 41.39-61.84 106.77-59.67 106.93-70.7-11.69-143.57-17.58-225.07-.17zm-199.38 2.66 190.72-.25 62.9 112.75s3.7 7.04 1.5 14.4c-2.42 8.03-4.48 11.6-6.65 15.7.21-2.34-18.13-4.66-16.6 11.04 1.05 10.63 14.5 16.64 24.52 8.37 1.6-.13 1.58 1.36 1.24 3.95-.93 6.09-7.4 25.42-11.83 26.7-22.59-18.52-30.64 15.3-15.42 22.04 8.82 3.9 22.37.68 28.7-9.92 4.86-8.1 4.32-6.77 5.85 3.07.57 3.66 1.37 7.9 1.78 9.8 1.3 5.97 0 7.12-10.03 9.83-8.08 3.15-16.26 4.88-24.6 6.68-15.21 2.5-23 13.98-23.37 27.95-.08 3.02.02 4.42-.63 5.32-64.39 24.44-132.82 58.64-204.6 117.03zM566 385.78c-2.44-3.94-10.24-24.65-12.38-33.3-5.59-41.89-6.65-91.62-12.62-130.62l7.87.89s2.96 11.29 6.14 41.8c1.58 15.11 3.22 46.55 4.54 61 1.99 21.48 11.69 55.82 17.7 64.48 9.8 14.14 29.5 5 22.92-11.79-3.42-8.7-16.66-7.3-14.83 1.74.03 1.61 1.26-1.15 3.2-2.85 5.72-2.17 12.16 3.78 8.8 10.96-4.17 9.15-16.52 4.97-20.61-6.57-4.9-13.78 11.58-24.11 23.92-15.7 13.73 9.36 13.76 33.1 2.7 40.59-18.62 6.79-31.27-6.77-37.35-20.63m46.02 17.47c-.75-.45.02-1.89.95-5.32 3.44-12.8 1.27-22.8-7.02-32.23-4.62-5.25-6.35-6.17-3.94-7.12 5.13-2.02 16.46 6.2 19.58 14.3 3.06 7.94 3.84 16.15-.5 25.13-3 1.92-7.68 5.79-9.07 5.24m14.03-8.54c-.02-1.5.99-6.22 1.23-8.54.9-8.93-3.29-18.01-10.68-25.1-6.21-5.96-6.78-6.58-.9-6.67 15.15-.26 24.8 24.24 17.82 36.3-1.8 1.92-7.3 5.83-7.47 4.01m12.83-8.29c4.46-20.88-15.74-34.8-16.15-34.15 1.01-4.68 9.03-1.99 11.77-.17 10.2 6.86 16.08 24.78 9.81 34.96a6.7 6.7 0 0 1-2.62 2.65c-2.1 1.32-3.35 2.38-3.78 1.46-.33-.7.85-3.75.97-4.75m-177.7-67.75c2.1-2.07 2.73-2.13 6.8-.6 12.7 4.8 22.85-4.32 19.85-13.9-1.09-3.47-5.85-7.24-8.78-7.54-4.78-.5-4.88 2.03.28 3.96 6.34 2.37 6.98 9.1 1.4 12.13-6.56 4.43-17.3-6.8-25.18-5.86-3.76 1.13-6.17 4.65-4.02 8.95 1.68 3.02 7.34 4.84 9.64 2.86m-14.1-1.37c-4.4-2.05-6.08-2-5.24-6.82.56-3.16 5.07-24.46 7.21-32.7 6.43-24.65.4-38.32-17.8-43.83-12.34-3.74-22.95-1.84-35.52 4.84l-2.26-6.97c52.68-13.78 142.57-10.73 142.26-10.2 1.77 7.1 2.44 14.19 3.14 21.28 0 0-16.85-8.27-25.63-11.02-13.54-4.15-34.93.4-38.72 8.17-2.15 4.41-1.04 7.35 8.06 2.45 14.88-8.02 45.29-1.9 56 6.6 2.47 1.95 2.34 2.38 2.4 4.67.07 3.5.27 3.7-4.6 1.1-25.55-13.06-47.39-11.54-54.91 5.6-1.74-.52-8.36-1.66-8.36-1.66l7.1 10.52 1.36 11s11.62 6.46 18.03 9.19c6.3 2.67 2.68-.18-5.06-5.56-5.69-3.96-1.17-5.22 2.58-3.71 7.72 1.77 18.99 4.01 32.04-4.27 4.05-2.57 13.33-.34 13.47.82 0 0 1.24 9.63 2.46 29.72.58 9.5 1.76 21.92 2.42 27.02 2 15.4 2.58 16.27-5.51 8.89-2.72-2.48-7.26-6.59-7.3-6.35-1.04 4.78 10.92 13.17 13.7 16.04 4.22 4.37 7.62 15.55 5.92 16.21-1.07.42-12.42-9.2-21.36-17.87-3.35-3.24-8.33-7.59-8.48-7.44-1.84 1.23 5.66 9.7 12.69 16.03 8.2 7.4 9.15 8.05 6.4 9.17-5.1 2.05-9.68-.5-22.04-10.72-1.2-1-5.88-4.32-6.1-4.08-1.13 1.5 10.27 12.3 12.86 13.23 4.81 1.72 6.2 6.37 2.4 8.2-2.53 1.21-11.97-3.96-19.53-10.51-1.36-1.18-5.12-3.18-5.37-2.9-1.5.96 6.96 8.27 15.03 13.13 7.9 4.75 9.16 5.93 7.15 9.88-1.88 4.08-19.22-5.35-27.9-15.07-1.84-2.06-3.3-2.95-2.93-2.26 3.78 10.47 16.21 17.97 25.46 20.96 1.65.54 4.04 1.2 5.12 2.06 2.64 2.1 2.05 4.27-.8 5.5-9.87 2.77-25.42-9.18-36.54-21.69-1.29-.53-.52 1.1-.18 1.65 9.28 14.8 27.05 26.07 37.75 23.97 6.25-1.23 11.28.65 11.33 2.75.04 1.72-3.4 4.46-10.14 4.94-15.22 1.09-39-15.57-52.9-36.77-.44-.66-.95-.9-.99-.5-.38 4.5 8.27 15.51 14.9 21.82 19.71 18.73 38.35 25.07 52.88 14.51 8.2-6.35 16.12-20.23 3.9-24.87-6.46-2.46-10.55 6.44-5.01 3.9 7.26-.87 8.9 2.98 7.97 6.6-1.86 6.22-8.02 7.2-13.03 4.6-8.72-4.73-6.87-20.92 4.42-23.74 10.18-2.46 19.05 6.16 20.22 14.34 1.8 12.71-12.53 26.46-24.03 29.88-39.21 11.67-69.84-42.82-70.02-44.05-1.96-3.79-4.33-5.79-5.82-1.38-1.6 6.4-10.46 25.13-15.19 25.02 1.48-6.61 7.68-17.72 6.17-27.46-2.61 8-8.13 25.05-18.7 34.14-2.72 2.5-10.76 5.43-5.23-.99 6.68-9.38 15.4-22.2 13.6-34.25-1.77 2.7-2.74 9.56-4.76 14.08-5.07 11.33-16.14 24.78-23.45 26.95-5.4 1.61-4.9-.21.63-6.03 5.92-6.24 16.42-24.57 15.73-32.47-.3-3.48-10.9 30.18-30.79 39.4-5.37 1.96-8.42-.52-8.42-.52 7.82-4.5 29.42-25.8 27.38-50l-2.85 8.96c-7.33 23.1-23.07 38.28-35.33 39.54-9.8 1-16.63-2.95-14.2-4.7 12.7.1 23.13-4.29 31.28-16.66 8.28-12.58 11.37-32.79 6.35-54.17-4.52-19.3-5.52-36.64-7.1-55.18 13.9 4.75 27.9 7.92 41.45 2.62-1.36 5.53-3.62 6.21-7.2 10.39-2.59 3.04-1.7 3.77 8.42-3.38 2.94-2.08 4-3.74 4.54-3.19.86.9-.48 6.6-3.43 17.93-4.4 16.96-3.26 18.17 13.03 24.56 3.05 1.2 4.18 2.36 5.24 3.63.5.6 3.17 5.4 3.43 5.57.59.4.44-4.9.1-6.24-.87-3.57-2.8-6.24-4.48-7.3-3.2-2.94-7.8-3.2-10.76-4.55m307.5 221.14.17-17.6 17.1 12.13-.2 5.81zm-29.22 3.83-.63-325.6s13.13-8.73 19.69-13.05c4.1 12.91 4.07 40.6 2.53 52.92-2.57 8.03-3.71 43.75-.8 61.93 2.32 14.5 1.9 38.46-.3 49.93-.85 4.49-.2 25.5 1.42 44.92 1.23 14.86.88 28.36-.92 36.09-1.41 6.09-.92 27.9.7 36.28 2.36 12.32 2.77 51.88 1.7 54.03-2.82 3.19-24.87 3.64-23.4 2.55m26.01-340.75s13.22 8.74 19.6 13.1l.09 14.03-19.1-12.47zM554.03 224.2l8.17.51c3.26 16.96 4.67 36.23 5.97 55.55.4 29.8 4.09 61.22 11.08 81.82l-6 6.3c-10.24-23.6-11.05-60.83-13.33-86.03-1-28.35-5.66-57.97-5.9-58.15m198.93-2.97 17.78 12.04.19 15.25L753 236.63zm-187.13 4.1 7.18.77c2.19 20.13 5.54 33.8 6.8 55.97 1.66 28.68 6.63 52.23 9.72 74.64l-5.37 1.78c-3.6 1.66-9.58-24.81-12.23-78.48-.8-16.24-3.55-34.51-6.1-54.69m10.86.76 8.58 1.54c3.8 50.95 9.79 98.8 16.06 126.23l-7.46.5c-9.25-39.2-9.85-84.55-17.18-128.27m12.4 1.8 7.87 1.37c9.48 116.53 15.33 115.03 17.16 119.61l-8.53 3.46c-9.22-33.49-11.08-80.7-16.5-124.44m35.77 114.47c-1.34 3.92-4.54 3.56-8.03 3.96-3.9-10.71-6.19-23.48-7.82-35.97-3.6-27.46-4.9-53.2-8.64-80.3l9.4.97c-.3.2 6.67 95.55 15.1 111.34M422.58 239.9c12.39.6 22.67 6.16 23.66 14.3.22 1.83-1.23.94-2.9-.35-10.67-8.17-22.8-10.71-37.43-5.44-3.2 1.15-5.81 2.96-7.24 2.7-1.28-.81-1.67-2.8-.7-4.43 3.42-5.71 18.48-7.08 24.6-6.78m-28.72 16.34c.26 12.84-2.86 19.91-9.6 22.88-8.12 3.58-18.54-4.09-13.48-12.66 3.83-6.49 10.41-4.53 11.66 2.28l10.33-23s1.06 7.29 1.09 10.5m377.21-2.06-.11 13.23-19.06-12.73 1.27-12.72zM433 252.47c9.39 3.72 12.84 8.26 13.19 10.28-.54 1.5-1.48.48-8.34-3.22-10.56-6.48-24.32-7.53-36.4.69-3.02.6-3.33-1.12-.31-4.36 9.2-7.22 21.94-7.32 31.86-3.39m71.3-2.48c8.26-.26 18.14 1.84 26.47 6.03 3.7 1.85 7 3 9.4 5.13 1.93 1 2.09 5.36.67 5.7-1.25.17-3.3-.81-6.38-2.96-19.82-12.87-34.08-11.28-45.54-3.36-.63.44-2.6.89-3.38.83-2.19-.17-2.3-1.06-1.39-2.24 5.3-6 13.23-8.89 20.15-9.13m247.66 9.27 19.1 13.34-.02 13.12-20.3-14.11zm-344.74 5.33 2.79.08c6.5 15.75 14.65 7.63 18.04 1.32l3.4.56c-5.32 21.1-26.95 10.05-24.23-1.96m-4.75 2.1c3.16.38 3.05 3.95 4.04 6.55 2.2 5.8-6.16.9-7.6-.52-2.43-2.56 1.02-5.77 3.56-6.03m94.53-.62c8.23 12.53 12.98 5.12 17.68-.34l2.24.71c-.6 9-15.73 18.58-22.92-.14zm25.32 1.42c.88.01 2.65.65 4.28 1.3 4.5 1.82 4.27 3.16-.72 5.38-7.98 3.54-10.75 4-8.36-1 1.37-2.3 2.28-5.34 4.8-5.68m-31.28 1.91c2 1.48 3.32 3.1 3.55 5.76.17 1.87-6.06-.28-6.05-3.26.2-1.9 1.23-3.43 2.5-2.5m-55.18.71c4.09 1.52 3.6 3.47.75 5.24-5.12 2.85-7.31 2.29-4-2.2 1.53-2.07 1.85-3 3.25-3.04m314.82 6.6 20.68 14.54-.19 13.35-20.66-14.08c-.96-5.72-.05-9.57.17-13.8m-357.43 20.65c.98.03 1.37 3.27 1.6 8.01.38 7.88-7.64 18.85-15.75 22.63-9.77 4.55-20.22-1.83-18.47-11.29 1.61-8.72 14-9.08 14.47-1.02-1.2 2.12.48 3.89 1.17 3.7 3.19-.85 10.7-7.6 13.76-15.17 1.19-2.95 1.91-5.98 2.76-6.67a.7.7 0 0 1 .46-.19m356.87-2.46L770.8 310l.1 13.27-20.5-14.1c-.81-5.91-.46-10.13-.27-14.24m-250.78 21c-1.56 2.62-.28 7.32 2.93 3.32 8.23-9.59 20.16 2.4 13.78 10.03-5.8 6.91-12.92 4.69-27.97-1.06-10.96-4.18-12.69-2.76-15.4.27-2.22 2.48-1.08 7.5 1.8 7.44 8.88 2.01 16.57 3.98 25.77 5.9 19.44 3.98 31.3-21.06 13.53-30.26-4.24-2.2-13.03.66-14.44 4.36m-85.78 2.88c-7.58 6.8-1.36 24.65 9.8 26.25 2.33.33 5.82.24 9.78-.9 7.8-2.26 16.41-6.88 16.76-9.57 1.6-12.22-16.6-1.26-19 .19-5.75 3.48-11.82 3.03-14.88-1.1-6.9-9.33 5.46-20.03 12.97-8.62 1.9 2.87 1.23-2-.84-5.32-2.92-4.68-10.45-4.37-14.6-.93m337.94-3.85 19.43 13.73-.11 12.76-18.84-13.57zm1.45 18.7 18.4 13.22.31 13.27-19.3-12.7c.37-4.78.46-9.27.59-13.8m-103.14 7.62c16.17.27 25.3 24.17 16.77 34.11-2.54 2.96-4.56 3.75-5.71 2.65-.25-.24.15-2.91.32-5.93.53-9.64-1.52-16.23-8.57-23.55-5.29-5.48-7.28-7.18-2.81-7.28m-199.17 3.81c-3.06 1.1-6.3 3.3-8.8 2.75-2.47-.53-3.65.69-4.62 2.63-3.7 7.41-2.55 9.81 4.78 5.6 3.49-2 4.7-1.28 14.03.48 6.66 1.26 11.19 1.13 17.05-.39 7.29-1.89 11.63-2.04 15.32-.02 3.68 2.01 6.2 4.79 6.3 2.53-.41-2.65-2.72-9.42-3.25-11.67-.26-1.08-2.07-.13-3.79 0-6.04.44-13.24-5-17.91-2.12-3.73 2.3-4.22 2.9-9.35-.1-3.81-2.25-6.46-.86-9.76.31m194.82 1.67c10.95 9.14 13.76 17.26 12.7 23.91-.54 4.85-.91 10.2-5.65 13.11a13 13 0 0 1-3.4.86c3.69-13.76-.65-26.08-16.14-39.22 4.5-2.23 9.1-1.49 12.49 1.34m-247.04-.03a5 5 0 0 1 1.57.26c1.9.63 2.2 5.6.7 7.16s-2.7.27-4.44-3.68c-1.28-2.15.07-3.73 2.17-3.74m-10.11 3.87c4-.08 5.51 3.58 6.2 6.5.58 2.49-.15 9.9-2.27 7.32-.51-1.57-2.69-6.64-4.43-7.96-3.87-2.94-3.48-5.77.5-5.86m-11.26 3.7q.88-.03 2.25.2c6.24 1.04 11.02 10.98 9.57 16.62-3.3 6.06-4.53 1.97-5.62-3.52-.86-2.28-3.41-5.86-4.98-7.7-3.25-3.83-3.75-5.54-1.22-5.6m375.37-2.9 19 13.63.04 14.58-19.9-13.37c.45-5.1.67-10 .86-14.84M364.7 357.3c9.31.02 17.26 10.84 14.33 21.28-3.65 10.88-21.77 8.56-18.76-2.3.87-3.11 4.2-5.4 7.38-3.44 4.6 2.82 4.09-1.77 1.17-3.4-4.5-2.52-10.7-1-12.07 4.1-4.81 17.75 18.01 23.8 30.43 5.46 4.54-6.7 9.48-13.87 12.2-16.93 2.46-2.75 2.98-2.46 2.58 1.08-1.58 16.5-13.08 37.1-34.65 35.98-20.97-2-27.52-24.23-11.69-38.11 2.67-2.33 5.47-3.48 8.18-3.68zm111.08.9c-7.67 3.72-14.62 5.12-22.17 1.84-5.58-2.43-5.5.2-3.07 2.37 7.01 5.97 19.77 3.27 25.23-.1 1.78-1.08 2.36-4.24.01-4.1m295.7 26.36.07 13.26-21.23-14.21c-.33-3.18.03-8 .73-12.98zM751.03 389l20.2 13.3.55 13.15-19.64-12.18zm1.4 18.43 19.31 13.35.28 14.35-19.12-12.58zm-470.71 15.09-11.82 35.69 7.74.47 5.22 9.41 5.37-9.65 8.14-.62zm471.53 4.76 18.6 12.78.28 13.25-19.33-13.36zm-.76 16.22 19.07 13.78.38 14.08-21.61-14.4zm-426.72 7.97-11.7 38.21 6.6-.9 6.16 10.23 6.24-9.19 5.91.34zm-88.06 2.84-11.14 37.98 7.47-.03 6.3 9.58 5.53-9.25 8.47-.22zm512.3 7 22.38 15.7.18 14.94-21.7-14.53zm22.12 35.5.26 13.09-18.84-13.4-2.05-14.54zm-399.56 2.25-13.68 38.6 9.17.09 5.56 9.27 4.45-9.32 7.37.08zm382.22 3.85 17.47 11.97-.13 13.45-17.2-11.53zM423.63 659.1l-9.96-9.57c-.13-.78 8.14-4.79 13.23-2.24 6.72 3.36 10.17 15.46 2.64 21.82-5.98 5.07-15.12.85-15.3.26zm-8.86-15.78c.17-14.78-7.61-18.57-14.05-21.57 0 0-1.08-93.65-.94-96.45 0 .41-1.64-10.14-1.83-10.76l-1.54-.4c.26 9.5.89 106.8.74 107.44-12.05 1.39-15.42 9.54-16.5 20.5-9.4-.71-15.52 4.94-15.7 5.88-3.48-4.76-.9-11.79-3.63-16.76-8.33 29.12 7.87 46.54 22 44.92 2.27 27.96 33.06 33.01 32.02-.9 37.25-2.19 24.63-36.44-.57-31.9M239.72 525.75l-13.49 37.81 9.46-1.07 3.44 6.97c15.15-13.34 22.8 7.26 15.09-10.4zm512.74 67.29c1.74-.13 4.02 1.43 4.48 3.57.33 6.39-8.25 4.95-8.52.92-.2-2.86 2.4-4.37 4.04-4.5m5.6 41.52c3.7-3.03 9.6-1.32 9.69 3.26.08 4.05-4.57 5.39-8.2 3.11-2.83-1.72-3-4.92-1.48-6.37m.52 11.26c20.28 1.54 35.37-12.24 28.9-22.12 5.45-6.85 1-10.79 2.5-14.71 4.3-4.42.7-13.91-.37-13.94-.89-12.74-4.59-14.37-10.1-21.16-1.65-1.97 3.86-3.9 5.98-7.27-5.6 2.15-11.11-2-11.08-2.96l-2.38-2.96c-37.57 1.75-71.3 4.37-70.02 55.3-5.4 21.61 3.75 40.87 29.96 34.92 5.75-5.13 1.96-12.56 1.26-16.13-2.24-9.82.34-16.2 1.07-20.8 2.23-14.24 12.66-27.46 13.8-5.14 1.82-2.8.96-3.22 3.98-4.38 7.2-2.6 7.19 4.68 5.71 7.61-.94 1.51-2.37 1.38-3.84 1.22-2.1-.25-4.83-1.03-4.87-1.8-.56 2.32 3.8 6.63 3.35 8.8-.58 2.06-.95 1.9.96.53 9.04-6.46 14.7 7.98 1.62 6.33 6.44 3.44-3.09 13.5 3.57 18.66m-13.37-77.73c7.12-.36 8.82-.42 8.5 3.31 1.34 6.9 3.07 10.1 12.07 9.38 9.06-1.18 11.93-1.75 2.81 3.73-4.6 2.03-6.1 2.42-11.56 1.93-5.5-.5-5.08-1.05-8.23.83-1.76 1.05-3.67 2.33-5.1 2.58-2.11.39-5.84 1.2-5.84 1.2-2.12 10.71-5.35 16.1-9.79 21.2-6.27 7.13-9.46 8.38-1.76 7.84 2.85.18 1.37-1.25 2.62 10.3.43 4.04 1.19 8.73 1.79 10.3 2 5.26 2.26 7.88-5.34 8.25-19 1.44-23.43-17.04-20.9-26.49.22-1.48 1.08-6.4 1.27-10.3.1-2.13-.32-3.94-.27-6.12.43-17.61 4.6-22.25 20.24-33.7 4.72-3.45 13.18-4.16 19.49-4.24m16.67.95c8.77-.18 17.25 4.03 13.02 6.77-2.73 1.76-12.6 1.03-15.33-.92-3.54-2.51-2.21-5.75 2.31-5.85M370.93 584l-3.48 6.15-3.63 28.67.65 5.81 7.17 9.4 5.68-9.74 8.92.15zm409.94-2.86c5.68 1.14 5.9 6.32 4.45 9.5-3.17 7.02-24.4 10.42-24.4 10.42-.18-3.01.24-5.91-1.97-9.3 0 0 14.14-3.7 17.14-6.43 2-1.83 3.2-4.13 4.78-4.2m4.2 15.97c2.06.03 3.15 1.52 3.7 4.55.27 1.63-.34 3.01-1.67 4.79-5.39 5.86-20.55 9.92-26.02 8.43-.39-.51.54-6.68.94-9.43 7.3.22 19.56-6.24 23.05-8.34M569 633.17c-7.24-10.45-23.31-8.91-21.59-8.18.12-8.95-1.41-21.24-15-22.55-13.69-1.03-20.73 17.03-15.53 24.68-8.45-3.5-21.13 5.29-21.13 6.11-1.09.04-10.77 25.64 18.54 26.96 2.67 12.08 7.24 17.93 16.61 22.9l.24 98.64 3.3 4.48.3-103.37c15-.67 16.85-17.83 15.74-21.8 6.66.3 12.72-1.04 17.81-4.93l1.76 16.85s3.52-5.94 2.74-9.1c-6.53-96.87 28.52-201.67 74.53-269.6 2.46-2.86 3.21-6.26 4.43-6.29 11.22-6.04 18.3-10.11 18.3-10.11 18.5 8.89 51.54 30.35 51.54 30.35l.54 138.05c-.51-1.36 61.56-6.93 60.63-5.25 0 0-5.44-2.13-5.52-5.76L775.6 212.2l-27.15-17.74s-22.33 14.6-28.58 19.58l.69 190.18-48.1-28.17s.76-6.73.83-8.91c-.77-25.95-13.5-34.66-37.77-26.96-3.25 1.03-5.51 1.93-7.1.6-10.21-29.85-14.81-108.31-14.8-108.31L682.1 116.5l116.13-.64 2.01 443.1 4.2 232.25-59.27 43.16-.86-148.78s-8.5-4.06-10.72-4.33c-.84-.06-1.91 1.8-.4 2.77 2.17 1.39 7.53 3.33 7.53 3.33l1.26 147.46s-23.04 15.5-33.35 21.97c-7.67 4.77-31.97 17-46.36 24.05-5.59 2.74-11.22 4.93-11.74 5.35-19.6 8.43-37.28 14.32-53.62 23.02-11.27 4.6-10.76.09-13.16-3.6-23.53-23.26-53.9-24.63-78.5-13.9-3.82 1.42-8.54 2.65-11.73 4.86-.92.68-2.53 1.45-3.58 1.7a17 17 0 0 0-6.5 3.03c-3.54 2.8-5.9 7.37-7.92 11.9-1.25 2.8-5.01 15.87-5.5 19.75-.1.65 1.25.5 1.3.57.16.23 3.78-15.84 5.21-18.88 3.06-6.5 6.91-10.38 8.96-11 .93-.15 1.74 1.3.47 3.58-2.5 4.54-4.55 14.22-5.16 18.58-.54 4.02-.65 7.24.1 7.39.13.12 3.69-12.18 5.3-16.53 4.16-11.32 6.8-16.02 10.81-18.43 4.12-2.48 5.1-2.13 4.28.5-6.13 11.96-8.65 21-9.85 33.73-.19 2.54 1.1 2.61 2.11-1.59 3.36-13.37 7.97-31.45 18.86-36.85 4.65-2.1 6.71-2 6.22-.5-12.98 16.38-16.22 34.58-16.06 40.44.05 1.96.84 1.57 2.5-2.67 4.4-16.14 10.9-29.87 18.63-36.6 3-2.61 6.62-3.33 9.65-3.71 9.16-1.14 9.47 2.26 1.5 6.9-9.08 5.29-19.59 24.53-20.75 38.97-.4 5 1.37 5.54 2.61-1.13 5.4-28.7 30-47.68 49.73-38.9 8.88 3.96 10.49 9.46 2.76 7.01-15.64-4.94-33 6.14-40.17 21.6-6.47 13.99-6.34 21.33-1.78 40.05 3.1 17.3 9.15 39.39 7.15 56.34-2.15 3.29-8.94-1.36-16.96-2.34-4.83-.91-10.74-1.14-15.8.79-4.4 1.69-6.9 2.11-7.71-.26-.27-.77 3.39-4.49 5.02-6.55 2.6-3.3 1.12-3.82-2.56-.25-1.8 1.75-5.66 5.85-6.72 6.07-2.32.47-2.41-2.15-.54-8.8 6.57-25.84 4.8-26.28-6.46-31.51-11.16-4.25-7.63-6.4-12.57-10.63-3.49 2.73 4.55 15.22 13.64 17.94 7.43 2.24 6.53 6.04 3.27 16.27-3.3 14.31-8.94 33.26-5.68 45.97 6.86 26.7 33.97 26.16 54.74 15.37l2.54 6.81c-17.56 7.1-110.13 13.18-141.32 9.6-2.41-8.43-2.65-10.6-3.62-20.52 0 0 19.27 8.7 28.88 10.21 12.01 1.88 30.5 1.97 35.24-9.09 1.45-3.24-.04-5.98-4.18-4.1-7.62 3.45-20.64 6.01-31.16 5.35-8.83-.54-21.42-4.09-26.85-7.36-2.59-1.56-4.77-4.6-2.74-8.43 1.79-.4 4.15 1.59 5.54 2.3 15.94 8.04 24.68 9.6 35.07 6.52 7.88-2.34 18.5-10.84 15.87-13.25-2.65.93-11.49 8.34-17.58 9.96-12.53 3.33-25.9-1.77-38.92-10.21-4.02-3.48-2.18-6.03 2.74-3.24 19.5 9.82 27.64 16.34 46.3 2.56 4.17-3.09 6.5-2.7 8.94-.82 9.7 8.67 9.66 3.8 2.57-5.22a26 26 0 0 1-4.04-7.97c-.72-2.25-.88-4.51-2.17-6-2.2-2.52-6.16-3.75-10.7-5.75-6.54-2.87-8.71-1.49-3.89.86 8.46 4.13 12.58 8.54 2.08 6.16-9.53-4.26-25.44-1.88-34.45 4.37-7.07 3.45-10.18 7.14-11.85-.66-3.5-16.27-.09-38.34-4.78-66.74-.89-5.4-1.98-8.84-.85-9.58 1.46-.95 5.09 2.55 9.59 8.87 2.05 2.88 6.12 8.41 6.1 7.26.15-6.01-9.2-17.3-16.92-21.74-4.24-2.44-7.12-13.73-2.27-11.25 3.75 1.82 23.23 18.96 26.94 25.06 1.72 2.84 3.18 1.03 1.36-2.3-1.1-2.01-5.68-7.89-10.13-12.23-7.9-7.71-8.8-7.35-7.29-8.92 3-3.13 9.42.9 20.86 11.25 2.94 3.7 6.82 7.05 6.35 5.2 1.17-2.87-10.3-15.19-17.09-18.5-1.27-.79-1.44-1.62-1.33-3.16.65-5.82 13.8 2.73 24.72 12.7 4.09 3.74.7-3.29-4.04-8.06-3.72-3.76-9.72-8.43-13.8-10.03-4.03-1.66-4.28-5.19-1.11-6.66 10.94-.47 22.24 10.71 28.96 19.5 1.86 2.41 3.57 4.27 1.63-.3-6.23-13.76-19.2-21.5-28.18-23.08-7.3-1.28-7.14-7.86-.28-7.12 7.54.82 19.9 7.63 30.37 18.17 3.05 3.07 8.17 10.03 7.12 5.94-.03-1.11-3.24-5.47-6.96-9.67-8.56-8.5-18.52-16.03-29.09-18.27-4.93-1.4-19.59 1.43-19.67-1.1-.04-1.88 1.53-3 6.2-4.56 18.11-6.03 44.62 9.53 59.12 33.45 1.04 1.71 3 2.44 3.12 2.06-7-19.55-28.74-37.27-46.05-40.3-11.77-1.9-23.64 1.1-29.27 9.04-6.35 8.92-3.87 20.85 5.67 19.9 5-.46 4.6-3.3 4.5-3.4-.34-.33-3.24 1.04-5.04.68-6.52-1.28-5.84-13.06 3.7-11.9 10.98 1.34 12.53 18.64.27 22.28-11.32 3.35-15.47-1.81-18.56-7.94-4.54-8.99.33-23.46 8.32-29.01 22.38-15.54 50.68-2.52 66.67 12.9a71 71 0 0 1 17.33 26.45c.93 2.27 2.6 2.13 2-.3-22.48-57.37-89.6-63.57-99.57-19.56 0 0-.34 1.35-6.8-7.83-10.45-14.87-26.08-18.18-45.32-8.04-19.45 7.3-26 11.95-39.49 18.92-1.96.7-14.43 9.3-16.43 7.51-19.1-12.66-35.74-16.98-44.8-26.26.3-1.7-1.3-27.43-1.3-27.43l.44-110.93c.14-1.08-10.1.74-27.16 3.41-45.35 9.05-41.38-14.8-47.38-16.47-3.17-.63-2.94.72-3.8-84.8-.25-24.84-.74-68.5-1.11-97.05-.36-28.54-.46-52.3-.2-52.81.25-.5 2.8-2.69 5.73-4.77 11.05-7.83 17.26-12.57 41.44-31.01 5.47-4.18 6.85-4.89 6.85-4.89 2.78 51.38.3 105.35 1.66 149.52h2.03l-.79-148.32c-4.17-1.1 95.35-59.32 149.88-78.21 1.02-.36 3.57.78 3.57.78 31.3 38.36 113.66 26.74 120.3-19.96 13.65 28.47 73.6 83.79 100.99 17.11 0 0 9.92 19.15 18.44 20.42 19.14 2.54 21.27-.48 63.4-20.92-48.18 73.09-74.74 150.47-78.14 244.19m-25.6-18.22c1.04 3.23 1.4 7.4.5 10.7-1.23 2.57-3.07 2.53-3.07 2.53l-9.32-7.97-9.13 8.46s-5.59-5.63-2.52-13.43a13.1 13.1 0 0 1 23.53-.3m241.07-1.28c5.97-.38 2.9 6.5-5.95 11.15-5.54 2.92-10.14 3.75-12.13 2.7a10 10 0 0 1 .51-7.49c3.77-1.93 14.13-5.33 17.57-6.36m-385.6 12.95c6.64-.16 12.38 4.56 12.6 12.93.08 3.4-1.67 6.79-1.67 6.79l-11.08-8.17-8.46 9.02c-1.45.5-6.63-5.96-3.07-13 2.6-5.11 7.15-7.46 11.68-7.57m160.22 3.84c9.32 4.22 10.94 17.26 1.88 22.28-4.31 2.38-11.1 3.71-14.27-1.11l9.17-10-10.52-8.84c-.41-.41 8.05-4.91 13.74-2.33m223.74-3.43c1.61 0 2.02.61 2.48 2.12 1.31 4.25-2.01 8.53-7.75 9.89-5.3 1.25-4.8 1.87-7.31-2.87-1.97-3.7-2.5-3.55.58-4.73 3.73-1.2 7.71-2.61 12-4.4m-265.1 6.39s-6.63 6.72-9.52 9.53l9.95 10.38c.48 1.26-11.48 6.68-17.76-1.5-4.1-5.3-1.79-15.38 4-18.84 5.93-3.53 14.42-.6 13.32.43m14.26-1.18a10.64 10.64 0 1 1 .29 21.28 10.64 10.64 0 0 1-.3-21.28m-145.43 17.9-9.55 10 10.33 11.23s-8.17 1.33-11.07.79c-14.05-2.63-12.67-19.1-1.8-23.46 4.58-1.61 7.99-1.07 12.1 1.45m-187.34 3.39s1.88 21.16 3.6 28.4c-1.13 8.24-6.47 13.85-8.87 22.32-1.28 3.77-6.1 8.84-7.01 3.53-3.48-6.56-.16-14.67-3.03-19.34-1.45-4.36-1.02-6.87-1.99-11.44-2.12-3.71-3.81-5.47-3.53-8.84-.57-14.96-4.3-12-10.95-10.77-5.47 1.8-12.86 2.53-17.2 5.73-9.4 6.62-4.28 10.42-7.82 20.42.55 4.38 1.63 5.96.85 9.74-3.62 17.86 3.07 16.38 2.87 16.65-2.79 4.1.66 13.34 1.99 12.87 8.17 2 5.21 7.97 7.87 11.14 2.67 3.06 2.53 4.6 13.72 4.88 20.23 1.58 52.38-1.42 59.32-26.09 4.34-34.77 10.67-65.4-29.82-59.2m201.1-3.4a10.27 10.27 0 0 1 10.42 10.11 10.27 10.27 0 0 1-10.12 10.42 10.27 10.27 0 0 1-.3-20.54m-192.24 5.4c3.82-.05 8.33.75 12.03 4.3 7.94 7.62 8.29 14.52 4.76 43.8-.99 8.25-3.9 15.15-7.74 18.16a70 70 0 0 1-24.99 12.25 41 41 0 0 1-10.48 1.01c-3-.02-4.76-1.4-4.98-3.93.66-6.82-6.3-7.48-10.33-7.1-7.2.29-7.93 1.05-3.44-2.43 5.11-3.96 16.92-4.02 19.15-1.7 4.6-4.6 9.4-5.14 15.28-5.83-.87-1.27-2.98-6.38-1.59-9.66 3.05-5.35 8.16-14.78 13.53-18.32 5.31-6.95.8-3.8-2.5-3.69-1.88.07-1.72-.55-2.02-1.8-1.31-5.42-3.2-15.54-3.22-21.57 0-2.9 2.72-3.45 6.54-3.5m-33.85 7.5c2.08 1.85 2.05 4.43-.13 6.34-2.5 2.2-7.45.99-7.57-3.14.33-4.16 5.19-5.34 7.7-3.2m358.46 14.67c-8.62.43-15.72-8.8-12.47-17.99 1.78-2.48 2.55-2.13 2.55-2.13l9.81 8.77 9.42-9.85c7.75 9.36 1.1 20.5-9.31 21.2M163.7 663.4c-.7 2.7.22 5.37.34 6.68-1.7 1.22-8.99 3.34-12.89 5.26-2.7.93-4.67-1.61-4.3-3.94 1.03-4.33 7.4-7.16 12.04-8.5 1.42-.35 3.77-.48 4.81.5m1.6 12.4c2.62-.32 1.85 5.4.86 8.32-.97 2.09-3.86 2-6.46 2.15-4.6.27-10.38 5.56-12.86 4.71-.83-.38-1.41-2.56-1.5-3.94.54-7.63 13.21-10.43 19.96-11.24m13.86 7.95c-.87 1.27-3.68 1.9-6.04 1.24-3.86-1.05-4.45-6.59-1.06-8.49 5.97-1.98 9.56 3.63 7.1 7.25m380.95-12.6-5.22 7.96-7.96-.15 12.85 39.42 5.94-15.4c.8-7.08 1.74-14.15 2.48-21.24zm-169.1 3.32 10.16 8.29 8.72-8.91c6.49 14.45-.99 21.07-8.94 20.9-8.77-.2-18.12-8.5-9.94-20.28m-223.15 14.95c3.22-.62 1.84 8.09 1.4 8.34-2.06.76-10.93 1.92-14.66 5.06-7.95 6.23-11.35 2.43-7.66-5.03 3.48-4.34 16.3-8.3 20.92-8.37m10.11.4c3.55-.32 6.03 3.6 3.87 7.33-2.93 2.73-8.09.73-8.07-3.14-.02-2.42 2-4.05 4.2-4.18m-5.22 22.08c.48 2.03-.22 1.4-3.95 2.5-2.05.6-5.27 1.97-8.63 3.67-4.93 2.48-6.31 3.82-8.06 3.54-1.4-.3-3-.9-3.43-2.31-1.7-5.63 2.87-11.36 13.54-15.3a42 42 0 0 1 7.55-1.63c3.62.01-.25 5.57 2.98 9.53m6.3-8.46c5.16-.08 6.13 6.77 2.27 7.97-9.04 2.34-8.27-7.98-2.27-7.97m-6.36 25.22c1.45 1.39 1.66 3.67.03 4.86-2.98 1.47-14.42.22-14.5-3-.04-2.11 3.78-2.83 7.34-2.9 3.55-.07 5.97-.08 7.13 1.04m516.59 3.5-9.43 12.62 12.65 31.67 11.56-38.35-9.08 3.6zm-533.42 32.55c2.18 97.53 1.81 321.04 1.81 321.04l27.76 18.87 29.23-21c-.3-70.36-.58-118.88-.86-184.02l42.82 23.53s1.32 1.9 1.12 10.7c-2.96 24.3 20.54 40.08 36.14 30.48 6.02-2.52 6.51-2.97 7.78-1.08 3.51 5.23 7.46 27.62 8.12 41.91 1 21.52 6.66 65.41 8.03 65.7l-69.71 118.11-108.66.53-1.25-439.25c5.65 6.65 8.23 11.01 17.67 14.48m404.48-9.4-5.24 7.98-6.3-.01 11.06 40.82 13.4-39.92-7.38-.91zM211.3 1080.85s-13.56 9.73-17.9 12.53c-2.27.85-3.38 1.01-3.91-1.17-.67-2.68.4-7.74 1.34-16.11.88-7.74.87-8.18-.42-19.22-1.34-11.52-1.5-12.01-.41-27.22 1.21-16.97 1.45-33.45.1-43.65-1.27-9.7-1.25-31.82-.27-44.16 1.2-15.12.8-28.38-1.18-39.35-3.53-19.55-4.1-26.29-.43-41 1.37-5.5 2.06-8.43 1.77-17.65-.32-10.25-.51-13.6-4.18-36.29-2.11-13.07-2.28-14.86-.3-35.53.4-4.18.54-6.97 2.13-8.29 1.86-1.55 21.2-2.67 21.2-2.67zm-50.87-315.77 21.07-.23a75 75 0 0 0-2.16 16.4l-18.72-12.3zm.3 8.44 18.54 12.1c.02 5.1-.36 9.96.38 15.07l-18.78-12.47zm.04 19.19 19.83 13.56c.78 5.28 2.4 10.61 3.01 15.36l-22.48-15.21zm641.3 5.34 1.03 389.46-197.4.89-62.57-120.22s.64-11.05 2.18-16.69c1.88-6.83 2.38-8.31 5-8.63 7.02 3.64 14.85-1.21 17.25-6.53 2.94-6.55-3.03-16.47-12.2-18.62-4.04-.96-8.46.86-12.93 4.26-2.59 2.16-3.17 2.41-3.69.53-1.16-4.25 2.61-15.78 9.34-25.68 3.75-5.5 4.76-7.09 5.98-4.99 4.9 8.47 15.41 6.71 19.4 1.93 4.83-5.8 3.82-19-7.11-22.5-21.4-6.84-31.22 14.62-30.95 14.57l-4.59-25.74c25.76-6.3 40.63-8.54 48.81-16.34 6.44-6.15 9.5-16.78 8.71-26.23 0 0 71.55-29.06 105.04-47.1 57.65-31.08 108.7-72.37 108.7-72.37m-108.95 2.82-5.3 9.31-7.5.01 15.18 39.3 11.6-41.03-7.24.64zm-531.42 11.3 22.72 15.66c.5 5.09 1.15 9.62.47 15.38l-23.92-15.82zm443.32-4.82-5.66 7.5-6.52-.68 12.78 38.92c3.89-11.25 7.42-26.52 11.26-37.78l-6.03.28zM161.3 832.17l23.51 15.58c.1 4.8.32 9.33-1.36 12.73l-22.18-14.23zm487.78 2.25-5.71 10.97-7.6-1.03 13.6 37.3 14.85-36.95-9.2.5zm-487.74 15.9 20.39 14.96c.3.22-1.14 6.83-.81 10.57l-19.4-11.95zm.55 18.5 19.01 13.06c.05 4.95.38 9.6 1.16 13.82l-20.63-13.4zm-.32 18.87 21.98 15.64 1.16 12.57-23.29-14.64zm180.9 5.24c21.1 7.86 40.87 47.97 40.26 99.89-.41 36.04 10.47 87.49 10.27 86.9 0 0-6.12.82-7.85-.54-7.94-26.47-10.59-54.43-11.84-77.5-1.03-19.24-2.14-38.12-3.35-42.52-3.47-15.51-7.23-33.61-17.14-45.4-7.72-8.9-16.54-10.44-21.8-.46-4.3 8.18 4.77 21.72 12.3 17.22 1.83-1.03 2.92-2.76.53-2.71-7.83 1.15-13.08-9.66-8.13-14.82 8.72-9.08 23.97 11.15 16.9 22.29-3.12 4.82-11.27 5.66-17.8 3.89-14.5-7.01-18.14-24.19-13.29-35.5 3.7-8.63 11.84-13.78 20.95-10.74m-25.5 5.15c1.71.08.54 3.24-1.04 8.17-3.73 11.82 3.26 30.17 12.96 33.82 2.9 1.99 2.75 2.74.8 3.83-6.32 3.55-17.8-7.1-20.83-18.99-2.2-8.59-1.66-18.73 2.47-23.04 2.26-2.35 4.06-3.6 5.27-3.76zm-155.62 6.97 23.47 15.33c1.09 4.8.6 9.9-.13 15.04l-23.48-16.37zm141.6-.2c1.75-.05 1.1 2.87.61 8.2-1.12 12.31 2.7 21.27 11.4 28.71 3.68 3.15 4.69 4.13 3.1 5.78-2.24 2.33-8.67-.8-13.71-6.06-9.24-9.63-12.3-27.8-5.1-34.39q2.36-2.17 3.7-2.23M563.97 907c10.03-.4 18.5 3.5 19.42 15.74 1.37 17.94-15.35 27.76-27.01 17.46-10.45-10.34.15-26.53 12.26-18.95 6.09 3.84-1.18 12.6-6.1 8.08-2.23-2.05-3.2-.78-1.62 1.58 4.76 7.12 14.15 1.2 13.48-5.07-1.32-12.33-16.47-12.17-22.17-7.34-7.81 6.6-14.69 16.33-19.82 23.42-4.2 6.15-5.1 5.99-4.48-1.6 1.64-20.09 20.4-32.72 36.04-33.32m-273.08 3.92c1.6-.06.97 2.23 1.09 8.13.64 15.16 7.03 24.6 15.13 29.87 2.72 3-.76 5.13-5.86 3.68-11.64-3.59-23.53-28.6-13.67-39.35q2.08-2.27 3.31-2.33m-11.32 4.97c1.61-.1.7 3.24.86 9.56.32 13.31 4.44 19.7 14.33 27.83 3.22 2.64 3.62 2.35 2.36 3.81-3.4 3.9-14.88-1.62-19.77-9.59-5.83-9.49-6.69-23.8-1.27-29.2 1.52-1.51 2.65-2.36 3.5-2.41m-11.27 6.4c1.34.01.6 2.42.8 8.16.5 13.94 3.68 20.84 12.52 27.28 5.56 4.05 6.91 2.84 5.21 4.44-2.97 2.8-11.11.4-17.22-4.76-9.16-7.72-11.72-26.78-4.28-33.3 1.32-1.17 2.27-1.82 2.97-1.81m-106.56 1.97 22.55 15.62-.64 13.2-22.44-15.18zM556.02 949c-9.18-1.88-12.66-8.5-11.54-16 .38-2.52 1.84-3.95 3.42-.68 1.35 5.21 4.81 12.42 9.56 13.82 1.91.57.32 3.22-1.44 2.86m-197.43-15.58c10.36 26.06 10.18 54.54 11.9 81.44 2.27 35.76 8.6 59.85 10.67 63.91 0 0-10.11.11-10.63-1.34 0 0-9.53-47.43-8.1-70.89.1-26.24-5-49.31-8.12-59.68-3.3-9.19-3.45-3.12 4.28-13.44M161.62 943.6l21.69 14.18c-.3 4.85-.35 9.7-.3 14.56l-21.26-15.05zm291.72-1.22c.01.8 3.13 1.46 8.02.28a31 31 0 0 1 15.02.06c4.43 1.22 4.92-.21.9-1.96-1.95-.86-5.06-2.8-9.72-2.72s-14.26 2.63-14.22 4.34m87.87-.54a39 39 0 0 0 3.66 4.87c2.79 3.23 3.58 3.26 2.3 4.58-2.92 3.05-9.06-1.37-9.72-7-.58-4.11 1.47-6.71 3.76-2.45m-194.25 1.1c10.13 14.44 11.62 48.3 11.83 72.38.19 21.67 7.52 61.39 8.12 61.22-2.1 1.23-4.9.8-7.53-.21-2.61-3.4-4.2-12.92-7.23-38.67-.78-6.65-2.31-27.79-2.66-44.82-.3-15.01-8.7-47.52-8.7-47.52s3.27-2.32 6.17-2.37m-11.28 3.6c9.23 20.6 10.73 41.07 11.15 65.9.4 23.48 5.61 50.99 7.58 63.13-3.11.32-6.4.58-7.71-.82-.83-1.14-1.5-2.92-1.9-5.23-4.2-20.3-5.2-42.39-6.4-61.07-1.82-28.94-2.28-36.1-6.38-50.54-2.33-8.19-3.14-8.01-1.4-9.59 1.34-1.2 3.9-1.8 5.06-1.78m103.82 4.75c.25 9.58 1.49 5.68 4.88 4.15 2.54-.22 4.63 1.17 9.37 2.91 6.03 2.22 5.5 2.97 9.73.89 2.62-1.3 4.7-1.73 5.95-.72 4.97 4.03 11.37 1.77 14.97-1.5 2.81-1.47 5.88-.67 8.26-.45 3.43.32 2.54-1.88 2.96-6.2.37-3.86-1.1-4.2-5.08-2.9-4.07 1.33-8.12 1.52-11.66.44-9.04-2.76-15.66-.96-20.14-.26-10.6 1.66-11.16.6-13.56-.92-1.8-1.13-4.75-3.22-5.77-3.16s-.68 3.54.09 7.72m93.96-4.41c1-.51 1.47.86 2.87 2.68 2.35 3.05 3.03 4.5 1.07 4.78-5.2.75-6.5.2-6.32-3.02.15-2.58.72-3.59 2.38-4.44m-208.66 4.55c7.63 7.7 9.57 50.84 10.44 60.13 2.75 50.34 7.53 57.57 5.07 61.35-2.89-.05-3.9 1.02-5.78-1.51-6.54-18.44-6.16-37.39-7.22-56.62-1.49-25.48-4.02-39.28-7.6-51.9-2.38-8.4-2.35-8.54 1.94-10.84a8 8 0 0 1 3.15-.61m-10.29 6.07c2.7 6.11 8.1 33.9 8.83 57.89.58 19.05 5.13 56.29 5.97 56.5-2.78.25-6.11-.31-7.46-2.42-8.33-36.71-5.68-72.31-15.3-109.24.57-1.79 3.61-4.74 7.96-2.73m-152.58 4.52 22.5 16.13.47 13.77-22.96-16.3zm334.4-1.74c-12.7 4.94-16 8.98-14 12.53 1.69 3 6.74 1.95 20.27-3.7 10.11-4.21 13.29-2.38 15.34 4-.1 9.4-9.22 10.5-14.37 9.2-2.21-.08-1.89.12.47 3.07 10.47 8.22 23.32-7.85 16.92-18.03-5.01-9.31-13.68-11.96-24.63-7.07m-79.74 3.82c-10.47 8.23-6.74 23.04 2 25.27 2.42 1.23 6.04.65 7.45-.3 1.3-.86 1.3-2.27-1.38-2.71-8.1-1.35-12.7-7.29-8.78-13.31 3.8-5.84 10.83-4.72 24.36 1.1 11.7 5.05 16.82 3.5 18.2-2.56.61-2.67-.13-5.17-5.74-5.38-15.6-.58-25.96-10.07-36.1-2.1m140.26 22.68c-.7-4.27-7.63.1-12.22 7.66-4.52 7.44-4.99 8.5-5.9.78-1.38-11.5 10.56-20.51 18.02-20.8 8.98-1.03 14.87 3.99 15.1 9.77.45 11.4-13.14 11.5-15 2.59M161.43 980l23.82 16.36s.81 8.77.3 13.48l-23.93-15.3zm286.08 5.5c-10.36 7.02-4.27 19.85 2.98 21.29 7.64 1.52 8.18-3.81.58-5.38-4.06-1.6-5.1-5.47-3.52-8.45 3.63-5.93 10.33-2.1 14.22-.25 8.65 4.12 13.13 5.63 15.86 2.78 4.85-5.06.52-14.07-5.88-10.89-1.73.86-3.04 1.67-6.71.76-5.59-1.16-12.29-2.41-17.53.14m-285.88 13.95 23.43 16.04-.7 14.19-22.02-16.14zm.48 19.5 22.05 15.71a84 84 0 0 0 .06 12.2l-22.3-14.39zm389.83 3.02c17.67 1.73 11.81 22.04-.53 16.55-3.29-2.47-4.28-2.27-7.94 6.63-4.68 11.4-5.82 10.47-5.18-2.69.48-12.89 6.4-20.39 13.65-20.49m-139.28 3.1q.64 0 .96.24c1.2 1.34-2.39 6.64-5.42 9.75-2.24 1.47-7.69-2.5-6.36-4.44 1.54-1.88 7.97-5.26 10.82-5.55m23.59 10.46-3.16.44c-4.77-10.63-14.68-8.19-17.74 1.68l-4.36-.5c4.4-12.1 20.1-19.52 25.26-1.63zm89 2.42-5.35.32c-4.79-11.53-11.58-13.25-17.34-1.86l-4.14-1.2c7.13-14.56 19.04-15.73 26.84 2.74m-26.74-13.15c2.74-.17 2.39 1.09-.46 4.98-2.48 3.39-3.08 3.92-5.57 2.07-4.08-3.03 2.7-6.83 6.03-7.05m25.34.34a9 9 0 0 1 1.82.25c5.51 1.36 8.04 3.97 5.34 7.32-1.68 2.09-3.33 2.91-4.43 1.51-3.73-6.13-5.78-9.27-2.73-9.08m-83.26 3.63c.58 2.28-1.23 3.9-3.24 2-.82-.77-1.54-2.09-1.43-3.06 1.26-1.19 4.27-.21 4.67 1.06m-278.71 7.84 22.66 16.27c.75 5.73.9 10.09.86 14l-23.33-15.45zm330.37 4.93c13.06 8.94 28.36 8.82 37.94.97 2.14-1.76 4-1.83 4.04-.15-1.36 6.27-18 14.31-31.01 9.76-7.14-2.5-13.01-4.99-17.7-11.66-2.79-4.35 2.94-1.54 6.73 1.08m-5.52 4.35c19.08 16.47 34.25 11.89 45.74 3.6 1.7-.43 1.73 1.1 2.11 3.94.48 3.64-2.54 5.44-10.8 7.91-15.99 4.79-34.74-.45-38.12-11.17-.4-2.11-1.2-4.84 1.07-4.28m-324.94 9.86 22.98 15.77-.73 12.04-22.38-15.13zm.37 18.46 21.7 14.7-.07 9.97-21.1-15.03zm157.56 4.68c92.54 20.94 158.13 10.99 222.5-.35l57.02 111.84-343.64.46c22.44-36.35 41.12-76.09 64.12-111.95"/></g><path d="M822.78 1124.01v12.4h9.79l27.88 62.58-26.7 43.71h-10.29v11.09h38.96v-11.09h-12.97l35.71-51.54v51.54h-10.73v11.09H910v-10.82h-11.69v-106.56h11.7v-12.4h-35.58v12.4h10.73v31.47L870 1187.42l-22.75-51.01h15.18v-12.4zM23.33 46.21v12.2H35.8v106.06H23.33v13.13h36.23v-13.13h-9.6v-30.09l14.55-20.16 21.82 50.25H72.39v13.13h39.52v-13.13h-9.44l-28.93-64.6 27.48-41.66 10.19.2V46.2H71.97v12.2H83.3l-33.34 51.15V58.4h9.9V46.2z"/><path fill-rule="nonzero" d="m328.38 111.7 17.13 32 .03 1.51L355 163.7l1.43.92 2.13 4.02.24 1.96 5.28 8.45-.03 1.82 22.42 41.7c18.49-6.9 170.37-19.33 226.61 1l8.2-13.88 1.96-.02 14.44-25.34-.23-2.13 4.87-5.54.7-2.53 15.94-24.94.06-4.02 19.93-33.23zm343.91 4.78s-10.4 20-15.76 28.07c-4.33-3.42-16.9-1.1-16.15 12.15-20.49-7.76-25.43 16.68-9.59 22.18-8.12 7.1-15.9-.93-22.06-6.37-6.03 1.5-18.55 5.92-25.64-7.11 0 0 2.96 1.6 5.92 3.33 16.76 5.1 18.11-17.51 5.65-21.22-1.57-.4-4.53-.58-4.53-.58 4.2-17.39-22.71-23.46-23.22-2.56 0 0-3.2-.52-5.62-.08-14.26 2.6-11 23.63 3.58 22.62 2-.14 3.8.22 3.8.22-.23 3.37-17.88 9.8-30.59-1.78-6.02 4.6-15.56 10.34-28-1.1 8.18-.33 16.02-2.66 15.93-11.93-.06-6.04-5.49-11.43-13.31-11.71-.45-6.75-5.47-13.18-11.99-13.68-7.97.47-12.04 6.9-12.1 13.68-6.77.7-13.1 6.66-11.65 13.51 1.99 9.34 9.19 10.49 17.4 8.7-10 16.07-26.26 7.7-31.27 2.57-5.97 5.57-16.38 13.11-29.21 2.8 6.84-1.17 14.44-5.17 13.15-14.71-1-7.52-9.44-9.75-13.11-9.35 0-4.97-3.75-13.16-12.6-12.31-9.67.92-9.1 13.13-8.98 13.23-7.98-.66-13.76 8.73-11.49 14.71 2.77 7.3 8.57 9.56 19.22 7.6-12.43 11.65-20.32 7.13-27.1 4.68-6 6.29-14.03 8.32-22.25 2.74 18.39.88 15.46-31.62-6.35-19.84-1.88-6.1-4.7-13.6-16.1-11.85l-13.03-25.13zm-421 20.78a56 56 0 0 0-2.87.12c-35.21 2.26-48.22 26.73-46.56 48.41 1.12 14.63 9.1 27.12 20.7 33.9 4.97 3.78 6.02 5.2 5.14 6.98-1.03 2.1-2.42 1.9-5.24-.7-40.3-38.54-97.03 6.74-71.93 56.72 19.95 39.74 75.96 30.54 87.96-14.18.96-3.55 2.5-5.1 4.15-4.12 1.17.69.24 5.3-.7 12.3.06 25.33-26.29 65.17-27.77 66.51l69.09-.06c-15.85-21.63-25.15-42.86-27.07-73.75-.19-9.35 3.3-7.35 6.27 3.25 13.5 48.35 75 47.9 88.94.8 13.02-43.95-35.92-80.68-68.37-51.1-4.66 4.26-7.82 5.05-7.88 1.95-.03-1.32 4.33-6.21 8.33-9.33 8.1-6.31 14.84-18.12 14.9-30.09.16-24.18-17.83-47.94-47.1-47.6zM214.17 343.2h-.08q0 .08.08 0m286.78-194.69a5.5 5.5 0 0 1 2.76.62c2.87 1.47 3.41 4.02 1.66 7.8-.62 1.32-1.5 2.84-1.36 4.24 20.25 37.33 64.89 20.65 69.09 3.3.26-1.1-.25-2.3-.83-3.48-1.71-2.86-1.48-5.2.75-7.15 4.75-4.17 11.56.75 8.8 6.37-.73 1.48-1.49 3.1-.94 5.08 11.46 26.02 34.28 27.98 53.44 17.68-8.82 15.8-43.02 25.47-57.38-12.56-22.92 30.99-59.29 30.4-75.8-4.58-14.84 35.78-59.62 36.63-75.93 6.9-14.83 34-49.25 26.3-59 5.01 31.97 23.13 53.04-1.01 56.82-11.3 0 0-.74-1.21-1.76-2.21-4.1-4.01-3.98-8.74.26-10.61 5.43-2.4 10.51 2.81 7.72 7.93-.78 1.43-1.47 1.74-.96 2.98 9.95 23.18 58.95 29.92 68.87-2.6a7 7 0 0 0-.7-4.99c-2.33-3.88.64-8.27 4.49-8.43m-143.02 13.14c7.72.44 5.57 7.08 4.02 7.58zm286.96 4.14c.05.13-4.77 8.6-4.77 8.6-2.55-4.06-1.89-9.13 4.77-8.6m-26.13 42.86s-4.94 10.92-6.56 11.83c-91.54-23.44-219.26-3.06-222.4-.8l-5.63-10.59c80.26-16.03 160.29-12.6 234.6-.44m-553.87-3.7a22 22 0 0 0-8.9 2.08c-15.92 7.22-17.29 25.48-2.99 39.9 2.28 2.3 4.16 4.48 4.17 4.84.03 1.63-1.59 1.34-5.49-1.02-21.87-13.18-43.22 2.64-34.33 25.47 7.18 18.43 35.54 15.64 39.94-3.95.58-2.6 2.47-4.21 3.3-2.8.7 1.2-1.37 11.18-3.48 16.72-2.78 7.27-4.42 11.08-6.09 14.05-2.03 3.62-2.18 4.81-.6 5.19 2.27.54 27.06-.14 27.05-.75 0-.33-1.05-2.75-2.33-5.4-4.98-10.36-8.77-28.29-6.42-30.33 1.32-1.15 1.76-.56 3.56 4.74 8.87 26.24 41.85 19.91 41.22-7.9-.43-18.92-17.74-27.24-33.35-16.02-3.55 2.55-4.6 2.7-4.92.72-.14-.78.48-1.7 1.74-2.54 19.76-13.36 7.77-43.24-12.08-43m399.23 165.9c-8.83 34.09-30.23 37.55-56.07 41.7-32 5.14-52.87-6.53-62.62-24.34 0 0-45.78 17.3-62.48 27.34 34.73 15.91 80.61 51.15 106.7 91.15 9.3 12.2 8.83 9.44 8.8 36.2-.03 58.02.1 79.6.1 79.6 14.34 2.14 15.12 12 14.34 23.06 11.5-5.08 22.57 1.14 22.52 12-.1 19.94-19.69 14.52-23.76 12.32 6.37 17.59-1.11 24.87-8.75 25.73-9.41 1.06-20.22-3.46-17.07-23.59-10.26 3.99-23.27-3.26-25.07-15.37l-.5-20.52c25.4-47.78-6.49-86.63-36.42-99.4 0 0 8.47-17.5 19.42-22.42 1.12-.34-6.64-11.7-19.67-9.23-6 .12-4.6.08-10.25-7.25-11.16-14.49-16.42-15.48-27.3.02-4.78 6.83-5.92 7.01-11.58 7.13-6.24.13-15.81 4.6-17.86 8.6-.47.92 1.98 1.86 5.23 5.65 4.67 5.46 11.89 12.97 10.75 20.6-24.65 10.03-65.54 54.03-22.55 110.37l-31.09.4-1.48-200.55-21.62 12.03.96 157.09-6.16-2.04a3683 3683 0 0 0-1.86-150.27l-57.02 41.54 2.54 235.55 6.07 1.28c4.5 32.1 68.07 9.65 71.79 12.43l.76 130.89-2.79 6.49 50.6 27.64 46.4-24.06s6.27-1.13 8.61-2.36c19.24-10.14 33.58-7.87 44.04 7 6.45 9.18 7.55 10.54 7.55 10.54 3.9-26.47 27.38-36.23 50.15-29.31 16.74 5.08 39.62 21.77 46.62 42.14 0 0 1.26 3.07 2.5 4.44l.97.42c-.07-.53-1.11-3.07-1.5-4.3-23.49-53.93-89.66-62.2-99.86-18.14l-9.37-13.13 49.27-30.21 67.32 44.3s-3.17 15.57-3.52 22.3l1.16.54c.33-.85.8-4.08 1.1-6.1 1.07-7.36 3.02-13.54 5.67-18.26a24 24 0 0 1 5.5-6.89c4.02-2.33 7.75-2.1 11.83-5.92l-9.83-7.35-.22-23.58 19.76 27.66c6.21-1.43 30.41-8.65 44.76-.66 1.62.5 22.68-5.5 35.78 23.87l63.1-26.2s4.02-2.27 4.06-2.87c-62.92-23.22-126.45-105.42-120.34-106.74 0 0-.17-8.44.3-29.13.52-23.07.24-46.62.63-69.76-21.41-6.84-16.09-24.1-16.09-24.1-12.88 2.83-14.93.33-18.19-1.94l-2.22-21.84c7.72-6.56 12.35-7.18 21.9-5.08 0 0-4.63-9.5-.42-17.3 3.55-6.17 12.99-10.07 20.53-5.72 9.73 6.63 6.63 20.54 5.24 22.48 10.12-4.54 22.5.52 25.54 10.53 1.52-29.6 4.1-62.75 10.04-88.57 10.94-46.6 28.88-95.4 51.34-133.79 3.68-6.4 8.37-12.83 12.15-18.83 3.52-5.35 5.19-8.81 5.19-8.81s-4.8 2.64-9.89 4.06c-7.31 1.98-12.82 3.87-13.66 4.7-5.34 4.5-12.36 7.84-18.1 10.33-20.2 7.87-33.79-3.86-42.18-21.77-4.67 22.75-25.51 42-56.26 30.03-17.38-9.22-22.84-15.11-39.08-39.17-1.37-2.45-4.89-5.28-4.89-5.28m.67 3.72c11.5 22.73 28.7 38.83 45.44 45.27 29.87 9.79 49.57-9.33 55.13-26.9l5.76 9.76-45.23 32.1-68.24-43.38c1.14-1.04 7.25-16.33 7.14-16.85m205.37 1.57-20.26 11.93s-13.45 21.7-17.98 29.89c-23.63 41.74-41.37 87.15-50.62 132.2-3.75 16.5-7.71 46.64-9.04 61.12-2.1 23.11-2 32.6-1.4 53.8l1.59 1.72s-2.49 4.35-4.27 8.02c-4.83 9.98-6.02 15.62-5.72 27.19.67 26.62 16.85 52.1 39.71 62.48l3 1.34s-3.91 10.6-11.02 18.06c-4.75 4.98-5.76 5.22-4.08 7.67 2.33 3.4 9.85 6.36 19.21 6.22 3.31-.05 3.3-.05 9.4 6.6 11.96 13.02 15.54 12.75 26.42-2 3.22-4.38 5.06-5.43 9.78-5.54 6.95-.16 19.62-5.77 19.56-8.39-8.54-3.78-18.45-23.3-16.87-23.5 46.74-24.73 56.65-76 22.51-113.69l32.6-.52 1.2 204.5c6.39-4.24 20.82-13.35 20.82-13.35l-.48-159.14c2.25.43 4.53 2.04 8.89 2.74l1.28 150.47s4.24-1.72 7.93-4.12c18.22-12 53.9-39.76 53.9-39.76L805 560.19h-4.76l.75 231.77-55.35 40.42-.36-144.04s4.37-.66 6-.88c16.2-2.27 23.71-22.93 12.96-36.42-3.82-4.79-1.1-4.45 7.01-6 14.39-1.27 22.36-12.15 18.17-19.9-1.79-3.33.55-2.97 2.07-6.13 1-2.48.81-5.57.38-8-.57-3.21.75-4.63 1.56-6.67 1.27-3.2.04-6.83-2.08-9.83-2.24-3.18-1.63-6.59-1.64-8.7-.1-4.7-1.8-5.37-6.79-9.92-3.77-3.44-.75-4.2 4.8-7.05 8.73-4.5 9.33-20.4-2.28-27.16-6.2-3.62-17.5-3.33-41.98.54-9.28 1.46-20.18 2.44-20.18 2.44s-.08-90.66-.72-137.4zm0 3.2s49.7 29.07 49.31 29.89c-16.7 22.86-78.95 113.95-79.4 224.1-45.65-5.74-64.35 29.96-66.56 29.82-6-134.82 48.71-231.28 76.75-272.22zm-31.35 17.74-.16 3.3-9.85 14.71-.26-14.71zm-15.21 5.12.35 23.7-20.18 15.42-1.17-24.73zm-187.04 5.43 10.37 7.16-.36 23.53-15.62-28.41zm283.87 7.92.08 17.02c-39.79 56.12-60.66 120.22-67.05 201.4l-9.68-.33c2.56-80.72 29.73-154.37 76.65-218.09m-269.46 1.74 24.54 16.04-1.06 26.83-22.28-14.3-2.08-5.48zm148.58 1.15-.1 24.94-18.96 14.07-.88-24.76zm-229.78 6.52c2.81.04 5.06 2.08 5.59 5.97 2.08 16.58 14.7 11.8 17.69 16.77 1.13 1.7-1.55 3.18-10.19 2.49-15.82-1.19-27.37-14-19.28-22.43 2.08-1.9 4.27-2.82 6.19-2.8m109.4 10.7L500.16 449l-.06 27.54-20.55-12.53zm95.64.07 1.62 24.37-22.94 15.25-.82-24.2zm43.66.1-13.17 28.05-76.85 55.3-63.8-41.3-11.82-27.07 74.41 48.54zm-207.26 11.13c20.42-.25 36.1 21.43 41.46 40.42 3.9 12.56 4.5 17.08 4.9 37.02.43 20.3 1.06 23.81 4.87 26.68 2.35 1.77 3.03 1.3 3.32-2.3.67-7.98 10.2-3.06 10.37 5.35.19 9.34-10.1 12.34-17.7 5.16-4.04-3.82-4.1-3.78-5.36 3.73-.84 5.02-6.7 36.5 8.27 44.34 2.82.26 3.5-2 1.4-4.63-4.2-5.27 4.2-11.36 11.03-8 8.27 4.06 7.43 17.38-1.4 22.12-10.1 5.42-23.17-.74-29.27-13.8-4.48-9.58-4.46-22.86.08-42.6 2.1-9.1 3.02-14.88 3.48-21.86.16-2.29.43-4.78.6-5.54.5-2.13-.56-2.23-4.18-.4-9.88 4.98-20.66 1.44-23.32-7.67-3.18-10.9 8.96-22.14 16.45-15.26 2.85 2.62 2.5 5.21-.9 6.9-5.9 2.9-3.87 10.53 2.38 9.02 20.65-6.18 1.77-64.12-21.48-68.13-15.37-2.65-27.43 14.86-16.31 24.23 4.35 3.67 8.78 1.7 7.83-3.49-1.33-7.23 8.27-6.45 11.83.96 5.78 12.06-9.14 21.88-23.08 15.2-25.02-14.86-7.92-47 14.73-47.45m92.59 4.6 20.6 13.84.18 26.89-20.46-12.13zm45.38 2.33.1 24.68-19.87 14.46v-26.27zm53.56 16.18-10.18 28.32-64.16 43.88-52.93-33.19-9.1-26.2 62.35 40.4zm-416.43 2.06-.02 143.4c-20.79.88-32.72 21.44-17.16 40.88l-5.88.8c-14.06 1.92-23.49 9.38-21.62 18.41.57 2.77-.01 5.57-.8 6.95a11.3 11.3 0 0 0 .76 9.75c1.32 2.51 1.1 3.52.36 5.39-1.6 4-1.21 7.1.66 10.15 2.31 2.26 1.67 4.1 1.36 7.72-.37 5.13.55 7.2 3.79 9.2 4.16 2.56 5.72 6.78.98 6.44-2.35-.17-10.63 7.8-10.63 7.8l-.78-230.12zm112.73 18.4c3.72-.01 7.55 4.66 13.05 12.55 3.33 5.65 3.39 4.88 11 4.58 7.76.57 12.5 2.62 14.53 4.97.77.88-1.27 1.12-6.19 6.1-5.1 5.17-5.8 7.23-9.19 13.01-1.22 2.1-3.87 2.29-5.12.39-1-1.54 1.57-6.55 6.4-12.46 6.83-6.58 5.4-7.24-4.52-6.2-6.96.73-7.7.38-10.35-3.85-7.88-15.67-12.07-15.14-19.62.48-2.05 4.38-1.24 4.1-10.17 3.4-7.03-.54-8.77 1.24-4.8 4.93 6.19 5.09 8.6 17.08 8.26 16.94l-4.78.44s-1.46-2.7-2.1-4.4c-1.3-3.45-4.79-8.63-8.57-12.72-5.36-5.79-2.42-8.96 9.55-10.25 6.67-.72 6.82-.8 9.89-5.3 5.4-7.92 9.01-12.6 12.73-12.62m291.04 14.28-6.9 24.46-54.74 38.38-44.52-29.7-5.9-23.01 51.14 32.39zm-188.7 19.38s15.82 30.82 21.56 50.79c5 17.37 11.94 67.67 10.11 70.76-3.89-5.33-16.74-4.13-16.91-4.08 1.08-5.9-3.68-17.77-14.64-20.12zm180.08 11.27L576 559.53l-46.6 33.7-38.47-26.27-5.04-23.28 42.56 28.42zm-270.95 1.34 6.05 2.1 1.14 43.5 46.62 7.75 1.07 7.45-54-8.71a3293 3293 0 0 1-.88-52.09m-23.66 1.3 1.3 50.59c-.5-.17-38.87 5.3-53.55 9.15l.86-6.93s26.67-5.8 45.98-8.03c0-14.14-.1-29.02-.13-43.44zm433.78 9.31s6.34.59 19.92-1.8c35-6.12 44.47-3.64 48.95 7.14 4.88 16.73-13.46 17.14-16.72 6.52-2.09-6.88-9.6-5.38-34.7.57-21.45 5.09-35.05 1.02-34.8-11.14.28-12.5 14.52-13.6 17.35-1.29m-287.6-9.15a7.84 7.84 0 1 1 .24 15.68 7.8 7.8 0 0 1-7.95-7.71 7.84 7.84 0 0 1 7.71-7.97m-113.69 1.38 5.53 1.66s.81 33 .98 33.06c11.89 2.62 36.85 7.3 36.85 7.3l1.32 6.53c-10.45-2.45-43.76-7.9-43.76-7.9-1.04-14.32-.92-40.65-.92-40.65m-40.34.62s.03 26.34-.42 40.48c.19-.12-28.27 4.53-42.72 7.53l1.12-5.29c11.43-2.58 23.87-5.16 36.45-7.8-.25-10.36-.23-33.08-.23-33.08zm20.32 5.67a6.3 6.3 0 1 1 .18 12.6 6.26 6.26 0 0 1-6.36-6.2 6.3 6.3 0 0 1 6.18-6.4m473.5 16.43c3.87 5.74 7.12 5.57 10.93 5.01-.96.28-5.46 2.94-5.2 3.82.13.44-1.9 7.7 1.18 8 11.61 1.11 5.73 13.17 7.12 15.03 3.14 3.57 5.44 5.84 3.29 10.3-1.91 3.97-4.66 3.84-2.53 7.23 4.63 6.96-1.76 8.4-1.2 13.13.39 2.86 1.4 6.77.35 9-3.19 6.7-14.41 10.52-26.9 11.04-1.77.08-.42-2.82-1.25-4.66-3.1-1.95-1.4-5.24-.36-7.39 1.02-2.85 1.03-2.86-.89-4.3-5.32-3.31-5.04-4.84-4.62-7.23 1.16-7.07.07-7.76-2.06-8.8-2.73-1.35-2.36-4.33-1.14-8.16.83-2.64.24-3.3-1.04-5.7-.76-1.41-.99-2.18-1-3.08.38-3.65-2.9-3.64-7.47-.06-3.88 6.69-5.22 15.47-7.65 21.02-1.88 4.26-2.18 8.71.06 18.53 4.3 15.02 1.1 17.52-15.8 14.32-12.7-3.13-16.46-16.7-12.93-33.3.57-2.68.42-5.28.16-7.38-1.38-11.43 1.57-22.4 9.55-29.9 13.32-12.53 19.9-14.44 47.43-12.68 10.77.76 11.59 1.44 11.59 1.44s.05-5.18.38-5.23m-198.25 3.45-3.2 23.28-25.85 18.24c-12.17-9.61-21.57-6.4-30.13 3.88-6.79-3.44-20.34-12.81-20.34-12.81l-3.46-26.4 37.57 26.06zm-274.69 5.52a6.3 6.3 0 0 1 6.37 6.21 6.3 6.3 0 1 1-6.36-6.2m270.35 23.84-1.42 22.42-9.18 6.9-9.25-.94-2.19-13.89zm-270.52.18a6.34 6.34 0 0 1 6.41 6.22 6.3 6.3 0 0 1-6.23 6.37 6.27 6.27 0 0 1-6.36-6.19 6.3 6.3 0 0 1 6.18-6.4m25.35.7a6.27 6.27 0 0 1 6.36 6.18 6.3 6.3 0 0 1-6.18 6.39 6.3 6.3 0 0 1-6.39-6.2 6.3 6.3 0 0 1 6.2-6.37m-50.38 1.2a6.3 6.3 0 0 1 6.38 6.2 6.3 6.3 0 0 1-6.18 6.4 6.3 6.3 0 0 1-6.4-6.22 6.3 6.3 0 0 1 6.2-6.38m468.03 1.02c1.77-.14 4.4 2.49 3.12 6.43-1.7 4.5-.5 6.02 2.35 9.66 2.4 3.09 1.98 3.52 1.62 5.49-.56 12.94 7.78 7.35 4.16 16.76-.79 2.04.26 4.97.62 7.38-.81-2.21-16.15-2-17.45.24-2.19-.32-4.96-14.73-2.75-16.63.29 0 1.88 2.47 2.7 3.86 2.06 3.5 2.5 3.37 1.87-.68-2.55-16.06-1.02-32.41 3.76-32.51m-392.24 1.12a6.3 6.3 0 0 1 6.38 6.2 6.3 6.3 0 0 1-6.2 6.37 6.27 6.27 0 0 1-6.36-6.18 6.3 6.3 0 0 1 6.18-6.39m-101.94 1.16a6.3 6.3 0 0 1 6.37 6.2 6.27 6.27 0 0 1-6.19 6.37 6.3 6.3 0 0 1-6.4-6.18 6.3 6.3 0 0 1 6.22-6.39m246.8 1.82 18.86 12.24c.31 3.85-.19 9.37 1.08 11.25-12.3-1.15-18.54 5.86-18.54 5.86zM301.8 612.48c20.64.15 40.64 3.44 59.21 9.45l-1.46 6.65a236.5 236.5 0 0 0-118.37.44l-3.09-6.99a210 210 0 0 1 63.7-9.55m-116.7 9.03c5.4-.1 10.93 1.92 14.82 6.29 7.32 8.2 3.8 23.4-6.54 28.23-15.48 7.23-31.6-8.23-25.03-24.17 2.73-6.61 9.79-10.23 16.74-10.35m383 1.94-.25 6.67-4.7-3.92zm-98.49.3a12.38 12.38 0 0 1 .37 24.73 12.36 12.36 0 0 1-.37-24.73m-284.17.4c-1.66.03-4.42.7-5.69 1.87-3.29 3.03.02 3.12 4.37 3.92 7.72 1.42 9.85 8.07 9.15 15.25-.64 6.53 1.56 6.43 3.32 4 7.2-9.86 1.06-24.24-11.15-25.04m358.49 3.29c-.16.08-.34.2-.34.2q.13.09.34-.2m-244.12 3.88c9.25-.19 10.21 15.01 2.05 32-2.46 5.1-3.71 4.46-6.41-3.25-6.64-19.01-5.2-28.55 4.36-28.75m21.38.44a6 6 0 0 1 4.93 2.2c4.97 5.67 1.14 14.84-12.1 28.95-3.22 3.43-4.88 4.74-6.06 4.77-3.31.06-3.3-.49.46-12.74 1.66-5.4 3.3-11.33 3.65-13.17 1.1-5.88 5.2-9.81 9.12-10m-33.45 13.58a139 139 0 0 0 3.5 13.02c1.02 2.95 1.7 5.76 1.53 6.22-.82 2.27-6.72-.81-10.93-5.7-8.5-9.85-11.87-18.42-10.12-23.02 2.58-3.68 9.16-5.32 12.2-2.1 3.12 3.33 3.59 10.45 3.82 11.58m58.48-9.8c8.94 5.27-1.36 17.31-21.4 27.3-8.58 4.28-7.97 2.35-1.47-6.08a89 89 0 0 0 7.45-11.7c3.6-7.09 7.2-14.19 15.42-9.53m-89.3.05c2.85-.03 5.76 3 11.14 10.8 2.4 3.48 6.3 8.42 8.67 11 2.37 2.57 4.23 5.13 4.15 5.68-.93 5.47-28.83-11.85-30.84-19.14-.68-4.44 2.8-8.42 6.89-8.34m399.3 15.85c5.04 10.35 5.47 16.78 1.31 19.12-5.91 3.32-13.52-1.75-13.68-9.1-.05-2.48-2.6-11.12-4.92-16.73-1.92-4.61-2.18-7.46-.6-7.69 6.16.99 15.3 9.54 17.9 14.4m-33.4-7.85c-1.94 5.92-4 15.15-3.98 17.84.01 1.06-.63 3.22-1.4 4.8-5.1 10.52-17.2 1.94-12.75-9.04 4-9.91 14.2-20.22 18.23-20.57 2.75-.23.18 6.1-.1 6.97m8.15-5.67c2.01-.2 3.7 4.2 6.3 11.62 3.53 10.02 3.38 17.83-.4 21.16-8.14 7.13-16.67-3.22-13.39-16.24 2.63-10.4 5.2-16.32 7.49-16.54m-272.72 1.83c10.11 148.92-66.22 263.49-71.66 266.61l-25.98 14.2-45.57-24.82C262.26 831 290.5 756.8 292.62 670.62c43.69 4.24 66.15-30.71 65.63-30.87m250.33.47c3.18-.87.96 1.91-2.2 6.47-3.38 4.86-7.75 18.09-11.22 20.2-7.8 3.75-16.6-3.39-11.89-9.59 4.36-5.7 17.15-14.84 25.3-17.08m46.34 1.01q1.85 0 6.83 2.42c16.22 7.92 24.22 18.37 17.28 23.37-4.88 3.5-10.08.79-14.95-8.45a84 84 0 0 0-6.69-10.37c-3.65-4.67-4.5-6.96-2.47-6.97m91.2 5.3a18.85 18.85 0 0 1 19.13 18.58 18.88 18.88 0 1 1-19.14-18.58m-5.74 4.9c-12.26 5.44-8.57 24.7 2 27.48 4.46 1.25 9.9-.61 7.66-2.76-13.97-4.38-14.06-14.67-8.43-22.2.9-1.22-.3-2.92-1.23-2.52m-510.9 26.5c-.48 10.87 1.88 23.5-3.32 35.31-7.88 18.16-33.18 26.46-46.7 24.84-2.82-1.15-6.1-2.25-8.88-1.07a7 7 0 0 1-5.54-.21c-1.73-.8-3.39.25-5.06-.36-1.96-1.32-5.17-4.33-4.79-6.56.61-3.16.37-5.5-3.32-6.53-5.11-1.43-6.15-4.2-4.65-12.3.33-1.74.72-2.53-.41-3.3-3.77-2.52-5.2-7.19-2.73-12.1 1.61-2.84 2.86-4.84-.04-7.1-1.14-2.59-.94-3.57 1.52-6.88 2.63-3.14 3.1-3.5 1.4-6.19-3.79-6.03.5-10.48 5.61-12.97a71 71 0 0 1 20.02-5.08c2.69.15 2.57 2.5 4.18 4.78 2.38 3.7-.97 9.04.97 10.93 2.79 1.3 4.06 3.87 3.84 6.07-.1 5.13.21 6.88 1.6 9.03 1.54 2.37 2.11 6.74.68 9.7-1.28 2.65-1.14 2.47.54 4.03 1.66 1.54 2.48 9.27 1.9 9.12l7-.64c-.73.78 2.64-14.45 10.64-26.23-.44-9.23-3.96-17.72-3.64-29.9 17.33-6.2 29.84 8.52 29.18 23.6m269.16-20.73c2.5 1.96 14.93 5.42 15.38 5.02-.39 5.95 3.23 17.5 16.18 21.36.15 16.58.02 93.11.02 93.11-18.04-30.21-29.2-69.21-31.58-119.5m-301.6 2.7s.68 2.21 1.32 6.47c1.1 8.71-.1 9.9-2.41 3.95-2.71-6.97-2.85-1.54.2 14.41.74 3.87.71 4.76-.24 7.37-.59 1.63-1.65 5.43-2.48 8.4-2.44 8.77-3.86 11.28-6.37 4.31-1.27-3.55-2.34-4.1-1.43-6.89 1.14-3.48.86-6.1-1.43-9.48-.37-.56-1.2-1.83-1.34-5.43.7-8.09-2.9-8.16-3.6-10.25.12-3.17-1.36-10.84.81-10.63 1.8.17 8.29.35 11.36-.78 1.36-.5 5.6-1.44 5.6-1.44m268.79 1a12.12 12.12 0 1 1 .34 24.24 12.12 12.12 0 1 1-.34-24.24m-187.23 7.39 9.2 1.74c2.03.68.55 127.37-73 218.81l-.64-21.18c35-50.65 60.2-112.76 64.44-199.37m155.81 2.66 1.68 30.27c-5.17-4.4-18.31-12.64-18.21-12.81l.05-11.2c.02.03 11.3.87 16.48-6.26m-70.83.42c2.22.93 4.15 3.08 6.05 4.62l-6 4.05zm210.53 1.52c39.67 11.77 78.74 11.43 117.37 2.82l2.64 7.41c-41.91 11.36-83.57 10.7-124.96-2.5zm-192.15 5.67 2.12 13.05-22.39 14.5 1.1-19.83 11.66-7.56zm198.22 10.87a6.56 6.56 0 1 1-6.45 6.64 6.55 6.55 0 0 1 6.45-6.64m101.93.54a6.57 6.57 0 0 1 .18 13.11c-3.62.05-6.57-2.85-6.62-6.47s2.82-6.59 6.44-6.64m-190.92 20.36c2.93 10.34 2.3 33.71-1.48 49.57-1.14 4.76-1.83 21.65-1.83 21.65-.7.89 22.47-19.18 29.93 7.13 2.56 9.05-7.85 17.62-14.82 15.11-1.36-.49-.95-4.96.35-7.6 3.86-7.87-7.16-11.96-13.43-4.98-14.51 16.1.41 56.9 23.15 60.85 18.9 3.3 34.03-15.5 21.43-26.7-5.51-4.9-14.33 1.85-10.3 8.09 4.32 6.66-3.62 9.31-9.62 3.14-10.47-10.77 1.28-26.97 17.1-23.22 25.27 5.74 20.07 45.26-6.43 47.48-20.27 1.7-33.91-7.12-42.48-22.78-8.06-15.04-8.65-27.03-4.97-53.41 2.2-15.66.4-28.86-3.96-28.77-2.39.05-4.25 1.2-4.62 4-.78 5.74-1.44 6.81-5.03 4.73-4.56-2.65-7.1-11.17.36-16.94 7.65-5.9 17.56 3.32 17.16 4.9.18-.28.95-1.78 1.98-8.5 3.34-21.85-4.08-44.94-13.25-41.24-2.02.81-1.77 1.72.86 3.2 6.1 3.44.72 12.24-6.95 11.35-10.87-1.26-13.33-16.41-3.76-23.12 15.07-8.13 27.35 4.6 30.6 16.06M417 692.12s19.27 11.75 20.3 14.77c.65 1.94 1.43 18.8 1.43 18.8l-33.44-20.94-47.97 29.65c.8-6.5 4.24-23.26 4.24-23.26l25.5-16.14c.14.97 17.65 12.54 29.94-2.88m239.49 1.12a6.57 6.57 0 0 1 6.65 6.47 6.55 6.55 0 0 1-13.1.2 6.56 6.56 0 0 1 6.45-6.67m-51.06.1a6.56 6.56 0 1 1 .22 13.12 6.56 6.56 0 0 1-.22-13.12m25.67 1.48a6.55 6.55 0 1 1-6.45 6.65 6.55 6.55 0 0 1 6.45-6.65m-64.26 9.3c17.36 3.6 34.78 7.32 51.43 9.14l.68 51.11-4.87-.28-.7-45.66c-16.08-1.16-31.25-4.6-45.5-8.3zm129.15 1.65-.9 6s-30.05 5.21-45.75 7.24c-.25 10.28-.22 44.66-.22 44.66l-6 1.1-.03-52.03c17.82-1.94 35.62-3.94 52.9-6.97m-290.77 2.89 35.38 23.38 4.16 24.78-41.24-27.4s-37.38 25.16-51.37 34.49l4.26-23.36zm163.3 4.62c14.24 3.01 28.48 6.15 42.73 7.37l.6 41.12-6.56-1.74-.51-33.38c-11.13-.96-22.55-3.11-34.03-5.54zm125.99 1.22-1.2 5.59s-22.8 3.43-34.56 5.54c-1.04.24-.66 36.2-.66 36.2l-5.63.86-.66-41.98zm-63.85 4.6a6.54 6.54 0 0 1 6.63 6.47 6.54 6.54 0 0 1-6.45 6.65 6.55 6.55 0 0 1-6.65-6.45 6.6 6.6 0 0 1 6.47-6.66m-225.98 14.83 41.82 28.23s4.85 14.7 5.9 22.84l-48.14-31.07-60.22 39.92 6.97-24.67zm-253.48.86c2.48.03 4.96 1.7 6.24 5.5 1.82 5.37 5.2 6.96 14.12 6.8 17.5-.94 35.83-9.16 52.35-2.99 8.02 2.96 10.88 14.8 4.16 17.88-7.3 3.34-10.4 1.24-12.93-4.49-2.33-2.43-5.24-2.05-20.92.64a293 293 0 0 1-21.88 2.69c-17.48 1.4-27.13-4.1-29.31-14.5-1.39-6.65 4.04-11.58 8.17-11.53m479.1 9.55a6.54 6.54 0 0 1 6.65 6.45 6.57 6.57 0 1 1-6.64-6.45m-128.13 7.99a8.54 8.54 0 0 1 .24 17.05 8.52 8.52 0 0 1-.24-17.05m-97.44 5.96s34.42 23 50.35 33.62l8.81 25.3-58.61-38.12-71.73 46.67 8.6-26.03zm248.49 7.91c3.11 8.41 8.78 14.82 14.77 21.32 0 0-3.34 6.32-15.24 5.95-6.5-.2-6.84.81-9.07 5.22-3.64 5.59-6.6 9.24-8.97 11.05-4.16 3.21-11.98-1.58-18.41-11.33-2.35-3.55-3.32-4.39-10.4-4.24-10.85.22-14.78-2.79-9.14-7.67 4.92-6 8.45-12.58 12.85-18.88l4.89.56c.2.73-3.8 12.82-9.43 17.74-2.86 3.23 1.14 4.4 8.13 2.92 4.42-1.33 5.56-.8 8.84 5.97 6.84 12.93 10.4 12.3 18.5-.8 2.84-5.85 2.73-6.43 10.51-4.75 8.36.84 10.88-.2 7.45-3.12-6.94-5.89-10.77-19.78-10.77-19.78zm-248.19 17.32s62.25 40.76 62.09 39.88l12.47 29.38-73.05-48.58-89.25 58.03 13.35-29.08zm2.4 26.76 21.71 14.28-.06 25.68-22.16-14.9zm-5.56.74.4 25.35-19.46 11.6-1.08-23.8zm-24.68 16.34-.18.98.46.24.16.02.7 22.84-22.38 15.52.08-25.8zm57.31.28 20.4 13.61.84 27.2-22.14-14.5zm25.18 16.6 20.47 14.21.72 27.15-20.9-14.08zm-108.28.1-.1 25.08-20.35 14.21-.97-25.62zm215.33 32.37c-4.04 4.21-5.53 3.69-8.99-3.27-3.59-7.2-8.97-10.58-16.77-10.44-9.85.17-3.41-6.29 7.02-7.05 18.04-.8 27.2 11.3 18.74 20.76M325.4 862l.54 25.17-20.26 10.53-.62-11.93 10.43-18.24zm-26.13 33.64.7 4.58-3.74 1.44zm349.34 63.02q-.08-.01-.08.07h.24zm.16.07c2.61 1.73 25.92 35.52 27.55 72.04.9 9.67-3.28 11.51-5.37 2.32-3.4-14.96-12.8-28.05-25-34.86-61.68-22.85-88.03 54.55-47.37 85.85 14.47 10.47 42.38 9.29 52.19-5.18 3.05-4.51 6.14-4.07 6.53-1.23.19 1.42-.52 2.39-4.29 5.77-15.25 13.68-24.36 33.04-19.51 47.2 6.42 18.81 23.97 31.82 44.22 34.8 21.72 3.19 44.31-12.1 50.97-31.97 6.1-18.22.73-33.59-16.18-48.93-7.95-7.21-8.35-7.79-6.7-9.51 1.6-1.67 2.64-1.26 6.58 2.54 12.15 11.74 34.8 18.05 49.73 11.15 23.9-11.04 34.17-48.25 17.82-72.6-9.9-19.81-36.86-27.19-59.4-16.25-12 5.84-22.58 19.46-25.72 33.12-1.42 6.14-4.95 7.25-5.47 1.72 1.66-22.22 4.78-36.77 29.17-75.91zm205.28 38.15s8.88 18.34 10.21 28c.97 7.11 1.12 9.99-.83 10.03-.61.02-2.15-3.42-2.74-6.1-4.76-22.01-36.72-21.66-41.36.33-4.7 22.36 15.52 38.21 33.18 24.29 7.25-4.99 7.6-2.7.42 4.58-13.85 13.86-7.75 33.24 9.67 38.4 23.67 7.02 38.24-21.84 18.15-40.18-2.56-2.64-4.89-5.27-4.9-5.82-.03-1.41 1.72-1.53 3.1-.07 11.52 12.1 34.74 8.36 38.3-7.14 6.68-29.08-30.87-41.5-41.2-15.52-2.53 6.48-2.14 7.38-3.44 6.13-.73-.7-.53-3.38.27-7.03 1.63-7.36 12.14-29.69 12.14-29.69zM543.09 1077c-85.26 18.24-167 11.8-225.66.94l-26.8 45.81-1.85-.09-6.9 11.86.74 1.36s-22.28 42.74-31.66 56.22c109.58-1.06 350.08-1.59 350.08-1.59l-14.65-29.47.8-.8-14.48-30.76-4.7-5.33s-2.87-5.56-5.03-11.53c-1.97-5.5-10.46-20.54-10.46-20.54l-1.2.1zm-222.58 6.45c1.13.89 109.21 21.26 221.24.34l6.12 10.25c-98.05 22.57-239.9 1.01-234.3-1.08zm1.86 20.16c9.89-.35 19.9 4.96 26.65 13.81 2.15 2.82 5.67 11.13 5.67 11.13s4.72-7.83 9.36-11.75c7.02-5.93 16.12-10.88 29.3-10.41 12.12.43 25.46 6.99 37.5 25.97 3.05-10.95 42.89-48.14 75.7-1.76 3.76-12.33 21.32-36.94 49.75-19.75 1.94 4.16 3.94 8.73 3.94 8.73-16.78-11.75-44.44-3.86-50.98 14.48-.6 2.23.15 3.39 1.01 5.56 8.65 12.36-13.85 12.07-7.18 2.07 1.25-2.28 1.35-4.15-.64-7.13-5.28-7.91-21.16-17.75-32.81-17.5-13.46.3-28.37 9.23-33.36 17.33-1.84 3-2.25 6-.64 8.62 1.17 2.63.78 4.85-1.2 6.47-4.63 3.79-10.46-.59-8.23-6.21 1.47-2.48 1.24-5.52-1.76-9.73-6.03-8.47-20.1-17.39-32.35-17.14-17.53.4-35.24 13.03-34.11 23.42.49 4.57-.76 6.27-4.49 5.75-4.53-.64-5.05-4.92-1.84-8.41.48-1.12 1.25-3.83-.22-5.81-18.5-25.03-46.22-17.73-52.57-12.12 6.17-10.58 14.78-15.31 23.5-15.62M305.9 1121c6.94.06 14.42 5.3 16.8 9.4 1.71-1.77 17.42-9.27 25.06 1.44-20-1.5-20.25 19.72-5.47 21.77-6.74 20.47 23.48 21.71 21.56 2.48 22.58 3.34 19.8-25.28-1.46-22.26 11.14-8.11 18.72-5.49 32.1 3.8 4.49-5.86 22.84-11.33 27.34-1.1-21.02-1.3-17.44 23.05-1.74 23.26a11.58 11.58 0 0 0 21.46-2.12c19.6 1.37 16.76-25.11-2.02-22.92 1.4-4.82 20.46-6.9 28.89 2.3 7.74-7.06 16.29-11.91 31.73-1.8-21.05-3.51-21.32 23.82-1.77 22.18-1.82 18.1 25.82 18.4 21.2-2.5 21.05-5.68 9.48-28.21-5.98-22.01 6.88-8.17 18.56-4.32 23.2-2.65 14.33-16.4 26.8-2.69 26.8-2.69-24.92-2.6-19.5 32.93 4.8 20.04-.03 7.31 3.1 13.64 13.03 14.68l11.79 24.4-334.14 2.2 18.43-32.42c1.87.58 12.53 1.55 14.81-10.94 21.96 6.96 23.44-18.6 7.03-22.64a11 11 0 0 1 6.55-1.9m-13.03 9.24c2.18 3.51.35 5.8-3.41 5.89 0 0 2.45-3.55 3.4-5.89m274.9 4.53 2.16 4.54c-2.35-.95-2.63-1.95-2.17-4.54"/></svg>