<svg xmlns="http://www.w3.org/2000/svg" fill-rule="evenodd" stroke-linejoin="round" stroke-miterlimit="2" clip-rule="evenodd" viewBox="0 0 934 1300"><g fill-rule="nonzero"><path fill="#131f67" d="M123.56 103.9c.36 329.68 3.86 734.85 4.1 1093.93l682.15-.16-4.54-1092.19zm201.64 7c117.7 3.19 236.1-.27 354.68.66 0 0-43.09 75.03-56.14 98.65-2.86 5.19-3.15 8.86-1.6 11.02 2.37 3.33 2.18 8.96-.49 12.22-1.15 1.4-1.67 2.3-1.75 3.14s.66 1.75 1.27 3.26c2.1 7.2-3.34 12.17-9.03 14.48-3.82 1.55-12.33 2.57-18.6 2.27-39.35-1.86-116.51-35.11-148.31-37.7-22.06-6.17-50.58-4.01-74.07-2.68-4.44.27-3.66-10.08-3.66-10.08-3.7-34.16-27.9-63.9-42.3-95.25m361.07 3.12 111.22.12.5 17.96-46.8 47.97c-4.4 4.48-7.88 8.2-7.88 8.2l-.29 43.28c-31.9-17.14-38.26-37.62-44.08-60.15-53.33 39.34-55.83 125.44 2.4 169.76.47-19.25 15.14-57.08 41.14-59.89l.36 149.97L710.86 400l-69.52.9c11.46-18.6 11.72-33.36 4.3-50.8-12.5-28.48-31.78-93.5-30.3-93.28 0 0 .55-1.4 2.13-1.75 5.76-1.28 9.43-6.84 7.78-13.53-.31-2.15-.3-1.65 1.16-4.45 5.66-9.65-1.08-20.13-1.08-20.13zm-368.87.9 41.73 75.45s-.54 3.45-.32 5.49c.33 2.92 1.3 5.52 2.98 8.24a17 17 0 0 1 2.17 6.54c.4 3.74.4 3.74 5.9 8.69 1.14 1.03 1.36 1.67.94 2.75-1.82 4.58-.76 13.95 2.83 25.14 4.53 14.13 5.7 13.95-2.74 32.84-1.75 3.95-3.88 9.22-6.17 14.06-10.41 21.4-12.02 27.2 5.85 38.6 5.04 3.2 6.5 5.99 5.25 12.38-.99 5.04-1.19 8.25 1.23 11.09 1.57 1.83 2.99 2.14 2.6 3.55-.27.97-1.44 5.15-1.05 8.67 1.05 9.48-9.9 23.45-19.89 28.34-2 1.42-2.57-.31-3.7-2.3-10.35-18.12-36.12-10.77-37.83 10.85-.45 5.72-.27 8.2-1.75 9.41-.5.41-2.01 1.27-2.01 1.27s-38.57 25.08-63.1 37.97c-1.6.84-3.03 2.22-4.16 2.45-1.3.26-2.27.03-3.07-.78-9.06-17.22-4.04-37.56-3.26-44.77-.2-2.56-2.38-3.02-5.68-3.06-5.57-.06-13.6 5.6-15.34 10.86-1.48 4.48-2.43 7.38-3.78 7.36s-2.01-1.82-5.37-8.28c-6.99-13.44-8.06-15.15-14.6-22.95-5.21-6.23-9.66-7.05-14.76-2.41-3.55 3.22-3.44.42-6.46-1.21-5.21-3.55-13.06-.37-13.25 4.62-.16 4.2-.2 7.35-4.45 7.63-4.72.3-6.78 6.41-5.44 15.12.7 4.59.83 5.32-.57 7-4.58 5.48-5.17 9.26-2.65 16.91 7.17 21.81 17.56 36.49 27.32 56.32 0 0-24.8 14.08-39.53 22.26l-.39-405.71zm482.18 21.57.58 352.43-53.26-52.35s-1.03-67.53-.98-95.15c.05-27.6.45-55.22.34-60.35s.28-26.99.44-49.42c.35-46.99-3.95-41.18 4.8-50.2zM695.5 178.73l2.93 8.5c-22.31 12.8-49.61 84.05.5 136.37l-1 10.78c-52.53-47.66-42.81-116-2.43-155.65m3.82 10.06c7.66 15.8 16.38 29.8 28.26 38.37-6.4 15.27-9.16 32.12 1.69 54.84-7.6 4.18-18.17 15.25-29.1 37.94-39.56-39.96-30.75-97.9-.85-131.15m-294.25 29.86a233 233 0 0 1 65.78 9.94c13.23 66.86 36.46 111.82 36.36 138 0 0-1.83-.3-5.73-3.11-9.56-6.9-22.1-3.05-28.82 5.73-6.37 8.32.05 19.9-3.22 24.76-6.17 9.05-22.07 25.79-24.73 25.24-1.94-.4-1.63-1.25 5.18-11.7 7.1-10.9 12.55-20.77 10.2-23.18-1-1.02-1.52 1.14-6.82 10.34-12.43 21.59-23.36 34.94-27.7 33.2-2.02-.8-.97-2.6 8.23-14.76 10.4-13.73 13.29-22.32 12.25-26.12-.8-2.92-2.4 1.8-6.71 10.23-4.6 8.93-12.91 18.89-19.63 28.44-2.13 3.46-4.87 5.46-8.37 7.04-2.6 1.13-6.73 2.96-9.13 2.66-1.24-.16-.39-.89 1.3-2.54 13.27-13.65 24.67-28.88 31.14-43.5 1-1.92-.43-4.65-2.07-2.63-9.92 17.46-23.73 39.24-38.74 48.85-3.21 2.06-8.06 3.8-12.42 3.44-7.4-.22-4.78-1.86 1.95-6.18 14.39-9.24 34.58-35.83 37.85-45.23.77-2.22-.1-3.5-1.51-3.34-11.84 18.95-27.49 39.79-45.68 48.51-9.8 4.7-22.15 5.63-28.24 2.66-4.45-2.18-3.33-2.93 4.57-3.44 19.02-1.88 41.3-19.73 52.33-38.62 6.46-10.46 1.93-8.05-5.45 2.03-12.6 17.22-37.59 33.73-53.1 32.42-15.67-.93-24.7-13.07-22.68-23.49a18 18 0 0 1 14.46-14.56c15.02-3.15 24.84 20.64 11.1 25.12-4.68 1.53-6.46.37-4.77-1.5 10.2-4.47 5.67-16.72-2.93-17.97-5.41-.78-11.68 2.86-11.94 11.25.15 6.25 5.3 12.36 15.62 12.5 12.24.18 31.02-8.63 42.42-24.85 8.08-12.4.64-8.21-5.4.06-5.32 7.3-22.5 17.5-23.8 17.13l.58-8.4c.26 1.45 26.45-16.48 24.91-29.83-.98-9.69.44-12.65 10.52-12.53 7.54.1 17.13 2.74 19.92 6.2 2.87 3.42 6.09 4.5 4.66-1.27-2.3-9.36.46-10.9-4.97-9.13-3.74 1.22-7.06-1.78-10.82-4.45-4.13-2.93-9.35-4.18-15.58-3.96-4.66.17-6.76-.11-6.02-4.5.53-3.1 1.12-5.92.23-7.95-1.46-3.3-7.3-6.71-13.89-11.56-7.77-5.73-6.33-6.07 10.24-44.27 6.96-16.04 7-19.33 2.82-31.17-6.6-18.71-7.63-26.2 4.73-28.82q10.52-1.2 21.52-1.19m70.17 10.84 6.41 1.83c.05 0 20.03 68.4 31.47 101.79 3.5 10.18 6.16 23.95 6.83 36.88-.32 17.8-10.35 30.58-22.57 31.98-8.66.99-18.05-3.5-22.35-13.13-3.62-9.16-.89-19.97 9.56-23.7 18.08-6.45 31.33 16.63 13.6 23.74-9.18 3.67-17.9-2.95-13.76-10.66 2.9-5.4 11.04-4.82 12.97.76 1.57 5.94 4.17 3.14 3.05-.88-3.36-12.82-19.83-9.8-21.15 2 0 14.64 16.02 18.08 25.58 9.86 7.4-6.57 8.19-18.44 6.33-28.74-2.54-21.39-14.65-49.14-23.24-80.8-4.3-15.82-10.51-34.67-12.73-50.93m255.27.77 12.05 4.76-.28 39.7-10.22 3.52c-13.37-20.42-2.25-47.97-1.55-47.98m-244.17 2.57 8.83 3.4c4.83 28.02 27.63 81.6 35.67 121.58 2.25 24.02 2.6 31.08-13.67 43.88v-.18h-8.8s-.04-.54 3.8-3.42c21.33-15.94 8.6-51.07.55-78.07-14.02-43.13-26.56-87.24-26.38-87.19m-82.52 2.8q-1.68.01-3.4.12c-13.31.71-15.5 1.57-15.55 4.46-.07 5.46 2.16 7.88 14.54 6.54 10.72-1.16 26.25.5 36.95 5.1 12.2 5.26 15.1 6.5 19.49 8.76 11 5.66 9.08.02-.87-6.52-20.33-13.37-34.38-18.67-51.16-18.46m96.07 1.93 8.28 3.15s2.2 6.46 2.98 10.16c8.07 35.78 30 76 32.56 117.86.58 13.7-1.77 26.5-11.82 32.68h-7.58c8.1-8.06 13.5-10.4 11.24-38.42-3.59-35.99-27.33-80.95-35.66-125.43m14.7 5.8 7.65 2.83c8.8 48.3 52.43 120.49 24.65 155.32h-6.94c6.2-9.67 8.76-18.15 7.83-31.2-2.7-43.9-25.1-86.5-33.19-126.94m12.81 4.44 8.23 2.52c11.17 48.95 54.09 129.16 23.5 151.34l-6.04-.16c23.05-43.09-11.9-87.68-25.69-153.7m14.34 4.57c2.53 1.4 6.14 2.08 8.9 2.88 8.65 37 24.47 73.4 31.67 107.88 2.43 18.87-1.72 33-13.57 38.37h-2.54c10.65-16.07 8.64-36.33 2.96-58.23-7.64-29.44-22.47-61.84-27.42-90.9m-129.6.64c-3.81-.03-7.81.55-12.04 1.9-4.33 1.63-3.8 5.04.22 4.34l5.37-.95c9.87-1.72 22.03 1.84 36.76 10.76 3.56 2.16 7.43 4.23 8.39 4.95 2.7 2.02 5.6 2.01 4.6-.56-.4-1.03-6.07-5.44-11.1-8.25-10.74-6.5-20.73-12.08-32.2-12.19m143.58 3.22 8.3 1.27c15.57 71.63 49.78 116.13 20.52 142.71h-7.32c8.01-8.18 11.63-20.98 8.97-36.12-2.71-15.45-10.69-39.98-17.31-61.54-7.68-25-13.86-46.14-13.16-46.32m11.89 2.01 7.02 1.3c8.22 29.12 22.18 65.22 30.59 95.28 5.17 18.49 3.09 41.26-8.45 45.45l-5.93.1c9.8-13.08 11.19-26.72 6.71-44.34-9.18-36.19-23.08-67.76-29.94-97.79m43.32.04c7.1 30.19 24.11 76.23 30.23 92.13 8.13 16.24 5.7 40.28-6.54 49.8l-5.8.12c7-6.54 9.4-17.56 8.3-28.98-3.15-32.27-26-77.04-34.28-111.42zm-30.79 1.43 7.24.66c7.25 31.58 21.35 62.27 30.5 93.85 1.71 7.12 3.2 15.83 2.6 22.24-1.25 13.44-6.82 24.03-11.7 24.03h-4.99c10.19-12.14 9.69-28.69 5.33-46.48-7.2-29.4-24.64-64.85-28.98-94.3m-188.51.16c-3.02.02-3.07 2.78 1.75 7 2.95 2.58 2.72 1.72 2.56 3.36-.72 7 .38 13.4 3.25 6.2.77-1.93 1.9-4.1 3.02-3.83 2.12.66 1.04 4.56 2.07 6.54 1.73 3.48-.1 4.33-4.32 3.26-3.03-.78-3.2.86-5.1 2.95-3.29 3.66-2.75 5.85 2.32 4.7.84-.18 1.55.06 2.2.21 1.58.36 3.02 1.37 6.79 4.24 4.84 3.7 11.7 8.62 16.15 9.38 7.13 1.2 5.54-2.21-.3-4.45-5-1.91-11.2-7.24-11.18-8.7.01-1.14 1.58-.47 10.6-2.94 3.9-1.08 9.4-3.48 11.72-4.55 3.83-1.76 4.01-1.75 10-1.57 10.2.3 11.75-.04 4.6-5.35-14.45-10.72-33.73-17.7-43.96-13.25-3.1 1.35-3.03.52-5.27-.77-2.93-1.68-5.32-2.44-6.9-2.43m206.87.97c10.02 38.59 29.4 73.16 34.11 109.77 1.07 10.47-.69 20.7-9.39 29.54l-5.88.1c-.86.02 8.2-14 7.42-25.98a68 68 0 0 0-2.29-20.03c-11.38-32.55-22.59-62.04-31.3-93.06zm-180.9 12.67h.15c2.74.43 2.83 1.51 2.04 2.93-1.18 2.1-3.26 6.16-3.26 6.16s-2.77.54-3.34-.16c-1-1.45 2.66-8.72 4.4-8.93m6.95 1.24c.3 0 .67.15 1.26.39 2.62 1.03 7.18 3.16 5.21 4.8-2.33 1.95-11.36 2.83-10.92 2.01l3.02-5.57c.63-1.18.92-1.62 1.43-1.63m-27.66 33.73a1.3 1.3 0 0 0-.58.16c-.53.32.66 2.41 2.39 4.79 7.99 10.78-3.07 13.97-10.9 8.2-7.44-5.78-18.91-5.23-17.26.83.59 2.14.02 3.18 4.17 3.24 3.69.05 4.64.26 7.96 2.53 12.72 8.7 29.15-2.94 21.12-15.42-1.52-2.36-5.26-4.42-6.9-4.33m31.38 16.84c-4.63 0-7.53 3.44-1.75 4.47 20.65 3.7 6.8 25.12-7.77 14.09-13.13-11.85-30.68-11.77-30.89-3.36-.03 2.12.07 2.19 3.17 2.77 7.32 1.39 18.25 4.71 22.43 6.82a49 49 0 0 0 5.76 2.58c8.74 3.18 19.96-.96 22.18-8.32 2.03-6.75.39-19.05-13.13-19.05m-259.06 68.9c2.76.03 5.7 2.45 7.8 6 4.84 8.17 10.74 21.93 14.5 29.52a9 9 0 0 1 .92 4.52c.3 4.45 1.8 6.12 4.43 4.12 2.6-1.97 6.2-5.26 1.97-5.79-4.25-3.2-6.61-7.9-3.98-10.76 1.93-2.1 1.18-3.47-.38-3.56-5.96-.09-14.82-17.79-10.65-21.6 5.65-5.14 11.89 1.23 25.17 27.57 5.85 11.64 6.12 24.37 1.1 18.06-1.7-1.58-1.35-.76-3.36 4.25-1.5 3.76-2.73 5.55-8.47 11.06-6.97 6.7-11.2 12.01-11.35 13.17-.3 2.22 3.76.15 6.73-3.72 6.63-6.47 6.88-8.2 6.82.38-.06 7.77-.46 9.19.95 9.14 2.18-.09 3.34-6.23 4.36-13.64 1.22-6.68 4.68-10.04 10.46-13.76 1.58-1.02 1.6-1.72 1.3-4.66-1.06-9.43 4.3-27.02 6.74-22.67.34.98 1.4 3.27 1.97 4.87.46 2.48 2.02 5.28 4.41 5.47 2.96 2.22 2.95 3.42 3.98 11.54a45 45 0 0 0 2.33 8.75c1.53 3.94 2.9 6.25 2.06 7.42-.55.58-1.7 1.67-1.7 1.67l-48.35 28.66s-3.79 2.1-5.17 2.68c-3.83 1.73-6.16.45-8.04-2.42-10.25-15.26-17.27-32.4-24.48-48.2-4.31-9.39-.09-15.6 5.5-8.03 2.16 2.94 1.06 4.82-.03 10.5-.19 1.03.76.63 2.56.92 2.82-.3 4.19 2.22 4.09 6.5-1.79 6.13.68 2.82 1.84 2.51 2.24.04 2.73 1.38 3.99 3.93.78 3.58 2.36 2.55 4.66.18 1.9-1.96 1.91-1.91-1.93-6.5-6.63-7.19-15.84-23.42-18.22-33.3-.66-2.73-.42-4.9.08-6.36 3-6.75 7.18-6.77 11.73 2.65.77 1.6 2.3 4.2 3.37 5.76 1.75 2.53 2.84 4.7 2.78 8.73-1.35 3.37-1.57 3.44-.4 3.9 2.88 1.14 8.01 6.35 8.24 11.02.23 4.74 1.04 7.26 4.77 4.44 4.25-3.2 2.44-4.5-1.75-8.6-4.4-5.23-4.66-9.77-2.05-13.54.42-1.27.24-1.62-1.37-1.47-5.1.5-10.06-5.97-6.52-10.88 1.64-2.88 1.45-3.62-.86-3.7-1.2-.04-3.18.19-4.16-.36-1.51-2.83-4.66-6.78-4.63-10.02 1.49-4.55 3.8-6.38 6.24-6.35m303.02.24c8.38 5.14 16.68 10.49 26.1 12.93a144 144 0 0 1-86.3 68.6c1 5.03 1.71 10.05 6.58 13.13-.17-.76-2.32-9.69-1.85-11.52 40.47-10.33 76.08-49.97 85.2-70.41l177.82-1.93C547.94 531.73 542.7 709.7 650.25 858.89l-12.37 7.22C555 741.96 555.84 622.35 580.7 542.25c17.63-56.8 49.25-100.18 73.29-124.98 0 0-96.41-1.32-144.4.45-6.98 10.66-13.46 19.37-22.83 29.44 0 0 24.38-23.55 23.75-27.63 44.47-.03 90.34-2.6 134.75.5-51.97 62.2-77.6 126.41-82.03 186.82-.17 7.85-.65 3.46-3.25 6.35l-8.2 12.73-6.57-13.23c-4.48-1.44-13.27.89-17-.46-18.28 81.57.2 180.03 24.26 244.27 0 0-6.05 3.39-13.48 2.82-8.14-1.8-10.12.44-17.18 1.87-8.1 1.54-10.93 1.53-12.73 3.58a19 19 0 0 1-4.84 3.84c-19.75 7.17-42.92 34.07-42.92 33.69l-21.74-9.76c20.03-39.33 43.54-53.49 84.87-70.95l-3.84-17.58c-44.02 16.4-72.04 36.03-94.12 74.17-26.8-.37-135.39-1.14-135.5-.8 44.29-50.36 79.2-126.33 83.03-185.55.93-11.54-.69-5.99 4.42-9.43l8.02-9.56 6.3 9.42s4.55 5.8 7.44.96c8.07-82.59-.47-176.76-40.27-242.4 7.06-.47 14.1-.67 20.86 3.33 15.56 35.25 24.74 78.8 28.72 111.44 5.04 41.32 4.33 87.92-.8 127.5l2.65.35c7.76-51.43 5.13-106.12-2-153.93-3.64-24.94-15.41-63.95-23.5-81.96-2.24-4.97-3.97-6.26-1.85-7 48.5-4.08 70.79-20.26 88.2-46.1m-134.46 4.35a6.7 6.7 0 0 1 6.72 6.72 6.72 6.72 0 1 1-13.43 0 6.7 6.7 0 0 1 6.71-6.72m364.5 3.42c-14.19 12.85-25.6 26.17-37.58 40.37 35.46 48.77 74.88 101.63 108.01 143.87 0 0 11.48-6.8 11.43-7.64-.02-.44-.92-2.69-1.13-2.19-.49 1.17-9.29 6.1-9.29 6.1L668.81 445.08s5.68-6.8 7.44-8.95c8.15-2.68 30.83-30.77 31.94-30.19 17.76 13.61 71.35 71.3 91.99 89l.26 160.15c-2.14 6.4-59.27 31.1-99.61 123.22-20.3 11.37-42.77 17.48-63.68 27.37 0 0 5.33 8.37 7.93 10.66-3.2-6.9-3.76-8.21 3.48-11.16l150.98-61.54-.28 12.43-2.46 21.45c-41.09 25.34-75.76 35.96-132.31 74.18-4.05.94-7.3 4.82-11.55 5.03-144.46-212.75-52.1-373.05 32.08-453.58zm-470.43 10.88c3.94.07 2.95 9.21 1.5 12.37-2.92 2.29-5.82.26-5.76-4.02.02-1.4-.25-2.71-.6-2.94-2.19-1.4 1.47-5.46 4.86-5.4m88.23 5.7c3.32 2.52 4.55 5.88 5.77 9.23-4.47-.7-16.46-4.14-10.83-6.81zm-21.82 11.89c104.2 157.57 99.53 324.93-16.75 451.8l147.12-.23c18.72-36.95 49.92-59.48 89.83-73.35l3.49 11.6c-45.88 14.73-69.1 39.14-87.55 72.97H258.91c67.42-72.53 98.3-133.8 103.15-216.68 4.64-78.94-15.45-151.03-76.44-237.76zm29.36 1.81 24.58 11.6-3.64 25.22-25.74-11.86zm-44.3 7.08c131.4 198.78 75.05 338.6-29.87 454.97l-19.32.32-45.05-41.85.82 254.31s-43.92 43.03-48.97 48.19c-4.99 4.8-8.73-2.58-8.73-2.58l.12-337.13 1.95-13.22.6-72.64 28-14.76 104.99 137.6s-4.23 6.22-6.18 7.33c-1.27.71-.34 1.95.72 1.8 2.95-.38 11.36-9.78 9.6-11.3-38.09-47.18-108.89-139.55-108.89-139.55l-29.49 15.38s.86-60.3.33-83.46c1.13-5.46 5.22-4 7.98-6.44 33.96-21.82 57.88-48.45 72.65-74.29a1786 1786 0 0 1 8.26-14.58c2.3-3.75 8.02-15.5 11.34-22.99 1.86-4.19 3.85-9.26 4.6-9.87 20.42-6.65 41.86-16.1 62.38-24.58l-29.55-44.35zm-80.53 2.53c-1.1-.01-3.93 1.27-7.74 4.73-7.04 6.39-16.32 16.89-16.36 18.88 1.9.69 3.57-.4 5.08-1.93 5.88-8.69 15-12.09 20.33-19.7.83-1.41-.05-2-1.31-1.98m66.2 9.23s20.37 29.7 25.6 37.6c-53.73 21.26-109.94 49.36-159.74 67.53v-11.9l7.87-21.39zm79.9 19.64 20.1 10.38-5.68 22.67-20.27-11.35zm16.57 37.71 16.52 12.03-7.55 19.23-16.63-11.45zm-134.72 14.1s-2.55 8.91-6.82 16.9c-20.43 35.5-40.43 67.04-81.73 94.44-1.58-1.4-6.08-9.27-6.08-9.27l-.4-10.52c21.9-17.6 40.8-30.5 69.8-82.14l8.42-3.42 7.15 3.1 4.85-8.65zm85.93.08c-19.03 40.39-37.76 82.04-68.1 113.51l83 115.86c27.32-81.8 17.18-158.47-14.9-229.37M212.2 531.7l-3.98 6.9 6.9 3.98 3.98-6.9zm-11.26.74c-15.04 33.63-37.6 59.5-67.23 78.1l-1.15-49.34zm5.3 10.04-4 6.9 6.9 3.98 4-6.9zm169.63 1.45 14.96 14.2-8.88 15.66-15.35-12.69zm229.24 6.98-.04.04c-26.3 81.73-18.4 159.8 17.68 227.76 17.7-44.05 32.23-73.53 66.79-120.43-21.29-27.86-82.3-108.26-84.43-107.37m-404.75 1.3-4.19 6.78 6.79 4.18 4.18-6.77zm114.73 9.54c23.71 56.67 21.62 107.76 9.01 152.04l-59.2-74.8c21.69-26.92 36.1-52.41 50.2-77.24m-120.86.2-4.48 6.58 6.57 4.5 4.49-6.6zm-6.61 9.41-4.9 6.3 6.27 4.9 4.9-6.3zm195.06 6.7 13.42 12.73-8.47 16.51-13.62-12.45zm-202.8 3.1-5.15 6.05 6.05 5.15 5.15-6.06zm432.48 1.78L672.1 660c-19.98 23.78-36.58 51.8-51.43 82-16.64-52.15-24.15-103.39-8.3-159.07m-440.87 7.8-5.5 5.77 5.75 5.51 5.51-5.75zm139.53 7.71-27.33 39.52 31.33 40c3.38-21.65 4.14-46.79-4-79.52m-148.44 1.29-5.87 5.39 5.39 5.87 5.87-5.39zm-8.63 7.7-6.2 5.03 5.04 6.2 6.17-5.03zm233.44 4.08 11.22 13.12-11.38 13.5-10.66-12zm142.67 2.36 7.62.28c-12.5 123.3 12.07 185.7 33.81 239.95 0 0-.05 2.17-.79 2.82-3.53 1.22-10.7 2.54-16.44-2.52-29.25-75.17-35.63-167.77-24.2-240.53m-386.14 1.59-6.46 4.66 4.67 6.46 6.45-4.67zm477.73 4.38c-1.94 0-3.62 50.73 3.68 75.5l27.5-37.25zm-71.08 8.37 9.2 12.34-9.76 13.3-9.97-12.6zm-414.12 3.35c.47-.07 1.22 1.22 2.7 2.24 1.37 1.43 1.18 1.33-.36 2.55-2.4 1.92-3.12 1.61-3.08-1.39.2-2.46.39-3.34.74-3.4m251.48 9.28 10.16 14.54-11.25 14.46-9.6-15.23zm161.84 18.42 10.7 13.03-9.2 14.3-11.68-13.65zm247.74 2.76.94 15.02-3.7-5.5-6.8 5.22 4.75 6.3 5.93-4.63.36 6.05c-37.68 27.23-53.93 58.51-69.22 81.98l-6.8 2.87-7.74-2.45-3.78 6.7-6.58 1.54c-.2-.04 13.2-28.75 36.14-57.98 20.42-26.03 56.39-55.37 56.5-55.13m4.36 23.51.32 53.42-67.43 26.05c17.5-29.82 38.14-57.5 67.11-79.47m-16.75-6.5-6.15 5.06 5.3 6.1 6.14-5.06zm-9.48 8.05-5.93 5.3 5.53 5.89 5.93-5.33zm-225.19 2.96 12.71 13.54-9.31 15.98-13.23-12.69zm215.62 5.7-5.57 5.68 6.1 5.86 5.56-5.7zm-8.77 8.98-5.35 5.91 6.48 5.62 5.35-5.92zm-8.8 10.08-4.98 6.23 6.74 5.21 4.97-6.25zm-193.68 9.57 15.88 10.32-7.76 18.9-15.87-12.09zm185.99.08-4.66 6.48 7.17 4.9 4.73-6.69zm-7.18 10.22-4.32 6.7 7.26 4.66 4.3-6.91zm-6.41 10.12-3.99 6.9 7.53 4.28 3.98-6.98zm-5.8 10.45-3.98 6.9 8.33 3.6 3.3-6.58zm-158 4.26 16.28 11.03-7.2 19.8-17.18-12.14zM799.38 779l.8 407.62-179.12.62s-8.38-14.73-25.9-48.79c-7.43-14.41-13.7-20.54-14.35-31.96.67-6.7-2.42-14.31-7.92-17.37-1.85-1.03-4.94.21-3.9-2.66 1.13-3.15-2.35-8.02-3.3-9.05-1.08-1.83-.4-2.27-.52-9.07-.12-6.57-.47-9.32-1.87-14.28-3.56-12.53-4.36-18.8-2.32-25.3 5.3-16.49 10.81-29.13 17.94-44.5 4.15-9 3.52-12.52-9.2-19.05-9.54-4.9-10.8-4.84-9.6-11.99.56-3.35 1.08-5.46.38-7.08-.43-.98-2.01-2.36-2.94-3.15-1.24-1.06-.87-3.26.4-4.9 1.25-1.59 1.26-3.88.02-7.7-2.6-8.02 3.3-18.65 14.43-26 4.91-3.25 4.78-2.57 9.9 2.82 15.01 15.75 37.3 5.85 37.34-16.35 0-6.93-2.35-6.51 4.2-9.78 22.19-14.12 67.73-39.8 67.43-39.1 2.97 6.05 3.96 11.21 5.84 17.72 1.62 5.58 1.4 6.01.8 16.88-.54 9.82-.84 12.1 1.47 12.73 13.14 1.45 16.14-3.2 18.66-11.69 1.1-3.75 3.2-2.99 4.5-1.4 5 9.1 11.32 18.56 15.47 25.03 5.2 8.27 13.94 12.37 18.53 8.47.96-3.21 1.75-3.3 7.56-1.99 7.04 1.6 11.05-2.35 11.72-7.52.28-2.07-1.23-1.98 2.54-4.02 9.35-6.93 5.79-16.38 4.38-22.06.13.3 4-2.36 4.08-7.69.45-27.66-23.52-67.5-22.98-66.47zM573.2 794.9l19.03 9.2-4.49 22.72-19.55-8.79zm185.13 8.45c10.96 12.7 18.88 33.88 22.97 47.68 2.02 6.88 2.26 14.72.46 15.82-1.78 1.07-2.6-.08-2.27-4.19.27-3.42.38-6.07-1.09-6.03-4.25 1.1-4.41-5.35-3.98-6.86.29-1.01.81-1.72 1.04-2.28 1.05-2.5-1.69-2.15-4.52-2.18-2.5.05-3.16-1.47-3.04-3.85-.07-2.64-3.56-2.12-5.55-.12-1.82 1.83-1.44 3.98 1.03 5.49 3.53 2.16 6.87 7.49 15.1 25.83 4.78 10.64 3.36 18.2-2.33 18.11-3.95-.11-8.55-10.93-12.27-18.9-.96-2.06 1.45-4.36 2.3-5.47 2.18-2.87 1.84-3.78-1.4-3.82-3.03-.05-4.32.22-6.15-3.52-.69-1.41-1.19-3.56-.95-4.93 1.57-4.13-1.65-5.12-4.76-3.54-3.93 1.64-3.9 5.15 2.1 10.88 3.85 6.34 2.84 5.9-.81 10.16-.77 1.5-.31 2.43 1.3 2.45 4.64-1.41 9.69 6.94 8.3 9.8-1.41 1.22-5.3 5.68-1.54 4.82 7.63-2.07 12.28 9.1 7.78 12.9-6.7 3.36-8.3 2.3-18.62-18.32a253 253 0 0 0-7.54-14c-.47-.71-.69-2.6-.67-4.13.45-3.73-1.14-4.58-4.38-3.1-2.43.59-4.63 2.59-1.55 4.5 3.6 6.2 4.88 7.2 2.9 8.78-4.5 3.58-2.55 3.44 2.5 4.45 2.46.74 3.72 2 4.4 3.54 2.6 5.85 7.22 14.1 7.68 15.78 1.53 4.3-1.23 6.22-5 6.04-3.96.09-5.77-3.03-7.7-5.7-7.18-9.98-12.35-19.87-19.68-31.21l.98-10.6s1.93.42 3-.1c2.1-1.01 3.36-4.33 4.57-8.73 1.92-3.82 13.3-12.54 17.66-17.22.8-.52 1.48-1.4 1.48-1.93-.02-1.7-4.93-.56-8.17 3.14-4.74 4.21-6.76 2.77-6.61-2.6-.46-6.66-4.52-3.32-4.72 3.16-.53 5.13-2.3 8.26-5.9 11.12-6.77 5.42-5.64 4.05-5.33 11.57.55 13.12-4.51 23.9-7.82 16.75-1.18-2.53-2.55-5.42-5.51-5.55-2.1-.09-3.13-2.14-4.28-7.22-1.72-8.2-4.11-13.5-6.3-21.05zM589.69 831.6l21.92 8.74-4.1 22.92-21.72-8.3zm167.15 2.12a2 2 0 0 0-.5.12c-6.18 4.67-11.88 9.9-18.6 13.92-2.53 1.49-5.48 5.34-5.5 6.37-.02 1 3 .98 5.94-.3 2.78-1.21 18.68-16.15 18.7-17.52 1.1-1.2.99-2.66-.04-2.59m-201.3 27.83c5.18 0 2.16 1.53-9.15 9.38-11.04 7.65-29.24 31.88-31.35 40.86-.96 4.08 1.62 4.4 4.54-1.2 13.4-25.78 38.77-49.32 61.99-48.28 11.37.52 17.52 3.59 8.1 4.93-25.8 3.17-45.1 17.89-61.98 47.23-.01.66 1.53.62 3.3-.5 15.45-18.9 32.86-43.93 63.45-41.9 22.06 1.33 28.33 27.57 10.01 36.52-15.96 7.81-30.69-11.2-17.46-22.48 4.3-3.66 6.99-2.06 2.86 1.69-8.85 8.03 2 22.34 12.8 16.91 6.56-2.75 9.22-12.15 3.43-19.25-12.88-15.78-40.6-3.78-59.93 21.72-2.03 2.69-3.78 8.52-2.07 7.89 3-1.24 4.8-3.59 6.57-6.24 6.9-9.56 12.2-14.36 21.54-19.5 7.22-3.98 7.67-3.23 4.97 3.66-1.13 2.9-2.05 3.87-4.85 5.67-11.76 8.04-19.07 18.8-19.36 25.66-.21 5.01 3.45 11.55-.52 12.9-6.75 3.18-25.13.58-30.1-5.76-3.56-4.56-4.95-1.92-2.27 5.49 1.77 4.9 1.7 7.66 4.37 7.16 3.37-1.79 5.7-1.37 12.25 2.22 3.15 1.72 8.75 3.33 12.16 4.12 6.23 1.43 7.52.83 7.38 3.52-.03.82.25 3.14.07 4.6-1.01 8.1 5.75 10.86 14.98 16.19 5.39 3.11 3.26 6.32-2.98 21.74-3.24 6.98-6 16.37-10.01 23.45-3.74 7.96-4.06 16.68-1.65 26.61 4.47 18.44 7.7 27.81-.28 29.47-20.53 3.1-65.87 2.98-90.63-6.54-6.33-47.52-39.88-118.01-35.57-136.24 8.58 12.95 44.58 9.52 33.74-26.67 0 0 2.95-4.4 8.81-10.36 15.11-15.33 18.84-17.86 11.66-4.36-5.51 10.38-12.55 23.92-12.7 26.55-.13 2.09 1.5 2.57 2.77.9.94-1.24 2.06-4.24 3.04-6.53 9-21.09 24.4-40.1 35.01-44.67 2.74-1.18 2.6.07.7 2.4-12.48 15.53-22.01 29.9-28.8 48.64-.3 1.94 2.45 2.75 3.32.9 11.72-24.53 15.22-30.1 29.6-47.4 5.66-6.79 10.93-10.22 15.13-9.85 3.64.32 2.56.92-.8 4.5-2.57 2.74-6.37 6.55-12.51 14.28-10.84 13.63-21.73 35.82-17.72 34.65.7 1.86 4.11-4.04 7-9.67 7.92-13.29 16.33-30.86 35.13-42.4a33 33 0 0 1 12.01-2.6m-363.66 4.27 33.49 33.47 67.35-.86c-11.1 17.26-5.18 44.01.94 59.65 12 30.65 29.6 81.26 28.3 81.99 0 0-9.8 2.53-10.67 8.73-1.32 9.21 2.67 8.53-3.08 16.84-1.3 1.87-.46 5.4.92 8.2.91 2.06 1.79 5.16.08 7.56l-59.4 105.99-112.75.54v-21.19l56.45-57.16-.69-42.05c30.8 9.15 41.37 40.92 44.01 64.46 55.62-50.76 54.25-127.18 1.69-175.12-10.24 50.67-46.94 61.2-46.13 60.2zm418.87 6.02c3.6.26 8.46.84 11.76 2.62a23 23 0 0 0-5.3 4.56c-1.8-3.2-4.24-4.95-6.46-7.18m93.35.36c3-.01 6.69 8.77 4.57 10.82-1.19 1.16-5.05 1.6-6.43.73-1.77-1.31-.87-11.54 1.86-11.55m-106.22 15.23a7 7 0 1 1 0 14 7 7 0 1 1 0-14m-296.23 9.98 5.05.11c-9.17 12.27-10.42 22.83-7.16 38.13 3.66 17.23 31.56 81.96 33.36 99.78.09.81.16 3.07.16 3.07l-6.85.47-.73-2.55c-9.6-32.28-19.14-56.9-25.82-75.7-6.65-20.3-16.83-50.37 2-63.31m36.87.11.13.02 4.84.04c-.18.1-7.23 15.24-7.74 24.42-.57 10.4 1.94 21.74 5.39 32.92 8.15 24.2 20.06 51.15 26.69 81.7l.8 3.31-7.17-.96s-.71-3.13-.79-3.56c-4.96-26.87-18.79-54.77-27.03-81.21-4.23-12.02-7.16-26.8-5.65-38.1 1.06-7.96 9.06-18.42 10.53-18.58m58.63.07c-5.13 7.94-9.8 17.9-10.13 25.71-.3 14.54 3.93 26.8 8.16 39.65 13.02 39.53 19.33 60.38 25.85 92.09l-6.92-2.96s-.27-1.78-.43-2.29c-3.7-19.85-3.92-18.12-25.64-84.9-5.09-16.02-9.93-30.07-8.99-43.41.21-7.6 6.85-22.65 13.84-23.86zm8.3 0h6.46s-3.55 3.76-4.58 5.16c-11.28 15.64-8.01 32.43-2.41 52.44 7.7 27.52 21.95 58.31 29.4 100.27.14.78 0 4.83 0 4.83l-7.68-3.1c-6.98-38.47-24.2-78.37-32.5-112.97-4.89-20.32-3.5-33.16 7.78-44.22 2.82-2.18 3.54-2.41 3.54-2.41m-78.78.21h4.82s-8.07 13.26-8.06 21.06c-1.34 13.97 3.71 29.4 9.52 45.57 8.92 24.86 20.7 54.92 24.33 70.74.14.62.63 3.45.63 3.45l-8.43-.44s-.44-3.83-.95-5.58c-9.72-34.02-19.2-56.03-30.36-87.1-1.7-4.7-4.4-23.28-1.21-35.33 2.5-9.45 9.7-12.37 9.7-12.37m-12.92.02 5.2.15s-.77 1.41-2.77 4.82c-9.5 17.21-5.24 32.92.64 50.42 7.86 23.36 20.2 51.87 27.9 78.86.43 1.52 1.03 6.11 1.03 6.11l-7.53-.09s-1.52-5.5-1.62-6.1c-4.23-25.02-27.1-66.71-33.05-98.45-3.26-17.02-.46-27.56 10.2-35.72m69.77 0s-8.22 14.25-8.97 22.19c-1.48 15.56 3.46 28.44 9.1 46 9.75 30.27 23.5 65.81 24.72 82.05l.25 2.52-8.47-3.02s-.38-1.7-.54-2.3a983 983 0 0 0-27.84-91.64c-2.9-11.14-6.7-22.34-6.36-31.9 1.72-12.78 3.9-16.23 11.51-23.8zm37.24.02 6.82.15s-2.04 1.09-6.9 6.27c-26.9 24.58 16.74 93.97 26.8 157.15.13.68.43 3.06.43 3.06l-7.5-2.69c-.7-3.15-1.24-6.98-2.11-10.42-8.15-32.3-19.03-65.5-29.02-95.63-5.6-21.96-7.65-41.28 2.41-52.1 3.16-3.73 9.07-5.79 9.07-5.79m-70.13.04 7.26.2c-5.24 6.58-8.32 16.83-8.6 25.95-.28 10.78 2.6 21.26 6.15 32.36 7.28 22.75 17.68 47.48 24.82 78.17.4 2.04.74 3.34.92 4.23.3 1.4 1.1 3.64 1.1 3.64l-7.66-1.53s-.78-1.99-1.3-3.04a33 33 0 0 1-2.11-5.97c-3.71-16.02-17.37-52.35-25.68-77.84-6.6-16.05-8.4-44.11 5.1-56.17m90.65.29c9.29-.35 17.68 7.53 19.67 14.94 1.93 7.86-.54 16.73-9.2 21.11-14.02 7.1-29.13-11.8-18.05-22.2 8.38-7.88 20.8-2.05 18.1 8.05-1.75 6.57-11.71 7-13.36.36-.45-2.2-1.56-4.41-2.35-3.2-5.16 12.12 12.18 17.8 19.39 6.52 4.27-9.04-3.87-20.67-15.83-18.47-16.41 3.04-18.3 23.86-11.49 48.16 9.5 38.38 32.18 90.03 32.14 113.72 0 .32.09 1.29.09 1.29l-7.2-2.15-.1-.75c-4.33-33.1-28.91-87.9-35.96-130.04-3.06-19.2 4.42-33.15 21.25-36.97q1.45-.32 2.9-.38m-71.2.3c-5.05 6.76-8.35 16.9-8.5 24.14-.16 10.6 3.65 20.94 6.8 31.98 7.95 27.27 26.54 77.64 25.85 87.06.2 1.01.71 4.15.71 4.15l-7.18-2.14s-.28-.45-.82-1.75c-2.4-9.36-13.78-49.46-26.53-84.15-4.9-13.94-7.3-24.8-6.96-34.04 1.04-12.76 4.69-18.08 10.28-25.18zm136.72 45.22c-18.61 1.06-16.82 23.75-5.29 27.59 4.13 1.14 6.55.15 7.2-.74.75-1.02-.09-2.59-2.8-2.98-7.82-2.57-10.62-11.78-3.55-15.64 3.86-2.02 10.02-.72 17.45 4.78 13.28 9.83 29.56 10.45 27.43.5-.51-2.41-1.55-2.73-11.28-4.06-7.9-1.07-11.45-3.57-14.9-5.43-5.43-2.93-10.21-4.14-14.26-4.02m-266.44 21.1c48.08 46.95 40.95 120.54-.12 157.39-.84-2.98-2.64-10.26-2.83-10.06 30.88-32.13 45.43-84.82.72-138.83.23.2 1-3.9 2.23-8.5m301.34 1.24q-.69.01-1.21.18c-12.45 3.4-15.03 15.71-6.96 20.78 4.95 3.1 8.75 1.2 2.6-2.56-5.29-3.22-2.68-11.67 3.71-11.58 2.8.04 4.7 1.26 11.81 6.5 5.85 4.31 11.36 4.65 12.6-1.2.76-3.47-.4-5.02-4.14-4.11-1.64.4-2.6-.56-4.84-2.11-4.97-3.45-10.4-5.97-13.57-5.9m-306.3 9.21c43.33 50.31 29.42 102.77.2 133.51-8.03-23.68-27.7-38.46-27.7-38.46 7.41-16.44 11.83-33.62-2.03-55.31 12.9-11.64 23.58-24.45 29.52-39.74M517 993.61c-2.04-.03-1.38 1.93 3.41 5.28 11.43 7.76 12.4 9.17 1.34 8.99-2.81-.17-7.21 1.82-9.7 2.65-14.45 4.82-15.15 4.44-22.07 2.82-2.3-.54-4.64-1.51-5.65-.59-1.55 1.43-3.31 2.37-1.34 4.49 1.43 1.55 4.1 2.73 7.34 4.59 16.78 9.6 18.3 11.91 38.03 12.42 2.26.06 3.42-1.11 4.74-1.12 3.23-.04 4.91.74 8.17 3.72 5.97 5.44 6.24 1.48 2.7-5.66-1.86-3.74-3.49-4.63-2.58-7.48 2.08-6.49-.88-7.78-4.76-2.03-2.91 4.5-3.24 4.4-6-1.39-3.65-7.22-1.93-10.56 3.6-5.85 4.2 3.57 5.27.92 6.9-1.91 2.15-3.71 1.82-7.04-2-6.76-2.22.17-4.28-.84-6-2.73-3.4-3.7-9.9-8.34-16.13-9.44m4.75 19.56c.45.02.77.21.92.68.03 2.38-1.6 7.24-2.94 9.79-.42 1.14-1.16 1.28-2.19 1.49-3.46.64-3.7-.43-3.07-2.57 1.26-3.31 2.3-8.02 6.77-9.37q.27-.03.5-.02m-8.79 1.64c1.4-.1 1.45.49.9 1.75-1 2.15-2.77 4.17-4.08 5.85-2.76 1.8-7.28-3.68-5.28-5.1 2.78-1.11 4.88-2.24 7.78-2.41q.38-.07.68-.09m-310.46 3.58q1.12 0 2.3.48c10.48 14.16 9.76 35.71 1.62 47.63-.6.89-1.23 1.06-2.25.71-3.5-2.08-7.95-2.85-11.28-4.05v-41.45c3.42-.72 6.38-3.33 9.6-3.32m276.38 3.38c-.8.04-1.13.59-.11 1.63 15.29 11.07 36.33 23.9 55.74 18.93 1.79-.39 3.22-1.36 2.88-3.2-.21-1.15-2.19-2.13-4.32-1.57-4.46 1.18-13 1.33-16.5.76-13.35-2.19-25.14-10.72-35.4-15.72a4 4 0 0 0-2.29-.83m-4.46 10.56c-.68-.03-.63.65-.2 1.93 2.15 6.41 23.8 21.35 40.88 26.29 14.68 4.24 35.76.07 34.54-6.9-.64-3.63-3.3-4.5-12.67-3.32-20.62 4.01-40.47-4.43-55.53-13.8-4.06-2.55-6.14-4.16-7.02-4.2m-135.03 8.77c9-.11 17.94.62 27.6 2.23 18.78 3.21 40.56 9.03 58.98 17.56 31.3 11.75 70.68 20.82 104.08 19.59 8.15.22 22.89-.47 25.74-1.41 7.45-1.67 9.5-.09 11.28 9.15.32 2.01.94 2.59 3.52 4.34 3.96 2.69 3.3 5.33 2.82 11.25-.4 4.98 2.6 7.77 14.66 30.03 13.72 25.33 27.11 54.76 27.11 54.76-120.3-.09-235.07-4.55-358.17-.72 11.07-26.25 41.25-73.58 60.18-111.58-4.58-11.69 1.07-13.68-1.3-16.45-3.83-6.5-1.07-15.61 7.03-17.67 5.64-.64 11.07-1.01 16.47-1.08"/><path fill="#e2cf00" d="M258.39 1188.69s39.42-79.7 56.03-103.57c23.9-30.3 131.77 13.16 185.41 24.02 21.8 4.21 72.35 2.24 72.35 2.24l42.25 76.14zm-81.86-90.55-1.67-248.11 12.34 7.7 2.83 249.22-53.35 51.08-.3-14.96zm32.29-28.31c12.7-25.58-1.48-56.81-1.48-56.8 7.37 1.82 27.91-37.16 29.73-36.03 31.44 38.55 36.88 95.99-1.52 131.58-9.7-24.74-26.6-38.75-26.73-38.75m23.46-175.48c23.88-24.4 42.83-43.42 61.76-70.73 1.55-2.23-100.78-132.2-99.18-134.47 15.78-17.44 36.94-30.26 53.4-51.32 0 0 83.9 109.84 85.84 108.87 8.5-34.37 14.73-65.5 13.11-101.42-5.18-91.93-44.46-148.21-44.77-147.1-13.29 84.46-143.84 212.39-169.54 203.27l-.15-59.02c1.56 2.95 82.71-52.22 104.1-125.13 1.55-5.23 64.52-25.39 64.08-26.16-2.66-6.84-30.21-45.81-30.21-45.81s11.13-5.19 12.36-5.17c35.7 44.4 62.66 102.9 71.82 158.6 11.13 60 18.33 172.78-101.98 295.95zm360.65-155.2c-18.83-58.43-18.31-118.93-9.66-161.16 13.21-76.53 61.58-131.33 100.37-173.12l16.83.01-27.44 28.4c-12.56 14.41-30.76 44.48-30.76 44.48l100.4 131.23 57.21-12.37s-1.72 58.7.05 58.7c-44.47 36.81-76.43 70.13-99.38 123.76-14.06 5.2-60.68 25.3-60.68 25.3-22.16-5.41 65.95-143.55 49.19-145.9-6.9-5.69-83.33-108.78-84.82-108.57-35.23 107.86-.87 221.13 61.12 300.25-7.04 4.56-13.4 8.1-12.82 7.04-26.55-36.83-49.81-80.8-59.62-118.06zm-183.41-54.09c3.97 6.15 21.84-131.64-25.11-241.93 4.47-3.38 43.2-10.8 43.2-10.8l10.42 33.03-26.42 11.19 4.87 15.48c20.51-9.95 64.93-24.64 92.25-70.02 0 0 132.75-1.14 135.57-.9 2.76.23-27.07 28.81-55.36 86.68-12.92 26.43-23.2 60.63-25.34 100.76-.42 7.93-30.38-37.28-30.38-37.28 7.47-38.2 27.43-75.8 47.33-113.4 0 0-30.53-1.73-51.86-1.11-33.16 36.24-53.95 55.35-103.96 72.65 18.24 58.42 129.78 86.5 104.98 81.16-5.07-1.2-11.5 53.7-6.13 115.56 1.04 49.46 27.65 131.9 28.59 131.24 0 0-17.74 4-19.16 1.15 2.99-.72-26.4 6.72-26.4 6.72l-10.5-30.73 28.43-13.08-4.6-17.35c-.11.01-62.74 18.95-93.42 73.6l-137.2.15c52.91-57.41 74.5-114.2 85.98-189.27 11.23 2.01 34.22-3.5 34.22-3.5M746.94 189.4c17.25-14.43 51.88-52.03 51.88-52.03l.45 19.26-39.3 40.87.4 252.3-13.3-12.74zm-18.16 92.34c-7.08 3.37-21.18 19.96-27.91 38.59-45.52-40.67-26.77-115.41-1.85-130.97 7.23 16.32 28.17 37.95 27.68 37.5-4.8 17.09-8.5 34.42 2.08 54.88M325.72 112.36l351.1.62c-20.03 39.43-38.4 71.3-59.7 110.12-11.07 13.36-250.83-43.14-251.96-37.51z"/><path fill="#d40000" d="M689.12 1182a508 508 0 0 0-86.43-120.52c33.74-36.84 61.87-75 85.9-116.7 24.77 41.5 51.97 80.68 89.98 118.57-37.67 37.07-65.96 77.52-89.45 118.65m-553.2-43.53-2.33-331.28 39.91 38.77 2.36 254.41zm691.36-92.12a288 288 0 0 0 38.64-50.9c13.7 20.29 28.24 41.07 40.26 51.42-13.64 15.53-26.54 33.54-38.98 52.09-10.83-17.3-22.6-34.74-39.92-52.61m-508.23 27.92c-8.26 1.26-3.58-6.38-2.07-13.65.84-4.05-3.08-7.86-3.06-9.1.1-7.19 5.5-10.22 29.9-9.94 57.56 3.99 87.32 22.42 120.33 30.98 31.61 8.21 62.96 8.04 97.85 7.24 2.55 1.47 11.9 25.56 10.16 27.96-78.92 15.56-179.63-42.38-253.1-33.49M461.3 902.73c-8.32-6.02-16.12-7.13-23.83-8.45 13.53-23.8 29.92-45.5 57.3-59.07l12.74 31.5c-16.1 8.29-31.91 18.15-46.21 36.02M295.04 820.9s-11.82 19.3-22.97 28.7c-33.14-44.44-107.25-139.06-107.25-139.06l-31.46 15.92s-.12-18.31.6-19.6c84.93-43.77 143.22-126.5 168.88-203.96 0 0 13.68 13.95 11.88 19.86-22.97 61.1-62.24 122.38-120 168.34zm105.93-90.15 107.24.14 4.75 37.29c-41.06 13.75-74.95 41.86-106.64 74.38l-50.86-.9c16.68-36.53 39.84-73.6 45.51-110.91M798 573.68c3.47 10.51-.03 21.85 1.3 21.37C670.86 658.58 634.16 798 634.16 798s-12.2-19.3-11.64-22.29C689 627.94 733.48 623.54 742.02 607.5L640.9 476.63l22.88-31.1 108.45 141.13c10.79-4.97 16.93-9.13 25.77-12.98m-63.33 191.17c21.77-39.17 44.25-61.94 66.63-77.61l-1.09 51.7zM134.14 611.1l.56-50.15 66.17-28.48c-18.3 39.88-43.14 61.25-66.73 78.63M428.9 566l-3.92-35.27c40.17-17.52 75.66-40.95 104.3-73.02 30.77-1.48 51.8.6 51.63.19.05-.06-29.28 42.95-48.7 110.67zm332.77-370.55 36.56-36.94 1.16 329.66-36.73-34.94zM440.38 463.9l-11.6-32.69c18.24-6.84 32.06-21.73 44.93-36.48 8.71 7.8 19.98 10.56 23.88 12.06 5.35 1.25-36.99 52.08-57.22 57.1m-282.8-225.72c39.16-38.21 64.6-78.51 89.2-118.58 21.57 44.09 52.79 82.66 86.26 119.94-34.5 37.5-60.72 77.65-85.88 118.08-24.74-42.6-50.78-82.55-89.57-119.44m-90.26 65.85C56.04 286 44.67 268.65 28.28 251.24c15.95-17.07 29.5-34 38.6-50.64 12.57 18.28 24.5 37.37 39.9 51.98-15 16.51-27.06 34.02-39.45 51.42m304.51-87.65s-4.56-2.64-4.06-6.36c1.5-4.82-4.88-15.73-4.88-15.73 77.86-23.62 191.23 42.85 258.52 28.87-.56 4.7.21 10.3-1.7 14.73 2.12 9.41 3.62 9.72-5.57 15.46-47.28 13.38-97.1-15.14-143.27-28.78-37.67-11.86-68.27-8.84-99.04-8.2"/></g><path fill="#d40000" d="M822.78 1124.01v12.4h9.79l27.88 62.58-26.7 43.71h-10.29v11.09h38.96v-11.09h-12.97l35.71-51.54v51.54h-10.73v11.09H910v-10.82h-11.69v-106.56h11.7v-12.4h-35.58v12.4h10.73v31.47L870 1187.42l-22.75-51.01h15.18v-12.4zM23.33 46.21v12.2H35.8v106.06H23.33v13.13h36.23v-13.13h-9.6v-30.09l14.55-20.16 21.82 50.25H72.39v13.13h39.52v-13.13h-9.44l-28.93-64.6 27.48-41.66 10.19.2V46.2H71.97v12.2H83.3l-33.34 51.15V58.4h9.9V46.2z"/><path fill="#100f08" fill-rule="nonzero" d="m321.7 107.71 14.22 26.78-2.45 1.67c3.87 6.45 7.16 13.71 11.12 20.1l2.86-.32a498 498 0 0 0 12.67 22.87l-2.76-.02c1.42 4.72 5.06 7.85 5.14 11.23.03 4.21-1.05 8.48 1.54 11.33 3.06 3.38 3.43 4.31 2.8 6.29-1.67 5.25 3.09 11.07 7.92 10.55 34.03-4.55 68.72-.7 103.39 9.78 24.93 7.87 47.07 16.67 68.02 22.86 6.6 1.98 19.96 5.09 31.46 5.93 31.88 2.34 49.77-4.16 44.4-17.42-.43-1.06-1.38-1.84-1.47-2.39-.15-1 0-2.1 1.81-3.58 5.23-5.34 2.31-9.23-.88-15.15 0 0 40.95-73.14 61.4-109.58zm354.51 6.58-29.88 51.58c-15.98-2.89-19.73 10.54-19.98 12.43-20.74-5.31-17.56 21.59-7.15 23.4.67 3.9-17.05 8.75-26.4-.39 14.36 1.93 19.45-17.07 1.91-21.29 23.12-17.18-20.25-42.91-20.77-7.36-20.39-3.6-17.74 23.36-4.8 25.45-6.62 7.3-26.08 7.5-36.24-7.88 17.3 8.98 26.66-14.2 8.68-20.7 22.18-19.44-21.24-37.37-20.23-5.95-16.37-9.7-27.62 15.03-5.77 18.83-1.25 4.45-29.87 4.48-37.13-7.02 20.3 4.63 21.23-20.07 3.33-22.08 17.96-22.81-27.66-34.35-20-3.22-17.63-6.97-24.28 15-7.12 22.06.96 3.5-27.8 6.47-37.86-6.14 22.1-3.32 14.36-24.73.05-23.02 0 0 .21-.62 1.01-2.7 6.76-21.5-29.58-23.3-24.54-.5.8 2.1 1.7 4.9 1.7 4.9-10.02-2.05-16.14 2.03-15.41 11.43 2.49 12.48 9.08 11.56 17.51 9.07 3.54 3.7-20.34 16.05-35.33 5.02 18.36-5.27 9.05-26.8-6.3-23.89-.64-6.86-8.1-16.5-17.84-11.8l-10.3-20.25zm30.03 286.6-21.57.33c-15.15 15.46-124.86 116.52-106.39 269.18 7.9 65.3 26.14 121.78 74.88 188.5l13.03-7.63 2 1.32 135.08-77.7.07-23.6-156.8 65.78c-3.12-3.3-4.94-7-7.56-11.08l62.83-26.7s1.51-3.82 2-5.58c20.65-52.26 62.62-90.1 99.16-119.34-.2-51.46-.43-159.2-.43-159.2l-94.48-94.08c-12.12 11.08-22.86 22.47-33.6 34.83L782.91 578.7l-9.61 6.26-107.33-142.04c12.7-15.28 26.5-28.61 40.26-42.02m96.37 92.83s-.52-245.14-1.24-363.5l-56.3 57.75.22 248.47zm-4.79-340.17-39.77 41.04.44 252.57-10.22-10.08V191.32l49.69-52.06zm-387.07-6.08c1.19 2.1.67 5-1.24 7.37-8.14 10.1 17.42 27.63 35.8 24.58 14-2.32 25.92-10.72 20.77-17.11-4.18-5.21-1.45-10.48 3.59-10.44 5.17.03 9.33 4.15 4.84 9.8-9.98 12.54 5.24 27.26 28.52 27.57 16.46.21 21.94-3.84 21.05-15.57-.4-5.5.67-7.01 4.5-7.84 6.1-1.34 9.18 5.66 4.11 11-10.92 11.52 1.5 28.47 22.17 29.56 7.56.4 9.06 0 17.5-4.77 6.59-3.72 8.92-9.34 5.68-13.71-4.15-5.63 1.46-12.34 7.93-9.58 4.63 1.98 6.91 5.53 1.8 11.55-6.73 7.9-3.55 14.42 9.4 18.82 10.1 3.43 17.08 3 21.8-1.3 1.48-1.34 4.74-4.14 4.7-3.29a692 692 0 0 0-6 10.57c-21.13 9.43-37.62-8.21-37.08-8.87-21.78 12.56-41.08 9.91-57.4-11.2-4.23 2.36-34.6 7.89-56.53-16.17-22.12 11.1-42.68 6.44-60.96-5.97-13.5 12.75-27.74 14.77-42.53 8.64l-4.38-8.8c1.1-.42 5.87 8.83 29.02 4.52 7.77-1.45 21.14-14.51 13.66-20.88-3.43-4.85-3.53-7.03-.5-9.97 2.97-2.9 8.06-1.41 9.78 1.5m-56.71 11.55c1.3 2.5 1.47 6.66.04 4.16-.75-1.32-4.67-7.2-4.48-7.38 1.82-.15 3.63 1.73 4.44 3.22m443.8 2 .26 325.94-33.87-33.6-1.63-255.34zm-392.25 15.79 10.66 6.7-19.1-.1zm59.95 5.6 8.96 8.7-18.83-3.94zm167.77 4.52-4 8.2c-2.3-2.57-2.98-8.05 4-8.2m67.7 135.5c6.8-15.26 15.9-34.7 30.62-40.88-10.96-21.77-9.53-43.54-1.76-55.48-11.12-10.35-22.53-22.75-29.61-40.58-35.13 31.02-40.78 94.74.75 136.94m-1.04-130.98 2.41 5.96c-31.29 38.29-21.63 88.56 1.04 115.38l-3.26 6.76c-27.7-29.21-39.82-90.96-.2-128.1M512.9 213.13c36.25 10.64 65.29 27.22 107.2 12.45l.2 8.16c-26.68 17.12-79.83-.97-115.73-14.22-57.71-21.3-102.63-20.06-134.72-17.63-2.83-.55-5.07-7.93-.55-7.98 60.01-.66 50.32-8.15 143.6 19.22m8.19-14.43 11.9 12.63c-8.93-2.8-17.63-5.92-25.71-9.8zm181.72 3.11 2.34 3.22c1 1.4-6.59 2.12-5.31.48zm-204.56 23.12c43.27 16.25 90.93 32.47 122.2 17.92 0 0 .2 6.2-3.38 7.95 0 0-3.3 2.67-14.33 4.18-50.6 4.16-83.45-16.8-124.3-29.17-15.48-4.7-40.38-10.39-65.93-11.45-15.18-.69-38.4 1.5-38.4 1.5-5.05-.43-4.98-3.41-5.02-6.34 44-5.87 84.45-1.5 129.16 15.4m209.27-15.57a9 9 0 0 1 1.69.1l4.42 5.65-5.24 8.35s-4.63-4.26-6.99-8.45c-1.29-2.7 2.21-5.47 6.12-5.65m-127.5 1.59 13.7 10.34c-10.3.5-21.9.9-33.39-3.67zm116.07 5.27c1.08-.03 2.2 1.11 3.54 3.38 2.55 4.35 2.21 5.18-2.74 6.77-6.5 2.1-7 1.63-4.9-4.2 1.43-3.97 2.71-5.92 4.1-5.95m20.81 2.67 9.27 7.77c-5.12 13.31-8.47 30.21 1.8 54.47-1.13.07-7.79 6.64-9.88 7.76-5.87-2.46-18.79-50.52-1.19-70m-10.53 10.18L704 243.78c-.19 1.2-10.25-6.97-9.31-11.06 1.79-4.86 7.91-3.82 11.67-3.66m-16.63 5.17c1.22 0 3.12 2.95 5.47 6.8 1.83 3 1.46 4.13-2.6 7.78-5.95 6.02-7.13 4.06-5.8-6.2.65-5.06 1.55-8.4 2.93-8.38m12.33 13.34c.8.01 1.52.2 2.03.62l.68 14.34c.06 1.3-11.2-.51-12.66-5.97-1.87-3.5 5.58-9.08 9.95-9m-14.86 12.13c.81-.12 3.33 1.56 5.72 2.97 4.14 2.46 4.23 3.54.66 8.13-4.2 5.39-6.28 4.52-6.92-4.85-.23-3.44-.5-6.1.54-6.25m16.52 5.48q.55-.01.97.34c1.99 1.7 5.04 16.08 3.76 17.58-1.83 2.14-11.44-.7-13.58-4.08-2.04-3.21 5.35-13.84 8.85-13.84m-11.76 16.92c1.1-.07 3.1.69 6.1 2.13 1.8.87 4.82 2.51 5.49 3.91 1.17 2.46-.78 6.1-3.3 9.13-1.67 2-3.23.51-6.46-6.2-2.6-5.4-3.67-8.84-1.83-8.97m19.4 6.43q.33 0 .6.14c3.27 1.82 2.72 7.2-1.15 11.18-4.64 4.79-8.68 1.18-5.47-4.88 2.03-3.85 4.47-6.4 6.01-6.44m-269.9 133.72c-2.82.13-7.24 2.69-9.16 5.17-2.44 3.13-4.56 2.72-7.26 2.5-3.22-.06-8.1.65-14.72 3.67-3.76 1.71-5.46 2.1-10.97 2.38-3.58.18-7.18.66-7.98 1.08s-3.38 1.33-5.73 2.01c-4.8 1.41-3.1 2.77-.34 8.97 14.02 35.94 24.07 77.82 27.73 111.93 4.1 39.14 2.86 86.6-2.61 122.83-13.42.1-21.85-.6-35.98-.36-9.64 78.37-35.8 140.61-88.08 196.58l141.32.36c16.2-43.19 90.08-76.12 92.51-73.7l3.9 15.77s-53.16 7.6-88.95 75.04c3.65-2.21 16.99-.67 25.79 8.46 17.58-22.29 46.42-36.86 46.6-36.51l.97-2.69s5.29-1.8 9.93-2.68c1.5-.28 4.55-.86 6.58-1.57 3.14-1.1 4.7-2.27 9.54-1.85 10.07.96 20.19-1.96 19.97-2.01-30-82.74-37.09-157.42-25.37-244.18 11.05.08 35.29.5 35.29.5 2.43-24.38 5.52-48.77 13.01-71.78 9.61-29.55 21.2-57.02 39.87-82.14 10.55-15.77 19.75-27 30.64-41.78l-138.33.32c-18.31 30.77-53.59 56.47-81.94 67.17-9.65 3.63-11 3.1-12.6-1.45-2.86-8.1-2.73-7.76 4.82-9.91 2.52-.72 10.59-4.97 23.17-10.86 26.7-13.56 45.07-38.38 55.87-55.13 4.3-6.61 1.41-5.12-5.94-5.19-6.72-.52-9.8-2.6-15.85-8.24-2.22-2.08-3.18-3.56-4.2-3.44-7.9 11.34-21.15 26.3-31.5 30.73m32.47-26.2c6.23 6.66 13.6 10.56 23.31 11.82-15.52 24.36-34.47 43.4-56.26 54.98l-11.08-31.16c27.16-12.64 34.41-25.3 44.03-35.64m225.5 9.91c-146.31 135.27-137.7 305.8-35.25 444.31l-10.73 6.46c-96.23-128.95-113.64-319.7 33.39-451.34zm-92.24 16.5 35.87-.07-24.42 31.65-32.76-.12zm-5.62.26-19.95 31.45-53.8.7c-32.2 39.69-66.78 59.05-101.99 72.26l-6.87-33.89s55.74-13.44 91.84-70.94zm-54.68 2.6-12.47 13.8 12.95 13.18 11.83-13.38zm28.24-.32-12.63 13.14 9.85 13.21 13.1-12.83zm-62.29 2.4-2.15 20.65 16.25 5.33 2.38-17.66zm98.86.77-11.8 18.43 17.77.29 12.41-18.36zm-185.65 4.7 11.51 31.91-10.1 4.88-10.26-33.32zM412.43 438l11.86 33-9.93 3.28-10.9-34.35zm14.22 130.3c1.32 45.9 1.98 73.57-5.7 113.91-.4 2.11-8.64.24-8.64.24 1.04.35 4.64-45.59 4.36-74.44-.55-54.96-9.86-109.32-31.43-163.78 4.11-2.51 14.25-3.8 14.25-3.8 13.6 41.3 25.67 85.73 27.16 127.87M283 441.03c47.23 62.67 81 147.68 75.35 231.57-5.41 97.54-42.4 153.75-107.34 221.3l-16.76.39c76.88-73.72 110.9-136.8 113.58-220.04 3.08-95.72-26.15-159.39-75.4-227.24zm-151.08 86.14.17 22.83L293 480.98l-23.2-34.18zm377.15-74.76-17.52.88.58 17.68 18.26-.44zm156.14-3.36L769.5 585.79l-25.8 19.16-99.42-128.49zm-81.73 9.34 31.21.48-12.07 20.02-30.16-.24zm-5.76.5c-14.36 26.68-34.15 57.11-45.27 106.3l-102.75.08c-.19-11.22-1.65-22.45-3.32-33.68 44.28-16.2 78.58-40.43 103.8-72.45zm19 1.4-13.4 7.72 8.18 9.41 14.77-5.65zm-122.3 9.83-4.43 17.42 16.65 6.42 3.08-20.7zm95.8 13.02 29.95.18-12.61 25.18-29.67-.44zm71.3-3.3 98.68 127.91-9.25 7.32-96.44-125.03zm-59.94 5.33L568.1 496.4l10.16 11.73 12.44-9.94c.27-.2-9.1-13.03-9.1-13.03m-130.97.92-4.14 16.94 17.31 4.6 3.1-18.16zm-23.95 11.27-3.52 16.67 16.31 4.4 3.44-16.07zM292 495.68c.84-.16-2.73 19.85-7.97 23.45-2.51 1.73-3.8 1.35-5.99-1-1.49-1.62-8.28-12.68-8.28-12.68l5.8-2.92c7.03 11.25 7.03 5.81 9.69-3.77zm-27.05 11.53c2.3-.02 5.08 2.84 8.23 8.37 4.55 8 4.4 8.51-3.08 10.82-13.45 3.56-18.46 4.41-14.32-4.47 4.46-9.56 6.22-14.7 9.17-14.72m40.06-1.59 9.2 15.76c-36.92 94.01-96.47 161.45-178.44 202.25l-.19-15.61c96.65-55.01 136.27-120 169.43-202.4m251.04 6.8 29.05.52-7.76 22.23-30.89-.23zm-299.82-.97c-23.66 56.37-55.98 105.55-120.6 147.07l-.26-14.97C207.94 599.8 239.3 517.89 239.3 517.86zm367.31-.1c17.2.48 35.3 19.23 33.46 34.7-1.29 10.9.8 18.98 3.76 14.52 6.56-9.86 25.87-3.3 25.7 8.53-.1 6.3-4.3 7.34-6.72 1.65-3.57-8.4-13.59-8.61-15.07.2-1.39 8.25 5.61 14.31 24.31 21.07 21.92 5.14 35.11 24.79 27.32 36.08q-4.08 4.49-4.85 2.17c-.14-.44-.68-2.77-1.19-5.17-2.48-11.83-8.15-16.8-15.05-12.74-3.45 2.04-3 4.74-1 8.3 2.69 4.73 1 6.57-3.8 4.16-7.58-3.82-10.09-12.84-2.74-17 8.75-3.5 5.79-4.26-5.38-8.03-23.79-8.13-33.99-23.03-35.24-51.43.45-12.94-1.31-17.56-7.4-19.33-5.57-1.62-11.88 5.46-7.89 9.2 2.18 2.02 3.95 3.86 2.8 4.98-3.7 3.59-12.95-2.24-12.85-8.49.06-4.08 1.6-4.93 7.72-9.73 1.7-1.33.25-3.85-2.23-3.88-9.35 3.01-8.69-9.35-3.66-9.76m-53.88 3.28-14.52 8.35 7.56 10.57 16.1-7.55zM287 522.83a3.03 3.03 0 0 1 3.03 3.02 3.05 3.05 0 0 1-3.04 3.04 3.03 3.03 0 0 1-3.01-3.04 3 3 0 0 1 3.02-3.01m29.78 1.3c30.66 66.92 37.95 143.45 16.61 219.92l-82.8-107.73c31.77-35.77 53.13-76.72 66.19-112.18m-112 4.91L130.9 560.1l-.4 55.4c41.28-28.17 58.78-57 74.29-86.44m71.02-.46c7.28-.23 3.69 19.42-5.76 26.13-3.47 2.66-5.81 2.34-6.95-2.99-.6-2.76-3.5-8.6-7.16-13.3-4.27-5.48-4.22-5.61 2-6 6.87.1 12.5-3.2 17.87-3.84m-7.2 8.35c-5.37-.08-6.98 2.43-3.78 5.87 2.7 2.9 4.83 2.28 6.64-1.9 1.1-2.56.11-3.93-2.85-3.97m-133.27 71.87.18-47.03 63.18-26.6c-12.67 27.47-36.13 54.71-63.36 73.63m561.32 37.98-8.41 8.46-81.58-106.33 5.12-13.42zM249.63 539.24c2.73.04 8.94 9.53 10.68 16.33 1.3 5.05-.08 6.12-9.66 7.54-3.96 1.1-14.69.04-13.81-2.81 1.55-4.12 11.82-21.07 12.79-21.06m295.52 1.09 29.76.32-6.82 24.42-31.18-.47zm13.15 1.49-13.86 9.59 10.96 10.8 14.68-9.07zm46.69 10.5 82.52 107.1c-24.62 31.31-49.17 67.28-65.32 114.83-29.38-68.72-40.13-135.6-17.2-221.93m-335.14 9.11a3 3 0 0 1 3.03 3.02 3.04 3.04 0 0 1-3.03 3.04 3.03 3.03 0 0 1-3.02-3.04 3 3 0 0 1 3.02-3.02m-9.5 4.08c5.16.37.3 16.78-7.46 22.76-6.11 4.72-8.74 2.53-10.15-6.1-.52-3.12-3.8-8.42-6.68-12.6-3.22-4.68-1.9-5.42 6.28-3.55 5.7 1.11 12.74-.24 18.02-.5m275.78 4 31.2.2-4.8 37.07zm-304.08 1.72c4.92 4.58 11.13 20.67 7.94 21.83-3.7 1.34-20.48-.6-22.36-2.54-1.3-1.33-1.3-1.34 1.45-5a376 376 0 0 0 6.39-8.95c1.81-2.13 3.82-7.88 6.58-5.34m17.37.55c-4.75.16-5.06.81-2.81 5.93 1.84 4.18 3.11 4.55 6.27 1.81 4.4-3.81 2.56-7.94-3.46-7.74m547.8 3.22 1.12 18.28c-119.97 59.5-164.89 200-165.54 199.99l-8.7-16.2C679.14 641.41 752.36 602.13 797.22 575m-565.3 21.62c7.14-.15 9.22-.64 9.19 2 .08 7.13-6.58 17.23-14.7 21.05-5.48 2.56-5.6 2.62-6.22-3.82a49 49 0 0 0-4.67-16.44c-.8-1.88-3.9-6.2 0-4.97s11.94 2.27 16.4 2.18m16.02-1.66a3 3 0 0 1 3.01 3.02 3 3 0 0 1-3 3.02 3 3 0 0 1-3.03-3.02 3 3 0 0 1 3.02-3.02m-38.23 4.17c1.3-.04 2.53 2.62 4 6.54 3.2 8.5 4.2 13.12 3.24 15.12-1.46 3.09-21.15 1.1-24.5-2.35-.63.48 14.48-17.6 17.26-19.3m14.18 2.1c-2.82.2-1.33 1.9.76 6.82 1.45 3.41 3.41 3.96 5.66 1.57 3-3.2 3.4-5.74 1.5-7.1-2.78-1.12-4.83-1.27-7.92-1.29m574.17 18.5.1 6.12c-4.67-1.4-7.57-3.37-12.9-5.14-3.26-1.1-5.2-1.88-2.3-5.32 4.51-5.39 9.36-8.75 14.86-12.1l.04 6.94c-8.8 3.9-7.95 7.5.2 9.5m-346.78-6.23h33.14v21.88h25.92l-2.01 24.94h-23.91v21.88h-33.15v-21.88H427.6l1.91-24.94h21.77zm74.85.08c-16.78 83.16-1.39 171.45 24.5 243.38l-13.06 1.44C517.4 800.9 501.35 719 517.68 613.64c0 0 5.84-.1 8.46-.04m246 1.61a3 3 0 0 1 3.02 3.02 3 3 0 0 1-3.02 3.01 3.02 3.02 0 1 1 0-6.03M189.1 622.2c1.1-.03 4.46 1.42 7.46 2.25 4.5 1.25 8.04 1.8 12.15 1.87 8.23.16 9.31.09 5.77 6.86-2.55 4.88-8.3 11.33-12.33 13.3-5.7 3.04-7.88 2.62-7.54-2.98.04-3.8-1.61-10.41-3.76-15.13-1.68-3.66-3.58-6.12-1.75-6.17m34.85 2.67a3.03 3.03 0 0 1 3.04 3.02 3.05 3.05 0 0 1-3.04 3.04 3.03 3.03 0 0 1-3.01-3.04 3 3 0 0 1 3-3.02m557.69-.4c2.33-.05 6.34 1.38 10 3.16 9.68 4.7 9.42 5.79-3.7 15.1-9.54 7.24-11.8 8.05-12.14-3.35-.34-9.61.7-14.8 5.84-14.9m-597.5 2.75c3.85.05 8.1 20.08 4.65 21.86-5.39 2.78-22.05-2.64-21.99-7.2.02-1.48 15.64-14.69 17.34-14.66m585.91-.83c2.3-.1 2.6 1.7 2.4 8.09-.11 3.38.46 8.9.7 11.46.5 5.34.03 5.7-4.18 3.32-2.7-1.53-8.18-4.03-14.12-4.54-4.86-.42-5.22-2.43-3.71-5.63 4.3-7.1 12.07-12.1 18.91-12.7m-571.63 3.02c-3.36-.02-2.53 1.76-.45 6.78 1.48 3.55 4.04 3.9 6.66.86 3.68-4.24 2.96-6.48-2.4-7.3a37 37 0 0 0-3.81-.34m567.19 4.77c-1.4.13-3.3 1.23-4.22 1.83-3.16 1.97-4.44 3.4.13 4.96 4.08 1.4 6.24 2 5.92-1.5-.2-2.12-.03-5.19-1.83-5.3m-311.09 2.6v21.8h26.38v-21.8zm287.52 1.9a3 3 0 0 1 3.01 3 3.02 3.02 0 0 1-6.03 0 3 3 0 0 1 3.01-3m-493.93 3.4 83.24 106.83-5.53 13.94-85.74-112.8zm550.52-.51.17 13.96c-9.4 6.88-69.12 50.16-100.02 123l-16.17 6.88c22.77-62.68 71.46-116.38 116.01-143.84m-633.24 5.91c5.42 1.65 10.6 5.42 15.71 6.1 5.88.71 7.91.34 6.32 3.37-3.57 6.8-10.3 13.93-17.4 16.25-5.08 1.67-7.48 1.05-6.68-2.1a54 54 0 0 0 1.55-16.14c.8-2.93-1.7-7.04.5-7.48m-6.35 1.25c3.45 2.95 2.77 21.62-1.09 25.64-2.01 2.1-7.86.18-16.63-4.79-5.74-3.25-6.8-5.23-3.94-7.22 4.85-2.94 19.05-14.33 21.66-13.63m594.7.4q2.69-.05 6.7.89c10.37 2.33 12.69 4.7 3.84 11.72-3.27 2.6-6.73 5.82-7.74 7.06-4.76 5.83-8.07 1.6-9.11-9-.73-7.4.39-11.63 6.31-10.67m-12.99 1c1.69 0 2.77.88 2.74 2.98-.04 2.68 1.88 14.27 2.95 17.46 1.87 5.43.52 6.65-3.98 4.28-3.27-1.76-11.94-3.1-16.63-2.73-5.34.42-5.18-1.01-3.62-5.5 2.76-7.94 13.48-16.48 18.54-16.49M170.42 654c-2.02 0-2.1 2.72-.72 8.99.44 1.99 2.16 1.87 5.39-.4 3.82-2.7 3.67-4.38-.65-6.96q-2.65-1.62-4.02-1.63m23.6.68a3 3 0 0 1 3 3.02 3.02 3.02 0 1 1-3-3.02m536.83 11.73c1.45 1.4 6.8 1.35 7.73.5 1.41-1.3.76-7.36-.42-8.09-3.02-1.02-9.1 5.35-7.3 7.59m-499.62 11.52c1.82 8.63 13.96 8.15 12.59-.84-.8-5.26-.99-5.15 1.65-5.03 12.53.61 10.36 20.37-4.08 18.84-3.02.36-3.42 1.6-.87 2.66 2.54 1.05 12.25 3.54 13.74 3.54 15.71-.06 38.39 24.1 37.83 45.55-.37 14.03 4.39 24.12 9.25 25.26 3.87.9 9.48-2.6 8.99-6.9-.67-5.92 4.14-4.07 6.92.18 4.23 5.88-1.23 14.36-11.3 13.7-4.3.83 3.14 3.56 8.66 5.15 5 .29.77 6.44-.16 7.54-2.82 3.28-12.08.77-19.34-5.1-8.92-7.19-12.75-16.84-13.8-35.8-.68-12.17-1.59-14.65-5.13-9.62-6.37 11.2-21.63 5.72-23.53-6.11-1.07-6.27 4.45-10.8 6.23-5.11 4.73 11.8 16.3 8.97 14.42-2.76-1.24-7.74-8.98-12-24.27-16.31-18.38-5.18-23.85-11.47-27.44-26.55-1.58-6.67-1.33-10.16 2.2-13.65 1.74-1.73 3.96-3.48 3.96-3.48s2.46 10.14 3.48 14.84m480.88-9.57a3 3 0 0 1 3.02 3.02 3 3 0 0 1-3.02 3.01 3 3 0 0 1-3.01-3.01 3 3 0 0 1 3.01-3.02m-577.01 2.87c5.47 1.98 10.18 4.92 15.82 6.84 3.66 1.24 2.66 4.17-1.13 8.34-4.23 4.99-8.39 7.44-14.25 10.23l.06-8.44c7.13-2.5 11.66-8.43-.3-10.33zm591.26 4.7c2.07.03 5 .1 8.45.81 8.72 1.8 9.74 2.58 4.5 8.71a663 663 0 0 0-6.41 7.62c-5.16 7.19-7.94 4.72-10.34-4.56-2.98-9.7-3.66-13.42 3.8-12.57m-563.91 3.46a3.02 3.02 0 0 1 0 6.03 3 3 0 0 1-3.01-3.02 3 3 0 0 1 3-3.01m555.12 6.57c.83 3.06 2.1 6.96 3.06 9.72 4.73 10.44 1.74 6.4-6.75 5.49-5.7-.62-14.77.33-17.02-1.25-.97-1.27-.07-4.62 1.76-8.4 2.57-5.33 7.25-9.87 10.74-11.93 8.85-4.08 6.78 1.11 8.21 6.37m-509.65-3.72L303 807.95l-7.45 10.63-97.8-129.25zm595.88.47c-49.42 35.72-68.4 79.07-72.26 84.73L804 739.49zm-94.36 4.1c-2.71.74-6.6 5.77-4.93 7.74 1 1.03 4.98 1.17 6.9.46 2.94-1.08.93-8.22-1.97-8.2M292.76 822.76l-20.25 25.53-105.52-136.5 26.62-19.23zM798.54 690.1l.74 46.91-61.98 25.85c20.76-35.07 41.08-56.74 61.24-72.76m-423.8 3.98 24.82 32.31-30.33-.68zm313.89 2.64a3 3 0 0 1 3.02 3.02 3.02 3.02 0 0 1-6.04 0 3 3 0 0 1 3.02-3.02m18.2 7.65c11.35.15 15.13.77 11.84 6.35-4.41 5.44-7.01 10.62-11.82 15.65-2.77 2.83-6.24-3-9.14-12.3-2.34-7.53-1.16-9.43 3.3-9.49 4.44-.06 5.2-.22 5.82-.21m-13.12 10.17a66 66 0 0 0 4.83 10.84c1.72 2.98 3.66 6.3 3.54 6.88-.3 1.4-1.62 1.5-4.6.38-6.48-2.91-21.68.17-22.09-1.27-2.25-3.22 1.14-12 7.52-18.07 3.12-2.97 5.98-4.9 7.62-4.93 1.65-.03 1.95 2.25 3.18 6.17m-530.37-2.3 107.38 139.44-7.44 9.04L154.71 718.6s-17.15 8.4-22.2 11.2l.69 72.12-2.94-.14.44 365.3 59.92-59.74-.78-247.87c12.71 11.96 23.59 24.71 38.14 36.43l24.92-.2c65.05-66.15 100.68-122.77 108.49-224.17 5.23-67.83-17.3-153.13-77.08-235.8l-14.6 8.86 28.85 43.47-61.1 27.07c-24.33 51.3-53.17 98.64-105.93 125.75l-.3 66.39-.92 1.37.7 20.85zM688.33 717c-2.86.2-7.32 6.36-5.27 8.46 2.4 1.14 6.12 1.06 7.67-1 1.06-2.01.79-6.28-2.4-7.46M368 731.36l31.54.17-8.25 27.06-30.7-.58zm299.56-.12a3 3 0 0 1 3.02 3.01 3 3 0 0 1-3.02 3.02 3 3 0 0 1-3.02-3.02 3 3 0 0 1 3.02-3.01m-160.66.82 4.08 35.13c-34.4 12.5-71.48 33.72-103.92 72.73-5.54-.36-49.76.38-49.76.38 1.1.17 40.97-75.08 45.56-107.73zM382 735.33l-14.45 9.94 11.3 12.04 14.96-10.13zm300.96.15c3.08-.02 7.2.36 10.5.95 5.33 1.03 6.11 1.13 4.32 5.53-2.4 5.83-7.8 16.36-9.17 17.2-4.89 3.02-15.74-18.69-12.04-22.44.98-.77 3.05-1.22 6.39-1.24m-13.83 6.68c1.4-.13 3.26 2.59 3.81 4.93.67 2.84 5.6 10.01 8.7 13.45 3.9 4.31 3.7 4.92-1.9 5.36-6.65.53-13.15 1.84-16.9 3.2-5.8 2.11-6.59 1.65-5.84-5.15 1.12-10.2 7.94-21.43 12.13-21.8m-5.1 21.14c.73 1.98 9.74-1.65 10.24-4.02-.09-1.07-3.62-7.23-5.75-7.51-3.6.56-5.1 8.74-4.49 11.53m-304.28-1.38 29.8.28-9.77 24.55-29.47-.07zm13.34 3.29-14.28 9.03L369.94 785l13.68-9.43zm303.1 4.45c2.52-.03 5.2.22 5.77 1.14 1.58 2.61-4.87 17.18-4.87 17.18l-10.5 4.17c-2.27-4.65-6.13-9.48-7.06-14.52-.38-2.2.74-3 3.17-4.37a32 32 0 0 1 13.48-3.6m-28.14 1.19a3 3 0 0 1 3.02 3.02 3 3 0 0 1-3.02 3.02 3.02 3.02 0 0 1 0-6.04m-135.91.42s6.43 36.4 6.78 32.38c-49.7 18.72-78.78 46.35-92.55 73.3l-93.26-.08 20.81-32.3 55.21-.27c26.69-32.38 59.61-58.21 103-73.03m-11.94 8.56-4.6 14.7 13.94 8.9 5.25-15.79zm152.77.3c1.18-.12 2.35 1.87 4.75 6.13 1.77 3.14 4.1 7.7 4.1 7.7l-4.17 1.56c-3.36-11.5-6.45-7.22-6.8 2.92l-5.72 2.28s.62-9.78 3.88-15.5c1.88-3.28 2.92-5 3.96-5.1m-303.99 10.05 28.9.36-12.08 25.04-29.38-.8zm126.06 2.02-2.29 18.58 15.57 3.3 2.13-17.66zm-113.76.21-14.28 9.24 9.36 12.32 13.74-9.23zm91.44 16.27-2.95 17.12 14.6 3.32 3.32-17.22zm-317.32 1.02 36.54 36.2 2.01 252.72-36.33 36.44zm198.82 9.25c-.13.2 29.15.83 29.15.83l-11.72 21.15-10.01-.44 13.17-9-8.44-10.8-13.54 8.83 7.54 10.92-19.77-.42zm188.5 6.25 9.92 32.8-11.93 2.06-8.96-30.85c3.66-1.9 7.3-2.83 10.97-4.01m-93.75 2.05.2 19.67 15.93 1.34.62-18.44zm79.18 3.14 9.08 31.15-7.57 2.15-10.85-29.56a31 31 0 0 1 9.34-3.74m-13.82 6.43L506 867.3c-16.12 6.54-32.83 20.52-45.41 34.48-9.32-6.85-14.81-7.57-20.57-9.12 15.87-29.56 34.6-45.07 54.31-55.86m-176.07 7.64 30.65.93-21.32 31.84-34.67-.05zm91.24 1.2-1.99 18.61 16.41 9.7 2.5-19.13zm-19.77 2.6-11.67 12.33 12.4 14.14 11.36-14.76zm-26.08.65-13.86 12.7 11.02 14.39 12.67-14.46zm-176.56 11.86 1.36 246.87-50.91 49.34-.38-13.28 40.47-42.26c.05-83.51-.22-167.01-.5-250.52zm135.47-7.98-14.06 19.17 16.67.04 12.09-18.57zm-86.7 119.47c-5.54 19.94-31.1 41.58-31.56 41.21 12.65 18.14 12.23 43.99 1.07 56.73.05-.29 20.34 16.56 23.19 25.3 1.6 3.48 2.25 7.72 4.28 11.18.54.92 2.25 3.19 2.25 3.19 49.57-50.25 25.96-109.15.77-137.61m.74 5.2c48.12 59.71 16.4 114.35-.4 129.6l-3.2-5.3c35.76-41.56 20.6-92.61-.23-116.78zm-5.2 11.63c.31.97 2.19 3.78.8 3.6l-2.42-.48zm-.37 6.65c1.04 0 1.92.33 2.39 1.05.98 1.63-4 15.36-7.06 12.16-.93-1.81-2.02-3.39-2.87-5.26-1-2.25-.35-3.32 1.95-5.55a8.6 8.6 0 0 1 5.6-2.4m6.9 3.72c2.44.2 5.9 7.85 6.22 13.32.16.57-8.21-1.29-10.43-3.84.26-2.24 2.36-7.94 4.22-9.48m-18.82 6.26c14.48 29.12 13.58 51.88.82 72.8l-10-8.55c6.73-15.91 10.05-32.89-1.26-54.51zm9.77 7.28c1-.09 4.1.37 6.84 1.25 9.69 3.1 10.05 9.44.72 14.1-3.87 1.92-5.07 1.07-7.3-8.63-1.1-4.8-1.93-6.57-.26-6.72m18.72 11.16c1.87-.01 2.73 3.53 2.96 9.62.21 5.78-1.01 6.24-5.67 2.11-5.04-4.47-5.9-5.52-1.29-9.2 1.35-1.06 3.15-2.52 4-2.53m-13.21 9.56c.92-.08 3.6 1.62 6.21 3.61 6.63 5.06 5.16 8.52-2.37 10.97-5.22 1.69-4.96 1.91-4.83-7.12.07-4.47-.2-7.36.99-7.46m87.77 8.21c-8.1 2.06-11.5 9.28-8.8 15.77 1.21 2.95 3.07 2.98.9 4.79-2.44 2.8-3.73 9.29-1.06 11.66 3.16 1.8 3.97-1.32.65 4.78l-60.96 111.98 365.9-.69-43.98-82.36c.1-.12 3.52-13.59-3.52-15.21-2.26-.52-3.56-2.63-4.01-4.63.57-5.73-2.03-8.17-4.22-11.13-34.79 4.91-65 2.47-89.95-3.15-35.96-8.09-61.65-22.08-78.36-26.48-23.04-6.07-50.85-8.7-72.6-5.33m19.72.78c28.35-.17 60.08 8.5 82.3 18.12 23.04 9.51 47.45 16.61 72.11 20.25 20.36 2.56 40.66 1.28 60.13-.27 2.13-.32 4.34-.03 5.92 1.66 4.04 4.48 1.29 7.29-8.8 8.22a248 248 0 0 1-54.15-1.91c-28.23-3.24-58.16-11.78-83.98-22.49-32.28-12.1-61.92-16.16-85.34-12.59-12.86 1.97-14.75 2.27-14.7-1.18.1-6.74 5.68-9.82 26.5-9.81m-92.9 19.54c-1.23 2.86-10.05-6.49-9.96-9.13.18-1.16 7.32-5.82 10.16-7.71 1.36-1.05 1.27-.51 1.29.73.05 3.52-.23 12.62-1.48 16.11m-13.58-6.89c4.07.54 10.76 11.53 4.87 13.23-5.22 1.51-9.96 2.48-10.6-1.02 2.69-8.6 3.7-11.99 5.25-12.19q.25-.03.48-.02m236.61 37.51c25.97 4.49 60.07 7.18 82.35 5.44 12.77-1.29 15.46-.88 15.38 4.45-.05 3.34.32 3.26-16.17 3.24-13.7.91-26.03-.56-39.3-1.25-27.44-1.35-52.37-6.06-75.41-14.06-25.57-6.63-47.71-19.37-72.73-22-22.94-2.25-43.58 1.81-47.9 4.22-1.45-.02-2.2-2.16-2.12-4.14.08-1.93.8-3.48 2.42-4.71 65.75-16.59 100.96 18.94 153.48 28.81M244 1070.88c2.2.03 1.5 3.27-2.09 10.14-3.05 5.84-4.25 5.81-5.98-.18-1.83-6.41-1.66-7.11 2-8.05 2.15-.51 3.97-1.64 6.07-1.91m-15.34 3.26c2.56.04 6.21 11.67 4.34 13.86-1.48 1.73-6.82.55-8.39-1.49-2.5-3.29.7-12.42 4.05-12.37m114.95 3.14c10.2-.1 20.36.99 29.7 2.6-5.37 1.99-10.73 3.83-16.31 7.05a99 99 0 0 0-13.4-9.65m13.26 14.12c36.05-20.1 51.26 7.65 56.48 12.13 31.51-6.98 37.68-3.55 55.26 15.45 31.55-15.43 46.85-2.32 60.02 5.98 15.46-14.43 35.05-14.84 45.26-7.59 1.9 3.2 4.56 7.25 4.78 8.46.17.94-1.27-.16-4.83-2.7-18.53-13.26-49.28 3.26-41.06 20.74 2.21 4.71 1.85 6.74-1.45 8.63-4.7 3.17-10.47-2.1-7.2-7.48 5.46-9 1.35-16.52-11.95-23.48-18.74-9.8-49.36 1.18-43.05 15.63 4.03 4.62.29 7.87-5.03 7.71-6.03-.19-8.07-4.23-4.21-8.54 4.82-5.5 3.56-11.07-2.06-17.43-16.83-23.97-50.88-14.47-46.37 6.54 1.98 5.22-3.65 7.32-9.5 5.01-3.7-1.48-3.15-7.23.92-9.26 4.68-.47 5.34-7.25 4.78-11.6-.81-6.33-10.15-12.57-19.39-15.88a42 42 0 0 0-17.8-2.47c-10.34.95-16.12 7.98-14.42 18.51 1 6.21-.73 12.65-8.02 9.24-4-1.87-3-6.39 1.09-10.55 14.32-13.99-14.52-31.01-31.94-19.28-2.96 2.42-5.1 2.84-5.1 2.84 10.91-27.19 45.1-1.72 44.8-.61m47.46-3.66 21.77 8.2c-5.02.98-8.55 2.4-12.11 3.81zm-56.84 8.84c-20.09-3.81-21.18 18.64-8.09 22.3-18 24.74 29.15 34.35 20.5 3.81 23.9 4.31 19.57-22.88 1.8-22.63 4.16-10.14 36.96-2.46 35.55 5.07-22.18 2.35-13.32 22.55-3.72 22.58-23.2 21.95 23.21 42.19 21.98 9.09 18.62 3.92 20.8-20.79 2.9-22.42 6.56-9.22 29.97-3.41 36.46 7.14-18.47 2.45-17.32 18.67-2.86 21.3-18.33 23.32 26.77 31.94 22.08 4.83 16.16 5.55 25.03-16.01 4.1-22.17 21.44-12.77 44.72 6.27 42.2 6.65-24.47-1.44-19.6 23.08-1.88 21.75-11.27 25.46 33.37 26.88 22.05.47 20.08.37 18.32-22.9-.92-24.46 12.12-8.83 25.78-9.6 34.57-1.34-18.32 4.82-10.7 26.1 7.71 20.21 1.7 17.81 16.19 14.03 16.51 13.49l12.96 24.17-351.08.57 29.97-55.31c17.7.92 17.08-16.13 16.3-16.55 11.78 8.41 24.44-12.49 7.21-18.49 14.07-14.73 34.95-1.12 33.7-.06m-114.3-1.54c-.72.75-.91 1.2-2.12.08-3.06-3.5 5.26-3.8 2.13-.08m72.6 9.26c1.54 1.27.48 4.73-.78 5.92-3.16 3.39-4.23 3.12-1.44-2.73.82-1.77 1.6-3.21 2.22-3.19m153.8 1.57 18.26 4.41-8.67 4.89c-3.2-3.48-6.28-6.48-9.58-9.3m57.05 7.34 19.85 1.28c-2.63 1.78-5.2 3.44-8.41 6.7-2.5-2.66-7.23-5.32-11.44-7.98m66.13 20.25c1.1 2.31 5.49 10.31 5.07 10.52-6.41 1.12-8.14-8.44-5.07-10.52"/></svg>