<svg xmlns="http://www.w3.org/2000/svg" fill-rule="evenodd" stroke-linejoin="round" stroke-miterlimit="2" clip-rule="evenodd" viewBox="0 0 934 1300"><g fill-rule="nonzero"><path fill="#e2cf00" d="m340.55 1099.18 226.04 4.83c20.02 27.48 60.22 83.52 60.22 83.52l-365.2 4.81zm-94.58 19.14c9.76-19.59 11.64-38.46 9.79-65.65-1.47-20.87 11.67-37.12 25.22-30.9 10.48 4.82 5.64 24.57-5.19 20.39-4.15-1.6-7.79-.15-7.23 9.22.97 23.12 7.16 49.15 1.83 71.31-3.71 21.53-33.5 11.61-24.42-4.37m-91.52-30.2c-11.5-17.16 9.11-33.23 22.02-25.31 6.12 2.84 5.26 9.04-2.46 5.74-10.76-4.61-22.36 11.69-12.99 18.25 4.32 3.01 5.96 2.6 2.68-1.17-8.74-10.09 13.6-14.56 12.96-7.91-1.53 8.1-1.72 11.51-2.46 13.1-4.55 7.07-13.3 3.46-19.75-2.7m32.1-72.15c-12.44-15.42 1.81-27.54 1.63-27.1 3.69-3.97-29.62-65.68-25.4-66.08 42.05-4.45 84.55-1.09 126.7.22.02 0-22.47 40.17-31.43 60.05-3.6 8 4.83 17.43 1.34 23.38-10.85 11.79-4.1 24.85-10.87 25.43-18.97-2.42-37.73-5.55-58.77-1.36-1.55 0-1.71-8.8-3.2-14.54m182.05-428.7c21.27 107.6-10.08 221.66-81.96 296.9-10.15-9.69-17.93-28.08-28.05-40.08-28.09-8.38-48.3 1.49-68 11.15-17.5-10.02-37.21-15.92-56.43-15.67l-.62-16.64c19.45-.42 39.97 1.37 57.29 12.02l27.09-10.93-84.47-87.1 1.15-14.89 102.5 102.8 13.19.47c-29.01-76.65-3.63-198.4 118.31-238.03m142.92 134.96 14.82 70.27S448 876.38 399.56 916.2l-36.5-3.3s49.86-88.15 40.72-81.4zm294.51 96.37c-34.8 38.73-76.36 63.35-122.53 90.49-18.46-20.5-40.86-43.04-53.8-63.26 40.28-21.4 78.67-37.96 118.11-75.41-2.16 2.42-50.3 18.66-50.15 16.79-1.74 8-.7 12.92-8.52 15.03-9.28-12.88-18.25-23.33-32.88-29.09-6.13.55-14.27-3.48-14.27-3.48 4.1-.83 2.3-50.25.01-50.82 0 0 1.2-1.46 11.91-1.25 19.14-1.3 31.5-24.31 43.37-32.2 37.09-3.02 69.95.6 106.49-.37-.28 43.98 2.27 89.59 2.26 133.57M570.48 707.2c-.93-1.86-10.3-74.75-1.4-120.45 1.64-10.72 18.63-14.36 21.89-22.34 5.4-17.36-2.72-38.8 1.57-58.25 4.35-19.8 13.77-30.95 22-45.67 8.92-15.94 21.69-35.84 35.85-47.73 4.15-4.04 18.66 8.98 29.5 31.5 31.5 19.73 71.9-5.73 71.9-5.73s15.67 12.72 51.12 19.67l-.61 13.7c-.18 3.98-39.87-4.24-48.42-12.19 0 0-29.6 9.86-29.6 11.66 0 7.67 78.17 79.72 78.17 79.72l.44 17.77c-11.72-16.23-103.4-94.24-103.4-94.24 20.32 118.69-28.23 192.6-129.01 232.58m-131.17-23.23-1.75-69.9 66.8.8 2.75 70.62zm-305.68-75.56c1.78-2.48-2.6-130.27-2.32-130.27 42.51-42.09 84.1-65.6 125.79-91.2 18.85 18.58 34.87 34.26 48.76 56.77l-57.52 35.25c2.19 8.59-3.49 11.68 33.6 45.13.62-2.29 12.84-9.1 14.97 1.09-5.02 21.5 2.23 39.78 3.18 51.33-5.06 6.77-16.38-.5-16.38-.5-7.33-7.6-36.03 29.92-44.22 34.1-35.76-1.32-107.86 1.1-105.86-1.7m402.44-227.88c.47-.46 36.36.27 35.88 1.56-6.53 17.44-22.77 48.41-37.63 84.14-17.11 30.46-40.85 48.4-61.13 68.36-16.2 15.96-30.66 41.1-41.73 34.58-6.76-21.62-8.32-40.79-15.77-64.74-3.41-14.19 17.3-23.43 120.38-123.9M693.14 260.7c13.15 5.58 50.09 2.66 55.96.15 7.5 5.07 2.82 11.84 1.87 15.6 7.71 9.71 11.93 13.16 3.18 28.82-2 0 26.92 64.83 27.7 64.88 0 0-30.57-14.44-41.35-24.2l-21.09 27.91-24.5-31.51c-.08 2.84-47.19 33.96-47.76 32.46-1.48-1.48 43.02-49.17 34.2-77.17-2.14-6.75 2.73-13.6 6.06-19.55 2.28-4.08-.79-11.97 5.73-17.39m-24.45-5.8c2-2.29-11.42-60.9 3.12-84.56 6.16-8.6 17.31-9.04 21.96-2 3.57 9.8-7.04 23.43-9.17 30.09-6.9 18.55 3.35 43.03-1.65 60.56-14.97 38.3-41.49-3.77-14.26-4.1m99.67-26.03c-7.9.34-2.38-23.14-1.08-29.86-.03-1.33 14.44-4.7 19.66 4.54 8.42 13.8-1.7 31.2-18.58 25.32M674.25 110.5l-74.35 90c-75.17-8.61-150.6-14.08-227.46-2.37l-61.82-85.86z"/><path fill="#131f67" d="m809.16 103.9-687.79 2.12 7.55 1091.81 686.22-4.05zm-158.25 6.68q11.32 0 22.63.04L591.2 211.48l-2.03.67c5.49 16 13.32 35.96 20.8 51.11 11.91 24.5 41.85 69.5 23.17 105.5-1.83 3.08-3.53 4.59-5.82 4.57-3.17-.01-3.11-1.87-1.23-5.48 4.16-7.95 6.99-26.8 5.33-36.78-1.07-6.37-4.62-16.19-11.37-31.02-31.3-57.54-41.07-88.21-39.3-88.21a7 7 0 0 0-2.24-.89l-3.08-1.01c10.85 36.37 28.47 66.95 42.4 95.27 11.45 26.31 12.68 36.52 6.7 55.68-2.32 7.41-6.5 12.16-10.62 12.14-3.09-.01-2.91-.63-.8-4.4 10.95-19.59 8.42-40.97-5.2-65.85-19.8-41.1-31.67-67.09-38.72-93.45-.18-.01-3.6-1.16-4.85-1.45 5.87 27.44 22.27 59.08 37.54 91.46 12.62 24.94 16.25 43.11 11.7 57.47-1.49 6.22-6.25 15.49-12.26 15.76-2.35-.01-2.73-1.23-.5-4.44 9.35-15.97 11.01-30.7-5.73-64.23-15.39-30.83-30.83-65.33-36.1-95.47-.33-2.48-7.02-5.4-5.58-1.3 8.26 35.6 24.71 72.05 42.18 107.6 9.84 22.06 10.86 36.18 3.48 48.53-4.13 6.9-5.18 8.47-8.28 8.53-3.65.08-3.59.22-1.57-3.98 8.93-18.55 7.46-34.9-4.47-61.72-16.36-36.77-30.14-67.2-36.02-99.57-1.06-.3-6.6-2.44-5.8-.82a524 524 0 0 0 32.14 88.38c4.7 10.04 12.33 29.57 14.78 39.36 4.66 18.63-5.85 44.2-19.62 45.5-5.12.48-4.49-2.07 1.23-7.37 9.84-9.13 11.75-23.69 8.41-40.58-2.5-13-6.83-26.96-12.77-41.14-12.01-28.68-25.08-58.69-29.21-85.16.13-2.37-5.37-2.38-3.82.1 2.97 18.61 10.06 39.81 17.83 59.5 8.5 21.53 21.15 45.67 25.29 72.1 3.39 21.63-10.16 42.05-26.59 43.27-19.78 1.47-23.68-18.06-18.92-27.2 7.76-13.67 30.32-5.87 23.61 8.1-3.85 8.05-15.63 5.93-15.13-2.89-.14-.8 1.13-3.22.9-3.35-.4-.24-2.14 1.34-2.69 2.33-4 7.14 8.03 16.72 16.39 10.98 28-15.13 9.1-61.26-3.12-89.45-11.82-26.26-20.5-49.99-24.26-74.3-1.02-.7-5.64-1.87-5-1.04 3.4 12.98 4.97 23.92 8.34 34.82 5.3 17.1 14.78 36.23 22.53 55.4 7.03 18.86 14.1 34.89 10.88 54.55-.3 1.82-1.05 4-2.29 5.32-1.26 1.32-2.3 1.12-2.67-3.9-.13-.67-1.01-1.57-1.14-2.44a61 61 0 0 0-1.73-21.67c-1.63-5.82-4.76-11.76-11.34-23.07-2.6-4.2-9.4-17.08-7.01-8.18 1.37 5.03 6.03 16.2 10.88 24.3 3.01 5.03 6.18 18.76 5.24 21.41-.99 2.6-3.29 2.74-4.36 1.85-.96-.8-.96-4.48-1.2-6.75-1.02-9.32-10.59-25.6-17.23-31.98-4.77-5.31 11.24 22.56 12.41 30 .5 3.14 1.48 5.7.4 7.24-.7 1.02-2.15 1.03-3.55.67-1.35-.35-1.3-1.28-2.73-6.07-2.46-8.19-5.5-12.31-11.79-19.7-2.16-2.53-3.6.64-.16 4.74 4.76 7.49 8.33 12.28 9.54 21.9-3.08 4.37-4.6 3.52-11.05-7.52-4.25-7.3-6.81-9.17-7.93-9.12-2.83.14-.15 3.62 7.78 16.09 4.1 6.65 4.2 10.78-.47 10.76-1.58 0-10.45-9.74-12.67-13.96-1.84-3.5-4.13-6.18-4.13-1.9 0 1.7 5.49 10.65 9.25 15 5.93 6.85 7.64 8.23 8.4 11.26a136 136 0 0 0 1.58 5.62c1.53 4.93.75 6.34-2.33 3.74-1.39-3.66-2.52-4.04-6.34-6.85-3.23-2.37-7.7-8.52-10.62-12.85-1.11-1.64-2.06-3.71-3.2-5.38-2.87-5.36-6.7-5.83-3.92-.42 1.3 2.5 3.42 6.62 5.65 9.67 3.73 5.3 2.96 8.06-1.47 8.04-1.89-.01-7.19-6.94-10.5-12.35-2.16-3.53-5.53-6.03-5.12-2.53.1.87 2.71 7.07 6.63 11.92 4.25 5.27 4.8 8.08.68 8.06-2.82-.02-5.24-2.7-8.83-8.16-3.41-5.18-5.55-7.01-6.51-6.42-1.22.75 4.9 11.03 9.92 16.64 4.76 5.31 1.27 8.34-4.2 3.62-2.96-2.56-8.9-10.2-10.56-13.84-2.97-6.49-4.9-4.72-2.97.43 2.12 5.67 5.43 11.87 9.42 15.9 2.09 2.1 6.4 3.76 8.5 5.58 5.98 5.14 9.76 9.9 9.27 10.74-17.02.96-30.98-17.13-34.8-28.09-2.71-7.2-5.81-8.26-2.87 1.9 8.3 25.28 34.15 38.4 52.02 27.08 10.79-6.84 1.26-24.63-7.57-18.9-2.4 1.56-2.5 5.98.54 3.62 5.74-4.45 11.5 6.51 5.25 9.75-8.8 4.56-18.56-4.36-12.57-15.18 5.9-11.1 29.61-4.74 24.97 13.2-2.8 8.05-15.1 18.11-25.66 18.3-19.6.38-33.13-14.6-40.68-29.39-.96-1.9-2.7-5.64-4.13-8.7-1.24-2.63-2.22-4.59-2.32-4.57 2.18 17.96 19.4 40.16 34.8 43.83 25.62 6 32.62-9.21 49.38-24.94 0 0 12.24 1.6 12.67 1.33 1.13-.7 23.82-1.7 24.5-1.06-91.68 165.66-84.7 362.34-5.87 511.63 5.21 10.92 6.13 8.85-2.51 6.62-8.92-2.32-17 1.25-24.25-.42-14.99-3.05-18.18 7.15-29.7 12.6-14.36 5.4-11.11 15.35-14.54 24.97-1.08 1.49-1.86 2.7-1.27 2.5.95-.3 4.02-3.13 4.24-5.61.6-6.37 2.87-11.4 5.46-13.94 2.48-2.41 4.2-3.63 4.8-2.59.47.82.13 3.66-1.1 5.96-3.48 6.57 1.14 28.51 1.42 12.9.24-12.4 7.77-26.22 18.32-31.88 8.44-4.11 11.06-3.7 4.19 2.65-7.81 8.29-13.12 17.95-13.43 29.98-.13 5 1.85 9.15 2.57 4.68-.3-22.9 22.66-48.42 47.29-35.74 1.22.88 2.27 2.55 1.9 3.48-23.85-3.99-44.6 9-41.55 39.75 0 0 2.14-6.03 3.34-12.04 3.76-18.83 25.13-27.07 40.12-21.9 2.82 1.18 5.03 5.14 4.64 5.68-18.33-5.73-38.45 11.53-39.62 30.23-.37 6.09-.23 11.3 2.9.33 11.83-41.56 48.35-22.72 43.86-19.32-28.26-3.36-38.5 15.6-37.84 37.51.4 2 1.44 2.67 2.29 4.54 3.77 8.25 5.48 15.33 5.78 30.31-.29 3.86 2.92 28.44-.31 27.4-10.26-3.78-18.07-8.25-35.85-.28-1.6.09-2.13-.79-1.59-2.18q1.1-2.8 8.38-10.96c10.93-11.61 4.65-8.5-4.33-.45-5.8 5.2-4.55 1.65.92-16.11 2.21-7.2.83-8.07-8.7-12.9-9.81-4.96-16.6-5.72-8.27-.52 3.26 2 6.75 4.08 10.45 5.55 4.34 2.37 3.85 3.36.64 13.73-6.22 20.16-8.39 27.52-8.06 41.08.8 32.97 32.32 29.7 50.26 22.28l.76 21.71 67.58 94.88s-236.27-.25-362.68 1.82c7.22-17.27 83.64-90.44 88.19-103.53.43.07-8.48-26.74-13.15-38.41-22.1-55.07-51.16-78.22-34.33-114.41 3.61-7.17 4.24-9.59 7-9.57 3.73.02 4.93 2.48.73 9.5-18.07 30.19 20.47 82.27 33.49 115.49 2.09 5.32 10.81 30.25 12.34 38.65.15 2.57 6.27 3.44 4.56.44-4.8-16.98-10.83-35.51-13.63-42.18-10.3-24.53-21.12-41.27-31.15-65.24-5.6-15.15-8.59-32.65.11-48.35 3.16-5.72 4.07-8.9 6.16-9.2 1.8.01 2.86.62 2.97 2.09.12 1.6-.87 4.24-3.24 8.25-15.18 25.76 11.81 67.39 25.18 97.07 8.72 19.34 16.48 39.69 19.22 58.04.04 1.27 1.72 4.63 5.06 2.34-5.78-34.29-22.78-67.52-37.67-99.55-12.73-25.02-17.5-46.84-.5-67.44 1.48-1.42 4.65-1.18 4.88.93.12 1.43-.98 4.15-3.64 9.64-14.98 31.22 8.22 56.57 19.1 86.34 10.62 24.88 20.49 45.79 24.46 72.3 3 1.14 4.48 2.56 4.8-1.2-7.76-37.47-24.5-71.15-39.02-103.6-6.71-14.1-9.08-20.85-9.54-30.29-.62-12.98 5.93-29.41 11.82-33.74 1.52-1.13 2.47-1.33 3.87-.58 1.9 1.04 1.52 1.73-2.25 8.84-7.21 13.59-7.83 28.85-1.15 45 11.54 24.79 21.27 45.14 28.17 63.37 7.53 19.94 11.77 37.25 13.48 52.88 0 0 5.14 2.27 4.37-1.13-3.2-21.86-10.45-44.55-18.27-63.75-7.38-18.12-16.64-35.56-24.13-53.52-9.1-21.55-1.57-45.1 17.08-56.86l8.58.19c-.5-.23-19.56 7.32-20.56 34.48-.95 25.88 11.34 41.8 20.24 63.71 10.84 26.45 20.54 49.63 22.84 77.89.85.98 5.55 1.19 5.47.77-2.3-19-7.87-37.07-15.82-59.28-8.45-23.6-16.86-34.07-24.7-58.85-5.3-16.77-4.59-39.48 7.23-49.86 17.69-17.81 42.37-5.13 36.18 15.26-4.77 14.35-24.49 11.5-24.39-1.95-.02-8.68 10.7-11.03 14.25-4.48.83 1.28 1.38 6.86 1.75 7.07.36.21 1.47-4.39 1.48-5.42.04-7.13-9.68-13.14-16.9-9.52-9.9 4.96-16.34 16.37-15.69 31.63.7 16.23 3.65 26.73 16.98 52.2 15.52 29.66 20.67 61.77 23.99 83.42 1.43-.6 3.15.17 3.7 0-2.26-29.5-11.98-59.81-24.11-85-14.7-30.52-18.81-49.2-13.9-62.87.71-2.01 1.4-3.52 2.28-3.66 1.64-.24 2.15 2.38 3.67 7.86.47 1.68-.12 4.32-.46 6.36-1.28 12.52 7.52 38.55 15.7 50.12 2.4 3.3 5.46 3.19 2.81-2.67-8.43-15.13-13.55-28.84-14.23-47.23-.2-5.4 6.12-2.97 6.26-.26.46 8.78 1.34 19.13 5.54 26.49 8.55 14.57 13.31 15.2 4.56-1.07-1.94-3.77-7.5-19.73-5.26-25.22 1.25-1.11 2.77-1.31 3.52-.2 2.47 9.02 5.89 17.96 11.94 24.9 3.18 3.61 3.7 1.98 2.03-2.53-2.79-5.22-11.5-22.69-7.49-26.63 1.3-1.06.53-.48 4.06 5.25 4.9 7.97 7.57 11.1 9.95 13.43 3.18 3.1 3.94 1.01.67-4.44-6.54-10.89-10.26-19.93-7.96-22.2 2.26-2.26 2.82-1.22 7.98 7.55 2.3 3.9 5.62 9.64 6.77 11 1.13 1.35 2.16 1.7 2.18.58-1.2-10.57-10.32-22.64-14-24.74-.52-.98-.33-9.33-.33-9.33 13.7 7.02 14.26 14.95 23.33 27.16.94.91 2.27-.2 1.87-1.88-.32-2.3-5.69-12.45-9.06-16.9-2.65-3.52-2.76-5.53-.52-6.54 3.63-1.63 8.7 3.74 14.1 13.34 2.5 4.45 5.85 7.03 5.86 4.7 0-1.3-4.66-12.77-7.88-16.09-5.35-5.53-2.7-9.39 3.5-4.27 2.81 2.32 6.63 4.06 10.56 12.5 2.3 4.94 4.27 5.56 4.28 1.63 0-4.42-7.45-15.23-12.47-18.21-3.89-2.32-6.1-4.9-5-6.63 3.4-4.98 17.18 7.73 21.89 19.56 1.38 3.49 3.82 5.27 4.42 3.73 1.05-.78-1.74-9.3-4.6-13.25-4.73-9.02-15.9-17.73-22.53-16.68-1.29.2-4.8-7.2-4.8-7.2 16.9-2.7 33.3 17.43 36.22 24.96 5.54 14.3 8.36 12.63 3.51.09-9.46-24.51-38.87-38.25-55.2-26.39-9.29 6.75-3.73 22.9 5.83 20.16 3.8-1.41 7.49-5.27.8-4-7.44.74-9.8-10.53-2.23-12.79 12.2-3.63 15 15.71 5.14 20.02-10.22 4.37-20.39-2.14-19.43-13.3 1.81-21.12 27.86-27.23 53.6-10.15 7.23 4.8 16.13 20.47 19.18 30.38 1.02 3.28 4.42 4.43 4.84 4.02.98-.97-7.14-18.4-9.82-22.83-11.2-25.53-51.7-26.8-51.7-25.47 0 0-15.85 9.93-29.94 26.3l-36.2-3.31c92.22-147.4 99.47-364.12 4.88-517.55 1.2.78 18.19 5.15 24.04.56 4.31-2.05 5.55-2.77 10.32-1.06 5.36 1.92 11.02.22 16.86-5.1 4.4-4 4.5-5.25 7.33-4.88 8.4 1.08 13.97-3.8 15.7-15.86.68-4.74 1.15-9.66.46-8.94-.4.42-1.36 4.52-1.98 7.1-1.7 7.07-3.28 9.67-6.05 11.98-4.57 3.8-7.2 1.68-5.3-4.1 1.8-3.72 3.3-13.3.82-17.67-.43-.78-.53 2.19-1.16 4.56-4.98 18.89-10.2 28.48-19.24 30.7-4.24 1.03-6.2.39-4.83-2.05 15.94-16.9 14.87-35.63 13.67-34.03-3.39 10.84-9.68 27-20.02 33.63-8.93 5.74-22 6.28-29.28 1.47-4.12-2.74 2.12-3.55 11.47-3.67 15.74-.21 30.46-21.14 28.01-38.78-.57-3.26-1.47.24-2.75 5.6-5.8 19.1-15.77 32.52-38.53 28.51-1.78-.3-2.97-1.48-3.94-2.14-3.7-2.56-2.34-4.31 5.03-3.36 16.46 2.14 30.78-13.22 30.7-31.78-.05-8.9-1.33-8.8-2.76-2.17-2 9.35-9.31 38.04-35.94 28.67-4.8-2.59-7.4-5.9-5.7-6.38 15.53 3.11 29.76-.28 35.29-20.58a42 42 0 0 0-.62-24.5c-.77-4.87-2.41-8.58-2.96-13.53-1.49-13.26-3.62-27.9-2.98-42.4 1.28-1.27 1.5-1 5.96 1.96 8.78 5.8 15.42 4.46 24.34 1.02 11.48-4.13 10.44-3.38-1.57 10.12a69 69 0 0 0-5.32 6.79c-3.05 5.7 2.68 1.51 6.97-3.86 5.97-7.46 7.22-9.18 8.4-9.17.4 8.06-2.53 17.86-4.04 24.47-1.98 7.33-1.96 9.02 2.73 10.9 2.03.82 5.95 2.42 8.13 3.46 9.82 4.67 8.92.87 1.09-3.53-10.57-5.95-10.66-5.65-7.64-15.52 3.55-11.59 5.3-21.61 7.21-33.08 4.75-28.34-16.72-43.93-45.25-34.03-1.63.82-3.52-14.9-3.26-19.05.25-1.5-4.31-1.18-8.05-5.75 1.14-1.01-42.06-54.9-62.18-87.58 112.81-.14 226.14-2.04 339.29-2m-70.15 101.26c.27.17.44.32.44.32q-.28-.33-.44-.32m97.78-98.69h121l1.74 260.63-10.72.26s-20.2-34.6-25.52-50.94c-1.33-4.09-3.65-9.7-4.56-11.91-2.05-5-3.49-5.62-.76-8.67 5.46-6.12 4.39-18.5-.92-24.46-1.65-1.94-2.5-1.28-2.41-5.98.07-4.05.45-6.63-.63-8.72-1.79-3.48-3-3.73-.44-7.57 2.7-4.02 6.26-10.54 7.77-15.66 2.44-8.27.72-9.81 6.15-7.87 13.61 4.32 25.01-5.36 24.66-19.03-.3-11.5-11.11-21.76-23.68-18.62-2.9.73-3.47.48-7.93-2.3-1.28-.8-3.22-2.5-4.88-3.12-2.07-.78-3.78-.72-4.64-2.19-1.68-2.89-6.94-7.48-13.35-7.19-3.91.18-9-1.22-10.34-1.92-2.23-1.17-8.5-.22-16.47-1.41-3.54-.53-6.4.84-8.1.86-4.91.06-2.91-.54-3.84-4.25-6.15-19.35-24.1-17.05-32.33-2.5-3.02 5.72-5.2 14.19-6.35 22.94l-48.35-.73zm-374.2.56c18.07 22.88 35.36 48.53 53.56 71.89 22.4 28.29 23.15 31.54 17.13 60.01-3.37 16.1-4.8 19.81-11.63 18.6-6.4-1.15-11.82 3.87-12.69 10.22-1.63 11.91 9.9 19.25 21.48 13.29 6.11-3.15 6.32-3.49 4.28 6.9-2.91 14.9-8.76 27.71-12.53 27.3-9.71-20.54-33.35-5.93-25.5 15.42-2.46 3.72.77 8.45 2 12.35 0 0 .06.46-13.44 4.91-66.3 19.54-148.4 70.56-193.22 118.45l-3.05-358.35zm380.39 48.9c2.78-.08 5.46.8 7.67 2.79 5.77 5.17 4.42 12.4-3.58 26-8.39 18.95-6.1 33.89-4.18 53.79-.05 11.56-3.97 22.54-10.21 27.29-10.12 7.7-22.6-2.61-17.35-13.05 2.68-5.2 8.4-2.17 9.73-7.07.48-2.94.43-7.55.75-9.74-1.21-8.73-3.71-35.34-3.72-44.58.1-7.95 2.73-17.95 6.35-25.44 3.54-6.24 9.23-9.86 14.54-10m15.94 30.93c-2.3 1.9-6.13 1.95-6.58-.43.02-2.5 1.97-10.44 3.33-11.32 8.28-1.93 5.64 9.7 3.25 11.75m12.38-12.4c6.85-.26 11.37 17.2 5.43 27.42-1.13.2-9.44.15-9.48.32-.14-1.83.4-5.47 1.02-8.96.54-2.98.84-5.25-.06-8.45-2.24-8-3.71-9.5 3.1-10.32m13.04.24h.81c6.96.03 10.91 13.42 8.74 28.05-.32 2.1-.5 4.3-1.27 4.8-2.9-.79-10.98 2.08-11.12 2.06-.76-.77-.45-4.93.58-8.69 1.9-6.94 2.44-11.56.2-18.73-1.61-6.2-1.67-7.39 2.06-7.5m17.33 3.86c7.65 1.28 8.14 22.39 5 29.24-.74 1.01-3.63.77-4.66 1.14-6.5 1.86-5.05 2.83-4.29-7.49.51-7.07.64-12.57-.42-18.4-.52-2.57-.73-4.36 1.14-4.53a8 8 0 0 1 3.23.04m-38.12 8.26c3.04 4.15.59 13.78-1.73 17.35-2.66 3.94-3.72 4.27-2.27 6 .62.73 1.9 4.46 1.1 6.02-1.45 2.9 2.29 3.42 5.68 5.18 5.52 2.88 8.2 8.18 12.3 17.83 1.44 3.36 4.38 2.3 2.96-1.31-1.22-3.1-1.7-7.67-2.54-10.71-.89-3.13.08-4.7 3.7-3.78 5.44 1.38 4.7.09 6.68-.64 4.36-2.41 7.3 1 4.65 2.89-1.51 1.08-4.74 1.74-8.31 2.72-3.03.83-2.33 3.75.72 3.74 2.82-.01 10.9-2.28 16.17-3.87 15.1-4.56 15.6-6.99 14.2 1.59-1.87 11.34-8.07 19.85-18.32 22.73-8.91 2.5-29.51 2.02-38.69-.9-8.71-3.95-9.29-6.7-11.93-14.36-3.6-10.49-5.73-28.24-1.58-38.56 3.65-8.7 3.28-7.8 6.78-7.35 3.12 1.08 7.3-.13 8.23-2.03.48-.91 1.66-2.57 2.2-2.54m57.84 6.28c.86 4.67.94 9.46-.68 13.07-.94 1.7-6.23 1.6-8.28 1.63-1.2.28-1.1-15.76.18-17.51 3.08-4.6 7.06-.9 8.78 2.81M609.9 197l14.96.18v3.64l-17.65-.13zm52.35.62.02 4.72-22.53.04v29.56l25.2.08.13 6.14-33.73-.12.1-40.4zm114.5-.94c23.1 5.07 12.8 30.58 4.15 32.13-10.8 1.92-19.95.7-16.95-8.78 3-6.43.91-14.44 1.76-20.28 2.08-1.93 7.52-3.85 11.05-3.07m-174.13 8.95 22.23.23v4.87l-25.4-.06zm49.37 4.5a6.43 6.43 0 1 1 0 12.85 6.43 6.43 0 0 1 0-12.85m62.71 2.55c4.14.45 4.49 6.78 2.8 8.63-2.16 2.14-6.2 1.23-7.43-2.06-1.12-2.97 1.37-6.7 4.63-6.57m-118.28 2.75 28.43.08v3.96l-28.72.24-.76-2.55zm160.05 1.71c3.94-.1 6.35 3.22 3.9 6.04-3.72 4.12-11.29-2.18-3.9-6.04m-302.97 8.64c-6.36 5.37-1.27 10.65 7.19 5.56 18.18-10.93 45-2.27 62.48 6.84 3.42 1.76 3.9-2.33.52-5.16-16.15-14.21-50.57-22.36-70.2-7.24m275.5-7.47c4.45.02 4.38 5.55 1.53 7.53-2.85 1.23-3.35.89-5.24.15-2.6-1.01-.66-7.66 3.71-7.68m15.73.08c5.27.26 4.68 10.85-3.27 7.03-2.88-3.1-1.02-7.05 3.27-7.03m-146.95 5.46 27.63.24v4.5l-25.84-.27zm-178.56 10.58c7.55 5.99 5.21 6.35-7.31 1.95-8.18-1.83-16.32-.66-21.44 1.36-6.06 2.4-7.46 1.7-4.84-2.35 7.05-7.9 26.47-6.3 33.59-.96m36.3 9.92c-.75 1.87-3.34-1.5-6.85-.85-4.99.94-3.54 1.17 1.73 7.17 5.28 6 7.01 7.43 6.7 9.74-.48 3.4.47 5.28 3.87 4.9 1.63-.18 3.56 1.7 6.06 3.98 8.64 7.85 13.01 11.75 15.82 12.97 11.45 4.94 6.29-.64-1.02-5.69-12.2-8.41-16.44-14.02-7.78-11.02 9.21 3.19 23.86 1.38 31.07-2.97 3.55-2.14 5.8-5.42 10.8-3.82 7.03 2.25 9.72-1.9 7.77-4.21-3.19-2.05-10.47-4.49-17.39-9.14-14.8-7.5-30.35-7.28-40.71-1.24-6.12 3.56-8.24 1.05-2.25-2.47 24.02-12.95 43.02-.55 58.4 8.75 2.67 1.62 4.53 1.49 4.54.34-.4-3.76-7.25-6.06-10.02-7.75-21.43-13.04-43.95-17.2-60.74 1.3m145.88-11.46 24.01.02v4.74l-22.25-.1zM406 238.93c6.65-.04 21.12 5.93 20.88 10.88-.27 1.88-3.9.2-7.05-1.73-6.08-3.71-15.42-4.7-24.21-3.07-6.75 1.26-8.9 2.37-9.86 1.57-2.33-5.24 14.07-7.62 20.24-7.65m259.66 3.53.04 8.5c-13.03.94-15.72 15.43-7.35 23.5 6.85 6.6 18.18 4 23.88-5.38 1-1.66 1.11-2.67 1.72-1.84.39.52.71 2.1 1.02 3.63.9 4.46-.38 5.6-3.33 9.42-4.77 6.17-5.42 13.95-2.42 19.74.82 1.59 2.54 3.87 2.24 4.92 1.67-.05-14.8 46.04-38.86 69.26-4.03 2.68-6.95-.47-4.87-4.8 19.6-44.78-17.9-86.38-32.45-126.4zm-174.22 7.73 3.43.3c-2.77 20.64-22.79 17.31-23.58.5l2.9-.1c3.9 15.64 17.29 9.24 17.25-.7m-113.1.42s1.43 2.3 1.43 3.6c0 4.8-.07 11.74-.2 13.85-1.15 19.86-26.35 23.54-24.43 6.55 1.5-7.22 10.61-8.01 12.85-1.49 3.27 8.2 3.85-1.98 3.9-5.16 2.67-5 4.62-11.08 6.44-17.35m121.4 1.4c1.03.03 2.88.94 4.33 2.5 1.66 1.78 1.04 2.67-2.82 4.66-4.2 2.15-6.1 1.96-4.59-2.4.94-2.7 1.75-4.79 3.08-4.75m188.46 1.04c.57.03 2.03.78 1.69 2.93-.58 3.6-3.69 5.65-4.5 4.8.52-1.9 1.14-6.98 2.8-7.73m-218.53 6.97c-.5 1.46-1.36.82-3.55-1.04-2.43-2.07-2.3-3.38.2-4.86 3.59-2.17 3.8 4.56 3.35 5.9m-76.28-5.38c4.2 13.28 12.77 11.6 16.6.64l3.68-.06c-.81 17.1-22.47 16.8-22.65.26zm-7.6 1.64c1.29-.2.37 4.24.37 4.24s-3.55-1.83-1.47-3.77c.27-.25.92-.44 1.1-.47m31.82 1.13c.43-.03 1.26.3 2.16.9 2.1 1.4 1.75 2.21-.66 4.22-3.7 3.08-5.37 1.37-3.37-2.77.74-1.54 1.3-2.32 1.87-2.35m276.55 2.89c1.56-.1 3.75.61 8.4 1.85 12.82 3.4 29.97 3.28 44.56-.75 4.61-1.27 8.03 6.82 5.54 12.7-1.1 2.59-.9 2.91 2.45 6.4 4.76 4.95 5.52 12.92 1.9 20.18-2.62 5.28-2.44 4.81.67 13.83 1.43 4.13 3.27 8.34 3.6 9.48 3.94 13.3 13.65 29 19.59 42.15 5.92 9.23-10.62.1-10.62.1s4.45 5.96 10.36 10.42c5.73 4.35 17 1.4 22.17 6.7 1.2 1.67-1.18 36.94-2.39 37.91-50.94-2.37-135.91-.5-135.91-.5l15.92 24.82c25.04 10 49 7.5 71.9-6.9-.57 2.06 27.87 15.97 51.22 17.48l.14 16.7c-17.32-1.94-34.88-2.34-50.98-12.46 0 0-14.8 6.18-29.61 10.82l83 85.86.04 14.35s-35.44-33.07-71.9-70.35l.78 183.34 71.83 1.4c-2.26 47.72-1.35 78.06-.87 132.7-33.94 34.83-80.64 69.66-123.78 90.58-20.37-19.63-37.19-40.9-51.9-63.65-.32-.48 1.48-1.4 1.17-1.88-.45-.7-3-.96-3.47-1.65-8.97-13.36-29.83-50.41-26.53-51.28 6.39.44 35.96-3.22 41.85-20.95.05-1.12-.64-4.28.16-7.99 2.08-9.6 3.15-24.2-.38-33.47-6.36-16.72 12.76-11.36 13.41-10.24l-.02-63.15c-24.87 19.95-49.98 39.58-83.24 47.79-20.7-104.28 12.12-233.97 105.65-321.93l-5.13-.43c-96.1 99.43-121.3 208.77-104.9 323.93 0 0 .6 3.6.7 4.81.23 2.87-.46 3.96-3.01 6.03-2.43 1.6-4.64 3.31-4.41 5.28.4 3.7-3.15 3.82-7.8 3.8-2.14-1.88-5.02.48-6.74 1.34-2.41.36-3.62-9.48-6.7-2.27-1.16 4.56-3.39 4.9-8.53 2.63-3.22-.94-3.3.66-.2 4.4 4.29 4.6 7.91 11.5 7.21 13.57-1.57 4.64-.89 9.3 5.66 11.97-.37.03-3.95 14.14 6.21 13.73 3.23.03 11.43 1.69 11.43 1.69.53 2.7-.34 4.23-1.61 5.42l-7.07-3.53-1.85 8.4-9.41-.65 22.9 28.29 2.68-22.07 26.78 3.4c4.3 11.15 31.37 73.2 83.09 119.39 0 0-28.28 12.3-36.2 16.16l-4.92-17.59-4.44 6.38-7.91-2.02-.93 7.23-7.04 2.26 12.29 9.28-31.6 9.6c-90.2-145.53-131.03-347.68-18.66-561.45l28.4.36-5.55 9.48 8.07-1.29 2.28 6.9 5.93-2.79 5.95 7.47 6.79-19.95s20.11.46 22.62.2c1.97-.22 42.52-34.24 41.64-35.54-.63-.94-44.15 30.88-45.61 29.66 0 0-4.37 1.04-.97-3.03a154 154 0 0 0 16.63-23.38c10.25-13.94 14.85-30.96 17.26-42.48.04-.81.27-2.66-.42-4.02-3.9-7.75-3.04-12.82 3.98-21.96 2.46-3.2 2.6-4 1.9-5.97-1.58-4.44-.06-8.24 3.18-11.22 1.29-1.19 2.11-1.75 3.34-1.83M454.9 291.27c17.81 7.32 3.5 23.53-9.73 9.4-6.94-7.4-12.4-6.93-16.18-1.53-1.7 2.44.77 6.72 2.97 5.36 2.04-1.26 4.14-2.75 7.11-.02 22.53 20.75 38.71-8.3 19.3-15.52-2.4-1.1-5.83 1.35-3.47 2.31m-73.4-.7q.25 0 .62.24c.85.53.9 7.86.07 10.94-2.82 15.63-13.96 51.93-36.81 34.16-9.07-7.06-.82-24.78 10.04-18.76 8.48 4.7 2.76 15.92-6.42 9.48-4.46-3.12-3.05 3.32.71 5.16 6.4 3.34 17.94-2.38 23.36-12.57 2.16-4.06 4.18-11.24 6.46-21.58 1.15-5.2 1.24-7.03 1.97-7.07m1.93 27.05c1.88 11.29-6.72 31.07-18.96 33.99-9.37 2.23-20.95-3.87-20.11-9.52.24-1.64.9.53 9.39 1.93 11.85 1.96 19.4-4.44 26.23-19.18 2.15-4.65 3.07-7.12 3.45-7.22m29.5 5.4a44 44 0 0 1-1.15 6.86c-1.26 5.3-2.05 7.3 3.74 4.68 3.83-1.76 9.42-3.51 15.22-.3 6.38 3.54 12.49 2.89 20.01-.3 6.54-2.18 9.73-2.2 13.38-.1 6.66 3.83 4.37 1.38 3.51-8.27-.6-6.8-2.45-5.9-4.84-3.34-1.57 1.7-4.74 2.06-8.27.16-4.2-2.26-10.07-1.18-12.05.43-1.97 1.6-4.83 1.82-8.7-.79-2.56-1.72-3.98-.82-7.12.59-5.17 2.31-7.15 1.06-9.96-1.11-2.55-1.86-3.74-1.27-3.77 1.49m-25.67 8.1q1 0 .29 7.86c-2.16 19.37-17.33 30.16-35.18 20.78-7.82-4.46-6.76-7.61.94-4.82 12.28 4.45 24.68-1.77 30.74-17.69q2.33-6.12 3.21-6.12m43.57 13.81c8.83 3.65 18.62 2.5 21.11-.74 2.8-3.63-1.49-3.04-3.74-2.49-7.72 1.85-13.03 1.17-16.16-.22-9.15-3.53-8.57.3-1.2 3.45m-92.1 10.87c11.44 14 12.95 16.74 22.8 32.66 72.08 122.33 95.16 276.95 47.77 417.3-13 38.74-31.34 78.2-51.9 109.92l-24.68.26 8.47-9.66-11.48.85-.7-6.4-8.72 2.82-4.2-9.64-7.89 22.07-45.74.12C369.6 812.01 390.7 685.85 370.72 584.57c0 0 8.96-5.6 10.2-8.88.3-.8.97-4.18 1.59-4.68 3.98-2.6 6.62-5.13 8.59-4.64 1.13.29 1.7.81 2.53 2.01 3.77 5.53 4.59 6.4 6.65.82 1.47-4 .84-5.44 5.7-4.67 2.84 1.5 6.63 1.46 6.28.9-.25-.42-4.29-5.16-6.2-7.85-4.53-6.36-5.82-7.51-5.4-10.3.63-4.25-2.75-8.83-4.86-9.98.6-11.44-3.79-12.58-16.23-15.14-.06-1.97.28-3.58 1.15-5.34l7.3 5.82 2.66-10.8 9.92.54-28.76-27.83c.15 7.85.52 15.79-.2 23.35-13.48-.73-26.78-5.08-26.98-4.25-19.79-46.6-49.95-86.01-81.78-116.76l31.8-15.28 9.02 17.18 2.2-9.73 7.9 1.38 1.32-6.24 8.71-1.23-9.61-9.13zm189.4 20.1c1.21 1.53 2.19 1.63 3.81 3.03l-3.25 2.3c.15-2.18-.03-3.3-.56-5.34m-211.61 5.75a4.9 4.9 0 1 0-.02 9.77 4.9 4.9 0 0 0 .02-9.77m26.53.77a4.9 4.9 0 0 0-4.9 4.9 4.9 4.9 0 0 0 9.8 0 4.9 4.9 0 0 0-4.9-4.9M257.6 386c15.74 13.1 30.22 30.15 47.78 56.83l-.36 3.6 5.36 1.98s29.21 38.45 27.67 55.54c-10.03 2.1-17.79-1.61-35.72 15.16l-11.53-2.51-12.12 2.95s.15 3.8 3.17 5.08c1.31.56 3.48-4.76 4.9-4.6 5.89.68 11.83.78 10.74 2.63-1.23.53-4.4 38.73 1.75 46.87 3.43 8.28.97 8.21-2.1 9.73-3.36 2.2-13.88-2.43-13.88-2.43l2.43 60.66c27.78-31.7 86.46-52.83 82.3-50.54C397.43 742.53 327.4 846.32 254.1 922.4l38.41.21s-33.12 53.12-35.58 67.8c1.88 4.9 7.1 15-1.7 22.1-2.98 3.26-3.3 18.07-3.3 18.07-20.2.7-37.7-6.32-61 1.85-2.4.81-2.93-12.69-3.05-15.12-7.16-6.7-8.29-20.32-2.1-27.4 2.29-2.6 1.31-1.21-.61-10.03-3.07-14.07-13.28-33.36-21.06-45.74-2.55-4.06-5.1-8.8-5.73-10.26-5.56-6.6-20.17-3.55-21.94-5.28-1.62-1.36-2.67-37.32-1.03-38.2 57.57 4.57 147.66-.65 147.66-.65l-24.17-33.78c-29.78-11.6-70.7 8.22-68.73 9.26.1.12-32.7-17.88-55.45-15.33l.74-17.63c20.22-.09 38.86 3.68 55.14 13.28l27.66-10.3-84.78-88.93.99-14.66s21.65 23.19 45.2 47.95c20.2 21.25 27.75 24.82 27.75 24.82l.06-184.44-72.89-.19-1.95-37.68-1.89-3.3-.86-27.04 2.03-2.75-.7-11.57-.68-1.65-.93-27.62 1.57-2.33.24-17.4C166.65 444 257.59 386 257.59 386m62.26 5.24 8.5 37.23 5.7-7.07 8.75 2.75.6-8.57 7.98-2.77zm289.64 6.2a4.9 4.9 0 0 0-4.9 4.9 4.9 4.9 0 1 0 4.9-4.9m-22.92 3.06a4.9 4.9 0 0 0-4.9 4.9 4.9 4.9 0 1 0 4.9-4.9m-280.86 4.34a4.9 4.9 0 0 0-4.9 4.9 4.9 4.9 0 0 0 4.9 4.9 4.9 4.9 0 1 0 0-9.8m298.44 2.95-34.1 32.07 9.56-.4 1.71 9.35 8.55-3.92 6.93 6.4zm14.5 10.78a4.9 4.9 0 0 0-4.9 4.9 4.9 4.9 0 0 0 4.9 4.9 4.9 4.9 0 1 0 0-9.8m-271.13 6.3a4.9 4.9 0 1 0 0 9.8 4.9 4.9 0 0 0 0-9.8m21.2 4.1a4.9 4.9 0 1 0 0 9.8 4.9 4.9 0 0 0 0-9.8m-19.23 7.3c.93 13.1 2.46 28.63 2.8 41.76l6.47-6.37 7.47 3.03 2.65-8.05 8.13-.4zm209.92 10.92a4.9 4.9 0 0 0-4.9 4.9 4.9 4.9 0 0 0 9.8 0 4.9 4.9 0 0 0-4.9-4.9m-223.98.86a4.9 4.9 0 0 0-4.9 4.9 4.9 4.9 0 0 0 4.9 4.9 4.9 4.9 0 1 0 0-9.8m243.4 1.19a4.9 4.9 0 0 0-4.9 4.9c0 2.7 2.6 4.9 4.9 4.9s4.9-2.2 4.9-4.9-2.2-4.9-4.9-4.9m-2.9 10.58-28.26 29.07 9.25.86 2.91 8.25 5.92-5.01 7.2 5.26zm15.52 6.23a4.9 4.9 0 0 0-4.9 4.9 4.9 4.9 0 1 0 4.9-4.9m-222.85 9.07a4.9 4.9 0 1 0 0 9.8c2.7 0 4.9-2.6 4.9-4.9s-2.2-4.9-4.9-4.9m-120.05 2.99-9.2 7.04 2.27-.34s5.56 6.48 5.56 6.93 3.41-.12 3.41-.12zm143.22 4.27a4.9 4.9 0 0 0-4.9 4.9 4.9 4.9 0 1 0 9.8 0 4.9 4.9 0 0 0-4.9-4.9m-35.1 7a4.9 4.9 0 1 0 0 9.79 4.9 4.9 0 0 0 4.9-4.9 4.9 4.9 0 0 0-4.9-4.9m202.4 9.87a4.9 4.9 0 0 0 0 9.8 4.9 4.9 0 1 0 0-9.8m-19.34 7.2a4.9 4.9 0 1 0 0 9.78 4.9 4.9 0 0 0 0-9.79m197.38 1.21 10.18 11.07v161.87l-9.94.2zm-396.3 1.15c8.3 0 17.54 1.2 20.48 6.24 4.58 5.66-5.15 3.47-13.35 4.7-7.57.92-3.18 2.47 7.5 3.1 14.74.86 20.53 1.25 22.72 4.64 1.25 3.17.34 5.3.6 8.7l-16.72-.78c-8.68.01-13.77-.15-16.35.5-2.05.53-1.46 2.17-.76 2.88.36.36 7.02.45 14.8.66 20.93.55 25.56 1.25 27.04 7.99 1.13 6.17-3.91 5.23-25.42 2.89-9.56-.78-14.72 1.47-16.1 2.15-2.36 1.15 6.83 2.3 9.84 1.8 1.88-.29 15.68 1.2 20.76 2.15 4.27.65.51.53-1.64 3.14-1.44 2.15-.98 4.63-3.22 5.84-2.74 1.45-8.18 1.42-17.93 1.43-11.15 0-16.35 2.7-1.04 3.37 9.88.43 10.44.26 11.28 3.11 2.23 7.04-2.52 8.28-12.61 9.88-4.82.83-11.97.36-17.37-.02-21.32-1.52-28.72-6.6-31.6-16-10.76-35.07 2.52-56.49 33.6-58.21q2.6-.16 5.5-.16m215.59 1.56-24.1 35.04 9.3-3.61 4.4 9.5 7.44-5.3 7.42 4.57zm-180.22 4.26c1.25 1.53.7 2.67-1.36 3.8-1.75.95-4.73.24-6.7-.6-2.58-1.13-2.84-5.75-.71-6.25a10 10 0 0 1 8.77 3.05m-174.47-1.79-13.17 12.61.4.48 17.35-6.82zm369.7 5.38a4.9 4.9 0 1 0 0 9.8 4.9 4.9 0 0 0 0-9.8m179.34 4.24s12.28 12.12 17.31 17.2l-4.56-.01.12 9.56 14.52.16 7.97 7.8-22.17-.1v9.76l27.45.02-.14-4.17 10.85 9.82 1.28 108.54-52.3-.16c-.2-53.45-.05-104.97-.33-158.42m-358.83 11.77c-.75 2.34-2.43 2.35-5.3 1.18-4.25-1.73-3.64-6.41-.42-6.9 6.07-.7 7.2 2.1 5.72 5.72m16.47 2.04a4.9 4.9 0 1 0 4.9 4.9 4.9 4.9 0 0 0-4.9-4.9m-17.25 3.76a8.2 8.2 0 0 1 4.9 2.17c2.68 2.7 1.73 5.23-1.27 6.78-3.36 1.75-5.72-.63-6.7-4.61-.67-2.69.9-4.25 3.07-4.34m153.8 12.85a4.9 4.9 0 0 0-4.92 4.92 4.92 4.92 0 1 0 4.92-4.92m-161.91 5.96c4.22.15 5.5 4.46 3.29 6.77-3.16 3.13-8.08 1.8-8.77-1.2-.23-3.38 2.52-5.57 5.48-5.57m144.35 2a4.9 4.9 0 1 0 0 9.78 4.9 4.9 0 0 0 0-9.79m17.4 3.25-21.92 36.79 8.87-3.52 5.38 7.1 5.54-4.85 8.38 4.1zm-172.05 6.15c3.92.02 5.02 3.1 2.16 5.92-1.93 1.92-4.12 1.98-6.36.2-3.39-2.69-.8-6.15 4.2-6.12m187.41.45a4.9 4.9 0 1 0 0 9.8 4.9 4.9 0 0 0 0-9.8m-159.62 3.86c-2.71 0-4.7 2.2-4.7 4.9a4.9 4.9 0 0 0 9.8 0c0-2.7-2.4-4.9-5.1-4.9m363.24 1.09v10.4l27.63.02v-10.4zm-362.88 9.24L390.3 623.5l8.85-5.04 5.53 5.64 5.14-6.32 9.23 2.4zm18.81 4.2a4.9 4.9 0 0 0-4.9 4.9 4.9 4.9 0 0 0 9.8 0 4.9 4.9 0 0 0-4.9-4.9M385.2 591a4.9 4.9 0 0 0-4.9 4.9 4.9 4.9 0 1 0 9.8 0 4.9 4.9 0 0 0-4.9-4.9m378.56 3.05.01 9.34h27.63l-.02-9.28zm-227.37 12.2a4.9 4.9 0 0 0-4.9 4.9 4.9 4.9 0 0 0 4.9 4.9 4.9 4.9 0 1 0 0-9.8m227.38 5.23v10.06h27.63v-10.06zm-569.68 1.23 9.72.18.16 175.35-9.47-10.02zm-4.05.34-.49 160.27-18.4-19.36 4.9-.06V743l-15.95-.12-6.8-6.63 22.72.02v-10.72l-26.96-.1v6.48L135.8 717.8l.22-104.65zm347.08 4.9-14.76 38.13 9.28-5.29 4.8 4.72 4.96-4.47 8.43 4.11zm-388 1.82-.14 10.26h27.22v-10.26zm404.7 2.07a4.9 4.9 0 0 0-4.9 4.9 4.9 4.9 0 0 0 9.8 0 4.9 4.9 0 0 0-4.9-4.9m-33.34.55a4.9 4.9 0 1 0 0 9.8 4.9 4.9 0 0 0 0-9.8m-115.3 1.82a4.9 4.9 0 1 0 0 9.8 4.9 4.9 0 0 0 0-9.8m358.6 3.96v10.78h27.62v-10.78zm-359.2 6.08-4.1 6.32-9.37-3.19 12.8 38.7 16.03-40.36-9.21 5.26zm-255.47 2.81v10.24h27.1v-10.24zm614.66 9.18v10.68h27.61l.02-10.68zm-614.66 8.93v10.26h27.1v-10.26zm387.65 1.93a4.92 4.92 0 1 0 0 9.84 4.9 4.9 0 0 0 4.92-4.92 4.9 4.9 0 0 0-4.92-4.92m-147.5 5.12a4.92 4.92 0 0 0 0 9.84 4.92 4.92 0 0 0 0-9.84m31.44.92a4.9 4.9 0 0 0-4.91 4.92 4.91 4.91 0 1 0 9.84 0 4.9 4.9 0 0 0-4.93-4.92m343.07.69v9.63h27.61l.02-9.63zm-227.05 4.5-5.86 6.16-8.41-2.4 19.07 35.59 9.64-38.27-8.41 5.36zm-387.6 3.6v11.65h27.08v-11.64zm255.64 5.29a4.92 4.92 0 1 0 0 9.84 4.92 4.92 0 1 0 0-9.84m-.32 10.14c-2.1 1.49-3.01 4.1-5.2 5.44l-8.94-3.8 5.37 48.45 24.86-45.78-11.36 1.9zm-255.33 1.59v12.1h27.1v-12.1zm406.83 5.61a4.92 4.92 0 0 0 0 9.84 4.92 4.92 0 1 0 0-9.84m-31.8.56a4.92 4.92 0 1 0 0 9.84 4.92 4.92 0 0 0 0-9.84m-375.03 11.4v12.12h27.1v-12.12zm392.77 2.7a4.92 4.92 0 0 0 0 9.84 4.9 4.9 0 0 0 4.92-4.92 4.9 4.9 0 0 0-4.92-4.92m69.45.39c26.34.84 30.2 9.31 30.35 38.57.12 23.35-6.83 32.47-23.83 36.98-6.2 1.64-29.36.12-35.92-1.99-.1-2-3.38-6.64-4.12-10.2 1.67-.48 6.96.26 16.98 1.21 8.13.77 10.22-.53 7.65-2.13-15.28-3.6-25.7-2.62-40.38-5.44-.2-4.39-3.75-9.5-3.75-9.5.8-.32 22.63 2.03 34.15 1.67 5.08-.21 2.03-2.6-.02-3.04-13.44-1.92-22.17-1.61-36.38-3.4.38-3.64-1.47-6.94-3.76-9.72 0 0 7.19-.07 22.01.16 7.8.12 14.59.44 18 .32 5.72 0 5.2-2.67.24-3.04-6.05-.67-29.89-.82-29.89-.82 1.78-.82 4.1-11.49 3.18-11.6 0 0 6.17.12 10.1-.02 19.09-.72 22.38-.41 22.74-1.13 2.52-2.29-4.26-3.19-11.32-3.17-3.04 0-7.48.67-7.45-.98a17 17 0 0 0-1.59-7.86c11.72-4.51 22.48-5.2 33-4.87m-227.12 6a4.92 4.92 0 0 0 0 9.84 4.92 4.92 0 1 0 0-9.84m187.92 1.02c3.25.02 4.27 5.86 1.23 6.77-4.68 1.4-7.24.3-7.07-2.47.1-1.57 3.73-4.3 5.84-4.3m-155.8 5.08a4.92 4.92 0 0 0 0 9.84 4.92 4.92 0 1 0 0-9.84m140.1 5.53c11.13-.1 5.37 15.03-3.2 9.57-4.24-2.7-1.25-9.54 3.2-9.57m-176.05 12.1q-.35-.05-.33.77l2.57 46.02 26.8-43-10.65 3.96-4.58-6.94-5.74 4.52c-2.37 1.86-6.84-5.21-8.07-5.33m165.73 4.72c5 .69 8.33 5.69 4.86 8.1-7.8 3.41-11.99-7.77-4.86-8.1m-12 10.1a4.92 4.92 0 1 0 0 9.83 4.92 4.92 0 0 0 0-9.83m18.93 4.16c4.25-.06 6.25 6.1 2.05 8.05-.9.41-3.56.71-4.75-.16-4.96-3.66-2.39-7.5 2.7-7.9m-184.2 7.6a4.92 4.92 0 0 0 0 9.84 4.92 4.92 0 1 0 0-9.84m375.77 6.16-18.23 6.13v8.62c7.96-2.53 12.5-9 18.23-14.75m-170.85 4.17c3.16 1.32 4.02 5.6 1.3 7.04-2.14 1.14-7.95.96-9.37-.91-3.68-5.9 4.24-7.58 8.07-6.13m-171.88 1.7a4.92 4.92 0 0 0 0 9.83 4.92 4.92 0 1 0 0-9.83m-20.15 8.5a4.34 4.34 0 0 0 0 8.67 4.34 4.34 0 1 0 0-8.67m204.49 7.31a4.92 4.92 0 1 0 0 9.84 4.92 4.92 0 0 0 0-9.84m-220.34.27-.24 43.47 29-35.58-10.07 2.19-4.29-8.82-6.2 4.04zm184.04 10.01a4.9 4.9 0 0 0-4.92 4.92 4.92 4.92 0 0 0 9.83 0 4.9 4.9 0 0 0-4.91-4.92m145.1.17-4.77 8.11 13.5-7.49zm-125.46 5.77a4.92 4.92 0 0 0 0 9.84 4.92 4.92 0 0 0 0-9.84m16.57 5.31-5.89 8.4-7.75-2.5-2.29 8-9.3-.34 30.22 26.3zm-235.54 3.36a4.92 4.92 0 1 0 0 9.84 4.92 4.92 0 0 0 0-9.84m453.13 7.06 2.45 360.46-171.82.36-70.73-96.59c-1.46-15.74-.61-31.89 6.01-53.01 6.92 4.79 22.07 2.18 21.55-16.4-.33-12.15-19.08-18.38-28.42-9.23.49-11.75 5.26-29.41 12.13-34.63 4.72 4.3 5.76 10.64 16.43 8.87 7.59-1.27 13.6-9.74 10.31-19.61a26 26 0 0 1-1.28-7.6c0-2.03.19-5.66-.21-7.68-.52-2.68-.72-5.59-.72-5.59 91.53-28.72 156.98-74.69 204.3-119.35m-418.69 6.2a4.92 4.92 0 1 0 0 9.84 4.92 4.92 0 0 0 0-9.85m-23.19 4.8a4.9 4.9 0 0 0-4.92 4.93 4.9 4.9 0 0 0 4.92 4.92 4.92 4.92 0 0 0 0-9.84m243.42 2.37a4.9 4.9 0 0 0-4.92 4.92 4.92 4.92 0 0 0 9.84 0 4.9 4.9 0 0 0-4.92-4.92m-261.06 5.25-7.68 45.8 33.5-34.24-9.1-.2-1.8-7.8-8.52 2.74zm227.7 9.77a4.9 4.9 0 0 0-4.9 4.92 4.92 4.92 0 1 0 9.83 0 4.9 4.9 0 0 0-4.92-4.92m21.7 5.34a4.9 4.9 0 0 0-4.91 4.92 4.92 4.92 0 1 0 4.91-4.92m-270.28 5.97a4.92 4.92 0 0 0 0 9.84 4.92 4.92 0 1 0 0-9.84m289.87 3.71-8.02 6.09-7.37-4.5-1.72 9.72-6.29 3.3 26.36 18.46zm19.48 13.1a4.92 4.92 0 1 0 0 9.84 4.92 4.92 0 0 0 0-9.84m-278.18 1.66a4.9 4.9 0 0 0-4.93 4.92 4.9 4.9 0 0 0 4.93 4.92 4.9 4.9 0 0 0 4.92-4.92 4.9 4.9 0 0 0-4.92-4.92m-21.85 6.43a4.9 4.9 0 0 0-4.92 4.92 4.92 4.92 0 0 0 9.84 0 4.9 4.9 0 0 0-4.92-4.92m287.42 13a4.9 4.9 0 0 0-4.91 4.92 4.91 4.91 0 1 0 9.83 0 4.9 4.9 0 0 0-4.92-4.92m-20.62 4.4a4.92 4.92 0 1 0 0 9.85 4.92 4.92 0 0 0 0-9.85m-190.45 7q.05.01.08.05c.56.6 2.27 5.07.74 7.35-.78-.38-4.31-3.67-3.4-4.78.4-.52 2.12-2.61 2.58-2.61m-111.63 7.71s4.76.25 5.8.7c0 1.22-1.14 3.88-2.43 6.85-6.42 14.87-7.4 31.53-.88 47.59 10.24 21.8 39.13 73.37 36.98 78.08l-63.84.27.27-9.71c17.94-.71 20.76-11.67 16.28-20.75-3.1-6.27-11.79-9.87-19.73-6.57-11.48 4.76-12.19 10.43-16.29 19.22l-1.82-2.32c3.45-4.58 4.6-8.98 4.32-14-.28-4.92-.43-3.56 1.3-6.26 9.99-10.74 3.44-24.71 3.44-24.71-1.19-8.59 29.9-63.35 36.6-68.39m-146.02 1.41c18.17 14.45 33.88 63.12 32.93 63.87-.84-.68-14.63 15.64.23 30.84 0 0-.9 9.14 1.95 13.83-6.57 13.62-7.72 14.65-8.28 25.83-.12-.04-1.14-.13-7.23-.16-30.09-.15-31.49 38.12-1.42 40.22 4.11.29 5.53-.65 8 1.8 2.53 3.13 4.79 6.26 9.09 4.64 1.02.01 2.67.97 4.4 2.57 2.88 3.91 7.08 6.7 13.07 5.62 2.12.21 4.29.82 6.58 1.65 2.63 2.07 7.2 3.65 10.78 2.09a6.4 6.4 0 0 1 4.78.14c4.35 1.98 8.77.74 10.4-.5 4.04-2.1 4.93 1.26 4.74 4.35-2.05 7.08 2.46 13.72 9.32 16.33 14.44 4.46 21.73-4.42 24.83-22.05.77-3.86 1.45-8.45 1.45-8.45l48.37 1.27-69.45 80.49-118.23 1.45-.62-265.95c5.2-.31 9.12.12 14.31.12m434.94 14.35c8.82 3.4 9.53 9.64.74 6.93-14.27-4.4-29.62 4.32-32.83 16.79-.6 2.3-1.22 4.03-1.59 4.48-1.99 2.4-1.9.21-1.3-6.7 1.15-13.44 10.65-23.16 23.03-23.56 4.06 0 8.43.84 11.95 2.06m-4.38 9.5c3.69 0 7.6 1.09 10.51 3.62 3.31 3.63 2.33 6.04-.22 5.92-11.95-5-27.14 1.04-33.1 16.14-3.65 9.25-4.31 4.29-2.69-2.88 3-12.97 12.87-22.56 25.5-22.8m-83.13 3.58c-5.21.02-10.16 1.05-12.69 3.43-4.79 4.52-.8 4.6 7.87 1.59 4.22-1.47 12.34-.8 17.53 1 4.36 1.5 5.9 2.14 5.65.79-.23-4.08-9.67-6.85-18.36-6.81m97.45 15.15c2.2 5.03.77 13.9-6.91 14.8-9.06 1.05-13.74-14.13 2.8-11.48-2.14-6.07-9.57-4.4-13.22-2.85-7.47 3.26-12.55 10.6-17.13 24.08-1.36 4-2.35 6.08-2.87 5.68-.87-.67-1.28-6.89.72-14.36 3.6-13.48 12.38-21.63 21.67-21.89 6.02-.92 13.03 1.65 14.94 6.02m-129.6-5.86c-.81.19.6 3.02 2.8 7.42 1.22 2.42 2.05 5.58 2.05 6.2-.01 2.39 1.82 2.98 4.52 1.44 3.1-1.76 3.6-3.1 8.01-1.14 4.14 2.18 8.24 3.55 12.03 1.34 2.05-1.2 3.41-1.14 7.39-.1 4.74 1.25 5.37 1.44 8.9-.03 4.54-1.9 9.92-.6 11.05.67 1.1 1.21.46-.47 2.92-6.17 1.14-2.65 2.78-5.86 2.33-6.76-.61-1.22-4.73.13-9.22 1.3-2.43.64-4.75.46-9.4-.85-9.82-2.77-16-1.98-22.15.94-3.43 1.63-12.04-.62-20.74-4.16q-.31-.13-.5-.1m19.31 26.29a11.5 11.5 0 0 0-10.28 6.54c-2.13 5.31 1.5 14.9 7.03 15.73 4.92.73 4.73-2.28 2.25-3.09-3.74-1.23-8.16-6.6-5.3-11.27 1.96-3.2 7.89-3.18 12 .77 8.31 7.97 17.82 8.49 19.63 1.58.54-2.77-1.56-6.45-4.8-5.44-2.52.77-8.32 1-13.18-2.3a13.5 13.5 0 0 0-7.35-2.52m87.69 25.29c21.2-1.26 12.08 27.68-.16 20.26-4.37-2.66-2.43-12.41 9.18-12.23-11.39-8.87-19.15 1.93-16.37 14.05-2.56 3.96-3.26 11.49-4.94 15.77-2.58 4.87-4.6-7.89-2-20.22 2.52-11.94 6.78-17.17 14.29-17.63m-119.9 1.01c-4.37.05.13 4.76.81 5.32 13.2 10.36 19.65 16.77 9.03 13.35-17.25-4.1-21.7.78-34.83 6.57-2.41 1.16-3.1.44-6-.42-11.55-3.42-10.7 3.83 1.36 10.36 18.21 9.86 33.25 12.09 47.4 4.7 9.1-4.76 9.57-1.64 1.1 3.61-14.47 8.45-29.72 7.16-53.12-7.41-7.56-4.7-8.62-1.56-.88 3.39 17.67 10.68 41.47 20.36 60.9 4.6 3.82-3.4 4.59-5.16 7.53-3.69 7.76 3.88 5.21-2.87-.08-9.23-1.88-2.25-3.26-4.07-3.14-5.61.44-5.52-2.61-5.5-5.4-5.36-3.33.16-2.96-.95-7.05-5.45-5.96-6.54-13.24-13.56-17.62-14.73m-176.4 29.36c-7.33.58-9.02.9-7.22 15.94.33 2.83 1.59 11.3 1.94 14.48 4.35 39.36.83 56.78-10.14 61.6-3.94 1.74-7.83 1.09-10.72-.06-6.95-2.78-9.8-11.21-4.76-21.24 1.36-2.71 3-6.89 3.65-9.3.66-2.42 2.14-7.71 3.27-11.77 2.77-9.87 4.26-24.89 2.64-39.24-1.1-9.74-.86-10.55 1.57-17.12 5.32-9.71 8.77-14.68 19.99-14.8 12.54 1.31 16.06 20.3-.22 21.51m269.72-.87-3.43.16c-4.14-13.76-12.77-9.3-14.2.36l-2.92-.04c.5-18.37 23.48-13.39 20.55-.48m-322.4-10.27c23.42 2.32 27.7 8.14 29.54 36.44.17 13.69-.73 21.96-2.84 25.07-3.5 1.69-6.86-1.46-11.87 1.71-2.75 1.68-2.22 1.85-3.4.03-1.12-1.72.18-8.94 1.98-14.71 1.71-5.5-1.22-8.7-8.98-15.76-2.1-1.91-3.94-4.56-5.82-8.35-4.04-10.83-6.09-6.06-2.73 3.27 1.67 4.03 2.05 6.01-3 4.28-2.96-1.03-5.56.18-7.85 1.4-6.43 1.63-11.97-1.87-6.4-3.99 3.4-1.28 9.49-3.14 11.37-3.14q2.04.02 2.03-.94c.01-2.71-12.4-2.41-21.85.85-11.62 5.34-12.29 4.39-11.21-3.93 2.71-21.09 22.36-23.67 41.03-22.23m229.13 1.84c6-.27 11.5 6.6 10.4 12.43l-2.85-.18c-1.33-10.98-11.7-11.44-14.47.84l-4.12.1c2.62-9.48 6.95-13.01 11.04-13.19m69.67.22c2.36 1.4.72 5.2-1.8 5.96-.95.24-3.97-1.86-3.25-3.14 1.36-1.55 3.43-2.35 5.05-2.82m26.85 1.86c1.65 0 3.78.84 4.07 3.06.1 3.24-2.37 2.57-3.2 2.28-1.62-1.51-2.24-5.22-.87-5.34m-82.14 2.6c4.4.51 5.99 6.03 1 6.38-2.22.46-2.32-5.06-1-6.38m-26.72.6c.52 0-.3 4.53-1.39 5.2-2.17 1.32-4.94-.12-4.83-1.48.24-3.27 4.2-3.74 6.22-3.72m76.64 11c8.36 3.17 19.24 6.25 29.48 2.68 3.73-1.42 6.72-3.09 6.7-1.51 0 1.66-2.96 4.18-8.3 5.68-11.02 3.09-19 1.89-26.57-3.79-2.14-1.61-2.89-3.08-1.31-3.06m-3.45 4.73c13.57 7.92 25.81 8.7 36.84 2.93 4.47-1.55 4.61-.13 4.6 2.73-19.87 17.47-44.7-.66-41.44-5.66m-333.12 12.06c-3.36 6.78-5.17 23.5-10.66 28.45-37.5-2.15-13.38-51.6 10.66-28.45m232.36-5.54c-2.12 1.11-.25 6.44 3.1 7.87 28.67 12.33 43.37 13.81 59.69 8.13 6.75-2.35 10.45-7.88 10.78-10.56.4-3.19-3.96-3.51-11.61-.12-23.25 9.11-37.84 2.01-56.61-5.06a7.7 7.7 0 0 0-5.35-.26m-109.81.38-.1 41.81-27.31-.49.32-6.18 20.44.6-.32-29.86-23.71-.22-.04-5.54zm6.34.1 27.25.04 1.37 4.26h-28.62zm-109.93 13.27c-1.8 1.61-4.92 1.96-6.2.67-2.9-2.91.02-8.27 4.63-8.24 4.61.04 5 4.5 1.57 7.57m12.55-6.79c4.12.01 5.48 3.86 2.35 6.97-2.12 1.93-3.2 2.05-5.12.64-2.4-2.12-1.15-7.47 2.77-7.61m-26.89 1.03c1.08-.04 2.03.07 2.73 1.14 2.51 5.13-5.7 8.68-7.42 4.87-1.27-3.1 1.92-5.91 4.7-6.01m154.08.56 1.59 5.38-31.41.15v-5.39zm-112.41 1.55c4.68.56 3.96 5.27 1.78 7.37-3.72 3.45-7.35 2.33-6.4-2.31.6-2.9 2.48-5 4.62-5.06m-25.25 15.42c-1.65 5.88 1.87 17.79.82 19.04-2.3 2.72-5.98 1.32-7.6.39-5.68-3.64-6.04-25-.55-26.28 3.53 1.77 5.9-1.39 7.5-1.86 1.62-.46.54 2.45-.17 8.71m83-8.78a5.6 5.6 0 0 1 0 11.21 5.6 5.6 0 0 1-5.6-5.6 5.6 5.6 0 0 1 5.6-5.61m24.84.73h32.12c1.93 2.68 1.73 4.48 1.2 6.34l-33.32.04zm-94.34.72c1.46-.01 2.2 3.13 1.22 6.71-1.78 6.48-1.68 15.29-.47 19.11.82 2.64 1.62 4.45 1.15 5.2-1.67 2.63-6.75.83-8.91-2.63-5.29-9.78-4.44-28.04 1.86-26.63 2.37 1.19 3.73-.66 5.15-1.76m-28.32 2.47c-1.55 2.48-.44 16.38-.6 17.53-.2 1.45-4.17.7-6.39-.3-5.45-2.56-3.97-9.06-2.91-14.3 1.19-4.12 3.82-4.43 7.05-4.8 1.79-.2 4.14-.05 2.85 1.87m43.7.77c1.73-.07 1.98 1.21 1.58 6.36-.32 4.03-.46 7.46.2 11.26 1.4 8.08 1.57 10.27-.46 11.85-2.41 1.88-5.66 1.31-8.18-.91-5.15-4.08-5.5-24.12-1.44-25.86 3.76.94 6.13-2.04 8.3-2.7m110.95 6.05-4.62 6.35h-27.39l.02-6.33zm-97.66 8.49c4.27.05 3.56 7.61 1.26 12.35-1.95 2.87-3.37 3.16-6.3.47-3.32-3.05.62-12.84 5.04-12.82m89.67 2.12-3.86 3.53-20.08.02v-3.51z"/><path fill="#d40000" d="M649.13 1158.31c-30.36-10.94-42.73-48.78-25.52-86.15 23.06-50.05 57.47-82.19 80.4-129.4-.27 0 44.97 66.45 63.05 91.11 38.75 55.94 36.8 101.99-.74 120.15-26.96 13.05-54.6-1.94-57.79-30.14-.5-4.41-.79-4.99-2.84-5-2.25-.01-2.68 1.56-3.23 8.07-2.17 25.1-29.4 40.01-53.33 31.36M199.95 947.99l-33.3-26.1c39.6-.87 79.19.04 118.78.72l-39.54 28.17c-8.1-8.84-12.88-20.72-24.37-26.46-8.55 3.53-14.4 15.71-21.57 23.67m292.01-9.1c-.67-.1-1.22-.15-1.62-.4-.9-.58-1.5-1.85-2.17-6.05-9.88-46.08-58.45-42.82-58.13-41.47-.36-1.81 60.37-56.65 96.07-99.68 10.8 32.88 43.5 108 42.14 107.73 0 0-9.46.08-34-.53-22.33 10.08-37.87 19.9-37.14 34.12-.12 5-1.33 7.09-3 6.66a56 56 0 0 0-2.15-.37m109.07-148.35c31.6-.49 37.55-15.92 41.15-17.78 20.75-3.42 33.58 10.09 42.68 24.55 11.6 6.99 10.15.53 12.56-10.36l28.92-8.48-.03 9.21c-8.93 4.81-22.18 17.13-22.18 17.13l-8.8-.52-5.04 6.73c-20.1 10.86-39.8 23.81-60.98 32.21 0 0-25.38-32.82-28.28-52.69m-393.68 2.9-.33-182.22c13.07-.92 37.13-.8 37.13-.8 10.07-17.76 23.78-26.1 37.93-36.42a603 603 0 0 1 2.28 66.39c-37.44 45.7-58.24 101.95-35.15 186.02l-13.85-1.54zm206.9 10.2c10.67-38 18.95-76.56 22.39-116.37l71.28-1.06 1.42 24.4zM657 720.7l-1.32-68.18c52.02-62.15 55.1-116.35 35.8-184.88 17.2 3.95 26.04 17.35 42.41 35.82l.01 177.77c-11.37 1.7-39.59 3.35-39.59 3.35-.85 8.33-24.7 28.25-37.31 36.12M436.71 613.24l-3.18-30.06 92.63-88.47c-7.64 38.34-16.9 77.7-19.6 118.51zm-153.69-93.9c-6.61 4.34-30.98-20.98-34.97-38 6.1-8.26 59.74-34.54 59.74-34.54s31.35 40.23 30.06 57.01c-13.92 3.7-26 4.75-36.56 16.1-6.05.54-8.17-6.26-18.27-.56m-42.3-34.02c7.46 1.2 2.68 11.26 1.53 18.64l-39.42 11.68c13.55-11.56 23.16-21.4 37.89-30.32m128.34-88.95c8.1-.24 16.55 3.1 22.8.58 2.33-.9 7-2.32 12.12-1.35 11.77 3.64 15.9-9.34 23.42-9.4 9.72.03 15.1-6.77 15.17-20.38.03-5.9.52-6.55 1.63-7.14 3.31-1.75 6.85.7 7.3 3.94 6.97 25.08 24.57 47.63 52.32 45.83-22.1 22.53-89.33 91.77-89.33 91.77-12.1-36.89-28.2-71.23-45.43-103.85m286-21.6 40.5-29.4 24.23 29.5 20.96-28.08c12.32 8.82 40.32 28.49 40.32 28.49s-83.98 1.24-126-.52m-422.25-15c8.52 6.03-81.15-102.8-91.49-141.26-7.75-22.67-1.92-50.38 14.96-62.25 28.6-20.11 62.14-12.07 68.5 21.78 1.81 9.6 4.81 8.46 5.86.03 3.83-43.13 56.79-46.28 77.16-16.2 13.95 20.6 14.06 53.34-6.14 86.12-4.88 10.42-69.28 108.8-68.85 111.78M31.5 253.52c-6.63-14.47-7.34-39.19 12.37-42.53 14.83-1.91 20.88 4.99 22.08 15.59.59 3.1 2.34 3.28 2.88-.24.87-10.88 11.62-17.23 20.04-15.63 23 3.94 21.67 29.28 14.17 46.48-11.38 22.83-23.34 37.24-34.38 60.22-12.66-23.93-27.08-43.36-37.16-63.9m798.76 797.52c-6.63 14.47-7.33 39.19 12.37 42.53 14.84 1.92 20.88-4.99 22.09-15.59.58-3.09 2.33-3.28 2.87.25.88 10.87 11.63 17.21 20.04 15.62 23.05-3.94 21.67-29.28 14.17-46.48-11.37-22.83-23.33-37.24-34.37-60.22-12.67 23.92-27.13 43.36-37.17 63.89"/><path d="m678.04 108.35-372.26 2.4 72.34 96.61c76.86-15.64 143.76-5.48 213.2 6.65zm-9.52 4.9-24.78 30.78c-6.85-6.2-22.16-3.96-20 9.6-18.98-9.87-23 17.24-6.88 16.12-2.02 5.33-18.3 6.73-22.9-2.93-16.7 9.37-21.81.28-26.24-5.62 21.24 14.42 31.58-15.22 8.2-16.89 9.18-18.58-23.58-27-21.65-2.83-21.6-4.9-16.65 25.5-.78 19.28-10.3 15.5-27.22 5.09-30.64 2.07-8.7 6.52-25.14 6.73-29.74-3.7 24.05 4.84 21.42-26.83.06-19.53 11.38-24.32-26.49-21.05-17.29-1.13-21.54-.82-16.77 25.75 2.15 21.22-16.81 15.85-29.4 1.08-32.07.77-9.95 10.98-27.43 4.96-29.83-1.53 17.15 6.78 22.77-22.04 1.15-20.3 5.54-18.56-25.57-20.82-18.7.27-17.15-3.89-18.08 23.56 1.13 19.29 1.18 7.52-13.93 14.71-23.22 7.45-6.82 3.73-14.28 9.54-23.15.94 13.51-2.17 15.74-25.01-6.08-20.08 1.04-14.02-7.01-14.78-16.96-11.22l-15.93-21.59zM411.71 147.7c-1.18 2.6-3.18 4.39-2.71 6.38.38 1.63 2.06 3.9 4.4 6.97 18.63 24.28 56.39 23.46 67.75-1.57 2.31-4.64 1.83-5.7-.95-9.65-3.36-4.78.43-9.87 4.56-9.44 6.15.64 7.21 6 4.25 9.82-6.42 8.09 11.23 26.4 28.86 29.27 22.6 3.69 44.02-12.2 41.03-26.44-.17-.82-.58-1.58-.75-2.43-2.4-11.92 16.5-6.21 9.7 1.38-2.56 2.75-3.95 3.57-3.6 6.59 5.49 25.23 36.17 27.88 50.78 20.1-18.85 30.74-48.72 7.05-53.97-14.44-26.47 38.22-58.28 30.28-76-3.31 2.1 2.1-34.91 60.2-76.92.62-17.78 47.96-50.21 15.54-48 13.58 14.9 8.3 41.96 5.29 44.57-20.36.35-3.17-2.05-3.37-3.44-5.87-7.04-12.68 15.68-12.77 10.44-1.2m-70 3.15c3.38.31 3.94 1.72 3.38 5.14zm288.88 9.01-4.88 6.13c-1.16-3-1.19-5.75 4.88-6.13m53.07 2.03c-11.58.5-20.52 16.5-19.94 37.83.28 10.35 2.1 36.32 2.81 40.18.99 5.4-.09 12.72-1.99 13.5-5 2.03-6.9 3.34-8.25 5.74-3.52 6.21-.6 13.23 6.8 16.38 5.3 2.25 12.02-.86 16.55-7.63 2.53-3.76 3.12-5.44 5.34-14.9 1.03-4.35.94-11.58-.24-18.21-2.66-15.07-.68-33.85 4.5-42.67 9.3-15.81 9.13-26.17-.48-29.43q-2.61-.9-5.1-.79m-.6 2.41c13.48.05 13.1 13.5 5.64 17.63a10 10 0 0 1-9.98-.72c-3.98-2.3-3.43.32.69 3.31 4.83 3.51 6.89 3.3 4.29 11.53-2.42 7.66-3.7 24.24-2.37 33.65 3.63 25.76.56 38.6-10.28 43.07-5.34 2.2-11.1-.9-12.6-5.2-2.31-6.71 1.82-12.48 12.02-10.86 0 0 .72-2.14-1.93-24.5-3.69-31.1-2.24-52.81 3.48-60.4 3.04-4.05 6.99-7.52 11.03-7.5m91.43 32.06c-3.15.03-6.54.88-10 2.83 0 0-.38 13.98-.79 16.1-2.29 11.83-1.62 13.24 3.9 14.92 13.38 4.07 24.36-4.8 23.87-18.71-.27-7.82-7.53-15.22-16.98-15.14m1.8 1.87c7.32-.22 13.95 8.32 13.24 16.38-.4 9.64-9.61 14.9-17.87 13.21-2.45-.37-4.98-.83-5.77-2.67-1.65-2.55 1.01-3.48 6.57-3.45 6.08.03 7.22-.8 9.23-4.22 4-6.75-1.12-15.32-7.64-13.71-2.23.55-2.56 1.55.05 2.29 8.01 3.6 5.03 8.64 2.25 10.68-3.3 2.43-8.75-.9-9.7-2.91l.57-13.05s2.64-2.48 9.08-2.55m-82.45 60.47s-3.05 1.46-4.51 2.81c-3.24 2.99-3.92 7.51-2.34 11.95.7 1.97.6 2.3-1.87 5.5-7 9.12-7.9 13.68-4.31 21.9 1.63 3.74 1.64 3.74.1 8.68-6.6 21.19-19.63 45.2-33.53 61.83-2.15 2.57-3.01 5.2-3.01 5.2s3.25-.17 5.06-1.07c14.36-7.15 29.54-21 43.65-30.08a790 790 0 0 1-46.08 34.3l30.36 1.63c-7.62 7.81-140.75 120.61-105.4 322.93 41.55-10.34 60.9-27.48 83.05-47.31.2 16.3.56 60.18.7 60.18.42-.73-19.23-7.4-14.55 8.77 2.77 8.87 4.18 31.33-.75 44.01-.21.54 2.12 1.4 1.89 1.9-.27.56-3.16.57-3.16.57-7.54 14.08-26.97 17.16-36.56 16.74-3.53-.34-2.1 4.5-1.63 6.25 1.78 7.25 10.13 22.77 25.73 47.7l4.1.53-2.38 2.2c1.84 3.35 6.76 9.66 6.76 9.66l.22 2.14s8.56 11.9 13.15 17.5c.31.38 1.02-.53 1.34-.15 2.54 3.07 5.6 6.5 8.19 9.55.2.23-.4 1.1-.2 1.33 4.88 5.32 14.47 16.06 14.47 16.06l1.9-.46 7.54 8.5c62.54-28.45 127.9-91.36 127.22-91.22l.54-135.4-74.05-.23-.32-179.37 73.97 73.12-.48-20.98c-16.78-15.95-84.21-83.99-84.21-83.99a84 84 0 0 0 28.53-9.56c16.09 8.85 33.29 14.17 53 11.55l-.09-19.9c-22.37-.04-36.24-7.45-46.28-16.4l-13.82-.47c-25.51 19.41-43.55 10.4-62.96 6.6l-13.41-19.33 137.4-.7-.99-46.88-20.86.46-13.56-10.02 15.73 6.65s-.25-2.59-3.4-7.5c-8.47-13.83-19.22-34.2-25.65-51.96-3.13-9.02-3.12-8.65-.5-13.93 3.63-7.26 2.84-16.06-1.92-21-3.35-3.5-3.24-4.24-2.15-6.83 4.46-10.29-6.3-14.08-6.34-13.41-23.01 8.86-53.89-.27-53.33-.55m53.53 3.74c4.6-.04 5.1 1.98 5.08 5.4-.39 6.27-8.55 8.54-12.25 9.42-17.65 4.04-48.43 1.65-50.44-6.59-1.47-6.05 2.3-9.4 14.85-6.4 20.14 4.32 32.61-.33 42.76-1.83M690.4 279.9c1.83-.02 4.02 1.85 4.65 4.9.54 2.6-2.17 10.26-4.43 12.02-5.61 4.37-10.68-2.42-6.93-9.82 2.16-4.26 4.35-7.09 6.7-7.1m60.24.86c.84.02 2.34.2 3.32.88 4.44 3.15 4.86 14.03.7 15.6-4.24 1.6-8.17-2.8-8.13-9.73.02-4.25 1.6-6.81 4.11-6.75m-14.11 2.25q1.37-.08 2.85.6c3.7 1.71 5.5 13.12 1.82 16.77a6.46 6.46 0 0 1-10.76-3.2c-2.13-7 1.2-13.93 6.09-14.17m-31.3.32c5.42.04 6.65 12.1 1.34 17.07-4.44 4.15-11.22.06-9.1-8.17 1.06-4.12 3.5-8.61 7.75-8.9m15.42 1.93c7.95 1.35 7.27 20.8-3.13 18.85-5.92-4.13-5.76-18.56 3.13-18.85m-34.71 20.82 11.22 1.04s-14.52 31.44-27.8 43.46c-4.97 5.03-7.84 5.24-4.06-.12 8.33-10.3 20.64-44.38 20.64-44.38m67.28.2c6.56 17.48 13.28 35.22 22.23 53.09-13.6-13.1-25.64-33.25-36.74-52.17zm-52.76 1.69 7.43.08c2.47 11.32 6.75 18.53 11.78 24.74 4.36-7.36 7.1-15.44 9.78-24.06l5.9-.08c2.27 1.35-6.94 35.47-15.96 39.62-9.55-7.76-17.6-28.72-18.93-40.3m-3.14 8.07c-.62.81 11.54 30.04 21.83 39.41 9.7-9.4 15.88-21.8 20.04-36.58l31.9 44.78-31.1-21.29c-6.21 10.32-12.8 20.16-20.72 28.35-8.54-9.23-15.93-20.18-23.68-30.6-12 8.9-20.41 18.4-36 26.69.07.35 30.54-32.85 37.73-50.76m-3 31.82 21.72 26.53-57.79-.82zm47.02.43 36.46 25.1-54.33.56zm-290.53 12.34s.3 1.6.67 2.55c6.47 26.4 24.32 48.35 51.18 45.75l-88.29 88.24S399.77 447.71 370.24 397c0 0 5.39 1.1 9.6 1.93 3.94.6 6.94.4 9.9-.37 2.25-.33 3.98-1.8 6-2.24 3.4-.72 7.68.5 9.94 1.3 6.07 1.15 10.19-2.25 17.78-8.96 2.03-1.78 2.8-1.35 5.35-1.34 9.52.03 15.58-8.14 14.52-20.8l-.49-5.62-1.2 6.32c-2.27 11.92-3.86 17.06-15.66 17.57-2.86.12-3.94 2.04-8.46 5.92-6.33 5.43-10.8 5.9-15.28 3.78-4.57-2.17-5-.9-9.31 1.16-4.95 2.36-12.15 2.08-18.64.22-9.06-2.6-7.95-1.72-7.95-1.72 52.47 93.37 70.9 182.93 69.74 262.49-1.66 113.35-41.32 204.84-76.1 260 0 0 5.97-.6 11.28-1.39 2.56-.7 4.54-.02 7.07.87 2.36.83 4.15.8 6.47.52 1.8-.2 6.22.03 9.07.44 6.46.93 6.89.08 13.92-6.74 19.95-19.38 18.65-18.67 33.1-18.2 21.7.7 39.04 15.02 46.27 38.21.91 2.94 2.1 7.05 2.27 7.05l-1.41-6.14c-6.35-31.1-32.95-42.49-55.15-42.07l93.72-93.97c-.48.1 21.72 71.5 41.06 103.33.04.22-5.86-2.54-16.64-1.14-5.86.76-12.42-.01-16.1-.64-4.75-.13-7.63 1.28-13.54 6.13-2.45 2.1-4.66 4.4-9.45 6.43-11.4 4.82-15.95 9.8-16.01 22.29 0 2.27-.35 5.18-.32 6.3.01.3-.01.84.06.84.2 0 .46-.47.68-.8.58-.83 1.72-3.1 2.6-8.33 1.59-9.34 3.55-12.61 12.4-16.75a74 74 0 0 0 10.74-6.61c8.15-6.5 10.87-8 17.5-6.45a31 31 0 0 0 12.02.72c6.02-.73 6.36-1.04 12.8.62 4.36 1.12 9.76 2.21 9.76 2.21-90.84-182.41-87.84-351.52 1.82-523.1 0 0-26.54.31-27.67 1-.43.27-3.65-.02-7.17-.66-7.22-1.3-5.64-.43-22.69 16.7-21.07 21.19-54.79 4.3-64.94-31.25a16 16 0 0 0-1.78-4.3c-.25-.42-.93-1.13-.93-1.13m85.89 20.87c3.9.4 6.8 1.44 6.32 5.1L417.88 509.1l-1.95-7.9zm26.37.74c-1.53 3.04-5.71 6.85-7.55 9.72l6.81 8.47-3.77 6.83-10.46-8.8-19.92 19.66 16.6 18.63-15.72 15.87-5.24-5.93 8.32-8.7-12.92-12.08-22.74 22.1 18.53 18.84-13.6 13.03-5.42-5.14 7.13-7.87L491 454.4 469.82 476l16.76 18.66-12.94 12.85-5.75-5.82 6.23-6.49-12-12.55-21.57 21.29 17.5 19-12.86 11.5-4.55-4.8 6.23-6.69-11.77-12.59-13.39 12.15-2.23-8.33 132.48-131.6zm7.64 1.95-5.59 11.2-4.31-4.74 5.62-5.78zm-312.47.72c-3.44.84-82.31 44.77-127.22 93l-.14 17.98-1.67 2.14.8 27.81 1.13 1.49.38 11.34-1.79 3-.01 31.14 2.38.4.38 38.11 73.77.2-.07 182.08s-43.32-47.62-74.52-75.72l.12 21.28 82.52 85.26c-5.67.8-13.06 2.17-24.19 8.31-26.78-16.72-57.73-11.6-57.73-11.6l.12 21.68c19.68-1.9 37.44.8 58.13 14.72 17.03-11.55 37.55-18.57 68.15-9.4 6.73 10.66 13.47 21.66 20.2 28.81l-146.12 1.09.18 43.91c6.49.13 22.7 0 22.7 0 8.22 16.1 24.37 38.08 31.08 65.74-9.22 11.06-8.48 19.95.48 31.09-.08 5.03-1.6 10.57 4.05 16.17 18.6-9.09 39.58-5.06 55.2-.41 5.3 1.56 7.3-4.46 7.1-12.05-.46-4.35-.43-6.2 2.9-9.1 7.95-6.89 3.01-21.05 1.77-21.36-.46-12.42 39.33-74.6 39.35-73.46l-7.93 2.87-34.01.15c89.46-86.26 126.85-184.66 119.03-295.76-1.75-28-6.1-40.82-6.1-40.82-31.52 14-57.42 24.18-82.57 51.12l-1.67-57.91c1.4 2.74 10.74 5.27 14.92 1.77 2.86-1.88 3.15-3.88.5-10.9-3.85-10.2-4.75-32.09-1.89-39.52.34-.87.62-3.18.87-5.44.32-3.05-.35-3.23-.63-3.18.73-.17 3.81.45 4.18.12 10.75-9.45 22.28-15.36 36.42-15.98l.36-6.9c-10.48-26.5-19.37-36.88-28.87-51.69 0 0-2.7-.9-4.4-.54l2.2-2.3c-13.34-21.16-32.3-40.4-49.74-58.68q.06-.1-.1-.06m-.58 3.6 9.45 8.73c-45.13 21.69-89.66 53.47-133.5 96.58l.6-15.84c49.56-46.61 86.95-69 123.45-89.48m289.83 15.85 5.69 5.66-7.87 9.13 5.12 5.22-2.85 6.97-13.1-13.6zm-281.75.72a5.38 5.38 0 1 1 0 10.76 5.38 5.38 0 0 1 0-10.76m386.2 7.43c92 102.4 44.77 251.2-78.04 286.95l-1.37-8.42c123.9-41.73 152.97-181.34 72.57-269.11zm-370.25.68 5.86 6.79C235.07 445 183.92 482.55 134.46 536.7l-.48-13.68c46.45-48.82 96.1-84.13 147.68-109.83m-33.83 2.09a5.4 5.4 0 0 1 5.37 5.38 5.38 5.38 0 1 1-10.75 0 5.4 5.4 0 0 1 5.38-5.38m-16.39 10.12a5.4 5.4 0 0 1 5.38 5.38 5.38 5.38 0 1 1-10.76 0 5.4 5.4 0 0 1 5.38-5.38m54.56 3.53a5.38 5.38 0 0 1 0 10.76 5.38 5.38 0 1 1 0-10.76m233.7 3.72 5.38 5.68-8.54 8.55 12.15 12.7 11.69-11.25-5.86 16.74-103.03 102.97-2.15-10.8 8.12-8.15-12.44-12.41-2.19-8.28 12.24-11.44 5.1 5.26-7.14 8.25 11.51 11.33 20.9-19.24-17.25-18.93 14.24-13.78 4.92 4.8-6.8 7 11.98 13 21.44-20.54-17.6-18.61 14.15-13.96 5.36 5.12-7.13 8.55 12.2 11.8 21-20.75-17.27-18.15zm-304.32 3.61a5.38 5.38 0 1 1 0 10.75 5.38 5.38 0 0 1 0-10.75m84.85 1.05 4.1 6.8c-62.44 31.54-105.62 63.14-169.53 135.74v-9.14c49.33-60.57 100.63-99.62 165.43-133.4m-31.36.8a5.39 5.39 0 1 1 0 10.77 5.39 5.39 0 0 1 0-10.77m483.12 2.07c11.01 9.8 34.15 19.57 49.05 18.53l.4 11.79c-26 2.46-48.71-14.18-48.71-14.18-20.03 12.2-40.4 13.75-61.66 8.45l-8.17-17.5c31.51 14.6 61.07.66 69.1-7.1m-124.44 3.2c1.16 2.13 5.04 4.6 5.04 4.6 24.26-6.32 31.82 18.68 20.5 32.97l3.23 10.48c4.33.78 8.13 2.3 11.2 4.44a20.1 20.1 0 0 1 8.42 18.61c.82 8.06-11.23 15.56-11.89 15l-.16 11.52c3.4 2.83 7.48 5.56 10.08 9.56 5.8 9.73 3.5 19.54-5.44 25.7-5.32 3.6-11.09 4.07-11.32 3.7l-5.6 13.09c4.92 2.78 6.31 7.52 7.08 10.9 1.68 7.34-3.47 16.9-9.94 20.42-8.16 4.45-19.28.5-19.27.5l-7.95 7.95c2.04 6.9 2.6 11 1.52 15.04-2.68 10-13.16 13.93-21.58 13.17-6.62-.58-11.6-5.42-11.6-5.42l-8.8 3.38c.24 0 .13 11.16-4.32 14.57-1.4 1.45-6.37 4.66-6.37 4.66l-1.16-7.69c3.49-2.51 5.66-8.6 4.96-13.07l19.03-9.32c0 .7 5.21 5.74 8.78 6.47 7.3 1.49 14.95-4.21 14.96-10.92 0-3.92-2.25-6.58-2.9-9.74l16.17-16.73c6.7 2.3 11.38 2.7 14.38.97 5.64-3.26 7.17-10 6.08-14.04-1.28-4.78-5.55-7.88-5.84-8.33l9.02-22.79c4.2-.02 6.8-.68 10.08-2.81 6.68-4.39 5.81-12.92 2.96-16.97-3.46-4.93-8.5-5.84-8.89-5.72l.66-23.67c0 .19 9.12-4.38 10.1-9.66 1.44-7.78-1.83-12.72-11.38-14.92-5.3-1.22-5.02-.2-5.02-.2l-7.56-21.43c11.97-7.3 8.18-18.9 2.12-22.79-6.4-4.1-15.42-.3-15.42-.3s-4.11-4.08-7.23-7.37zm-320.18 4.34c7.86 10.57 21.17 31.75 28.61 50.7.33.82.16 5.02.16 5.02-21.22 1.84-28.52 10.16-36.06 16.02-5.85-3-8.31-6.52-18.9.1-.03.31-26.96-16.3-32.12-38.83 19.26-11.87 37.61-23.17 58.31-33.01m-107.76.14a5.4 5.4 0 0 1 5.38 5.38 5.38 5.38 0 1 1-5.38-5.38m51.01 1.06a5.38 5.38 0 1 1 0 10.76 5.38 5.38 0 0 1 0-10.76m368.26 6.6c9.27 12.21 23.26 35.3 26.58 55.75 4.67 28.75 1.56 58.92-11.63 80.01-23.92 45.06-65.4 54.65-65.43 56.22l-.43-9.23c.4 2.07 31.71-11.12 53.03-40.9 13.17-20.19 20.64-49.04 18.1-71.55-1.58-32.44-24.61-62.35-24.8-62.46zm-436.06 4.4a5.38 5.38 0 1 1 0 10.77 5.38 5.38 0 0 1 0-10.77m50.96.08a5.38 5.38 0 0 1 0 10.77 5.38 5.38 0 1 1 0-10.77m459.45 9.08c11.94 1.3 26.54 22.94 39.84 35.3l.14 176.5-39.7.8c-5.17 12.41-17.16 24.69-36.26 36.8l-.02-66.14c65.14-69.78 47.42-146.16 36-183.26m-525.03 2a5.38 5.38 0 1 1 0 10.77 5.38 5.38 0 0 1 0-10.76m49.06.96a5.38 5.38 0 1 1 0 10.76 5.38 5.38 0 0 1 0-10.76m503.96.42 81.16 81.83-.28 12-91.46-92.92zm-474.2 7.7 2.14 10.27c-2.62-4.12-2.72-5.64-7.27-6.36zm-43.94 2.99a5.38 5.38 0 1 1 0 10.76 5.38 5.38 0 0 1 0-10.76m-48.61 1.5a5.38 5.38 0 0 1 0 10.76 5.38 5.38 0 1 1 0-10.76m456.61 0L627.12 496l-5.22 20.46-16.4-14.74zm-370.27 1.67 2.85 1.68-3.32 14-36.88 13.31c11.86-10.12 24.05-21.16 37.35-29m6.04 6.51c2.62 10.38 8.31 25.71 15.29 38.7-4.74 2.45-21.76 12.08-21.71 16.56 2.4 8.12 20.38 15.56 20.38 15.56a204 204 0 0 0-18.6 39.06c-3.07-5.24-3.42-25.86 3.2-34.44-6.53-2.57-15.46-8.45-22.25-14.54 4.38-15.49 23.04-24.74 23.85-24.85-.33.77-5.51-32.36-.16-36.05m-59.88 2.61a5.4 5.4 0 0 1 5.39 5.39 5.38 5.38 0 0 1-10.76 0 5.4 5.4 0 0 1 5.37-5.39m410.82.45c23.95 44.6 9.7 83.35-28.5 111.11l.9-10.52c26.34-19.12 43.42-56.75 24.17-92.64zm-456.27 1.28a5.4 5.4 0 0 1 5.38 5.38 5.4 5.4 0 0 1-5.38 5.38 5.4 5.4 0 0 1-5.38-5.38 5.4 5.4 0 0 1 5.38-5.38m383 .28c-17.57 65.5-17.13 95.51-19.17 113.27l-68.2.58-2.66-23.61zm-272.49 1.8s14.8 13.74 28.07 25.73l-1.58 3.13-12.91 1.73c-9.88-19.45-13.58-30.58-13.58-30.58m-12.24 7.19.1.02.82 9.76c-4.43-.17-52.4 19.87-89.25 51.86 5.49-9.68 14.76-18.95 23.71-26.87 19.05-18.7 64.62-34.77 64.62-34.77m-38 8.35 2.74 2.81-12.74 6.59zm88.75 2.87.54.02c1.98.25 2.8 1.18 3.92 2.13-2.49-.52-4.94-.8-7.26-.68a4 4 0 0 1 2.8-1.47m-48.7 2.03 1.16 7.29c-27.6 15.69-60.44 30.52-108.21 75.68v-15.02c29.99-27.78 64.95-51.07 107.04-67.95m37.13.68c1.72.42 3.25.45 4.82.06 0 0-1 1.99-2.2 2.03-1.25.05-2.62-2.09-2.62-2.09m11.7.42c3.48-.21 5.85 2.96 5.15 7.05-2.67 13.85-2.57 27.89.3 37.69 2.23 7.64 2.8 10.33.94 11.6-16.27 11.23-25.2-39.36-11.6-53.7 1.84-1.74 3.64-2.54 5.22-2.64m-132.86 1.77a5.38 5.38 0 1 1-.01 10.76 5.38 5.38 0 0 1 0-10.76m467.58 1.25 10.12 16.96-14.1 15.79-8.57-18.34zm-348.24 9.21-.53 5.86c-7.27 2.2-13.6 5.34-19.05 9.97-1.06.9 16.83 8.97 18.7 7.1l-.03 6.25c-.25 2.05-29.58-7.27-31.57-14.22 3.33-4.62 21.89-15.37 32.48-14.96m-53.5 9.3c-2.08 3.95-5.15 9.2-5.75 14.94-20.12 12.2-40.76 23.6-65.87 51.6l-13.54-.08-.3-3.55c27.45-26.17 57.17-48.74 85.46-62.92m51.84 1.7.15 7.36c-4.68.06-7.24-1.46-10.73-3.23 2.94-1.85 5.22-3.7 10.58-4.13m151.42.78 3.77 3.95-2.34 2.21zM223.03 560.1l7.45 4.64a207 207 0 0 0-56.85 44.11h-14.75c18.63-20.2 38.71-38.32 64.15-48.75m397.4 5.32 1.49 20.04-18.72 10.26.37-21.14zm-355.88.08 12.87 1.4 1.33 5.45c-10.8 6.86-20.18 14.92-29.18 23.29a114 114 0 0 1 14.98-30.14m-30.86 2.15 5.52 2.55-2.18 9.42c-15.77 7-28.33 16.47-41.79 29.23H180.1c13.26-14.2 35.3-32.1 53.6-41.2m47.88 8.85q.06 0 .06.02l2 61.77c-55.58 65.08-52.56 128.01-36.35 185.08l-10.6-.48c-12.33-15.3-28.72-30.9-28.72-30.9l-.04-179.67 38.33.15c9.04-20.92 33.9-35.8 35.32-35.97m-45.26 8.68.46 8.23a111 111 0 0 0-20.44 15.44h-14.4c9.96-9.26 19.84-18.58 34.38-23.67m130.7 4.03 2.1 9.72c-129.03 46.68-152.35 182.36-76.2 275.5l-5.17 5.79c-87.45-93.9-49.07-247.29 79.27-291m-129.67 9.71.92 9.92h-14.45c3.25-3.81 6.13-7.76 13.53-9.92m363.1 3.11-8.31 19.38-22.19.34 10.08-19.37zM460 615.33h20.22v19.31H460zm-87.5 1.9.34 8.5c-8.99 4.57-6.72 11.84-8.98 11.72-5.52 1.4-20.08 9.12-20.08 9.12-5.16-4.68-12.12-3.5-15.35-1.23-4.5 2.94-5.49 9.78-4.2 15.57l-15.45 18.05c-7.45-3.2-14.72-3-18.35 1.98-4.08 5.62-2.54 12.58 4.22 20.38l-8.41 21.59c-.97-1.3-15.05 2.84-15.24 11.2-.2 8.85 11.64 14.63 11.63 15.3l-.57 23.82c-.53-1.15-12.09 3.57-10.52 14.98 1.44 10.5 15.74 9.22 16.04 10.1l7.77 22.79c-.52-.7-10.53 9.1-4.4 18.37 5.12 7.72 19.97 2.73 19.84 2.23l4.12 5.8-4.56 4.94s-1.97-2.36-3.07-2.15c-8.64 1.65-18.3-.33-22.93-7.23-6.3-9.73.74-24.94 2.97-24.82l-5.34-13.13c-9.73-.19-17.97-8.88-18.41-16.16-.92-15.25 11.6-21.63 11.62-21.53l.37-14.21c-.77.85-12.37-7.38-12.1-16.83.21-6.9 6.03-15.02 13.18-18.29l5.3-2.51 4.84-11.64s-6.85-9.9-5.08-19.88c3.3-15.11 22.99-14.08 26.1-12.61l9.14-11.45c-4.5-10.44 3.27-22.56 13.43-24.53 4.52-.73 17.17 2.26 17.17 2.26l11.7-6.04c-.2-6.4 6.79-10.56 13.26-14.46m66.56 21.15h17.32v19.31h-17.32zm46.16 0h19.53v19.31h-19.53zm-111.32 4.84-.22 7.39c-111.87 54.23-66.11 166.54-50.16 179.6l-3.59 7.93c-19.63-11.93-70.23-141.52 53.97-194.92m86.1 19.55h21.03l.18 19.86h-21.03zm-90.95 9.66-6.67 18.1-20.55 1.72 7.6-18.05zm419.73 13.23 14.05.08c-26.27 30.74-54.64 51.68-82.62 63.15 0 0-.1-2.74.75-4.9.7-1.71-.41-6.04-.41-6.04 31.1-15.32 52.48-33.12 68.23-52.29m-72.03.26c-3.62 4.35-7.74 8.18-12.87 11.02l-2.02-11.2c4.29-.05 14.89.18 14.89.18m24.74-.24c1.42 3.58-36.9 24.27-37.03 22.5l.1-6.88 20.68-15.34zm8.27 0h.08l10.78.06c-9.74 15.36-61.25 43.26-59.1 39.33l2.08-11.23c16.6-7.3 31.67-17.24 46.16-28.16m18.17 0 14.19.06c-21.35 27.1-43 37-63.77 48.67-1.25-.19-.68-.65-4.58-.54l-7.1-5.54c1.33 1.22 47.74-25.99 61.26-42.65m-396.98.97-.48 8.19c-29.86 25.68-41.84 58.5-26.3 96.58l-3.7 8.13c-16.71-40.64-11.77-80.13 30.48-112.9m135.98 1.28 1.58 22.1-92.7 90.24c14.1-50.4 18.02-80.84 21.8-112.22zm296.86 5.2.04 12.27c-36.55 40.26-73.38 58.3-105.21 65.6l-.72-4.72 14.74-9.08c47.49-20.68 68.28-41.5 91.15-64.07m-110.92.33c.64 8.87-7.25 25.6-16.28 35.05l-15.46-.04-1.7-6.7c12.81-6.92 24.69-16.27 33.44-28.3m4.67 2.63c5.67 9.14-2.85 32.79-3.2 31.85-.68 1.63 48.57 12.04-2.03 36.4 1.1 7.16 5.85 22.44 2.2 31.89-1.15-3.62-9.95-28.14-16.75-34.42 15.8-4.5 27.17-14.16 25.94-17.35-2.57-4.53-9.64-10.1-21.54-14.17 10.13-14.06 13.14-24.62 15.38-34.2m-361.73 4.48 1.6 18.64-18 10.82-1.39-20.46zm313 17.3c1.4.03 2.72.4 3.37 1.1 8.88 3.59 9.52 46.94 1.46 51.36-5.86 3.68-9.98-2.24-9.78-3.3 3.89-19.94 1.46-32.27-.15-46.22.16-2.03 2.75-2.96 5.1-2.93m154.98.64v15.42c-52.24 54.16-108.54 96.85-166 120.82l-5.25-8.9c69.8-32.27 128.16-78.32 171.25-127.34m-9.17 1.4c-24.2 33.7-53.69 55.68-94.08 65.67l-.75-9.56c50.3-11.43 96.13-56.1 94.83-56.1m-658.6 5.46c31.52 32.22 63.82 64.15 95.9 97.22l-12.74.66-83.53-86.66zm375.2 1.6 1.13 7.96-9.18 10.06 14.5 15.58.74 3.67-12.45 13.01-5.62-5.56 6.89-7.73-11.7-12.29-21.66 20.84 17.85 19.38-13.46 12.81-5.31-5.48 6.89-7.95-11.97-12.63-22.09 21.96 16.7 18.46-11.13 12.33-5.28-5.57 5.72-6.56-12.11-12.47-21.22 20.44 17.47 19.32-14.2 14.13-5.5-5.34 7.97-8.67-13.09-12.47-10.5 9.92s3.96-9.85 4.53-11.51c.85-2.44 4.33-4.38 26.41-26.16 26.35-26.23 53.38-50.81 79.67-79.47m151.16 5.3c7.7.13 20.8 1.98 27.16 5.34 11.8 6.22 8.1 11.12.43 14.78-9.17 4.36-16.7 6.5-27.05 6.8l.3-5.08c6.01-1.45 12.25-2.92 17.57-5.86 3.65-2.02 4.6-3.66 4.6-3.66s-3.57-3.62-9.24-5.68c-4.15-1.5-10.08-1.5-13.3-2.03zM317.66 739l9.7 14.54-11.48 19.26-11.03-16.61zm195.63 1.57c.34 2.74 3.8 13.39 1.99 11.32l-6.45-7.25zM663 742c5.35.46 11 .62 14.9 2.51-4.53 3.53-9.68 4.31-14.81 5.18zm134.54 7.27a5.87 5.87 0 0 1 5.86 5.87 5.87 5.87 0 0 1-11.72 0 5.86 5.86 0 0 1 5.86-5.87m-302.6 10.16 5 4.84-6.46 7.53 11.73 12.35 14.52-13.6 1.92 8.64-136.01 133.82-7.55-.54 8.65-10.22-9.84-10.05 4.04-7.23 11.6 10.32 21.27-20.34-17.23-18.13 14.74-15.12 5.56 4.8-8.45 9.15 12.3 12.57 22.25-21.88-17.4-18.94 13.89-13.25 5.1 4.84-6.46 6.84 12.68 13.22 18.76-19.52-17.07-18.8 15.16-14.75 4.66 4.66-6.99 7.79 12.75 13.19 20.46-21.02-16.84-18.28zm288.98 3.5a5.87 5.87 0 0 1 5.87 5.86 5.86 5.86 0 0 1-11.73 0 5.86 5.86 0 0 1 5.86-5.86m-110.55.26c9.24 10.84 14.8 22.91 15.9 35.9a109 109 0 0 0-29.07-29.76l2.1-5.44zm130.43.88v13.1c-41.2 46.67-91.22 81.86-142.58 106.35l-8.73-10.62c60.73-27.12 104.69-60.8 151.31-108.83m-60.61 9.14-16.71 12.97-.02-5.62zm-86.1.96c14.22 6.94 26.14 18.68 33.25 36.06-19.43 12.2-40.73 22.06-61.04 31.89-9.76-15.7-19.57-30.42-27.27-50.63 31.32-.24 39.92-17.35 40.14-17.48 7.55 2.85 9.13 3.2 14.92.16m112.54 2.55c2.92.06 5.84 2.3 5.94 5.64a5.86 5.86 0 0 1-5.86 5.87 5.87 5.87 0 0 1-5.87-5.87c.64-4.04 3.22-5.69 5.79-5.64m-43.35 3.86.04 5.66c-8 7-23.54 18.35-23.54 18.35l-6.42-.34 2.09-16.06c9.73-1.96 19.16-4.8 27.82-7.61zm-409.15.66 15.34 12.6-4.7 19.57-15.1-11.47zm206.01 3.7 1.43 5.66-126.04 124.59-7.17-1.17zm232.51 4.81a5.87 5.87 0 1 1 0 11.73 5.87 5.87 0 0 1 0-11.73m46.54-.04c.7 0 1.51-.05 1.51.6v10.79a6 6 0 0 1-1.97.34c-3.24 0-5.4-2.63-5.4-5.86s2.63-5.87 5.86-5.87m-14.21 13.07a5.86 5.86 0 1 1-5.87 5.87 5.87 5.87 0 0 1 5.87-5.87m-49.27.06a5.86 5.86 0 0 1 5.86 5.87 5.86 5.86 0 0 1-5.86 5.86 5.87 5.87 0 0 1-5.87-5.86 5.87 5.87 0 0 1 5.87-5.87m-42.39 1.81 6.02.2-11.2 6.67c2.06-2.58 3.98-4.55 5.18-6.87m107.46 2.74.08 12.06c-28.82 28.81-65.23 58.71-120.9 87.52l-7.09-7.18c45.4-21.64 87.98-51.97 127.91-92.4m-81.86 6.58a5.87 5.87 0 1 1 0 11.73 5.87 5.87 0 0 1 0-11.73m52.13.44a5.86 5.86 0 0 1 5.86 5.86 5.86 5.86 0 0 1-5.86 5.87 5.87 5.87 0 0 1-5.87-5.87 5.87 5.87 0 0 1 5.87-5.86m-583.9 23.53c19.9-11.54 35.88-12.9 58.67-9.42l6.81 13.44c-22.2-3.94-45.57-3.58-65.56 11.84-20.72-13.09-36.45-16.86-53.47-14.74l-.3-14.16c22.17-3.1 42.07 4.5 53.85 13.04m515.6-12.77a5.86 5.86 0 1 1 0 11.72 5.86 5.86 0 0 1 0-11.72m53.62 2.41a5.87 5.87 0 0 1 5.86 5.86 5.87 5.87 0 0 1-5.87 5.87 5.86 5.86 0 0 1-5.86-5.87 5.86 5.86 0 0 1 5.86-5.86m-71.23 8.75a5.86 5.86 0 0 1 5.86 5.87 5.86 5.86 0 1 1-11.72 0 5.86 5.86 0 0 1 5.86-5.86m54.66 3.4a5.87 5.87 0 0 1 5.86 5.86 5.87 5.87 0 0 1-5.86 5.86 5.86 5.86 0 0 1-5.86-5.86 5.86 5.86 0 0 1 5.86-5.86m-72.73 6.96a5.94 5.94 0 1 1 0 11.88 5.94 5.94 0 0 1 0-11.88m57.06 4.91a5.86 5.86 0 0 1 5.86 5.87 5.86 5.86 0 0 1-5.86 5.86 5.87 5.87 0 0 1-5.86-5.86 5.87 5.87 0 0 1 5.86-5.87m-74.43 4.06a5.87 5.87 0 1 1 0 11.73 5.87 5.87 0 0 1 0-11.73m-259.2 5.3 14.57 13.35-15.07 15.15-5.53-5.3 8.4-8.78-5.68-7.65zm317.45 1.3a5.86 5.86 0 0 1 5.86 5.86 5.86 5.86 0 0 1-5.86 5.87 5.87 5.87 0 0 1-5.86-5.87 5.87 5.87 0 0 1 5.86-5.86m-16.87 9.93a5.86 5.86 0 0 1 5.85 5.86 5.86 5.86 0 0 1-5.85 5.86 5.87 5.87 0 0 1-5.87-5.86 5.87 5.87 0 0 1 5.86-5.86m-18.34 9.96a5.86 5.86 0 0 1 5.86 5.86 5.86 5.86 0 0 1-5.86 5.86 5.86 5.86 0 1 1 0-11.72m-301.53 16.58 4.76 3.88-7.47 9-5.7-.09zM282.08 923c-16.62 8.22-24.51 13.43-36.1 23.5l-16.6-23.03zm-113.07.15 44.26.63-14.72 20.82c-9.7-10.23-19.55-17.17-29.54-21.45m52.71 2.28c4.8 1.52 17.35 19.4 23.25 29.17 12.59-10 24.91-21.2 38.36-27.2-15.99 16.87-30.02 34.33-40 51.22-2.84-7.62-10.71-29.4-20.68-38.88-15.73 14.69-21.95 32.41-21.95 32.41a281 281 0 0 0-30.44-42.37c-1.95-2.63 14.35 7.5 30.48 23.2 4.54-11.45 16.7-27.1 20.98-27.55m-53.14 11.24c7.6 6.04 28.26 32.55 30.63 48.49l-9.9.62c-5.26-16.37-14.1-32.74-20.73-49.1m110.05 2.7c-7.49 15.35-16.77 31.03-23.43 48l-9.78-.41c10.7-23.4 14.6-27.7 33.2-47.59m-56.07 6.83a.4.4 0 0 1 .24.06c9.29 12.68 13.68 25 16.45 40.02l-7.2-.28s-5.01-15.07-8.45-20.39c-2.23-3.25-4-2.83-5.58-.14-3.55 6.37-4.87 12.75-6.87 19.68l-8.27-.6c-1.53-11.37 16.77-38.06 19.68-38.35m-1.3 43.7c3.36.05 6.87 3.7 6.84 10.1.26 3-2.07 9.65-4.6 9.99-4.69 2.48-10.23-5.25-8.84-11.69 1.2-5.5 3.63-8.42 6.6-8.4m-16.29 1.22c6.65.59 8.07 15.49 5.38 18.53-3.09 3.07-11.26.89-12.03-4.42-2.67-6.75 2.19-14.04 6.65-14.1m32.75-.1c7.23 1.02 5.4 17.37 1.67 19.77-5.82 3.08-10.25-2.06-8.29-9.75 1.58-6.19 3.94-9.87 6.62-10.02m16.72 2.71c8.29.93 3.5 15.33-.12 18.26-5.26 4.1-10.33-2.03-7.8-9.34 1.95-5.67 5.2-8.95 7.92-8.92m-66.87.45c6.02.96 9.51 14.6 5.93 18.5-1.88 2.23-7.33-1.03-9.81-4.77-3-4.49-.2-13.75 3.88-13.73m64.15 29.7c.72 7.16-4.68 7.16-20.25 3.66-7.86-1.76-21.8-.65-28.91.65-11.99 2.17-13.68 1.35-13.66-3.54.03-5.65 6.75-8.86 22.3-9.35 11.11-.34 38.8-.45 40.52 8.58m24.2-4.2c-18.53 1.74-23.46 24.97-21.42 33.55 1.63 14.34.94 29.37-1.83 39.24-1.98 7.08-3.74 14.63-6.92 21.06-4.88 9.71-3.62 16.91 3.6 20.78a14.8 14.8 0 0 0 17.84-2.83c8.28-8.9 9.27-27.79 4.2-70.64-1.8-15.13-.83-18.14 6.5-17.29 15.4-.12 14.79-23.85-1.96-23.87m-2.23 19.51c-4.15-1.6-6.96 2.17-6.4 11.55.14 4.16.87 8.84 1.4 12.57 6 41.11 3.75 68.66-8.87 70.01-11 1.76-18.45-6.33-13.08-14.69 3.04-4.74 5.65-5.39 11.57-2.89 8.12 5.03 6.09-2.3-1.23-7.71-4.69-3.32-5.05-3.32-2.53-13.7 3.4-14 4.54-23.98 3.3-41.68-1.76-12.53 2.43-29.14 18.37-30.12 16.12-.48 11.26 22.41-2.53 16.66m-113.79 54.16c5.25 2.53 10.35 2.1 15.34.03 1.95-8.74 2.07-16.01 7.95-27.89-9.8-9.81-26.3-5.95-30.93 4.32-4.65 10.28-.33 19.69 7.64 23.54m15.72-30.35c5.94 1.26 5.05 7.5-.54 5.47-13.33-6.28-24.2 12.61-13.44 19.71 5.5 3.08 7.92 1.32 2.48-2.9-2.23-2.57-1.67-3.62-.32-6.19 2.8-5.19 12.94-4.35 12.22-.58-2.3 11.96-3.83 15.41-7.42 15.44-20.7 1.07-24.6-37.67 7.02-30.95m175.8 21.51s-61.66 69.7-91.35 105.39l372.17-1.73-70.82-97.7c-60.75 14.03-132.13 9.98-210-5.96m-1.86 22.27c9.3.1 19.88 6.85 29.02 29.35.5.21 40.93-61.4 75.94 2.39 5.71-14.31 38.69-51.67 76.8-3.73 13.54-32.08 44.76-21.23 47.69-10.04-.66-2.41-29.76-9.32-42.35 11.95-2.33 4.5-2.45 8.77.22 11.3 6.3 5.97-.55 14.52-7.72 9.65-2.8-1.89-3.15-5.87-1-8.74 6.32-4.72-6.64-19.38-17.3-24.67-14.63-7.24-35.02-4.04-44.83 6.35-5.28 5.6-8.5 10.62-9.27 14.63-.4 1.87-.16 2.84.95 4.08 4.25 5.14 1.45 12.16-4.3 11.3-7.55-1.11-6.54-8.16-1.5-12.02 1.55-.75.96-1.66.5-2.98-13.77-38.76-65.08-31.38-70.62-4.53-.2.97-.65 1.99-.43 3 .58 2.57 2.08 4.73 1.5 6.75-2.35 8.24-12.67 5.88-13.13-.95-.2-3.1 3.14-4.04 4.78-6.88.99-1.78 1.44-3.95.5-5.93-13.91-29.12-37.78-23.03-49.62-16.45-.25.14 10.6-13.98 24.17-13.83m-15.42 16.89c5.1-.18 9.72 2.32 14.04 7.32 14.57-7.7 24.93 5.64 23.21 6.93-20.63-13.39-27.33 17.81-7 16.63-8.93 18.48 22.97 26.4 19.4 2.78 19.69 6.87 22.93-20.17 2.99-19.76 6.44-11.15 23.17-8.08 30.25-1.09 8.32-10.17 28.75-.48 30.78 8.21-22.91-11.74-25.22 24.14-3.03 16.5-6.57 22.84 28.7 19.59 18.95-.1 21.98 7.23 19-25.61-2.6-18.95-1.32-1.7 17.07-20.69 30.43-2.85 1.81-3.15 22.68-13.43 34.1 2.73-24.74-8.37-20.06 24.93-2.33 18.31-4.74 22.06 27.25 18.48 19.07-.32 24.8 6.27 13.81-31.49-3.6-17.55 2.84-15.18 23.67-8.89 23.44-6.55 0-.01 11.06-11.96 23.45-3.21-19.35 1.63-12.77 27.73 5.52 20.3-.2 8.86 7.17 14.73 17.13 11.72l15.65 21.88-356.77 2.24 28.5-33.97c9.53 7.88 19.42 4.15 20.63-8.2 20.75 12.72 26.14-17.5 6.67-18.81q5.92-4.02 11.12-4.19m-19.93 9.81c1.23.88-.45 5.07-3.18 3.86zm278.17 8.78c1.06 1.52 1.81 2.49 2.87 4.02.51 1.35-5.56-.72-2.87-4.02"/></g><path fill="#d40000" d="M822.78 1124.01v12.4h9.79l27.88 62.58-26.7 43.71h-10.29v11.09h38.96v-11.09h-12.97l35.71-51.54v51.54h-10.73v11.09H910v-10.82h-11.69v-106.56h11.7v-12.4h-35.58v12.4h10.73v31.47L870 1187.42l-22.75-51.01h15.18v-12.4zM23.33 46.21v12.2H35.8v106.06H23.33v13.13h36.23v-13.13h-9.6v-30.09l14.55-20.16 21.82 50.25H72.39v13.13h39.52v-13.13h-9.44l-28.93-64.6 27.48-41.66 10.19.2V46.2H71.97v12.2H83.3l-33.34 51.15V58.4h9.9V46.2z"/></svg>