<svg xmlns="http://www.w3.org/2000/svg" fill-rule="evenodd" stroke-linejoin="round" stroke-miterlimit="2" clip-rule="evenodd" viewBox="0 0 934 1300"><g fill-rule="nonzero"><path fill="#131f67" d="M125.2 107.83h681.38l1.25 1089.03-683.2-1.81s-.02-710.65.56-1087.22m484 1081.2c-25.38-45.78-65.49-120.36-66.67-120.94-14.83 7.85-166.03 28-238.76 8.49-24.87 37.18-49.29 74.01-70.94 110.87zM376.96 1052.1c-3.8.09-8.05 2.4-7.26.39.45-1.17 1.52-12.9 2-17.1 1.13-1.87 2.73 3.02 2.55 7.57-.1 2.61 1.15.75 9.77 1.2 9.3.49 16.94 2.22 20.1 2.91 11.01 2.36 32.32.66 41.46-5.94 4.94-3.58 6.8.28 1.71 4.12-23.01 17.34-41.26 10.73-61.25 7.82-2.98-.43-6-1.04-9.08-.97m9.78-16.45c-1.43-.92-2.37-1.02-4.2-.17-7.06 3.28-5.21-1.42-.12-6.16 2.32-2.16 2.25-3.26.49-5.54-.9-1.15-2.39-1.28-2.03-3.01 1.53-7.43 12.02-18.67 23.75-23.7 4.88-2.08 5.65.2-.52 3.81-9.49 5.54-12.56 10.27-7.2 8.34 10.41-3.73 19.9-1.1 33.22 5.51 3.8 1.89 5.54 2.25 8.78 1.91 2.39-1.97 4.53.4 6.01 1.63.93.75 1.13 1.11 2.2.86 7.57-1.77 3.03 3.03-7.32 10.54-18.55 13.03-38.78 19.17-53.06 5.98m28.54 3.21c7.58-2.27 16.82-7.01 22.49-11.96 6.89-6.01 3-5.09-4.93-1.31-11.46 5.49-19.48 7.07-32.37 6.78-10.8-.25-10.45-.68-10.85.65-1.38 4.69 13.47 9.48 25.66 5.84m-20.94-18.32c.62-2.02 1.09-4.71.54-5.59-1-1.58-3.15-.41-5.88 3.01-1.69 2.13-1.45 2.41.2 4.09q1.23.83 1.97 1.26c2.3.98 2.67-1.15 3.17-2.77m4.72 2.77c3.32-11.22 10.75-11.01 16.05-.26l3.74.02c-7.7-20.9-22.57-10.32-23.07.07 1.75.59 3.28.17 3.28.17m27.75-1.89c3.51-1.94 3-3.27-1.47-5.55-3.18-1.63-4.86-1.96-5.43-.91.04 2.31.13 5.63 1.48 7.46 1.4.84 3.33.02 5.42-1m-49.17-31.96c-.64-1.06-.53-2.99 1.91-4.1 15.05-6.92 4.09-21.52-7.53-10.57-3.68 3-9.16 4.4-13.4 2.6-3.97-1.71-4.05-6.55 1.24-7.58 1.73-.34 6.18-1.28 7.83-2.4 20.2-10.74 30.92 12.6 16.59 20.36-2.95 1.7-6.07 2.66-6.64 1.7m-56.57-21.2c-8.2-3.68-9.32-16.49-1.64-21.48 4.89-3.32 9.89-4.22 23.36 2.4 9.5 4.67 14.95-.36 14.7 5.08-.14 3.3-.34 6.64-5.87 7.43-8.99 1.3-15.13-10.81-26.67-9.67-8.33.82-7.28 10.72-1.26 12.73 8.02 2.68 3.16 5.85-2.62 3.5m150.7 1.87c-1.5.7-2.21-2.57-1.56-4.3 4.1-9.65 7.86-17.32 11.57-26.36 2.97-7.2 4.95-10.3 6.28-10.28 1.36 0 2 1.06-.28 5.5-3.44 8.93-16 36.2-16.01 35.44m-67.3-2.5c-3.62-2.56-3-6.37 1.12-3.48 5.3 3.7 14-3.08 12.22-9.47-2.14-7.72-12.48-9.6-21.13-2.67-13.65 10.9-28.63 11.46-28.63 2.93.02-2.44-.32-3 5.36-3.37 6.6-.45 14.06-3.45 17.76-5.69 16.6-10.05 34.27-3.11 30.61 13.66-1.65 7.9-11.41 11.74-17.3 8.1m-60.9-24.75c-1.34-.04-3.8 1.3-4.51.78-1.39-1.03-1.19-4-2.32-7.18-2.02-5.66-.05-3.9 3.5-2.36a19.2 19.2 0 0 0 13.46.09c4.2-1.45 9.7-1.12 18.5.02 7.1.92 11.08.65 17.51-1.17 6.98-2.17 5.13-1.4 3.97 2.88-.76 2.81-1.71 6.57-2.6 7.48-4.83-2.69-8.5-1.65-11.66.17-5.22 2.29-8.91 2.68-13.18 1.41-4.02-2.27-6.4-2.08-9.62-.12-5.56 2.67-8.03-1.75-13.05-2m104.11-11.76c.98-1.7 2.4-4.05 3.74-6.69 10.79-21.28 11.52-27.19 3.9-34.36-10.22-9.64-18.94-5.46-28.75 13.78-2.37 4.67-3.8 8.18-4.76 9.62-1.1 1.66-2.4.38-3.04-.26-1.2-1.23 9.67-21.65 13.93-26.11 11.16-11.66 31.9-2.33 30.58 13.54-.67 7.99-2.2 12.37-9.55 27.02a107 107 0 0 1-4.37 8.18c-3.45 2.3-2.66-2.98-1.68-4.72m-101.67-.85c1.7-7.57 26.17-11.08 32.61-1.14.63.97.26.93-2.5.17-12.44-4.08-14.9-3.86-26.82.83-1.8.68-3.07.96-3.29.14m93.33-1.43c0-.72.9-3.52 2.29-6.23 8.16-16 10.4-19.87 7.92-22.86-4.85-5.83-11.36-.77-17.34 15.95-2.24 6.25-3.76 4.92-4.85 3.93-2.1-1.9 7.16-21.34 11.62-24.24 10.1-6.39 18.06 1 13.6 14.07-3.49 5.9-6.37 14.97-9.62 19.75-1.55 2.14-3.63 1.5-3.62-.37m-36.57-26c-.5-.81.46-1.9 3.96-9.35 4.82-10.25 6.31-14.05 4.35-19.9-3.48-10.43-16.63-13-24.62-6.15-2.6 2.21-4.38 5.27-5.61 8.01-2.89 6.36-5.3 14.58-7 16.3-1.5 1.5-3.58 1.8-3.45-.8 1.9-5.54 2.8-9.83 7.29-17.94 11.18-24.15 43.44-12.97 35.89 12.46-2.8 9.23-6.04 16.21-7.95 18.48-1.06 1.27-2.82.17-2.86-1.12m-7.49-4.43c0-.8 1.21-3.06 2.5-6.22 5.45-13.4 5.49-17.51-2.46-17.68-4.76.6-5.46 2.54-9.64 13.11-1.35 3.44-2.1 5.89-2.9 6.94-.87 1.12-2.5.45-3.16-.22-1.7-1.73 5.74-19.07 9.67-22.34 9.05-7.82 20.78 3.29 15.28 13.26-2.57 6.97-4.79 11.7-6.3 13.86-1.33 1.9-3 1.64-2.99-.71M202.68 742.14l-27.49-1.87c4.87 29.22 5.12 61.39.2 84.2-4.2 19.5-4.25 33.87-3 50.78 1.47 19.68 9.84 36.36 11.95 57.25 1.53 15.13-1.84 30.92-4.85 45.97-5.02 25.14-3.99 27.76-3.25 57.27.69 27.35-1.88 26.37-3.45 24.77-.24-.24-.46-5.07-.43-10.83s-.32-19.82-.65-29.59c-.66-19.51 1.52-36.75 3.1-43.84 3.22-14.45 6.84-29.24 4.61-45.23-4.52-20.17-10.9-40.32-13.14-59.77-2.76-23.97 4.03-48.03 6.27-65.44 2.16-16.82-.13-45.9-4.56-58.01-.76-4.03-4.38-9.28-4.38-9.28a88 88 0 0 0-14.12-1.13c-.32 115.46 0 230.98.09 346.46l25.63 23.66 26.33-24.91zm1.85 132.46s39.1 22.4 82.22 44.41c-4.1-25.18 8.92-28.98 21.15-31.9-2.93-48.67 41.87-38.68 48.73 3.6l4.42.01c7.76-21.08 15.44-35.62 33.12-39.1 13.7-2.69 27.2 5.95 30.63 26.28-.6-1.43 45.42-26.88 46.7 26.89 20.9-12.91 35.8-1.76 41.83 14.63 8.83-13.38 30.92-13.96 37.98-14.93 2.46-2.83 6.8-4.44 14.68-4.4 6.76-.33 15.84-5.37 20.52.77 7.1 1.11 12.52-.17 18.6 4.5 4.83 3.66 10.22 11.81 18.26 6.2 15.34-7.37 32.59-10.67 46.3-19.54 0 0-3.63-4.66-2.57-4 .39.25 2.1 2.45 4.67 3.48.92.37 9.35-4.66 9.35-4.66-57.14-65.51-104.15-193.4-73.1-311.73.85-2.02-2.6-2.8-4.3-3.5.53-.91 8.91.3 5.35 7.83-3.58 22.67-7.65 47.24-8.55 66.03a46 46 0 0 0 .2 4.34c128.11 58.81 112.4 186.2 79.49 230.53l5.19 6.88c2.3 1.53 100.8-55.63 97.54-57.97l18.64-9.24-3.02-249.78-73.71-5.6s.79-2.1 1.71-2.65c.68-15.25-.7-37.8.04-56.68.29-53.95.84-72.3.13-73.79-22.73-14.9-56.63-36.68-85.16-47.24 1.17.33-.46 22.35-1.33 23.6-26.7 8.48-14.3 19.32-24.17 30.95-6.63 7.25-22.14 8.63-29.63-.06-8.95-8.62-13.14-28.4-13.14-28.4-14.12 15.03-11.22 33.19-30.13 40.02-30.4 15-40.05-29.85-38.28-28.81-11.65 11.17-44.33 20.26-47.86-26.92-14.7 13.46-31.16 6.78-38.15-9.79-8.97.32-19.03 7.31-28.11 11.1-8.42 3.7-19.2 5.88-27.2 5.72-10 1.2-18.25 1.15-27.27-1.52-4.23 1.37-13.78-2.72-16.73-8.59-4.5-5.27-8.44-5.58-12.73-4.63-14.6 7.66-30.25 9.5-47.49 17.52-1.08.74 1.51 2.15.64 1.87-.36-.12-9.05 4.24-9.05 4.24C338.24 524.81 343 640.15 324.7 721.9c-.72 2.83-1.12 4.9.77 7.12-2.77-.47-2.81.33-3.33-1.43l9.08-68.62c.27-8.29 1.3-7.67-6.01-10.76-6.77-2.86-13.17-5.62-18.75-9.04-21.29-15.7-45.35-35.02-57.08-59.13-33.45-51.82-22.42-113.66 2.65-162.65l-6.24-6.45c-73.18 36.5-116.39 75.84-116.39 75.84l.32 245.1 75.2 8.63zm-36.28-163.67c-2.41-2.66-8.55-3.12-11.11-1.1-.6.49-1.85 3.09-2.23 3-3.4-.88-5.76-1.58-6.21-4.44l3.61-5.44c2.86-4.3 6.99-5.83 13.94-7.45 2.47-.57 6.2-1.1 7.5-1.65 5.23-2.25 7.05-7.11 1.76-4.94-3.86 1.06-9.26.71-9.98-2.8-.59-2.9-3.06-4.03-5.82-3.69-5.1 1.22-9.75 3.87-14.26 6.53-2 1.2-5.8 3.92-5.8 3.92-.6.94-2.8-5.88-.74-7.87 2.56.31 4.75.34 7.25-.65 6.21-2.47 12.2-5.44 18.47-7.83 4-1.56 4.37-1.43 3.31-4.25-.51-1.04-.98-4.5-.29-6.31.73-1.92.65-2.9-.59-3.71-2.82-1.88-9.6-.13-19.12 4.42-2.9 1.39-4.8 1.95-6.64 3.42 1.18-3 .5-3.55.46-6.7 3.89.49 7.39-1.05 10.5-2.67 2.55-1.34 5.42-2.65 12.46-3.55 1.92-.24 1.05-7.24-1.14-9.27-2.07-1.92-6.42-1.96-11.69-.41-4.7 1.07-10.54 2.16-13.77 7.19-4.08 3.84.1-6.37 7.53-10.45 3.26-.07 10.46-1.6 12.15-1.98 2.87-.63 3.33-7.33-.84-10.2-2.62-2.27 9.49-2.33 9.25-1.64-.15.4-.26 3.26.66 4 5.21 1.55 5.17 5.8 5.62 7.58 5.99 9.78 8.93 3.64 13.05.28-.87 21.29 6.62 23.71 7.6 25.06-10.27 19.08-2.52 19.55 7.11 23.93 0 0-3.66 1.48-6.1 1.33-3.83-.23-11.17 4.3-14.38 6.96-1.77 1.47-1.82.24-8.9.04-6.67-.2-7.16.3-10.2 1.64-6 2.64-5.96 5.14-.1 4.16 6.24-1.05 12.36 2.72 13.07 7.86.5.97.06 2.69-.04 2.63-1.3-.24-4.24.25-4.2-.37s0-2.95-1.15-4.58m9.11-25.8c1.7-1.08 1.98-4.15.51-5.38-1.34-1.13-7.04-.53-8.65.91-3.64 2.85 3.01 7.62 8.14 4.46m3.65-12.81c2.1-1.63 2.35-5.54.53-7.81-3.07-3.85-11.11-1.54-11.55 3.31-.46 5.17 6.64 7.9 11.02 4.5m-2.62-17.59c.38-4.25-3.84-6.94-7.73-4.92-4.84 2.5-1.9 7.8 4.16 7.48 3.36-.17 3.36-.17 3.57-2.56m-14.16-17.23c-2.26 1.1-2.38 3.75-.24 5.45 8.5 4.67 5.9-7.82.24-5.45m592.83 25.38c-3.73-13.67-14-.12-14.01.07-.36-14 2.3-20.24-8.25-25.03 10.59-15.96 8.38-18.17-2.85-24.3 1.03.1 14.9-3 17.28-10.88.53.36 21.76 5.57 24.41-5.97-6.4 2.91-19.01 3.34-19.16-9.07 1.2-.35 4.19.26 3.94.66-1.68 7.95 12.88 9.92 15.27 3.64 0 0 4.9 3.26 7.04 3.76.24.16-6.63 9.64-12.88 11.07-11.28 3.72-15.18 4.72-15.2 6.95 0 .87 1.85 1 5.2 1.7 7 .47 6.86 1.97 7.78 4.28.81 2.05 1.6 2.46 3.94 2.25 8-2.65 12.01-4.04 17.59-9.6.67-.12 1.46 5.84 1.9 6.05.06-.95-5.67.7-14.46 5.83-7.19 4.19-10 4.8-10.91 5.93-.68.83 1.07 3.47 1.25 6.34.16 2.4-1.48 3.58-.28 4.33 1.38.87 3.53.7 6.34-.02 6.2-1.5 10.78-3.92 16.36-7.35-1.19 2.23.8 7.9.8 7.9s-2.75-1.93-5.02-.93c-4.37 1.9-11.43 4.51-13.33 4.96-1.85.43-2.65.67-3.37 1.28-.9.75-.74 2.55-.76 5.2-.01 1.86-.54 3.57.63 4.13 2.6.84 7.86.58 13.22-1.29 2.29-.99 7.13-3.61 7.13-3.61l-1.5 7.84c-2.05-2.29-7.88-.6-11.78.93-1.98.61-2.57 1.85-3.06 3.56-.88 2.92 1 4.94 3.14 5.9 1.44.64 3.64.38 3.64.38-10.12 3.83-8.1 5.25-14.01 2.34-2.56-2.76-5.05-5.66-6.03-9.23m10.6 0c-1.69-1.93-4.6-3.03-6.31-2.27-1.52.8-.98 2.48-.5 3.76 1.3 3.55 10.19 2.4 6.8-1.49m-5.9-9.77c2.37-3.1-.24-7.26-4.62-7.29-3.05-.01-4.67 1.87-4.64 4.25.06 4.5 7.27 5.63 9.26 3.04m-4.87-11.8c4.4-1.19 5.74-5.43 2.7-8.5-2.16-2.19-8.94-2.46-10.75-.48-4.63 5.05.56 11.01 8.05 8.98m3.65-15.51c2.58-1.32 3.08-3.5.8-6-4.14-3.5-11.36-.77-9.02 4.34 1.14 2.5 5.08 3.26 8.22 1.66m-528.92-117.8c3.88-1.4 6.68-4.4 10.77-6.7 2.75-1.5 1.92-1.26-1.6-3.31-2.77-1.27-8.33-6.88-8.85-5.54-1.26 2.39-1.08 15.44-.32 15.55m98.13 136.76c.16-2.66.48-6.68.4-9.62.53-5.61-.48-3.97-3.53-2.14a113 113 0 0 1-7.3 4.36c-5.6 2.78-4.92 2.92 2.95 6.7 6.62 2.94 7.36 2.65 7.48.7m-7.68-13.13c5.35-3.35 7.12-5.08 7.38-8.85.03-4.33-.48-5.9-4.3-2.9-13 10.22-26.4-9.85-14.5-21 2.44-2.28 5.52-5.84 5.55-6.74.2-6.47-7.12-.19-13.1 8.7-6.6 8.07-10.73 18.18-4.93 27.88 4.65 7.1 14.98 8.5 23.9 2.91m-29.57-13.06c-.24-3.17.66-6.7 1.07-7.76 1.46-3.7 1.4-4.17-5.23-1.08-2.64.87-5.8 1.57-7.02 1.56-5.41-.03-4.06 1.67 3.7 8.1 7.8 6.48 8.06 7.07 7.48-.82m18.44-31.02c.83-1.94-.89-2.7-2.53-2.33-.13.03-2.97 2.14-6.3 4.76-10.12 7.92-17.54 8.85-22.56 2.8-5.09-6.11-2.96-13.38 8.41-21.7 5.02-3.66 6.22-3.91 3.8-5.51-1.83-1.22-1.94-1.04-9.15 3.82-14.53 9.8-18.88 16.49-17.43 26.24.3 4 2.4 6.1 4.45 7.65 13.85 12.23 33.08-4.63 41.31-15.73m14.67 5.79-.87-13.5c-14.78-12.67-28.8-34.33-33.64-52.27-4.93-15.96-1-49.24-.26-46.76l-7.98-15.06c-6.95 15.98-9.98 40.34-2.42 65.16 6.41 21.07 19.26 46.6 45.17 62.43m-62.23-7.86c4.7-8.97 4.84-8-4.23-8.08-10.35-.1-9.2-1.35-3.36 7.45 4.68 7.07 3.9 7.69 7.59.63m6.22-12.3c5.96-1.9 4.6-1.47 12.51-6.59 9.08-5.88 9.46-9.1.35-4.56-11.71 5.81-22 4.33-25.81-3.27-3.4-6.76 3.7-15.2 15.39-18.5 3.99-1.13 6.1-2.09 6.1-3.83.04-5.3-19.86 1.78-28.06 9.8-15.82 15.46-1.97 33.82 19.52 26.95m-25.6-24.09c.54-.8 1.96-2.74 3.28-4.74 5.6-6.48.89-4.55-4.09-6.32-2.62-.97-5.32-1.93-6.86-1.7-2.98.46 1 6.18 1.96 9.87 2.68 8.23 2.37 7.98 5.72 2.9m21.18-14.83c10.04-.98 11.06-1.94 11.07-4.01.02-2.05-1.22-1.66-6.26-.97-13.34 1.85-22.17-1.53-24.07-8.6-1.97-7.31 7.06-14.23 19.1-13.82 6.52.22 10.86-2.02 6.89-4.18-2.07-1.12-20.02-.88-24.08.3-11.94 3.46-16.8 10.06-15.71 19.2 1.65 11.3 7.84 14.54 22.95 13.74 2.89-.16 6.58-1.32 10.11-1.66m7.77-36.79c0-1.76-2.86-2.01-12.32-3.41-12.61-1.87-18.25-13.48-10.64-20.47 2.88-2.65 9.74-3.79 13.57-3.1 8.3 1.52 13.4 3.22 13.47.4.02-2.5-2.4-2.67-18-5.95-23.58-4.97-36.52 18.07-17.67 29.34 7.16 4.28 31.57 6.7 31.59 3.2m5.84-32.97c0-.88-.76-1.56-2.54-2.25-2.6-1.01-4.34-1.2-10.2-5.13-7.77-5.22-10.14-15.4-4.94-21.07 5.04-5.3-4.03-11.55-11.26-5.57-7.51 6.2-6.88 15.96 1.77 23.67 7.96 7.1 27.15 14.5 27.17 10.35m-38.2-1.37c8.2-3.83 14.08-1.63 7.81-6.91-3.52-3.25-6.52-12.48-8.97-4.65-1.87 4.67-3.25 12.9-3.3 13.7.55.57.43-.39 4.46-2.14m289.85-19.87c-9.33-2.31-15.7-13.1-13.33-23.47 1.34-5.86 6.88-19.66 7.97-20.52 4.12-3.25 3.55 1.07-.23 8.58-3.44 7.67-6.13 13.84-5.06 18.4 1.52 6.5 4.16 11.46 10.94 13.1 4.77 1.17 9.27-.81 12.31-2.95 4.03-2.83 7.84-10.1 12.39-20.15 1.45-2.83 3.4-11.51 5.83-6.21 1.17 2.74-8.54 20.98-12.17 25.6-4.57 5.83-12.29 9.24-18.65 7.62m56.27-6.1c4.55 4.33 12.23 6.51 17.25 4.96 12.31-4.32 17.9-15.9 13.24-34.5-2.36-10.44-4.37-16.92-6.42-18.21-.99-.63-2.07.54-3.04 1.99-.86 1.3.46 3.12 1.85 8.03 5.89 20.68 4.35 30.03-2.83 33.98-10.42 5.73-19.34-.87-22.36-15.62-.49-2.28-1.92-6.93-1.92-6.93-.8-2.06-7.24-1.6-4.9 5.27.7 5.31 5.63 17.99 9.13 21.03m52.8-54.17c-.15-7.27-15.53-38.84-16.57-35.5 0 0-.07 7.39.53 10.29.23 1.1 1.03 2.11 1.68 3.28 13.37 23.71 11.3 40.42-.28 44.08-3.95 1.79-4.8 3.54-3.04 5.38 3.57 3.86 12.52-3.78 14.26-6.55 4.39-6.22 3.78-17.58 3.43-20.98m-223.74-5.36c5.03-5.6 16.08-24.92 19.48-35.05 10.48-30.16 21.49-64.85 24.53-96.92.33-4.04.55-10.2.75-10.73-.83-.88-6.02-.42-7.76.47-.84 1.08-.28 3.48-.58 6.61-4.68 36.05-13.34 68.9-26.17 102.32-5.61 14.53-10.82 24.09-17.58 34.19-1.19 1.76-2.69 3.58-3.28 4.6-1.7 2.46-.45 4.06 1.53 3.03 3.52-1.99 6.55-5.79 9.08-8.52m-17.17 8.77c16.06-22 27.48-48.43 36.35-79.6 5.61-20.19 10.55-40.6 13.5-61.42.62-4.44 1.1-7.41.24-8.74-2.17-.58-6.22-.22-7.62.86-.86 1.29-.3 3.88-1.09 9.87-2.05 15.49-5.13 31.04-10.32 51.4-13.71 45.05-26.31 70.27-42.86 92.34-1.34 1.86-2.53 3.07-2.4 3.85.17 1.16 1.77 1.07 4.4-.57 3.44-2.69 7.37-5.04 9.8-8m-24.47 11.7c7.85-4.44 21.69-23.76 31.47-44.57 10.96-24.57 20.14-52.32 26.15-76.35 2.61-10.53 6.32-36.83 5.79-38.57-.63-2.05-8.3-.34-7.24 1.08 0 0-7.63 42.28-15.84 65.58-15.25 43.27-28.43 72.62-42.61 86.73l-5.52 5.47s.07 1.61 1.26 1.86c2.83.52 4.71-.3 6.54-1.23m-12.03-1.72c17.73-9.88 38.5-56.04 55.45-114 2.9-9.9 8.2-43.1 8.2-43.1s-7.06.26-8.43 1.74c-1.37 2-1.15 7.11-3.13 19.24-7.62 36.66-19.12 70.1-36.4 103.14-7.48 14.65-19.9 28.44-27.74 32.36-4.38 2.2-5.66 4.62-2.45 4.8 5.4.19 5.88 1.31 9.81-.79zm242.98 516.17c-13.3-.05-24.6 12.67-34.66 28.66-21.4 32.75-35.8 87.48-39.3 116.57l8.08-1.52c-1.21.56 15.1-77.42 39.94-110.81 13.44-21.07 12.87-21.39 20.4-23.32 9.54-2.44 17.19 7.84 12.46 14.04-1.71 2.1-3.59.55-3.06-2.43 1.7-9.54-12.26-11.37-16.16-2-4.49 10.77 7.44 20.38 19.09 16.15 10.4-3.67 14.77-18.18 7.46-28.9-3.76-3.63-9.2-6.84-14.25-6.44m-70-1.34c-15.93 19.94-23.81 40.43-33.6 68.4-9.76 27.95-16.78 55.29-19.82 86.65l8.6-1.1c-.32-20.17 21.84-116.19 52.98-152.15 1.74-2.28 3.14-4.17 3-4.7-1.72-4.85-9.1 1-11.16 2.9m35.17-7.44c-20.63 16.86-37.12 53.7-47.99 87.74-11.75 36.81-17.02 70.54-16.14 70.53l8.2-1.2c-.61-2.14 23.04-131.82 66.92-155.43 3.8-1.9 4.6-3.8 1.4-4.63-4.95-.69-8.92.93-12.39 2.99m23.11.09c-45.06 5.91-74.5 143.77-75.5 155.22 0 .17-.16 1.06-.16 1.06l8.98-1.84.11-.66c6.18-35.23 12.2-59.92 26.24-91.76 10.95-23.6 26.05-53.76 48.62-56.68 1.83-.24 3.57.5 2.93-1.64-1.38-3.38-8.12-3.8-11.22-3.7m-268.55-43.42c-16.3 4.18-16.82 23.65-5.97 48.53.82 1.88.67 2.9 1.5 3.63 1.85 1.62 3.3-.64 3.51-2.13.32-2.26-.65-5.3-2.37-9.72-6.71-17.22-5.1-27.14 1.54-31.53 17.04-8.76 21.62 9.22 24.2 17.5.63 2 .84 4.78 1.96 4.93 3.4.46 5.01-.74 4.96-.74 0 0-4.5-15.48-7.26-21.3-4.45-9.41-15.04-11.38-22.07-9.17m-118.16 18.39-.17 205.23-31.18 29.21c-13.38-11.44-30.95-29.36-30.95-29.36l.55-346.95-10.03-.8c-2.45 149.06-.7 300.35-.82 449.7l92.18.68 76.3-118.92s.96-1.41 1.27-2.17c.93-2.29.82-5.71.36-18.36-.18-5.14.4-9.08-.36-10.29-.77-1.22-2.4-.35-3.92.33-1.55.7-2.47.45-1.63-1.37.47-1.03 2-3.3 3.31-5.46 4.29-7.02 5.34-9.26 3.89-17.04-.36-1.92-2.12-3.54-3.65-5.79-12.84-18.92-18.07-46.96-11.7-67.5 2.04-9.09 1.3-10.93-3.08-18zM610.2 658.15c-8.38-4.3-8.22-4.2-8.27 3.93.04 6.09.16 7.56 2.44 6.74 3.3-1.68 7.35-3.22 10.4-4.51 5.82-2-1.57-4.56-4.57-6.16m33.18 21.14c-6.5-5.18-4.1-4.59-5.95 7.1-1.11 7.06-2.54 7.25 4.77 4.91 4.15-1.43 12.7-.53 8.86-5.4.03.09-6.4-5.53-7.68-6.6M382.02 858.71c-9.98 6.03-20.18 35.25-20.18 35.25-34.87 4.15-49.46 38.4-51.02 66.95-1.23 22.54-2.76 48.86-.49 51.16 22.87-10.26 31.68 1.59 33.84-1.61 1-1.39-5.07-6.02-12.68-10.17a47 47 0 0 1-5.54-3.55c-2.78-2.3 5.54-.32 10.8 3.25 6.7 4.57 7.83 3.61 4.92-9.7-3.17-14.49-3.68-16.26 7.46-22 4.46-2.3 7-4.25 10.19-7.82 2.55-2.86 3.2-3.56 2.26.65-1.63 7.28-8.11 10.45-13.95 13.4-2.9 1.49-4.1 4.49-4.12 7.05-.02 2.62 3 16.77 4.4 21.29 1.28 4.3 1.76 8.61 2.76 12.98 2.62 11.37 2.79 13.6 1.46 21.84-.77 4.85-1.17 7.6-.9 10.52.25 2.66.62 6.28.62 6.28.01-.13-6.23-6.39-19.88-1.03-9.85 3.88-17.62-.16-23.14-3.02-1.27 4.47-.98 9.33-.83 14.47 56.77 10.37 105.25 8.98 146.07 4.71 1.06-12.05 6.2-50.39 17.02-84.96 4.5-14.38 9.58-29.54 15.32-39.66 3.9-6.9 7.9-11.55 9.3-12.36.45-.27.49-.4.48-.6l-.01-1.07c-.15-2.24-.69-5.7-2.62-7.25-4.7-3.75-12.23 1.08-14.7 9.45-2.16 5.02-12.04 26.71-12.75 26.35-.58-.37-1.95-.4-1.45-2.07 3.78-8.8 8.97-18.1 11.9-25.98 4.04-11.37 12.83-17.37 19.4-10.2 2.26 2.45 3.16 4.72 4.2 5.5.77.59 1.82.18 2.47-.79 2.47-3.73-3.27-12.19-9.43-13.89-8.9-2.45-15.52 4.03-25.6 25.04-5.82 12.13-6.87 15.18-7.79 14.25-.2.08-1.75.07-1.19-2.28 1.2-5.05 8.93-19.73 14.52-29.03 8.29-13.79 23.67-14.9 30.14-2.95.98 1.63 1.03 3.77 2.13 5.22 1.99 2.57 5.25 2.06 6.06-2.16-.88-2.78-6.29-12.85-10.04-14.6-8.65-5.94-19.15-4.77-27.98 3.1-2 1.8-4.1 5.42-9.96 17.3-8.63 19.06-8.86 19.14-11.22 16.06 3.47-9.26 12.6-24.32 16.3-33.57a8.5 8.5 0 0 0 .78-4.28c-.21-6.72.88-18.6-13.34-27.04-12.13-6.53-28.14.34-33.6 13.2-4.17 9.84-7.22 16.61-9.33 18-2.96 1.96-2.4-.77-2.11-1.76 4.2-8.91 10.12-17.91 11.05-26.88.61-24.26-24-33.23-40-20.99M254.94 404.06c19.21-8.92 32.36-13.41 51.93-19.18 2.65-1.16 3.07-1.43.26-6.98-12.4-24.53 21.63-44.09 33.19-20 1.54 3.2 1.9 4.98 3.42 3.44a153 153 0 0 0 9.73-15.05c13.02-20.16 18.9-43.15 25.85-63.45 2.88-11.92 6.9-24.38 8.03-37.17-25.82-44.93-43.8-88.15-71.22-128.15l-180.75-.14-.68 361.16c50.54-42.15 84.95-57.4 120.24-74.48m203.48-13.27c2.19-2.31 4.08-6.15 11.95-22.28 1.4-2.87 3.64-7.33 4.55-9.4 1.18-3.8 5.6-6.17 3.45.62a47 47 0 0 1-2.67 6.07c-2.61 4.7-5.1 10.46-6.96 14.22-10.05 20.13-9.57 31.86 1.66 40.6 8.39 8.02 26 8.92 35.38-4.02a38 38 0 0 0 3.06-5.75c4.08-9.89 7.08-14.83 7.85-15.81 4.18-5.3 4.84 1.27-1.39 11.36-7.14 11.56-7.26 24.1-1.09 32.92 9.15 13.07 26.53 13.44 37.43 2.95 5.67-6.64 10.18-15.09 13.8-25.89.81-2.4 1.64-4.17 2.23-5.58.91-2.16 2.22-2.96 5.6-3.61 23.22-4.45 42.7-28.26 45.47-54.27.36-3.52 1.36-9.74 1.73-13.44.73-7.37.74-45.54.02-47.82-.4-1.22-1.09-1.87-2.6-1.86-1.16.02-2.8.42-5.16 1.26-7.65 2.74-11.21 3.43-18.57.8-2.43-.87-4.1-1.17-5.1-1.08-3.25.28 1.06 4.93 10.52 10.07 4.05 2.2 7.25 5.17 3.97 4.95-.95-.06-12.37-5.96-13.94-6.92-5.2-3.2-3.85.82-1.17 11.38 3.6 14.17 1.53 18.15-9.68 23.7a29 29 0 0 0-6.26 4.6c-5.94 8.76-4.4 2.3-1.41-2.37 5.1-5.34 1.97-7.16-8.5-3.46-11.95 4.23-17.35 1.14-20.69-5.5-3.78-7.5 3.33-17.15 9.26-16.96 1.92.06 1.57.75-1.25 2.68-3.42 2.33-5.04 4.58-5.4 8.56-.72 8.11 5.1 11.56 13.21 6.12 3.83-2.57 6.85-4.35 9.75-5 2.88-.66 7.2.4 7.19 2.7 0 .95-.14 3.28.06 3.8.77 2.57 4.88-1.07 6.67-2.36 6.11-4.57 5.91-5.47 4.24-12.88-2.73-10.37-4.1-19.85-6.7-30.37a45 45 0 0 1-.79-17.34c.43-2.81 1.52-8.6 1.74-12.55s-.02-9.62.13-9.62c6.07 4.65 8.54 5.46 14.46 3.2 9.17-3.75 14.96-3.36 22.68.34a73 73 0 0 0 5.47 2.33l.35-11.9s-7.15-1.48-20.37-3.21c-39.78-5.23-121.4-6.33-124.45-1.53-.77 1.22-1.54 9.72-3.7 21.55-4.82 24.57-10.22 49.05-17.43 73.02-1.49 4.89-2.9 6.86-2.14 7 .3.06 1.78-1.83 2.47-2.62 3.87-4.47.9 6.13-4.94 18.9a11 11 0 0 0-.96 2.8c0 .78-3.67 9.68-6.2 15.06-1.58 3.34-2.88 4.35-2.87 2.2 1.78-7.35 6.47-16.86 7.15-23.42-4.12 5.94-10.1 15.74-14.63 21.58-.84 1.58.05 2.06.78 4.01 2.72 7.27 9.31 7.92 13.12 1.34 2.13-3.67 8.73-17.5 11.03-23.55 2.36-6.22 4.02-9.5 4.8-9.9 1.59-.83 1.9 2.71-.91 8.6-8.5 17.86-12.14 27.88-16.3 31.57-3.24 2.87-8.82 2.69-11.93-2.42-5.26-8.64-9.76-5.78-4.93 3.09 5 9.16 16.4 10.01 22.35 1.76 1.96-2.72 11.22-20.37 14.12-27.54 1.63-4 3.36-7.13 3.94-7.35 3.1-1.2-.44 7.95-9.36 26.26-2.89 7.08-7.53 14.5-13.81 16.8-15.27 3.33-17.34-4.74-22.65-13.93-2.58-2.29-4.92 1.37-3.93 5.41 1.6 6.56 4.6 9.13 9.23 12.42 9.66 6.15 23.1 1.92 27.96-5.09m68.11 38.32c-1.38-3.07-1.18-6.18-.47-9.08a74 74 0 0 1 7.34-18.4c5.02-2.37 1.19 7.06.56 8.46-6.05 12.6-6.62 17.48-.98 18.93 4.84 1.25 7.44-1.7 12.01-13 2.35-5.8 3.28-8.37 4.11-8.7 1.76-.71 2.61 0 2.5 1.77-3.02 7.41-5.38 15.21-10.34 21.37-4.86 4.07-12.18 4.1-14.73-1.35m-45.35-9.68c-2.1-.41-5.7-3.13-8.21-5.42-8.55-7.82-7.14-18.63 3.46-38.94.82-1.58 3.9-7.73 4.9-9.74 1.76-3.62 3.5-2.2 3.5.19-.01.67-2.66 6.28-5.33 11.49-11.7 22.85-11.3 32.17.07 37.6 11.1 5.31 16.07 2.26 24.91-15.18 5.12-13.1 7.65-13.31 7.37-8.34-.02 1.86-6.21 14.42-10.2 20.25-5.8 8.46-10.82 9.97-20.47 8.09m.84-11.03c-4.35-2.7-6.13-9.4-3.55-14.88 2.34-4.52 8.34-21.86 11.16-22.83 4.53-.16 2.11 3.64-3.5 14.3-6.65 14.12-6.41 17.9-1.28 20.06 4.74 2 7-2.1 14-18.62 1.1-2.6 2.63-5.29 3.53-4.73 1.11-.08 3.04.76-.64 8.24-.87 1.8-2.35 5.55-3.99 9.04-4.78 10.22-10.21 12.83-15.73 9.42m78.63-29.98c-1.91-.98-10.9-4.5-9.56-7.43.16-.28.68-.06.95.12 8.22 5.5 18.45 6.9 29.12-.74 1.8-1.58 3.14-.51 2.14 1.47-3.23 6.4-17.62 9.14-22.65 6.58m-26.42-9.28c.25-.62.99-2.45 1.64-4.9 1-3.7.76-6.43 1.63-5.96 3.73 2.02 10.4 2.07 13.66.08 3.57-2.18 10.83-2.85 13.47-1.13 3.78 2.45 5.7 1.31 8.35-.75 3-2.33 3.04-1.33 8.44.54 3.99 1.38 5.55 2.32 7.25 2.02.65-.12 1.96-1.6 2.38-1.52 1.3.23 1.45 3.9 2.64 8.1 1.06 3.71.45 4.6-2.88 2.38-2.47-1.65-9.59-2.43-16.99-.16-5.48 1.67-6.75 1-10.77.32-10.03-1.7-17.26-3-24.74 1.32-3.99 2.3-5.44 3.5-4.08-.34m-24.95-18.33c-4.85-9.73 6.32-22.62 16.15-18.07 3.25 1.5 6.15 7.22 1.33 4.6-22.34-4.5-16.76 28.17 7.23 10.91 15.95-10.57 27.23-12.2 28.17-1.97-.44 3.75-3.79 3.15-6.32 3.5-6.6.92-9.05 1.99-16.71 5.27-11.65 3.66-23.04 6.66-29.85-4.24m87.43 4.5c-5.45-1.4-10.18-3.55-15.87-4.58-5.63-.98-8.17-3.91-7.15-7.86 1.05-4.1 6.7-4.54 15.17.63 9.39 5.72 16.2 7.11 19.64 4.95 6.95-4.37 3.2-11.47-3.43-13.3-4.98-1.38-1.32-3.31 4.03-1.72 8.64 3.27 8.82 18.86-.06 22.1-2.97 1.08-8.2.79-12.33-.22m-76.1-51.6c6.34-3.91 12.47-7.41 14.65-9.75 1.15-1.23 4.33-5.34 1.86-4.09-12.94 7.77-27.96 1.32-38.84-4-5.22-2.43-3.94-1.35-7.95-1.08-2.72.18-4.9.75-5.4-1.2-.21-.85-1.73-.5-2.7-.59-4.03-.4-1.49-5.71 6.96-11.57 9.96-6.9 18.65-11.42 27.28-13.28 8.96-1.93 18.1-.84 24.8 5.6 2.57 2.48 2.35 4.13 4.7 2.61 5.37-3.47 5.42 1.14.89 5.4-3.12 2.92-1.98 3.72 1.83 6.5 1.81 1.33.32 2.6-.7 4.53-.38 1.18-.07 2.48-.26 3.38-.84 4.16-19.81 18.86-26.68 21.37-4.72.88-2.25-2.67-.44-3.83m13.17-27.01-3.15.04c-3.58 10.93-10.2 14.65-15.7 1.55l-2.52.25c-.1 11.1 19.01 18.07 21.37-1.84m-20.7 10.24c-1.3-2.17-2.77-7.17-4.13-7.24-3.7-.15-8.8.51-7.6 2.8 1.92 3.62 13.23 6.97 11.72 4.44m25.35-1.94c3.4-2.05 4.13-3.47 1.9-5.72-2.87-2.9-4.36-1.42-5.27 3.22-.77 4-.21 4.65 3.37 2.5m-46.22-7.69c22.83-10.31 31.5-11.65 40.77-9.1 2.15.6 4.05 1.8 5.25 1.72 4.44-.26 1.61-5.23-6.36-8.08-9.11-3.25-14.89-1.77-32.4 7.34-10.24 5.34-18.57 13.23-7.26 8.12m66.18-12.52c-.33-.62-1.71-4.72-2.1-6.22s-.75-3.04-1.18-3.05a60 60 0 0 1-22.4-.89c-16.03-3.81-31.52-3.04-43.07 1.48a47 47 0 0 0-6.66 3.2c-.92.86-2.27-.11-2.26-1.18 0-1.25 7.1-6.85 11.57-9.06 13.6-6.73 27.95-7.88 43.71-3.65 10.27 3.93 16.89 3.3 23.45.43 3.22-1.4.94 2.08-.08 6.7-.71 3.2.06 5.94.2 7.75.4 4.37-.1 6.56-1.18 4.49m238.7 922.65V825.57c-60.07 44.24-173.7 90.4-173.7 90.4 14.3 29.1-17.21 54.01-35.3 24.46-18.6 20.85-44.23 93.9-45.14 118.16 0 0 49.5 86.27 73.64 128.85zm-330.9-119.15a367 367 0 0 1 17.66-84.82c5.09-15.04 11.22-32.3 19.88-47.74 3.46-5.4 3.7-7.49.01-5.55-2.31 1.23-12.9 13.15-14.35 16.16-16.24 34.22-23.76 75.33-29.7 106.71-1.35 7.06-1.74 15.83-1.74 15.83zm11.89-1.5c3.86-44.14 20.13-103.72 44.57-142.56 2.3-3.7 5.13-6.92 5.02-8.2-.32-3.77-9.73 2.75-17.03 13.9-8.15 16.13-16.32 33.34-22.57 52.4-8.82 26.9-15.25 51.75-17.76 85.48zm23.48-3.68c2.45-25.43 10.36-48.77 16.99-72.14 8.1-28.59 18.93-49.63 31.53-68.57 4.05-6.07 8.82-11.76 13.36-17.55.58-.7 1.16-1.95 1.03-2.47-2.92-.51-5.23.39-7.49 1.65-3.14 1.76-7.57 6.2-10.15 9.48-17.96 22.87-27.62 49.57-36.6 76.54-8.6 25.9-14.8 50.81-16.02 74.27zm-161.3-19.5c3.6-.28 5.93.4 6.98-.56 1.04-.95.7-3.51 1.03-6.78.7-7-.03-6.62-4.4-2.1-7.26 7.49-20.5 10.38-28.37 5.85-3.97-2.28-6.73-3.86-7.1-1.97q-.68 3.33 1.86 5.1c9.54 4.34 18.59 1.35 30 .46m-8.53-5.35c5.02-1.67 10.13-4.35 13-8.44 2.74-3.9 2.7-4.45.62-3.72-10.21 5.02-16.92 7.57-26.04 6.18-12.36-1.87-12.87-.3-4.7 4.81 5.34 3.33 9.77 3.43 17.12 1.17m-18.14-15.65c1.91-1.41 2.4-7.14.86-7.47-1.56-.33-3.83 2.52-4.4 4.84-.62 3.08 1.67 3.86 3.54 2.63m19.13-.24 3.28-.3c-1.68-14.39-17.33-15.01-20.21 1.44l2.48.37c3.23-13.12 12.69-12.76 14.45-1.51m10.32-2.32c4.78-2.67 3.13-5.97-3.33-7.23-4.24-1-4 2.46-1.8 7.16 1.09 2.33 1.85 1.89 5.13.07m-36.86-17.64a17 17 0 0 0-1.46-5.74c-5.52-11.29-8.56-24.61-7.94-41.18.45-11.86.6-15.54-1.87-15.55-3.46 1.66-5.5 23.75-1.1 42.14 3.1 12.98 12.6 29.08 12.37 20.33m-.13-17.97c-.34-6.21 1.03-20.1.35-23.14-.9-3.99-3.27-7.59-4.6-8.55-2.07-1.49-2.6 1.37-1.87 8.82 1.68 17.48 4.5 30.72 6.12 22.87m1.74-31.83c1.37-2.45.83-5.06-2.17-10.9-11.83-23.03-13.37-38.77-1-44.49 1.38-.64 2.25-.76 3.17-1.27 3.9-2.16 2.41-6.07-3.42-4.45-16.1 4.46-19.27 19.5-5.7 47.32 6.91 13.88 7.99 15.83 9.12 13.79m2.93-13.06c.21-.97.63-4.73.8-5.5.15-.77-1.47-2.99-3.21-7.43-4.55-11.6-4.65-16.41.3-19.77 1.6-.94 3.26-.98 3.51-2.06.39-1.69.36-4.45-.65-5.25-7.1.05-10.38 4.18-11.63 8.1-1.87 6.22.08 15.33 5.66 26.62 2.7 3.51 4.11 9.95 5.22 5.29m5.43-15c3.8-7.66.2-17.56-5.03-14.18-3.4 2.19-3.56 4.51-1.48 10.88 2.53 7.75 4.03 8.3 6.5 3.3m13.33-20.47c1.52-1.5.17-3.65-2.64-12.1-2.4-7.24-1.3-12.18 3.28-13.61 6.57-1.62 8.9 9.1 10.28 13.63.71 3.49 3.01 4.45 5.05 2.02.58-.67.74-1.24-.23-5.05-4.25-16.63-9.8-21.92-18.73-17.78-8.28 3.84-7.2 12.43-1.2 30.5.81 2.41 1.35 4.2 1.93 4.45.47.21 1.41-1.22 2.26-2.06m7.33-5.65c1.97-1.93 1.85-1.06-.4-8-2.56-7.9-3.9-9.55-6.66-6.83-1.69 1.66-.84 3.5 1.1 9.97 2.24 7.52 2.84 7.95 5.96 4.86m343.4-27.08c13.08-9 7.7-25.14-9.52-31.12a71 71 0 0 1-4.96-1.9c-7.91-3.79-14.06-4.96-14.08-2-.01 1.74 2.36 2.62 9.94 6.3 11.22 5.46 13.75 11.75 8.21 19.69-3.98 5.72 3.49 12.27 10.42 9.03m11.86-19.64c1.14-4.62 2.82-8.58 3.63-11.27 1.1-4.2-.32-3.23-3.11-2.57-7.21 3.73-12.37 1.7-8.87 6.83 3.9 6.82 7.1 12.08 8.35 7m-.9-16.13c8.99-5.36 10.98-19.33 2.62-26-2-1.59-5.45-3.69-9.64-4.96-8.5-2.59-20.78-3.76-25.28-2.4-.97 1.14-1 2.92-.04 3.44 1.26.47 3.52.77 6.79 1.1 12.5 1.27 18.66 4.98 18.06 13.82-.62 9.12-7.92 12.62-21.11 9.74-7.1-1.55-10.4-.8-7.56.85 3.39 1.97 10.67 4.55 17.84 5.96 6.13 1.08 13.12 1.49 18.33-1.55m-43.1-2.3c10.1-22.62 15.43-81.95-42.33-124.84l1.91 11.86c34.03 29.74 42.2 67.6 35.15 102.33zm51.56-40.55c-3.61 2.33-6.64 4.76-11.28 6.83-2.78 1.24-2.85 1.54.93 3.6 1.82.99 4.83 2.82 5.98 4.05 2 2.15 4.36 2.98 5.24 2.2-.1-3.37 1.06-14.5-.87-16.68m-17.1 4.29c11.7-3.69 17.97-9.3 16.63-18.69-1.95-13.77-13.5-16.69-35.15-11.3-10.4 2.59-11.34 7.46-1.46 4.95 12.48-3.17 22.27 1.62 20.95 10.72-.78 7.86-7.11 12.44-18.23 12.44-5.88 0-7.7.52-6.9 2.63.54 1.43 19.35.76 24.17-.75m-19.32-32.72c19.13-6.54 28.02-16.7 23.65-28.08-5.14-13.4-21.84-13.53-38.6-1.06-7.84 5.72-6.64 7.84.95 4.93 9.84-4.51 16.17-5.2 20.2-1.62 7.28 6.47 2.37 17.75-8.67 21.8-5.34 2.22-7.06 3.44-7.07 5.04-.01 2.53.96 1.92 9.54-1.01m32.26-.21c.5-3.97-4-17.72-5.94-14.56-.52.84-2.3 4.73-4.56 6.74-6.58 5.88-5.34 3.65 1.2 5.45 3.63 1 8.76 3.55 9.3 2.37m-50.58-29.4c19.34-11.16 26.71-27.1 16.7-37.7-9.01-9.53-23.94-3.98-37.8 13.34-6.37 7.94-1.59 6.94 6.98-.61 9.99-8.8 22.69-4.55 22.62 6.43-.03 4.69-6.69 12.58-12.99 16.24-1.95 1.14-2.24 2.89-1.54 4.02.74 1.23 2.31.44 6.03-1.71m33.9-11.66c-1.02-3-8.3-15.88-9.85-15.44-1.65 3.3-1.77 7.65-3.75 11.15-2.7 5.27-2.36 4.44 6.23 4.42 6.4-.02 7.16.87 7.36-.13m-56.82-14.57c16.24-16.8 17.68-36.47 2.46-41-8.43-2.5-21.91 3.57-21.95 9.84-.02 3.9.7 4.61 4.12 3.21 14.36-5.32 25.73 8.44 12.55 24.25-3.2 4.58-3.64 5.73-2.7 6.67 1.09 1.11 1.98.7 5.52-2.97M796.9 564.78V119.42h-95.06L626.35 237l-.11 29.1c0 1.01 1.71 1.64 2.82.37 4.3-3.3 2.64.17-2.3 7.65-4.99 7.58-3.46 13.81 2 21.9 11.56 17.13 17.59 48.58 12.67 65.2-1.86 6.28-2.28 8.82-1.06 12.33 1.38 4.02 2.24 6.16 6.25 8.75 3.49 2.42 32.2 13.59 78.46 43.24l-.22-209.24L754 188.44l30.8 29.37 1.07 345.44c.01 3.65 7.17 5.31 11.04 1.53M780.24 218.8l-25.79-23.94-25.48 23.58c-.13 112.52.65 343.45.65 343.45l25.32 1.82s1.87-5.27-.5-18.89c-3.57-20.44-3.34-45.4 2.37-83.36 3.57-23.29.03-43.48-5.38-64.75-4.68-14.17-4.85-27.28-4-39.95 1.8-20.22 7.38-35.48 8.06-64.56.4-16.58-.4-32.8.21-53.25.25-2.74 1.4-2.4 1.61.42.78 18.5 1.5 36.09 1.67 54.16-.56 23.5-6.32 47.69-6.96 69.2-.47 14.9-.71 20.06 5.6 38.2 9.92 28.52 3.39 72.33 3.27 73.1-4.2 28.07-7.26 63.98 6.93 90.84l13.75 1.22zM602.87 431.06c7.6-3.48 9.11-9.64 5.02-24.45a276 276 0 0 1-1.85-6.99c-.88-3.66-2.53-4.06-4.73-1.15-1.31 1.74-.1 2.14 1.92 10.29 3.05 12.31 1.27 16.39-3.32 16.36-4.07-.03-7.24-3.37-8.4-11.36-.4-2.73-.98-4.6-1.64-5.68-1.1-1.83-2.44-1.5-3.51.52-1.4 2.62 1.22 13.39 4.7 18.61 3.76 5.27 6.35 6.35 11.81 3.85M600.8 420c1.62-3.03-.39-10.5-1.44-15.38-.96-2.73-2.06-3.4-3.87-2.95-2.7.66-2.57 3.6-1.59 8.44 1.99 9.86 3.06 11.1 6.9 9.9m23.12-17.8c8.7-4.94 9.53-13.47 3.69-28.98-2.4-6.37-5.38-10.84-7.03-10.9-.65 4.06-1.24 6.21-.52 7.8.68 1.47 1.82 3.73 2.64 5.62 4.95 11.44 3.62 18.04-1.17 21.62-4.46 3.33-1.64 6.14 2.4 4.85m-284.84-5.97c20.41-4.35 38.82-37.05 50.42-66.22 10.56-29.38 21.79-61.66 23.57-88.58 0 0-7.72.35-8.67 1.95-.88 1.56-1.26 4.94-2.08 9.75-5.32 24.77-9.55 43.57-18.83 66.85-6.45 16.16-13.48 34.45-30.93 59.02-5.74 6.86-12.3 11.12-20.54 12.27-2.1.29-5.63-.1-6.52.52-1.56 1.1-.15 3.6 3.88 4.6 3.61.9 7.28.32 9.7-.16m281.25-3.82c3.11-3.3 3.42-7.22-.07-15.52-.98-2.32-1.43-3.64-2.6-3.31-2.46.68-5.33 7.13-3.63 12.6 2.22 7.1 3.5 9.19 6.3 6.23m-288.37-5.2c5.98-.8 13.55-5.53 19.02-12.96 11.25-14.66 19.01-31.35 24.77-44.32 4.6-10.45 12.93-33.02 15.19-41.19 4.8-17.36 7.43-28.55 9.62-40.98.2-1.14.39-2.97.05-3.56-2.37-.64-7.56-.26-9.16 1.33-2.86 19.93-9.53 39.93-14.4 56.54-8.2 28.27-31.62 73.49-44.38 75.62-6.86 1.15-14.73-4.8-13.46-10.9.77-3.75 1.29-5.18 3.13-6.11 4.45-1.56 7.04 1.45 2.16 3.42-5.66 4.9 4.52 12.4 10.77 7.16 10.6-8.87-4.97-25.87-17.71-18.06-14.12 8.66-10.5 23.64-1.62 30.77 4.48 3.59 9.67 4.1 16.02 3.25m99.97-20.3c8.73-8.92 15.28-20.47 20.04-34.91 10.33-32.44 18.89-69.62 22-98.74 0 0-7.46-.77-9.12.8-1.17 1.11-.05 2.16-3.22 23.45-5.32 31.03-13.07 61.84-24.3 88.52-4.6 10.78-5.9 12.1-9.15 17.7-4.53 7.92-2.85 9.94 3.75 3.18m193.52-67.61c-.8-.42-.74-.14-1.08.1-1.2.81-.41 4.96 2.28 11.35 7.12 11.44 7.95 33.64 7.48 41.99-.14 2.5-.4 3.94.36 6.17.76 2.18 2.08 4.72 4.21.46 2.34-16.43.5-33.64-5.82-47.58-2.23-4.95-4.4-9.8-7.43-12.5m5.48 48.48c1.24-4.42-1.06-21.96-3.92-28.12-1.15-2.49-3.23-2.68-2.98.14.03 6.08-.63 17.64.03 21.06 3.1 7.15 5.52 11.7 6.87 6.92m-16.1-70.85h-3.36c.11 11.47-10.1 14.66-13.86.88l-3.02.7c4.02 19.44 22.17 10.53 20.24-1.58m-20.4 8.64c-1.75-5.09-1.03-6.95-5.45-4.66-3.38 1.75-5.4 3.61-.65 5.9 4.23 1.78 7.2 1.98 6.1-1.24m25.56-2.93c1.4-2.82 1.23-5.37-.88-5.38-1.63-.01-2.08 1.28-2.54 4.02-.83 4.9 1.22 5.8 3.42 1.36m1.77-19.06c1.3-.4.93-2.22.58-4.53-5.53-7.67-19.21-5.32-24.13-3.8-5.67 1.84-7.1 1.15-10.96-.6-3.2-.6-3.64.17-4.42 1.7-.68 1.33-.8 3.87-1.02 8.3-.2 3.75-.06 5.49 1.25 4.32 5.06-4.54 10.93-10.2 19.48-10.55 10.37-.43 19.23 5.33 19.22 5.16m-37.67 10.38c0 1.54 1.31.58 4.69-1.53 12.28-7.27 19.4-6.24 29.9-2.78 2.35.77 3.8-1.67 1.26-3.75-12.49-10.22-27.87-3.7-35.85 8.06m44.5-47.11 66.61-109.82-371.13-.28 63.02 116.6c51.39-11.85 135.97-27 241.5-6.5"/><path fill="#e2cf00" d="M299.46 1085.97c7.86-11.69 46.79 9.14 48.85 17.4 23.03-18.09 51.01-19.41 73.52 3.23 23.15-25.23 47.93-23.51 73.71-8.89-2.88-5.7 32.96-30.87 54.75-14.87l58.9 104.6-377.4 1.22c22.29-33.37 42.04-73.23 67.67-102.69M134.6 540.34c-2.05-5.66-10.33-63.78 10.68-65.23 33.96 15.01 77.3 68.71 97.4 101.52 24.88 40.66 50.03 134.16 36.15 130.08-2-.59 42.86 44.2 45.96 48.58 5.08 7.2-75.65 141.24-88.98 136.43-4.03-1.45-30.92-17.46-30.92-17.46l.77-44.72s42.25-83.16 44.6-110.95c.88-10.5-29.08-28.47-30.45-32.1-3.41-9.04-3-42.63-20.46-57.3-9.62-5.83-18.7-3.97-28.46-2.73-39.61-6.6-19.1-73.16-36.29-86.12m662.47 29.85.24 16.5c-26.08 5.67-72.18-16.35-86.13 19.13 1.73 38.32 10.34 55.51 16.35 67.08 4.52 10.4 36.23-1.46 47.4 9.02 32.05 39.34 24.49 91.71 24.77 138.9l-13.9 7c-96.08-56.5-169.86-232.03-180.08-282-.66-32.1 88.14-135.2 88.14-135.2.2-.22 32.36 19.52 32.36 19.52.77.31-.69 135.32-.68 134.7 25.39 1.3 50 3.77 71.53 5.36m-195.2-123.4c-49.3 70.48-65.97 175.83-62.8 249.32 6.39 109.7 84.79 207.52 79.55 216.76-.9-.64-2.96.45-3.75-.25-18.06-16.01-30.67-13.2-39.9-13.35-17.66-.28-22.53 4.97-32.66 5.97-25.86 2.55-23.76 3.2-45.7-5.03-27.68-22.51-64.75-39.77-94.25-48.85-23.65 2.13-59.72 13.27-73.36 4.25 94.88-174.61 80.67-286.4-17.55-469.4 8.14 2.39 9.4 9.97 15.5 11.84 20.2 7.78 48.01 4.83 64.68-2.42 18.1-8.13 35.2 3.77 34.96 3.38 35.65 25.09 78.78 41.28 101.23 52.47 6.63 3.42 15.02-1.97 22.34-3.45 15.01-3.03 27.87-9.44 39.07-5.69 3.6 1.2 8.95 2.68 12.64 4.45M380.39 218.3c-4.83-8.96-54.23-102.69-54.23-102.69l367.46 2.21-55.13 90.42c-5.2 4.91-31.1 18.6-57.52-12.39-.5 4.46-39.2 31.98-72.46-1.17-20.02 18.15-40.44 28.66-74.12 8.23-.75 5.7-27.02 31.25-54 15.4"/><path fill="#d40000" d="M420.6 1104.5c-35.61-33.29-72.68-3.24-71.83-1.33-14.09-14.29-27.87-25.99-46.44-20.25 0 0 0-5.01.14-5.12 55.38 10.11 140.2 12.74 239.35-7.97l5.09 10.62c-26.6-9.43-40.3 3.29-52.08 18.15-42.68-26.58-53.1-3.27-74.24 5.9m83.04-387.19 25.19-.49c4.74 73.16 65.94 185.11 67.41 185.11-4.26-5.91-44.66-1.25-44.36-.5-22.22-59.2-46.61-118.33-48.24-184.12m-146.9 173.56s-8.1-20.97-12.96-29.95c26.45-45.1 48.14-91.78 59.27-143.69l18 .16c-5.33 71.67-62.76 180.5-64.31 173.48m324.03-9.6c39.67-71.49 32.82-174.54-79.73-231.48 0 0 2.94-75.54 11.3-75.7 1.9.58 50.95-.64 50.95-.64 12.85-31.5 33.53-69.6 62.43-95.32l.72 84.43c-21.39 2.11-34.43 8.93-40.9 25.63l-29.64 6.6c2.18 84.8 34.13 163.17 128.9 233.56-22.65 19.44-100.05 58.9-99.76 58.2zM205.88 828l.84-87.92c14.38-3.1 25.7 1.06 37.57-24.67 0 0 19.91 9.44 26.53 12.92-18.61 33.26-34.68 68.8-64.94 99.67m188.68-155.66.98-44.64 42.43 1.22c-3.6 15.14-4.73 30.27.08 45.4zm96.8-.55c2.9-14.6 4.97-29.29-1.04-44.79l45.95.79-1.09 44.45zM404 584.5c-7.64-87.54-67.7-186.63-68.55-184.52 7.08 1.13 19.54 4.63 26.4 1.39 8.3 1.37 15.5.44 15.89-.33.55-3.06 55.83 127.1 48.45 183.26-.88 1.9-20.39 2.03-22.2.2m106.2.77c6.49-40.44 23.22-114.42 62.75-174.41 4.5 10.65 8.26 21.6 14.43 31.56-29.8 43.3-48.17 92.8-59.31 143.33zm-274.73-21.8c-18.08-36.85-93.31-94.86-89.47-89 31.15-27.89 65.88-45.6 100.55-63.49 0 0 6.17 5.85 5.23 7.32-21.31 33.55-31.65 104.65-11.01 145.4 19.83 43.52 55.01 69.24 90.88 89.44-2.77 27.22-4.13 46.88-10.83 73.94 0 0-22.54-11.84-41-19.46-2.95-51.39-13.6-97.35-44.35-144.15m199.27-361.1c26.51 16.15 50.26 14.45 73.29-7.47 28.9 26.2 60.16 14 73.37 2.19 12.22 13.76 28.15 21.39 51.43 16.84l-5.76 12.1c1.37-6.43-160.62-16.92-239 5 0 0-4.58-9.13-4.07-9.2 6.82-.42 29.53 7.98 50.74-19.46"/><path d="M24.72 46.22v12.32l11.84-.64v106.34l-12.8.06v12.64h35.52V164.3H50v-30.58l15.5-20.16 20.34 50.74h-12.8v12.64h38.88V164.3h-10.78L74 99.32l27.78-41.42h8.7V46.22H73.03V57.9H84.8L50 108.68V57.9h9.29V46.22zm296.04 66.49 65.47 121.85 2.88-.54c90.76-17.72 162.65-20.15 239.85-6.58L697.6 114c-124.91-1.42-376.83-1.3-376.83-1.3m7.3 5.2 364.12.4-20.48 33.56c-12.27-3.78-19.1 1.83-20.82 13.58 0 0-1.52-.66-4.36-.96-17.95-1.94-20.21 21.68-3.46 24.54 4.28.73 5-.12 5-.12-14.94 12.54-23.43 4.08-30.46-.06-.19 1.46-13.4 11.37-25.84-.48 17.83 1.78 20.6-16.07 12.08-22.86a41 41 0 0 0-3.6-3.12c4.2-3.65 5.1-8.5 2.42-14.06-5.41-11.18-22.35-10.52-24.94 1.68a55 55 0 0 0-1.04 5.58c-13.68.89-16.46 13.8-11.76 20.96 2.67 4.07 8.55 4.95 13.98 4.68-7.32 10.35-24.06 6.83-31.52-1.7-11.85 13.91-25.36 12.22-32.1 4.76 4.57-.05 7.74-.12 11.94-4 7.19-6.65 3.65-18.43-6.5-21.72-1.97-.64-3.4-.77-3.5-.78.07-.1.26-.76.7-4.3 2.52-20.55-28.28-18.52-25.3 1.7.34 2.34.98 3.6.98 3.6s-3.27-.19-5.14.68c-17.1 7.88-5.32 29.58 7.9 24 1.25-.53 4.66-2.2 5.16-2.18-16.38 20.28-30.12 5.9-33.74 3.7-11.06 16.39-30.27 5.2-30.67 4.06 1.2.33 4.8-.41 8.23-2.16 10.82-5.64 7.76-20.15-.68-23.3-2.58-.9-5.7-1-9.22-.72 0 0 .27-3.66-.08-4.94-5.32-19.76-29.9-9.9-23.86 6.8.53 1.46 1.96 2.94 1.96 2.94s-3.33 2.02-4.83 3.36c-11.73 10.55.22 27.96 13.93 20.72 1.77-.94 3.48-2.9 3.98-2.78-6.46 11.78-16.24 15.89-30.2 6.14-8.61 13.64-22.66 7.97-26.62 1.14 13.12 1.2 21.65-23.95-3.58-24.76-1.97-6.83-1.86-17.23-17.86-15.44zm-85.2 14.66c-13.7 36.31-52.37 69.18-74.76 110.08-25.3 41.4-17.36 83.74 17.08 91.06 18.05 3.83 41.6-13.52 43.7-32.2.43-3.82 1.83-5.83 4.4-5.52 2 .24 1.81 5.16 1.06 11.08-2.77 19.42-13.3 50.25-26.92 64.46l63.36.04c-2.55-1.44-26.2-31-23.9-66.84.04-6.41.03-8.54 2.88-8.52 2.28.01 2.3 1.07 2.98 7.36 4.26 39.79 53.74 44.1 69.28 6.06 7.84-19.2-.38-53.38-21.06-82.6-15.71-25.72-42.44-55.61-58.1-94.46m27.92 239q.21.13.23 0zm235.1-210.52a5.23 5.23 0 1 1-.02 10.45 5.23 5.23 0 0 1 .02-10.45m81.36.62c3.06 0 5.54 2.5 5.54 5.56a5.54 5.54 0 0 1-5.54 5.54 5.54 5.54 0 0 1-5.54-5.54 5.55 5.55 0 0 1 5.54-5.56m-159.48 6.06a5.35 5.35 0 1 1-.02 10.7 5.35 5.35 0 0 1 .02-10.7m228.46 6.58-4.64 8.24c-5.12-4.49-1.59-10.37 4.64-8.24m-292.16 11.36-4.62-8.52c8.27.55 5.83 6.47 4.62 8.52m141.14-4.64c31.25 35.6 59.28 25.07 77.6 1.4 7.86 20.17 25.38 34.12 55.52 20.56-1.83 3.22-6.4 8.92-6.4 8.92-26.64 7.17-39.86-5.36-50.14-17.3-27.1 22.5-52.63 17.04-73.68-2.8-17.97 22.62-47.08 27.49-74.02 9.02-12.32 18.17-29.98 25.51-52.2 16.42 0 0-4.72-7.41-5.12-7.88 3.21 2.7 44.13 19.68 54.12-21.16 14.24 24.17 60.94 25.45 74.32-7.18m3.14 14.64c35.15 32.87 72.04 4.44 72.98 2.44.55 1.82 20.61 25.78 49.54 16.78l-4.7 8.06c-54.43-9.21-104.5-15.13-219.16 1.74 0 0 18.3-5.42 27.55-20.02 5.16 3.34 44.94 25.55 73.8-9m-444.42 9.32c-3.2 7.74-8.42 15.76-12.8 22.92-20.56 31.91-21.74 34.97-23.37 46.24-4.58 22.05 21.45 30.97 29.76 15.92 3.71-6.36 6.06-2.22 4.4 3.8-1.06 10.57-11.83 22.83-11.87 22.6l31.54.24s-13.52-13.78-13.32-24.84c.02-5.06 2.72-5.2 6-.66 9.42 13 26.97 2.54 27.09-15.94.07-11.33-3.37-17.68-23.86-48.16-4.47-6.67-9.4-15.07-13.57-22.12m321.21 17.92s15.3 1.8 16.5 2.1c1.34 1.04-12.88 4.94-12.94 4.66zm31.02 156.82c-.93.03-2.09 1.07-4 2.96-4.15 4.08-5.1 4.62-9.12 5.2-3.04.43-9.45 4.12-13.34 7.68-1.05.96-3.06 1.76-5.46 2.18l-6.38 1.1c-1.42.24-2.97.7-3.44.98-2.04 1.24-5.37 1.43-9.1.54-3.6-.87-4.18-.84-8.14.38-5.78 1.78-9.56 1.78-12.4 0-2.85-1.78-7.36-2.45-10.22-1.52-4.24 1.37-15.2-5.2-15.18-9.08 0-.88-6.23-5.55-7.8-5.56-5.56-.83-54.41 18.46-54.17 19.58 60 74.08 110.48 186.96 72.45 325.08l-6.72-3.22c5.64-25.1 7.88-50.38 9.62-76.04-112.6-48.6-122.28-161.64-78.58-233l-7.42-7.9c-26.48 14.13-53.4 22.15-118.84 77.06l.18 88.88c.16 80.35.12 158.64.12 158.64 23.68 2.62 49.77 4.77 75.5 6.98 0 0-.33 79.47-.92 110.54-.5 26.29.48 24.64.48 24.64l85.2 44.92c-6-23.66 8.79-33.06 21.16-32.08-5.47-22.8 8.1-33.25 23.6-30.32 10.47 1.98 14.13 7.75 20.12 26.82.97 3.1 2.3 7.25 2.3 7.25l5.98-.23c7.47-16.04 12.47-36.47 30.05-39.11 23.02-3.47 31.6 12.34 31.58 28.16 22.3-19.66 49.02-4.45 47.29 24.91 11.21-7.21 30.23-13.73 42.2 14.08 4.5-.95 6.8-5.97 13.14-7.54 2.37-.5 7.74-3.38 7.74-3.38l.06-.96s4.98-1.73 11.66-2.82c5.73 2.14 4.06 2.07 7.14-1.74a27.4 27.4 0 0 1 13.32-2.54c4.51.4 6.52.73 9.16-.42 4.11-1.8 7.96-2.26 10.4.46 1.75 1.95 4.28 1 7 .9 5.43-.22 12.68 2.02 14.94 6.9 3.33 3.4 10.62 6.84 10.62 6.84l5.9-1.36.68-2.18 48.26-18.42c-98.41-107.75-95.84-250.7-72.66-323.06l8.9 4.28c-4.72 21.44-10.08 43.47-9.38 75.44 88.62 39.51 132.7 141.64 78.98 230.78l5.68 7.34c22.35-9.38 78.57-40.95 98-58.1l4.14.34s11.78-7.63 16.98-11.7l.7-236.56-4.12 1.08-.74-13.82-73.06-5.8c.93-.7 1.63-.98 1.84-2.36l-.42-130.96c-2.72-4.15-63.9-40-86.66-48.38-.91 0-.29 1.53.04 5.28 1.11 12.84-7.56 24.28-17.6 24.3-3.62 0-4.24 1.54-4.06 8.92.25 10.49-3.54 17.53-14.58 21.52-13.1 4.72-21.96-2.13-29.25-29.06-1.9-7.08-5.65-5.3-9.23 4.36-1.78 4.8-7.54 16.44-10.98 22.58-2.65 4.71-6.84 6.8-12.54 9.32-4.44 2.2-14.06 1.81-19.6-1-10.04-5.1-13.95-11.24-16.84-26.42-.38-1.99-1.68-1.82-4.94.64-17.74 13.36-42.68-.45-42.54-23.56.04-6.79-.24-7.06-4.22-3.8-12.03 9.82-28.38 4.84-34.92-10.64-1.54-3.63-2.35-5.24-3.55-5.2zm-101.96 8.2c1.25-.06 5.15 5.14 5.15 5.14 3.6 3.98 8.45 6 13.49 8.96.47-.7 58.73 77.49 68.64 185.3l27.1.14c-5.06-104.76-33.95-155.11-47.2-187.42l9.72-3.08c21.8 41.76 48.36 126.52 47.48 200.72h-44.76c-6.32-74.32-35.22-146.79-75.64-201.76-2.82-4.22-5.02-7.17-4.2-7.92a.3.3 0 0 1 .22-.08m-17.14 11.06 4.54 14.24s.54-3.33 1.94-4.58c8.84-7.97 17.3 2.52 13.32 16.76l-2.68 13.02s-8.89-4.56-13.36-6.02c-12.34-5.24-16.45-15.57-7.02-16.74 1.57-.2 4.82-.34 4.82-.34-3.92-3.08-12.57-10.12-12.57-10.12zm41.4 1.6c3.72 2.11 13.34 4.4 18.86 2.32 4.46-1.68 7.86-.76 12.5-.36 2.66.23 7.96-.94 7.96-.94 26.5 55.74 44.72 121.89 47.76 182.38l-20.84.12c-7.87-64.26-32.74-129.54-64.3-177.96-1.4-2.11-3.25-5.48-1.94-5.56m87.06.96c8.07.1 16.51 8.14 21.1 21.3 2.55 7.33 3.55 6.88 6.98 5.7 8.8-3.02 18.18 6.65 6.38 8.26-11.58 1.91-4.97 24.56-5.96 26.56-4.7.82-13.51-18.43-13.28-24.16.56-14.04-12.62-25.78-20.82-19.88-3.89 2.8-3.46 4.77-4.66 3.76-3.7-3.1-4.44-11.64-.12-16.48 3.11-3.5 6.71-5.1 10.38-5.06m239.72 4.84s.46 18.46-.24 22.54c-1.37 12.3-17.45 13.6-18.08 3.76-2.63 3.93-4.43 8.82-5.48 13.22l-11.4-7.84c4.33-3.11 8.46-5.84 11.66-9.68-8.45.64-13.18-6.68-7.52-12.9 6.28-7.13 23.65-7.9 31.06-9.1m-419.17 5.84 5.05 5.68c-44.93 79.62-29.09 181.4 79.34 234.88-.72 24.43-3.85 49.14-9.69 72.06l-40-19.4c.27-90.02-50.7-175.85-132.07-232.26 29.53-23.73 62.2-44.57 97.37-60.96m327.53.68c1.9 10.5 11.86 29.55 12.58 28.46-.1-.63-41.42 52.92-59.38 142.48l-15.34.06c10.05-59.68 30.12-115.99 62.14-171m127.34 2.5 8.16 4.94c-42.82 35.85-71.01 81.3-91.72 130.3l-10.82-5.12c32.1-71.1 63.83-102.66 94.38-130.12m11.42 7.94c2.24.14 4.9 2.98 9.02 5.24 4.03 2.2 3.03 3.38-4.56 9.2-8.97 6.88-9.82 6.57-9.74-3.24.05-6.51 1.7-10.85 4.84-11.18q.22-.03.44-.02m-9.86 10.12q.72-.06 1.1.52c.66 2.6.59 8.55-.46 14.42-.85 3.86-12.35 13.58-16.46 17.42-1.65 1.08-2.4.68-2.7-1.24.13-3.05.43-7.11.48-11.24.02-1.27-.25-2.6.9-3.58 5.64-6.66 13.85-16.13 17.14-16.3m21.38 3.16a.3.3 0 0 1 .16.04c1.06.64.88 13.98.14 14.86-3.34.86-12.32-.55-14.62-1.78-.5-1.55 12.17-13.21 14.32-13.12m-401.06 4.32 3.12 13.08s.89-1.76 1.12-2.1c6.2-9.48 13.74-3.92 13.62 9.24-.05 4.16-3.82 20.78-3.82 20.78s-23.27-11.18-25.1-16.08c-1.8-4.83.75-9.07 5.03-9.46 1.61-.18 3.29-.32 5.12 0l-10-10.22zm266.44 1.74 10.56 3.9c-22.03 35.82-44.75 71.2-61.3 151.9h-44.26c6.19-49.32 18.73-97.8 41.12-144.98 0 0 8.7-2.67 13.6-4.26 0 0-36.58 83.7-40.84 137.52l21.38.46c11.41-52.44 32.76-106.8 59.74-144.54m-83.8 1.3c5.95-.22 10.33 3.96 10 11.38-.08 6.78-.7 7.77-5.5 5.06-6.3-3.56-11.3-3.64-16.94.4-3.11 2.22-6.16 4.06-6.16 4.06s2.72-11.79 6.9-15.5c4-3.56 8.13-5.27 11.7-5.4m-22.7 17.44c-.43 3.99-1.6 5.81-2.66 9.22 0 0 3.46-1.35 5.12-2.12 7.86-3.67 16.06 3.12 15.94 11.08.35 5.3-5.42 11.66-12.28 11.72-2.4.02-4.94-.74-7.38-2.56 1.77 9.72 2.13 14.22-4.98 19.1-5.95 3.96-18.48-.57-17.78-11.44l.43-6.7-6.01.78c-16.82.69-17.1-20.01-3.54-23.26 5.41-1.28 11.3 3.16 11.3 3.16-2.58-5.08-2.63-13.8.83-17.84 8.55-9.93 22.06-.9 21.01 8.86m146.82-12.92c.92 7.74 4 16.19 3.12 23.42-1.31 9.24-9.17 14.7-15.34 8.72a61 61 0 0 1-2.14-2.28c-2.78 3.52-4.52 13.5-4.52 13.5l-10.9-6.72s7.57-5.31 9.66-8.34c.58-.84.86-2.44.86-2.44-6.07 1.9-11.21-4.3-9.56-9.78 3.28-8.97 19.6-12.29 28.82-16.08m76.18 5.6c4.08-.13 10.4 1.03 15.38 1.56 3.84.67 1.71 2.83-6.88 11.2-7.89 7.68-7.64 6.96-13.72 6.86-14.2-.24-16.68.08-8.42-8.84 4.33-4.68 8.11-8.9 11.22-10.46q1-.3 2.42-.32m-25.6 1.62q.26 0 .46.2c.94.88.62 4.88.52 10.8-.1 6.3-.04 6.3-2.68 9.6-3.36 4.2-6.15 8.5-9.66 12.56-3.04 3.3-2.94 2.94-4.76-4.98-1.77-7.69-.78-10.08 9.12-21.22 3.35-4.3 5.74-7.02 7-6.96m44.34 4.38.12 15.58c-29.3 28.65-49.2 60.87-62.74 96.38l-10.2-4.06c17.67-45.37 44.12-80.76 72.82-107.9m-253.97 9.42a8.77 8.77 0 1 0 .03 17.54 8.77 8.77 0 0 0-.02-17.54m-.06 2.76a6.07 6.07 0 0 1 0 12.12 6.05 6.05 0 0 1 0-12.12M145 475.98c91.38 58.63 132.36 149.52 132.18 227.6l-5.16-2.32C266.67 590.93 206.7 523.1 141.87 479.2zm541.04.84c2.07 0 4.88.33 8.96.8 7.56.4 8.5.88 3.28 6.86-1.43 1.64-4.16 5.06-6.1 7.64s-4.29 5.27-5.36 5.64c-1.59.55-14.87-.08-18.66-.6-1.25-.17.39-1.44 6.86-10.68 4.96-7.09 5.48-9.43 10.18-9.64zm38.06 3s1.82 50.29.5 82.36c-20.85-.77-33.09 7.14-38.18 22.12l-21.9-10.84c16.07-41.27 37.56-70 59.58-93.64m-64.52 1.16c1.18.02 1.86 2.47 2.2 7.3 1.38 8.64 1.22 9.65-2.38 15.2-1.8 2.76-4.26 6.66-5.46 8.68-2.1 3.52-3.58 4.56-4.1 2.86-2.85-9.33-3.76-15.1-2.74-16.98 1.66-3.1 9.44-14.14 10.54-15.58q1.13-1.5 1.94-1.48m-521.3.94c73.46 45.48 127.2 123.16 129.42 217 0 0-15.66-7.35-25.33-12.72l-.5-9.12 5.1-.16 1.64 10.28 11.22-.36-2.97-25.66-17.56 1.66-3.54-14.54 5.32-1.14 2.94 9.38 11.42-3.02-6.08-22.86-17.64 4.82-5.64-15.44 5.86-2.1 4.74 9.24 10.74-3.74-10.14-22.92-16.22 7.66-8.24-14.96 6.34-3.38 5.1 8.9 10.04-5.2-12.42-21.08-15.4 8.6-7.74-11.6 4.77-3.34 5.29 6.1 8.82-6.24-13.52-18.18-14.74 11.54-10.9-12.62 5.01-4.26 7.5 6.72 8.38-7.32-16.05-17.52-14.05 12.8-10.45-9.08 5.12-5.66 6.52 4.98 6.94-8.22-17.48-14.4-13.1 12.96-12.56-8.3v-6.18c4.08 1.57 8.39 3.4 12.26 5.46l6.5-9.84-18.76-12.66zm204.58 3.88 2.78 16.04c2.64-4.36 4.74-7.37 10.44-5.68 6.85 2.79 6.94 13.1 1.14 28.9-1.08 2.92-2.4 5.46-2.4 5.46s-3-1.25-5-2.62c-4.2-2.87-11.25-6.11-14.86-11.8-3.78-5.96-3.86-14.3 3.08-13.58 1.38 0 4.1.66 4.1.66l-10.42-13.28zm-208.62 4.78 12.72 8.2-2.65 4.8-10.07-4.54zm318.9 3.78c3.68 5.15-9.29 20.33 7.68 26.4 0 0 .42 3.5-3.12 5.62-8.3 6.03-20.22-4.98-16.52-16.32 2.36-7.25 9.2-15.66 11.96-15.7m35.2.48s5.11 3.74 6.14 4.72c9.44 9.06 9.53 22.04.98 26.58-5.7 3.02-12.13.59-14.36-3.8-1.04-2.03.67-4.16 2.84-4.14 4.07.02 7.18-7.78 5.97-16a77 77 0 0 0-1.57-7.36m111.44 3.02s1.12 11.1 2.74 16.02c4.96 13.8-1.38 22.2-10.64 17.58-1.32-.66-3.66-3.66-3.66-3.66l-.92 15.86-13.18-3.84c2.85-4.58 6.95-7.84 10.02-13 0 0-1.97-.07-3.7-.08-7.87.27-10.77-8.46-2.52-15.64 6.15-5.3 21.86-13.24 21.86-13.24m68.9 3.68c1.6-.01 3.59.12 6.32.12 8.36 0 10.5-1.13 6.82 4.08a152 152 0 0 0-5.98 9.6c-2.11 3.9-2.53 5.13-6.04 5.9-5.09 1-10.85.31-16.66.58-1.27-.06 1.33-4.4 2.78-7.08 3.55-6.6 5.71-11.12 8.76-12.5 1.2-.55 2.4-.7 4-.7m-25.84 5.1c1-.05 1.76 1.76 2.72 5.5 2.24 8.73 2.82 8.95-.8 16.12l-6.22 12.28c-3.29 6.5-3.47 6.44-5.54.62-3.97-11.17-4.31-10.02 2.24-22.56 4.09-7.84 6.12-11.88 7.6-11.96M160.8 509.7l11.81 9.48-3.36 3.26-6.53-4.82-9.66 10.34 15.87 14.48 13.44-13.24 11.52 12.04-3.52 2.98-6.75-6.52-10.12 8.64 15.1 17.84 15.21-11.6 9.55 12.5-3.9 2.44-6.22-6.04-9.9 6.86 12.32 17.36 15.52-8.9 8.82 14.5-4.9 2.36-5-7.96-11.15 6.42 10.53 20.3 16.76-7 6.74 15.5-5.12 2.08-4.3-9.32-11.28 4.46 7.56 21.32 17-4.88 4.12 15.84-5.24 1.46-2.58-8.78-10.83 2.6 4.53 21.4 17.3-1.1 2.06 17.3-5.38.24-1.34-10.32-11.02.14c.06 3.63.48 11.06.48 11.06l-6.66-3.08c-9.9-65.79-45.19-120.61-97.77-158.78l-.27-7.86 12.8 8.12s11.73-10.46 13.76-13.12m504.98 15.34c3.67-.03 2.04 2.82-2.42 11.32-4.98 9.49-5.87 9.68-15.2 11.96-11.35 2.77-11.02 3.39-4.88-9.7 2.37-5.05 4.09-9.46 6.26-11.14 2.85-2.2 8.36-1.36 14.34-2.26q1.11-.17 1.9-.18m-530.93 2.8c54.6 35.22 89.12 108.09 93.4 152.26 0 0-1.47-1-4.45-2.36-4.14-1.9-5.16-3.15-6.36-9.16-10.82-54.02-41.31-99.86-82.34-132.22zm492.4 9.02c2.3-.48 6.5 16.1 5.25 19.58-.9 2.5-9.03-3.4-11.98-4.66-1.48-.63 5.16-14.6 6.72-14.92m-263.3.76-.26 17.2s2.07-2.46 3.14-3.24c4.06-2.96 10.26 1.14 10.5 6.22.33 7.04-.74 9.9-6.38 19.68-1.75 3.03-4.38 6.88-4.38 6.88s-6.66-4.75-13.94-12c-7.87-7.84-6.37-18.3.52-18.34 2.06-.02 3.9.68 5.7 1.26-1.49-5.07-7.02-14.9-7.02-14.9zm213.42 12.88s3.56 4.7 7.66 17.04c3.91 11.79-2.11 20.67-10.28 16.22-1.47-.8-3-2.52-3-2.52-.58 5.71.44 16 .58 16.08l-13.18-2.3s7.24-11.5 7.76-14.34c0 0-.82.64-4.44.64-13.24 0-10.5-15.76 4.8-24.5 2.3-1.31 10.1-6.32 10.1-6.32m75.92.2c2.86-.13 1.51 2.64-1.66 9.12-3.5 7.16-2.63 6.54-10.04 2.76-10.37-5.06-9.75-5.86 3.38-9.4 4.15-1.54 6.82-2.41 8.32-2.48m-187.96 2.1c10.38.06 18.03 10.3 16.5 24.86-2.64 25-1.12 23.45 1.6 25.94 4.95 4.54-1.76 7.27-7.66 2.94-4.11-3.02-5.46-6-5.26-19.78.22-15.85-.64-19.88-6.3-18.5-3.54.86-4.65 3.87-4.26 14.56.55 15-.45 18.78-6.14 23.58-6.15 4.75-12.78.51-7.16-2.62 2.56-2.89 3.04-6.56 2.06-15.62-1.08-7.72-5.59-35.5 16.62-35.36m256.62 12.6a70 70 0 0 1 3.94.04c19.97.75 70.48 4.86 70.48 4.86l.44 14.92c-2.26 1.39-39.95-4.36-67.68-3.84-6.48.12-11.08 2.98-15.76.58 4.5 1.87 4.09 24.37-15.74 18.92-16.82-6.04-8.62-28.78 12.88-34.52 3.7-.5 7.53-.89 11.44-.96m-111.14 10 43.16 21.28C660 677.7 687.97 763.31 783.24 828.2c-15.44 11.04-54.15 38.17-98.4 56.74l-3.62-3.88c52.54-89.34 12.84-187.69-79.16-232.2.25-24.8 3.36-49.27 8.74-73.46m151.82 13.58c8.28-.33 10.43.63 11.14 4.38.67 3.54 3.3 4.38 6.42 3.24 7.6-2.77 12.23 10.7 5.94 16.68-3.9 3.7-3.22 5.14-.02 5.16 7.93.05 7.7 10.43-.36 16.32-3.34 2.45-3.3 3.55.2 5.28 5.86 2.9 4.68 8.6-2.76 13.32-4.05 2.56-4.18 3.2-.84 4.1 8.41 2.3-.17 14.29-9.38 12.16-3.78-.88-7.37-.06-10.98 2.3-9.86 4.1-11.51 4.93-22.16 3.6-9.35-1.71-13.53-4.8-15.94-13-5.48-16.69-11.4-35.18-11.46-53.4-.83-11.19 17.92-21.3 26.8-21.74 7.24-1.09 15.53 1.53 23.4 1.6m-590.35.28a17.96 17.96 0 1 1 .01 35.93 17.96 17.96 0 0 1 0-35.93m199.6 5.28-1.62 15.7s2.64-2.06 3.26-2.58c4.67-3.9 12.05.46 10.38 6.54-.55 5.35-9.8 21.28-13.48 24.62 0 0-14.84-16.16-16.42-19.32-3.53-7.02 1.29-14.35 7.7-11.24.91.44 3.55 2.4 3.55 2.4l-4.7-14.9zm-198.4 1.26c-6.35.21-12.38 4.11-11.57 9.3.55 2.22 3.93-.98 7.27-3.08a9 9 0 0 1 8.53-.6c2.59.92 3.7 3.3 5.19 5.14 1.27 1.55 2.65 2.82 3.43 2.06.67-.82.4-1.85.22-2.78-1.36-7.07-7.21-10.22-13.07-10.04m483.66 2.44 6.42 3.28c8.64 114.5 66.54 181.82 127.38 221.92l-4.84 2.92c-74.66-47.83-126.5-133.53-128.96-228.12m9.72 4.7s16.12 8.25 24.56 12.06l.32 10.36-5.64.2-1.92-9.74-11.72.84 3.66 23.96 18.9-2.32 2.64 14.48-6.4 1.34-3.28-8.9-10.84 2.64 7.02 23.28 17.04-5.5 5.34 15.22-5.72 2.08-3.66-8.92-11.22 3.92 8.68 22.72 17.74-5.7 7.16 14.22-5.38 2.38-5.14-8.82-10.64 5.44 12.48 21.22 16.02-8.4 7.48 11.34-5.88 3.94-5.34-6.94-8.62 5.68 13.8 18.84 13.8-10.34 10.32 11.9-4.56 4.04-7.04-7.14-8.34 7.44 16.44 18.04 14.28-12.4 10.14 9.44-3 3.16-6.82-4.26-9.04 9.6 17.26 15.02 13.7-15.02 11.62 8.56v6.32l-10.38-5.26-6.96 10.48 17.34 13.12-.12 5.16c-98.99-59.05-125.03-150.65-130.08-218.78m-202.66 1.14c4.27-.13 8.8 3.9 16.26 12.54 20.86 24.16 15.3 61.55-11.99 81.04-3.96 2.84-5.56 2.59-10.42-1.58-27.96-24.03-29.58-56.17-4.67-84.4 4.3-4.88 7.5-7.5 10.82-7.6m99.98 3.32c5.14 7.89 11.64 16 12.38 25.58-.37 9.47-6.75 11.21-13.36 5.7-.84 4.97 2 14.66 2 14.66l-11.96-1.28s4.69-8.2 4.88-13.32c-8.3 5.78-14.65-1.76-13.52-7.84 2.37-10.35 10.88-17.32 19.58-23.5m-99.62 6.18c-.98.08-2 .75-3.56 2-7.29 5.84-13.01 13.11-15.98 20.66-6.27 15.93-2.18 33.89 11.96 47.82 7.18 7.08 9.7 6.6 20.72-8.04a42.4 42.4 0 0 0 5.46-41.84 46 46 0 0 0-13.82-18c-2.32-1.82-3.52-2.7-4.78-2.6m230.08 2.94 9.28 4.56c11.84 78.09 50.21 125.73 93.22 158.58l-.08 7.24-11.54-8.94-13.82 14.46-11.2-9.18 4.2-4.08 6.38 4.06 8.16-9.14-16.06-14.32-14 12.14-11.66-12 3.54-2.96 8.06 7.04 9.02-8-15.6-17.5-13.96 10.58-9.74-12.92 4.24-2.52 5.1 7 10.76-6.7-11.38-17.5-16.22 8.32-8.3-14.96 4.72-2.26 5.38 8.4 10.1-4.86-10.16-20.64-16.58 5.48-6.1-16.24 4.74-1.74 4.18 9.6 11.22-3.6-7.62-22.22-17.14 4.84-4.24-16.34 5.3-1.14 2.78 8.82 11.78-2.36-4.32-21.16-17.54 2.22c-.58-3.6-3.17-13.28-3.12-16.94l5.4-.44 1.7 9.32 11.8-.4zm-229.46 1.7c6.43.88 14.28 13.26 16.06 17.76 3.39 8.9 3.67 19.2.58 27.18-2.53 6.53-10.1 18.12-14.9 21.38-3.88 2.1-7.12.54-12.66-6.98-10.94-14.87-13.06-32.75-4.42-45 6.6-9.36 11.49-14.35 15.34-14.34m241.9 3.86 4.66 2.2c5.72 45.25 32.54 107.35 85.32 144.5v5.68C756 745 718.33 694.18 707.08 622.08m-242.72 3.08c-18.38 13.86-15.44 35.55-1.52 50.16 15-9.93 20.3-36.74 1.52-50.16m-280.5.92c10.37-.24 16.94 3.37 20.1 10.56 4.9 11.16 5.57 13.28 6.57 19.14L212.5 667c5.38 30.33 1.42 41.77-17 46.5-5.5 1.41-13.17 1.87-18.52.58-1.41-.34-6.56-.37-10.6-.5-8.04-.26-10.49-1.11-14.52-4.38-1.46-1.18-2.86-2.13-4.6-2.4-9.2-1.45-11.94-9.88-4.96-16.1 3.97-3.54 4.36-4.02 4-4.62-.22-.34-1.91-.63-3.79-.64-9.26-.06-9.17-9.6.16-16.4 4.44-3.24 6.44-6.29 3.5-5.54-8.44 2-11.43-10.36-2.6-14.19 4.71-2.63 8.08-4.82 3.55-5.07-3.81.33-6.92-2.48-5.75-5.8 1.41-4.01 9.14-7.67 13.6-6.3 3.5 1.07 6.88 2.04 9.07.48 5.28-3.8 7.65-5.51 12.2-6.12 2.63-.35 5.4-.43 7.62-.42M492 628.4l42.6.82-1.26 41.78-40.12-.76s8.8-18.67-1.22-41.84m-95.46.96 40.8.5c-6.72 15.74-4.21 31.92-1.74 41.04l-39.95-.62zm68.14.06c10.96 6.39 13.98 29.65-1.25 41.6-14.5-14.89-11.6-33.02 1.25-41.6m-100.66 18.16 10.94 1.02-3.9 15.66s1.76-1.86 2.34-2.04c14.05-6.6 15.06 8.35.76 21.86-3.16 2.97-8.24 7.06-8.24 7.06s-3.98-6.02-7.14-11.46c-3.6-5.47-6.04-11.33-5.42-14.44.89-4.52 6.31-7.5 9.78-4.74 1.7 1.36 3.68 3.42 3.68 3.42zm195.32 11.48s4.58 4.7 7.37 7.76c9.67 10.56 11.33 20.45 6.43 23.46-4.2 1.93-6.81.6-10.2-2.14.7 6.55 5.9 16.22 5.78 16.24l-14.42 2.32s3.56-13.12 3.26-18.08c0 0-2.97 2.27-4.28 2.84-9.41 3.43-14.08-7.26-6.34-17.92 6.49-8.94 12.4-14.48 12.4-14.48m196.98 19.8a17.52 17.52 0 1 1 0 35.04 17.52 17.52 0 0 1 0-35.04m8.64 8.02c-.75.17-1.37 1.9-1.46 5.74-.87 7.86-7.41 11.02-14.56 7.38-2.89-1.47-5.35-3.65-5.36-1.98 0 .9 2.31 5.58 3.96 7.18 6.06 5.45 20.82 4.16 20.48-8.54-.16-5.98-1.8-10.07-3.06-9.78m-318.1 6.58c1.9-.13 4.32.66 5.86 2.26 4.79 3.27 5.7 7.45 6 23.22.26 13.91-.02 14.25 2.28 15.94 5.62 4.13 9-2.17 7.4-16.26-1.55-13.57 3.34-23.43 11.54-23.38 4.03.03 4.78 2.4 1.72 5.42-3.23 3.19-4.01 7.1-3 14.94 2.6 20.1.35 29.98-8.1 34.06-8.82 4.26-20.15-.63-22.14-11.76-1.28-7.42-1.26-16.22-.38-24.52.15-8.73-.04-9.72-3.08-14.72-2.15-3.36-.55-5.03 1.9-5.2m-221.68 6.52c4.87-.01 9.93 2.81 12.96 9.06 7.3 15.07-8.51 27.47-23.02 28.44-25.19.38-55.1-3.26-80.38-6.62l.4-14.24c23.19 1.34 49.34 3.22 77.52 4.54-3.21-13.24 4.4-21.16 12.52-21.18m132.44 2.92 14.02 3.1-8.92 14.58c2.64-1.15 4.47-1.95 7.12-.98 5.7 2.06 5.78 9.3 1.6 16.06-3.31 4.91-12.63 10.77-18.98 14.38-3.57-7.66-11.46-21.1-8.32-28.42 1.67-3.9 6.28-5.8 10.58-3.66 1.42.85 4.14 2.24 4.14 2.24zm33.14.4 42.72.5c-6.2 43.2-18.36 100.87-42.3 147.88l-10.07 2.6c21.12-46.71 35.17-90.53 41.73-139.5h-21.36c-12.29 52.56-30.46 101.28-58.42 143.6l-12.42-4.04c29.87-47.35 53.53-100.2 60.12-151.04m97.44.76h47.62c8.76 87.94 38.47 147.97 82.7 207.34 0 0-2.8.63-4.44-.08-4.59-5.72-8.8-9.22-15.66-10.98-37.17-53.52-62.11-128.33-68.12-185.56h-28.32c3.23 71.89 23.14 130.82 49.64 187.9l-14.38 2.64c-21.28-51.08-44.62-95.54-49.04-201.26m74.1 10.86c3.92 3.03 8.15 6.01 12.14 8.9 10.72 7.52 10.58 21.74.16 21.68-1.1 0-3.68-.16-3.68-.16s4.26 9.32 6.94 14.04c-4.34 1.16-13.42 2.86-13.42 2.86s1.3-9.16 1.04-16.74c0 0-1.74 1.95-3.18 2.62-6.92 2.89-12.76-3.15-11.9-10.28 1.17-9.63 11.9-22.92 11.9-22.92m-318.15 1.72 23.45 11.64c-15.98 36.36-34.27 70.4-60.72 96.28l.68-84.02c14.44-.42 29.25-.55 36.6-23.9m160.28 1.32h14.42c-6.4 67.08-50.72 157.82-59.04 168.76l-2.74 2.06c.16-.09-5.68-20.57-12.32-27.94 25-33.73 51.2-98.53 59.68-142.88m101.4 0h21.78c6.78 53.45 23.3 111.19 65.18 181.32 0 0-4.2.42-7.44-1.52-7.14-4.43-12.1 1.44-16.36 1.2-6.67-.35-7.76-.75-14.64.88C519.8 826.96 510 769.6 505.84 717.96m-235.26 12 7.78 3.66c-16.73 38.69-31.72 69.43-71.35 107.18l-.13-11.24c27.83-26.96 46.6-62.5 63.7-99.6m11.31 5.4c3.7 1.38 7.87 3.66 11.35 5.54 1.16.46.85 1.5.86 2.6-1.47 3.68-7.97 5.29-10.42 6-2.97.84-5.9 1.43-6.43 1.56-3.38.8-2.31-2.6 1.37-10.04 1.66-3.35 2.3-5.59 3.27-5.66m15.55 8.2c2.32-.14 11.73 5.05 13.73 6.92.72 2.2-1.3 5.68-4.27 12.1-4.57 9.88-5.48 10.1-6.84 1.98-.24-1.4-1.6-6.02-2.42-9.08-1.9-7.11-2.1-11.2-.2-11.92m17.02 7.98s5.46 2.66 7.24 3.82c-24.4 73.08-89.4 133.5-89.04 132.1l-10.14-5.96c43.25-39.08 74.94-85.22 91.94-129.96m-25.8 1.04c2.36.05.3 2.95-2.88 9.98-3.03 6.88-4.01 9.33-6.84 10.42-4.05 1.47-9.88 1.51-15.04 2.42-2.21.38-1.29-1.3 2.12-8.22 3.99-8.11 4.21-9.8 10.48-11.48 3.62-.56 8.49-3.15 12.16-3.12m8.56 14.52c2.51 9.05 2.46 10.83.78 13.98a342 342 0 0 1-8.43 14.64c-2.84 4.66-3.64 3.69-5.33-7.64-1.05-7.03-1.97-10.18-1.2-13.24 1.43-3.47 5.66-11.63 8.05-16.4 3.43-10.19 5.26 7.76 6.13 8.66m44.92-7.9 12.8 4.2-10.04 12.12s4.2-.76 4.7-.56c10.07.67 8.4 10.68.6 16.74-3.23 2.96-19.16 10.2-19.16 10.2-1.7-8.96-5.22-14.69-4.38-23.88.59-4.95 1.03-9.42 7.1-9.56 3.19-.17 4.48 3.1 6.56 5.72zm232.04 10.86s7.71 3.98 14.86 9.48c9.32 7.18 10.92 15.61 1.6 18.86-1.08.38-4.14.22-4.14.22 2.56 4.47 8.66 11.12 8.66 11.12-3.06 2.13-7.36 3.81-12.14 5.3 0 0-1.19-11.13-2.32-15.42 0 0-1.24 2.43-2.76 3.38-8.98 5.58-16.02-4.94-11.2-18.26 2.93-8.09 7.44-14.68 7.44-14.68m-98.7 1.86c22.42-.55 9.28 36.17-1.92 33.8-.19-.34 9.25-21.72-3.46-25.12-5.84-1.56-.8-8.75 5.38-8.68m-36.77 2.6c6.97-.04 12.04 4.87 5.39 7.96-10.47 4.86-4.24 16.52-4 23.12.14 4.03-9.33-3.52-11.34-11.72-2.6-10.6-1.4-18.45 9.95-19.36m-165.81 3.86c1.55 0 2.7.12 3.1.42.65 1.73-2.48 7.15-7.04 14.08-2.43 3.7-3.47 4.73-4.97 5.6-3.52 1.98-8.48 1.47-12.61 1.76-6.16.08-5.08-.05 1.73-10.66 3.05-4.75 4.98-8.62 6.79-9.86.36-.23 8.36-1.32 13-1.34m8.08 7.66c0 13.28 4.51 17.63 1.2 21.82a185 185 0 0 1-11.1 15.92c-3.17 3.8-2.82 3.08-3.64-6.86-.6-7.2-1.26-12.03-.32-14.28 2.7-6.5 5.92-9.62 9.28-16.54 2.63-5.57 4.58-4.65 4.58-.06m176.96 6.66c6.5.09 10.53 7 10.24 13.36l-.28 6.08c8.42-3.23 18.85-.1 19.32 8.16.78 14-9.52 12.37-18.24 11.78.88.33 2.16 12.65-3.02 17.36-8.14 9.11-23.32-.2-19.5-13.56.8-2.78.96-4.52.96-4.52s-5.44 1.96-7.36 1.88c-16.51-.7-15.25-24.05 1.34-21.3 3.39.56 5.68 1.38 5.68 1.38s-.36-1.48-.92-3.56c-2.42-8.98 2.65-17.18 11.78-17.06m330.22 4.16 8.9 5.12v9.92l-12.66-9.36zm-533.5 6.64c3.5-.04 6.26.24 5.72 1.08-.02 1.77-7.68 12.45-12.22 17.32-3.87 4.16-4.42 3.56-13.88 3.1-3.71-.18-6.14-.21-6.04-1.2 4.35-5.72 10.36-13.08 14.52-19.22 1.63-.5 7.39-1.04 11.9-1.08m8.65 4.66c.66-.01.86 1.41.85 4.5-.01 2.33.32 9.55.66 12.68.61 5.69.61 5.68-1.83 9.08-2.97 3.2-6 7.9-9.83 11.56-5.76 6.38-5.17 6.75-5.08-6.9.07-10.66-.74-10.66 1.42-13.16 1.18-1.37 4.84-5.85 7.25-9.36 3.67-5.32 5.61-8.39 6.56-8.4m54.88 1.88 11.84 6.32-11.85 12.02s2.97-.01 3.96.18c7.61 1.48 7.04 9.55-.62 15.58-4.71 2.97-20.88 8.86-20.88 8.86-.56-6.79-2-13.04-1.72-20.32.11-3.36.42-7.01 3-9.92 1.78-1.97 4.76-3.12 8.93-.42a16 16 0 0 1 3.34 4.16zm139.72 4.1a8.4 8.4 0 1 0 8.4 8.4 8.4 8.4 0 0 0-8.4-8.4m132.37 1.98s15.5 5.82 22.48 12.22c6.52 5.44 3.45 14.4-3.02 14.58-.47 0-3.22-.4-3.22-.4 2.2 3.34 9.54 11.52 9.54 11.52l-11.98 4.86s-1.92-9.22-3.4-14.4c-4.18 9.64-14.48 3.37-15.16-2.64-1.66-8.8 2.08-17.4 4.76-25.74m-132.36.74a5.84 5.84 0 0 1 5.84 5.84 5.85 5.85 0 0 1-5.85 5.84 5.84 5.84 0 0 1-5.83-5.84 5.84 5.84 0 0 1 5.83-5.84M229.2 828.8c4.18-.04 9.38.16 11.71.3 1.78 1.37-1.93 5.6-9.12 13.14-5.75 6.04-6.6 5.2-13.58 5.26-11.7.1-11.98.17-6.61-5.94 5.88-6.7 9.31-11 12.03-12.4.92-.24 3.06-.34 5.57-.36m14.26 5.88c1.23-.25.9 2.91.7 10.06l-.35 12.12-9.09 8.76c-10.54 9.42-9.28 10.02-9.2 1.2.05-7-.02-11.93 1.5-15.04 4.6-5.54 9.39-10.45 14.62-15.74q1.21-1.23 1.82-1.36m231.34 3.02c2.53-.21 9 10.85 10.62 20.12 3.7 21.17 16.37 31.2 25.3 22.7 3.63-5 4.03.46 3.86 3.06-1.88 26.82-32.26 15.65-35.72-10.98-10.67 6.92-20.62-7.06-14.26-6.84 15.03-4.78 10.92-18.58 10.2-28.06m-35.2.2c1.49 9.28-15.23 25.16-24.64 14.02-4.79-5.67-.42-17.36 5.66-10.16 6.72 4.98 13.24-.8 18.98-3.86m-229.76 12.72c3.43-.08 8.4.58 10.58.28 3.07.3.87 1.79-5.76 7.84-5.72 5.21-7.35 7.53-8 5.26-.32-3.52-.18-7.7-.16-12.68.52-.49 1.78-.67 3.34-.7m77.96 6.16 10.2 7.44-10.12 9.32c9.07-.45 9.88 8.06 6.44 12.8-2.23 3.33-10.84 6.83-19.45 8.22-5.17.84-9.4 1.46-9.4 1.46s-.19-4-.33-10.62c-.3-13.56.63-18.9 5.84-21.54 3.73-1.9 10.04 1.08 11.6 4.54a29 29 0 0 0 1.86 3.14zm-65.64.74q.05 0 .08.02c.58.78-1.5 22.84-1.5 22.84l-14.78-8.32s14.96-14.28 16.2-14.54m391.16 2.6c10.53 4.96 18.41 4 25.5 10.14 6.17 3.23 4.34 12.12-.16 14.1-2.04.62-5.4.28-5.4.28 3.72 4.6 11.88 10.4 11.88 10.4l-12.96 5.42s-1.77-8.74-3.42-13.5c-2.36 7.08-10.35 6.91-14.9 3.58-3.23-2.47-4.56-10.74-3.02-17.92.4-1.9 2.48-12.5 2.48-12.5m47.36 71.9c13.37 18.82 20.82 34.65 22.9 58.26 1.23 14.56.8 17.28-2.64 17.26-2.22-.02-3.18-1.11-3.16-3.6.23-39.54-48.47-48.84-66.6-14.68-10.63 20.02-5.39 46.57 17.46 82.72 21.02 34.23 48.1 60.26 63.5 97.08 15.27-36.57 45.9-67.35 67.8-102.6 31.63-45.33 20.66-93.11-18.36-98.14-17.9-2.3-37.53 15.64-39.8 34.2-.51 4.14-1.39 5.36-3.66 5.02-3.04-.45-1.9-8.63-.58-19.54 3.62-20.85 10.98-38.26 22.92-55.98zm188.94 52.26c.36-.1 9.92 13.25 11.28 18.24 1.1 4.07 1.96 8.27 1.26 10.04-.84 2.13-2.83.5-5.32-2.8-6.83-9.06-20.25-6.17-25.72 5.62-3.94 8.5-1.75 19.45 5.58 31.86 8.76 16.2 30.2 45.33 30.84 47.98.57-2.28 14.22-27.02 25.22-43.42 5.8-9.9 10.14-18.28 10.4-31.36-1.34-16.28-20.82-23-29.52-10.36-2.81 4.09-4.48 5.34-5.42 2-.63-2.25 1.35-7.1 2.38-12.3.87-4.33 9.3-15.6 9.5-15.5zM544.1 1065.5c-127.8 30.29-231.6 11.56-241.9 7.98l-8.15 12.14c-.99 2.06-1.6 8.23-7.11 9.91l-8.28 12.35 1.61 1.73-7.34 6.4 1.79 2.13-5.34 7.76-2.1-.22-12.36 18.79 1.88 2.1-28.38 44.41 383.94.12c-22.32-42.09-46.2-83.37-68.26-125.6m-2.32 5.46 2.28 6.34c-6.35-.78-13.77-1.16-21.3-1.5a201 201 0 0 0 19.02-4.84m-22.3 5.52c-12.22 5.6-19.53 12.34-25.14 19.44-6.98-5.43-15.87-9.27-26.48-11.68zm-215.76 3.08 5.44.62s-1.83 1.42-3.13 1.12c-.99-.23-2.31-1.74-2.31-1.74m244.58 3.16 3.46 6.84c-8.32-4.4-43.89-14.5-53.98 20.86-10.62-14.35-54.41-35.17-76.62 9.09-6.32-12-43.09-46.49-76.62-2.53-13.22-27.32-24.27-29.61-48.52-25.88 17.24-16.57 41.5.68 51.77 14.78 28.94-23.99 53.13-16.78 74.26 2.74 27.28-29.69 54.48-22.54 73.6-7.64 13.45-19.77 26.58-25.74 52.65-18.26m-223.39.18c17.2 2.32 34.4 3.38 51.59 4.22-9.95 3.66-20.16 6.8-28.26 14.15-6.14-8.58-14.67-13.56-23.33-18.37m124.04 2.74a128 128 0 0 0-27.6 18.04c-8.74-7.12-17.75-13.28-27.55-16.38 17.99.88 37.93.1 55.15-1.66m418.6 9.62q-.04.1 0 .12zm-308.51 4.42s-3.47.59-4.58.88c-15.18 4.04-11.88 25.42 3.74 25.42 1.48 0 5.18-.58 5.18-.58-.3 14.48 4.1 18.02 18.9 17.2l25.08 44.84-371-1.6 23.56-37.68c11.84 1.39 19.3-5.2 16.66-15.26 0 0 7.3 2.23 9.34 2.24 13.4.08 16.88-20.49 4.02-24.06-1.43-.39-5.02-.79-5.47-.92 5.89-14.69 22.04-6.02 26.67.09 10.4-8.57 21.92-4.73 26.86 6.35 0 0-1.94-1.08-2.54-1.52-12.2-8.92-23.54 9.56-11.6 18.08 1.17.84 3.66 1.57 3.66 1.57s-1.45 1.18-2.78 3.41c-6.2 10.43 3.78 23.13 15.84 19.86 9.25-3.62 9.39-10.58 9.38-18.24 0 0 3.2.25 6.06.28 11.1.14 14.28-14.09 7.49-20.7-3.68-3.58-8.48-3.3-10.85-3.76 12.8-12.57 21.48-3.9 30.52 1.9 1.37-.03 15.68-17.22 32.7-.34-8.26-2.16-16.72 3.2-16.83 11.79.16 5.54 4.12 10.43 12.67 10.82-.92 2.78-1.53 4.85-1.58 7.55-.17 9.03 6.85 14.65 15.76 13.26 7.45-.94 12.95-9.46 10.3-16.54-1.2-3.19-2.84-4.35-2.84-4.35 20.05 2.5 19.7-22.9 4.11-24.44-3.7-.36-6.54 1.23-10.28 4.65 9.18-18.75 25.95-14.99 32.23-7.32 8.61-6.26 20.5-14.8 34.7.42a20 20 0 0 0-8.5.15c-11.25 2.99-11.3 17.29-2.38 21.64a19 19 0 0 0 8.9 1.81c-2.97 12.02 10.38 20.61 19.82 14.85 6.77-4.12 8.54-13.86 1.22-22.75 12.33-.55 13.54-15.91 6.42-21.3-5.58-4.22-12.15-2.22-16.92 3.36-1.53-4.41 10.65-19.74 27.86-8.7 9.12-7.64 18.15-9.99 28.5-2.36m5.38 12 4.82 8.76c-3.2.32-7.8-3.12-4.82-8.76m-62.2 8.9a5.46 5.46 0 0 1 5.46 5.46 5.46 5.46 0 0 1-5.46 5.46 5.46 5.46 0 0 1-5.46-5.46 5.46 5.46 0 0 1 5.46-5.46m-225.18.32c.73 2.93 1.04 5.86-4.28 6.42zm545.42 2.54v12.22h10l28.24 65.04-27.1 42.22h-11.14v10.87h38.8v-10.87h-11.34l34.48-52.64v52.64h-9.9v10.87h35.08v-10.87h-12.8v-107.26h12.8v-12.22H874.5v12.22h9.9c.24 10.52.3 19.58 0 30.11-4.93 6.57-10.04 14.6-15.46 20.8l-21.8-50.91h14.12v-12.22zm-482.7 2.74a5 5 0 1 1 0 10 5 5 0 0 1 0-10m83.22 1.56a5.3 5.3 0 0 1 0 10.6 5.3 5.3 0 0 1-5.3-5.3 5.3 5.3 0 0 1 5.3-5.3"/></g></svg>