<svg xmlns="http://www.w3.org/2000/svg" fill-rule="evenodd" stroke-linejoin="round" stroke-miterlimit="2" clip-rule="evenodd" viewBox="0 0 934 1300"><g fill-rule="nonzero"><path fill="#d40000" d="M505.5 1186.44c2.28-33.58.33-69.62 1.86-96.95-1.04-1.93 2.7-7.23 2.9-7.23-2.23-4.06-2.97-14.46-.17-23.69 21.98-83.73 61.78-148.9 102.78-209.67 33.34 100.43-71.34 170.89-93.36 258.65-7.34 30.39-6.24 51.6-9.06 79.05zm-174.04 1.29L206.93 995.35l27.04-13.16 128 204.86zm161.08-356.38c1.1 5.52 5.44 8.49 10.06 5.96 4.51-2.47 5.03-2.64 2.22 1.71-6.2 9.62 6.37 18.92 14.44 10.67 2.86-2.93 3.34-7.7.74-10.12-2.94-2.74-3.58-4.16.76-2.07 10.9 4.4 16.9-11.35 6.34-16.65-2.72-1.37-8.03-.16-10.02 1.92-2.41 2.51-2.75 1.63-2.11-.32.38-1.15.65-3.02 1.56-5.25.7-1.75 1.22-4.14 1.22-4.14l-11.13.12s.9 2.55 1.8 4.7c.87 2.02 1.19 3.53 1.6 4.37 1.5 3.02-.3 1.9-3.3-.33a8.7 8.7 0 0 0-12.61 1.88c-1.12 2.45-2.06 4.99-1.57 7.55m16.08-156.51 23.93-.71 26.33 72.65c-21.07 34.97-26.75 74.43-2.24 114.41l-75.91.13c17.8-60.26 20.56-124.17 27.89-186.48m25.03 94.52a8.4 8.4 0 0 0 .7-11.55c-3.69-4.37-2.84-4.6 2.1-1.74 7.12 4.12 13.94-4.79 9.73-12.66-2.67-5-11.3-6.1-14.6-1.66-2.76 3.7-2.45.31-.34-4.62.78-1.8 1.9-5.2 1.9-5.2l-11.6.23s1.5 3.29 2.3 5.4c2.11 5.6 2.2 7.36-1.06 3.77-7.09-5.95-15.4-1.64-15.47 6.9.08 6.57 6.03 10.79 11.24 7.72 3.17-1.87 4.6-2.32 1.02 1.97-2.46 4.08-1.57 9.29 1.67 11.73 4.45 2.69 9.22 2.54 12.4-.29M373.29 792c.93-.69 1.28-.23.7.7-.48.78-1.73 1.9-2.8 3.09-5.41 6.02 1.6 13.68 10.32 12.5 5.94-.81 9.43-10.16 5.04-13.85-1.43-.95-2.54-1.13-3.62-2.43-.08-.52.16-.87.68-.66.78.32 2.36 1.6 3.16 1.82 5.52 1.5 9.69-.79 11.09-4.68.89-4.51.03-9.35-3.65-11.88-3.42-2.3-8.49-1.64-11.44 2.28-3.02 4-3.43.2-.96-5.34a31 31 0 0 0 1.56-5.03l-10.67.57s.57 2.3 1.51 4.93c2.37 6.03 4.07 7.75 1.04 4.64-13.03-7.67-17.35 2.76-17.57 6.91-.4 7.81 10.97 12.24 15.61 6.43m52.15-117.82 19.25.07c-14.51 77.15-44.25 141.78-94.28 186.25l-94.15-.29-45.37-31.72 17.53-22.75c119.52 12.31 170.42-46.95 197.02-131.56m-86.62 178.85c5.64-2.48 7.98-8.86 4.25-13.14-3.37-3.87-3.71-5.08 1.47-2.07 6.92 4.04 13.61-4.01 10.22-11.9-2.11-4.9-8.77-6.41-13.57-3.08-4.21 3.14-4.13 1.74-1.93-3.23 1.1-2.45 1.93-6.39 1.93-6.39l-11.8.17s.85 2.8 1.71 4.72c1.97 4.42 2.68 6.44 1.77 6.45-.44 0-1.9-1.34-2.75-2.12-2.35-2.16-8.77-2.57-11.16-.29-7.06 6.74-3.08 18.52 5.9 16.34 5.8-1.4 7.13-3.6 2.32 1.85-5.92 6.72 3.25 16.4 11.64 12.7m-74.4-2.35c4.87-2.3 6.5-7.92 3.77-11.55-2.75-3.66-4.1-6.02.78-2.72 6.5 3.27 12.18-1.07 12.1-8.47-.09-7.74-8.78-11.35-15.18-6.69a11 11 0 0 1-2.64 1.5c-.78.01.64-4.18 2.2-6.92a115 115 0 0 0 1.85-3.61l-11.8-.45s.67 3.21 1.6 5.68c1.87 5.03 2.33 6.7-.96 3.85-8.87-8.3-18.34 2.27-14.6 11.38 1.97 5.13 8.03 5.13 11.6 2.57 3.24-2.51 1.58.82-.64 3.47-6.06 7.23 2.83 16.21 11.91 11.96m538.73-193.43.62 14.27L651.3 798.57l-6.39-9.8zm-567 26.71c21.95-15.61 46.36-43.65 70.46-58.27 17.6 40.46-23.69 80.13-70.46 58.27m402.82-10.23c-22.07-75.8 82.2-70.75 69.1-54.65zm-495.54-49.51L294.3 501.2l6.86 10.34-159.2 130.42zm413.4-124.1c.42 1.28 4.98 6.18 4.99 6.63-1.3-.98-9.05-5.32-12.84-1.1-1.32 1.55-3 5.24-2.82 9.07 1.58 6.85 9.38 9.27 14.92 4.58 1.6-1.35 2.97-3 3.3-2.41.28.5-.6 2.85-1.3 4.72-.82 1.91-3.86 5.94-1.66 5.93l10.72-.02s-.4-2.5-1.68-5.28c-2.4-5.2-2.3-8.01.6-4.27 5.63 7.28 16.54 1.2 15.4-7.52-.83-6.3-7.2-9.91-11.9-6.9-.51.32-2.02 1.82-2.23 1.83-.58.02 1-2.38 2.03-4.38 3.46-6.63-1.7-12.76-9.6-12.1-2.55.21-5.34 1.82-5.36 2.05-2.96 2.39-3.45 6.52-2.58 9.16m130.3-61.72c15.1 13.9 30.19 24.07 45.29 32.96l-14.25 22.5c-96.56-8.94-166.78 29.24-196.09 132.74l-15.91 3.06c5.98-64.57 27.62-128.59 91.58-191.15zm-92.55 15.45c.03 3.06 5.65 6.7 4.4 7.55-.58.3-3.93-2.61-5.46-2.77-11.15-1.19-13.46 16.15-2.42 18.09 2.18.38 6.66-.97 8-2.06 1.76-1.45 2.99-2.65 3.35-2.52.68.25-.86 3.34-2.07 5.63-1.13 2.13-2.7 6.3-2.7 6.3 4.42.8 8.68.98 12.67.05 0 0-1.15-3.62-2.29-6.38-1.45-3.52-1.76-5.76-.78-5.52.42.1.9 1.2 1.78 1.96 5.5 4.72 13.55 2.7 15.67-4.66 1.99-6.92-6.3-14.05-12.07-10.18-2.01 1.36-2.02.34 0-2.7 1.83-2.77 1.38-6.97-.28-9.46-6.06-6.43-18.08-1.84-17.8 6.67m91.01 20.53c-.3-1.54.09-1.1 1.71.59 5.08 5.29 13.84 4.47 16.06-2.54 2.23-7-4.57-15.01-10.49-12.26-3.08 1.43-3.13.92-1.37-1.37 4.54-5.9-.46-13.69-8.25-13.6-7.12.08-11.32 6.93-7.85 12.81 1.42 2.41.96 2.93-1.54 1.72-7.28-3.53-14.07 7.99-8.74 14.82 3.14 4.02 10.4 4.44 14.55.46 2.2-2.13 2.19-1.11.58 3.28-1.4 3.83-2.95 6.92-2.95 6.92l12.6.11s-3.36-6.4-4.31-10.94M415.76 629.2s-18.7-52.06-25.1-77.01c13.85-33.2 32.82-65.36.93-113.16l77.5-.22c-23.94 54.29-24.45 191.3-30.08 191.63zm6.8-60.93s-3.83-5.26-4.06-9.53c-.46-2.73.24-2.9 1.66-.1 6.9 7.62 16.25.25 16.3-6.5.79-6.19-6.44-11.48-11.09-8.4-3.25 2.16-4.14 1.54-1.24-2.48 4.1-5.67-.36-13.06-7.67-12.97-9.52.1-13.16 8.99-6.34 15.33 5.04 4.69.34 1.92-3.66.24-7.78-3.26-12.9 4.67-9.4 12.67 2.41 5.53 9.5 6.97 13.64 2.5 2.28-2.45 4.38-3.89 3.15-.19-.65 3-4.13 9.35-4.13 9.35zm12-83.43s-4.6-5.75-5.39-10.08c-.27-1.6.86-1.2 3.47 1.05 8.34 7.15 19.8-5.68 12.02-13.52-2.67-2.7-5.38-3.48-8.5-1.85-3.9 2.04-3.58 1.05-1.64-1.05 2.85-3.08 2.64-8.7-.43-11.44-8.48-7.56-21.9 3.7-14.01 11.78 3.43 3.51 1.8 3.05-1.97.8-7.14-4.28-15.05 7.43-9.68 14.3 6.35 5.37 11.12 2.73 15.51-.65.96-.5 1.78-.73 1.79-.31 0 .77-4.4 11.13-4.4 11.13zM332.9 452.4c-4.73-.32-8.1-44.5-2.33-58.49 12.33-59.01 49.94-102 73.34-138.14 37.55-53.83 32.89-143.24 34.48-139.68l5.33.62s-4.12 52.42-1.8 76.1c2.43 20.82 1.9 22.12.41 24.18-.4 1.94.19 7.62-.23 9.57-16.72 77.1-56.6 156.37-97.79 216.22zm386.13-134.69L592.22 117.75l30.47-2.74C634 132.93 744.17 303.79 744.17 303.79z"/><path fill="#e2cf00" d="M196.85 1191.29c14.42-52.87-24.65-175.83-49.07-191.9 28.63-1.2 63.08-.69 61.99-3.37 0 0 121.77 191.53 120.78 192.54-.94.96-133.7 2.73-133.7 2.73m493.54-299.95c-29.51-4.2-17.87-28.69 1.1-31.23-2.47.41 2.03-12.18 17.34-17.27 3.47-6.3 6.2-17.07 9.38-22.06-9.18 2.98-20.32 10.73-62 4.62 3.63-19.75 43.5-23.12 57.87-20.06 8.3 1.92 16.5 14.3 19.02 14.55 25.59-4.26 58.14 18.89 48.3 42.39-1.54 3.35-5.43-3.98-14.04-7.1-27.84-10.1-29.79-25.17-36.2-31.91-2.32-.44-14.63 23.92-14.63 23.92l3.84 16.55c6.68-.61 36.36 17.73-.59 30.15-10.21 35.2-29.45 10.36-29.4-2.55m69.94-157.2c-1.58-1.6 1.24-12.57 4.99-18.87 2.02-3.4 6.7-5.7 9.44-5.21 4.88.85 4.12 7.96-2.35 28.75-.27 3-6.88 3.32-12.08-4.67m-587.68-145.6c-8.1-.04-.84-22.06 4.14-29.05 1.64-2.17 8.1 2.45 8.43 5.64.6 5.72-8.18 25.67-12.57 23.4m-5.75-149.74c9.88 2.39 25.49 12.34 32.94 17.8 9.27 6.92 6.74 20.5 14.16 21.7 5-2.47 14.2-24.72 14.2-24.72s2.3-11.42-4.23-14.94c-16.26-8.76-15.97-18.22-14.94-19.06 4.82-12.5 14.42-10.27 19.6-10.97.12-6.84-.1-21.28 14.05-19.8 12.39 1.18 13.61 18.87 8.4 19.03-.1-.3 23.42-3.37 23.2 12.15-.13 8.4-14.08 19.17-18.43 15.26 0 0 2.33 16.77-18.75 22.52-4.92 5-8.94 26.32-8.94 24.43 12.7-11.47 32.61-14.16 64.01-10.04-19.45 36.06-73.24 19.18-77.44 12.2-27.07-8.16-52.45-18.79-47.83-45.56m231.7-86.43c28.62 2.6 59.93-6.39 83.74-1.63 2.71.37 5.66 4.38 7.29 5.27 12.3 6.72 25.18 4.63 44.99-2.87 4.89-1.85 95.65-1.14 95.65-1.14 20.68 30.54 57.43 87.99 58.23 86.04 0 0-50.3-.57-73.49.8-16.3.97-6.72 3.2-18.03 3.68-79.32 59.57-94.42 188.29-94.42 188.29s25.21-6.63 31.8.32c31.18-91.2 90.37-132.85 172.92-124.7 38.15 3.77 83.67 41.28 83.67 41.28l-81.64 66.43c-63.24-31.9-90.33 62.13-71.15 62.37l164.4-134.38s2.8 10.97 2.52 11.34c-11.71 15.36-207.7 174.44-207.7 174.44l-8.6-9.5s-5.4 4.8-8.25 7.99c-.28 5.21 1.55 9.63 5.5 13.7-38.82 31.16-40.1 88.32-11.48 119.53 0 0-12.7.9-14.03 1.13-16.13 2.76-32.8-76.77-.84-113.78-16.13-31.63-26.06-74.66-28.08-76.66.43 5.07-25.46 3.39-25.46 3.39-1.98 64.28-8.69 127.3-24.13 188.03l118.94 2.56-50.63 87.87s-56.82-1.42-81.3-3.13c-25.55-14.87-40.29-3.56-64.27 1.94-34.14 1-84.38-.58-84.38-.12-17.04-33.84-35.35-58.73-60.24-87.74-3.16-5.27 101.03-2.01 101.03-2.01s52.08-78.79 61.57-101.04c7.4-17.36 24.01-80.59 24.01-80.59.77 3.3-9.45-16.44-33.27-16-19.7 130.93-175.27 175.03-268.89 90.77L143.7 739 350 571.68l9.16 10.6c-1.97-1.58-126.64 102.16-124.57 101.5 36.95 19.35 79.7 3.7 74.73-59.8 29.28-21.16 55.2-45.81 80.7-70.98.54-.98 28.43 62.58 27.75 74.81 16.04-5.38 25.54 5.91 25.23 3.98-5.76-36.76 26.43-176.13 27.04-192.15-17.88-1.44-41.59-.78-78.77-2.26 29.87 57.8 19.5 96.96-22.25 132.57l-8.73-10.97c3.54 1.98 60.97-47.72 14.73-121.98-2.12.18-24.37-2-24.37-2s45.63-72.4 47.93-82.64m221.67-238.9s130.2-3.13 130.24.69c-4.16 69.95 12.15 133.75 51.5 192.77 0 0-57.67-2.05-56.62-1.32z"/><path fill="#131f67" d="m809.64 108.92-676.88-.84 4.2 1086.41h676.05zm-61.9 4.3c-.07-.06-8.73 114.93 51.26 190.24-36.65-5.55-57.63.07-78.97 15.14l2.92 3.01c29.4-18.06 54.29-13.3 79.8-10.5l-.7 147.95c-.17 7.18-29.81 3.97-48.55-10.12-8.9-5.25-20.38-16.28-25.52-24.56a77 77 0 0 0-3.66-5.53c-1.73-1.98-12.41-21.9-32.04-59.6-9.97-19.16-23.16-45.31-33.87-65.58a3142 3142 0 0 1-20.73-39.88 1464 1464 0 0 0-21.4-41.47c-14.43-26.32-37.73-72.24-46.03-88.7-1.84-4.27-4.64-6.24.37-6.1a17 17 0 0 1 2.86.25c.87.44 1.95-1.51 1.95-1.51zM145 735.3l-.43-11.63 196.71-162.24 6.28 8.08zm190.06-284.17q-1.19.43-2.6.88c-5.06-22.52-2.17-52.62 3.78-75.25 8.68-31.41 24.88-56.6 42.93-81.92 41.23-57.82 59.49-101.4 58.75-179.07l5.9.63c-.25 12.27-1.87 21.5-2.35 37.82-.74 17.49-.45 30.79 1.41 47.86.92 8.4 1.47 13.84.06 14.93-.68.55-1.29 3.45-.67 4.52-.1 2.33-.41 6.98-.41 6.98-9.45 46.24-60.1 164.8-106.8 222.62m24.6 105.11-10.42-12.79s-8.02-6.46-.82-13.76c20.83-21.12 20.97-47.97.84-72.1-1.36-3.07 6.25-18.56 6.25-18.56l15.85.27c24.72 30.07 31.47 83.22-11.7 116.94m14.56-119.36c.5-2.06-23.48-1.26-23.48-1.26 14.9-22.2 27.56-45.05 40-67.95 19.32-34.66 46.1-95.39 54.5-139.4 6.25 51.48 15.34 127.9 59.4 130.9 14.44 1 31.17-8.9 33.9-7.27l91.52-.72c18.77 38.05 38.94 62.57 62.82 88.6 17.16 9.79 38.08 17.53 58.31 22.56 11.49 2.85 12.59.95 35.26 4.19 5.98.85 15.09-1.68 15-1.68-18.1 14.29-39 10.24-62 4.12a52 52 0 0 1-4-1.21l-17.36 26.13c-38.66-9.16-162.8-2.68-195.52 132.29 0 0 3.36 1.71 2.58.78 25.99-117.14 135.77-140.5 188.11-128.83l-4.5 6.87c-86.85-10.62-157.56 43.7-174.4 120.72l1.68 1.52c32.59-116.45 169.58-159.54 254.52-78.82l15.57-11.03-.5 14.93-208.81 174.95-8.35-8.63s-1.47 1.11-3.14 2.5c-5.39 4.48-7.51 5.57-6 8.08s7.37 8.14 7.62 8.77c-34.64 28.22-45.62 82.65-12.71 120.77 3.67 4.03 3 5.12 2.33.57-29.52-32.12-25.78-88.95 11.02-115.87l7.42 9.72c-16.2 35.58-24.84 91.08 17.77 95.89 15.26 40.9-2.3 89.38-21.9 121.88-20.79 37.43-45.96 68.54-61.68 109.32-7.64 17.01-19.8 67.47-19.16 106.04l-4.58-.05c0-15.73 1.05-34.39 1.18-46.33.64-58.15.55-54.7 1.87-56.17.42-.49 1.64-1.01 1.76-1.42.17-.61-.95-1.81-1.4-3.24-.45-1.45-1.22-4.01-1.14-6.16s2.1-5.31 1.71-6c-9.17-32.09-9.92-89.77-39.5-116.27-14.52-12.46-33.79-12.96-58.75-2.73-55.08.1-46.9 2.92-91.39.39-18.4-33.7-40.72-66.5-64.86-90.84-11.29-12.58-26.98-19.48-41.73-28.6 5.92-11.22 12.63-19.43 19.96-24.76 1.53-2.17 2.57-4.5 4.54-6.35 149.98 14.41 182.5-130.84 175.65-127.15l-1.32 1.15c-41 149.66-186.93 144.2-260.28 79.5 0 0-10.37 9-10.4-.87-.03-8.98 3.24-11.58 3.24-11.58l205.9-167.88c3.76 2.4 7.81 10.37 9.5 9.48 3.8-2.02 9.38-6.06 9.2-8.48-.13-1.85-7.52-13.5-7.52-13.5 55.08-57.02 30.23-82.5 12.55-121.57m78.05-320.47c1-.01 1.93.46 2.63 1.56 1.25 1.98-3.75 13.55-6.84 15.58-2.92 1.93-3.13-.3-1.02-11.5.62-3.27 3.05-5.63 5.23-5.64m302.09.2h47.69l.35 183.14c-35.64-50.09-53.68-107.77-48.04-183.14m-289.3.44c1.2-.06 2.25.28 2.6 1.14 1.22 3.08-5.78 16.42-14.43 27.48-4.49 5.74-6.75 7.4-8.15 6.03-1.18-2.6-1.15-5.64 2.98-10.41 3.41-3.94 9.21-13.13 11.6-18.28 1.04-3.02 2.06-5.75 5.4-5.96m48.98.65c1.39.01 2.81 0 3.21.65 8.32 16.98 24 32.3 40.05 40.48 2.34 1.33 1.24 4.66 2.02 7-18.02-2.68-41.67-28.2-48-46.84-.03-1.35 1.33-1.3 2.72-1.29m28.18-.01c3.58 3.64 9.22 8.04 10.49 12.2.78 2.55 1.35 5.47.8 6.85-3.13 1.96-18.7-16.1-18.09-18.2a8 8 0 0 1 6.8-.85m-67.47-.26c1.52.06 3.86-.03 4.2 1.12 1.95 7.87-16.03 38.55-29.14 47.24-4.66 3.08-4.97 2.27-4.6-2.9.26-3.49.6-3.21 5.38-7.78 6.82-6.52 14.29-16.58 18.39-25.5 5.26-11.44 3.97-12.15 5.77-12.18m12.2.12c1.7 0 3.3.58 3.74 1.34.6 1.03-.2 2.7-.76 4.77-5.92 16.76-20.65 40.88-37.94 54.59-6.72 5.18-7.86 5.15-8.35-.2-.29-3.12 1.14-4.02 4.3-6.21 14.67-10.18 27.86-27.83 33.44-45.86 1.09-3.5.67-6.66 2.58-7.73.88-.5 1.96-.7 2.99-.7M578 146.6c.7 1.2 5.74 9.07 1.62 6.1-1.68-1.38-4.75-4.87-9.63-10.41-11.55-13.11-11.9-12.3-11.67-15.56.12-4.25-2.92-11.22 3.64-9.41 6.46 7.58 10.52 19.81 16.04 29.28m-52.56-28.79c1.3-.02 2.86.22 4.14.48 7.6 14.3 26.16 26.84 26.1 26.78 0 0 .46 6.22-.22 7.31-.38 1.92-29.47-20.18-32.7-33.4.3-.86 1.37-1.15 2.68-1.17m-20.7.26c6.83 12.55 20.92 41.02 54.03 52.52 2.38.52 4.92 7.3 3.1 9.16-18.16-5.26-51.1-23.04-62.28-61.5 1.1-1.03 3.98-.87 5.14-.18m-8.89 2.44c-1.13.02 15.64 48.41 63.41 62.84 4.13 1.3 6.55 3.09 6.29 5.53-.33 3.08-.23 3.47-4.83 1.16-13.03-6.8-31.6-9.99-47.12-2.1-2.42 1.22-4.88 4.58-2.93 6.7 1.12 1.07 3.85.27 7.35-1.09 18.06-7.03 45.7-2.9 50.57 8.15 3.47 7.85 4.06 13.62 2.17 14.59-1.45.73-3.9-1.9-8.22-5.7-13.73-12.05-30.16-15.4-43.22-3.82-2.83 2.5-5.63 2.07-6.62 3.1-.95 1 .18 3.26.98 5.46.84 2.3.88 2.92.05 4.86-1.15 2.66-1.19 6.06-1.06 8.6.3 6.17 4.39 11.49 16.14 19.63 9.16 6.34 16.31 9.9 5.17.88-19.23-15.58-22.72-21.92-10.26-16.53 12.45 5 29.7 0 41.93-9.33 4.16-.07 6.64-.8 8.83.8 9.11 21.4 16.57 49.87 28.69 77.48-14.47 16.35-64.86 56.4-100.79 54.96-31.02-1.23-41.97-52-48.83-80.06-2.3-11.87-4.94-23.95-4.63-40.72 0 0 .57-.45 1.37-.3 5.2.98 14.14 1.66 18.69.6 8.25-1.93 9.91-3.4 10.4-2.19.56 1.44-2.87 4.67-8.88 8.78-2.62 1.79-10.22 5.45-9.42 5.99 1.82 1.21 11.02-3.68 12.57-4.99 2.4-2.04 4.05-2.17 5.2-1.04 1.35 1.32 1.63-.09-2.82 10.96-4.9 12.17-4.43 13.27 5.13 20.77 3.32 2.6 6.36 5.21 7.09 6.35.92 1.5 1.54 3.26 1.96 3.83 1.62 2.16.62-1.32-.34-6.86-1.11-4.09-5.13-8.15-7.97-10.13-5.22-3.63-4.41-7.2-.1-19.55 12.76-36.46 9.5-52.72-4.53-60.64-6.33-3.57-24.05-2.62-29.64 2.05-2.75 2.3-2.37-2.21-1.93-2.52 33.67-23.14 41.56-45.21 50.15-66.5m64.99 17.86c9.56 9.48 21.45 22.36 28.6 31.52 3.94 4.89 6.01 9.9 9.14 15.03.6.93 1.19 1.99.77 2.42-.16.18-1.53-.61-2.29-1.18-7-5.28-35.91-38.2-35.91-38.2-1.34-5.41-2.27-7.25-.31-9.59m5.71 22.35s25.06 27.35 39.4 40.8c2.83 5.93 8.24 14.47 8.1 15.9-.06.64-3.06-1.67-3.06-1.67-15.86-14.61-30.52-31.04-45.74-46.6.15.08-1.2-6.44-1.22-9.07.35-1.3 1.87.13 2.52.64m54.35 70.11c3.37 5.48 5.83 10.4 7.45 13.62 2.68 5.1 1.78 5.25-.58 3.37-17.92-14.67-32.94-32.53-49.82-48.9-2.2-2.26-6.57-7.27-6.57-7.27.16.18-5.5-11.8-1.95-11.56 2.78 1.08 4.6 4.1 6.4 6.02 8.85 9.48 25.72 25.78 45.07 44.72m-156.37-39.1c7.4-.22 14.67 1.7 18.35 6.23 3.34 4.12 4.69 10.65 2.84 12.54-1.16 1.19-5.27-2.15-5.27-2.15-17.4-9.76-23.4-5.06-32.85-2.2-1.34.42-2.77-3.22-1.05-6.8 3.46-5.98 12.25-7.44 17.98-7.62m109.55 9.25c18.62 18.67 37.55 39.41 57.7 55.47 2.82 2.4 4.76 3.95 6.05 5.25 2.66 5.27 8.78 17.82 8.78 17.82-21.6-15.1-70.25-67.15-69.7-66.8.48.24-4.08-9.52-2.83-11.74m-36.45 3.1c3.4-.04 7.13 1.03 10.07 2.2 9.38 3.72 15.3 7.68 5.58 6.36-13.53-1.84-18.15-1.94-23.1-1.14-9.2 1.48-9.92 2.5-10.73 1.04-2.1-3.83 7.98-8.37 18.18-8.47m-76.76 1.1c3.39-.02 7.07.73 10.67 2.3 11.47 5.02 13.5 8.28 3.73 6.71-5.07-.81-14.37-.73-21.01.98-2.11.55-4.45 1.77-5 1.95-2.36.75-3-1.01-2-3.97 1.75-5.1 7.13-7.93 13.6-7.97m83.05 14.63 2.37.18c-2.96 16.75-19.7 15.12-24.2.73l2.37-.06c8.81 13.76 15.4 5.67 19.46-.85m9.32.87c7.73-.08 7.24 4.56-.82 7.68-6.17 2.38-6.87 1.95-4.61-2.67 2.17-4.44 1.96-4.97 5.43-5m-79.67.6c.76 15.1-20.27 17.86-21.57 1.4l2-.1c6.9 12.94 14.86 5.13 17.34-1.3zm9.36 2.06c2.38 1.62.9 3.86-4.27 7-4.66 2.91-5.86-.6-2.02-5.46 1.62-1.57 4.27-2.87 6.29-1.54m36.48-.02c.92-.3 3.1 3.79 1.24 4.77-1.1.58-2.74-1.1-2.92-2.33-.15-.97.47-2.06 1.68-2.44m62.98.94c14.04 15.46 28.16 30.99 69.5 64.64 0 0 5.83 10.39 7.1 14.45-1 1.23-1.53 1.1-4.42-.34-26.96-20.81-52.02-46.12-71.64-69.64-.93-3.32-3.01-6.52-.54-9.11m-133.82 1.54c1.6-.05 3.85 3.51 2.6 5.65-1.02.8-2.6-.44-3.3-1.42a4 4 0 0 1-.24-3.55q.39-.68.94-.68m139.69 21.42c-.11-.54 65.27 65.73 73.65 64.46 3.91 2.3 13.62 21.13 13.62 21.13.29.6.24 1.7-1.33.92-11.06-5.46-57.27-43.8-80.9-72.35-1.72-4.16-3.82-9.44-5.04-14.16m-77.72 9.73c11.4 5.5 6.5 16.8-5.54 9.62-9.48-5.77-17-6.29-16.95-1.3.03 2.1 2.61 4.81 5.11 4.78 4.7.3 8.94 2.02 13.55 3.03 7.18 1.54 12.56-.37 14.36-4.73 3.05-7.4-4.2-15.48-8.99-15.05s-3.58 2.72-1.54 3.65m90.28 18.11c-.8-.7 32.5 35.8 77.92 65.95 1.76 2.03 6.15 12.56 6.85 13.98-.18.99-1.18.02-1.18.02-22.93-13.26-53.2-39.55-81.89-69.4 0 0-2.76-6.6-3.6-10.91.62-.29 1.3.09 1.9.36m-75.66 13.14c-1.04.14-2.42 1.7-4.13 2.65-3.5 1.92-4.6 2.43-13.18-.14-4.65-1.4-5.41-1.3-8.2.76-2.42 1.8-3.77 2.1-6.49.88-4.87-2.19-7.14-.6-11.65.98-4.3 1.56-5.78-.34-9.66-1.22-.5 0-.73 15.62-.22 16.12.18.18 4.03-2.35 6.21-3.46 3.75-1.91 3.21-1.6 8.7-1.38 8.09 1.4 16.1.92 21.5-1.2 6.75-1.91 12.02-1.56 16.67 2.26 2.83 2.31 6.59 1.94 4.4-2.33-.76-1.47-2.48-6.9-2.27-8.91.31-3.02-.36-4.95-1.48-5q-.1-.02-.2 0m86.38 12.17c15.33 14.7 34.23 37.14 78.7 63.14 2.32 4.06 5.45 9.46 7.43 13.66.19 1.17-.1 2.2-1.24 1.8-27.48-17.41-42.75-25.87-80.85-63.41-2.37-3.81-4.9-10.29-6.85-15.57.41-1.49 2.18 0 2.8.38m-6.46 5.61 17 31.93-57.27-.12c14.56-8.67 28.45-20.24 40.27-31.81m-94.94.72c-9.4 3.74-10.82 4.52-20.15 2.24-5.43-1.32-3.94 1.83-1.16 3.13 7.04 3.3 17.23.97 21.01-1.63 2.5-1.6 4.2-5.29.3-3.74m-9.65 9.86c-9.85.13-19.14 3.57-19.84 7.57-.13.77.68 1.64 2.2.72 6.68-4.02 23.25-5.33 35.79-.8 2.03.73 2.38-.53.28-2.26-4.7-3.88-11.7-5.33-18.43-5.23m125 13.64c18.54 17.1 36.43 32.85 76.32 55.75 2.88 6.27 7.03 13.76 7.77 14.41-37.4-18.14-78.15-53.96-78.15-53.96s-6.42-11.43-7.89-16.32c-.13-1.65 1.42-.3 1.95.12m12.77 26.65s34.13 28.87 73.05 48.47c1.57 1.51 5.5 10.8 6.77 11.8 1.29 1-1.55 1-4.35-.44-20.36-9.38-64.04-39.4-64.04-39.4-4.2-6.87-10.19-14.02-11.43-20.43M229.72 477.5c3.12-6.68 6.3-14.1 8.37-20.16 9.3.1 13.86-3.4 17.16-7.59 4.7-.12 8.3-.1 14.72-.3-.21-6.33.08-15.3.08-15.3 6.5-6.7 10.9-14.43.83-26.26 0 0-.4-5.52-.55-14.92-4.65-.74-15.06-.26-15.06-.26-8.42-11.85-23.36-8.86-27.88 0 0 0-6.71.36-11.32.38-.1 2.5-.89 13.61-.89 13.61s-19.63 13.39.74 29.16l-.28 13.26c3.81.3 6.54.05 11.52 1 0 0-7.8 18.1-12.91 26.68-1.76.46-1.34-.55-3.46-6.55-2.54-7.07-8.3-14.8-13.2-18.6-6.62-5.12-15.69-6.7-22.01-11.14-6.1-4.28-10.4-9.8-12.34-8.78-.63 2.15-1.33 14.5.96 22.44 3.23 13.05 22.02 21.37 37.7 27.62 1.2.78 2.28 1.96 2.28 2.39.03 2.16-2.06 1.49-7.2.98-7.78-.78-11 1.35-13.73 7.99a40 40 0 0 1-4.32 6.33c-1.58 1.87-3.22 3.7-3.45 4.49-.23.8-1.85 4.82-3.44 8.19-1 2.07-2.63 4.25-2.75 7.31-.37 9.36-.5 21.93.9 29.85 1.03 5.82 8.38 9.16 10.92 9.63 3.89.73 4.6 4.67 3.98 7.9-3 15.9-12.15 25.64-15.08 20.41-.77-1.37-1.59-7.87-1.8-7.8-.14.06-1.54 5.53-1 7.76.57 2.4 3.63 4.16 6.65 3.06 4.47-1.62 8-6.05 10.77-16.14 1.14-4.13 2.22-6.43 4.15-6.73 3.54.24 9.06 7.53 9.06 7.53-18.37 15.3-53.73 43.1-53.73 43.1l-1.32-501.43 291.05.56c1.62 39.75-3.2 73.2-17.48 108.61-16.91 38.15-43.16 66.5-63.25 101.6-24.25 42.4-32.02 86.37-23.76 130.6-24.78 32.43-45.65 48-65.47 63.07 0 0-14.86-15.62-23.12-24.36 0 0 3.48-.3 7.56-.46 18.82-2.1 39.2-4.78 47.07-24.37 1.12-2.18.65-3.15-.68-3.45-14.75 2.04-27.55-.03-35.91.56-20.44 1.45-29.08 8.53-29.08 8.53m2.24 14.43s-23.66-11.24-25.41-11.56c-10.32-1.87-35.18-14.83-39.39-23.64-.54-1.15-1.92-17.22-2.35-20.51.14-1.05.57-1.01 1.6-.26 2.65 1.83 12.96 8.55 16.76 10.4 15.71 7.63 21.8 13.07 25.64 24.55.97 2.88 1.98 5.88 2.55 6.5 1.25 1.35 1.78 1.24 3.36.03 6.73-8.7 9.89-15.96 13-25.32.4-1.04 1.28-2.1.76-3.61-1.23-4.13-4.24-9.48-1.16-13.52-9.84.45-19.26-6.74-18.06-13.95 2.62-13.35 8.29-10.95 18.9-12.9-1.22-30.87 27.68-23.37 27.6-1.86 31.76 2.67 16.76 32.03-1.69 27.54 7.32 16.69-14.66 22.95-17.75 20.1-1.24 5.4-9.6 22.76-11.39 27.92 23.53-16.67 61.39-9.27 66.87-10.34-13.67 28.58-58.36 21.63-59.84 20.43M655.6 386.68c5.98 4.6 56.64 36.28 66 37 0 0 4.47 5.02 8.16 9.6 3.45 4.25 4.72 4.92 5.11 5.78s-1.3.82-1.58.78c-22.8-9.9-45.98-20.33-65.69-36.8-2.66-2.25-3.25-3.28-4.57-5-1.73-2.3-6.88-10.5-7.43-11.36m16.8 25.56c23.17 13.02 42.86 25.64 63.97 32.43 3.02 1.13 4.55 1.2 6.05 2.27 1.5 1.05 7.94 5.03 9.46 5.93 9.63 5.65 10.62 5.38 8.23 6.33-2.65 1.04-19.56-3.9-33.85-9.18-25.35-9.37-34.32-14.69-43.49-22.96-2.07-2.13-11.7-13.65-10.38-14.82m-461.94 72.62c1.96-.05 5.08 1.17 8.34 3.66 3.48 2.67 12.03 8.26 15.57 9.78 1.8.77 2.36.97 2.36.97l22.79 25.87-58.67 47.69s-4.76-4.87-6.28-6.5c-1.43-1.54-1.02-2.83.77-4.57 1.44-1.4 1.55-4.44 1.3-5.93-.36-2.21-.3-4.7 2.5-6.77a6.6 6.6 0 0 0 2.5-5.39c-.08-.65 1.23-2.78 3.2-4.2 4.12-3.01 5.35-6.66 3.96-10.96-.58-1.8-.9-2.28 1.46-3.85 4.2-2.8 5.23-5.43 5.55-9.51.06-.65-.12-1.34-.22-1.85-.83-4.34 3-3.24 6.15 2.2 1.72 2.97 2.2 7.84 3.07 13.39 1.01 6.53 1.7 8.31 2.06 7.39 2.03-5.27-.36-25.08-6.39-27.77-8.8-3.92-16.17-11.94-13.96-15.08.76-1.1.9-.72 6.27 1.76 3.14 1.45 6.05 2.63 6.49 2.65 6.21.2 2.45-2.47.42-2.75-2.43-.33-9.7-4.76-10.56-6.3-1.41-2.59-.63-3.89 1.32-3.93m-15 3.4c5.73-.06 6.84 1.47 6.9 6.41.03 2.91 1.12 5.16 5.68 10.96 1.86 2.37 3.1 4.18 2.99 5.1-.2 1.54-.76-.05-7.07-.8-2.25-.26-3.39-.3-4.17.87-2.18 3.22-6.78-.14-9.62-4.9-6.75-11.32-4.37-17.53 5.3-17.64m109.22 6.83 62.37 76.34-7.04 5.46-62.6-75.3zm-10.43 4.69 6.68 11.28s-19.32 16.51-24.4 21.17c-41.07 33.25-133.76 108.73-133.76 108.73l-1.25-15.18zm-112.58 2.04c1.22.03 2.6 1.58 4.58 4.6 1.72 2.6 5.39 7.84 9.3 11.45 7.6 7 8.34 6.37 2.17 7.03-2.46.26-3.25-.03-4.75 3.7-4.53 5.65-17.9-14.57-14.77-22.31 1.23-3.02 2.25-4.5 3.47-4.47m21.75 10.92c1.13-.05 2.62.37 4.35 1.42 3.31 1.36 3.53 2.15 2.98 5.31-.52 3.03-2.82 3.8-7.35-.18-3.43-3.24-2.86-6.41.02-6.55m99.55 1.87 7.33 9.46-166.33 134.51.03-15.48c4.06.52 110.72-92.16 158.97-128.5m-129 1.55c.45-.1 1.14 1.43 2.99 4.2 3.75 5.65 7.2 9.38 11.14 12.34 3.72 2.8 4.13 4.37 1.58 4.39-1.09 0-2.58 1.16-3.36 2.5-1.58 2.71-1.71 2.07-4.15.65-3.48-2.04-6.96-5.11-8.35-9.14-1.32-3.8-1.46-9.57-.39-13.78.2-.74.34-1.12.55-1.16m26.26 10.73a5.5 5.5 0 0 1 4.49 8.78c-1.57 1.52-2.97 2.25-6.07.42-4.1-2.42-4.84-6.13-1.48-8.22a6 6 0 0 1 3.06-.98m-27.29 10.68c.9-.04 2.5 1.24 5.2 4 2.06 2.13 5.65 3.93 7.08 4.73 3.23 1.8 3.38 2.43 1.63 3.87-.75.62-3.2.66-3.87 2.6-1.9 5.58-9.99-.9-10.76-8.87-.39-4.05-.43-6.28.72-6.33m20.32.66c5.3.22 7.81 6.41 3.59 9.46-2.31 1.65-8.12-1.27-8.7-4.31-.38-1.96 3.1-5.23 5.1-5.15m124.04 4.6a5.56 5.56 0 1 1 0 11.13 5.56 5.56 0 0 1 0-11.13m-16.64 2.3a5.56 5.56 0 1 1 0 11.14 5.57 5.57 0 1 1 0-11.13m-111.56 7.43q.51-.02 1.06 0c5.11.25 5.38 5.12 2.34 7.74-1.81 1.56-3.45 2.05-5.8.18-4.2-3.36-2.65-7.63 2.4-7.92m123.95 8.15a5.57 5.57 0 1 1 0 11.14c-3.07 0-5.59-2.5-5.59-5.57s2.52-5.57 5.6-5.57m488.92.33.26 14.08-196.67 163.6-6.66-8.69zm-500.23 1.2-14.54 32.65-4.37-8.42h-10.87l3.33-9.74-6.4-7.79zm309.5 135.8 25.89-20.75c-11.15-56.2 33.32-78.57 75.56-62.24l26.28-22.4c-48.77-41.06-163.42-13.2-127.73 105.4M261.13 588.18a5.57 5.57 0 1 1 0 11.14 5.57 5.57 0 0 1-5.57-5.57 5.57 5.57 0 0 1 5.57-5.57m-16.9 1.36c3.07 0 5.39 2.32 5.39 5.4s-2.32 5.76-5.4 5.76-5.56-2.51-5.56-5.6a5.57 5.57 0 0 1 5.57-5.56m89.98 11.3-25.66 20.55c6.63 53.82-19.55 81.23-75.84 62.78l-27.22 21.59c73.54 50.59 169.79-14.62 128.72-104.91m-78.97 4.86a5.57 5.57 0 1 1 0 11.13 5.56 5.56 0 1 1 0-11.13m539.75 1.4a5.58 5.58 0 1 1-5.57 5.57c0-3.07 2.5-5.56 5.57-5.56m-551.27 1.33-16.4 32.45-4.1-9.77-11 .15 3.55-11.33-6.88-5.82zm529.24 3.42 5.1 8.58 10.76.26-4.05 8.17 7.78 8.02-35.09 8.62zm-568.38 23.56a5.6 5.6 0 0 1 5.59 5.57 5.6 5.6 0 0 1-5.59 5.57 5.57 5.57 0 1 1 0-11.14m-16.03.62a5.6 5.6 0 0 1 5.6 5.57 5.6 5.6 0 0 1-5.6 5.57 5.57 5.57 0 1 1 0-11.14m557.28 3.31a5.56 5.56 0 0 1 5.56 5.57 5.56 5.56 0 0 1-5.56 5.57 5.56 5.56 0 0 1-5.57-5.57 5.57 5.57 0 0 1 5.57-5.57m56.33.86.24 12.37c-51.3 45.3-159.22 132.71-159.22 132.71l-6.72-8.63s109.78-89.7 165.7-136.45M199.71 652.3a5.57 5.57 0 0 1 5.57 5.57 5.58 5.58 0 0 1-11.14 0 5.56 5.56 0 0 1 5.57-5.57m557.52 1.33a5.59 5.59 0 0 1 0 11.16 5.59 5.59 0 0 1 0-11.16m-15.77 1a5.57 5.57 0 1 1 0 11.14 5.57 5.57 0 0 1 0-11.13m62.25 1.97-.47 15.74C753.52 714.74 651.8 798.94 652.17 799l-7.68-10.6s111.49-96.05 159.23-131.8m-614.22-2.3-15.34 34.6-6.62-9.32-9.69-.65 2.31-9.37-8.89-6.04zm531.95 13.67 9.8-1.87-1.71 10.03 6.88 7.23-36.08 7.93 17.44-32.35zm53.9 168.6c7.32 10.95 6.86 22.9 3.8 24.73-3.23-1.82-6.04-4.97-9.38-6.41-16.8-7.25-30.23-13.2-32.63-23.87-9.15-24.13 32.12-3.55 38.22 5.55M687 772.48l56.55-46.04s8.68 4.46 10.32 6.5c.58 2.23-.98 2.91-3.3 5-1.05 1.35-1.71 2.66-1.77 5.6-.07 3.15.98 4.57-.3 5.96-2.13-.1-3.83 2.67-3.74 4.92.07 1.73-2.18 3.63-3.5 4.93-2.34 2.3-3.03 2.78-4.53 10.57-.15.78-.1 2.8-1.2 3.86-3.27.3-5.64 8.3-7.13 8.8-2.39-.15-6.18-3.07-7.1-7.37-.6-2.8-.44-8.25.22-11.75.79-4.17 1.14-7.95.88-8.96-.61-2.32-2.14-.89-2.12 2.37 0 1.32-.5 5.3-1.34 9.03-.85 3.75-3.13 8.73-2.1 11.69 1.53 4.4 7.17 6.27 9.72 8.6 6.7 6.14 8.15 9.14 8.92 10.5 5.35 9.8 5.37 11.46 4.02 18.82-.77 4.24-4.9 3.52-7.38 1.8 0 0-15.9-11.58-22.83-17.32-10.48-8.71-17.85-17.61-22.29-27.5m21.46 31.64c6.07 2.45 21.86 13.9 21.86 13.9l-14.39 29.94c2.62 4.68 3.67 16.32 3.67 16.32 18.2-1.4 28.06 29.27-.28 26.44 3.23 18.96-27.3 33.81-26.47-.16-31.8 2.47-21.12-33.56-1.52-26.8-.6-15.26 9.59-17.24 16.77-21 5.89-6.65 9.5-21.73 9.5-21.73l-1.44-4.6c-6.03 10.54-31.71 13.57-59.93 7.98 7.64-18.1 30.82-17.6 52.23-20.3m-56.12 22.78c-.96 3.61-.99 3.57 3.36 3.13 2.2-.22 11.05-.2 17.23.04 11.35.89 29.23.96 38.19-5.86 1.73-1.66 2.69-1.55 3.01-.65.77 4.42-7.94 18.93-7.94 18.93l-14.37 7.95s-5.88.27-13.17.1l-.13 12.92c-5.7 3.37-15.5 17.84.24 28.94l-.51 14.07 13.87.25c9.22 8.82 16.72 8.79 25.18.48l16 .01-.06-15.2c7.88-6.34 9-17.1.94-25.7l-.2-15.44-12.31.08s-2.55-1.97-2.62-3.54c-.01-1.01 8.99-18.35 10.71-20.83 2.24-3.22 1.63-1.37 5.22 6.05 5.12 10.64 10.19 14.97 23.18 21.25 11.6 5.6 15.73 8.22 19.1 11.43 2.66 2.56 4.25 1.75 5.28-2.06 2.24-8.48 1.54-16.97-3.12-24.73-9.86-16.39-27.03-17.14-29.76-20.94-.36-.9 3.14-1.94 6.9-3.62 6.5-3.95 16-15.9 17.23-20.69-.22-2.3 1.3-9.59 2.43-11.2 1.3-2.86 1.44-4.2 1.38-11.88-1.16-4.38-.1-10.1.44-12.06.59-3.98-1.53-8.68-4.54-14.45-1.13-5.35-.86-3.96 2.6-16.02.57-1.95 4.46-18.76-.52-19.9.06.14.52.66.66.93.84 1.69 1.3 8.94.54 11-.3.82-.87 2.92-1.27 4.69-3.01 13.5-4.8 16.89-7.53 13.93-.65-.7-3.14-1.7-5.06-2.98-3.63-2.4-3.32-3.58-2.42-8.09.21-.68 1.65-6.87 1.5-6.69-.79 2.13-1.31 7.62-3.8 8.92-1.32.3-3.15-.87-6.6-3.85-1.32-1.14-4.14-3.12-4.14-3.12s40.87-34.4 56.07-45.8l-.14 509.51-288.9.13c-3.62-31.56 5.87-73.32 21.58-115.14 9.72-25.85 23.67-45.02 39.4-68.16 30.17-44.12 52.98-88.92 44.19-145.71-1.16-8.43-2.31-12.46-1.92-14.73 3.67-6.88 18.21-27.73 28.84-36.42 15.6-12.74 37.3-31.78 39.04-30.65 5.18 10 11.32 18.09 19.44 24.19 1.43 1.54 1.46 2.9-1.83 3.6-21.54-.2-43.7 4.54-50.9 23.58M150.66 682.15a5.57 5.57 0 0 1 0 11.14 5.56 5.56 0 1 1 0-11.14m540.1 1.26a5.57 5.57 0 1 1 0 11.14 5.57 5.57 0 0 1 0-11.14m12.14 15.28a5.56 5.56 0 1 1 0 11.12 5.56 5.56 0 0 1 0-11.12m-18.03 2.37a5.57 5.57 0 1 1 0 11.14 5.57 5.57 0 0 1 0-11.14m-19.9 12.7 10.07-.5c-1.26 3.61-1.94 7.35-2.66 11.1l8.2 6.02-35.48 6.04 15.3-31.45zm-24.2 91.69L581 728.3l7.2-5.84 60.24 76.32zm-7.3-74.96a5.57 5.57 0 0 1 5.57 5.57 5.56 5.56 0 0 1-11.14 0 5.57 5.57 0 0 1 5.57-5.57m125.5 8.64c4.85 3.77 0 9.05-4.63 6.97-4.02-1.7-3.71-5.77-.55-7.4 1.98-.94 3.48-.71 5.18.43m6.45 3.6c4.97.07 10.46 11.85 9.45 15.32-1.48 4.02-2.84 4.16-9.85-1.77-6.93-5.86-7.03-6.1-4.23-9.27 1.55-1.8 2.3-4.18 4.63-4.29m-118.19 2.15a5.57 5.57 0 0 1 5.56 5.57 5.58 5.58 0 1 1-11.13 0 5.57 5.57 0 0 1 5.57-5.57m-17.27 2.14a5.57 5.57 0 1 1 0 11.14 5.57 5.57 0 1 1 0-11.14M752.27 751c5.5.81 6.94 4.96 4.41 8.05-3.44 4.18-11.14.38-9.31-4.6a5.2 5.2 0 0 1 4.9-3.45m9.87 6.27c2.14-.19 5.39 2.79 8.93 7.72 3.99 5.55 4.32 7.33 3.18 10.72-1.64 4.93-2.67 5.83-6.25 1.02-1.35-1.8-4.49-6.05-6.72-8.4-4.77-5-5.52-3.72-2.67-7.54 1.32-1.77 2.23-3.41 3.53-3.52m-12.93 5.82c4.94 2.55 5.41 5.87 2.5 8.22-3.44 1.88-9.5-.35-10.67-3.75-1.72-4.97 3.55-7.5 8.17-4.47m8.37 7.34c2.8-.17 5.1 2.71 8.5 8.23 5.82 9.39 6.14 12.55 1.18 18.74-3.57 4.46-3.93 4.7-7.42-2.4a55 55 0 0 0-13.3-16.67c-2.1-1.7-2.83-4.09-1.32-4.25.44-.04 2.3-.13 4.13-.2 2.68-.1 3.65-.46 5.13-1.9a5 5 0 0 1 3.1-1.55m-20.05 7.34c2.6-.13 5.96 1.28 8.45 4.18 2.83 2.98 2.5 5.7-3.06 6.25-2.5.98-9.32-3.5-9.36-6.5-.02-2.51 1.68-3.82 3.97-3.93m13.1 10.88h.41c2.33.12 3.54 2.37 6.17 7.64 4.02 8.09 2.86 12.48-4.1 16.06-4.73 2.43-8.33 3.16-8.94.38-.18-.8-.18-3.14-.57-5.4a24 24 0 0 0-3.88-10.17c-4.26-6.41-5.01-8.7-.34-6.8 2.47 1 5.16.88 8-.6a8 8 0 0 1 3.26-1.1m-23.62 13c-1.62-.03-2.66.96-2.22 3.6 1.46.72 3.8.05 5.54.69 2.37.85 3.83 4.69 6.35 4.06.27-3.24-6.1-8.28-9.67-8.35m-482.14 56.37c-13.02-6.2-45.27-20.55-60.8-20.76-28.81-8.09-30.75-4.41-40.85-7 53.47-13.87 90.28 12.8 103.75 25.75 6.12 6.1 2.8 4.34-2.1 2.01m34.05 126.06c30.6 53.07 59.12 112.95 106.96 201.59l-4.6 1.44-182.45.32c9.03-97.93-43.89-191.24-47.47-187.58 41.33.76 75.64-7.22 82.88-22.44l-5.89-1.7c-24.05 20.77-58.9 21.72-82.94 15.3.55-51.02-2.32-104.92-.74-155.93 28.43-2.12 50.64 8.3 66.4 29.07 26.47 34.9 44.43 79.3 67.85 119.93m-83.68-141.4c7.32-.55 47.26 15.88 65.12 28.15 4.97 5.13 12.22 14.05 12.22 14.93.03 2.37-3.5-.56-20.75-10.4-13.06-7.35-26.6-13.2-39.8-18.84l-1.81-.77s-.98-1.13-2.65-2.42c-4.7-3.64-13.83-10.09-12.33-10.64m19.42 18.6c-.4-.07 39.6 14.42 71.44 39.77 4.23 3.37 9.43 15.95 9.43 15.95-2.85-5.35-53.12-35.43-70.77-42.32zm14.1 19.24c2.18-1.3 60.7 33.23 69.26 42.14 3.9 2.98 13 17.41 13.02 20.32.04 2.58-2.81.35-8.05-4.49-26.94-25.16-65.87-44.12-66.18-43.7zm10.86 20.07c27.47 11.62 61.98 39.57 79.4 56.2 4.36 4.32 7.47 10.56 8.05 13.47.37 1.8-.54 1.68-.9 2.65-22.57-25.91-72.18-55.48-78.76-57.8.05 1.64-5.46-10.04-7.79-14.52m91.22 80.73c3.16 3.22 8.17 14.52 7.05 15.9-.55.68-.5.33-1.82-.6-7.23-7.18-44.33-40.1-75.28-58.57-2.91-1.45-12.66-16.82-10.6-17.12 16.19 5.28 62.48 42.23 80.65 60.39M263.9 944.6c.54.04 1.5.72 3.17 1.64 28.46 15.7 69.73 55.24 77.55 64.75 1.79 2.93 4.58 8.3 4.38 11.6-.36 2.58-1.4.38-12.9-10.95-18.5-18.1-39.78-35.63-62.32-50.35-4.33-2.99-3.5-3.36-6.65-8.84-3.16-5.5-4.4-7.93-3.23-7.85m182.07.6c20.33.58 28.28 15.97 40.8 44.33 10.24 27.95 14.49 53.56 14.96 73.94.03 1.37-2.46.21-3.59-.1-5.44-1.46-12.22-2.83-20.07-.84-5.77 1.45-11.25 1.29-5.33-2.58 1.91-1.25 7.08-6.05 9.84-7.76 5.58-3.47 2.18-3.42-3.35-.7-4.18 2.07-6.98 4.67-8.7 5.09-1.08.26-.41-3.26.6-5.77 5.92-14.54 7.71-23.15-1.09-25.85-2.38-.72-5.6-2.93-7.12-4.4-1.2-1.18-2.24-5.88-2.62-6.07-.4-.2-.69 4.29-.68 4.97.03 2.34 3.02 7.07 6.63 9.65 6.12 4.39 7.34 5.61 4 16.01-4.65 14.57-5.65 18.13-6.5 21.51-.5 1.95-1.45 5.25-1.93 7.4-1.84 8.26-1.62 15.47-1.28 22.33 2.01 15.33 18.55 22.9 40.73 14.39 2.1-.82 2.98-.09 2.98-.09-17.68 17.98-37.52 29.47-49.07 65.78-14.87-29.96-35.93-53.43-70.93-62.84l-.52-6.26c12.2 5.85 35.88 13.82 50.9 4.87 8.05-5.5 5.6-9.04-4.16-5.25-11.62 4.51-32.62 3.98-43.1-1.92-2.14-1.21-4.32-.16-4.93.03-.55-3.52-5.6-16.78-4.85-21.78-.43-.7 3.19-.73 3.89.2 2.9 3.87 17.63 15.4 32.93 14.51 7.6-.45 13.86-2.77 20.47-9.74.55-.49 3.24-.84 3.6-1.25.6-.67.18-1.65.15-2.01-.17-.53-1.15-1.98-1.8-3.62a6.5 6.5 0 0 1-.88-4.08c.01-.96.65-1.46 1.15-2.14.57-1.28.4-2.91.1-3.78a2.3 2.3 0 0 1-.47-3.42c2.07-2.34-17.82-20.5-21.71-20.46-1.41.02-.58 2.61 2.28 4.51 10.1 6.72 17.47 15.48 15.8 16.63-1.28.88-5.82-1.05-10.42-2.14-9.25-2.17-20.36-3.55-32.4 5.14-4.51 3.7-16.42 4.26-16.42 4.26-.16-6.49-27.58-78.95-27.63-75.81 9.97-11.62 41.32-39.17 72.73-51.03 9.67-3.17 20.04-4.8 27.01-3.86m-119.1 16.22 57.03.88c-14.34 7.22-40.38 33.1-40.38 33.1-7.46-15-9.73-22.47-16.65-33.98m-49.28 7.52c4.25.03 49.5 36.9 55.95 45.62.77 1.04 5.35 5.88 10.19 10.73 11.7 11.73 16.53 18.52 16.59 23.35.02 2.29-2.07.81-5.2-2.64-23.43-26.04-38.69-40.18-67.66-60.16-3.29-1.75-13.5-15.35-10.03-16.86zm154.81 6.79c-1.27-.05-1.06 1.18-.37 2.3 7.18 6.35 26.15 6.08 32.68.94 5.93-4.65-1.84-2.2-4.26-1.16-5.67 2.43-11.75 2.15-19.63.06-4.6-1.22-7.14-2.1-8.42-2.14m17.49 10.34c-6.63.05-13.57 2.05-12.02 4.48.56.9 2.38 2.56 6.7.2 6.27-3.1 19.13.96 19.5 1.07 1.32.34-4.27-3.68-6.15-4.5-2.06-.93-5.01-1.28-8.03-1.25m-159.78 6.89c24.32 14.88 53.94 44.66 71.73 65.92 2.96 3.66 5.1 8.17 5.12 10.82.05 3.82-.77 1.7-16.92-14.66-12.67-12.97-31.79-30.61-44.45-40.11-7.6-5.54-8.96-6.26-12.54-12.84-3.36-6.17-4.57-9.23-2.94-9.13m151.53 4.97c-4.57 2.17-10.64 1.7-16.55-.32-5.35-1.84-4.1-.27-2.06 5.56a35 35 0 0 1 1.5 6.97c.02 1.3.01 1.4 3.79-.71 3.29-1.84 3.98-2.48 10.99-.85 7.14 1.66 7.25 1.05 10.6-.7 2.92-1.52 3.52-2.43 5.52-1.63 3.91 1.57 8.34 2.25 13.35-.39 3.84-2.02 5.1-.66 6.87.24 2.42 1.21 3.35.44 2.4-1.97a34 34 0 0 1-1.1-6.36c-.04-2.47-.64-4.7-1.68-4.17-3.83 1.92-6.95 3.97-10.6 3.91-6.71-.12-12.6-4.15-23.03.42m-296.4 5.07c60.62 75.52 49.9 184.4 47.89 183.52l-47.52.2zm157.73 15.26c24.21 16.98 53.03 46.58 69 67.04 2.73 3.54.51 4.65 1.87 8.92.5 1.58-2.18-.76-9.88-9.02-9.58-10.29-25.34-25.77-35.71-34.75-11.37-9.84-14.65-12.32-17.07-15.64-1.91-2.79-9.7-16.16-8.2-16.55m136.27 6.95a6 6 0 0 0-.76.02c-8.62.4-13 10.06-5.6 16.89 2.77 2.56 7.18 4.08 7.16 2.7 0-.33-1.4-1.72-2.36-2.46-6.16-4.73-5.53-12.11 1.48-12.18 2.43-.03 2.58.84 8.2 4.86 6.6 4.75 14.39 4.75 14.3-.02-.07-3.5-1.38-7.08-7.28-6.5-1.55.14-3.61.31-5.43-.14-1.73-.45-3.21-1.5-3.9-1.81a15 15 0 0 0-5.81-1.36m-120.54 22.24c18.52 12.43 43.99 40.55 57 57.14 2.98 3.89 3.18 8.19 1.97 10.5-.28.46-2.56-.96-2.56-.96-15.05-17.72-32.11-33.82-48.86-50.18 0 0-9.95-16-7.55-16.5m179.59 26.9-4 1.99c-6.07-9.09-11.61-9.22-16.26 1.4l-2.98-.75c-2.22-2.45 7.99-25.54 23.24-2.64m-.9-7.76c1.67.06 4.59.97 5.27 2.67.76 1.57-.1 3.35-2.39 3.26-.34-.01-2.55-2.72-3.66-4.39-.81-1.01-.46-1.57.78-1.54m-68.03 11.12-4.48.21c-8.53-11.21-14.91-3.68-18.73.99l-4.8-.64c.76-12.32 22.53-16.61 28-.56m43.58-9.57a6 6 0 0 1 1.97.38c-1.77 2.68-2.07 4.91-2.47 7.34-1.74.71-4.22 2.22-6.07.3-3.43-3.12 1.85-8.1 6.57-8.02m-69.96 1.26c2.1.01 1.48-.13.55 1.05a21 21 0 0 0-2.87 5.23c-.28 1.32-.5 1.8-1.74 1.85-2.37.07-7.17-.77-7.13-.74-1.83-1.72 5.71-7.2 11.19-7.39m27.1 1.56c1.4-.16 1.07 1.86.62 2.65-.9 1.05-1.25 1.39-1.75.08a6 6 0 0 0-.9-1.51c-.7-.89-.63-.94.23-1.09a18 18 0 0 1 1.8-.13m73.2 8.95c5.2-.13 1.72 8.72-5.54 10.86-8.01 4.07-17.2 3.09-26.56-2.24-5.34-3.04-6.95-6.24-2.3-4.97 17.51 4.83 21.77 3.93 32.33-2.9.64-.54 1.3-.67 2.06-.75M334.73 1078c17.45 14.77 30.57 31.51 44.52 46.93 2.78 3.43 4.08 6.75 3.54 8.99-.67 2.79-6.39-3.87-6.39-3.87.15.07-34.04-36.42-34.04-36.42s-8.68-15.55-7.63-15.63m52.12 5.1c1.21.04 3.61.6 7.5 1.6 16.77 5.09 21.85 4.9 31.49.48 6.14-2.82 8.68-2.42 6.05 1.82-4.84 7.81-21.93 8.67-34.77 4.31-3.4-1.15-6.38-3.17-9.65-5.63-1.76-1.82-2.18-2.63-.62-2.58m77.36 5.17c1-.06 2.88 1.09 5.16 2.38 14.05 7.97 24.42 6.51 33.08 1.17 1.57-1.43 2.42-.75 2.62.64.74 4.85.96 8.34-1.26 10.67-1.29 1.36-3.48 1.98-6.79 3.09-13.6 4.57-30.16 1.3-33.33-8.9-1.03-5.25-1.69-8.91.52-9.05m-111.5 21.89h.15c.99.15 3.26 2.14 6.84 6.2 18.7 21.21 29.05 33.4 27.16 39.54-.18 0-.3 1.32-1.08.64-10.29-8.88-18.69-18.6-24.94-28.75-6.86-11.13-9.68-17.49-8.14-17.63m150.8 14.93c-15.8 12.07-34.94 40.8-36.65 54.95-.33 2.7-.05 4.73-1.05 5.71-.8.77-2.57.84-4.96.38-1.47-.27-1.12-.44-1.47-2.09-1.35-6.47 4.85-22.77 17.69-41.99 6.74-10.07 22.05-23.69 26.31-23.78 2.86 1.18.09 6.95.13 6.82m-116.88-6.55c1.11-.04 2.84.55 5.25 1.58 14.16 6.07 19.45 8.29 28.62 15.77 17.09 13.93 36.09 47.02 30.51 50.11q-3.68 2.04-5.18-2.57a78 78 0 0 0-4.11-9.13c-11.46-21.05-26.36-35.53-47.36-45.76-7.76-3.79-8.55-3.37-9.14-6.54-.44-2.37-.02-3.42 1.4-3.46m116.66 12.15c1.41-.11 1.75 2.48 1.27 7.69-.39 4.25-.65 4.16-5.38 9.14-7.57 6.14-16.53 20.53-20.68 35.2a3.5 3.5 0 0 1-1.1 2.24c-1.95 1.68-4.4.86-6.09.83-1.2-.65-.87-3.3-.66-4.79 3.47-13.32 12-29.67 25.36-44.04 3.76-4.03 6.02-6.16 7.28-6.27m-113.71.39c7.5-.18 34.17 19.74 44.96 37.18 7.05 11.39 8.95 16.06 7.33 17.72-.86.88-4.65 1.02-6.64.25-1.8-.71-2.49-3.46-5.86-9.8-8.82-16.55-21.5-28.54-35.24-34.88-2.56-1.17-3.93-1.92-4.75-2.84-.92-1.89-2.1-7.23.2-7.63m4.05 14.8c2.33.44 8.78 4.62 14.16 8.57 9.53 6.99 24.03 28.37 21.03 31.44-.96.98-4.28 1.02-6 .34-10.2-18.16-23.44-26.8-28.82-31.85-1.63-2.74-5.44-9.2-.37-8.5m-21.2 3.21c.45-.11 2.23 1.64 5.47 5.04 9.58 10.06 15.66 21.2 14.24 26.83-1.18 4.75-2.58 2.15-13.53-18.75-4.62-8.8-6.82-12.96-6.18-13.12m131 .28c.21 5.78-.25 7.2-.87 10.27-.42 2.09-1.8 3.06-3.1 4.69-3.26 4.06-6.96 11.06-8.82 16.72-1.56 4.58-.82 5.67-6.44 5.06-2.63-.34-2-1.06-.97-4.07 3.54-9.91 12.04-25.96 20.2-32.67m-108.82 10.9c.11-2.97 25.68 22.77 22.17 25.66-3.33.59-5.3.71-6.7-.48-2.73-6.12-14.91-17.74-14.91-17.74zm107.4 8.11q.08-.02.15 0c1.14.23.52 16.06-.44 17.37-1.82.91-5.27 1-7.1 0-1.14-.61-1.48-1.74-1.05-2.97 1.06-3.07 6.6-14.03 8.43-14.4m-96.5 17.41c-.81 1.25-5.78 1.48-7.66.05-.6-.45-1.19-8.3-.5-9.72 1.91-1.24 8.79 7.97 8.16 9.67"/><path d="M73.62 46.56c-19.88.39-29.74 17.02-29.84 33.68l.02 43.7H31.93v14.5H43.8s.2 6.64.17 10.6c-.16 19.64 6.77 31.55 20.31 34.84 13 2.37 19.77-.43 29.65-5.55 3.59 1.5 6.1 4.58 9.95 4.96 4.25.43 13.1.23 13.1.23l-.24-14.88-4.42-.65c-8.47-.14-12.14-3.1-11.22-8.4 1.8-3.44 2.05-5.95 2.22-10.11V75.56c-.26-18.12-15.07-28.84-29.7-29m-.63 14.4c9.5-.14 17.38 10.9 17.17 22.22l.15 57.1c.31 3.6-.27 7.1-1.85 9.57-1.24-3.65-20.87-23.7-30.69-22.78 0 0-.4 1.02-.68-24.08-.12-12.32-3.36-30.71 7.71-39.02 2.77-2.04 5.54-2.96 8.2-3m514.36 49.48 3.2 4.2-18.73.1c3.07 2.59 72.46 142.24 161.2 303.59 14.7 28.31 42.7 38.52 75.24 39.76L722.1 319.32c9.18-5 27.4-18.39 38.43-15.9.68 3.38 3.95 2.04 4-.97l3.99.08 1.4 2.18h16.75l1.36-1.97 14.44 2.07c-38.58-47.55-58.93-120.83-52.32-192.36l-127.95.28-1.7-2.24zm-15.53 4.3c-.07-.06-.12-.09-.12 0zm-147.1 93.09c-14.54 46.97-50.5 85.62-71.86 124.54-22.9 42.46-28.29 79.41-21.84 119.83l4.19.36C384.03 386 421.83 306.43 442.99 228.2c.46-1.7-.33-4.71.05-6.44-.9-2.07-.1-4.3.47-4.9 1.23-1.3.77-6.38-.15-14.77-2.3-24.93-1.84-44.5.24-67.1 1.6-17.34 1.51-20.07 1.51-20.07l-8.35-.13c1.54 29.53-2.36 65.92-12.02 93.05m200.94-91.04 13.73.28c2.11 41.96 37.46 47.42 42.92 46.8-9.02 28.38 5.92 59.52 41.9 63.94-8.26 26.31 6.34 61 35.12 60.05l3.05 1.92c-1.86 3.79-2.25 11.58-2.15 11.7-6.4.47-9.86 1.4-14.02 2.22-37.2-56.08-120.55-186.91-120.55-186.91m122.04 0c-4.16 46.87 5.24 111.25 27.26 149.3 0 0-.7 2.54-1.17 3.24-2.1 3.16-3.13.42-4.4-2.12-4.7-8.67-13.55-10.02-17.43-5.2-8.57 11.69.72 16.3 7.94 22.89-29.48-1.8-39.3-34.24-32.5-50.29-.15 3.06 1.5 7.68 3.66 10.96 8.28 12.56 20.38 1.96 16.91-7.97-1.43-4.12-6.72-10.97-6.72-10.97s7.18-1.06 10.11-2.83c2.74-1.7 4.47-4.72 3.77-8.84-.57-3.3-.72-4.75-2.5-7.73-2.16-2.72-6.06-4.6-9.18-4.38-6.08.4-6.82 4.59-10.8 7.45-1-7.54-5.82-13.27-13.7-11.85-6 1.09-10.32 7.47-6.65 15.45 1.86 4.08 4.47 5.32 7.09 8.85-42.35-4.74-37.74-55.03-33.05-54.13 0 0 1.27-.23.9 1.69-2.41 12.3 12.87 19.66 19.57 10.72 4.27-7.26-4.9-18.7-4.9-18.7s6.1-1.32 8.88-2.92c11.06-6.38-.73-24.7-11.02-20.2-3.61 1.65-4.53 5-8.05 6.78-2.36-2.62-2.5-5.5-6.73-7.85-11.61-6.46-18.88 8.83-12.45 15.56 2.64 2.73 7.3 5.22 6.38 5.55-36-4.55-35.65-42.23-34.83-41.96zm-309.49.31h4.96c-1.47 22.35-4.65 51.84-2.57 73.64 2.42 20.83 2.54 23.78 1.05 25.84-2.05 2.3-.97 3.38-.57 5.25.54 3.42.6 3.46.1 5.4a456 456 0 0 1-17.02 53.92C401 345.04 363.2 414.69 333.56 451.23c-.02-.13-1.35.11-1.37-.02-8.11-50.97 9.22-93.46 18.27-110.9 18.35-35.35 47.16-65.53 64.28-102.57 14.56-31.52 25.3-69.4 23.49-120.63m182.4-.21 120.75 187.78-22.03 10.8-123.58-197.9zm-363.66 19.65c-42.82.63-63.7 54.5-27.84 80.36 6.44 4.65 8.42 7.36 6.66 9.16-1.47 1.5-3.46.8-6.66-2.38-27.92-27.4-71-12.43-75.02 25.56-6.67 62.95 71.67 79.46 91.74 19.53 5.76-17.18 8.21 1.43 2.62 19.7-4.64 16.87-12.73 34.15-22.19 48.55a129 129 0 0 1-3.88 5.37h68.79s-2.19-2.94-5.3-6.55c-12.51-18.63-19.29-39.54-21.49-61.36-.5-6.2-.3-10.92.93-11.7 2.07-1.34 3.28.33 5.5 7.73 4.58 15.22 13.23 27.66 22.88 32.37 23.33 9.68 42.4 6.75 58.33-14.5 34.5-45.97-21.9-102.75-62.22-65.65-3.7 3.38-6.01 3.75-6.36.97-.18-1.35.86-2.64 5.9-7.38 34.64-27.51 17.29-74.67-25.92-79.46a54 54 0 0 0-6.47-.32M82.9 165.27c.87 1.76-2.34 3.5-5.79 4.46-9.72 2.7-19.25-3.35-19.55-17.28-.1-4.25-.37-8.79 1.12-9.46 4.46-2 21.6 16.97 24.22 22.28m608.5-11.7a5.66 5.66 0 1 1-5.67 5.67 5.67 5.67 0 0 1 5.66-5.67M71.7 203.14c-19.59.05-29.85 26.7-11.2 42.48 3.26 2.77 4.53 5.29 4.3 5.89-.5 1.37-1 .22-4.99-2.58-17.52-12.33-38.56-1.3-36.71 16.42 2.64 25.3 31.11 31.29 41.22 7.9 1.79-4.14 2.65-5.42 3.61-5.43.88-.01 1 1.68.58 4.38-1.85 11.02-7.2 22.61-13.2 31.91H87.1c-6.52-9.85-9.23-19.57-10.96-31.73-.13-3.2.32-5.31 1.57-5.33.83 0 1.31 1.14 2.68 6.55 5.07 20.03 36 18.98 41.16-1.28 5.78-22.69-15.65-38.83-33.25-24.48-2.48 2.03-5.3 3.5-5.79 2.09-.14-.4 1.44-3.37 4.25-5.83 17.96-17.55 5.95-41.01-15.07-40.96m659.76 13.05a5.73 5.73 0 1 1 0 11.46 5.73 5.73 0 0 1-5.73-5.73 5.73 5.73 0 0 1 5.73-5.73m-287.72 11.19c2.06 8.18-38.32 131-95.71 209.15l25.06.52.77 2.76c35.11 51.84 13.15 97.69-15.2 118.99l9.82 13.08-8.84 7.15-8.83-10.51c-71.85 53.89-212.04 173.17-212.04 173.17l.78 19.13 10.94-8.61c71.12 68.84 221.91 65.07 261.46-77.02l10.6.24c-23.93 104.15-121.26 144.9-194.71 127.64l-17.22 24.72 4.61 2.46c-.85-1.32-1.62-1.77-.38-2.98l14.63-18.81c109.9 14.08 176.26-48.13 197.8-132.4l14.02.25c-12.03 70.78-45.21 133.1-92.53 181.87-34.15-.14-94.2-.93-94.2-.93 21.87 21.19 63.63 85.84 65.3 92.4 0 0 42.94 1.36 89.01.23 16.9-7.6 39.49-10.65 50.05-5.33 18.53 9.35 35.96 44.03 43.8 99.66 2.02 14.34 3.85 20.41 4.4 23.3.11.53 1.37.9 1.55.8.7-.37-1.12 2.54-1.2 4.69s0 5.4 1.02 6.53c1.3 1.43 1.14 2.37.96 2.99-.12.4-2.62 2.72-2.62 2.72-.38 32.41-.19 61.83-1.97 101.71l6.38.03c-.05-64.14 19.3-123.5 49.14-164.36 18.13-26.81 37.32-55.71 47.93-83.23 11.95-30.98 13.6-63.53 7.2-90.99l-4.38.25c-26.23-18-36.92-56.38-4.6-83.8l-11.44-14.88c-32.27 24.95-39.68 70.97-6.25 109.07l-13.08-.04c-32.63-40.71-25.4-87.46 12.3-120.83l-8.43-10.72 9.16-8.08 8.27 9.05L807.51 552.6l-.15-19.24-16.12 13.08c-94.4-87.27-234.4-26.03-254.92 79.09l-12.83.13c26.9-113.12 126.03-145.09 197.75-130.04l17.69-26.78c-13.01-3.65-25.71-12.3-37.7-22.5-5.05-4.3-8.24-6.94-11.9-11.25-33.97-35.9-57.02-85.73-58.1-85.82l-92.36-.23c-13.55 6.7-36.75 14.32-49.49 4.04-27.33-22.07-36.5-66.61-40.26-95.27-1.14-8.92-2.1-24.44-2.95-29.59-.52-.94-1.52-1-2.44-.83m327.42 49.53a5.6 5.6 0 0 1 0 11.2 5.6 5.6 0 0 1 0-11.2m12.02 6.6c4.55 5.89 8.6 11.97 10.86 18.4-2.13-.07-4.11.6-6.48-1.25-.54-6.5-3.22-10.39-6.58-14.71zm-16.88 8.26c1.86.92 3.34 7.97 2.04 9.18q-3.4.72-4.54-.47c-1.13-1.86 1-8.34 2.5-8.7m-367.3 61.25 85.75.1c14.91 11.44 29.49 9.92 50.66.76h95.33l5.38 9.78H394.35c1.35-3.64 4.65-10.64 4.65-10.64m-7.07 15.29h246.73l6.23 10.03H385.81zm23.81 14.58h27.69l-10.26 17.4h-28.56zm61.46 0h26.42l-11.76 17.39h-26.18zm85.46 0-11.12 17.39h-26.86l11.54-17.23zm33.13 0h26.47l-9.9 17.39h-27.4zm-355.44 2.7c-17.16-.2-13.98 22.56-12.36 21.85-10.77-2.47-18.73 2.65-20.05 11.83-1.05 7.28 6.06 17.66 18.5 16.21-1.65 1.9.03 12.92 1.69 13.92 0 0 .21 1.6-6.35 15.3-7.8 16.26-9.4 17.03-12.93 6.35-3.8-11.49-9.67-17.31-24.98-24.74a94 94 0 0 1-12.82-7.67c-6.83-5.15-6.9-5.07-6.59 5.39.42 13.57 4.54 19.53 19.03 27.54 7.1 3.92 20.68 9.46 23.14 9.44 1.73-.02 8.09 2.83 17.5 7.85 1.85.98 8.15 4.45 16.22 5.23 8.55.6 27.84-1.42 39.02-7.88 6.27-3.62 8.69-6.86 13.32-16.12 0 0-15.84.82-23.08-1.08-15.04-.88-22.51-.01-33.91 5.9-9.54 4.96-10.08 5.85-6.1-2.34 1.83-3.75 3.52-8.18 5.05-12.58 1.66-4.38 2.1-4.74 6.27-5.16 9.15-.94 14.36-6.22 15.2-15.37.24-2.45-.13-5.05-.13-5.05 6.23.93 18.97-2.16 18.57-15.06-.35-11.6-8.62-14.27-18.8-15.07 1.3-5.94-3.03-18.54-15.4-18.69m.2 3.6c15.03.1 14.68 13.9 8.13 21.74l-8-6.58-6.45 5.95c-7.02-4.49-6.99-21.2 6.32-21.1m411.32.16 7.4 10.92H644zm-280.67 15.69h28.3l-11.35 15.96H361.4s5.98-10.2 9.81-15.96m89.23 0-10.7 16.58H425l9.92-16.24zm33.15 0h25.58l-10.12 17.68h-25.27zm60.2 0h25.9l-10.54 17.68H543.6zm58.67 0h26.68l-11.02 17.68H602.4zm-371.54 3.28 12.73 12.82-12.4 12.42-12.78-12.22zm32.26 12.49c-2.26 14.9-16.6 14.08-20.68 6.8l5.85-6.67-7.18-7.04c6.97-11.17 23.7-4.34 22 6.9m-42.7-7.12-6.88 7.75 7.55 7.25c-4.86 6.75-23.55 6.22-19.8-10.04 2.38-10.32 12.88-12.22 19.13-4.96m436-1.9 7.87 10.82-14.76.12zM359.46 425.1l316.52 1.02 8.47 10.36c-110.51 1.9-218.73-1.78-331.62-1.87zm-111.29 6.73c12.54 7.69 3.28 23.9-10.18 21.15-10.03-4.41-12.1-14.82-3.06-20.86l7.07 5.83zm108.54 6.2-8.63.05-8.42 9.83c31.8 33.5 30.64 62.57 1 87.9l11.92 13.35c33.24-28.44 40.61-73.12 4.13-111.12m32.67 1.28c17.83 27.85 33.25 80.62-19.87 128.95l-6.4-7.78c46.24-45.16 35.37-83.15 14.65-120.83zm4.95.68 71.87.28c-15.38 58.64-26.17 93.17-27.8 184.9l-20.77.12c2.25-2.12-10.76-55.39-25.94-73.86 31.84-54.07 14.68-84.57 2.64-111.44m-226.08.08c1.24 0 3.79 1.6 8.77 4.59a669 669 0 0 0 12.92 7.55c9.87 5.53 14.78 10.76 17.6 18.73 2.1 5.97.79 6.09-5.26.46-4.5-4.18-9.28-7.79-21.25-15.98-4.22-2.9-5.55-2.42-3.1 1.1 1.76 2.53 5.55 5.41 13.24 10.1 5.57 3.39 13.24 10.19 12.64 11.2-.55.9-1.5.82-4.19-.35-1.24-.54-5.25-2.19-8.9-3.67-15.65-6.35-22.33-14.15-23.27-27.12-.33-4.51-.61-6.6.8-6.6m328 .27s2.17 2.86 2.45 4.05c.6 2.57-1.92 4.93-9.88 8.47-2.73 1.22-5 1.87-4.93 3.47.37 3.74 7.53 9.45 6.65 14.54-1.64 3.9-11.6 7.72-14.08 12.32.02 3.16 6.47 8 5.55 12.3-.5 1.28-2.59 2.6-5.67 5.27-6.3 5.47-6.7 6.31-4.39 10.58 5.38 9.9 5.58 9.17-1.76 16.2-7.4 7.09-7.26 7-3.72 13.16 3.8 6.64 3.63 6.34-1.49 10.6-5.01 4.17-4.8 5.02-2.12 10.2 2.6 5 3.19 5.08-1.18 8.95-5.11 4.53-6.07 5-2.47 10.7 3.73 5.89 4 5.64-.2 10.45-3.98 4.56-4.44 4.77-2.28 7.88 2.71 3.89 3.22 4.92.38 9.21-3.07 4.63-3.05 4.3-.24 8.61 2.37 3.64 1.96 7.68 1.96 7.68l-8.89-.02s-.06-5.12-1.1-7c-2.53-4.55-2.46-5.97.54-10.01 3.07-4.15 2.56-4.5-.3-8.65-2.9-4.2-2.48-4.16 1.28-8.94 3.45-4.38 3.63-6.45 1.66-8.95-4.65-5.94-4.64-8.44.04-12.36 3.57-3 3.9-4.33.82-9.46-3.01-5.02-3.4-5.47 2.15-10.47 5.66-5.12 5.6-5 1.8-10.8-3.68-5.62-3.5-6 2.43-11.48 5.98-5.55 6.05-5.56 2.14-12.56-3.67-6.55-3.7-6.44 3.47-12.82 7.12-5.94 9.55-6.7 2.44-15.22-3.97-6.77-1.14-7.43 5.36-10.8 11.43-6.98 6.23-6.54 1.43-16.89-4.01-6.94-1.72-6.99 5.27-10.46 1.73-.74 3.66-1.6 5.62-2.7 4.68-2.6 2.15-4.99 2.15-4.99zm14.93.16 34.31.44c-39.77 50.8-58.91 115.75-65.79 184.28l-12.96-.2c-.8-53.52 16.03-120.38 44.44-184.52m176.2 1.2c19.62 16.51 34.16 25.97 44.5 29.7 0 0-13.83 22.97-14.9 22.13-79.6-15.34-174.28 31.08-195.69 131.15l-12.54.08c4.63-39.27 14.97-72.06 34-106.27 18.88-33.22 36.27-52.63 62.5-77.1zm-136.96-.86 16.9.3s3.18 3.82 4.62 5.2c7.29 8.27 7.92 6.62-8.16 15.7-10.15 5.73-14.65 8.4-15.24 10.8-.46 2.41 4.43 7.22 5 10.45.01.36-13.8 9.6-16.3 10.92-3.48 1.69-3.66 3.14-.2 9.15 3.97 6.91 3.65 6.67-4.93 12.66-8.37 5.85-10.02 5.27-6.45 11.08 4.95 8.07 2.62 9.9-9.03 16.19-2.95 1.58-3.02 3.18-.96 8.69 2.86 7.66 3.6 6.89-2.43 11.04-7.11 4.9-8.37 5.03-6.8 8.03 4.6 8.72 6.4 10.84.29 13.68-4.67 2.17-4.76 3.4-2.19 9.16 2.6 5.78 3.27 5.55-1.34 8.81-4.26 3.02-6.78 2.35-2.62 7.3 3.28 3.9 3 6.99.32 9.39-2.3.97-3.37 5.35-2.7 5.45l-5.93.16c-4.65-6.26.83-9.85 1.66-10.46.76-1.44-.17-2.46-2.05-5.85-2.57-4.67-2.48-5.22 1.23-7.95 3.75-2.76 3.86-2.04 1.36-8.14-2.9-7.08-2.77-7.89 1.8-11.17 4.5-3.24 4.56-3.96 1.5-10.16-3.22-6.54-3.23-6.55 4.77-11.86 5.63-3.73 5.7-3.51 2.73-10.44-2.06-4.78-.6-6.43 7.05-11.67 4.37-3 4.7-3.59 2.64-7.16-5.67-9.83-5.61-10.13 4.17-16.46 8-5.19 7.93-5.63 4.85-12.54-3.35-7.48-3.64-6.9 7.33-13.48 9.04-5.42 9.52-5.1 5.81-11.62-4.63-8.1-4.33-6.78 13.74-17.1 6.52-4.47 12.4-2.93 5.9-10.53-2.84-3.64-6.34-7.57-6.34-7.57M231.27 454.2c1.25-.04 2.23 1.5 2.16 4.35-.22 4.02-2.12 8-3.94 12-3.82 8.14-7.63 14.16-9.64 14.18-4.72.06-4.6-1 1.68-13.28 2.87-5.6 5.83-12 6.3-13.24 1-2.68 2.34-3.97 3.44-4m58.1 18.42c.08 17.24-53.97 25.92-56.77 17.22 9.42-7.38 37.27-4.1 43.18-10.7-7.12-.41-16.76.76-23.36.88-8.24.15-21.55 3.67-21.68 5.12-.87-4.53 14.14-13.04 26.03-13.58 11.11-.48 23.19.84 32.6 1.06m4.62 26.3s-105.38 87.2-157.47 129.4l.32 18.8 166.7-136.48zm-.34 4.31 6.73 8.18-156.49 127.5-.56-13.36zm494.64 44.74-5.62 6c-152.85-113.72-293.6 58.95-215.98 182.47-.71 1.6-6.1 5.54-6.1 5.54-86.5-143.4 79-311.2 227.7-194.01m-84.1-24.9c8.67.06 24.64 6.02 31.39 14.14 7.85 9.45 5.57 13.66-4.41 4.74-10.72-7.79-19.58-9.6-4.7-.4a23 23 0 0 1 6.4 6.43c.55 1.58-2.2-.07-14.69-4.62-7.41-2.71-16.82-10.03-19.26-15-1.83-3.74.72-5.33 5.26-5.3m-32.17.26c2.7-.02 5.12.2 6.83.68 10.93 3.14 14.38 4.79 18.45 7.96 2.8 2.17 1.9 3.73-1.34 2.34-3.77-1.62-15.7-5.17-17.85-4.95-3.1.32.01 2.35 4.47 3.47 9.88 2.47 14.79 5.02 7.73 5.13-3.67.54-19.78.6-24.15.08-7.33-.87-18.3-7.54-15.77-9.94 2.72-2.58 13.52-4.7 21.63-4.77m-31.35 10.28c12.97.15 19.98 5 5.81 5.97-24.36 3.86-29.04 9.15-2.04 2.84 6.28-1.46 6.17.8 1.82 2.93-3.55 1.72-7.98 2.57-11.67 4.37-6.67 2.77-21.92 3.38-27.87 1.12-8.78-3.34 18.78-17.4 33.96-17.23m104.3 2.2c6.55.17 20.52 9.67 26.74 18.57 4.07 5.82 2.05 10-4.1 5.33-1.23-.93-10.06-8.44-10.54-8.61-.83-.3 7.32 7.43 8.51 9.61 1.03 1.85 3.38 6.09-1.02 6.17-6.87-.84-23-18.86-23.1-27.76-.02-2.38 1.33-3.36 3.5-3.3m-81.26 5.06c2.73-.09 1.34 1.36-3.85 5.01-9.34 6.58-4.47 5.26 6.46-.36a42 42 0 0 1 8.73-3.3c1.4-.27 3.08-.65 3.72-.85 2.94-.9.67 2.72-4.1 6.55-10.06 8.06-21.41 14.39-29.25 16.33-9.99 2.47-12.1 2.79-8.41-3.45 5.86-9.9 14.4-17.83 22.58-19.37q2.74-.51 4.12-.56m33.61.16c4.16-.08 9.31.78 17.41 2.53 5.7 1.77 4.2 2.15-2.62 2.9-12.84 1.4-7.5 2.9 4.98 2.68 17.04-.12-8.53 6.15-16.82 7.4-6.47.28-8.37.05-22.48-2.59-5.37-1-2.15-4.94 8.03-9.81 4.17-2 7.34-3.03 11.5-3.1m105.27 2.3.46 10.97-206.23 172.44-7.01-7.75zm-70.17 9.43c8.22-.1 20.1 5.6 18.83 9.03-.48 1.29-1.4 1.23-7.67-.44-4.12-1.1-11.5-2.25-10.52-1.34.34.32 6.1 2.52 8.3 3.05 7.26 1.74 15.96 5.85 14.04 7.07-3.37 2.05-6.46.44-10.44.02-9.97-1.39-26.35-6.42-29.05-8.94-3.05-2.85 7.66-8.33 16.5-8.45m-96.18.64c1.48.08 2.04 1.46.62 3.35-2.15 2.83-3.14 5.2-5.07 8.7-6.9 10.64-11.25 14.85-17.87 18.98s-7.57 3.42-7-5.17c.75-8.91 7.14-18.29 16.16-22.7 4.16-.58 6.55-1.68 2.18 3.55-7.75 9.28-2.45 8.34 4.78-2.2 2.3-3.35 4.72-4.59 6.2-4.5m-26.79 1.23c4.47-.02 5.97 1.56.24 4.25-5.45 2.56-16.3 10.14-16.56 10.98-.46 1.41 3.6-.8 10.36-4.49 9-4.92 9.8-4.8 5.44.82-4.93 6.37-16.79 14.34-26.1 17.29-13.02 3.57-12.7 1.07-5.43-8.6 6.94-10.5 12.83-15.52 21.72-18.38a36 36 0 0 1 10.34-1.87m-220.92 1.6c47.26 81.5 21.02 164.32-33.8 206.55-57.33 44.15-146.5 41.52-199.13-11.46l7.3-6.9c-.04.04 82.96 84.56 187.48 9.54 53.05-38.08 74.96-128 31.2-190.67zm-211.7.19a1 1 0 0 0-.36.08c-1.59 1.03-7.59 18.63-8.8 25.94a6.5 6.5 0 0 0 1.93 5.95c1.23 1.2 3.23.42 3.85.18 3.99-1.81 6.2-4.58 9.7-13.36 2.34-4.81 2.66-10.56 2.2-12.56-.2-.82-1.49-2.71-3.1-3.79-1.8-1.2-4.34-2.45-5.42-2.44m.92 3.66c1.9-.02 5.63 3.06 6.1 5.25.03 3.82-2.16 10.18-3.8 9.23-2.72-3.39-5.86-1.25-6.38-2.48-.35-3.76 2.07-8.68 3.73-11.96q.16-.04.35-.04m510.42 3.05c21.01 0 41.9 6.16 57.25 19.75l-8.2 7.51c-35.98-25.65-77.87-18.14-102.7-.84-24.57 17.13-46.32 55.05-25.02 108.45L601.8 705c-23.88-42.95-11.06-99.72 31.2-126.58 14.89-9.47 33.97-14.89 53.11-15.24zm-310.76 6.27c.64 0 1.6 2.08 1.5 4.64-.12 3.08-1.42 7.09-3.5 7.94-2.34.95-3.83-6.03-3.83-6.03a27 27 0 0 1 5.83-6.55m376.25 2.4a14 14 0 0 1 2.4.08c2.35.3 2.37 2.4.16 4.4-2.38 2.19-3.63 2.3-6.03.55-2.15-1.57-2.26-2.72-.4-4.05a8.4 8.4 0 0 1 3.87-.98m-403.61.48 6.97 8.6-24.16 19.43-2.88.22L145.03 753.7l-.04-13.6zm386.4 20.74-25.19 20.78c-50.34-26.16-90.7 20.45-76.46 62.78L613 695.5C574.05 588.6 688 552 736.46 593.04m-131.9-16.34h.23q.25.07.5.32c.87.86-.88 15.04-2.19 17.67a8 8 0 0 0-.84 2.74c.01 1.17-4.63 10.9-8.27 17.3a41 41 0 0 0-3.25 7.08c-2.91 14.04-9.2-8.53-7-21.63 1.06-6.16 9.8-18.87 12.33-17.93 1.3.48 1.2 1.45-1.06 6.37-6.31 13.73-7.9 20.8-1.26 7.53 7.64-15.3 9.63-19.23 10.81-19.45m-427.86.28c.93.05 1.68.57 2.09 1.66.27.93.58 2.86.06 3.8-1.3 2.92-3.97 4.83-6.68 4.66-1.18-.08-2.48-1.12-2.64-2.4a5.8 5.8 0 0 1 1.6-4.63c1.93-1.98 4.01-3.18 5.57-3.1m191.75.9c2.98.14 6.13 8.16 4.13 11.83-1.65 3-1.95 2.44-4.81-3.37a67 67 0 0 1-2.67-6.33l2.44-1.92a2 2 0 0 1 .9-.22m-5.02 3.39s3.14 5.68 3.9 10.21c.47 2.77.4 2.25-2.64 1.1-2.4-1.49-2.92-2.36-4.4-4.22-.99-1.73-1.97-3-1.97-3zm18.87 1.22c1.59-.06 3.29 1.55 4.85 5.47 5.85 14.72 5.31 31.24-1.26 39.04-1.1 1.3-1.36 1.35-2.67.54-1.07-.66-1.17-7.65-.14-9.63.33-.63 1.29-4.85 1.36-7.24.18-5.65-1.38-6.36-2.12-1.12-.86 6.06-1.8 10.3-3.45 6.65-.83-1.85-1.25-3.7-1.88-5.67-3.29-12.73.55-27.88 5.3-28.04m-25.5 3.76s5.64 7.28 7.96 9.88c.82 1.4.8 1.76-.52 2.26-2.23.86-9.68-4.11-12.64-5.64-1.6-1.28-.9-2.25-.9-2.25a69 69 0 0 1 6.1-4.25m222.2.27c3.01-.04 3.01 1-.2 5.62-17.92 25.78-14.3 21.95-2.9 7.86 6.34-7.84 7.44-8.59 8.13-6.83.52 1.3-7.01 16.56-10.92 22.1-2 2.85-8.9 7.62-12.37 9.39-8.53 4.31-7.58 2.58-4.43-8.12 4.02-16.59 14.1-29.93 22.7-30.02m-232.72 8.9c49.13 122.17-85.39 175.79-146.07 119.3l7.07-5.63c84.42 57.26 167.74-34.47 129.6-106.25 0 0 3.46-2.87 9.4-7.4m11.38 2.97c8.09.83 20.03 15.62 20.63 23.86 1.28 5.85-.37 6.86-3.24 2.75-4.85-8.95-4.27-3.28-.14 5.6 2.19 4.5 2.7 9.87.42 10.16-3.1-.63-9.84-11.36-11.9-15.78-4.9-9.7-5.26-8.05-7.95-22.42-.5-2.7.2-4.14 2.18-4.17m-24.44 4.01c37.42 71.75-43.07 157.97-124.93 102.24l24.53-19.47c42.73 20.5 90.4-4.92 76.75-63.84zm373.26 13.38L638.97 672c-13.89-46.62 37.11-73.24 67.5-56.24m-125.36-.12c2.2-.46 4.07 13.66 4.48 33.47.4 19.39.9 21.3-5.12 14.17-2.53-2.91-5.63-5.69-7.02-8.3-4-7.56-2.72-15.49-1.62-26.56 1.03-10.33 4.73-8.72 4.13 2.1-.38 6.97-.31 15.62.78 15.61.4 0 .5-.67.26-1.62-.52-1.98 1.86-24.42 2.84-27.07.43-1.14.86-1.71 1.27-1.8m-186.02 8.54c4.88 1.9 6.26 18.17.98 33.9-2.27 6.77-5.76 11.19-10.96 13.91-3.7 1.95-4.57 1.33-2.9-2.06 3.08-5.53 4.72-11.26 5.97-18.4.5-6.95-3.17-1.36-2.87 1.61-2.88 12.99-6.65 14.94-6.16 1.26.36-10.08 1.68-14.4 6.43-21.33 2.38-3.47 4.94-8.25 9.5-8.9m169.3 1.65c2 .02 2.5 2.7.7 7.95-1.24 3.64-5.49 15.4-4.99 15.37.31-.03 4.86-10.62 5.8-12.34 1.52-2.84 2.08-3.38 3.42-3.25 1.3 5.23-.04 11.76-.68 17.17-2.76 14.1-12.37 28.67-16.05 24.34-6-7.07-3.18-35.68 4.77-44.37 3-3.28 5.47-4.89 7.03-4.87m-257.07 2.16c7.25 49.9-33.92 71.2-69.49 56.15.75-.19 69.5-56.15 69.5-56.15m168.3.92 7.17 9.42 13.14.68-6.73 9.91 6.69 12.7-14.66.29-8.44 9.7-7.33-8.76-12.82-.68 7.47-11.92-6.03-11.4 13.85-.66zm-110.27 4.29c1.64.06 9.75 10.7 10.55 14.64 2.45 9.53 1.54 27.55-1.88 26.93-3.72-12.98-2.28-19.68-3.61-18.2-2.3 2.4 1.44 22.29.2 27.2-.59 1.24-2.57-.26-4.8-3.48-5.96-8.57-5.16-42.1-.6-47.05zm438.83 20.22L642.01 787.77l9.35 12.04 153.12-126.42zm-234.23 2.32c.7-.15 2.32.99 5.37 4.32 5.3 7.17 10.93 17.01 12.98 24.58a84 84 0 0 0 2.78 8.67c1.14 2.75 1.24 3.5.57 4.33-2.81 3.46-14.56-5.25-18.36-13.6-5.32-11.72-5.45-22.29-.12-12 1.94 3.74 4.35 9.2 4.33 7.03 0-.61-2.36-8.47-4.16-11.98-1.12-2.2-5.2-10.98-3.4-11.35M802.47 659l.34 11.12-151.04 126.32-5.93-7.21S788.1 670.9 802.46 659m-235.81 6.87c.7.07 1.07 1.09.86 3.35-.7 7.34-2.5 23.33-2.13 24.73.23.86 2.4-10.58 2.89-12.61 2.58-10.6 6.52 14.73 4.15 26.07-.38 1.8-1.14 4.67-1.53 6.44a26 26 0 0 1-2.16 5.58c-4.28 6.73-14.33-20.05-12.64-33.7 1.05-8.5 8.02-20.11 10.56-19.86m-174.75 5.87c1.98-.1 2.36 1.83 2.03 5.91-1.14 13.98-10.44 28.65-20.62 32.55-10.13 3.89-11.07 3.1-5.06-4.14 4.56-5.5 7.31-11.28 6.55-12.02-.43-.42-1.44 1.9-5.13 6.62-4.63 5.95-5.39.91-1.18-7.8 3.63-7.54 7.03-11.48 13.86-16.1 4.82-3.24 7.81-4.93 9.55-5.02m91.85 4.25c-2.04 60.17-17.05 125.55-46.01 182.39l-27.07.06c33.14-48.81 54.3-109.25 60.18-182.2zm11.9.06s4.06 4.2 5.7 7.05c1.83 3.13 2.34 5.87-.97 8.21-3.84 3.25-5.44 2.04.82 10.1 3.3 4.24 2.23 4.93-1.86 8.51-4.23 3.7-4.47 3.89-.55 8.87 4.2 5.34 4.97 6.16-.51 10.28-4.94 3.72-5 4.59-1.15 10.62 3.56 5.56 4.63 5.5-2.18 11.26-5.82 4.91-5.95 3.55-.34 12.6 2.06 3.33 1.92 3.54-1.86 6.9-9.3 8.21-8.81 7.7-7.5 9.86 10.2 14.6 5.59 14.19-4.38 21.16-2.01 1.72-1.5 3.66 3 10.96 3.83 6.2 3.27 7.54-5.68 13.7-9.33 6.41-9.64 7.28-4.97 13.82 4.59 6.44 4.69 6-2.77 12.66a166 166 0 0 0-6.13 5.77h-16.53s3.5-3.19 5.88-4.95c13.57-10.05 13.5-8.98 7.78-16.23-5.06-6.4-4.57-6.82.57-10.49 3.7-2.64 8.67-5.36 12.4-8.05 2-1.44.52-2.63-2.82-8.96-3.76-7.1-3.96-6.27 3.02-12.02 7.64-6.28 7.76-6.05 3.62-14.02-4.15-7.99-4.22-7.3 1.02-11.58 7.8-6.36 8.18-6.02 4.07-13.4-3.27-5.89-3.3-5.72 2.23-11.24 5.57-5.56 4.88-5.22 1.58-10.31-3.36-5.19-3.18-5.89 1.24-9.82 4.76-4.24 4.09-3.99.14-9.4-3.9-5.34-3.83-4.93.9-9.07 2.49-2.18 4.99-4.39 4.85-5.41-.37-2.64-2.89-6.37-5.3-9.98-.93-1.37.92-1.8 3.88-4.86 3-3.13 2.87-2.34.6-6.5a183 183 0 0 0-3.57-6.02zm-44.3.14 4.72.12s.8 1.07 1.9 2.18c3.02 3.09 3.16 4.9.12 6.55-2.91 1.6-1.8 3.82.64 7.4 2.59 3.79 2.56 3.35-1.14 7.08-3.82 3.11-5.8 4-1.58 9.88 2.4 2.73 2.1 5.55-1.63 8-2.85 1.87-7.6 3.44-2.6 10.6 2.44 5.09 2.64 4.76-2.46 8.38-6.79 4.82-8.06 3.98-4.95 11 3.47 7.81 3.8 7.93-3.3 13.16-8.28 6.09-8.56 6.58-5.12 13.86 3.48 7.35 3.57 5.49-5.18 12.3-6.41 5-7.87 5.27-5.97 9.4 3.56 7.73 5.07 9.8-5.3 15.12-11.99 6.14-12.59 6.6-6.84 15.73 4.68 7.43 3.63 6.37-4.09 10.82-11.17 6.42-16.1 9.22-16.44 11.21-.23 2.26 8.7 8.98 8.7 8.98l-15.57.42s-6.55-5.32-9.1-7.8c-7.05-6.86-7.13-4.6 16.3-15.98 12.94-6.28 11.85-4.85 9.75-8.51-6.24-10.82-6.46-11.94 5.24-17.83 10.17-5.12 8.42-5.49 5.95-13.22-2.16-6.75-1.81-6.13 3.55-10.1 12.95-9.6 12.6-8.6 10.58-13.32-2-4.64-3.52-6.79-2.03-9.08 4.67-6.69 14.6-8.11 10.54-16.08-1.9-5.14-2.57-6.29 3.14-10.74 5.15-4.29 5.19-3.77 1.88-9.43-4.02-5.2-3.43-6.05 2.45-10.14 4.19-3.83 4.14-3.73 1.78-7.47-3.25-5.16-3.09-5.32 1.54-9.37 3.77-3.31 4.43-3.5 2.03-7.14-3.2-4.83-2.66-5.9 1.54-8.27 2.58-1.46 2.56-2.05 2.34-4.5-.04-.48-1.38-3.21-1.38-3.21m58.45.28 21.7.06c6.93 40.22 19.03 56.73 26.02 69.47-27.43 44.04-21.2 80.61-4.45 112.98l-68.7-.26c17.6-60.26 26.69-120.9 25.43-182.25m-148.91.16c.8-.06 1.36 1.23 2.7 3.52 4.35 7.41 1.27 17.92-5.09 28.93-4.75 8.24-5.62 1.94-3.44-9.92 1.37-7.48-2.4 3.73-4.2 12.77-.96 4.9-3.3 8.84-5.86 8.6-2.4-.38-1.66-7.24-1.58-8.77.54-10.8 4.57-18.47 12.4-29.2 2.96-4.07 4.16-5.87 5.07-5.93m221.47 21.15c1.03-.04 2.47.38 4.24 1.4 1.39.8 3.88 2.3 5.6 3.25 6.01 3.31 6.5 4.33 3.64 7.65-3.54 4.12-5.8 2.55-11.91-4.3-4.13-4.63-4.2-7.88-1.57-8m-2 9.06c.97.02 2.98 1.07 4.92 3.3 3.97 4.54 3.5 8.37-.9 7.28-1.79-2.63-2.71-6.61-4.42-9.56-.4-.67-.19-1.04.4-1.02m193.79.57c-3.85.01-10.28 5.09-11.5 10.24-3.74 15.74-3.73 15.06-.39 17.35l2.2 1.47c1.97 1.54 4.64 3.94 5 3.46 3.19.02 8.04-20.14 7.87-24.3.2-4.39.36-4.91-.74-6.9-.5-.92-1.36-1.32-2.44-1.32m-196.74.35q.39-.07.96.4c2.52 2.5 3.54 6.99 4.81 10.2 0 .69-.28 1.83-.64 2.52-2.17 4.18-5.56.12-5.91-7.07-.2-4.05.01-5.9.78-6.05m196.14 3.1h.48c2.57.12 2.18 2.79-1.4 6.65-1.9 2.04-5.78 3-7.06 1.74-1.86-1.82 1.99-6.84 6.2-8.05a8 8 0 0 1 1.78-.34m-435.76 2.2h.42q2.03.17 3.36 1.73c1.72 2.12 1 5.4.18 8.15-2.03 7.2-15.51 21.12-20.34 21.17-2.89-.5 9.15-15.8 9.53-18.36-.9-.88-8.35 7.74-11.86 13.72-1.58 2.7-3.4 6.05-4.35 6.63-2.51.29-5.4 1.9-5.43.2.42-7.64 15.38-24.3 20.48-28.92 3.13-2.95 5.83-4.27 8.01-4.31m36.08.72c11.56-.13-11.2 25.16-25.92 28.8-4.59 1.14-13.04 1.43-13.65.48-.6-.95.08-1.73 1.97-2.22 3.03-.8 18.08-10.37 18.07-11.5-.02-1.42-6.23.94-11.54 4.37-3.44 2.22-5.05 1.77-3.19-.92 8.64-12.43 20.21-18.85 34.26-19.01m200.06.03c.66.06 1.3 1.36 1.72 4.27 2.1 5.42 2.2 6.9.22 8.5-3.39 2.73-4.23 1.97-4.19-4.31.03-5.17 1.16-8.54 2.25-8.46m-380.75 7.2s4.21 1.58 2.46 3.59c-1.21 1.39-6.4.2-6.4-.2zm580.62.16c1.38-.1 1.41 1.18.69 4.39-.39 1.68-2.05 10.54-4.99 13-.36.23-4.63-2.32-5.79-3.49-.53-.54-2.2-1.79-2.43-2.6-.72-2.68.05-6.16 2.09-7.9a6 6 0 0 1 3.25-1.06c.67 0 2.66-.66 4.42-1.44a10 10 0 0 1 2.76-.9m-579.14 6.1c2.78-.01 6.18.29 9.07 1.27 8.53 2.48 24.16 9.48 26.57 11.78 3.5 3.35-5.64 6.91-16.63 7.03-5.83.07-6.92-1.14-14.98-5.97-1.04-.68-5.73-3.76-4.37-4.89 1.5-1.52 6 .44 11.6 3.29 1.83.93 6.28.66 6.27-.16-.01-.97-11.2-5.13-19.6-7.8-5.5-1.74-5.37-3.51-2-4.26.97-.14 2.4-.27 4.07-.28m-11.02 3.82s2.33 2.06 5.33 4.31c3.27 2.45 7.06 5.46 9.7 9.48 3.81 4.65 9.85 16.23 9.17 18.33-1.54 4.8-17.65-3.63-30.83-16.8a97 97 0 0 1-6.79-7.48l5.03-4.55s4.41 3.7 9.52 8.2c9.56 8.44 9.5 5.53-.13-3.35-2.72-2.51-5.22-4.77-5.22-4.77.12-1.61 1.65-3.03 4.22-3.37m393.57.4s5.14 5.34 7.05 7.8c-31.35 30.65-43.32 73.46-13.06 119.07l-14.52-.06c-27.2-53.53-14.3-93.84 20.53-126.8m-265.16 1.26c1.95-.09.17 2.2-3.28 8.09-6.47 11-7.75 13.77-18.23 16.5-2.7.7-6.56.15-8.14.35-4.51.56-2.5-.01 4.41-4.5 9.58-6.2 1.44-3-7.42 1.55-5.12 2.64-10.5 2.51-10.97 1.14-.26-.75 2.08-2.73 3.58-4.09 13.49-12.05 17.62-11.54 30.18-15.9 5.47-1.9 8.53-3.08 9.87-3.14m-56.37 11c4.88.03 9.43.51 13.48 1.42 2.68.6 7.05 1.14 3.36 4.46-4.16 3.93-15.42 9.28-23.75 9.64-1.17.04-18.32-1.17-14.66-4.85.73-.4 3.05-.3 5.06-.68 9.5-1.8 6.94-3.33-4.76-2.7-14.66.78-15.33-.73-4.23-3.77a97 97 0 0 1 23.4-3.5zm78.28 1.13c6.52-.07 11.6 1.1 11.62 3.59.04 4.02-12.3 12.87-20.41 14.62-1.91.4-4.62 1-6.03 1.32-2.83.64-18.48.1-20.02-.46-7.33-2.66-2.23-3.7 11.22-5.27 5.86-.68 8.65-2.21 8.64-3.32-.01-.55-4.32-.7-10.74.11-7.17.91-5.76-1.2 3.17-5.83 5.9-3.05 15.16-4.69 22.55-4.76m-120.69 5.59c.91.02 3.12.78 6.77 2.3 7.8 2.27 18.54 4.84 25.88 12.86 5.94 5.75 7.38 7.6 6.13 9.62-1.5 2.45-19.91.58-27.66-2.73-5.12-2.18-11.22-6.88-14-10.93-6.75-9.84-3.91-12.43 4.66-5.55 10.34 8.28 11.87 9.12 13.7 8.75.74-.15-1.07-1.85-4.54-4.43-8.7-6.47-12.94-9.95-10.94-9.9m63.68 10.56c8.66.02 10.53.66 18.93 4.51 10.52 3.71 7.97 7-10.7 11.66-9.34 2.2-18.75.65-25.57-3.55-15.05-9.25-14.06-11.1 2.74-6.97 5.52 1.36 11.02 1.62 11.36.58.25-.79-6.42-2.49-11.84-4.29-5.87-1.94-.83-1.77 10.92-1.9zm432.88 40s-1.92.9-2.77 1.37c-.67.37-5.87 1.02-11.56 1.44-11.22.83-18.76 2.63-25.56 5.37-10.28 4.13-17.15 16.87-17.15 16.87 7.68-.52 51.15 7.33 63.21-8.33 2.53-3.28-6.49 24.75-11.1 26-11.46-1.38-16.28 16.6-15.14 15.84-11.55 4.47-20.5 7.1-17.57 20.51 1.28 5.86 7.2 12.8 19.77 11.05-3.43 23.26 25.03 29.27 28.17 1.24 0 0 5.54-1.06 7.69-1.3 12.97-3.08 16.11-22.04-2.93-28.06-5.29-1.56-5.59-2.56-5.59-2.56.99-4.27.76-8.76-2.34-13.75 4.2-10 14.66-29.3 14.66-29.3zm2.01 5.78c2.62 3.5-11.04 9.28-25.58 10.53-3.25.28-10.42.94-10.61 1.26-1.56 2.75 28.11.75 37.36-4.42 3.16-1.78 3.45-.22 2.08 2.52-10.74 13.8-36.65 10.4-56.9 7.97-1.16-1.16-.18-2.59 4.36-6.27 8.32-6.75 14.32-9 27.46-10.35 3.67-.12 20.18-3.23 21.83-1.24m16.05 14.28c-1.86 5.94-11.61 24.06-11.61 24.06-1.2 1.2-5.48 2.04-5.16-2.55.05-4.92 9.28-25.2 11.77-25.6 2.96-.22 5.15 1.96 5 4.1m6.19 1.37c2.86 20.8 18.63 25.74 33.77 32.3 4 1.82 7.37 5.06 11.36 7.17 7.49-10.2-.95-30.03-14.12-36.48-9.79-4.57-18.7-8.2-24.22-7.8-3.19.24-6.75 2.29-6.8 4.8m8.1-1.23c1.7-.02 4.13.47 12.97 2.82 13.34 3.55 22.76 13.4 25.21 26.37.1.52.8 10.57-1.5 10.22-3.48-1-5.35-4.5-10.93-6.84-6.96-2.9-16.73-6.73-22.72-12.18-4.84-4.4-7.48-9.13-8.07-13.18-.6-4.2.8-4.64 4.35-1.24 7.91 6.3 15.72 8.46 23.55 14.54 2.18 1.7 9.98 6.02 4.65.63-3.6-3.65-14.24-10.01-19.89-12.73-7.85-3.77-12.12-8.36-7.62-8.4M141.03 842l89.48 139.89c-22.02 11.61-32.88 16.7-69.45 13.84l.14 1.84-15.54-.9c26.84 41.89 59.96 96.55 50.56 191.9l109-.11s1.7 1.61 1.88 1.72c1.59 1.08 3.98-1.89 3.98-1.89l49.17-.26 1.33 1.59 22.93-.16S279.67 993.28 227 895.88c-21.62-39.07-44.14-56.43-85.98-53.89m564.26 4.63c5.88-.15 11.72 3.9 11.75 11.74.03 4.09-3.42 9.78-3.42 9.78l-7.99-7.6-7.62 7.63c-3.77-3.1-6-9.02-4.76-12.38 2.35-5.75 7.47-9.06 12.04-9.17m-92.55 2.78c7.57 29.52 15.75 70.22-49.92 164.26-38.85 55.63-51.55 108.11-53.1 172.16l-3.93.02c1.85-35.15 2.1-98.88 2.1-98.88l3.67-3.26s-1.67-2.71-2.4-5.89c-1.24-5.36-.2-3.58 3-17.97 13.42-69.52 100.58-210.44 100.58-210.44m-350.68 13.55 332.83 1.52-4.43 8.73-322.07-2.3zm443.65 2.52 12.36 12.04-12.08 13.56-12.72-13.3zm-10.14 5.12-6.75 7.16 5.85 6.16c-6.02 12.63-22.03 2.77-21.5-6.68.64-11.06 13.55-15.6 22.4-6.64m21.36 14.25 5.37-6.83-6.07-6.65c9.94-9.82 19.34-1.17 20.24 7.02.98 8.73-12.64 18.58-19.54 6.46m-394.2-8.36 27.27.27-10.14 18.97-27.64-.12zm60.74.15h25.04l-10.58 19.23H372.6zm59.14 0h26.56l-10.78 19.23H431.1zm59.45 0h27.18l-9.89 19.23h-28.2zm60.56 0h26.2l-10.62 19.23h-26.96zm-289.35.1h17.61l-7.19 12.66zm439.06 12.13c10.08 8.1 3.08 21.38-7.43 21.62-7.22.16-17.72-12.07-6.36-22.04l7.56 6.92zm-370.38 10.22h25.6l-9.64 17.3h-25.08zm56.9.14h28.1l-9.9 17.31h-26.72zm60.14 0h27.94l-9.1 17.31h-28.24zm59.92 0h27.72L538 916.53h-29.3zm-228.65.66h17.67l-7.53 13.87zm13.32 20.08 259.44 2.3-4.4 8.41-248.45.05zm9.12 15.06 243.1.6-5.58 11.64-84-.38c-16.39-12.24-35.12-6.58-56.48.38 0 0-64.3.67-89.59 0zm341.16 29.7c13.5 17.27 23.17 41.32 27.09 60.28 3.88 19.4-.33 28.9-5.3 11.93-8.2-42.46-58.54-48.65-81-15.77-31.2 45.68 23.46 101.11 62.64 63.98 3.34-3.17 5.2-3.94 6.33-2.6 1.31 1.54.4 2.92-6.57 9.95-27.22 27.43-17.1 66.9 19.75 76.08 52.32 13.03 83.95-50.91 38.22-81.11-4.75-3.62-5.26-4.53-3.52-6.49 1.54-1.74 2.89-1.54 7.12 2.29 39.2 35.45 92.72-10.87 67.93-58.77-19.1-36.9-72.25-30.13-84.97 10.87-2.37 7.64-2.55 8.09-3.86 8.94-5.45.2-1.61-17.81-.79-22.58 6.16-21.04 12.98-40.72 26-57zm-422 19.62 128.22 202.38-28.35-.32-121.76-190.38zm629.78 11.81c.85.64 12.8 33.5 10.46 36.51-.72 2.38-2.74 1.56-3.53-1.41-7.44-28.39-42.57-23.61-42.24 5.74.2 18.18 18.87 26.03 35.1 14.74 2.4-1.66 3.5-1.69 3.52-.09 0 .48-1.86 2.96-4.16 5.52-13.05 14.54-8.13 34.61 9.47 38.73 23.66 5.54 35.12-21.09 17.33-40.25-2.6-2.78-4.7-5.34-4.7-5.69-.03-1.44 1.97-1.19 4.27.53 16.41 12.18 36.41 3.96 36.18-14.87-.3-24.85-31.19-31.4-39.68-8.41-2.11 5.72-3.15 7.25-4.23 6.21-4.15-2.18 11.12-37.62 11.55-37.62zm-655.5 1.37 121.06 189.16c-5.55-.13-10.7.21-16.26.12 2.25-35.32-26.18-51.89-42.88-52.73 10.02-41.31-20.1-58.69-40.2-61.98 8.15-53.69-36.3-61.3-36.94-60.76.21-4.41-.62-7.59-1.2-11.26zm-19.6 3c-.26 1.14 2.28 11.84-2.5 9.86l-.35-9.84zm-25.49.27c1.73 7.12 5.39 8.53 10.35 13.3 0 0-6.35 1.07-7.82.06-2.64-1.83-8.15-13.41-8.15-13.41zm18.94 12.03a5.56 5.56 0 0 1 0 11.13 5.55 5.55 0 0 1-5.55-5.56 5.56 5.56 0 0 1 5.55-5.57m11 4.28c15.92-1.04 39.01 16.04 32.92 47.99-1.06-2.23-2.31-7.14-4.9-10.62-10.97-14.81-23.9 5.48-15.18 13.76 4.27 4.06 6.27 5.66 5.8 6.03-9.8-1.87-17.25 6.83-13.16 16.47 6.8 12.48 16.27 5.87 21.74-1.53 0 0 3.37 11.17 6.72 12.59 5.13 2.17 12.21-.58 14.62-6.78 3.58-9.22-5.13-11.58-7.05-16.72 18.42.6 41.88 27.52 31.2 50.87 1.4-5.32-4.3-17.24-15.39-14.17-5.54 1.94-7.47 10.01-3 18.31 1.43 2.66 2.2 3.65 2.2 3.65s-4.8.62-6.05 1.41c-14.39 8.85 4.16 33.03 14.87 17.91 1.1-1.79 2.88-3.84 2.88-3.84 1.77 3.36 2.3 8.1 5.53 9.73 13.27 6.67 19.18-7.42 13.6-14.32-3.14-3.89-6.67-8.38-6.67-8.38-.56-2.49 39.73 8.08 34.82 47.27l-106.8-.14c9.9-60.21-14.07-129.09-26.31-150.09l5.3-6.99c1.33 2.6 3.53 9.15 7.43 10.4 12.39 3.99 16.17-4.67 14.5-13.57-.88-4.74-7.51-8.55-9.62-9.24m28.28 56.67a5.28 5.28 0 1 1-.02 10.55 5.28 5.28 0 0 1 .02-10.55m634.47 48.72c-7.1-6.63-14.96-6.45-22.06-5.67l-.39 14.93s17.6-.88 15.25 8.23c-.62 1.79-1.47 7.79-1.47 7.79l-.23 76.53c2.86 33.64 46.16 40.37 56.84 8.45 2.05-5.45 1.71-10.4 1.71-16.35v-40.35l12.33-.24-.48-14.35-11.27.18c.82-20.16-2.67-39.57-16.82-44.18-15.56-4.68-25.33-.71-33.4 5.03m36.72 34.44c-7.15 1.3-17.16-12.21-25.4-21.89 3.78-7.25 15.26-5.95 19.54-1.49 6.2 6.46 5.77 18.4 5.86 23.38m-631.12-20.45a5.34 5.34 0 0 1 0 10.66 5.33 5.33 0 0 1 0-10.66m599.94 12.88c7.55 14.75 30.76 26.07 31.12 23.81l.13 40.59c1.18 16.26-4.54 24.18-14.84 25.24-18.07.2-17.88-22.24-17.88-34.75l-.24-40.06c.12-4.82-.46-10.83 1.7-14.83"/></g></svg>