<svg xmlns="http://www.w3.org/2000/svg" fill-rule="evenodd" stroke-linejoin="round" stroke-miterlimit="2" clip-rule="evenodd" viewBox="0 0 934 1300"><g fill-rule="nonzero"><path fill="#e2cf00" d="M593.21 110.49S698.6 262.82 734.35 289.85c2.62 1.24 46.69-7.18 46.69-7.18-22.59-54.07-37.12-110.01-22.46-172.73zm58.56 240.92c-72.66 20.5-145.18 39.79-223.94 6.36l-86.02 83.1c-.71 2.15 111.47 50.47 113.23 45.18l-27.61 88.14 63.66 14.02 29.23-93.76s87.88-8.43 128.67-22.43c31.02-10.64 63.1-18.36 90.79-41.47-57.2-34.38-88.07-79.55-88-79.15m-437.01 24.58c-27.54-16.9-49.06 17.88-28.9 35.25-2.37 10.14-3.18 25.24 6.64 31.87 9.02 5.7 25.84-.2 28.27-.15.17 0 .44 18.26-.97 18.22-2.6-.09-12.45-8.48-18.53-10.3-20.52-6.15-49.39-9.19-48.88-8.13.86 1.78-5.11 5.99 17.79 20.37 8.5 5.34 35.39-.68 56.8 6.07 13.03 4.12 25.85 10.96 32.94 7.55 8.95-3.74 19.39-15.55 22.76-25.17.95-10.51-53.71 12.22-50.39 12.6l-.17-21.19c22.03 2.43 41.9-13.54 20.26-40.9 16.12-16.02-6.43-54.21-37.62-26.1m91.76 96.89c-54.17 54.6-164.9 157.08-164.9 157.08l1.19 76.48 108.17 96.8c8.57-102.76 66.96-198.66 122.56-246.63 5.1-14.6-55.25-78.61-67.02-83.73m385.93 18.89c-8.16 63.18-15.58 149.34-122.76 245.11 18.57 31.63 42.21 63.83 76.23 79.2 2.42 5.43 98.35-99.26 157.36-148.77l-.31-67.05zM209.38 505.3c-.23 1.38-4.2 17.97-5.2 17.53.07.9 10.96-4.05 12.2-8.6 1.08-3.99 3.58-9.4 3.74-10.16-2.46-17.08-7.1-4.95-10.74 1.23m-40.13 44.17c-3.9 9.4-7.54 26.67-6.2 37.92 19.2 9.6 24.41-30.35 19.25-34.17-3.1-1.31-10.42-3.84-13.05-3.75m592.65 183.2c-1.78 7.97-1.4 10.33 2.14 11.89 6.22 2.72 9-.57 14-13.54 2.96-7.73 5.61-19.35 3.22-23.97-11.78-8.21-18 19.6-19.36 25.62m-290.22-18.72c-3.77.03-7.4.34-10.75 1.1-31.68 7.25-29.28 62.6-34.65 84.67-99.5 14.2-125.83 20.96-153.1 32.16-42.39 17.42-55.8 28.04-67.02 36.8 7.04-.82 83.1 70.11 87.03 80.13-4.84-13.73 147.16-47.15 228.11-13.6 9.93 3.57 85.57-73.39 83.18-81.98 9.82-17.18-95.33-36.5-108.6-47.23-10.87-58.56 73.47-90.64 15.06-88.93-10.63.3-25.82-3.23-39.26-3.12m264.64 65.8c-1.88 2.2-3.76 3.37-6.2 5.97l-5.55 7.32 4.04 6.54 10.36-11.43zm-74.2 73.63c10.92-4.93 49.67-23.71 51.34-19.36l-.83 18.8c-5.92-1.94-44.19 4.39-22.06 43.88-13.94 31.38 17.12 47.55 38.88 26.81 45.6 15.64 39.49-29.98 30.08-37.35 7.41-11.51-1.9-36.04-6.55-36.12 0 0 39.79 8.97 35.9 1.89-1.78-3.24-4-8.81-12.84-14.72-10.19-6.8-28.1-4.33-42.58-7.36-15.49-3.25-25.46-8.78-38.49-9.56-19.64 1.79-37.98 19.03-32.85 33.1m-443.39 148.06-54.82 14.65s17.73 41.16 23.87 77.84c7.5 44.89 1.5 93.68 1.5 93.68l159.11.81z"/><path fill="#d40000" d="M865.93 1255.46c-20.94-7.27-21.37-20.45-22.09-37.25-1.24-25.48-1.02-52.3 2.64-73.06 1.4-6.31 2.15-9.54-4.15-11.77-3.48-1.2-6.95-.72-10.42-1.25v-15.71c6.6-.35 12.73-.33 18.3 2.96l5.3 3.22c8.2-7.76 29.77-8.92 40.01.67 6.8 6.85 8.99 12.58 9.43 28 .33 11.38 0 12.15 0 12.15l11.82-.07v15.29h-11.82s.26 7.6 0 24.06c-.2 12.82-.45 21.19-1.35 27.29-4.02 21.28-22.96 30.27-37.67 25.47m22.67-26.31c4.12-10.97 2.4-53.37 2.4-53.37-17.64-6.78-25.12-17.4-32.3-24.96 0 0-3 47.06.58 72.41 3.25 21.03 22.23 24.16 29.32 5.92m.1-71.31c.97.14 2.06.21 2.2-.2 1.35-3.81-.99-19.75-4.98-22.95-10.73-8.61-20.53 0-20.22.39 5.06 6.88 11 14.44 18.68 20.41 1.45 1.2 2.68 2.11 4.32 2.35m-527.1 30.04C291.79 1088.24 227.1 993.46 141.22 889c0 0 .07-40.38.37-80.42l263.84 378.31zm244.39-130.19c34.59-37.53 60.78-77.54 84.04-118.4 26.5 47.06 57.19 85.41 91.06 117.07-33.21 33.57-63.34 71.99-87.2 120.27-19.39-36.9-44.54-75.39-87.9-118.94m229.56-12.07c14.75-15.46 27.45-32.77 39.39-51.05 13.26 18.81 21.25 32.87 39.06 52.71-15.3 16.2-28.16 32.48-38.64 50.2-12.62-20.11-25.78-38.81-39.8-51.86M502.92 1027c-2.25-18.92-6.11-41.57-11.65-61.06l48.17-45.42c-5.2 40.59-13.17 71.72-36.53 106.48m230.24-143.16c10.78 14.32-7.41 22.27-14.29 15.9-13.93-12.92 6.48-26.27 14.29-15.9M255.5 793.67c-8 5.12 14.36-124.87 75.74-192.05 37.32 106.93-28.54 166.88-75.74 192.05m302.77-.48-40.75-11 20.3-57s38.26 8.96 35 20.8c-10.63 38.53-14.55 47.2-14.55 47.2M369.6 771.27c11.04-18.14 19.42-38.15 27.13-58.62l57.96-8.03-33.59 65.15zm245.67-79.99c-31.55-62.81 5.61-162.23 74.25-189.6-2.48 63.7-22.23 128.23-74.25 189.6m-212.03-17.85c1.39-22.3-1.17-45.68-4.25-66.4l143.47 19.12 5.01 60.14zm104.99-95.54c4.86-19.12 9.18-35.04 18.57-50.55 10.45.34 52.82-6.63 47.41 1.6-11.51 14.73-17.03 38.65-24.57 53.7-7.91-.84-43.78 5.33-41.41-4.75m-95.03-10.95c-14.51-5.12-34.35-6.55-42.07-17.78l15.1-47.82 44.7 13.71zm125.45-456.35 35.03-.33S742 325.64 805.09 409.45c-2.1 8.53.7 80.83.7 80.83-89.35-125.76-267.15-379.69-267.15-379.69M215.86 411.11c-9.42-10.1 5.55-19.06 11.78-10.03 5.48 7.95-6.82 15.35-11.78 10.03m188.87-35.32c.54-49.9 35.93-109.14 35.57-107.63-.41-.1 5.04 48.8 11.84 64.18-1.83 2.71-45.74 46.58-47.41 43.45m-150.77-16.56c-27.44-52.46-60.41-92.21-89.13-120.06 35.77-33.83 62.58-75.61 90.1-116.78 22.71 43.18 52.24 82.65 85.36 120.15-33.22 32.62-64.6 78.84-86.33 116.69M33.22 252.73c16.07-16.02 39.82-52.5 39.6-52.54 11.3 18.46 23.2 37.57 39.6 52.82-.16-.16-25.41 26.97-38.45 52.49a220 220 0 0 0-40.75-52.76M30.94 136.7v-15.46H42.5s-.13 1.26-.04-19.82c.13-29.48 1.6-38.53 7.5-46.06 15.87-20.28 45-14.06 52.65 11.24a50 50 0 0 1 2.03 13.26c.34 16.77.37 44.6-.19 62 .28 6.8-2.15 15.7-3.9 17.21.84 6.2 10.59 7.44 16.7 6.96v16.17c.02-.09-6.2.6-13.54 0-3.1-.25-10.23-6.14-10.23-6.14s-11.3 7.77-21.44 7.56c-33.2-.69-29.51-42.12-29.41-46.86zm26.6 4.08s.02 5.82.37 9.7c1.17 12.85 9.56 19.51 17.91 17.22a17 17 0 0 0 6.62-3.8c-7.1-10.55-15.56-19.42-24.9-23.12m30.84-64.3c-3.55-19.38-21.8-22.35-28.67-5.95-1.24 2.95-2.27 26.3-2.27 26.3l.14 27.59c14.8 3.25 22.97 12.75 32.22 23.53 0 0 1.86-49.58-1.42-71.47"/><path fill="#131f67" d="m134.67 101.46-1.32 1091.99 679.45.13-.23-1090.36zM755.6 110c-5.53 60.42-6.5 107.77 24.86 170.44-5.66 5.94-48.32 7.62-61.77 14.65-.24 1.69 3.45 4.6 3.45 4.6 14.07-6.52 68.91-12.47 68.91-12.47-22.96-40.04-41.86-117.04-27.63-176.1l39.58.14-.25 290.95s3.11 56.16 4.28 87.8c-21.07-27.23-49.02-65.28-67.27-93.51-22.14-31.15-46.8-67.7-72.11-101.98-7.46-10.8-18.1-24.81-26.78-37.43-13.64-19.48-24.9-34.6-39.05-55.58-15.1-21.72-29.56-41.43-47.51-66.65-15.21-21.47-15.92-24.01-15.92-24.01zm-259.97 1.13c25.65 44.6 71.59 59.7 83.14 62.7l6.72 9.82c-54.15-10.62-83.15-45.38-96.77-66.88-1.06-1.67-.94-5.51-.94-5.51zm-25.4 0c-7.1 16.84-17.03 26.51-26.45 36.71l.33-10.83c.29.68 14.1-14.64 18.85-25.88zm12.42 0s.2 2.88-.65 5.24c-5.43 17.56-39.2 50.88-38.23 45.89l-.34-8.6c-.15.37 25.36-24.29 32.04-42.53zm-24.55 0c-2.63 4.9-12.45 19.7-13.33 15.6l.87-15.6zm77.13 0c4.26 6.16 8.12 10.66 12.6 16.96.83 1.2 1.33 2.62 1.13 3.16-.69 1.75-2.7.45-8.3-4.5-9.16-8.13-15.4-15.62-15.4-15.62zm-34.14 0 8.3.02c17.17 28.52 47.98 43.7 58.64 47.02 2.85 3.13 5.91 8.87 7.1 10.14-28.75-7.8-60.97-32.1-74.04-57.18m20.16-.12c9.15 13.2 23.48 22.45 31.56 28.77 4.34 3.4 10.07 10.35 9.53 11.73-17.98-5.68-39-25.61-48.66-40.38zm-35.24 8.17 5 7.95c-12.11 19.96-27.3 37.95-47.55 52.12l-.1-10.42c22.97-16.55 32.9-33.18 42.65-49.65m8.1 11.52a153.5 153.5 0 0 0 95.44 58.54s2.83 2.56 6.96 8.18c5.25 7.14 5.32 7.42 6.02 19.12.46 21.41 7.42 50.47 14.33 68.75-.86 4.54-1.66 6.86-10.23 18.43-35.7 48.23-111.78 93.85-149.26 31.59-12.5-19.95-13.72-58.2-14.51-82.04 0 0 .24-1.68.33-2.13.9-4.33 2.14-3.65 8.9-1.8 6.86 2.95 14 .57 21.26-1.4 8.27-3.34 8.96-.77.99 6.67-2.76 2.57-6.13 6.5-5.78 6.32s5-2.09 7.04-3.65c6.37-4.85 7.88-2.99 5.52 2.35-10.02 22.63-11.8 23.54 2.3 29.82a25 25 0 0 1 6.58 4.21c9.63 9.07 6.17 4.19 3.48.02-4.14-6.5-.4-9.95 6.6-5.92 4.67 2.7 10.8 4.87 14.15 3.84 6.47-2.1 8.45-9.2 6.53-17.02-1.54-4.32-10.4-11.95-8.35-3.96 5.32-.24 9.92 7.3 5.3 12.41-3.5 4.7-9.72 2.17-19.27-4.14-5.27-3.97-11.67-1.94-11.43 2.94.17 3.27-4.47 2.52-7.48-1.65-1.67-2.32-.54-9 2.6-15.3 19.8-39.8 3.11-78.37-31.16-67.5a286 286 0 0 1-7.17 2.17l-.18-15.22c19.67-13.71 40.55-35.58 50.5-53.63m20 71.43c-5.17 6.24-3.33 11.8 8 6.2 9.25-4.55 10.53-5.09 20.6-5.45 14.29-.52 27.11 4.03 42.98 13.76 10.52 6.45 12.06 6.94 9.2 2.9-8.5-16.26-58.72-40.95-80.78-17.4m-48.53 1.85c9.92 2.5 19.44 9.05 17.78 11.77-.6.97-1.17 1.16-2.43.5-7.26-3.58-18.82-9.44-35.54-2.3-1.84.8-2.87-.43-2.86-2.65.02-4.32 7.27-7.76 14.94-8.04 2.74 0 5.72.14 8.11.72m57.61 12.62c-5.9 3.07-7.94 4.7-10.45 3.33-6-3.28-4.73-.7-1 5.9 2.62 4.66 2.6 5.62 2.21 8.47-.42 3.1-.36 3.22 2.66 6.54 5.64 7.42 11.25 14.57 19.7 20.2 2.64 1.75 6.15 3.74 6.42 3.75q1.27.06-.99-2.11c-10.82-10.41-19.35-19.74-8.33-15.77 12.83 4.18 25.03-1.03 35.03-4.43 4.08-1.26 8.37-2.32 9.43-2.32 9.23 0 11.42-3.84 5.51-9.7-19.99-22.42-36.57-27.7-60.19-13.86m47.43 4.2c4.13 3.81 6.3 5.89 5.9 6.88-.45 1.07-3.63-.74-8.96-3.58-10.72-5.72-22.88-7.06-38.07-2.68-11.8 3.4-8.32-2 4.83-7.08 10.52-4.86 25.04-3.4 36.3 6.46m-110.14-7.72c9.01-.15 18.4 2.81 24.67 8.22 4.38 3.77 1.18 4.65-5.93 1.71-10.77-4.45-19.83-5.16-28.66-1.03-2.78 1.3-5.97 2.85-6.85 2.76-1.47-1-2.1-3.9-.82-5.95 3.55-3.49 10.59-5.6 17.6-5.71m148.49 3.09c.66.03 1.65 1.08 3.14 3.16 2.7 3.78 2.8 5.65.56 12.27-2.73 8.1-3.82 6.78-4.5-4.5-.45-7.32-.46-10.99.8-10.93m8.93 12.2c1.03-.15 2.23 1.66 4.15 5.4 1.34 2.62 1.02 3.4-3.16 15.64-1.75 5.13-3.4 9.2-3.44 9.24-1.3 1.02-1.12.93-1.67.22-2.98-3.8-2.77-11.24-.2-20.14 1.95-6.75 3-10.18 4.32-10.37m-81.18.93c.33-.03 2.33.4 2.33.4-.21 18.14 13.8 14.49 15.66 1.61 0 0 3.46-.35 3.99.5 1.66 2.7-2.2 10.46-7.97 13-4.2 1.87-9.93 1.42-13.35-1.73-.96-1.77-3.85-8.51-3.31-11.3.67-1.64 1.68-2.4 2.65-2.48m-8.35 2.12h.42c1.37.07 2.38.44 2.92 2.1l3 9.22c-2.2 2.64-10.6-2.72-10.59-6.73a4.5 4.5 0 0 1 4.25-4.6m-57-.01c2.11-.2 2.86.03 3.1 2 .72 6-5.27 12.5-13.03 12.85-7.51.84-11.57-4.99-11.34-10.67.02-4.32 3.74-4.86 4.15-1.45 1.2 9.86 9.62 10.43 13.47 4.99 1.45-2.14 1.12-7.4 3.64-7.72m92.25 2a8 8 0 0 1 2.57.6c7.75 2.48 7.96 3.68 1.33 6.07-7.9 2.84-8.41 3.22-6.56-2.3 1.03-3.07 1.34-4.31 2.66-4.36m-82.14.86c5.75.36 6.23 5.22 1.17 6.84-7.52 3.32-10.05 3.1-7.14-1.8 1.59-3.46 3-4.97 5.97-5.04m-35.93 1.75c.68 0 1.47.26 2.31.89.86 2.6 2.32 4.6 3.48 7.3-1.17 1.17-3.99 1.15-5.79-.27-3.59-2.85-2.98-7.89 0-7.92m180.6 5.62c2.23 0 4.5 3.54 5.23 6.18-7.79 10-6.57 28.7-8.37 34.35-1.58 4.59-2.08.62-6.42-11.27-1.75-4.8 7.07-28.67 9.11-29.2q.22-.06.45-.06m7.96 10.26a9.2 9.2 0 0 1 4.51 6.84c.24 2.08-.78 4.84-1.45 7.57a203 203 0 0 0-4.47 30.09c-.32 4.82-.3 9.16-.52 9.58-2.34 4.59-7.29-7.77-6.86-17.62 1.54-7.85 2.4-35.38 8.8-36.46m11 14.13c1.1 1.53 1.8 2.7 2.14 4.02.59 2.3.1 5.03-1.25 10.87-3.58 15.48-3.06 32.16-.73 49.29.5 3.6-2 1.8-5.8-4.41-2.09-3.44-3.43-8.16-4.08-13.73-1.32-12.17 1.23-28.67 3.39-41.7.95-5.75 1.62-10.83 6.33-4.34m5.94 9.42 6.26 7.54s-2.68 17.35-2.66 26.6c-.43 3.47 3.11 41.17 4.27 44.22-3.85-4.3-5.64-6.84-9.86-12.25-.49.07-4.13-37.15-1.61-51.38 1.52-8.61 3.6-14.73 3.6-14.73m9.82 14.99q1.56-.05 4.06 3.5c1.52 2.13 2.26 3.87 2.34 6.52.06 1.93-.9 3.42-.93 6.86-.17 20.5 2.6 39.86 6.09 58.52 1.23 6.68-1.17 3.95-5.13-.27-3.62-3.87-3.7-5.34-5.63-10.83-.39-1.1-4.25-38.92-4.21-41.78.13-11.75.47-18.3 1.82-21.11q.65-1.38 1.59-1.41m-22.75 41.2s-7.28 3.75-9.2 2.44c-3.07-8.4-14.17-30.86-14.36-34.83.2-1.31 4.55-7.22 4.55-7.22 6.13 13.3 11.65 26.92 19.01 39.61m-137.13-26.97c-2.2 2.58-4.82 1.5-10.1-.83-2.73-.83-2.3.29-6.8 2.62-3.47 1.8-4.7 1.85-7 1.83-3.04-.02-4.14-1.09-4.15 1.05 0 1.18-.18 6.53-.9 9.3-.97 3.75-1.83 5.41-1.3 6.07 1.56 1.41 2.85.55 6.12-2.6 5.4-5.23 9.05-3.73 15.08-1.78 6.85 2.2 8.27 3.02 14.54.83 8.88-3.1 14.22-3.1 17.77-.86 6.09 3.88 7.93 3.66 5.42-6.96-.81-3.42-.87-8.72-1.37-9.64-.56-1.04-2.12 1.93-3.73 3.02-3.1 2.09-4.71 2.05-11.7-.24-4.14-1.36-8.77-5.8-11.88-1.81m112.4 1.38c2.71 6.37 13.48 27.67 13.15 30.05-2.1 1.88-4.9 3.25-6.56 1.57-5.39-9.82-7-15.11-11.37-26.14-1.3-2.63 2.6-9.34 4.79-5.48m57.82-.78c.76-.1 2.35 1.47 3.54 3.06 3.68 4.93 3.9 5.54 4.02 10.83.42 19.16 2.83 41.71 8.23 59.1 1.07 3.43 3.08 7.59 2.86 8.15-1.81 2.64-10.2-4.42-12.74-15.17-3.5-13.65-5.54-27.89-6.65-37.15-1.4-16.3-1.4-27.97.74-28.82m-64.59 10.57c3.1 5.98 7.01 16.3 9.64 22.49 1.2 2.68-4.93 4.8-6.34 3.89-2.45-1.83-3.6-6.98-5.22-10.06-5.12-11.2-6.04-11.43-3.2-14.91 1.75-2.43 3.83-5.4 5.12-1.41m76.74 6.86q.67-.02 1.77 1.39c3.23 3.82 5.44 6.74 6.28 9.58.61 2.05.12 3.6.34 7.32.58 9.76 3.14 23.09 10.4 50.35.72 2.66 1.68 5.8 1.55 6.66-.7 5.01-8.04-3.1-10.18-11.49-2.48-9.51-7-21.66-8.33-32.9-2.75-17.84-4.27-30.91-1.83-30.91m-83.2 7.2c6.1 14.26 6.58 14.23 2.74 15.36-4.06 1.19-4.3.8-9.08-8.9-3.48-7.08-4.17-7.97-1.24-10.52 4.47-5.27 5.64-.25 7.58 4.07m-85.04-3.4c-.7.01-2.74 1.56-4.8 2.38-5.04 2-14 2.13-19.46.49-9.67-3.89-6.95 1.16 1.6 4.23 6.65 2.23 19.8.5 21.85-3.64 1.25-1.33 1.7-3.48.8-3.46m73.58 7.5c5.44 8.42 7.08 11.78 6.16 12.44-.87.87-5.18 2.5-6.96 1.63-2.23-1.1-4.17-6.3-5.15-10.38.69-1.99 4.27-5.56 5.95-3.7m-136.54 3.55c2.43.01 8.77 8.53 7.48 10.06-.35.8-2.73.04-8.28-1.5-1.85-.68-6.04-1.23-4.71-3.91.65-1.22 4.54-4.65 5.5-4.65m130.7 11.67c-.55 1.46-4.66 1.8-6.4 1.7a24 24 0 0 1-2.32-6.69c.57-1.24 3.39-4.45 4.77-3.82.84.74 3.52 7.27 3.95 8.81m113.4-8.2c.87.02 2.38 1.55 4.6 4.74 4.23 6.04 3.66 5.6 6.69 20.03 3.44 16.35 7.55 28 11.71 44.71.06 2.78-1.07 2.04-4.15.16-5.02-3.06-6.68-6.46-8.26-15.33-2.7-14.65-8.42-28.2-10.61-45.5-1.16-5.73-1.25-8.86.02-8.82m-126.77 5.85c2.97-.1 2.57 4.47 1.72 5.21-2.17 1.9-8.15 1.33-9.18 1.44-2.3-3.6 5.52-6.53 7.46-6.65m141.86 15.56c.88.12 3.22 3.44 7.6 9.6 4.23 5.93 3.3 4.96 5.82 14.71 3.58 13.48 9.48 23.2 12.94 35.6 0 1.42-1.72 1.24-3.35.57-3.2-1.34-6.06-3.6-8.76-5.82-1.85-2-1.84-4.54-7.3-23.34a295 295 0 0 1-4.96-18.86c-2.06-8.62-2.98-12.6-1.99-12.46M254.2 402.7c14.35 26.38 9.03 38.08-21.8 41.73-2.23-.3-.13 13.52-.19 19.7 15.45-8.84 34.13-10.9 51.35-16.45-4.69 15.01-12.92 32.02-37.84 29.4-26.05-20.13-56.72-8.03-77.53-16.2-11.31-4.22-15.63-16.8-15.77-18.95 13.57 1.36 28.9 4.27 42.05 3.32-14.37-11.07-10.16-26.38-8.14-33.38-16.81-21.2-2.78-45.04 21.64-39.5 2.52.58 7.5 3.03 7.5 3.03 23.55-21.08 50.85-1.27 38.73 27.3m476.5-12.84c.98-.09 3.13 2.46 7.45 8.5 12.8 17.91 23.9 34.58 23.72 35.52-.55 3.08-13.9-2.32-17.26-6.74-3.84-5.04-14.63-30.96-14.62-35.08.01-1.38.2-2.15.71-2.2M209.15 466.6c6.66.98 8.53 1.54 8.45 4.14.57 2.22-16.16 2.51-18.43.87-1.81-1.31.53-4.18 2.32-4.87 2.58-.78 5.15-.5 7.66-.14m461.34 2.37c-93.5 44.16-131.75 161.62-84.56 251.63l-6.5 4.7c-46.26-95.17-11.84-197.15 63.34-248.66 3.04-2.16 9.77-3.83 12.9-5.9 0 0-30.67 7-41.05 11.05-2.1-.07-8.3 2.11-14.94 9.32-5.8 5.38-23.97 30.43-23.4 31.3l-48.26 1.94.04 1.79 47.38-1.1c-48.8 80.33-36.8 156.76-6.68 210.25l.75.5c1.75 1.17 6.35-2.2 15.9-11.26 3.95-3.73 8.9-8.36 11.04-10.3 5.9-5.41 14.32-14.75 20.1-21.5-32.8-66.85-.44-154.92 76.32-194.6.14-2.11-.81-8.56-.81-8.56s-2.9-2.6-4.61-2.34c-85.53 37.67-119.8 131.22-85.02 216.3l-5.74 6.24c-43.69-88.1 3.21-198.21 84.99-229.4-.04-2-1.81-4.54-4.01-3a174.13 174.13 0 0 0-83.51 234.87l-5.45 4.81c-49.2-97.69 2.64-207.15 83.91-244.56 2.4-.55-2.13-3.52-2.13-3.52m-475.88.91s-.62 5.2 1.22 6.98c.85 3.71-.5 3.31-3.66 2.56-7.78-1.86-1.72 2.57 4.65 6.14 6.26 3.51 5.42 3.4-.05 6.86-3.67 2.33-3.28 3.2-2.8 4.97.74 2.62 1.24.88 2.76-.52 3.2-2.94 5.75-3.68 8.6-3.67 4.26.02 4.7 3.44 3.94 6.1-1.7 5.6-7.45 5.3-12.18 3.9-7.72-2.27-20.33-15.67-20.13-23.55-.54-7.06 9.12-10.09 17.65-9.77m34.73 1.73c3 1.1 6.76 2.57 10.9 4.3a65 65 0 0 1 15.27 7.28c11.4 7.6 10.7 22.78 9.87 24.3l-58.85 55.77s-3.32-1.63-6.45-3.22c-9.9-5.05-12.28-7.71-6.79-10.5 2.67-1.36 3.53-4.28 3.9-7.13.52-3.82.32-3.17 2.6-4.91 3.98-3.03 4.17-4.28 4.19-9.32.01-3.33.36-4.87 1.57-6.96.97-1.67 1.98-5.14 2.66-9.12.1-.65.14-2.29.27-2.86.7-3.12 1.68-4.04 2.34-4.75.66-.7 1.72-3.1 2.46-5.19 1.64-4.64 1.33-3.96 3.98-3.44 3.85.75 3.3 3 2.88 6.56-.2 1.73-1.36 2.94-.96 2.56.52-.53 2.89-1.64 3.38-1.75 1.23-.29 2.46.14 2.77 2.07.18 1.07-.29 3.05-.26 4.59.08 3.96.24 8.72 1.15 11.85 4.37 15.08 3.5 13 2.01.44-.35-3-.77-7.41-.34-11.09.3-2.59 1.04-5.8 2.05-7.54 2.59-4.5 2.73-5.4-2.87-7.61-2.1-.82-5.63-2.27-6.37-3.7-.9-1.76-3.57-4.16-7.04-4.97-8.46-2-13.38-10.16-12.15-11.37.8-.8 4.2.24 6.35.32 7.72.27 9.36-.12 12.78-3.06 1.83-1.56 2.64-2.96 4.1-3.06 1.52-.03 3.47 1.11 4.6 1.51m400.6 9.04c-79.06 63.96-92.92 167.44-53.47 247.29l-6.83 5.36c-49.57-93.66-16.28-194.7 44.62-249.95zm-456.47 7.62c1.4-.13 2.92 1.92 8.47 7.85 3.74 4 7.64 7.47 9.68 8.63 4.65 2.23 3.63 1.3-.24 4.98-3.95 4.53-1.77 8.27-6.5 6-12.3-5.78-20.94-22.8-12.94-26.9.6-.3 1.06-.51 1.53-.56m-6.12 17.9a3 3 0 0 1 .95.1c1.51.36 3.36 3.22 5.33 5.2 5.47 5.51 8 7.95 12.38 9.89 4.3 1.9 4.41 2.36 1.39 5.71a10 10 0 0 0-2.01 3.5c-.26.82-.33 1.86-1.25 2.04-4.8.92-20.7-8.74-21.33-15.4.5-6.23 2.08-10.86 4.54-11.05m33.73 1.85c2.76-.07 4.39 2.4 4.37 6.38-.01 2.77-1.57 3.9-4.73 5.08-6.76 2.53-10.92-2.31-6.2-7.65 1.99-2.25 4.67-3.76 6.56-3.8m-4.12 16.24c5.1.02 6.57 4.32 2.83 8.03-3.5 3.48-10.6 3.5-10.58-.33 0-3 4.5-7.72 7.75-7.7m-31.62 5.14c3.45 1.02 11.85 7.07 15.54 7.78.2 2.04-2.26 2.6 1.22 6.44 1.59 1.74 1.72 2.93.35 3.66-4.22 2.24-18.81-4.85-19.78-12.16-.48-3.56.7-5.6 2.67-5.72m19.04 8.74c5.02.21 10.7.36 10.1 2.76-.43 1.74-2.23 6.33-4.53 5.47-1.11-.42-2.2-1.53-2.97-2.27-2.68-2.57-3.4-6-2.6-5.96m189.86 20.79c14.63 13.24 67.76 151.55-42.96 252.32l-23.5 7.04c106.31-83.47 88.62-201.98 59.94-253.1 0-1.5-.42-1.33-3.07 1.07-2.3 2.1-2.56 2.55-1.63 2.93 32.42 49.89 44.54 190.8-83.2 258.79-2.13 2.22 2.2 1.88 2.2 1.88.23-1.83 57.52-15.75 53.47-16.1 53.4-47.2 99.9-159.76 42.02-257.87-1.4-.92-3.27 3.04-3.27 3.04m-18.44 15.66-.74 3.12c46.34 90.98 2.1 202.45-84.04 243.7 1.41 1.05 2.99 1.76 4.57 2.5 97.72-52.62 125.9-163.99 83.27-250.25zm-7.75 6.45-.54 3.3c38.37 77.44 7.9 184.9-83.66 228.48-.87 4.7.02 3.32 4.3 3.1 105.95-56.82 115.9-164.87 82.76-235.04zm-6.58 9.28c-2.99 3.96-8.47 6-10.3 11.1 30.8 81.35-8.99 159.65-76.34 192.66-.05 4.1-2.98 14.23 4.14 12.6C342.17 769 378.37 668.82 342 589.96c0 0-.48.35-.53.36M759.39 747.6c3.05.22 5.8 1.14 8.64 1.51 10.34 1.34 17.04 8.87 12.43 13.46-1.52 1.5-3.64.64-10.35-2.65-3.09-1.5-3.58-2.91-4.22-6.32-.77-4.08-1.58-4.49-2.62-1.33-1.04 3.2-2.17 5.19-5.7 4.37-9.91-2.3-6.16-9.12 1.82-9.04m-110.56 69.26c-24.81-14.09-55.46-39.48-72.97-68.34-8.72 16.35-18.95 46.09-18.95 46.09l-38.95-10.88-.46.81 38.5 11.1-3.75 12.84c-.4 1.39-6.37 16-6.37 16L606 852.56c-3.72 5.83-7.79 9.6-12.95 15.04-2.93 3.07-3 7.04-3 7.04l83.37-79.53s10.75 15.95 14.75 19.57c3.75 3.4 4.92 4.22.54 5.23-19.59 2.87-34.79 17.7-29.49 37.6.86 2.2 2.59 1.4 6.3-.94 13-11.78 44.8-22.68 45.88-19.91l.13 12.66c-34.23.5-30.72 25.66-28.22 39.15 0 .3-9.9 8.95-9.9 8.95a92 92 0 0 1 10.17 6c-3 16.78 11.3 41.1 39.39 28.65a165 165 0 0 1 7.4 8.13c2.87-3.33 6.18-11.18 6.18-11.18 13.96 6.32 42.91-7.81 28.1-40.19l8.17-7.78-7.85-4.95c-.2-8.23-1.47-15.58-6.39-22.75 0 0 13.17 3.36 22.92 3.92 6.02.54 11.1.7 10.59-2.94-.15-1.07-1.05-6.31-1.64-8.03-2.9-8.48-17.98-14.7-32.63-15.53-2.39-.13-4.96-.06-5.47-.67-.96-1.17.76-2.82 2.33-2.55 8.03 1.4 15.74-4.53 17.13-12.07.27-1.32 1.91-3.74 4.26-6.32 4.18-4.57 4.5-4.45 4.43-11.05-.06-4.58.75-5.6 2.86-8.67a21.2 21.2 0 0 0 2.62-16c-.43-1.88-2.21-4.53-.7-9.2 2.46-7.6-2.94-14.54-10.02-18.5-.57-.16-.4.4-.87.96-6.43 2-14.26-2.6-14.26-2.6-1.61-.8 5.47-42 20.16-38.31 2.45 1.48 3.48 8.63 3.3 8.76.67-.02 1.04-4.21.09-7.01-1-2.94-3.28-5.74-7.66-4.9-3.4.63-7.32 5.14-9.09 7.4-6.86 8.75-6.94 14.33-9.23 23.63-1.1 4.4-1.23 4.14-7.31-.61-4.37-3.41-6.49-4.5-4.97-6.5.68-.9 3.52-3.75 3.52-3.75l53.17-51.17v512.4h-300.7l2.1-65.84c5.64-46.31-4.28-143.54-11.8-152.68 5.8-6.5 23.77-22.2 22.78-22.9l-2.38-1.42-9.5 8.75-23.47-7.11c-10.02-6.92-20.23-13.3-30.83-16.03-17.3-4.44-50.64 9.71-50.67 9.86-53.25 3.94-95.9 25.57-95.3 25.4-2.31-2.13-5.39-8.93-5.46-8.89-27.46-38.2-54.44-59.6-91.3-85.7l46.69-25.8-110.66-115.61-.97-93.89 160.3-153.24c.94-2.65 51.14 35.45 69.83 66.45 3.59-15.15 10.26-28.91 15.82-43.8.58-1.36 31.9 11.58 41.18 12.13 1.39.08 2.5-1.38 2.5-1.38l-41.32-13.44 8.46-24.2s2.94-6.58-.38-7.67c-18.84-6.1-36.51-16.84-54.53-25.99 0 0 8.41-9.35 8.54-9.76.12-.4 3.53-5.41 2.72-7.14-9.17 8.89-83.96 78.25-83.96 78.25-2.12-11.9-5.46-16.07-12.74-23.41 3.97-.2 10.16-4.11 13.75-6.72 10.96-7.99 16.92-22.23 15.49-30.56-10.52 3.35-20.03 7.27-33.2 9.67-7.4 1.34-14.43 4.68-18.69 8.27l-.66-13.28c.03.15 17.73 3.1 25.94-8.78 7.06-10.24 4.16-21.96 2.54-27.93.19-1.33-.21-1.18 2.84-3.99 2.25-2.07 5.75-4.75 5.75-4.75.16-.75-9.14-4.2-10.7-7.34 2.46-24.62-17.2-34.12-33.85-29.75-3.11.94-4.6 1.52-8.3-2.6-.55-.61-4.99-5.3-4.99-5.3s-1.96 4.52-2.96 6.5c-3.27 6.44-4.16 4.5-11.2 4.84-17.84.88-25.79 15.27-21.7 32.95.97 4.15.53 3.5-2.19 8.75-1.39 2.68-3.66 6.1-3.66 6.1s3.27 1.81 5.47 2.8c3.27 1.46 3.43 3.16 3.42 6.42.46 7.17 2.03 11.97 6.16 18.13-13.97.32-24.69-.98-37.34-5.18 1.94 19.45 16.28 26.69 33.83 29.54 0 0-1.84 1.72-3.78 2.49-4.1 1.19-6.68 4.8-6.64 8.03a15.4 15.4 0 0 1-4.42 7.83c-2.74 2.37-4.99 5.7-3.9 12.15-.28 4.67-1.41 6.02-2.79 7.8-2.75 3.59-3.68 7.15-2.99 11.86.32 2.2 1 6.88.54 11.73-.75 8.09 2.14 11.12 5.82 16.8 2.38 3.7 1.88 3.8 1.32 6.47-1.32 6.42-2.7 9.72-4.12 14.6-3.2 10.94-3.32 19.23-.7 21.36 3.93 3.21 8.4 2.25 10.46 1.6 15.54-4.79 12.85-20.04 13.66-30.28.45-2.63 1.35-3.9 2.22-3.77 4.4 5.14 9.03 8.11 15.02 11.35-20.68 21.04-34.19 33.92-60.32 56.87l.7-512.52h298.16s.32 3.8-.4 22.34c-1.29 37.69-2.87 77.17-.4 115.6.42 13.29.15 26.42 2.06 39.58 1.86 12.82 2.68 26.64 8.67 38.58 2.4 6.47 2.48 5.97-6.69 14.44-4.5 4.16-8.32 8.59-8.15 9.37.05.26-.2 1.23.49.68.46-.37 3.78-3.66 4.15-4.09 2.48-2.93 6.64.83 20.83 4.83 2.77.79 6.7 3.4 9.7 5.58 21.2 17.86 51.03 12.3 73.33 2.55 6.33-2.77 7.88-3.05 18.05-4.26 37.67-4.46 77.9-20.92 77.82-20.87l4.92 8.05s1.85-.34 3.17 1.69c21.67 40.91 92.39 87.67 91.13 85.5l-46.23 25.6c33.66 41.58 110.63 112.13 110.63 112.13l-1.78 101.4c-20.66 16.52-38.83 35.47-57 53.96-5.22 5.18-8.91 8.13-6.93 8.23 4.71-.72 8.8 3.93 12.63 7.16 2.43 2.7 1.84 2.46-.96 6.16-1.97 2.6-2.7 3.36-2.7 5.24.07 3.64.04 6.07-3.2 8.8-2 2.53-3.16 4.14-3.52 7.14-.36 2.98-.34 4.9-2.4 7.54-3.48.74-3.8 5.81-3.2 8.08 3.66 3.61 2 7.53 2.33 6.7-6.97 7.56-14.27 14.11-9.6 3.55 2.1-3.94 2.83-7.2 2.83-7.2s-3.35 3.47-5.1 5.12c-2.69 2.48-3.67 1.02-3.75-6.7-.35-5.84-2.8-13.98-3.79-15.54-.54-.87-.64.64-.38 6.26.34 7.4 1.22 9.54-1.39 16.92-3.51 9.98-6.01 11.39-.3 11.05 5.4-.33 9.99-.39 12.35 2.84.8 1.1 1.83 2.95 4.01 4.05 4.46 2.44 8 5.14 10.47 7.83 8 8.7 5.72 16.48-9.77 11.21-8.14-2.78-2.8-6.28 5.95-5.47 5.38.5 6.3-1.49 1.63-2.9-8.66-1.61-10.05-2.59-15.77 4.2-23.98-2.37-37.45-15.78-43.93-26.7-2.7-4.58-3.54-5.44-1.65-8.03.74-1.02.3-.71-.98.7-1.28 1.42-4.76 2.6-5.92 3.61-8.06 8.04-16.22 16.68-23.49 23.22m104.41-56.31c4.07.5 4 3.92.36 7.21-3.42 2.58-5.76 3.09-7.69 1.14-3.37-3.4.99-8.38 7.33-8.35m11.86 2.37c3.28-.02 7.47 1.5 12.44 5.63 5.94 4.93 7.29 16.88 1.84 18.94-2.29.87-2.64.02-7.5-4.6-3.29-3.12-6.85-5.94-10.35-7.6-7.16-3.41-8.07-4.7-3.23-7.02a9 9 0 0 0 2.93-2.72c1.25-1.99 1.62-2.62 3.87-2.63m-7.73 15.9c.95.03 2.22.6 4.2 1.67 12.07 6.59 17.96 16.91 13.88 22.74-2.68 3.83-7.04 2.36-10.36-3.06-1.87-3.05-6.83-6.96-12.47-9.82-6.46-3.27-6.6-3.74-1.94-5.97a9.5 9.5 0 0 0 4.3-3.87c1.08-1.91 1.17-1.72 2.39-1.69m3.86 24.6c9.12 9.1 8.07 14.01 2.15 17.7-4.04 2.53-10.52 3.16-12.64 1.07-3.44-3-3.35-6.44.45-7.55 3.54-.75 2.21-2.17-1.1-3.01-11.8-3.36-19.07-9.62-6.23-8.26 3.68.38 7.25-2.48 9.18-4.76 2.78-3.39 6.55 3.18 8.2 4.81m-621.33 3.5 265.9 380.68-214.97-.42s-.8-2.79.95-25.61c2.58-30.95-1.4-57.8-8.72-88.02.93-.11-10.3-36.69-19.02-54.56-1.58-3.75-1.32-4.11 3.83-4.77 15.21-2.45 31.6-6.13 46.8-12.56 7.07-.62 17.45 2.13 16.89 1.27-.25-.41-9.2-8.6-9.2-8.6-24.82 9.91-47.72 13.53-69.29 16 28.63 48.71 38.84 115.02 30.26 174.58l-41.2-.12-.12-293.14zm47.52 56.39c3.75-.15 13.12 6.45 14.26 11.42.23 1.02 2.66 7.12 5.39 12.8.05 1.05 9.27 17.7 5.22 16.25-8.06-10.95-22.46-29.6-26.08-38.68.01-1.21.16-1.75 1.2-1.8m28.74 16.66c.5 2.74 3.29 9.94 5.49 14.68 5.74 12.35 14.62 31.72 12.82 37.23-1.22 3.71.03 3.52-3.22-1.07a922 922 0 0 0-7.75-10.76c-2.9-3.9-.95-.33-2.61-6.67-3.96-17.97-10.36-27.4-14.5-37.9-1.49-4.93 7.86 2.5 9.77 4.49m5.11 2.74c.77.54 11.3 7.95 12.38 9.01 3.73 13.28 18.67 55.84 14.8 63.45-1.35-1.06-7.04-7.92-7.83-11.46-1.72-20.35-8.18-34.98-15.1-50.15-1.96-4.57-3.48-9.14-4.25-10.85m19.82 14.94c3.34 1.63 6.79 5.36 8.75 8.69 1.3 2.25 1.97 4.91 3.2 10.5 3.82 17.37 11.11 34.97 7.83 53.5-2.04 2.77-6.49-3.51-7.12-9.7-2.11-20.52-3.91-30.35-11.13-54.48-1.4-4.68-2.46-8.35-1.53-8.51m16.93 15.92c.71.03 2.17 1.35 4.6 3.64 4.74 4.45 5.41 6.08 5.43 13.46.16 10.85 3.77 23.23 4.33 34.17.32 6.32 1.48 22.66.5 23.63-1.37 1.9-7.5-5.02-7.01-15.64.77-12.75.14-22.36-5.3-44.43-2.52-10.2-3.78-14.56-2.7-14.81zm490.93-64.44c19 12.19 12.3 34.7 8.24 37.46 26.24 33.16-14.55 50.12-27.5 38.21-19.15 19.04-52.03 3.08-39.37-28.3 0 0-24.06-45.96 23.4-42.89 0 0 .81-18.56-.53-19.41-16.93-1.14-39.96 15.16-46.49 19.68-3.61 2.19-4.4 1.14-4.4 1.14-.91-9.64-.93-14.05 2.99-19.42 6.83-9.39 18.13-12.56 32.97-15.81 18.38 5.65 35.87 14.53 52.89 13.15 9.37.05 18.96 1.57 28.04 6.44 6.13 2.9 9.32 13.74 9.32 13.74-9.61 5.03-39.56-4-39.56-4m-9.03-68.15c.08-3.3 3.8-6.97 7.46-6.53 5.03.36 5.68 6.31 1.21 8.5-1.3 1.05-5.47-.5-5.69.67.3 2.02-1.74 1.17-2.13.43a5 5 0 0 1-.85-3.07m-3.05 12.97c1.84-1.3 3.39-1.4 5.24-1.65 2.86-.34 6.5.09 7.32 3.08.8 2.93-4.84 4.66-9.39 4.74-2.32.03-5 .48-5.7-1.14-.65-1.53 1.6-4.34 2.53-5.03M161.82 584.32c3.67-12.74 1.38-19.88 7.49-35.58l14.87 4.95s.63 15.4-2.37 23.98-12.86 15.42-20 6.65m110.8 344.6c1.75.2 6.06 6.34 8 11.94 1.79 5.2 1.2 11.8 2.5 17.41 2.92 19.2 2.75 38.44 1.97 44.26-.38 2.89-2.25 1.72-4.8-1.05-3.72-4.02-3.2-4.1-3.16-15.25.03-9.56-2.09-33.18-3.07-37.98-1.8-8.87-2.56-17.34-2.13-18.8q.19-.6.69-.54m173.94 2.3c19.15 3.05 34.47 16.13 43.24 37.65 8.47 21.89 10.56 51.75 11.87 79.2-.1 6.57-2.8 4.92-9.9.83-7.74-3.78-9.4-2.69-20.7-.09-7.06 1.61-6.43-3.19 5.18-11.16 3.96-2.57 8.56-6.02 7.05-6.53-.77-.27-4.3.69-6.86 2.75-11.4 9.21-14.49 11.45-11.2 2.49.83-2.26 3.47-8.53 4.57-11.54 4.13-11.25-.63-16.07-14.65-23.19-3.5-1.78-5.8-4.75-2.3 1.47 2.85 5.09-3.06 9.2-10.4 3.24-5.08-4.14-15.32-1.38-18.63 3.78-3.2 5.01-1.49 14.34 4.83 17.36 5.55 2.4 7.63.67 2.25-3.05-6.92-4.8-5.57-12.89 2.2-12.85 1.92 0 5.3 2.14 13.86 6.8 6.13 3.31 10.5 1.91 10.5-3.04 0-3.31 1.9-3.04 5.93-1.05 5.43 2.68 4.84 5.11 1.96 12.61-1.93 5.24-2.89 11.19-4.66 16.66-4.57 18.43-5.18 39.29-.13 45.8 13.45 17.3 27.73 15.47 39.96 4.04l-.53 18.94c-12.46 10-27.03 16.82-49.51 53.92-7.85-9.86-41.5-50.12-95.45-59.22l-12.14-16.61c.2-1.03-9.07-61.78-15.14-82.46 0 0 6.68-10.13 12.74-17.6 24.23-29.85 65.17-64 106.06-59.15m-70.36 17.24c-2.08.66-2.75-3.48-1.63-4.26 2.5-.22 3.39-.14 5.88.05 1.9.11 1.85 2.28-4.25 4.21m-91.05-3.1c2.7 1.92 5.98 7.09 9.2 11.8 1.78 2.6.77 6.92 1.05 11.19.39 6.04 1.06 16 1.48 22.13.83 11.95-.28 21.93-2.03 25.54-1.78 4.32-5.4 1.33-6.3-4.56-.21-1.43.97-16.07.97-24.12 0-13.83-3.54-30.9-4.37-41.98m81.67-.08c.95-.05 1.67-.02 2.3.78 2.91 3.73 4.09 5.98 1.44 8.02-3.5 2.93-6.7 2.19-8.65-3.37-1.25-3.97 1.71-5.22 4.91-5.43M356 948.55c3.13 2.1 6.24 7.62 6.56 11.6-.2 1.1-1.16 2.03-3.26 3.73-2.08 1.9-2.74 1.78-5.07-1.88-3.64-5.7-5.35-9.45-4.64-11.42 1.83-1.9 4.2-2.65 6.41-2.03m127.54.72c5.23.44 10.38 2.83 15.47 4.04l-7.76 7.5c-2.3-3.85-4.94-7.7-7.71-11.54m-139.14 3.91c2.87 3.73 7.87 13.5 7.6 17.12a9 9 0 0 1-3.07 3.03c-.95.26-1.8-1.41-5.04-7.13-5.63-9.95-7.28-12.76-4.36-13.95 1.54-.17 3.87-.1 4.87.93m-11.34 2.32c3.13 2.78 10.64 17.6 10.85 21.78a5 5 0 0 1-1.13 2.98c-4.72 5.07-3.53 4.25-10.55-10.21-5.94-11.9-7.5-13.07-3.58-14.4.87-.3 3.04-.7 4.4-.15m-11.27 3.87c2.06-.04 2.64 3.4 6.65 11.25 6.73 14.83 9.24 16.9 7.72 18.48-1.87 2.36-2.97 4.02-4.75 1.15-4.05-6.59-8.07-15-11.85-22.38-3.02-5.51-3.29-6.18-1.35-7.52a7 7 0 0 1 3.58-.98m119.96 4.2c-2.52.72-12.68 3.93-6.46 4.52 1.26.11 4.45-.69 6.68-.84 6.3-.43 19.37.75 18.9-.45-1.19-4.52-15.7-4.1-19.12-3.22m-128.75 1.38c0 .25 1.63 3.15 3.25 5.98 9.55 18.45 14.86 25.17 13.16 28.09-1.4 1.76-3.55 3.98-4.83 3.45-2.05-.85-4.79-6.88-11.62-20.56-7.06-14.13-7.8-15.19-4.17-17.02 1.49-.7 3.29-1.2 4.21.06m-9.54 6.51c4.39 7.14 3.8 6.2 3.76 29.43-.03 14.45-1.89 23.67-4.3 27.22-1.27 1.87-3.5.77-4.62-2.87-.5-1.67.94-4.14 1.2-6.79 1.72-17.38.52-34.76.57-51.22 1.32-.14 2.68 3.07 3.39 4.23m113.23 5.7c2.05 2.92 1.55 5.27 1.54 9.2-.03 5.55.38 5.96 4.2 3.15 3.4-2.48 3.68-2.64 9.74 1.47 3.6 2.44 8.13 2.72 11.07.02 2.07-1.9 2.78-1.04 5.56-.32 3.01 1.68 3.87 1.94 10.34-1.2 4.37-1.94 4.55-2.21 7.14-.85 4.57 4.03 5.25 2.57 4.63-2.7a41 41 0 0 1 1.09-7.5c2.27-9.37-1.41-9.47-6.28-3.5-1.89 2.3-6.1 3.31-10.06 1.45-5.69-2.68-14.57-1.6-21.14-.5-7.77 1.31-11.36-.83-14.48-3.49-1.77-1.5-5.81-2.85-6.26-1.7s.47 2.98 2.91 6.47m-104.16 13.14c.97-.2 2.47 2.67 4.65 8.78 2.82 7.87-2.1 35.26-5.07 39.74-1.57 2.35-2.57 3.8-5.8-.56-1.28-1.92-.28-2.53 1-7.91 1.92-8.19 3.55-21.45 3.65-27.61.03-8 .47-12.2 1.57-12.44m9.9 26.56c.7.06 1.52 1.63 2.64 4.76 1.58 4.28.82 12.55-1.27 18.87-1.2 3.68-2.35 7.61-4.4 10.91-.7 1.85-4.29 1.21-5.28-2.9-.62-2.59 1.53-5.81 2.58-9.94 1.05-4.15 2.24-9.42 2.84-12.07 1.1-6.48 1.87-9.7 2.9-9.63m76.63 12.14-.22.02-.06.06c-.16.17 7.47 8.48 9.51 10.81 1.08.9 10.28 12.08 4.55 9.51-14.43-5.97-31.32-3.03-41.72 6.99-1.3 1.26-2.37-.03-6.32-.32-8.07-.61-11 2.6-6.1 6.58.76.61 2.33.88 3.04 1.86.65.9.46 2.51.8 2.95 15.62 20.74 44.54 24.77 62.7 11.23 2.28-1.7 3.56-2.3 5.7-1.67 4.22 1.25 4.6-2.28.86-7.23-1.62-2.15-3.63-4.64-2.46-5.36 2.3-1.98 3.45-5.22-.57-6.43-2.76-.84-5.86-3.92-7.42-8.21-1.8-5.02-19.6-20.42-22.3-20.79m-70.9 9.08c3.4-.08 3.56 19.97-.2 26.06-1.92 2.3-6.33-1.99-5.67-6.38.5-3.35 4.11-18.42 4.94-19.2q.5-.48.94-.48m69.2 12.52c2.86-.04 6.75 1.24 9.86 4.04 1.67 1.52 4.6 8.08 3.4 10.65-.35 1.3-3.87 1.23-4.2.27-1.93-13.24-12.66-15.16-16.06-2.8 0 0-2.21 1.87-2.5-1.74.77-7.02 4.07-10.37 9.5-10.42m86.4 1.14a8.75 8.75 0 0 1 8.34 5.3c1.16 2.53 1.28 4.67.83 5.79-.35.83-1.5.47-1.5.47-5.45-14.94-12.86-8.03-15.54.23 0 0-2.8.86-3.15-.03s-.13-2.57.98-4.89c2.13-4.45 6.18-6.8 10.04-6.87m-72.85.93c1.93-.1 5.23 1.46 7.7 3.95 2.5 2.53 2.76 4.03.73 5.91-1.22 1.13-5.55 2.24-6.38.28l-3.65-8.51c-.35-.81.72-1.59 1.6-1.63m-26.24.4c2.16.01 2.62.5-.78 8.38-.72 1.69-9.42-.76-7.76-4.01 2.49-2.59 6.38-4.37 8.54-4.37m87.12.62c.87-.04 1.57.09 1.87.49-.77.28-4.06 8.59-4.06 8.59-3.1-.38-6.82.06-7.5-2.48-.63-2.39.63-3.85 5-5.53 1.32-.48 3.24-1 4.7-1.07m25.44 2.14c3.3 1.21 4.07 3.99 3.65 5.43-.33 1.09-1.88 1.1-2.98.26-1.05-1.21-2.6-3.29-2.48-4.68.34-1.4.76-1.41 1.81-1.01m-164.07 7.68c1.01 1.9 2.84 12.7.7 12.42-2.07-.53-3.03-3.79-3.4-6.72-.07-.6 1.78-5.63 2.7-5.7m36.25 5.76c.96-.13 3.37.71 6.96 2.74 11.8 5.7 23.92 6.51 36.77 3.64 7.42-1.93 9.31-3.06 10.36-1.78 1.78 2.16-1.03 4.32-11.5 7.84-11.49 3.86-23.4 3.21-39.07-7.84-4.21-2.98-4.76-4.43-3.52-4.6m131.04 2.98c1.95 3.62-4.67 7.07-8.02 8.03-7.13 2.06-17.92 1.1-24.02-2.56q-.76-.47-1.47-.98c-4.95-3.69-2.9-6.33 2.62-3.48 5.94 3.06 18.02 3.62 24.43.53 3.2-1.55 5.42-3.49 6.46-1.54m-146.64 6.76c-.66.15.46 1.82 2.76 4.31 16.15 18.13 54.69 27.97 76.36 9.28 6.78-6.37 5.75-9.23-4.95-4.14-11.84 3.89-28.65 4.4-43.2 2.24-7.15-.96-18.8-3.71-24.71-8.03-3.72-2.72-5.68-3.79-6.26-3.66m111.39.55c.99.07 2.71.44 6.47 2.39 5.47 2.85 17.9 1.87 21.97.37 8.57-3.16 10.33.85 2.2 5.34-9.04 5.48-21.54 3.34-28.83-3.72-2.26-2.02-3.48-4.54-2.49-4.75.1-.01.54.35.68.37m-107.1 32.07c31.81 2.9 79.83 34.47 98.54 72.39h-10.77c-18.8-29.84-47.75-53.86-82.09-62.82-1.35-1.05-6.41-8.25-5.68-9.57m141.21 6.95-1.47 10.48c-5.33 4.37-24.87 20.55-39.36 45.91-3.02-.14-4.49-3.78-3.98-6.26 11.6-22.88 25.47-35.52 44.81-50.13m-128.58 8.2c7.3-.5 54.8 25 70.78 57.24h-8.75c-18-23.42-37.98-38.71-55.73-44.84-4.31-4.54-9.03-12.2-6.3-12.4m127.1 7.29-.07 14.17c-11.36 11.06-19.67 22.19-26.17 35.78h-8.82s-1.96-3.89-1.28-6.31c10.03-18.04 19.64-31.18 36.35-43.64m-72.14 49.95h-8.54c-7.2-10.18-17.9-19.99-27.73-25.82-4.03-4.99-8.54-11.15-6.73-12.15.11-3.68 37.9 21.85 43 37.97m72.32-28.82-.18 8.19c-5.78 7.39-10.62 13.59-15.25 20.63h-7.27c6.63-14.32 23.3-32.69 22.7-28.82m-97.98 15.87c2.64.69 12.26 9.87 11.95 12.95l-4.33-.13c-2.43-3.06-5.31-6.26-7.02-9.39-1.07-1.98-1.76-3.83-.6-3.43m96.3 2.53q.05-.01.07 0c.02 0-.08 10.42-.08 10.42h-7.3c-.79-.15 3.53-7.87 7.32-10.42"/><path d="M648.3 108.61c-35.8 0-72 .2-112.26.63L807.9 494.97l.22-85.69-87.24-112.58c19.86-6.13 44.1-10.36 63.19-12.06-24.52-54.35-36.78-105.4-25.98-175.36-38.62-.45-74-.66-109.8-.67m105.27 2.46c-2.13 24.7-4.92 52.24-.44 82.83-14.15-5.17-17.46 3.66-19.8 4.59-2.68-5.94-12.53-16.2-23.7-4.14-5.8 6.28-2.98 18.08 10.49 23.4-15.43 1.19-23.45-12-26.15-25.6-8.34-5.34-17.11-10.61-17.94-29.33l4.27.71c-1.42 13.06 12.15 19.71 20.09 13.48 5.13-3.93 5.68-10 3.66-19.43 4.12-.85 13.78-4.9 11.23-17.3-3.53-17.13-21.13-15.12-29.16-3.86-6.69-8.27-18.94-9.8-23.85 3.04-2.74 7.16 3.5 15.2 10.59 16.75-15.74 3.02-23.68-18.68-24.56-33.37l-6.52-11.57c42.55-.25 61.15-.2 111.8-.2m-213.1.42 31.57.02 230.45 298.2.48 74.25zm79.83.02 5.03.06c3.94 26.25 19.04 45.25 44.86 54.5 1.34 21.44 11.68 50.57 50.91 60.41-1.15 24.22 14.4 47.35 31.05 58.44 0 0-4.5 1.12-8 1.45-22.4-17.75-27.91-43.89-30.13-54.67-.76-1.56-2.9-1.94-4.59-2.32-19.16-6.77-35.29-22.5-41.88-41.72l-4.14-18.85c0-2.43-.49-1.29-6.19-3.39-14.78-5.44-28.44-21.43-34.57-40.53-3.22-10.04-2.35-13.38-2.35-13.38m-20.3.06 17.68.02s.1 3.12.36 5.15c2.39 18.8 19.27 42.4 36.5 50.23 2.43 1.11 5.82 2.67 6.61 3.4 4.81 30.83 18.79 49.4 48.28 62.11.47.49 1.8.8 2.2 1.4 4.02 19.07 12.8 41.17 29.52 53.32l-7.23.74zm86.4 32.35a7.25 7.25 0 0 1 7.25 7.25c0 4-3.25 7.22-7.25 7.22a7.23 7.23 0 1 1 0-14.47m-244.15 39.54c.42 1.04-98.94 85.09-89.27 243.22l-2.87 3.22.78 1.13c-3.28 3.72-6.44 6.71-10.02 10.34 20.6 13.13 56.52 27.47 56.63 27.09l-6.86 15.9 42.92 13.87-5.75 15.1s-29.87-9.9-42.25-14.02c-6.1 13.54-9.8 27.84-14.24 41.92q-.63 1.7-2.92-1.6c-22.3-38.04-68.1-65.48-66.55-62.76l-162.41 154.1-1.1 95.23 112.4 115.83s-32.54 16.01-47.93 26.5c11.97 9.78 25.52 17.3 37.41 26.53 24.61 17.36 41.22 42.87 57.18 60.15 75.23-37.3 150.99-35.22 216.42-12.58-7.62 8.03-16.13 14.98-23.99 23.67 19.02 49.9 12.93 149.01 11.97 151.7 39.6-40.44 98.5-127.18 90.64-249.3l16.67-16.7c-.3-.86-41.68-23.01-58.92-27.83l4.76-15.18-41.3-12.9 4.61-12.06 41.14 11.92c7.79-19.12 16.04-45.9 16.04-45.9 16.42 24.57 34.53 46.92 71.8 69.67l161.49-154.5-1.05-99.34-109.94-109.94 45.76-23.85c-4.4-3.54-10.77-6.9-15.3-10.46-.32-.25.91-1.02.59-1.27-1.15-.88-1.99-1.6-3.16-2.41-.26-.19-1.1 1-1.35.82-15.53-10.89-31.06-21.6-43.29-34.63-.3-.33.15-1.69-.16-2.01-6.35-6.8-12.67-13.1-19.14-19.79-3-3.02-7.94-10.2-7.94-10.2l-.29-2.37-6.94-8.74c-22.36 13.19-117.68 46.29-209.92 9.64l17.53-17.53a134 134 0 0 1-8.9-34.1c-4.82-41.27-2.98-115.58-2.98-115.58m290.76 23.36a7.65 7.65 0 0 1 7.65 7.65 7.65 7.65 0 0 1-7.65 7.64 7.63 7.63 0 0 1 0-15.3m23.92 9.1c3.9 19.01 12.46 46.61 20.98 65.21l-10.15 1.13c-8.28-5.37-17.02-13.21-17.94-24.34-22.36.18-28.9-34.9-20.73-30.7-1.05 11.99 7.55 16.71 15.99 15.54 7.26-1.02 13.54-11.04 4.9-22.11 3.83-1.5 5.72-2.63 6.95-4.72m-316.97 56.2c1.48 24.31 6.26 42.04 10.71 60.4l-44.2 41.7q5.19-57.08 33.5-102.1m211.95 80.06 5.6 8.05c-63.86 37.5-172.87 40.15-239.27 8.53l8.81-8.39c58.4 26.37 153.47 28.33 224.86-8.19m-414.8 12.52c-6.43-.08-13.85 2.37-21.73 8.37-29.3-13.35-48.49 17.85-30.36 38.52-2.69 14.87-4.72 17.64 6.48 32.7-11.9 1.51-26.9-1.6-39.67-3.56 2.15 22.02 33.7 27.15 46.83 24.73 14.18-3.07 27.55 3.94 28.13 4.1 8.34 2.33 13.52 6.35 21.74 8.28 13.55 3.22 33.4-12.66 36.28-27.75.28-2.03.9-3.87-.22-4.17-9.27 2.37-19.45 5.71-28.48 7.69-8.84 2.17-15.5 4.3-22.23 9.58l-.56-18.2c45.9 2.19 25.92-41.45 23.31-43.32 8.54-17.22-1.72-36.75-19.51-36.97m417.18 1.37 9.98 24-26.52 9-6.78-23.5zm-419.1.72c15.6.15 29.56 16.58 14.58 34.98 29.04 25.61-8.18 53.06-25.9 34-23.6 21.61-48.66-.95-35.49-24.48-25.16-22.52 5.87-52.72 27.07-33.27 5.2-8 12.65-11.3 19.74-11.23m181.12 8.8a6.76 6.76 0 0 1 6.77 6.76 6.76 6.76 0 0 1-6.77 6.76 6.76 6.76 0 0 1-6.76-6.76 6.76 6.76 0 0 1 6.76-6.77m-172.8.5c-.39.01-.85.19-1.36.63-.75.07-2.4 2.9-6.51 7.67-7.16 8.3-7.94 8.38-7.94 8.38-7.63-2.5-12.74-1.15-17.76 2.03 0 0-5.74-1.08-13.64-7.7-3.62-3.01-5.56-3.66-6.19-2.05-.67 1.73.98 3.42 7.9 8.13 9.57 6.52 8.98 6.02 8.98 6.02-.6 5.73.34 10.38 2.5 14.72 0 0-1.69 4.07-8.49 12.97-1.92 2.52-3.5 5.26-3.5 6.08-.01 3.46 3 1.14 9.96-7.65 2.73-3.44 6.47-8.37 6.47-8.37 8.16 2.83 11.02 1.11 16.14-.71 0 0 1.75 1.3 6.21 4.85 8.15 6.5 9.9 7.19 10.91 6.37 1.35-1.11 1.17-1.48-1.91-3.7-9.2-6.66-12.35-10.5-12.35-10.5a23.6 23.6 0 0 0-2.18-17.1s.14-.93 5.33-6.72c3.8-4.25 9.02-10.97 8.7-11.93.08-.6-.42-1.42-1.27-1.41m188.06 1.47 23.89 7.42-5.27 24.84-25.47-8.21zm172.87 6.1 6.66 24.23-24.85 6.6-4.07-25.72zm17.45.4a6.76 6.76 0 1 1 0 13.52 6.76 6.76 0 0 1 0-13.52m56.49.86 20.89 18.6-23.18 11.71L664.93 391zm-196.98 5.38 24.27 2.85-.99 26.09-27.85-3.73zm-84.2.28 27 11.85-9.73 27.21-27.66-11.87zm69.6 2.11c9.96 1.56 7.29 13.3 0 13.52a6.76 6.76 0 0 1-6.75-6.76 6.76 6.76 0 0 1 6.76-6.76m87.32.02 3.32 26.1-25.2 1.53-.54-26.52zm17.33 2.98a6.76 6.76 0 0 1 6.76 6.76 6.76 6.76 0 1 1-13.52 0 6.76 6.76 0 0 1 6.76-6.76m-350.77 2.45a6.97 6.97 0 1 1 .02 13.94 6.97 6.97 0 0 1-.02-13.94m298.36-.26a6.76 6.76 0 1 1 0 13.53 6.76 6.76 0 0 1 0-13.53m118.68 1.67 9.81 26.83-27.52 8.87-7.8-27.55zm19.32.73a6.77 6.77 0 0 1 6.76 6.76 6.76 6.76 0 1 1-13.52 0 6.76 6.76 0 0 1 6.76-6.76m47.59 7.6 17.8 12.58-8.82 4.91c-2.32-5.53-6.4-12.08-8.98-17.49m-254.3 2.44 26.27 5.7-4 27.5-28.66-5.7zm-78.1 1.5 13.95 6.57-9.2 22.92-22.56-12.01zm62.35 1.5a6.76 6.76 0 1 1 0 13.52 6.76 6.76 0 0 1 0-13.52m151.68 1.5 4.69 27.52-29.63 4.16-1.83-28.05zm110.9.53a6.76 6.76 0 1 1 0 13.52 6.76 6.76 0 0 1 0-13.52m-21 .2 9.8 24.25L657 451.92l-8.58-24.27zm-73.9 1.75a6.76 6.76 0 1 1 0 13.53 6.76 6.76 0 0 1 0-13.53m-97.87 2.76 27.73.5-.32 27.82-30.37-.85zm221.8 1.93 10.9 7.57c-112.26 72.18-269.95 81.13-393.01 10.08 0 0 5.02-5 7.89-7.95 110.93 66.4 272.9 57.08 374.21-9.7m-236.82 3.14a6.76 6.76 0 0 1 6.76 6.76 6.76 6.76 0 0 1-6.76 6.77 6.76 6.76 0 0 1-6.76-6.77 6.76 6.76 0 0 1 6.76-6.76m56.93 1.53a6.77 6.77 0 0 1 6.76 6.76 6.76 6.76 0 1 1-13.52 0 6.76 6.76 0 0 1 6.76-6.76m-132.08 3.72 28.96 8.38-4.93 22.86-31.76-9.14zm-19.16.17a6.76 6.76 0 1 1 0 13.52 6.76 6.76 0 1 1 0-13.52m224.93 4.87 6.93 25.65-32.02 6.85-3.86-25.24zm18.4 3.72a6.76 6.76 0 0 1 6.76 6.76 6.76 6.76 0 1 1-13.52 0 6.76 6.76 0 0 1 6.76-6.76m-418.29 3.98-.06 18c-5.3-4.38-11.3-9.04-17.45-13.75 6.26.33 12.08-1.4 17.51-4.25m-65.95.45c1.46-.02 4.88 1.18 8.96 1.16 13.03-.04 37.39 4.03 44.59 9.94 2.4 1.97 6 3.71 7.95 6.89 0 1.51-2.14 1.55-5.29-.4-6.03-3.75-16.08-7.1-29.52-8.96-2.44-.34-2.74-.24-2.74.9 0 1.42 2.24 2.24 9.31 3.4 9.17 1.51 11.12 2.4 13.15 2.96 5.44 1.5 1.96 3.48-3.64 4.02-22.86 2.14-39.97-7.7-43.41-18.93-.28-.74-.02-.98.64-.98m318.43.4 28.76 3.72-1.3 24.07-31.48-3.6zm-244.55 2.1c5.02 3.94 1.57 15.9-1.17 19.41-1.77 1.98-5.92.93-5.9-1.85.63-2.5-.25-14.39.29-18.07 2-1.14 4.95-.82 6.78.5m333.26 1.07 1.5 24.81-31.38 1.43.24-24.37zm-105.85 1.67a6.76 6.76 0 1 1 0 13.52 6.76 6.76 0 0 1 0-13.52m-174.83.34c1.16 18.21-26.8 30.56-37.27 24.97-4.63-2.47-2.7-4 6.48-5.85 11.9-3.15 19.72-6.21 19.73-8.43 0-1.37-1.8-1.2-6.65.6-7.46 2.5-15.2 3.58-22.33 6.78-5.33 2.42-7.4 3.27-8.6 1.81-2.5-3.04 9.33-10.73 21.6-12.78 9.2-1.53 18.48-6.44 27.04-7.1m297.99 2.27a6.76 6.76 0 1 1 0 13.53 6.76 6.76 0 1 1 0-13.53m-62.89 4.96a6.76 6.76 0 1 1 0 13.52 6.76 6.76 0 1 1 0-13.52m150.68 11.49c45.25 43.09 94.86 92.7 135.77 133.5l-.18 64.06-156.25 148.5c-28.29-17.27-52.24-38.86-74.3-77.22 2.5-2.14 4.68-3.5 6.56-5.85l-8.14 4.86c-28.83-46.1-41.05-137.94 7.9-211.56l-49.46 1.8 8.07-16.84 53.85-2.94L612 482.81s6.9-1.28 12.62-2.6a392 392 0 0 0 25.74-7.36c8.48-2.75 15.7-5 16.04-5M301.12 479.8s46.5 25.28 72.33 75.9c-83.47 71.8-114.94 155.4-122.03 242.43-45.44-42.5-68.4-66-109.44-107.26l1.48-61.58zm175.57 8.03c-12.03 25.72-22.39 53.9-31.66 84.1l-12.94-3.82s8.37-3.5 12.1-5.72l-6.72-10.82 12.74-5.24-7.53-9.17 12.92-7.5-6.46-8.1 11.83-5.92-7.34-8.45 12.41-6.92-6.48-8.1zm3.96.06 3.62.7c.47-.17-2.33 6.75-2.02 6.99 4.51.93 4.77.68 6.13 1.09l3.44-7.13 5.66 1.07c-11.4 25.74-23.6 53.91-30.61 84.4l-6.66-1.39s1.94-6.43 1.95-7.28c-.79-.17-4.53-1.75-5.7-2.22-.4 1-2.77 8.45-2.77 8.45l-5.27-.14c8.63-33.29 23.67-70.2 32.24-84.54m21.67.99 11.81 9.78-13.4 5.21 6.94 9.24-14.21 5.13 8.15 9.6-14.06 5.19 8.39 11.61-14.63 4.93 9.23 10.2-13.2 6.18 7.91 7.83s-8.24 2.72-8.71 2.84c-1.32.34-6.86-1.03-6.86-1.03 8.34-29.7 18.65-59.82 32.64-86.71m-287.4 4.95c-3.26 2.11-1.4 6.72-5.5 10.66-.65.7-.7 2.33-.96 3.75-.2 1.07-3.43 13.93-3.43 13.93s.82-.99 2.11-5.09c1.1-3.5 2.06-10.14 2.66-11.25 3.02-.92 3.48-10.76 6.54-9.4 1.76.77 1.43 2.38.43 6.15-2.18 7.54-3.03 10.72.7 5.58 5.59-6.72 6.13-12.79-.16-14.07-.66-.13-2-.25-2.4-.26m84.41 2.8-146 137.08-.45 51.16 50.82 51.5 36.07 34.95c13.08-78.28 43.12-152.97 117.06-217.6-11.33-18.22-30.74-41.17-57.5-57.1m393.56 1.41c-85.79 40.32-105.52 123.01-78.95 197.87 40.88-52.58 72.96-101.98 78.95-197.87m-305.33 4.19 38.96 12.54-14.67 50.03-35.08-10.65-3.58-8.85zm301.02 1.3c-3.73 66.91-28.95 132.25-72.85 183.52-22.2-54.75-8.85-142.3 72.85-183.51m-209.84.36-2.45 6.22 5.39 1.53 2.3-6.32zm-5.4 14.7-2.2 6.31 5.53 1.87 2.07-6.42zm229.83 1.14c-12 92.8-62.14 177.25-115.11 220.28 16.88 27.38 36.73 45 56.89 59.69l149.2-142.92-.58-47.68zM308.9 544.35c-.91 3.4-1.24 5.12-1.24 5.12s1.72-1.59 6.25-4.07c29.32-14.62 19.86 7.61 6.05 15.84-3.09 1.64-6.26 3.6-6.26 3.6s2.93.66 6.11 1.25c17.8 3.7 14 14.1-4.55 12.48-2.75-.24-5.97-.76-5.97-.6 0 .15 1.11 4.06 2.4 7.3 6.25 15.75-5.42 16.97-13.1 6.96-1.06-1.4-3.48-5.25-3.48-5.25s-.76 2.92-1.22 5.73c-6.63 24.7-23 24.07-16.89-.99.76-2.59 1.7-7.22 1.7-7.22s-3.68 2.22-7.68 4.01c-21.2 9.46-24.63-.27-5.38-14.51 5.47-4.05 7.33-5.64 7.33-5.64a56 56 0 0 1-9.33-1.48c-15.35-3.86-19.45-13.03 5.15-12.6 3.64.07 7.34.31 7.34.31s-1.21-5.28-2.5-9.25c-5.93-18.4 6.03-20.6 16.12-4.1 2.15 3.5 2.76 3.52 2.76 3.52-.3.01.64-6.28 3.08-12.1 12.22-22.62 17-1.97 13.31 11.7m263.88-18.32c-10.25 18.1-19.19 36.1-23.45 54.88l-39.87-.69c2.76-16.64 9.8-33.95 18.22-52.26 16.23-.44 30.86-1.16 45.1-1.93m-105.26 8.03-2.3 6.66 5.79 1.77 2.09-6.48zm-298.13 12.5c-4.27 11.1-5.7 23.45-8.07 33.36-1 5.74.02 8.14 3.47 9.42 4.9 1.83 11.96-.66 15.92-6.32 2.23-3.2 3.84-9.78 4.18-21.41l.38-10.37c-6.06-1.12-10.19-2.75-15.88-4.69m292.74 1.45-1.91 6.12 5.57 2.07 2.14-6.17zm258.2 2.3c6.78.16 8.04.77 14.18 4.4l11.86 12.2a16.34 16.34 0 0 0 11.29 28.13c4.47 0 11.47-4.7 11.47-4.7l18.79 19.45c-10.96 4.8-21.68-6.24-25.71-10.6-.95-1.03-1.2-1.73-1.2-1.73s.18.53-.22 2.7c-1.57 8.66-10.11 34.22-18.29 32.86-9.2-1.53.17-38.08.27-37.24-6.33 6.69-37.15 13.8-34.99 6.34 4.29-14.83 27.34-20.55 30.38-23.12-12.26-7.38-27.8-27.83-17.83-28.7m-549.44.49c3.9.27 6.58.74 9.23 1.85 1.24.33 1.3 1.37 1.43 2.34.03 4.38 1.12 17.23-2.93 17.36-4.52-.1-8.75.88-11.72 3.14-2.39 1.83-3.18.5-2.54-4.16.63-4.53 2.88-14.04 3.85-17.9.15-1.58 1.42-2.7 2.68-2.63m121.8.16a16.34 16.34 0 1 0 .02 32.69 16.34 16.34 0 0 0-.01-32.69m0 5.72a10.61 10.61 0 1 1 0 21.23 10.62 10.62 0 1 1 0-21.23m84.32.2c37.45 64.65 33.1 153.39-11.05 217.95l47.48-3.32-6.24 12.15-50.62 4.93c-7.73 7.08-14.77 15.17-22.37 22.75l-.08 2.67c-17.36 4.03-34.72 8.67-52.4 15.04-9.35-9.17-26.9-27.49-26.79-27.95l1.13-5.93c120.37-61.41 85.16-184.58 76.68-194.7 12.92-15.51 28.33-30.1 44.26-43.6m334.07 11.76a8.82 8.82 0 1 1-.02 17.65 8.82 8.82 0 0 1 .02-17.65m39.24 2.38 14.8 15.23a10.6 10.6 0 0 1-7.47 3.08 10.6 10.6 0 0 1-10.63-10.6 10.6 10.6 0 0 1 3.3-7.71m-508.04 1.89a8.8 8.8 0 0 1 8.81 8.81 8.82 8.82 0 1 1-8.81-8.81m-65.69 3.7c4.13 1.38 3.17 5.24-2.17 8.64-3.46 2.2-6.62 2.69-9.66 1.06-5.76-3.08 6.19-11.71 11.83-9.7m68.24 21.61-53.18 51.46c3.34-8.55 3.47-17.08 3.72-25.62 16 1.65 22.7-6.47 20.36-23.18 10.34.62 21.05-.47 29.1-2.66m85.23 5.88c24.66 70.32 3.24 144.75-73.9 187.84 3.18-67.38 31.46-131.8 73.9-187.84m70.26 6.16c42.33 11.08 90.52 16.24 140.55 16.28.37 19.04 1.29 39.17 5.19 58.6-42.62-11.15-90.22-16.33-142.22-15.41 2.16-20.12-1.3-42.95-3.52-59.47m313.9 10.4-45.08 52.7 1.9-28.77c15.18 1.93 20.59-6.07 18.34-21.9 8.29 1.03 16.56-.42 24.84-2.03m-438.03 2.92-3.56 21.05c-9 .24-17.83 3.44-17.71 23.53l-26.89-.33zm496.1 3.88a8.82 8.82 0 1 1 0 17.65 8.82 8.82 0 0 1 0-17.65m-537 2.68a8.82 8.82 0 1 1 0 17.65 8.82 8.82 0 1 1 0-17.65m517.3 9.06-4.7 31.87c-12.28-1.08-22.53.82-19.38 22.42-10.4-1.01-24.82 1.44-34.5 2.28zm-44 5.77a8.83 8.83 0 1 1-.01 17.67 8.83 8.83 0 0 1 0-17.67m-538 6.85a8.82 8.82 0 1 1 .02 17.65 8.82 8.82 0 0 1-.02-17.65m29.28 10.44c11.27 2.53 6.06 28.81 3.52 35.96-.2.2 31.46-16.58 33.35-9.17 1.23 14.84-26.2 25.19-26.2 25.19s18.49 16.07 19 26.16c.05 6.53-7.73 5.32-17.82-2.95-4.32-4.25-7.66-7.42-10.63-10.37a16.3 16.3 0 0 0 5.66-12.38 16.34 16.34 0 0 0-28.78-10.58c-2.34-2.26-5-4.89-8.56-8.25-5.82-5.46-9.92-9.8-9.33-11.75 7.7-5.42 23 9.13 24.37 10.46-1.15-2.84 7.32-30.81 15.42-32.32m-15.42 32.32q.08.23.26.24zm480.7-11.8c5.36-.07 5.03 12.14 3.12 18.48-1.31 4.84-2.6 8.8-2.6 8.8s4.52-3.54 6.52-4.47c14.6-6.84 20.04.9 12.68 9.88-3.54 4.62-8.36 5.64-12.28 9.52 5.58.25 11.99 1.5 16.8 4.32 3.75 2.25 6.7 4.96 6.69 6.64-.02 3.78-9.29 5.81-17.96 4.83-3.68.09-10.62-1.88-10.62-1.88s2.88 4.83 3.93 7.72c3.23 8.98 2.1 19.5-2.58 19.49-7.83-2.1-11.65-10.8-14.71-17.05-2.52 6.97-4.95 14.42-10.55 19.6-5.55 5.13-8.4.87-8.11-7.83.12-3.46 2.66-13.79 2.66-13.79-32.88 11.1-30.44-3.91-4.78-17.06-15.8-7.54-25.4-14.32 1.48-15.86-.71-.64-5.4-15.04-.38-18.42 4.67-3.13 14.61 7.64 15.1 8.16-.2-1.07 2.61-9.5 7.33-15.32 3.63-4.1 6.31-5.73 8.26-5.75m-30.31 31.33q.05.04.08 0zm143.93-9.5c-5.72.51-9.28 5.6-11.94 10.02-.53.9-1.52 1.22-1.89 2.4a150 150 0 0 0-5.71 28.19c3.62 1.5 11.8 4 15.43 2.65 1.02-.42.7-3.06 1.04-3.92 5.71-14.38 8.53-25.12 8.53-31.72 0-5.33-1.82-7.96-5.46-7.63m-588.32-.65a10.63 10.63 0 0 1 6.6 18.93c-6.85-6.82-10.35-10.4-14.94-14.89a10.6 10.6 0 0 1 8.34-4.04M780.79 709c1.43 3.48-3.18 7.27-9.16 7.25-3.54-.02-4.7.48-3.12-2.6 1.88-3.75 9.53-11.33 12.28-4.65m-80.12-2.46a8.82 8.82 0 1 1 .03 17.64 8.82 8.82 0 0 1-.03-17.64m-465.7.62a8.82 8.82 0 1 1 .04 17.64 8.82 8.82 0 0 1-.04-17.64m417.67 3.58a16.34 16.34 0 1 0 0 32.69 16.34 16.34 0 0 0 0-32.69m-218.4 2.2c-4.3 18.82-10.9 36.82-19.25 54.63-15.75.95-32.78 1.7-44.02 3.28 18.7-32.76 19.16-40.46 26.08-57.82zm27.08 2.65c4.42.52 9.27 1.2 13.64 2.04-8.04 28.3-18.67 57.36-32.4 85.32l-8.31-1.28-3.95-4.88 13.2-5.27-10.28-10.5 17.05-5.16-10.49-10.34 16.84-4.2-9.01-10.95 15.11-5.9-9.6-12.4 16.1-4.42zm191.32.86a10.61 10.61 0 1 1 0 21.23 10.61 10.61 0 1 1 0-21.23m-174.66 1.61 5.61.91-1.73 6.02 6.4 1.37 2.07-6.5s5.15.47 5.7.88c-6.7 27.33-30.4 84.5-30.71 84.2l-6.1-.9 1.61-5.78-5.68-.8v-.06l-2.73 6.27-6.06-.5c14.68-33.48 24.67-59.2 31.62-85.1m298.29 2.17c4.5-.02 4.22 2.3.96 10.79-3.06 7.97-4.21 11.16-5.7 12.2-3.55 2.51-11.2.4-10.57-3.26 2.01-11.92 2.73-17 5.8-18.62 3.2-.63 6.32-1.1 9.5-1.11m-275.7.99 14.65 2.84-12.26 7.28 7.8 9.1-15.06 6.41 9.13 9.46-14.52 5.94 8.83 10.4-15.07 6.36 10.26 8.9-16.95 5.35 6.42 9.86-6.37 3.57-7.87-1.23c13.06-30.47 21.45-55.54 31-84.24m36.01 7.28 28.7 7.81 5.73 10.24-13.46 45.47-38.24-11.24zm-57.03 4.38-2.74 7.47 6.32 1.31 2.43-7.69zm-5.56 17.15-2.74 7.47 5.94 1.17 2.8-7.55zm-5.59 15.08-2.8 7.42 5.78 1.19 2.75-7.45zM738 778.78s-2.93 2.12-3.7 3.06c.64 1.71 2.49 4.33 2.21 6.04-.25 1.3-1.7 2.34-3.86 4.65-5.4 6.28-7.3 5.6-4.16-1.11 1.03-2.1 1.49-4.06 1.49-4.06-1.25 1.74-2.2 3.81-3.04 5.46l-3.44 6.68c3.44 1.18 5.72 3.74 7.94 5.4 0 0 1.14-3.04 1.92-5.95 1.09-4.06 3.24-5.73 5.88-7.13a16 16 0 0 0 3.25-2.48c-2.9-2.96-3.24-7.2-4.5-10.56m-275.6 1.83-2.95 7.91 5.76 1.41 3.2-8.07zM137.72 800.5c-.53 31.5.52 52.24-.58 86.2l85.27 110.5-13.3 4.47s-.15 1.54-.87 1.73c-18.23 5.01-47.78 10.01-47.78 10.01 21.98 50.18 36.24 112.95 26.4 175.64l220.7-.58zm466.73 53.38-7.61 7.62c-112.23-60.74-266.81-60.5-379.6 13.04l-9.2-6.74c123.11-78.88 274.58-78.38 396.41-13.92m-462.6-42.33 259.75 373.14-30.52.44-229.01-299.6zm557.43 6.75s-7.5 1.94-13.8 3.96c-18.06 5.78-26.5 16.22-24.84 30.71.49 4.28 1.6 4.22 8.95-.42 17.21-10.86 18.3-11.35 39.73-17.63 1.66-.48 4.06-.12 4.06-.12l-.94 16.92c-35.74-.13-33.79 28.25-23.5 43.01-3.6 6.82-11.48 30.64 14.44 39.7 12.93 2.58 26.62-7.92 26.2-8.46 23.85 11.27 51.53-7.64 29.95-40.4 8.11-14.29 2.4-24.89-5.35-34 0 0 1.3.1 12.6 2.18 17.12 3.17 23.66 2.6 23.66 2.6.02-15.41-12.74-22.3-39.36-24.39-18.85 2.66-51.8-13.8-51.8-13.66m-287.54 1.79q1.93 0 3.84.02l-1.25 26.32-29 1.33-1.89-26.22c9.99-.7 19.27-1.42 28.3-1.45m34.76.64 31.1 3.79-4.7 24.6-28.66-3.07zm251.7.28c3.18-.07 2.49 3.25-1.26 3.98-5.59 1.1-19.94 9.45-19.94 11.62 0 1.4.7 1.2 5.95-1.6 2.63-1.41 8.1-3.8 12.16-5.34 4.05-1.55 8.69-3.4 10.3-4.13 4.82-2.17 7.22-.67 5.48 3.44-1.15 2.72-1.6 2.94-12.78 6.49-10.11 3.2-11.97 4.03-18.4 8.14-2.4 1.53-6.63 3.99-9.43 5.44-6.6 3.42-7.95 3.43-7.93-1.17-.36-13.64 14.72-23.86 35.16-26.8zm-268.62 3.2a7.04 7.04 0 1 1 0 14.09 7.04 7.04 0 0 1-7.04-7.05 7.04 7.04 0 0 1 7.04-7.03m-76.98 1.86 2.32 23.9-28.52 7.32-6.52-24.67c10.9-2.68 21.81-4.56 32.72-6.55m367.36 1.81c7.81 1.2 7.19 19.1 3.2 22.2-6.16 4.43-9.94-4.83-7.2-17.12.78-3.7 2.21-4.99 4-5.08m-351.18.97a7.04 7.04 0 0 1 7.04 7.04 7.04 7.04 0 1 1-14.08 0 7.05 7.05 0 0 1 7.04-7.04m139.3 2.05 32.24 8.8-7.89 24.95-30.25-8.5zm-17.55.49a7.05 7.05 0 0 1 7.05 7.04 7.05 7.05 0 0 1-7.05 7.05 7.05 7.05 0 0 1-7.04-7.05 7.05 7.05 0 0 1 7.04-7.04m263.74 2.09c13.89.15 32.2 7.11 32.23 17.85-.27 3.05-29.1-1-42.4-6.36-4.72-1.9-10.47-7.69-10.46-10.1 0-1.44 2.81-1.33 3.97.06 1.86 2.28 8.5 4.65 23.74 8.5 11.7 2.94 12.87 3.06 12.88 1.28 0-1.62-6.91-3.84-14.4-5.1-3.78-.6-7.3-1.75-13.1-2.25-2.69 0-3.35-1.7-1.1-2.85a30 30 0 0 1 8.64-1.03m-24.53 5.56c3.5 1.64 4.76 4.91 6.7 6.64-2.4 1.14-3.48 2.28-7.37 2.57.08-2.57-.63-5.63.67-9.21m-422.2 1.93a7.04 7.04 0 1 1 0 14.08 7.04 7.04 0 0 1-7.04-7.04 7.04 7.04 0 0 1 7.04-7.04m-18.95 1.99 7.6 24.4-27.24 11.84-9.66-24.17c9.41-4.95 19.71-8.54 29.3-12.07m126 3.98s21.7.04 29.2.13l-1.75 27.53-27.09.2zm-29 1.51 1.5 27.5-26.08 3.5-5.15-27.66zm164.9.25a7.05 7.05 0 0 1 7.04 7.04 7.04 7.04 0 0 1-7.05 7.04 7.04 7.04 0 0 1-7.04-7.04 7.04 7.04 0 0 1 7.04-7.04m188.72.64c15.87.06 31.02 18.33 15.33 37.47 25.73 19.8-2.25 53.09-25 33.7-32.53 31.94-50.7-11.45-37.25-22.95-19.88-32.67 4.55-53.31 29.75-38.9 4.63-6.59 10.95-9.35 17.17-9.32m-265.83.79 28.61 6.35-5.75 27.2-27.95-5.68zm94.7.66 26.17 13-20.29 19.52-15.07-7.5zm-167.73 3.08a7.04 7.04 0 0 1 0 14.08 7.04 7.04 0 1 1 0-14.08m56.53.88a7.05 7.05 0 0 1 0 14.09c-10.37-1.62-7.58-13.86 0-14.09m-130.31 3.97 6.38 27.19-26.5 8.95-9.48-26.48zm18.21 1.93a7.04 7.04 0 0 1 7.04 7.04 7.04 7.04 0 1 1-14.08 0 7.05 7.05 0 0 1 7.04-7.04M737.1 873.2c-2 2.48-4.61 5.4-4.61 5.4-6.6-2.72-12.99-1.64-17.26 1.3 0 0-4.55-3.63-8.7-6.99-7.19-5.8-9.6-7.14-9.6-4.7 0 .5 2.44 2.98 5.42 5.53 8.1 6.94 9.77 9.44 9.77 9.44-1.95 6.3-1.93 11.23 1.79 16.52 0 0 .15.7-2.7 3.7-5.16 5.45-10.5 13.86-9.26 15.1 1.52 1.54 5.84-2.14 11.26-9.47 3.86-5.21 5.02-5.33 5.02-5.33 6.59 1.78 10.24 3.39 16.82-2.05 0 0 2.49.76 7.45 4.85 7.73 6.39 10.51 7.76 11.35 5.6.69-1.77-.33-2.95-6.88-7.93-4.27-3.25-9-7.05-9-7.05 1.38-2.29 2.37-10.41-2.4-15.98 0 0 .19.37 7.24-8.77 4.7-6.08 5.5-6.85 3.95-8.15-2.07-2.71-8.96 8.1-9.66 8.98m-204.4-7.79 25.81 10.85-9.23 26.98-24.94-10.18zm-284.1 1.81a7.05 7.05 0 0 1 7.04 7.04 7.04 7.04 0 0 1-7.05 7.04 7.04 7.04 0 1 1 0-14.08m264.14.72a7.05 7.05 0 0 1 7.05 7.05 7.05 7.05 0 0 1-7.05 7.04 7.05 7.05 0 0 1-7.04-7.04 7.05 7.05 0 0 1 7.04-7.05m-282.17 1.93L239 890.8l-19.22-14.33zm211.9 5.4 25.71 3.04-4.06 24.51-22.18-2.02zm-28.08.06-.26 25.2-24.43 1.04-2.07-25.15zm-125.7 4.6a7.04 7.04 0 0 1 7.05 7.03 7.04 7.04 0 1 1-14.09 0 7.04 7.04 0 0 1 7.04-7.04m-19.48.5 9.95 25.32-15.42 7.44-20.67-19.56zm91.95.32 3.99 24.09-25.48 6.3-6.18-24.51zm364.16.24a10.05 10.05 0 1 1-.01 20.1 10.05 10.05 0 0 1 0-20.1m-298.1.77a7.04 7.04 0 0 1 7.04 7.04 7.04 7.04 0 0 1-7.04 7.04 7.04 7.04 0 0 1-7.04-7.04 7.05 7.05 0 0 1 7.04-7.04m69.4 2.6 27.16 8.8-9.13 21.74-23.47-6.36zm-120.41.9a7.04 7.04 0 0 1 7.04 7.04 7.04 7.04 0 0 1-7.04 7.05 7.04 7.04 0 1 1 0-14.09m103.3 2.6a7.04 7.04 0 1 1 0 14.08 7.04 7.04 0 0 1-7.05-7.04 7.04 7.04 0 0 1 7.04-7.04m-172.5 8.25 9.36 21.53-25.56 11.05-11.13-21.96zm18.1 1.28a7.05 7.05 0 0 1 7.05 7.05 7.04 7.04 0 1 1-14.08 0 7.04 7.04 0 0 1 7.04-7.05m94.16 6.5c41.96-.08 79.84 8.7 110.25 21.28l-9.06 8.49c-98.63-33.89-163.12-18.62-229.26 10.39l-6.68-8.25c46.75-22.87 92.8-31.82 134.75-31.9m111.57.26a7.05 7.05 0 0 1 7.05 7.04 7.04 7.04 0 1 1-14.09 0 7.04 7.04 0 0 1 7.04-7.04m-257 15.45c5.65.34 6.2 10.9 3.55 7.85l-6.3-7.28a6 6 0 0 1 2.74-.57m263.65 4.37c-.2 8.01-7.79 61.67-33.38 98.57-1.55-18.66-6.06-40.97-11.1-55.87 0 0 27.55-25.44 44.48-42.7m-327.4 81.32 133.18 179.6-13.99-.11c-2.92-13.18-7.14-26.68-15.45-36.76-6.74-8.19-12.78-14.36-24.87-19.86-7.28-3.31-8.22-2.61-8.68-8.19-2.2-31.42-27.63-51.17-47.11-58.69-1.88-18.98-10.45-37.66-31.94-53.39zm-12.97 4.3c12.17 8.37 25.5 15.62 32.7 48.59.53 6.9.95 6.17 6.37 8.19 21.22 6.23 39.69 31.73 41.34 54.03-.02 6.73 2.17 7.33 10.46 10.81 10.18 4.28 20.74 13.33 26.73 22.22 8.9 12.8 12.03 32.18 11.27 31.26l-7.33.04c-5.22-32.86-25.9-45.96-47.76-52.1 1.7-46.38-34.36-60.86-46.96-63.04.74-33.41-20.87-47.19-34.82-58.4 2.6-1.02 8-1.6 8-1.6m-21.54 4.62c10.89 3.55 19.14 18.73 18.3 25.72 14.38 1.81 29.47 15.7 26.16 30.17-1.06.61-2.74.74-4.4-.92 3.85-28.08-38.05-14.18-21.31 6.13l-7.49 4.89c-6.01-28.09-13.43-44-21.48-64.3 2.94-.77 10.22-1.69 10.22-1.69m34.69 58.84a6.73 6.73 0 0 1 6.72 6.75 6.73 6.73 0 1 1-13.46 0 6.75 6.75 0 0 1 6.74-6.75m35.97 30.3c16 4.53 21.18 20.73 20.65 26.62l-3.5-.08c-5.62-25.66-34.86-11.71-22.66 8.76-15.63 5.78-14.4 20.21-9.8 25.91 6.36 7.88 22.56 7.63 27.5-4.49 15.2 19.67 36.17-2.4 17.67-20.73 15.15 5.59 17.58 25.89 15.3 32.23 7.04 2.4 15.14 13.56 14.06 13.5l-113.55.02s5.5-45.82-.34-80.4c7.56 1.82 12.63 3.65 21.31-6.56 14.07 11.65 24.18 2.86 23.45-7.21-1.08-7.03-4.72-10.53-10.75-14.24 12.32-3.03 21.62 18.27 20.66 26.67m12.67 32.28a6.94 6.94 0 0 1 6.94 6.94 6.94 6.94 0 1 1-13.88 0 6.94 6.94 0 0 1 6.94-6.94"/></g></svg>