<svg xmlns="http://www.w3.org/2000/svg" fill-rule="evenodd" stroke-linejoin="round" stroke-miterlimit="2" clip-rule="evenodd" viewBox="0 0 934 1300"><g fill-rule="nonzero"><path fill="#131f67" d="m810.59 102.22-679.98.34 4.09 1091.73 682.4-1.42c-5.27-364-5.77-727.3-6.51-1090.65m-80.23 9.19 71.72.36v420.1s-4.47-.14-4.06-3.08c.56-3.93-.04-11.3-2.8-14.4-1.17-1.31-3.07-3.36-3.82-4.86-1.88-3.75-4.98-7.64-7.46-8.69-1.23-.52-2.66-.8-2.85-1.66-.17-.8-.58-3.41-1.1-5.82-1.32-6.03-2.5-5.84 1.34-11.84 13.3-20.79 18.4-39.9 16.73-58.87-.53-5.92-2-13.6-2.7-14.64-12.86 12.87-22.16 28.78-30.9 40.53-1.95-16.8-1.67-29.47-1.95-42.93 6.86-1.96 11.01-5.6 13.96-14.95 0 0 7.36 5.76 11.86 4.94l-2.96-10.85c19.67-6.04 22.36-31.7-.88-37.13l2.1-13.52s-7.01 2.34-10.1 3.85c-1.53.65-1.91.13-2.98-2.09-10.84-16.85-27.66-13.26-35.08 3.35l-9.07-3.85c.99 4.6 2.15 9.26 1.33 13.87-19.04 8.47-14.34 31.67.86 34.71l-1.33 10.84 11.44-3.7c1.67 5.1.81 8.04 9.95 13.77-.22 22.7-.59 36.9.12 57.09-11.9-12.2-23.4-20.68-43.56-26.9 0 0-.19 4.9.99 12.33.38 2.45.3 2.09-.85 2.08-2.61-.06-14.42-19.04-14.42-19.04s-1.38.02-2.57 1.2c-1.4 1.4 1.8 3.98 6.32 10.68 5.28 7.85 4.77 7.51.62 11.04-23.6 20.02-57.68 96.23-51.95 103.64-14.92.89-73.06 29.4-83.62 88.16a66 66 0 0 1-1.86 6.08l-16.82-4.17c10.15-48.14 33.03-146.02 33.03-146.02s16.1-4.57 25.5-5.58l-.1-3.79-22.15 5.16 1.07-8.39 20.9-4.11-.05-1.99-22.14 2.97 3.61-13.96s-49.68 7.3-67.47 6.76c1.12 54.3-3.16 99.42-.86 157.95l-24.29-14.72c-2.16-40.75-2.8-143.67-2.8-143.67l-67.08-10.54 2.23 16.17c-55.6-22.04-111.38-42.31-152.45-85.4 25.29-19.4 67.48-38.64 67.48-38.64l-1.38-3.09C233.3 409.64 194.77 446.79 142.64 492.9l-1.4-381.13 283.16-.14-.94 69.5s-.37 1.8-.9 2.44c-3.47 16.83 6.47 46.72 4.47 61.28.93 4.49.6 12.84.6 12.84-16.9 23.15-25.86 45.14-33.39 72.05-2.9 1.16-7.2 3.54-10.23 4.36l-.86 3.67c6.63-3.64 25.44-9.6 25.44-9.6 83.8 40.86 145.37 30.86 211.28.51-10.52 36.88 12.33 83.78 49.91 93.65 4.3 1.12 11.67 2.08 15.88.98 4.2-1.21-9.48-32.52-15.53-33.7-18.16-7.86-25.64-26.33-23.7-47.53l-3.01-5.05c-6.2 25.74 8.7 51.88 29.16 58.27l5.5 12c-37.08-11.12-52.86-45.83-40.52-80.15.21-21.41-13.66-30.88-20.03-40.1-32.23-12.3-38.22-42.16-32.58-66.28 15 6.38-10.11-21.2-10.11-21.2-11.06 23.95-15.67 54.21 9.6 84.89-16.35 21.67-37.44 38.8-61.01 53.45-34.46 17.98-60.3 5.86-76.96-33.95-9.99-23.9-13.57-47.74-13.52-72.7.06-15.45.23-15.92 6.02-13.3 5.44 2.46 17.24 2.8 24.28-.83 9.6-4.95 9.14-1.93-1.3 8.81-2.85 2.93-5.88 5.56-5.88 6.12-.02 3.18 4.46.5 10.83-5.82 2.33-2.3 4.05-4.52 4.78-4.49.83.04.75 3.01-.2 6.22-.37 1.23-1.54 6.44-2.61 11.56s-2.54 11.13-3.25 13.36c-2.84 8.88-2.07 12.99 6.45 17.09 4.48 2.16 12.16 9.52 12.09 9.52 0 0-1.83-8.07-1.15-10.66.81-3.12 4.52-.92 8.3.89 8.35 3.99 13.2 4.1 17.7.36 6.17-5.17 4.4-16.76-3.24-19.79-5.61-2.22-6.59-.16-1 3.74 8.4 5.86-1.06 14.91-8.2 9.3-5.57-4.4-15.26-4.88-16.34-1.23-1.02 3.46-2.08 2.83-5.94.57-6-3.5-6.06-4.12-1.03-23.47 9.52-36.65 8.6-50.1-4.03-61.24-9.34-8.25-24.78-12.07-40.8-2.91v-12.48c23.51-9.4 40.61-24.94 54.4-50.95h2.7c13.72 29.73 35.91 51.08 77.66 66.74 16.32 16.1-20.67-46.26-8.86-20.73-22.16-8.58-41.9-25.21-52.78-46.01h6.04c6.37 9.2 19.27 25.97 42.22 37.56 2.09 1.75 4.1-.06 4.1-.06s-19.26-30.18-22.42-37.36l192.45-1.36c-6.1 46.87-14.7 97.8 19.14 189.09-15.87-8.34-79.52 9.42-68.31 12.93 5.61-6.5 46.17-16.07 76.18-9-2.48-2.14-45.76-102.56-20.59-192.02m20.6 192.03q.09.08.11.02zM602.27 484.3l.18 7.34 1.52-.36-.88-7.14zM428.52 111.63h8.44c-1.85 3.82-4.55 6.68-8.68 9.03zm14.53 0h9.09c-7.09 11.27-14.62 18.1-23.7 23.44l.16-8.83c5.25-4.6 10.26-9.36 14.44-14.61m15.04 0h8.38c-11.38 17.49-23.06 29.23-38.02 36.66v-7.14c9.24-7.19 22.34-17.75 29.64-29.52m12.8 0h6.78c-11.67 22.22-27.92 37.56-49.22 46.1v-5.35c23.32-12.43 33.53-26.3 42.43-40.75m18.55 0h8.14c11.18 22.21 34.4 43.22 59.9 52.43l3.9 9.01c-33.62-12.07-55.88-29.67-71.94-61.44m23.58 0h5.81a84 84 0 0 0 22.2 21.21l5.27 10.21c-11.7-7.86-24.74-17.41-33.28-31.42m10.6 0 6.5.34 8.62 14.35c-5.74-3.22-10.08-9.78-15.11-14.69m-7.47 57.67c-8.91-.04-17.02 2.42-22.89 7.2-6.2 5.06-1.64 10.57 7.28 6.42 15.2-7.05 32.66-3.87 51.51 6.44 15.87 8.7 10.31-.36-4.5-10.03-10.14-6.71-21.3-9.99-31.4-10.03m-71.67 11.38c12.78.1 27.43 5.76 27.79 13.26-8.48-7.1-25.52-10.54-41.88-3.25-1.25-.27-1.42-4.71-.68-6.34 3.52-2.6 8.96-3.72 14.77-3.67m77.43 4.83c-8.08 0-15.48 2.12-18.9 6.66-1.74 2.16-2.2 2.39-4.13 2.07-3.76-.62-3.55 1.55.74 7.5 2.08 2.9 1.74 6.18-1.04 10.1-3.2 4.5-2.58 4.67 6.94 9.23 7.27 3.54 13.12 8.56 19.72 12.7 4.72 2.66 5.67.32 1.3-3.2-1.49-1.2-5.92-4.36-9.9-6.95-6.76-4.4-11.71-8.84-6.34-6.87 2.46.78 3.09 1.1 5.8 1.57 6.95 1.5 13.82 2.34 19.66 1.16 4.19-.83 9.64-3.6 14.13-7.48 1.14-.53 2.27.03 5.05.14 10.63.41 8.28-2.7-6.98-11.04-15.1-8.24-26.96-9.74-36.62-5.21-4.1 1.91-6.43 2.39-5.84 1.18a9 9 0 0 1 3.59-3.8c15.62-9.34 28.17-1.6 41.94 5.42 5.9 3.52 7.5 4.44 8.2 3.31.9-1.44-6.58-6.76-16.63-11.8-5.89-3.05-13.55-4.69-20.69-4.69m-49.93 10.82c2.65 1.04 1.46 4.06-.95 3.1-14.43-6.47-17.32-9.62-34.51-3.63-5.68 1.98-7.93.23-.96-2.76 15.18-6.35 26.2-2.07 36.42 3.3m-9.88 7.61c-3.91 19.84-23.66 13.73-21.43.1l3.63.02c.28 11.99 12.29 11.9 14.35.12zm114.87.04 5.32 11.38c-11.63 28.65 4.16 67.22 38.5 76.47 0 0 5.55 8.51 4.46 9.6-64.48-14.28-59.52-75.75-48.28-97.45m-61.08.74 1.8.1c5.58 13.83 13.67 5.89 15.24.05l4.12.1c-1.26 14.32-23 16.75-21.16-.25m-49.7.4c2.61-.3 3.5 3.62 2.77 4.34-.2.2-4.97 4.84-5.56 2.1-.85-3.99 1.7-6.24 2.79-6.43m-30.08.4q.33 0 .68.04c1.62 1.23 2.24 4.92 1.4 6.82-.97 1-4.84-.36-5.59-1.85-1.15-2.16.2-5.04 3.51-5.01m104.58 1.32c1.28.05 4.78 1.56 4.44 3.25-.1.43-4.96 4.02-6.06 3.43-2.11-1.12.8-6.28 1.22-6.6q.13-.09.4-.08m-28.49.62h.08c.38.28 3.5 2.22.84 5.8-.18.25-3.71-1-3.77-1.42-.29-2.09 2.36-4.23 2.85-4.38m78.14 25.13c-.79 16.46 3.5 32.45 21.48 42.72l-3.87-7.07c-4.6-3.67-14.26-14.15-13.06-26.62zm-161.49 29.43 2.02 10.84a247 247 0 0 0-23.63 51.49l-9.35 3.4c7.42-23.81 14.29-42.69 30.96-65.73m3.93 16.88 2.65 9.3c-4.86 8.96-10.05 19.08-13.19 30.85l-10.33 3.81c4.65-15.6 11.45-30.75 20.87-43.96m32.77 3.85a2 2 0 0 0-.46.06c-.11 1.84-.1 6.9.3 15.27.07 1.59 1.63.92 6.02-1.32 3.83-1.96 3.43-2.27 7.14-1.03 10.27 3.52 14.95 2 18.96.96 6.13-1.58 8.63-.94 12.18 1.19 1.96 1.17 4.63 2.03 5.16 2.23 2.82 1.02 1.74-.22-.18-7.83-2.17-8.56-1.23-9.5-4.67-7.27-.75.5-2.93 1.7-4.12 1.83-2.99.35-7.98-3.31-10.96-2.15-7.2 2.82-7.14 2.08-13.83.44-3.35-.82-6.55 1.22-9.46 1.8-1.66.2-3.77-4.2-6.08-4.18m122.64 4.43c12.18 11.18 24.7 15 38.29 19.23-1.64 5.55-4.92 11.8-6.45 19.06-70.69 37.36-141.73 36.2-208.74 2.27l34.78-13.29c19 32.9 43.34 41.69 70.72 30.92 30.6-14.23 53.25-34.03 71.4-58.19m-151.06 6.59 3.02 8.06-4.48 12.16-8.53 3.45c1.63-8.28 4.79-15.09 10-23.67m63.88 9.35c-2.1.1-5.3 1.52-12.6 1.56-3.94.02-7.03-.33-8.57-.02-3.17.64.54 2.06 7.65 4.1 7.1 2.02 15.8-1.03 16.88-4.12.26-.75-.68-1.65-3.36-1.52m-58.89 3.97 1.87 4.1-3.2 1.14zm187.96 2.3 5.27 12.03c-9.14 19.78-15.2 74.02 45.84 90.9l2.66 7.76c-41.54.81-83.18-52-53.77-110.68m-139.78 4.1c-5.97-.07-12.21 1.41-16.23 4.6-3.64 2.88.8 4.7 5.54 2.4 6.12-2.99 16.34-2.74 22.35 1.02 4.59 3.12 6.98 2.57 3.9-2.2-2.4-3.73-8.8-5.76-15.56-5.83m266.53 13.5c15.96-.26 17.62 22.58 14.5 24.54.9-.3 3.64-1.1 7.51-1 11.7.3 17.79 6.77 18.46 16.17.69 9.48-6.52 14.76-17.01 14.23-3.9-.2-6.58-.59-6.4.1 1.95 7.57-.4 18.98-10.44 21.83-1.15.33-2.8 1.94-2.83 2.51-.74 12 2.67 53.25 2.67 53.25s18.8-31.6 23.03-36.4c8.29-11.3 9.78-10.28 9.8 8.5-1.37 26.04-5.55 32.01-20.9 53.87-6.55 9.41-22.1 4.47-20.7 10.83.32 1.41 2.84 3.93 5.36 6.33 1.61 1.53 3.29 2.49 7.07 2.36 6.63-.22 9.21-1.56 5.25 4.2-3.13 4.56-14.16 5.51-15.4 7.88-2.89 5.52-.91 4.3-5.85 9.15-3.77 4.14-2.46 2.03-.74 5.44 2.7 4.4 1.58 13.17-1.1 19.08-2.18 4.82-1.95 8.25-1.95 8.25.05.4 6.15-6.29 7.98-14.03 1.54-6.43 3.33-9.66 3.32-6.06-.02 4.55.77 10.73 4.87 13.09 3.24 1.86 3.71 3.72 3.17 6.02-.56 2.37 1.98 4.46 4.48 6.44.58.58 2.55 1.35 2.35 2.6-.67 3.96.94 8.61 3.82 9.37 1.28.64 9.47-.06 10.82-4.67-.13-1.47 0-7.51-3.27-7.86-2.3-1.06-2.06-1.7 1.43-3.78 5.22-3.1 9-5.34 11.57-5.82 3.46-.46 6.77-4.2 6.77-4.2l.66 248.6c-30.94 31.67-64.86 63.2-109.58 94.17-26-21.66-54.38-43.58-84.54-60l-10.4-6.16 3.72-4.77-18.08-23.84 20.35-16.37 5.16 6.52-9.63 9.35 14.44 15.98 32.47-31.67-21.4-20.47 11.14-20.85 7.13 3.5-5.38 13.22 16.28 10.3 20.36-40.46-25.82-11.76 6.54-27.17 7.96.85-2.64 19.56 20.12 4 8.19-46.14-29.54-5.27 2.51-26.31 8.25.1-1.21 14.55 20.87 2.97 3.93-40.21-28.95-4.8 3.73-31.04 6.62.94-1.28 19.14 21.25 3.63c2.33-12.98 4.24-29.28 7.7-42.01l-27.37-10.2 9.7-26.06 6.16 2.15-5.38 14.12 20.2 8.59 17.04-33.61-23.8-16.83c5.33-8.85 10.66-17.26 18.28-24.43l4.68 4.08s-1.72 1.55-4.36 5.2c-3.2 4.43-4.2 6.67-3.77 7.82.44 1.14 15.14 12 16.25 12 1.3 0 6.18-4.44 8.7-7.42 2.68-3.2 4.09-3.5 6.88-1.5.55.39 1.35 1.18 1.92 1.86.67.8.94 1.47 1 1.98.07.5-.07.84-.2 1.05.24-.23.75-.62 1.85-1.23 2-1.11-3.87-6.27-8.67-8.95-14.35-8.05-31.23-23.23-35.13-42.21-1.44-8.53 20.6 1.72 35.8 16.85 2.3 2.29 10.85 10.58 10.85 10.58-1.25-21.95-3.04-44.25-2.07-66.46l-3.35-2.33c-4.7-3.27-6.5-8.63-6.92-14-.3-3.71 2.88-5.6-4.37-5.36-15.11.13-23.86-14.09-14.7-26.25 3.28-4.55 17.22-6.77 17.2-6.66-3.56-14.54 7.13-22.34 15.01-23.08m-5.5 169.1c-.28.27-.16.27 0 0m20-144.56-.42.14a1 1 0 0 0 .43-.14m-503.09 47.5c42.2 35.52 69.12 59.43 155.01 86.18l2.13 12.72c-49.39-11.4-103.27-34.48-167.3-91.86zm-12.7 8.2c26.72 24.95 54.11 43.95 81.83 59.88l9.73 5.86-5.02 5.14 16.32 23.52-21 17.11-4.99-4.98 10.96-10.73-15.6-15.33-31.76 32.14 21.78 19.3-12.63 19.41-4.57-2.07 6.7-13.52-20.23-11.04-22.6 41.56 28.79 13.1-6.5 25.5-6.73-.33 2.27-19.99-21.65-3.83-7.29 46.7 27.86 4.37-.67 26.88-7.42-.12.52-15.19-21.99-1.02-1.97 39.19 27.07 3.5-2.69 31.81-6.66-1.7.74-20.65-20.63-2.03-7.1 43.9 27.83 7.95-9.83 27.37-6.04-3.31 3.95-14.13c-5.07-2.2-19.34-8.14-19.34-8.14l-18.18 34.09 23.58 16.05-14.5 25.49-5.6-3.76 10-14.86-19.58-12.3-11.15 15.23c-4.74-4.12-13.25-9.82-16.5-13.65-3.47-3.16-6.1-3.64-10.57-2.59-3.53.83-6.92 1.47-6.14.22.38-.6 7.07-5.11 17.29-11.6 2.86-1.8 5.12-3.4 5.08-5.01-.03-1.21 1.55-3.13 3.61-4.38 2.28-1.37 1.78-2.66 1.4-4.09-1.97-7.67-.72-19.62 3.14-27.67 2.58-5.39 3.39-6.35 1.7-6.36-4.97.64-11.04 18.66-12.2 23.74-.39-.4-.93-5.16-1.28-6.99-.64-3.3-1.1-5.35-3.76-5.98-3.17-.75-2.16-2.27-2.48-4.65-.53-3.87-2.36-6.32-5.66-7.69-3.18-1.31-3.53-1.84-3.4-5.01 0-2.5-2.6-6.7-4.53-8.05l-11.03 3.9c-.87 2.9.28 6.69 2.1 8.06 5.55 5.22-2.57 5.29-8.12 8.69-1.5.97-3.3 3.09-4.51 2.39-3.54-1.16-3.26 9.38-6.73 8.06l.84-252.88c29.57-30.62 115.74-94.47 115.74-94.47m446.94 44.72 4.26 4.72c-13.2 14.85-22.76 30.13-33.31 48.8-9 15.93-16.78 38.22-20.85 62.54-3.14 14.89-3.63 30.04-5.58 45.27-1.98 16.39-2.36 38.46-5.5 55.76-5.78 47.47-19.11 72.72-48.1 99.65-12.73 11.84-52.35 34.19-53.43 33.97l-9.4-2.32c81.25-41.6 101.56-70.28 110.35-168.72 1.72-123.5 57.9-171.35 61.56-179.67m7.99 8.27 4.35 4.2-23.72 33.48 23.38 16.48-9.27 21.65-7.08-2.63 5.03-14.77-19.66-8.29-15.9 43.03 28.02 8.82-4.61 28.04-5.66-1.53.02-19.1-20.8-4.24-6.03 48.06 30.62 4.26-2.25 24.8-7.24-.5-.29-14.77-21.24-1.13-4.86 41.66 30.16 5.12-5.46 29.6-6.42-1.53 1.45-19.53-20.23-2.66-11.7 39.97 25.4 12.8-12.5 25.62-5.35-3.73 6.92-15.15-19.76-9.75-19.09 33.07 20.71 20.36-20.23 21.2-4.5-5.79 10.42-11.23-15.59-15.43-32.42 25.78 16.55 21.8-1.94 2.76-17.1-6.86-8.19-10.82-9.8 4.3-7.72-2.95c47.9-25.11 79.06-54.23 91.93-98.14 7.06-24.28 9.16-50.78 11.45-77.48 1.19-13.86 2.43-27.8 4.44-41.5 2.36-22.37 5.78-41.15 14.86-62.74 11.02-26.18 24.4-44.63 40.9-64.61M452.75 476.8l32.9 17.34-.49 11.52-30.4-15.23zm9.26.33 23.43 3.2.1 9.46zm-105.65.3 13.68 6.16 11.6 13.38 8.7-5.7 9.42 3.53c-29.8 15.32-56.23 33.64-76.83 65.26-22.95 35.23-25.5 81.35-28.43 125.87-4.9 61.4-15.43 104.54-56.25 154.32l-6.01-3.79 22.03-35-24.85-16.04 11.32-20.7 5.72 1.97-4.43 12.34 20.55 10.84 15.75-44.1-28.98-9.03 4.86-27.6 7.28.65-1.93 19.76 20.71 3.27 5.94-46.63-27.91-4.27.62-24.64 6.85.66-.05 14.99 22.01 1.18 1.71-42.54-27.37-3.03 3.38-30.04 7.66.79-1.77 18.01 21.07 3.01 10-38.88-27.38-12.36 14.77-26.27 6.65 3.05-6.79 14.55 18.99 9.25 19.9-30.42-21.15-20.3 20.77-21.74 5.1 5-11.28 12.96 15.63 14.45 30.94-25.97-15.1-22.71zm196.82 1.44-.96 10.9-32.97 18.72-.01-10.68zm176.94.38 7.29 4.52-5.28 6.26-6.36-4.01zm-190.8 1.55-19.74 11.4v-11.34zm232.84 10.63c1.03.03 1.98.25 2.7.72 2 1.3 1.71 4.5-.53 6.07-2.92 2.04-10.93 1.9-11.72-.2-1.14-3.04 5.09-6.69 9.55-6.59m-315.13 4.5 28.33 15.29-.1 10.77L458 507zm92.3.34-1.66 14.04-29.18 15.47-.24-12.17zm-141.22.26 11.62 2.95c-43.01 19.19-85.52 47.02-102.06 95.57-5.16 14.53-8.64 30.7-10.9 51.4-1.07 21.85-3.89 43.34-4.92 61.55-2.1 37.08-14.3 87.3-56.47 140.64l-4.03-3.17c25.86-31.87 39.3-60.77 47.61-91.3 13.16-48.58 6.64-102.2 20.67-151.1 8.56-29.74 26.32-56.34 52.95-79.35 18.53-14.4 45.53-27.2 45.53-27.2m19.52 4.08q.19-.01.2.04c10.45 35.16 23.34 99.23 23.34 99.23-27.62-13.36-73.6-10.92-73.6-10.92s-25.87-33.37-30.88-36.12c20.69-27.9 77-52.03 80.94-52.23m355.65 5.54c6.36-.2 5.9 9.46-2.15 16.03-4.11 3.36-6.02 2.89-9.05.2-.89-1.2-3.48-2.05-5.38-1.82-4.5-.02 4.4-9.35 12.34-13.2 1.65-.8 3.06-1.17 4.24-1.2M460.36 514l25.26 12.96.25 10.67-23.38-12.68zm85.64 1.44-1.36 11.74-26.3 13.68.13-10.81zm246.17 4.38c.87-.09 1.55.25 2.18.96 3.59 4-3.22 16.1-10.95 19.72-2.97 1.4-4.8 1.17-7.27-.96-1.2-1.03-2.97-2.4-3.99-2.29-4.42.46-1.98-4.5 1.59-4.8.98-.07 7.17-4.7 11.86-8.6 3.14-2.61 5.12-3.9 6.58-4.03m-26.73 4.71c5.58-.13 7.61 4.51 1 6.54-4.7 1.45-7.33.42-7.32-2.75.99-3.25 3.84-3.63 6.32-3.79m-301.6 6.28 22.4 11.24.1 11.52-20.58-10.74zm80.2 1.59-1.57 10.9-24.14 12.4.06-9.02zm253 4.57c1.53.1 1.98 1.8 1.97 4.82-.02 5-3.34 9.62-8.3 11.88-3.65 1.65-6.22 1.52-8.03-.42-.83-.9-1.98-1.6-2.57-1.63-7.8-.31-6.54-2.32.92-5.44 2.63-1.1 7.8-4.67 10.23-6.42 2.76-1.96 4.6-2.86 5.78-2.79m-28.61 3.55c3.83.02 7.19 2.72 5.08 4.46-1.65 1.35-7.82 2-9.04.78-2.3-2.33-.25-5.25 3.96-5.24m-300.88 7.75 19.1 10.3-.1 10.95-18.25-10.32zm73.27.84-.44 11.22-21.93 10.81-.14-10.7zm235.97 4.65c3.72.27 3.25 3.86.25 5.6a4.56 4.56 0 0 1-6.33-1.08c-2.66-5.07 3.4-4.46 6.08-4.52m7.45 11.51c.61 1.24.27 3.46-.95 4.16-1.62.69-5.84-.03-6.5-1.26-.53-1-.4-1.54.63-2.57 1.73-1.37 5.6-2.39 6.82-.33m-313.93.21 16.32 8.91-.1 10.76-14.99-8.7zm67.84.29-.8 10.35-18.98 9.41.26-10.1zm-198.73 6.52c4.07.04 7.21 2.76 4.82 7.38-1.5 2.89-2.62 3.96-9.13 8.55a78 78 0 0 0-5.13 3.81c-.18.22-1.88 1.4-3 2.17-5.83 4.04-3.8-4.4 3.48-16.82a10.3 10.3 0 0 1 8.96-5.1m197.3 9.24-1.52 11.4-16.97 8.66v-10.97zm-63.84 1.06 13.72 6.8.21 11.1-12.46-6.54zm164.88.86q.68-.03 1.1.53c1.13 1.57 1.3 8.37.2 12.22-1.92 4.52-5.65-6.9-5.24-9.8.8-1.31 2.62-2.9 3.94-2.95m-288.52 2.07c5.55-.1 9.56 3.69 7.69 9.31-2.17 5.43-14.7 8.84-20.35 12.58-3.7 1.84-4.6-.15-3.46-3.35.53-1.48.93-2.63-1.88-3.05-6.84-1-2.68-4.33 9.87-12.74a15.3 15.3 0 0 1 8.13-2.75m275.26 3.55c1.97-.02 4.4 1.13 6.9 3.85 4.31 4.68 7.43 14.54 5.08 17.1-1.8-.2-2.7 2.46-2.79 3.53-.28 3.1-5.94-2.56-11.3-11.5-4.32-7.2-2.22-12.93 2.1-12.98m-231.17 1.67c16.92-.12 49.23 3.38 93.95 31.36 5.7 3.57 11.4 7.51 17.86 10.7 16.96 9.14 30.96 15.34 52.83 19.42l-.62 11.32c-.2 3.57 5.69 24.24 3 35.87-4.02-.07 3.86 3.43 3.86 3.43l5.14 10.52s-26.85-.23-39.05-2.63c-19.66-3.2-55.54-19.86-72.88-32.97-18.01-13.21-45.22-24.2-68.55-28.45l-.32-9.73s-2.3-33.33-4.17-37.89l-4.29-10.53c1.05.42 5.55-.37 13.24-.42m141.17 7.3-1.3 11.18-14.9 6.98v-9.57zm74.2.5c4.16.01 10.47 4.89 17.67 14.63 1.63 2.2 2.87 4.1 3.11 5.42.22 1.21-.53 1.91-1.72 1.76-2.84-.51-3.88-1.53-4.67 1.99-.2.87.3 2.45-.67 2.17-5.05-1.49-19.5-16.07-18.62-20.73.67-3.5 2.4-5.24 4.9-5.24m-132.6.75 10.86 5.77.48 11.02-9.65-4.15zm-116.66 3.35c3.33-.11 5.4 1.2 6.46 3.79 2.55 6.23-1.97 9.99-15.39 12.8-11.66 2.77-11.42 2.94-9.8-1.38 1.1-2.88-2.51-3.2-4.53-3.96-3.4-1.28-.61-1.68 9.17-6.56 6.15-3.06 10.76-4.59 14.09-4.7m-38.8 2.96c.33-.03.72.28 1.3 1a44.5 44.5 0 0 1-8.87 65.25c-2.44 1.62-2.53.12-2.25-3.09l.42-6.1c.11-1.21 24.66-16.28 6.5-49.8l1.53-4.74c.48-1.5.81-2.48 1.36-2.52m277.01 6.38c6.7.02 25.48 17.06 17.48 17.67-.94.08-.62 1.3-.63 2.07 0 .78-.04 2.25-.26 2.81-.58 1.49-2.77 1.2-6.14-.8-8.54-5.06-10.48-6.68-13.44-9.47-5.82-5.5-4.16-12.31 2.99-12.28m-66.16 2.93-.12 9.19-13.38 6.48.08-8.31zm-169.61 6.6c9-.31 14.07 8.66 5.08 13.38-3.6 1.89-15.45.56-20.96.08-6.21-.55-2.54-2.4-2.2-2.95.86-1.4 1.52-1.62-1.73-3.55-2.57-2.71-4.05-3.38 2.4-4.21 3.11-.41 10.7-1.15 13.34-2.01a15 15 0 0 1 4.07-.74m274.2 2.18c.66-.03.6 1.08.31 3.94l-.43 6.14c-4.1.65-24.49 25.99-7.93 55.46l-1.38 5.24c-.65 2.58-.85 2.96-3 1.36-12.4-8.58-16.43-52.23 9.28-70.29 1.67-1.1 2.63-1.82 3.14-1.85m-48.4 5.12c2.4.04 5.33.72 8.7 2.25 7.83 3.56 13.03 6.44 14.24 8.35.75 1.17-.43 2.15-2 2.6-1.91.55-2.15 1.35-1.63 3.6 0 1.3.33 2.74-1.3 2.82-3.02.17-9.77-1.96-16.6-5.63-11.52-6.2-9.96-14.14-1.4-13.99m-58.55.14v11.18l-11-5.08zm-184.33 9.61c1.17.03 2.71.24 4.74.56 2.48.4 6.32.78 8.3.75 12.54-.22 17.73 8.5 7.39 12.94-2.83 1.21-4 1.08-11.74-1.16-3.7-1.08-8.24-2.2-10.1-2.73-3.72-1.06-5-2.23-2.54-3.07 2.3-.79 2.5-2.37 1.07-4.48-.35-2.1.32-2.88 2.88-2.8m291.22 0c-1.78 17.3-3.23 30.79-5.84 47.73-1.91-.75-15.44-32.67 5.84-47.74m-52.73 8.3c4.07.06 10.96 1.63 17.65 4.26 5.85 2.16 6.6 2.73 2.55 4.46-2.44 1.04-2.15 1.97-1.43 3.57 1.12 1.2 3.23 3.6-.1 3.11-3.93.3-14.28-.29-17.43-.84-9.45-1.66-12.02-10.17-4.27-14.13a7 7 0 0 1 3.03-.44m-242.66 4.37c.87 0 2.47.47 5.38 1.39 16.96 5.35 23.84 11.83 15.53 18.12-2.41 1.82-6.15 1.05-13.2-2.9-7.22-4.02-10.84-6.23-12.18-7.66s-.61-3.04 1.44-2.9c2.81.18 2.39-1.23 2.16-3.6-.15-1.65-.25-2.44.87-2.45m45.75 1.57 13 2.95L366.9 797.7c-11.08 3.2-17.48 4.58-25.27 8.77l22.46-3.87-1.95 10.15-20.39 3.84-.46 3.03 23.36-4.22s-.83 9.7-1.65 13.44c22.3-1.79 44.3-7.98 66.72-8.16 0 0 .55-112.05.46-124.27-.09-13.2.02-28.97.02-28.97l22.48 12.68 3.7 141.22 70.4 11.44c-.5-2.38-2.4-13.3-2.4-13.3 52.18 15.39 105.1 38.14 151.93 85.15-21.8 11.78-42.4 23.48-63.57 34.82l-3.07 4.41c53.7-25.08 135.32-77.23 194.25-134.86l1.3 373.42-282.1 1.13-.01-34.94.16-31.22c-1.15-20.02 2.34-42.07-3.8-58.87l-1.2-17.6c17.4-20.22 26.78-45.72 35.07-71.78 0 0 8.37-3.23 12.45-4.67l1.4-5.12c-8.09 4.13-26.65 11.06-26.65 11.06 2-1.56-39.46-19.02-65.07-23.12-42.26-6.76-99.1.2-144.41 22.68-2.22 1.56-3.17 1.52-2.61-.5 10.52-38.27-11.64-76.68-50.55-87.81-8.25-2.36-15-2.35-15-2.35l.7 3.35c63.57 7.17 78.48 74.34 54.01 105.55-6.41 10.3-7.4 13.3 6.07 12.96 54.43-.45 73.36 60.37 48.55 94.02.06-.26 2 3.92 2 3.92 15.48-20.42 19.6-59.22-7.81-86.48 20.26-22.6 59.17-58.76 92.82-56.65 12.24.77 24.33 15.6 32.39 27.43 17.04 25.06 21.42 60.05 22.63 80 .3 5.23.99 9.03 1 11.78.03 7.99-1.5 7.03-6.66 5.7-6.48-1.67-15.37-1.74-21.93.26-10.55 3.22-8.85 1.38.54-10.25 5.54-6.87 6.28-8.99 4-9.44-.7-.13-3.06 2.22-6.13 6.95-9.26 14.25-8.54 8.4-1.85-13.83 4.36-14.45 3.92-15.45-7.94-24.44-3.92-2.97-8.74-5.85-9.17-6.76-2.23-4.74-3.16 1.21-1.17 5.12 1.96 3.82-2.18 5.56-9.46 1.62-17.15-9.49-28.3 9.73-13.01 18.06 3.6 1.96 5.62.35 2.83-2.22-9.41-8.71-2.86-16.04 9.88-8.33 7.35 4.46 10.15 3.03 12.61-2.55 1.37-2.27 12.8 5.92 12.79 9.09 0 2.08-1.34 8.75-2.63 13.22-3.66 12.62-4.66 16.53-6.24 24.71-2.88 14.82-2.8 22.41.28 28.93a31.2 31.2 0 0 0 39.33 15.61 42 42 0 0 1 6.38-1.56l.18 10.71c-29.7 11.25-51.16 46.36-50.18 47.55l-10.6.03c-14.06-27.92-38.8-48.94-70.25-60.56 0 0-3.78-6.3-.4 5.2.2 4.61 5.06 11.11 9 13.38 14.93 7.59 34.7 21.05 45.6 41.95l-7.5.12c-9.16-13.94-21-23.36-32.25-31.58-2.65-.55 1.92 25.3 12.72 33.27l-193.63 3.37c13.21-51.7 15.75-109.06-15.22-184.26 25.68 1.57 48.45-3.94 69.31-13.04l-1.88-5.36c-23.78 11.35-49.86 13.58-75.97 10.91 19.8 36.67 37.14 113.51 20.26 187.42l-71.07.38-.98-402.88s2.78 2.54 3.65 3.42c2.23 2.23 3.74 5.58 4.37 8 .82 3.1 1.68 3.28 6.1 6.6 2.13 1.59 3.36 2.99 3.35 3.81-.12.92-.14 3.74 1.29 5.48 3.9 4.72 3.21 7.75.28 10.8-13.62 14.17-22.16 43.96-15.27 75.38 16.16-10.88 32.8-39.32 33.33-39.37l1.56 38.85c-1.43-.32-11.29 5.52-11.41 13.16-4.47 1.33-9.92-.89-14.45-2.22l3.27 11.44c-16.59 6.61-17.48 29.3 1.74 35.78 0 0-1.75 8.87-3.26 13.63l12.48-1.9c7.25 21.65 35.08 14.72 34.95-.38 0 0 8.47 3.18 11.68 4.6L215.38 954c31.65-15.79 7.98-36.46.75-36.17.1-4.12 1.99-5.42 3.73-10.22l-12.79.8c-2.34-7.62-10.93-13.86-11.25-13.02l-1.77-55.61c9.66 8.43 19.17 17.07 31.98 23.78 11.83 6.19 13.03 4.8 11.28-5.88-.79-4.82-.72-7.99-.72-7.99 4.44 1.04 15.63 15.59 15.09 22.76 4.08 5.33 7.8-9.01-2.75-21.23 28.07-29.4 49.46-78.1 54.01-111.3l37.33-14.85.42-4.86c25.42-17.01 38.69-40.68 45.67-67.44m31.06 8.69 8.59 3.83-9.75 4.84zm-82.75 2.35c1.66.76 4.16 2.4 7.6 4.93 7.3 5.35 11.56 9.04 11.7 12.28.07 1.6-1.1 3.68-2.95 4.66-4.4 2.33-8.63.42-18.15-9.33-3.09-3.16-5.15-4.84-6.08-6.24-1.1-1.64-.3-3.18 1.52-2.51 7.73 3.5 1.04-6.2 6.36-3.8m263 2.01c1.6.01 2.84.05 3.63.2 2.07.42 2.67 1.6 1.38 2.73-1.97 1.77-1.42 3.56.59 4.52 1.37.65.81 2.04-.84 2.99q-1.45.83-4.48 1.78c-11.72 3.67-20.35 2.57-22.61-2.89-2.6-6.27 2.37-9.32 16.7-9.3 2.12 0 4.04-.04 5.63-.03m-170.62 3.73-.1 8.41-12.16 5.84 1.32-8.53zm-103.36 2.63c1.07.07 2.82 1.7 5.36 4.82 11.73 14.36 13.31 17.14 9.47 20.95-4.55 4.51-10.94.15-17.82-12.44-.92-1.7-2.05-3.87-2.72-4.66-2.53-2.95-1.42-3.88 1.78-3.63 1.75.13 2.58-.48 2.63-2.29q.07-2.84 1.3-2.75m281.09 7.27c2.13 0 1.97.72 1.02 3.2-.73 2.2-1.94 2.92 1.16 4.3.51.25 1.66 1.66.62 2.27-2.44 1.65-13.38 6.63-17.33 7.94-7.69 2.56-12.42-3.7-7.9-9.93 1.88-2.6 14.88-7.32 21.36-7.74q.6-.04 1.07-.04m-287.23 8.32c7.8 11.63 8.77 17.06 3.64 20.45-3.25 2.47-10.18-1.08-11.76-8.59-1.21-5.75-1.77-11.76.1-16.53 2.84-7.23 7.22 3.47 8.02 4.67m109.45-4.8.06 9.09-14.79 7.42 1.37-10.01zm30.14.36 13.9 9 .8 7.75-14.36-7.9zm155.13 8.95c.36 0 .56.17.56.6 0 1.07-.27 4.87 1.8 5.22 4.1.68 3.17 1.95-.42 5.03-3.88 3.44-7.42 7.51-12.1 10.02-12.05 4.45-15.84-8.29-4.43-14.91 3.94-2.29 7.51-3.87 10.18-4.62 2-.56 3.6-1.35 4.4-1.34m-154.74 4.67 16.11 9.5.57 9.55-16.02-8.15zm-31.08.89.06 8.3-15.73 9.01 1.3-9.29zm65.11 6.78c4.46 2.08 61.64 17.96 80.57 12.54 0 0 16.2 23.36 28.2 31.72-18.57 27.24-81.42 53.94-81.42 53.94zm128.7.58c1.04-.04 1.3 1 1.29 2.95-.26 5.65-9.54 26.45-16.94 15.8-2.03-3.98.04-8.09 6.52-12.99 5.15-3.89 7.8-5.71 9.13-5.76m-311.31 3.28c1.41 1.54.78 6.27-2.27 5.96-.88-.09-1-4.9-.42-7.5.88-.43 2.2 1.03 2.69 1.54m117.7 2.64-.1 10.55-18.66 10.16 2-11.74zm30.86 1.49 18.48 9.85 2.17 11.66-20.49-10.62zm-30.9 14.34v10.64l-20.97 10.75 1.43-10.5zm31.26.92 20.67 11.76 2.71 11.08-23.08-11.92zm-292.96.35c3.4-.05 4.61 3.56 2.05 5.86-1.69 1.57-6.48 1.25-6.9 0-2.17-2.1.8-5.8 4.85-5.86m6.33 11.25q.76-.05 1.38.1c2.44.63 3.96 4.15 2.47 6.16-2.76 3.71-10.04 1.14-8.97-3.55.28-1.24 2.95-2.56 5.12-2.7m255 3.54v9.52l-22.8 12.04 1.44-10.64zm32.27 1.33 23.54 12.64 1.8 10.66-25.3-13.17zm-298.45.28c1.14-.06 2.04.25 2.53 1.1.44.76.95 2.7 2.59 3.66 3.05 1.76 3.36 2.13-2.43 4.67-2.44 1.07-7.24 4.33-8.91 5.46-5.13 3.45-7.2 2.29-7.59-1.79-.47-5.14 8.88-12.83 13.8-13.1m17.67 7.79a5.3 5.3 0 0 1 3.17.7c1.96 1.3 2.06 3.89.18 5.2-4.31 2.75-11.05-1.02-7.47-4.32 1-.93 2.59-1.5 4.12-1.58m248.49 5.15.12 12.34-25.45 13.42 1.7-12.52zm-261.07 1.45c1.66-.1 3.26.3 4.65 1.32 1.51 1.93 3.32 2.5 4.38 2.53 4.36.17 2.97 1.77-1.6 3.85-6.32 2.89-10.76 6.54-15.3 10.76-4.72 4.38-5.07 5.33-6.62 3.53-5.78-6.69 5.48-21.49 14.49-22m293.76.15 26.66 14.59 2.3 12.32-28.96-16.12zm-276.25 8.69c1.08-.03 2.1.23 2.9.88 1.89 1.54.79 4.53-1.84 5.88-2.22 1.14-5.9.66-6.96-.4-2.51-2.54 2.05-6.27 5.9-6.36m-12.88 6.2c1.62-.16 3.1 1.91 4.41 4.15.47.56 2.3.31 3.6.32 4.99.04 5.68 2.15.84 4.84-1.42.78-6.07 4.34-9.17 6.98-8.37 8-12.91 6.12-11.84-2.07 1.02-7.83 7.82-13.8 12.16-14.22m289.13.76 29.41 16.13 2.87 13.26-32.28-17.4zm-32.47.24-.12 12.22-27.7 14.65 2.15-12.4zm32.9 15.55 32.96 19.95 1.2 12.98-34.16-19.67zm-32.92 2.17.06 11.98-30.62 15.53 1.55-11.32zm-248.57 7.93a5 5 0 0 1 2.12.37c3.6 1.65 2.65 4.51-2.74 7.45-5.5 3-7.4 2.48-8.58-.88-.99-2.84 4.97-6.85 9.2-6.94m344.02 1.62c57.3 13.11 113.38 41.47 167.83 90.98l-11.37 8.04s-47.72-54.42-153.77-86.32zm-62.18 5.7 15.89 9.37.04 2.39-15.93-1.31zm-270.75.1c1.21.06 2.26.76 7.95 3.47 22.8 16.47 31.94 26.4 37.6 44.44 3.4 10.82 3.33 10.38-7.82 4.5-10.5-5.57-24.87-14.82-34.16-26.77-1.53 28.13 1.75 63.09 1.75 63.09 14.25 7.02 9.64 25.3 9.6 25.18 36.66-10 28.62 38.38 1.3 27.95 6.52 36.3-35.04 33.34-30.79 2.23-33.08-1.28-27.23-37.34.24-32.35-2.86-11.12 1.07-18.66 11.2-23.43l-1.54-47.52s-26.96 38.7-31.46 38.08c-2.65-.35-6.63-4.8.07-38.72 3.5-17.67 22.23-39.18 32.71-39.87 1.86-.13 2.63-.32 3.35-.28m26.37.36 4.83 3.31-4.55 8.12-5.03-3.64zm210.95 2.33-.16 7.12-14.85.89zm-162.81 80.42c-2.23.06 3.76 1.46 7.54 4.86 34.94 5.4 56.32 48.15 40.15 79.1-1.95 1.38 1.07 8.13 3.03 5.59 17.04-24.16 4.36-83.53-45.37-89.19a71 71 0 0 0-5.35-.36m13.2 16.23c-2.8 7.7-3.55 9.55 3.65 6.4 12.72 4.71 26.44 25.41 22.05 46.22-1.41 2.42 1.06-1.59 2.73 5.25 6.28-15.22.02-48.05-28.43-57.87m161.5 38.75c35.78-.1 71.18 7.71 99.33 23.9-9.57 5.32-40.1 12.74-40.1 12.74-17.17-19.26-25.92-38.52-56.95-28.67-32.5 8.39-61.78 36.52-78.25 55.18-16.51-9.83-25.46-12.23-40.1-13.05-.85-.02-2.1 3.71-1.06-2.3 4.18-6.46 7.07-13.77 9.87-21.15 30.7-17.46 69.2-26.54 107.27-26.65m111.18 24.72c-7.12 23.04-16.32 45.74-31.92 65.74l-1.93-10c14.67-22.53 21.63-43 24.76-52zm-13.84 5.98c.91 1.47-14.22 37.54-21.7 44.1l-2.93-9.31c6.1-9.2 15.12-31.39 14.86-31.6zm-92.35.04c-.47.04-.63.46-.64 1.36 0 3.32 3.45 5.92 9.73 7.35 8.5 1.93 20.42-1.02 20.43-5.04.01-2.32-1.65-2.5-6.52-.24-6.1 2.83-11.5 2.27-19.47-1.94-1.82-.97-2.92-1.55-3.53-1.49m75.71 5.76c-2.36 8.74-5.87 15.17-10.35 21.85l-1.44-4.6c3.1-5 5.14-10.72 7.76-16.3zm-8.89 2.83c-1.14 3.04-2.4 6.56-5.04 9.27l-3.4-7.22zm-53.8 6.7c-5.77.1-11.47 1.96-11.97 5.02-.23 1.47 1.98.9 12.7-.4 5.65-.7 8.34 2.66 13.52 2.3 2.64-.31.17-2.75-.65-3.45-2.87-2.46-8.52-3.57-13.6-3.48m-24.6 6.67c-.57.12.07 1.59 2.23 5.34 1.17 2.03 1.47 6.17 1.7 8.73-.3 6.37-.27 6.17 2.88 2.48 1.98-1.96 5.83-1.52 11.94.13 3.93 1.06 4.88 1.44 7.6-.27 3.17-1.98 3.92-.98 6.65-.43 2.63.52 5.02-.53 7.9-1.33 3.52-.97 4.2-.75 7.26 0 4.69 2.22 4 2.02 4.4-5.92.4-7.82-.03-8.37-4.56-5.74-4.38 2.55-7.4 3.71-14.13 1.36-7.32-2.55-8.36-1.9-13.56-.34-6.28 1.9-9.14 2.54-14.14-.52-3.3-2.01-5.51-3.62-6.17-3.5m-102.4 11.81 2.82 4.57c25.33 9.07 42.5 29.77 32.37 64.67l2.4 3.86c12.68-35.17-1.79-64.24-37.58-73.1m7.84 14.89 3.46 7.08c19.06 9.21 17.92 34.57 16.85 33.57l3 6.6c4.76-16.41-3.93-40.64-23.3-47.25m79.62 37.82q-1.13 0-1.45.78c-.49 1.27.99 2.03 9.7 8.05 7.48 5.17 13.26 9.02 12.82 9.75-.3.5-4.95-.63-8.27-1.62-8.7-2.59-21.54.53-28.74 5.6-1.82 1.22-4.86-.12-7.5-.8-1.05-.31-3.39-.59-4.53-.29-5.44 1.43-.18 6.62 13.14 13.37 16.34 8.27 25.19 9.02 35.12 4.01 6.58-3.41 8.95-.88 1.74 3.01-12.59 6.79-24.65 4.69-44.55-8.99-9.21-6.34-12.9-5.28-4.97.76 13.9 10.87 40.66 24.13 57.09 7.93.64-.23 2.13-.12 2.85-.12 3.41.01 3.55-1.06 0-6.7-2.15-3.4-6.5-6.98-1.21-11.14 4-3.15 3.72-4.66-1.12-6.1-1.28-.35-1.15.49-3.07-1.06-11.63-9.38-23-16.46-27.05-16.44m5.04 18.53c4.88.13 9.8 3.89 11.33 10.65q.21.9.35 1.87l-4.17.15c-3.44-13.78-13.83-9.21-14.87-1.14l-3.74-.5c1.37-7.68 6.22-11.17 11.1-11.03m86.13 11.75-2.76.41c-1.81-5.07-10.02-11.89-13.93.47l-3.49-.14c2.43-16.75 17.63-14.14 20.18-.74m-21.22-6.96c1.13 1.61-.86 4.32-2.02 5.56-1.1 1.18-3.56.18-4.59-.99-.9-1.15-.23-3.44 1.27-4.21 1.55-.79 4.2-1.51 5.34-.36m-48.68.5c1.16 2.6-2.1 4.54-2.5 3.66-.7-.24-1.56-4.53-1.16-4.81 1.08-.03 3.22.32 3.66 1.15m73.18-.42c1.75.14 3.66.97 4.01 2.95.02 1.31-1.5 2.73-3.23 2.81-.76.03-3.68-2.11-3.14-5.17.62-1.08 1.34-.67 2.36-.59m-101.74.82c.62.95-.54 3.76-.8 4.14-.13.19-3.87.03-3.8-.25.09-.27-.34-2.39.57-3.93 1.04-.66 3.29-1 4.03.04m67.87 9.07q.73 0 1.82.67c10.45 6.79 23.9 9.83 33.57 4.97 2.16-1.08 3.58-1.03 3.58.02 0 1.15-2.4 3.49-6.87 4.84-9.97 2.99-26.43-.96-32.12-7.07-1.68-1.79-1.43-3.46.02-3.43m-91.64 7.13c-1-.03-1.33.55-1.13 1.76.66 4.05 28.6 20.09 40.3 22.26 9.59 1.77 17.04.97 22.91-2.43 14.25-8.28 10.6-19.48-3.35-11.04-9.37 5.66-33.11 3.06-47.23-5.1-6.28-3.63-9.84-5.41-11.5-5.45m125.9 5.86c3.53-1.48 5.05-2 5.82-1.35 3.6 3-2.29 7.69-13.02 9.52-8.58 1.41-13.75 1.68-23.55-5.57-7.58-5.61-4.01-8.32.35-5.78 11.59 6.77 20.2 6.99 30.4 3.18m-123.42 17.53c24.73 8.86 52.85 30.21 65.34 56.14l-7.63-.06c-8.48-14.8-25.28-33.61-52.97-46.83-2.45-2.02-3.73-5.62-4.74-9.25m129.85 12.14v8.11c-15.28 7.7-28.09 19.55-37.75 35.89l-8.64-.11c9.9-17.55 24.75-33.96 46.39-43.89m0 12.36v9.95c-9.66 5.67-17.72 13.13-23.38 21.69h-10.23c8.2-13.86 19.45-24.91 33.6-31.64m-113.18 7.65c7.36 4.23 19.55 15.51 23.97 24.2l-3.93.18c-4-5.11-10.41-10.98-15.62-15.59a23 23 0 0 1-4.42-8.79m113.19 6.38q.19 0 0 .24v7.91c0 .2-7.34 4.99-10.46 9.46h-8.3c5.7-10.32 17.57-17.64 18.76-17.61m.02 13.14-.02 4.47-5.22.03c.35-.51 3.25-3.7 5.24-4.5m-101.81 1.13c1.56.82 2.76 3.75 2.76 3.75l-1.4.15z"/><path fill="#e2cf00" d="M204.76 1004.92c17.19.46 53.48-5.96 52.9-5.3 0 0 112.59 187.06 108 185.21-1.46 2.32-144.22 2.24-144.22 2.24-3.1.03 30.28-69.32-16.68-182.15m51.05-131.8c54.86-45.45 112.32-45.79 174.04-52.04l1.41-154.49 22.34 13.37.47 141.55c81.46 6.1 151.74 35.93 212.11 88.15.76 1.14-87.35 48.25-125.94 60.71-29.96-21.99-109-35.85-161.4-18.94-14.4 4.64-32.08 12.07-49.28 17.56 12.46-74.58-45.79-85.59-66.27-89.03-2.56-.43-5.63-5.95-7.48-6.83m-70.43 24.1c.96-15.88-.07-31.79-1.26-48.03-.32-3.71-32.08 48.34-33.86 35.71-4.45-31.6 11.25-71.79 35.91-76.72 2.46-3.32 51.31 26.91 49.08 53.04-.73 8.5-43.58-28.75-43.76-26.53-1 4.36 1.26 62.67 2.6 62.55 12.33 6.94 9.65 15.86 11 23.25 33.05-4.87 31.25 31.8.05 30.65 1.92 43.33-38.32 23.75-30.39.68-40.52-1.91-20.57-39.76-.4-31.45-1.2-9.55 1.16-19.51 11.03-23.14m46.5-183.83c-2.34-.92-86.45-5.23-86.45-5.23l4.4-204.81c42.94-98.6 204.55-52.49 178.85-31.5-77.23 50.58-88.99 142.83-96.8 241.54m155.14-84.13-2.57-22.74c-6.6-14.14 171.98 68.32 174 70.08l5.18 24.27c1.03 10.66-113.58-43.2-176.61-71.61m324.83-40.17c-2.63 91.9-16.8 154.15-70.2 229.25-1.49 2.47-16.58 8.72-17.76 10.84 7.63 12.07 51.2 29.77 71.33 39.29l104.71-62.35c1.21.1-3.58-218.4-3.58-218.4zm39.63-99.8c-14.07-2.15-46.8-36.1-40.02-46.35.21-7.7 40.73 21.78 44.94 29.72-2.07-2.36-2.36-72.02-3.02-69.25-1.54.82-12.37-6.94-9.55-21.45-31.06 6.86-29.36-33.49-2.21-31.84-3.51-36.7 41.34-23.22 29.4 1.36 38.39-7.07 31.77 36.01 2.76 29 2.46 16.34-4.28 20.85-13.7 24.11.6 6.85 3.17 52.53 3.17 52.53s28.38-43.47 30.41-39.73c5.68 13.2-4.67 82.91-42.18 71.9M619.97 328.97c-12.8 44.13 22.28 94.54 55.43 94.4 6.66-1.05 19.44 2.55 15.03 6.12-52.3 42.35-174.33 51.15-174.36 49.31 1.28 52-1.05 104.51-2.3 156.5l-22.36-13.47c-.72-47.42-1.88-95.92-2.97-143.33-78.2-10.2-148.47-35.4-204-89.04 36.87-27.32 80.92-44.38 123.24-61.62 53.28 27.66 127.46 43.65 212.29 1.13m-38.59-209.65c-2.45-1.08 8.43-9.16 8.43-9.16s90.85 1.2 135.91.59c-16.42 67.37-4.8 127.73 16.4 185.7-5.62-1.32-42.94 1.7-52.05 5.78-1.46 1.47-107.54-181.27-108.69-182.91"/><path fill="#d40000" d="M845.3 1236.45c-1.47-4.13-1.48-4.63-1.82-42.38-.33-38.15-.17-42.33 1.9-50.24 3.95-9.87-7.6-9.91-14.9-11.1v-15.6c8.57-1.19 18.9 1.3 22.69 6.31 8.9-6.15 14.67-7.19 20.83-6.94 20.7.08 29.81 12.87 29.25 37.56-.1 4.02.63 9.18.63 9.18h11.13v15.78h-11.7s1.9 39.14-.75 52.97c-8.05 30.81-46.3 32.82-57.26 4.46m42.18-5.56c1.98-4.68 1.68-2.73 1.76-38.64l-.05-16.42c-16.42-3.78-30.94-23.46-30.84-23.46 0 0-.2-1.89-.34 35.38-.17 42.25 1.32 44.7 10.27 51.53 8.69 4.91 15.83-.66 19.2-8.39m-22.94-94.98c5 7.02 11.22 14.2 18.6 19.99 2.75 2.17 6.62 3.03 6.62 3.03s-.2-4.75-.22-7.17c-.1-14.75-10.72-26.35-25-15.85m-495.92 48.66L258.8 999.17l16.47-7.16 113.24 192.83zm286.98-25.71c-41.24-6.5-52.85-58.33-22.54-107.09 14.34-23.65 74.38-111.66 70.85-108.73-1.88-1.65 46.14 68.13 70.14 103.91 22.73 37.74 34.82 99.41-21.03 110.73-21.4 4.34-43.63-8.52-44.62-33.51-.14-3.49-1.58-6.35-3.63-6.35-1.7-.01-2.9 2.44-2.91 4.86-.58 23.86-21.99 40.14-46.26 36.18m193.33-61.01c-18.35-6.11-21.63-28.13-7.95-53.31 11.2-20 17.07-25.14 27.4-45.03 4.24-8.2 4.71-8.37 7.9-2.76a1954 1954 0 0 0 22.94 37.25c17.99 28.02 21.15 47.58 9.6 59.38-10.47 10.7-32.64 4.48-32.74-9.19a7 7 0 0 0-.7-2.45c-.84-1.6-2.52-.54-2.54 1.59-.08 9.95-13.39 18.03-23.9 14.52M173.17 936.69l15.87-16.32 15.9 16.12-16.63 15.45zm352.4-103.98-2.24-13.25c63.29 15.5 115.08 48.02 152.33 83.43l-8.87 6.49c2.77-.75-89.9-70.24-141.22-76.66m-183.8-13.06 20.06-2.9-.56 11.13-19.07 4.34zm370.42-8.8-10.93-8.81 7.86-9.33 10.63 8.37zm-371.68-89.84c27.17-12.86 48.37-64.72 45.71-68.18l14.8 3.5-34.2 142.11-25.74 4.66c-.12-27.19-.58-54.91-.57-82.1m178.78 80.42c-9.21-29.92-27.34-97.59-27.34-97.59.66 2.21 58.92 18.78 79.7 12.74a241 241 0 0 0 28.92 32.6c-21.57 21.1-48.35 38.72-81.28 52.25m244.21-108.9-10.26-8.9 9.2-11.27 11.28 8.59zm-134.08-5.95c-8.36-15.02-8.95-32 6.57-48.75zm-318.81-29.12c-.66-1.54 3.52-37.14 4.5-38.72 1.73-2.77 5.11 7.21 6.7 14.85 2 9.56-8.77 29.55-11.2 23.87m234.47-11.05s22.56-104.53 32.33-145.5l27.53-6.94-3.72 85.83c-22.62 20.22-41.43 68.4-41.43 68.4zm-362.62-17.38-10.9-10.18 9.22-10.08 9.61 9.83zm195.14-40.75-29.93-35c18.54-25.79 49.32-40.71 81.93-52.42l22.08 98.22c-24.96-7.52-51.87-15.66-74.08-10.8m-152.95-87.55 7.68-9.54 10.05 7.9-7.64 10.56zm360.29-29.51 19.25-2.75-1.45 13.21-20.38 3.25zm-313.68-74.27 11.85-7.37c41.63 37.36 87.6 63.13 137.73 77.8l3.38 16.13c-56.54-17.43-109.95-43.83-152.96-86.56m486.38-14.9-15.42-15.2 13.88-15.43 16.49 14.24c-5.45 8.2-14.95 16.39-14.95 16.39m-517.38-28.12c-19.1-29.5-41.11-60.82-58.42-86.63-28.71-42.93-36.48-72.04-27.43-98.37 14.81-43.16 78.04-40.89 82.64 2.97.94 8.95 5.18 8.2 6.33-1.04 6.11-48.76 80.27-42.4 84.72 9.56 4.7 44.12-25.81 78.37-42.66 101.73-14.95 23.8-32.35 46.46-45.18 71.78M57.54 284.05c-12.51-20.93-46.72-68.18-13.93-82.74 11.64-5.17 26.53 4.05 26.49 13.9-.02 4.45 2.44 4.7 3.02.09 2.4-19.34 29.5-20.73 38.18-2.03 7.41 22.24-5.97 42.53-24.73 71.1-4.3 6.56-14.24 24.4-14.24 24.4zm614.7 24.04-115.4-196.81 16.68-.14 113.54 189.58zM42.4 136.26H30.6v-15.8h11.8s.1-8.49.43-23.5c.72-32 1.55-36.97 10.96-45.77 18.63-17.4 49.84-3.22 49.46 22.95-.54 36.92-.14 72.13-1.24 77.12-1.95 8.79-2.14 9.29-1.35 10.88 1.62 3.24 15.72 4.63 15.73 3.72v15.55c-10.77.84-15.24-.16-23.85-6.2-5.38 5.1-21.75 10.2-34.76 4.2-9.9-4.58-17.41-16.4-15.38-43.15m39.88 27.58c-5.85-8.32-15.69-19.63-24.96-23.64-.57 9.52.25 17.53 3.68 21.83 5.44 6.85 14.21 8.42 21.28 1.8m4.85-91.21C82.8 60.53 71.64 56.46 63.5 63.99c-5.1 4.71-5.91 9.64-6.01 36.5l-.09 23.53c15.87 5.04 30.7 23.2 30.55 22.96l.4-50.1a140 140 0 0 0-1.22-24.26"/><path d="m555.8 107.96-27.57.1 156.49 314.7s-4.25.72-12.55-1.46c-37.58-9.86-60.74-49.56-52.25-88.5a33 33 0 0 0 1.09-5.62c-96.9 43.84-156.88 27.7-212.82-.23l-23.86 9.15c1.59-14.4 19.41-68.5 46.07-93.98l-.04-27.3-.64-12.87-2.1-23.38c-39.67 37.34-85.95 96.13-91.75 179.6 0 0-36.11 18.56-66.94 39.07 1.72-.22 48.02 56.63 159.27 88.55l-4.9-18.14c16.54 4.65 40.06 8.32 63.45 11.28l3.13 142.49 26.56 15.73.9-157.76c.82.65 42.38-1.46 64.76-6.8l-3.15 15.21 22.1-4.35v11.1l-24.23 5.71-34.51 147.46 20.1 4.48c5.89-29.7 20.75-53.73 42.28-68.47l-.22-5.65c13.82-9.91 42.52-17.79 42.7-17.6 9.8-47.82 32.58-80.97 56.81-112.49l-11.54-15.67 44.24-16.23-61.41-104.49c23.63-16.3 70.49-10.23 70.49-10.23-20.09-54.21-37.74-110.14-17.9-192.2l-170.84.13zm56.04 3.4c-.04 13.7-17.95 12.3-20.14-.07zm109.75-.43c-10.87 62.84-7.26 124.05 17.94 182.21 0 0-3.67.22-4.13.12-.35-.06.43-3.13.24-3.95-.5-2.18-4.13-1.16-7.16.88a43 43 0 0 1-3.82 2.4c-3.12 1.55-18.95 1.43-18.95 1.43 5.17-3.5 12.43-13.34 8.22-19.08-.96-1.23-1.54-.69-2.47.97-4.5 7.99-6.73 9.24-12.74 9.17-9.43-.12-16.17-5.96-15.4-14.77.73-8.56 13.33-13.08 11.47-4.78-.51 7.4 6.83 8.84 8.18 1.47.51-2.76.1-1.48.7-4.72 14.69-7.78 6.59-23.64-7.12-20.32-3.21.85-3.62 1.15-5.9-.02-4.22-2.18-7.73-1.5-9.33 1.56-1.4 2.7.74 4.85 3.87 4.86 3.26.01 3.89 1.58 3.88 3.53-.02 4.54-7.85 6.72-13.05 4.07-13.7-6.99-8.62-25.16 7.3-25.1 4.83.02 6.85.32 7.06-.72.57-2.94-6.81-8.01-10.98-7.27-3.54.7-5.68 1.62-3.81-3.09 1.14-4.85 1.1-7.04.14-10.7-2.55-5.2-2.49-2.53-4.06 1.7-5.24 8.69-13.14 10.6-19.94 5.85-6.31-4.4-6.13-12.78-.12-18.76 4.17-4.15 8.64-1.32 6.14 3.31-1.04 1.92-.22 4.3 1.64 4.78 3.77.96 6.1-1.26 6.12-5.82-.07-2.51-.77-3.07 3.75-5.66 11.73-6.7 2.96-24.98-10.27-19.1-2.9 1.29-3.58 2.55-4.9 1.95-5.52-5.23-13.45 1.38-8.76 4.87 2.02.99 4.5 1.36 5.15 1.43 1.14.65.77 2.27-.9 4.31-5.47 6.46-17.91 3.27-20.85-5.84-3.4-10.55 7.39-21.64 15.65-15.49 2.45 1.82 4.57 2 4.58-.68.01-4.2-5.27-9-12-8.53-6.84.48-6.1 1.36-2.37-4.82 2.75-5.5 2.38-10.87-.02-14.1-1.84-2.5-3.74-3.02-3.55-.38 1.5 8.17-8.06 15.95-15.91 12.52-7.55-3.38-11.3-11.83-7.58-19.16 3.41-6.77 11.7-7.47 10.33-.25-.65 4.61 2.85 7.04 6.24 4.32 1.23-1 1.52-1.86 1.6-4.84.1-3.3-1.25-4.28.88-6.22 5.6-.74 5.95-12.63 5.1-13.12zm-100.22.4c3.55 0 6.5 1.2 6.5 4.76s-2.87 6.42-6.42 6.42-6.45-2.87-6.45-6.42 2.82-4.76 6.37-4.76m-63.01.46h14.29L685.53 299.9l-13.37 6.5zm23.47 6.57c6.84 3.92 13.16 7.12 21.73 7.96a46 46 0 0 0-5.21 20.2zm23 37.89c6.95 2.5 13 6.27 24.48 2.45-6.12 5.42-9.58 11.9-12.18 18.72zm58.72 22.72a5.94 5.94 0 1 1 0 11.9 5.95 5.95 0 1 1 0-11.9m-36.57 14.85c5.04 1.86 10.3 3.08 16.16 2.82-2.9 3.98-3.88 10.04-4.07 16.96zm17.28 29.65c4.66 2.27 10.18 5.58 19.96 4.52-6.48 11-5.1 14.03-5.76 18.84zm56.57 21.84a6.24 6.24 0 1 1 0 12.48 6.24 6.24 0 1 1 0-12.48m-35.06 14.01c4.26 2.41 12.69 3.79 12.78 3.14-.53-.41-2.42 8.12-2.75 13.48zm19.64 32.04c6.07 3.58 12.78 3.24 16.72 3.66a71 71 0 0 0-12.72 3.68zm71.53 35.18c-14.61.94-18 12.15-16.27 23.5-11.13-1.78-23.6 8.78-20.12 21.7 3.3 12.24 14.7 12.67 22.55 11.85-.6 2.97-2.26 12.98 9.83 21.44l1.61 63.58s-5.33-4.9-8.8-8.36c-15.19-15.13-38.03-26.08-36.6-17.56.2 1.26.7 4.44 1.06 7.07 2.42 14.39 21.75 29.95 34.93 37.78a40 40 0 0 1 7.63 5.44c-24.66 26.36-37.91 54.49-41.21 82.4-3.07 25.95-5.55 49.3-8 73.13-10.05 119.47-61.33 149.52-63.76 155.36l-.96 15.94-14.32-1.07-16.48 14.27c54.02 27.92 85.53 61.6 85.1 62.24 43.13-28.24 80.36-59.62 115.51-92.1l-.68-266s-2.92 1.06-3.68 1.06c-2.66-.01-3 1.19-3.93 6.28-.49 2.72-2.12 5.23-3.39 7.02-2.41 3.4-1.55 1.68 1.49 2.9 6.92 2.8-2.07 15.5-11.9 17.04-7.08 1.12-11.04 2.42-12.24 4.06-14.9 13.04-29.76 15.1-41 10.31-5.52-2.36-11.53-5.8-13.56-11.56-4.62-13.05 5-31.87 10.63-42.74 10.34-19.92 27.51-34.9 27.51-34.9l-2.8-3.04s3.37.05 4-.18c14.83-5.39 15.75-5.47 18.47-9.4 2.72-3.92 9.6-15.12 11.01-18.81 7.62-19.81 8.64-21.1 8.63-34.1-.01-10.52-.71-17.56-2.75-18.11-11.67 8.95-23.46 29.85-30.36 42.17-2.38-18.25-3.08-50.12-3.08-50.12 2.46-2.73 16.48-1.2 13.38-24.06 12.34 5.57 25.34-2.95 24.8-14.83-.85-18.5-15.1-17.96-26.71-15.63 5.53-11.17-4.98-24.65-15.54-23.97m-.22 1.56c15.24.47 18.26 17.32 8.92 26.86 0 0-6.05-4.66-9.26-7.31-3.05 2.4-3.93 4.47-7.3 6.93-3.96-2.93-6.35-8.12-6.4-13.13.2-7.81 8.08-13.54 14.04-13.35m-348.39.52c61.7 34.48 139.08 36.95 209.9 1.8l-.86 5.85-7.76 4.37 4.4 8.05 2.42-1.17.06 5.32c-58.38 31.54-156.18 38.06-232.74-14.3l6.66-3.1s1.5 1.05 2.95 1.95c2.8 1.73 7.4 4.5 10.44 5.86l4.63-6.68s-7.08-4.32-6.38-4.6zm5.44 10.58-3.53 8.02 8.85 4.72 3.37-8.09zm-33.57.9c95.02 59.64 183.48 41.89 236.59 17.5l.69 6.36c-68.57 29.16-158.72 36.99-244.53-20.7zm223.67 3.83-8.45 3.37 3.35 7.75 8.7-3.72zm-235.03 1.45c77.22 49.79 160.04 59.53 249.3 23.05l3.4 9.53c-86.92 34.9-178.66 30.89-262.47-28.45zm59.33.28-3.44 8.34 9.57 3.63 2.79-8.18zm162.4 3.45-8.37 2.7 2.6 8 8.68-2.96zm-147.77 2.28-2.06 8.4 9.77 2.74 1.7-8.43zm353.65 13.81c1.31 14.27-19.84 21.15-27.75 7.84l6.97-8.47-6.23-5.82c8.46-13.38 25.77-6.94 27.01 6.45m-439.5-13.34 23.03 15.83-16.74 26-24.8-16.65zm399.24.72 14.63 12.68-13.43 15.71-13.72-13.84zm-9.1 4.3-8.22 9.56 8.9 9.47c-10.55 11.22-26.31 4.29-26.15-9.44.11-10.49 16.17-20.7 25.48-9.6m-170.54-3.67-8.79 2.63 2.01 7.7 9.09-2.36zm-118.55 2.43-1.62 8.28 10.1 2.17 1.7-8.25zm104.04 1.4-9.35 2.03 1.6 8.25 9.38-1.97zm195.12 1.95-7.7 7.56 7.7 7.99 7.77-7.99zm-282.96.24-1.19 8.35 10.58 1.42.82-8.45zm71.21 1.14-9.51 1.09.96 8.18 9.87-1.24zm-56.14.97-.13 8.56 9.28.75.02-8.49zm40.9.8-9.32.34.06 8.29 9.5-.6zm-169.89.08a9.9 9.9 0 1 0 0 19.81 9.9 9.9 0 0 0 0-19.81m154.27.28-9.15.08.04 8.39 9.43.04zm242.61.04 4.02 4.01-4.02 3.96-4.11-3.96zm-396.9 3.17a6.5 6.5 0 0 1 6.5 6.5 6.52 6.52 0 1 1-6.5-6.5m-35.25.48 13.18 10.74c-4.19 8.03-17.48 24.98-17.48 24.98l-24.36-19.52 12.75-7.2a9.6 9.6 0 0 0-1.09 4.45 9.74 9.74 0 0 0 9.76 9.73 9.74 9.74 0 0 0 .64-19.45zm-7.36 6.9a6.55 6.55 0 0 1 6.54 6.55 6.54 6.54 0 0 1-13.09 0 6.55 6.55 0 0 1 6.54-6.55m448.08 3.1s3.58 1.36 4.46 2.7c7.07 10.86-.3 23.76-12.14 23.5-13.85-.29-17.49-17.64-7.97-24.72l7.74 7.3zm-359.93 4.4 27.3 10.48-10.36 29.66-29.84-12.24zm-112.17 3.1c111.34 100.3 269.5 107.52 384.46 40.93l7-.14 3.72 3.82c-130.97 77.44-293.77 60.6-403.68-39.1zm306.57 5.98 8.79 29.32-30.18 7.94-6.74-29.7zm-317.98 1.06c33.8 32.56 81.56 61.1 137.67 77.27l1.38 12.02c-59.55-17.88-104.54-41.77-148.36-83.23zm130.8.46a9.74 9.74 0 1 0 0 19.48 9.74 9.74 0 1 0 0-19.48m-48.53 2.2 28.15 14.88-14.02 28.07-29.9-16.03zm48.41 1.01a6.53 6.53 0 1 1-6.54 6.54 6.54 6.54 0 0 1 6.54-6.54m46.62 4 27.05 3.93-1.25 29.98-31.56-3.8c1.2-10.55 5.76-30.11 5.76-30.11m130.64.74a9.75 9.75 0 1 0 .02 19.5 9.75 9.75 0 0 0-.02-19.5m-.11 3.21a6.54 6.54 0 1 1-.01 13.08 6.54 6.54 0 0 1 0-13.08m-219.91.42a9.74 9.74 0 1 0-.03 19.49 9.74 9.74 0 0 0 .03-19.49m172.92.04 3.87 30.12-29.53 1.47-1.75-30.04zm211.7 2.7h4.19c.38 25.91 2.44 55.92 5.44 78.1.45 3.31.65 4.29.32 4.88-2.9 5.14-6.28-1.33-7.6-16.07-.35-4.06-.81-9.98-1.31-13.86-1.52-11.76-1.04-53.06-1.04-53.06m-499.22.46c-44.41 27.7-118.29 93.9-117.84 95.44l.3 254.3 5.78.29 4.77-9.35c-7.39-1.85-5.32-15.74 8.83-18.52 2.41-.48 9.79-2.96 11.6-4.34 10.74-8.18 28.19-13.02 40.43-9.79 17.85 4.57 21.51 17.69 12.92 40.51-6.77 18-20.19 41-32.78 47.56-1.03.54-3.26 1.62-3.26 1.62s2.94 2.67 4 3.35c34.7-20.05 52.22-91.99 51.29-136.74 1.4-45.85 9.3-91.85 27.8-125.31 30.59-55.3 71.04-77.53 70.84-77.74 0 0-54.54-33.1-84.68-61.28m114.48.02a6.54 6.54 0 0 1 6.54 6.54 6.53 6.53 0 0 1-13.09 0 6.55 6.55 0 0 1 6.55-6.54m269.78 1.05L650.32 435l-29.27 11.98-10.56-29.42zm-168.39.14a9.74 9.74 0 1 0 0 19.48 9.74 9.74 0 1 0 0-19.48m59.51 2.42a9.75 9.75 0 1 0 .01 19.51 9.75 9.75 0 0 0-.01-19.5m-59.63.78a6.55 6.55 0 0 1 6.54 6.54 6.53 6.53 0 0 1-13.09 0 6.55 6.55 0 0 1 6.55-6.54m59.51 2.43a6.54 6.54 0 0 1 6.54 6.54 6.53 6.53 0 0 1-6.54 6.52 6.53 6.53 0 1 1 0-13.06m99.57 3.33a9.74 9.74 0 1 0 0 19.48 9.74 9.74 0 1 0 0-19.48m-.12 3.2a6.55 6.55 0 0 1 6.54 6.55 6.53 6.53 0 0 1-13.09 0 6.55 6.55 0 0 1 6.55-6.54m-206.78.5 29.26 7.48-6.8 30.68-33.02-8.77zm370.1-.8c4.78 15-4 34.22-4.44 35.47-5.32 15.08-11.72 27.4-14.05 28.11-1.98.75-2.86.27-2.85-1.58.02-2.85 6.54-22.15 11.68-34.57 1.26-3.05 4.17-12.24 4.18-13.79 0-2.32-2.25 1.47-4.68 7.26-4.71 11.6-11.57 24.02-13.06 35.26-1.07 9.19-2.82 7.89-4.1-3.05-1.77-15.19 1.55-23 18.62-44.14 4.08-5.06 8.28-10.26 8.7-8.96m-214.93 7.8 8.46 30.03-34.53 5.9-5.37-30.46zm-144.6 3.02a9.74 9.74 0 1 0-.02 19.48 9.74 9.74 0 0 0 .03-19.48m51.63 1.95 31.27 1.78.29 31.23-33.95-1.47zm-51.76 1.26a6.55 6.55 0 0 1 6.55 6.54c0 3.61-2.94 6.52-6.55 6.52s-6.54-2.9-6.54-6.52a6.55 6.55 0 0 1 6.54-6.54m131.3 2.77a9.74 9.74 0 1 0-.02 19.48 9.74 9.74 0 0 0 .01-19.48m-64.85 2.5a9.74 9.74 0 1 0-.02 19.48 9.74 9.74 0 0 0 .02-19.47m64.73.7a6.55 6.55 0 0 1 6.55 6.54 6.53 6.53 0 0 1-6.55 6.52 6.5 6.5 0 0 1-6.53-6.52 6.54 6.54 0 0 1 6.53-6.54m-64.85 2.5a6.55 6.55 0 0 1 6.54 6.55 6.53 6.53 0 0 1-6.54 6.52 6.53 6.53 0 0 1-6.54-6.52 6.54 6.54 0 0 1 6.54-6.54m213.32 1.87c.51-.02 1.2.08 1.64.08 6.99-.08 30.55 16.84 36.58 27.08 5.01 9.05 2.42 12.64-3.35 4.56-7.95-8.86-22.65-22-24.51-22.01-2.01-.01.75 2.86 10.1 11.98 9.29 9.04 19.08 20.83 19.07 22.93 0 1.39-1.85 1.21-4.5-.42-5.78-3.57-10.81-7.17-13.38-9.6a311 311 0 0 0-6.6-5.97c-8.66-7.59-18.51-25.08-15.73-28.43q.2-.21.68-.2m-436.47 2.48c6.03-.17 12.83 3.66 13.1 10.68.2 4.96.54 5.34 5.02 5.42 4.28.07 16.64 1.54 16.64 1.54l.08 13.89s-5.97-.04-12.85-.36c-11.7-.56-11.65-.57-13.14 4.57-.6 2.08-1.44 3.1-3.77 4.64-10.52 6.9-20.65-5.63-14.13-17.46 2.25-4.06 2.37-5.45.83-7.89-3.15-7.06 1.04-14.67 8.22-15.03m2.57 7.1a5.7 5.7 0 0 0-4.01 1.85c-1.74 1.72-1.75 6.62-.02 9.47 1.65 2.73 1.6 3.46-.32 5.26-3.4 3.17-3.5 9.45-.18 11.8 3.01 2.16 6.22-.68 6.24-5.04.02-4.77 3.36-4.68 3.36-4.68l22 .38.07-3.59-15.97-.8c-2.21 0-4.54-.21-6.25-1.37-1.82-1.26-3.89-3.44-1.9-6.09 2.76-3.71.3-7.2-3.02-7.18m-47.68 8.2 10.44 17.74 12.16.44 1.06 10.8 14.78 9.52-15.14 8.86-.75 10.86-11.47 1.44-10.65 13.34-10.22-13.32-11.25.06-.16-11.14-15.5-9.97 16.96-9.53-.18-12.72 12.02-.8zm368.57 8.07.5 10.72-17.07 3.03 2.22-10.92zM491.1 480.1l23.02.7-1.33 150.39-5.4-.04-.1-5.86-7.36.24-7.48-4.53zm-259.13 3.8-13.5 17.1 16.35 14.29 14.41-16.71zM498 486.2v6.92h9.65v-6.92zm-265.72 5.92 9.5 6.96-7.24 9.57-9.17-7.95zm368.74 3.93-.3 82.3c-31.62 24.82-41.47 68.51-41.47 68.51l-12.87-.76 32.69-145zm-171.42 1.82c-28.46 13.54-57.13 23.8-85.36 56.09 10.93 9.83 22.48 19.86 32.75 36.62 23.5-3.5 49.64.7 78.15 11.92zm68.4 1.85v7.16h9.65v-7.16zm-319.86 10.33c.7 2.2.92 4.54.92 4.54 20.87-1.75 15.55 22.46 2.25 23.3-1.56.2 1.29 4.29 4.4 5.6 7.9 3.31 13.57 1.18 18.76-5.73 3.96-5.3 4.2-6.06 4.2-6.06l12.89 6.83s.37-.2-1.9 5.72c-4.14 10.74 1.9 23.93 6.55 14.32 2.49-5.12 9.8-8.04 14.86-5.92 5.9 2.48 7.95 13.03 3.81 19.69-1.26 2-1.3 2.43-.53 4.3 1.16 2.8 1.88 10 .66 12.33-1.57 3.02-3.39 3.7-6.94 1.25-4.86-3.37-7.57-4.78-16.03-7.13-14.85-2.8-17.75-8.02-23.66-20.22-17.58 5.26-43.9-5.76-40.39-31.87 1.6-5.76 2.04-16.82-.9-19.08-5.76-4.43.56-10.83 9.21-11.86 7.1-.7 10.53 6.03 11.84 10m248.77-7.57 22.88 95.8c-25.1-9.2-49.75-16.38-71.56-11.04-9.98-15.94-18.5-23.78-29.57-34.14 21.58-26.01 49.02-40.57 78.25-50.62m-258.8 4.7c-1.48-.02-3.15.62-4.9 2.16 0 0 1.55 1.3 2.39 3.05 1.34 2.8 1.35 2.8-.16 9.03-6.98 24.95 9.57 41.46 33.1 34.25 5.79-1.79 5.56-1.59 7.23 5.2 2.74 11.17 10.65 16.94 26.35 19.06.96.13 2.57.45 3.85 1.23 6.9 4.4 4.08-1.46 2.19-3.74-1.35-1.78-3.82-3.55-3.82-3.55s2.1-1.36 3.1-1.88c4.42-2.35 6.08-11.55 2.42-13.53-3.33-1.8-9.02.92-9.03 4.34-.02 6.24-7.9 6.9-14.8 1.71-8.83-6.66-1-23.44-.95-23.42l-4.99-2.19c.67.59-10.5 16.45-24.24 10.92-9.6-3.86-16.35-14.97-11.9-18.15 3.23-.86 7.12.92 9.58-.98 4.9-3.85.95-10.6-6.05-10.35-1.47.05-4.82.7-4.82.7.37-3.14 1.18-5.36.78-8.39s-2.51-5.45-5.34-5.48zm330 7.28v5.9l9.54.06v-5.9zm-.1 12.16v6.08h9.64v-6.08zm0 13.1v6.22h9.64v-6.22zm0 12.22v6.58h9.64v-6.58zm0 12.26v6.14h9.64v-6.14zm0 12.5v6.2h9.64v-6.2zm-313.79 6.06 8.12 13.73 9.65.42.39 9.43 16.41 12.54-14.34 10.25-1.05 10.18-11.38.36-9.2 15.53-11.34-13.63-9.11-1.46-1.05-12.4-14.02-10.5 13.18-10.53 1.06-11.02 10.74.95zm534.09 6.56q1.32.01 2.87.79c3.4 1.72 4.48 1.92 13.34 2.36 10.27.52 13.9 1.44 19 4.84 3.08 2.05 3.26 2.04 6.54-.14 14.43-9.56 30.9-.87 32.1 16.93.32 4.68.8 6.57 2.63 10.5 1.26 2.72 2.57 4.87 1.8 6.6-2.3 5.3-13.42 5.64-19.47-2.23a4.6 4.6 0 0 0-3.7-1.7c-3 1.12-10.7-4.94-10.61-5.2-.71 4.21-1.07 7.56-1.82 13.69l-13.47-.2s-.3-2.47-.92-11.08c-.72-9.9-3.18-12.8-6.34-7.45-5.44 9.2-19.91 5.16-20.75-5.8-.29-3.71-.5-4.2-2.53-5.75-6.8-5.24-4.83-16.28 1.33-16.16m-220.3.54v5.5h9.64v-5.5zm221.84 5.88c-2.67.2-1.15 4.94 3.27 7.45 2.51 1.42 2.52 1.41 2.18 5.78-.6 7.9 7.04 11.78 10.42 5.3a5.5 5.5 0 0 0 .6-3.52c-1.42-5.74 11.02-4.18 14 1.77.7 1.37 1.47 5 1.84 8.67.35 3.47.44 7.5.44 7.5h3.97s-.05-2.4.18-4.7c.99-9.82 5.34-16.03 11.2-16 2.5 0 2.6.45.84 3.69-2.96 5.47-.11 9.44 6.8 9.49 4.38.03 4.37.03 6 3.15 1.8 3.42 3.15 4.5 4.82 3.87 1.18-.45 1.2.21-.34-11.46-2.3-17.39-12.42-22.07-26.4-12.22-3.94 2.8-4.8 2.7-8.31-.68-5.26-5.08-8.59-6.24-18.87-6.62-4.9-.18-9.72-.66-10.72-1.06a4.5 4.5 0 0 0-1.92-.4m-331.58 4.97c-2.29.04-4.94.52-7.24.72 2.55 13.44 3.74 26.88 4.91 40.31 11.77-2.04 27-.13 47.11 9.23 12.34 5.75 27.4 15.58 43.2 26.67 17.1 12 37.14 19.1 54.22 22.8 20.78 4.51 37.48 4.13 37.03 3.15-.93.15-7.5-32.97-6.64-40.05-28.76-2.64-56.52-13.29-77.74-27.71-28.1-19.1-60.58-35.7-94.85-35.12M498 601.85v5.58h9.65v-5.58zm-316.71 1.1-15.27 15.92 16.61 15.73 14.11-16.03zm-.42 7.23 8.65 8.29-6.99 8.85-9.73-8.4zm215.3 1.3c2.04.02 4.03 1.45 10.76 5.22 5.64 3.9 10.15 6.33 8.5.22 1.29-1.76 7.54 3.96 14.91 7.57 8.9 7.12 8.92 5.4 10.08 1.86 1.19-2.58 2.83-.83 9.93 5.74 9.32 8.64 8.49 8.65 10.35 6.5 2.13-4.03 2.83-3.99 10.44 4.74 7.9 8.81 9.57 10.7 11.25 6.92 2.6-1.95 3.95-.05 14.67 10.02 5.28 5.25 6.52 4.44 7.5.9 1.03-3.65 1.31-2.83 10.22 4.23 10.31 8.26 11.33 8.86 11.76 6 .68-4.54 3.88-2.93 14.48 4.7 6.44 4.6 8.86 5.87 10.24 4.73 1.4-2.47-3.49-7.23 6.88-2.75l2.85 15.05-3.6-1.02c-2.2-.63-7.03-2.26-5.2 2.43 1.04 2.7-1.57 2.39-9.62-2.41-11.54-6.87-13.66-8.45-14.52-7.04-1.53 5.14-1.33 5.47-9.12-.63-9.05-6.86-10.87-8.76-12.14-6.42-.16 5.19-2.69 4.13-11.13-3.15-7.14-6.24-8.66-9.5-11.86-4.73-.87 1.66-1.76 1.25-2.94.38-4.15-3.07-12.5-11.88-14.86-14.4-1.86-2.03-2.9-1.38-4.44.3-1.42 1.55-1.52 1.07-6.14-3.16-11-10.1-13.04-12.61-14.58-11.23-1.26 2.36-.06 5.58-8.51-1.09-10.6-7.63-15.2-11.02-14.49-6.02-1.81 2.24-.54 2.68-11.15-3.19-10.09-5.58-11.37-7.25-12.82-5.34-1 3.03-4.38 1.95-4.38 1.77l-2.04-15.31 3.62.04s3.5-1.42 5.1-1.42m-80.92 1.28c-.81 2.37-6.37 16.02-6.44 50.79.67.82 13.78-12.56 14.43-25.03.6-11.81-7.97-25.8-8-25.76m182.74.96v6.34h9.65v-6.34zm-182.04 5.03c12.27 19.45-1.26 37.79-4.62 39.08a177 177 0 0 1 4.62-39.08M637.9 635.1c-20.17 12.7-16.9 47.1-7 55.91.73 0 7.09-37.15 7-55.91m-2.76 4.23-5.42 44.26c-7.06-7.8-8.3-31.08 5.42-44.26m127.19 7.47 10.65 13.4 9.47.7 2.12 9.68 13.82 11.26-13.85 9.39-1.22 10.71-10.3 1.04-10.19 16.04-9.97-15.71-9.56-1.03-.3-10.31-15-11.08 14.32-8.6.28-11.66 11.22.04zM384.99 651c-6.76 32.18-22.93 54.21-45.75 69.02l.13 3.25-38.43 15.41c-8.42 39.27-23.55 77.58-55.28 113.52l8.85 17.97-42.92 14.75 61.44 105.37c4.23 0-29.77 16.09-70.81 11.89 25.97 63.6 31.33 129.44 16.95 187.09l201.12-.84-153.7-301.6-2.51-4.92c-2.13-3.94 81.7 11.8 63.9 89.55-.24 1.8.38 2.03 1.4 1.28 16.29-14 124.54-52.82 210.98-1.56l25.69-10.64c-12.22 42.79-26.12 72.23-49.54 98.03l3.97 60.89c41.44-33.94 86.42-96.25 92.46-179.06 18.66-9.1 34.9-19.42 52.3-29.16l2.3.75 11.26-6.76c-36.1-39.5-109.82-77.25-157.06-87.17l2.8 13.38c-26.08-7-45.57-8.52-65.84-10.69l-3.11-141.7-26.25-15.47-.82 156.3c-19.63.25-64.75 8-64.75 8l2.02-13.37-20.67 4.25-.35-13.02 23.35-6.7 33.87-143.6zm2.83 3.18 10.8 2.2-33.53 140.77s-18.81 5.2-19.97 4.47c-1.5-26.4-2.06-80.2-2.06-80.2 33.1-27.58 38.27-47.11 44.76-67.24M157.7 664.52c5.05-.06 10.5 3.61 10.84 6.92.86 2.04 1.58 2.92 2.95 3.11 8.46 1.17 8.73 3.41 8.97 8.29-1.2 9.35 5.07 1.5 6.84-7.79.19-.96.08-8.06.08-8.06l10.35-.1s.35 7.4.5 8.58c.92 7.19 3.98 13 6.1 9.2 7.29-13.09 23.97-6.42 21.34 6.2-.65 2.98-.61 3.17 1.42 5.43 3.31 3.7 4.55 7.61 3.45 11.02-1.07 3.33-3.4 3.83-8.4 1.82-2.36-.94-5.21-1.28-12.85-1.5-10.8-.32-11.47-.52-15.67-4.6l-2.65-2.56-4.58 2.68c-7.61 4.48-14.54 4.65-22.6.53-5.23-2.69-8.28-9.13-9.1-19.17-.16-5.33-1.65-9.2-4.95-10.47-1.79-1.68.2-5.02 3.25-8.07 1.4-1 3.03-1.44 4.7-1.46m603.77 1.52-14.23 17.74 16.91 15.13 15.75-18.52zM431.9 668.6l19.7 11.28 2.53 139.7-22.27-.63zm-273.68 1.95c-1.5.15-.55 2.55.54 6.22 1 3.28 1.24 5.32.93 7.6-2.1 15.31 15.46 23.1 28.13 12.48 3.37-3.85 3.92-3.6 6.74.53 3.48 4.35 8.53 5.77 19.14 5.13 4.85-.29 8.05 2.3 10.16.58 1.52-1.1.04-4.01-2.89-5.71-1.8-1.04-1.86-1.2-1.5-4.8.9-9.06-6.58-11.46-11.89-3.81-4.38 6.32-10.99 2.14-13.12-8.29-1.27-8.02-2.28-7.9-3.23-.9-1.04 8.5-12.24 17.73-16.72 13.54-1.22-1.23-1.2-.92.05-5.2 1.61-5.48.32-7.52-5.66-8.94a4.2 4.2 0 0 1-2.49-1.81c-3.16-4.9-3.03-6.62-8.19-6.62m604.64 3.25 9.03 7.78-7.86 9.3-9.62-7.39zm-324.78 4.98v6.6h8.43v-6.6zm0 13.3V699h8.43v-6.94zm50.76 7.99c9.45 35.07 18.97 70.11 28.46 105.18 8.98-3.6 60.88-26.62 85.35-56.1-.93.07-22.24-20.78-29.71-34.3-24.48 4.04-52.6-1.1-84.1-14.78m-50.76 4.17v6.48h8.43v-6.48zm56.08 1.76c22.31 6.66 50.88 15.83 77.2 11.16 6.78 12.2 16.6 22.23 27.69 31.48-19.92 21.67-48.71 38.19-78.5 50.91zm211.74 2.53q1.7-.02 3.34 1.4c3.53 3.15 6.26 4.23 13.47 5.4 11.62 1.9 20.48 9.15 23 18.83 1.05 4.06 1.64 4.28 7.42 2.83 21.92-5.52 38.83 12.66 33.6 36.92-1.82 8.47-2.37 9.48.17 12.84 5.57 6 6.79 6.08.68 11.38-5.55 4.99-16.58 2.57-18.92-5.52-2.24-4.44-2.2-4.77-5.88-5.36-14.3-2.28-13.71-22.07-.24-24.36 1.13-.2 1.96.04 2.53-.22 3.82-1.73-4.17-10.78-10.78-9.4-8.1 1.71-12.14 6.9-15.32 15.06l-12.77-7.28c3.2-6.63 5.55-15.16 2.77-20.43-2.25-4.45-5.09-4.62-5.96-.36-2.04 10.02-14.5 13-22.67 4.85-4.57-4.56-5.1-9.45-1.75-16.05 2.18-4.27 2.23-4.58 1.3-6.38-3.2-6.27 1.14-14.18 6-14.15m-267.81 8.15v6.76l8.45-.04-.02-6.72zm269.38.56c-2.6.02-2.58 2.55-.18 5.62 2.13 2.16 2.55 3.15-.4 5.02-3.7 3.42-4.5 8.57-1.95 12.5 3.83 5.9 12.67 2.6 11.66-4.34-.71-4.87 3.12-7.05 9.21-5.21 8.86 2.66 13.08 12.56 9.59 22.53-.66 1.88-1.96 6.26-1.96 6.26l2.61 1.59s3.1-4.96 4.32-6.46c10.06-12.37 33.84-6.1 31.19 9.37-.4 4.85-.39 5.51-5.68 3.99-3.51-1.81-6.9 1.95-6.8 6.64.17 4.23 3.85 7.62 8.93 6.94 4.03-.76 5.04-.62 4.75 4.82q.6 5.65 4.3 7.56c6 2.48 9.1-.94 4.3-5.96-2.91-3.04-2.74-7.74-.91-12.16 2.18-5.27 1.05-16.87-2.3-23.41-4.84-9.43-18.35-13.38-29.66-8.67-5.18 2.76-5.74 3.4-6.25-1.45-2.83-12.02-11.87-21.1-23.15-21.9-4.33-.32-8.85-2.68-11.62-3.28m-269.38 12.28v6.24h8.45v-6.24zm0 12.2v6.88h8.43v-6.88zm0 13.43v6.88s4.6-.13 8.43 0v-6.88zm275.22 11.03 9.23 13.65 10.21.68 1.2 11.02 15.5 9.65-13.43 8.4-.1 10.66-12.8 1.08-11.32 15.01-9.63-13.24-9.63.04-2.27-11.82-17.05-8.65 17.5-9.97-.49-12.43 11.9-.07zm-275.2 1.62v7.06h8.43v-7.06zm0 12.94v6.98h8.43v-6.98zm270.04 5.2-13.22 17.59 17.82 14.73 14.16-17.8zm-270.04 7.04v7.64h8.43v-7.64zm271.4.92 9.2 7.1-6.57 8.33-9.13-6.96zm-271.4 13.2v6.4h8.43v-6.4zm-250.82.83c-16.24.07-31.62 26.38-35.3 38.85-4.35 15.96-5 44.83-.86 45.64 14.56-10.48 21.46-28.24 32.4-41.53 1.7 15.37 1.44 45.03 1.44 45.03s-6.48 3.4-9.97 8.79c-2.52 4.47-3.32 9.82-1.17 14.8-8.1-2.63-22.77.34-23.6 15.3.53 21.05 23.5 18.08 23.6 17.79-.5-.13-4.53 22.39 15.87 24.78 7.32.86 20.2-4.48 16.37-24.96 12.88 2.13 23.98-4.96 24.12-17.35.16-8.5-6.29-15.8-17.4-15.84-2.31 0-7.2 1.05-7.2 1.05.15-1.23 4.45-14.4-10.5-23.97l-2.34-60.93s5.15 5.62 7.46 7.74c9.93 9.15 16.41 13.75 27.87 19.79 11.16 5.88 9.78 4.43 7.85-6.75-5.27-16.77-16.29-29.45-39.6-45.3-3-2.04-6.03-2.94-9.04-2.93m1.6 1.3 3.27 86.2-4.83-.01-4.15-86.11zM667 812.08a9 9 0 0 1 1.32.04c10.52.89 13.21 12.64 8.49 17.86-1.87 2.07-2.51 2.5-1.54 3.77 4.5 5.72 1.99 14.75-2.48 16.13-14.18 4.42-16.33-3.34-16.29-12.48l-21.91-.82.14-12.76 24.16.48c-1.82-5.8 1.67-11.97 8.1-12.22m-488.27.14h.26c2.27.2-.06 6.27-6.4 15.51-4.28 6.26-10.24 17.28-12.02 21.73-3.9 9.74-6.52 27.21-3.91 24 2.36-7.3 2.59-10.34 4.62-15.59 2.66-6.84 15.12-29.35 17.59-31.56 2.11-1.9 2.66-.74 2.6 5.6-.1 14.25-6.86 29.25-22.97 46.81-2.68 2.93-6.26 6.12-6.52 6.12-1.55 0-1.51-3.24-1.48-10.02.1-26.93 10.1-50.97 25.48-61.32q1.8-1.2 2.75-1.28m16.31 1.24c7.07 2.07 19.76 13.42 24.99 19.25 6.05 6.53 14.16 24.63 12.74 27.4-.48 1.23-1.5 1.04-5.04-.95-22.49-12.67-38.6-28.27-34.37-33.32 1.18-1.4 6.01 1.5 12.48 7.51 4.4 3.9 8.9 7.86 12.92 11.82 6.32 6.22 7.74 7.13 3.93.22-3.41-6.21-13.1-16.63-24.84-25.49-4.76-3.6-5.85-6.5-2.8-6.44m473.34 3.64a2 2 0 0 0-.78.14c-4.42 1.86-2.63 7.6-3.05 12l-24.32-.85-.14 3.37 22.82 1.25c.4 3.44-1.4 10.86 1.54 12.12 6.39 2.65 9.87-5.57 4.45-10.51-1.93-1.72-4.02-2.48 1.35-4.9 3.53-3.02 4.09-8.92 1.06-11.54a4.7 4.7 0 0 0-2.93-1.08m-307.68 1-1.23 9-14.1 3.56-.37-9.63zm166.36 3.2c52.08 14.02 109.97 45.87 147.56 81.84l-7.52 4.94C628.03 872 576.5 844.6 529.16 831zm-89.74 1.38c85.76-.24 163.95 33.1 227.03 86.94l-10.32 6.5c-57.54-47.56-121.3-79.29-207.07-83.07-56.07-2.47-120.05 11.9-183.1 46.59l-4.7-8.53c61.24-33.39 121.36-48.28 178.16-48.43m-6.74 12.92 33.73.98-2.08 31.32-30.67-1zm-36.28 2.22 4.76 30.22-29.36 5.48-8.32-30.3zm106.78 4 33.5 8.92-11.06 30.8-29.4-8.38zm-53.68.44a9.63 9.63 0 0 0-9.63 9.63 9.63 9.63 0 1 0 19.26 0 9.63 9.63 0 0 0-9.63-9.63m0 3.33a6.36 6.36 0 0 1 6.42 6.3 6.37 6.37 0 0 1-6.42 6.32c-3.55 0-6.42-2.83-6.42-6.32s2.87-6.3 6.42-6.3m-66.54.06a9.63 9.63 0 0 0-9.63 9.63 9.63 9.63 0 1 0 9.63-9.63m0 3.33a6.36 6.36 0 0 1 6.42 6.3 6.37 6.37 0 0 1-6.42 6.32 6.37 6.37 0 0 1-6.42-6.32c0-3.48 2.87-6.3 6.42-6.3m132.65 3.88a9.63 9.63 0 1 0 9.64 9.63 9.63 9.63 0 0 0-9.64-9.63m-186.72 1.12 9.93 29.47-28.44 11.52-10.65-29.11zm186.72 2.2a6.36 6.36 0 0 1 6.43 6.3 6.37 6.37 0 0 1-6.43 6.33c-3.54 0-6.42-2.84-6.42-6.32s2.88-6.3 6.42-6.3m55.7 7.06 30.17 15.93-15.6 28.17-28.1-14.65zm-252.5 2.54a9.63 9.63 0 1 0 0 19.27 9.63 9.63 0 0 0 0-19.27m113.94.93 1.4 29.75-26.7 1.9-4.86-29.58zm32.04 1.57 30.44 4.2-7.17 28.66-27.54-4.43zm-145.98.84c3.55 0 6.42 2.81 6.42 6.3s-2.87 6.32-6.42 6.32-6.42-2.84-6.42-6.32 2.88-6.3 6.42-6.3m99.73 3.85a9.63 9.63 0 1 0 0 19.27 9.63 9.63 0 0 0 0-19.27m-48.64 1.2 7.88 28.96-29.35 8.4-9.01-27.84zm106.57.46a9.64 9.64 0 0 0 0 19.27 9.63 9.63 0 0 0 9.63-9.64 9.63 9.63 0 0 0-9.63-9.63m-57.93 1.67a6.35 6.35 0 0 1 6.42 6.3 6.37 6.37 0 0 1-6.42 6.32 6.37 6.37 0 0 1-6.43-6.32c0-3.49 2.88-6.3 6.43-6.3m57.93 1.67a6.35 6.35 0 0 1 6.42 6.3 6.37 6.37 0 0 1-6.42 6.32 6.37 6.37 0 0 1-6.43-6.33c0-3.48 2.88-6.3 6.43-6.3m103.01.06a9.63 9.63 0 0 0-9.63 9.63 9.63 9.63 0 0 0 9.63 9.64 9.63 9.63 0 1 0 0-19.27m-52.1 2.82 29.41 10.05-11.74 27.49-28.15-10.72zm52.1.52a6.36 6.36 0 0 1 6.43 6.3c0 3.49-2.88 6.32-6.42 6.32s-6.43-2.83-6.43-6.33c0-3.48 2.88-6.3 6.42-6.3M356.1 882.4a9.64 9.64 0 1 0 9.63 9.63 9.63 9.63 0 0 0-9.63-9.63m0 3.33a6.35 6.35 0 0 1 6.42 6.3 6.37 6.37 0 0 1-6.42 6.32 6.37 6.37 0 0 1-6.42-6.32c0-3.48 2.87-6.3 6.42-6.3m178.23 5.62a9.63 9.63 0 0 0-9.64 9.63 9.63 9.63 0 0 0 9.64 9.63 9.63 9.63 0 0 0 0-19.26m0 3.33a6.36 6.36 0 0 1 6.42 6.3c0 3.5-2.88 6.32-6.42 6.32a6.37 6.37 0 0 1-6.43-6.32c0-3.49 2.87-6.3 6.43-6.3m-344.58 3.35c7.7.33 13.48 7.24 13.83 14.44.26 5.46-6.71 12.62-6.71 12.62l-8.12-7.52-7.8 7.19c-1.3.43-7.36-9.86-5.51-15.19 2.4-6.93 7.36-11.83 14.31-11.54m437.36 0 23.3 19.07s-10.23 6.21-12.13 7.32q.34-1.25.34-2.61a9.63 9.63 0 1 0-11.81 9.4c-2.4 1.37-5.58 3.14-5.58 3.14l-12.3-10.31zm-36.88 50.95-10.32 4.23c-63.43-41.67-150.2-64.47-249.41-22.51l-3.41-8.23c73.64-30.67 166.56-40.21 263.14 26.5m-5.64-41.63 24.96 15.31-15.86 24.34-24.37-15.59zm-7.55 47.2-10.47 3.93c-77.44-49.75-159.97-47.1-233.7-17.28l-1.15-6.98c86.83-37.6 173.98-25.64 245.32 20.33M629 915.5a6.35 6.35 0 0 1 6.42 6.3 6.37 6.37 0 0 1-6.42 6.32 6.37 6.37 0 0 1-6.42-6.32c0-3.49 2.88-6.3 6.42-6.3m-450.53 11.41-8.62 8.69 7.86 8.83s-2.49 2.1-4.3 3.1c-10.3 5.6-21.57-3.26-21.03-12.83.78-13.93 17.58-20.57 26.09-7.79m409.72-6.65a9.63 9.63 0 1 0 9.63 9.63 9.63 9.63 0 0 0-9.63-9.63m-374.87.39a14.5 14.5 0 0 1 14.35 12.7c.59 5.4-2.22 10.59-8.27 14.26-8.21 4.98-17.75-3.08-17.59-3.58l6.93-6.84-8.33-8.51c-.24-.16 5.5-8.09 12.9-8.03m-23.96 1.65 14.18 14.15-15.01 13.99-13.9-13.98zm374.12 37.65-7.97 3.65-10.85-6.54-3.21 6.15 6.03 3.84-6.27 2.35c-72.35-40.64-154.1-28.87-208.44-1.9 0 0 .47-4.18.5-4.18l5.92-3.01-2.21-7.5-3.18.93-.23-8.29c77.58-34.93 165.62-26.93 229.9 14.5m24.73-36.37a6.35 6.35 0 0 1 6.42 6.3 6.37 6.37 0 0 1-6.42 6.33 6.37 6.37 0 0 1-6.42-6.32c0-3.5 2.87-6.3 6.42-6.3m-399.14 5.05-7.57 7.53 7.52 8.03 7.35-7.77zm236.8 1.67-9.9.44.51 8.08 9.68-.23zm6.77.04.18 8.09 8.99-.04-.04-8zm15.95.14-.44 8.04 8.93.4.64-8zm-38.53 1.02-10.15 1.1 1.13 8.13 9.6-1.12zm55.17.12-.72 8.3 9.17 1.06 1.24-7.95zm-276.13.04 4.42 4.7-4.4 4.37-4.67-4.57zm203.85 2.47-9.79 1.55 1.04 8.36 9.55-1.88zm88.83 0-1.62 7.74 9.1 2.2 1.5-7.91zm-104.88 3.39-8.23 2.19 1.79 8.15 8.69-2.13zm120.5.32-1.71 7.87 9.29 2.53 1.86-7.55zm-134.09 3.92-8.6 3.04 2.22 7.55 8.75-2.95zm150.1.86-2.88 7.56 8.05 3.23 3.55-6.86zm-164.3 4.43-8.17 3.35 3.37 7.49 7.75-3.53zm-168.33.24 8.27 8.25 9.81-8.86c8.58 7.57 8.44 25.3-6.73 28.26-13.25 2.58-25.37-17.25-11.35-27.65m347.37 1.59-3.15 6.94 8.9 3.92 3.06-6.69zm-253.55 44.54 112.17 190.65-17.74-.34-108.56-184.23zm-18.4 7.26 6.2 9.64c-12.15-9.67-30-1.53-29.25 10.65.6 5.45 5.2 8.76 5.22 3.52-.56-5.48 7.2-10.25 12.84-10 10.4.14 16.74 13.5 9.57 20.15-4.72 4.35-11.1 4.15-8.95-1.81.33-2.05.17-2.8-.8-3.69-2.99-2.72-8.49.82-7.15 4.72.88 2.56 1.15 3.19-1.92 5.29-11.9 8.36-3.6 24.82 10.79 17.32 2.95-1.06 4.14-1.21 5.48-.7 6 2.31 10.08-2.9 4.4-5.6-3.3-1.57-3.39-4.25-.2-6.38 6.8-4.54 17.38 2.55 17.35 11.64-.02 6.42-8.5 11.17-16.63 9.31-4.83-1.11-5.41 2.16-.99 5.55 8.58 6.58 21.43 1.13 25.26-10.71 1.21-3.72 1.04-4.5 1.04-4.5l11.45 18.89s-3.56-1.67-5.7-2.33c-10.77-3.28-22.86 3.7-22.9 13.24-.02 4.5 2.65 6.24 4.14 2.71 3.46-8.21 11.01-11.41 18.76-7.95 7.17 3.21 10.44 10.47 7.64 16.94-2.93 6.78-12.76 8.78-11.65 2.37.52-3.06-1.34-4.92-4.62-4.62-1.25.12-2.84 3.73-2.4 5.46.4 1.63.1 2.02-4.1 5.3-10 7.79-2.3 20.52 10.17 16.83 2.1-.62 2.88-.56 4.75.35 4.52 2.17 9.26.82 9.28-2.65 0-2.39-1.07-3.3-3.9-3.31-4.28-.02-3.35-4.86 1.4-7.23 11.86-5.93 24 9.05 16.76 20.73-3.1 5.02-5.07 5.54-16.17 4.31-1.8-.19-2.6 1.03-1.53 2.49 3.28 4.66 13.05 6.13 18.74 3.56 6.15-2.79 9.9-9.8 10.32-17.29l12.56 21.92c-9.77-10.21-26.6-6.31-29.32 8.31 0 3.7 3.37 5.63 4.54 2.58 5.08-13.19 24.38-9.14 24.32 5.1 0 2.29-.46 3.59-1.93 5.6-3.54 6.83-12.6 8.52-10.95 2.39.73-1.9-.72-3.96-3.21-4.56-2.45-.58-4.01 1.47-3.96 5.2l.07 3.65c-4.52 1.9-7.4 5.62-8.4 11.14l-87.86.2c10.45-60.9 8-115.89-11.98-167.89l-4.2-11.06 15.5.41c3.74 3.24 17.88 1.98 23.4-3.03zm14.9 23.92 9.08 16.3a30 30 0 0 0-13.42-4.07c3.05-4.53 3.29-8.59 4.35-12.23m-23.86 17.33a5.97 5.97 0 0 1 5.98 5.97 5.97 5.97 0 0 1-5.98 5.98 5.99 5.99 0 1 1 0-11.95m62.57 48.69 8.74 15.55c-4.25-1.81-7.85-3.58-14.5-3.75 2.43-2.83 4.52-7.57 5.76-11.8m-25.2 16.66a5.67 5.67 0 0 1 5.67 5.67 5.66 5.66 0 0 1-5.67 5.66 5.64 5.64 0 0 1-5.66-5.66 5.66 5.66 0 0 1 5.66-5.67m63.32 48.48 12.9 22.89c-5.07-2.9-10.54-6.59-17.4-5.88 3.27-6.97 5.05-10.77 4.5-17.01m-17.17 28.56-13.84.04c2.76-12.09 13.96-8.95 13.84-.04m13.1-5.84c4.7.25 8.77 1.85 11.3 5.95l-17.41.05s.12-6.02 6.1-6"/></g></svg>