<svg xmlns="http://www.w3.org/2000/svg" fill-rule="evenodd" stroke-linejoin="round" stroke-miterlimit="2" clip-rule="evenodd" viewBox="0 0 934 1300"><g fill-rule="nonzero"><path fill="#e2cf00" d="m434.35 1184.52 96.72-176.55c-.02.05 23.4 8.98 50.8 16.09-26.29 68.49-.2 158.83-.2 158.83s-147.4 1.48-147.32 1.63M168.55 882.8c-5.5-75.03-5.68-147.52 6.68-207.57.23-.96-34.55-21.05-30.95-23.36 5.51-3.53 74.03-39.24 74.03-39.24s4.62 2.63 8.61 2.22c3.12-.31 6.05-3.15 4.84-6.17-2.87-7.16-7.98-24.97-4.91-42.9 1.76-10.3 7.34-21.64 13.14-28.58 12.91-15.47 42.39-7.3 50.95-7.55 5.45-.17 21.9-57.68-4.3-68.35-7.21-2.94-23.78 36.32-12.27 45.13 1.74 1.33-23.14-13.1-42.2-21.7-1.77-.8-9.55-6.79-11.3-14.7-2.18-9.86 29.2-28.84 23.05-39.96-8.99-16.2-32.17-40.42-42.1-33.77-9.38 8.47-31.76 25.79-31.61 37.63 6.99 21.25 24.76 22.72 34.1 42.82 2.33 4.34 19.5 22.6 19.5 22.6-6.45 9.85 3.98 27.08 4.47 24.45l-81.36-35.45s18.65 140.3-1.04 161.06c-2.09 2.2 17.42-5.5 17.75-4.3 5.93 7.5 71.64 49.27 90.44 64.28 33.4-46.57 45.6-67.06 88.65-108.38 9.44-7.8 30.51-22.07 42.56-39.2 9.67-13.77 13.69-29.27 11.95-41.3-2.25-15.57-3.64-26.22-13.24-38.62-22.2-28.65-57.5-55.99-56.88-56.48l12.06-9.81s43.55 36 61.98 62.47c12.43 17.83 6.86 38.29 17.57 41.95 2.57.88 20.16-.59 25.94.52.7.13 128.1 90.02 105 95.2-31.98 7.18-82.97 2.5-82.97 2.5-36.4-35.53-53.97-47.2-75.66-36.08 0 0-54.98 48.08-86.71 85.73-18.08 21.45-33.18 48.3-45.27 65.56-4.66 6.66-63.04-49.42-62.45-42.7 8.67 61.05 13.61 134.59 6.9 184.44-4.6 42.35-10.9 87.84-13.73 126.89 0 0 9.8-2.84 17.27-.19a11.1 11.1 0 0 1 7.33 9.34c2.18 18.59-21.77 14.28-22.33 12.66.03-.01 13.37 28.69 13.37 28.69s-20.74 35.77-20.18 34.21c.36-.96-18.85-31.75-18.85-31.75s14.57-25.73 16.41-31.09c1.1-3.22-21.03 10.64-22.74-9.43-1.72-20.24 24.16-14.82 23-12.33-3.12-41.5-10.09-84.42-14.5-119.39m311.9 93.38c.57-.43-55.05-22.32-106.15-20.26-18-7-47.36-14.33-66.96-1.27-22.03-14.92-41.06-31.34-60.39-47.6 5.41-.08 25.7-130.47 38.96-175.9-5.92-56.42 48.45-56.38 53.18-11.18 58.58 60.55 130.31 123.17 204.25 184.8-11.77 24.38-54.22 42.97-62.9 71.4m128.1-399.14c-66.8-68.06-206.58-189.75-206.58-189.75l65.44-63.83c34.34 10.23 69.64 18.78 109.54 19.18.16.16 43.73 19.82 66.94-.05l60.4 47.84s-25.05 131.7-39.76 177.67c.31 18.2-6.58 40.38-24.57 43.68-15.37 2.81-27.18-18.96-31.42-34.74m135-157.67c6.96-42.82 8.4-73.98 13.23-123.93-30.12 8.82-29.72-31.77-.12-21.1l-13.72-30.2 20.31-34.04 18.65 32.32-16.06 28.65c33.38 1.64 25.32 32.6-3.42 25.13 5.42 47.85 17.36 96.19 16.78 143.5 10.32 75.87-12.71 181.44-8.9 183.94L802.83 646l-5.56 165.07-51.4-22.51-15.3 10.3c4.92 9.72 11.16 19.04 13.27 29.6 0 0 35.4 29.09 30.48 38.16 2.28 1.33-25.18 37.67-33.24 36.76-15.4-1.73-33.4-21.57-38.32-35.71-4.34-14.22 31.78-28.16 27.22-38.56-5.45-12.44-19.2-18.42-31.4-22.08-16.82-5.04-24.5-18.35-25.28-18.35 0 0-6.53 52.76-12.83 48.54-25.3-16.97-8-70.8-3.3-69.3 0 0 11.05 2.54 24.1 3.76 46.02 4.82 42.9-51.71 33.98-79.07-2.23-6.5 1.26-6.55 1.02-6.63-2.14-.73 7.44-.2 15.56-2.6 22.34-6.57 56.57-29.29 56.57-29.29-35.96-19.93-67.7-42.67-96.17-64.24 0 0-26.44 45.08-57.77 76.35-22.8 22.77-26.52 30.52-64.69 59.83-.74.57-28.93 34.25-15.5 73.58 11.48 33.65 66.68 70.09 66.28 72.52l-10.87 10.37c.44.6-78.14-48.72-76.31-101.77-.1-2-35.72-2.7-35.72-2.7l-103.54-95.9 87.7-.38 45.05 36.76 28.14 1.46c1.84 1.62 2.86-7.43 27.64-25.9C630 658.76 688.67 568.1 688.67 568.1s62.04 43.61 62.1 43.62c-3.1-65.5-13.66-135.92-7.24-192.37m-225.9-309.51s-64.46 121.02-99.8 178.03l-50.09-14.36c20.99-55.65.9-161.73-4.38-164.4z"/><path fill="#131f67" d="m133.04 102.8 3.8 1089.84 676.7-.44-1.93-1089.4zm470.33 789.78c32.1-29.82 63.85-54.43 93.54-72.32 11.52-6.94 15.01-7.96 19.53-3.84 7.38 6.7 11.97 12.54 9.57 17.24a17 17 0 0 1-2.29 2.82L706 829.74l5.74 20.11c-15.95 6.5-15.67 23.75-.27 32.9l-10.6 24.38 24.64-10.84c.94 5.32 18.51 18.16 29.44 0l22.25 10.86-7.67-27.23c7.3-6.96 11.56-18.08.08-28.33l5.29-21.33-20.1 6.54c-5.03-6.88-7.95-6.4-9.11-8.28-.34-2.57-.4-8.54-3.75-14.04-2.76-4.56-5.92-9.39-8.87-12.77-1.57-2.65-.32-2.88 7.7-7.22 3.78-2.03 6.88-4.1 6.88-4.1s39.54 19.83 55.68 27.38l.91 365.17-216.88-.64c-24.39-72.78-6.86-135.69-.4-162.17-11.38-.95-70.03-19.94-71.79-26.48 23.24-36.9 54.78-70.43 88.2-101.07M181.36 998.82c-28.29-9.13-28.58 24.92-14.12 27.56 3.75.69 7.66 1.25 13.52-.65 1.45.31-16.95 28.56-16.95 28.56s14.74 26.75 21.8 38.12l22.27-39.52-14.57-27.33c22.8 11.61 34.61-22.99 10.67-27.52-5.79-.78-12.18 2.11-12.18 2.11l12.59-118.35c10.15 6.9 28.67 20.72 28.67 20.72 4.2 65.2 1.12 119.55 37.59 214.41l.37 66.01h-125.2l-.48-344.62 21.9 15.68c.47 1.94-3.48.64-1.35 24.62 1.93 21.67 8.53 59.24 15.46 120.2m449.47-885.9c1 1.42.92 3.58 1.79 6.45 5.07 16.88 22.68 37.15 36.72 42.47 4.91 1.87 6.82 4.7 3.98 7.54-3.58 3.59-18.38-6.22-29.3-18.94-9.92-11.55-16.54-21.1-18-28.35-.88-4.3-1.31-7.07-.66-9.31 1.81-2.51 4.06-1.82 5.47.14m17.5-1.83c1.86 0 4.36 2.18 5.85 6.16 3.61 9.55 9.26 16.7 18.1 22.88 2.34 1.64 3.27 4.1 2.08 5.53a3 3 0 0 1-1.67.97c-6.88 1.93-25.03-19.07-26.48-32.1-.31-2.83.68-3.43 2.12-3.44m22.59.27c3.66-.02 5.42 7.63 3.3 11.63-1.39 1.26-4.43-.68-7.13-5.7-2.32-4.32-1.39-5.91 3.83-5.93m-12.29.12c.82-.03 2.52-.46 3.38.73 1.42 7.9 7.37 13.62 12.13 18.2.8 1.5 1.17 4.63-.58 5.45-4.16 1.84-16.7-12.41-16.79-20.66-.03-2.48.73-3.69 1.86-3.72m-15.91 5c4.4 14.43 15.04 26.2 24.57 32.3 6.82 4.34 9.45 6.8 6.3 9.02-.8.55-1.59.97-1.78.94-15.95-6.1-35.57-29.2-36.23-45.55 3.48-4.46 6.54.53 7.14 3.3m-55.24 62.6c-8.39.02-18.67 1.93-27.02 5.72-11.6 5.27-14.52 8.77-12.82 10.04 1.21.9 8.69-2.31 12.44-2.8 20.22-5 34.14-6.24 47.32-.49 10.2 4.44 10.26 2.4 3.42-5-4.97-5.36-13.82-7.48-23.34-7.46m71.3 11.08c6.7-.07 13.53 1.5 15.95 4.62 1.9 10.1-3.15 5.48-7.21 3.47-5.87-2.71-12.6-5.05-18.88-4.09-4.03.62-4.14.42-1.86-.87 3.45-2.1 8.34-3.08 12-3.13m-79.28 3.93c-19.13 1.49-25.75 11.16-38.1 21.14-5.08 3.86-3.93 6.84 2.26 5.83 7.63-1.25 10.7-.95 21.12 2.6 11.36 3.88 19.51 5.5 25.76 3.1 11.8-4.55 10.8-3.79-6.1 12.56-9.04 7.26-5.39 6.88 3.77.6 6.76-5.4 11.41-8.85 12.82-11.81.69-1.44.75-6.6 2.03-6.6 4.29 0 2.07-5.36-1.83-7.63-2.57-1.83-2-3.74 1.33-7.25 5.2-5.49 3.44-7.97-2.22-4.55-1 .54-1.49-1.13-4.95-3.22-5.46-3.3-10.07-4.83-15.89-4.77m13.79 7.18c4.62 3.9 2.64 4.97-7.45 4.88-8.53-.09-15.78.81-25.91 4.17-11.5 3.81-12.21 3.91-5.45-1.85 9.3-7.92 28.18-15.86 38.8-7.2m59.76-3.36c4.64-.1 8.56.56 12.1 2.51 9.63 5.31 11.78 9.92 1.04 6.16-6.72-2.35-15.81-2.02-22.09-.28-6.49 1.8-7.61 2.43-6.73-1.07 1.08-4.29 7.95-7.15 15.68-7.32m-75.78 15.68c2.29 11.44 10.97 7.7 11.83.8h3.17c-1.35 9.2-13.87 16.89-18.73-.8 1.03-.03 5.57.28 3.73 0m69.25.19 2.36-.08c1.55 8.78 9.71 11.65 13.26.67l2.84.06c-2.18 18.3-21.55 9.4-18.46-.65m-75.9.85c1.58.56 2.29 4.85 2.02 5.98-.54 2.35-8.2-.15-9.83-2.44 1.6-1.7 5.38-4.4 7.81-3.54m104.27 1.95-.01 3.21c-3.54.85-5.02 2.83-8.32 2.18.19-2.04-.16-4.86 1.76-7.25 2.4-1.27 5.28.29 6.57 1.86m-77.22 3.71a8 8 0 0 1-3.8 1.4c-.35-3.07-.87-6.52 2.96-6.55 2.51.74 2.33 3.85.84 5.15m44.16-5.09c1.35.1 2.92 3.44 3.11 5.4-.4 3.2-8.28 1.92-8.28-1.27 0-1.34 3.3-4.12 5.17-4.13m-72.13 121.22c-6.08-3.04-52.22-31.08-64.04-80.66l-2.35 5.07c5.01 11.87 12.4 31.15 12.4 31.15-.3-1.66 1.88 12.92 6.6 37.67-2.5.03-5.26-.68-7.97-1.4-6.09-22.67-7.53-40.43-12.64-62.6l-2.22 6.2s6.43 39.78 10.77 55.33a78 78 0 0 1-7.07-1.26c-3.62-16.78-6.42-28.04-9.84-44.86l-3.14 4.07c4.51 13.8 6.26 26.16 8.54 39.39-3.1-.47-6.21-.77-9.16-2.4 0 0-4.66-24.14-5.27-24.5a11.5 11.5 0 0 0-2.51 4.1c-.19-.22 4.04 13.37 3.74 18.97-2.96-.49-8.1-1.97-11.73-3.18-1.9 1.26-2.88 3.36-4.34 5.24 1.78 7.68 107.64 24.3 101.3 17.96-.04.66 46.67 20.44 72.75 3.63 0 0 45.34 33.63 63.05 47.06 0 1.53 6.13 8.65 12.52 13.18l17.95 13.83c5.22 4.05 7.3 1.11 8.1-6.52.88-8.5 7.06-65.77 8.5-77.98 5.39-41.13 5.38-40.7-.87-38.8-9.55 2.89-18.15-.87-18.15-10.64 0-5.98 2.77-10.94 9.13-13.25 1.81-.62 4.17-.67 6.88-.62 1.23.22 3.52.38 3.77.42 3.04-.17-11.79-27-11.79-27s14.17-25.25 20.98-34.65l18.33 33.22-15 29.3c29.23-2.2 26.37 34.56-2.25 22.25 0 0-.17 10.92-.12 10.12.28-3.12.23-5.8 1.23-6.38 27.72 10.5 33.38-29.93 3.5-28.06 4.91-8.57 10.4-17.44 15.5-26.88l-21.6-39.39-24.41 40.6 12.28 25.35c-2.76-.72-4.98-.28-7.94.02-18.08 3.7-14.2 32.81 6.48 28.81 2.36-.46 5.91-2.24 5.91-2.24L742.13 415s-1.31 1.06-6.67-2.8c-6.18-4.45-19.14-14.13-19.97-15.13 4.64-76.01-14.38-155.99-36.09-206.06-1.38-3.84-.56-79.26-.56-79.26l123.1.33.46 350.24c-6.44-4.08-13.4-9.44-20.02-14.11-1.98-1.6-3.2-3.5-2.36-6.57-2.18 4.65-.86 6.65-.86 6.65l27.18 21.72-1.07 344.68s-43.9-22.61-70.9-33.52c-12.2-4.98-12.74-3.54-12.74-3.54.04-.03 8.6 19.33 6.16 22.82 5.8 5.58 15.57 17.27 16.05 28.7 5.2 4.5 6.66 5.06 10.56 11.55l16.3-5.9-3.7 16.99c17.34 12.14.64 28.47-2.57 26.97 0 0 7.66 16.41 9.4 23.88-2.74-.18-16.47-7.63-20.3-9.4-9.95 19.6-26.75 3.16-26.88.27l-18.65 8.3 6.6-21.22c-12-7.3-20.1-18.33-.7-30.22l-4.48-16.55 15.96 6.27s2.98-4.78 5.24-8.27c-5.97-26-45.22-21.08-57.83-44.46 0 0-3.1 29.19-6.27 39.75-1.24 27.91-20.8-.32-20.8-29.85 0-6.67 8.38-29.1 11.22-30.2 2.95-.4 30.97 13.14 49.79-.32 8.57-8.91 23.34-33.98 9.15-73.22-4.7-9.07 8.93-10.21 13.35-7.15 0 0 40.95-21.42 59.44-31.74-31.01-17.04-95.5-62.38-95.45-64.53-8.6 13.66-18.46 25.11-32.32 44.42-22.45 26.44-40 51.57-68.5 72.7-40.07 29.17-49.48 58.54-38.3 93.02 4.52 14.9 13.63 30.02 28.54 35.24 7.59 7.68 38.07 36.53 38.07 36.53-50.89 46.34-85.82 84.44-110.33 126.55 20.68 10.88 70.57 26.63 70.57 26.63-18.53 61.57-10.1 110.48 2.1 159.57 0 0-144.78.19-219.9-2.18-.66.64-8.79.21-8.9-.31-.29-5.49 13.54-20.58 17.68-18.47 2.08-2.06 6.48-3.1 5.69-5.61-10.37-1.24-26.1 16.67-26.72 24.08h-6.18c-1.27-1.11 11.22-30.26 36.24-32.58-.26 1.05 3.37-2.27.65-3.69-29.18 3.46-42.76 35.83-41.9 36.27h-4.51c9.93-31.84 35.75-41.88 50.7-43.26.14-.07 4.84-1.7 3.58-4.49-33.03 5.74-49.5 20.03-57.44 47.75h-5.95c4.3-28.12 33.21-52.74 65.9-51.94 1.02-.64 2.27-1.41 1.74-4.61-36.28 4.1-54.36 16.19-69.26 47.35-13.33-34.6-50.38-51.01-50.82-51.16 0 0-.9-9.68 1.17-9.28 31.6 11.43 43.67-16 42.35-31.95-.74-8.87-.24-13.76-3.2-26.55-2.65-11.4-4.6-19.08-4.4-24.03.2-4.9 1.75-5.89 5.36-7.53 6.78-3.07 11.02-14.19 9.51-15.55-3.48 8.09-12.68 9.48-16.92 14.92-3.38 4.47-1.89 11.6 4.14 36.35 3.67 15.08-.68 8.14-9.26 3.42l-5.72-3.24c3.84 3.95 7.9 7.67 11.81 11.54 3.5 3.2 1.54 5.17-3.48 3.32-7.23-3.61-21.17-2.1-26.5 2.45-2.08 1.48-2.82 1.33-3.35-.04-2.34-38.44 1.7-62.08 14.43-90.96 8.24-19.63 20.49-34.33 36.83-35.38 16.47-1.36 40.15 4.4 61.66 19.01 25.25 17.15 49.86 43.24 52.48 75.24.1.37 1.94-2.74 2.78-4.38 1.16-3.8-3.06-15.22-9.64-28.47-1.22-9.96-4.64-27.43-7.33-39.25 2.04-.93 6.4-.41 7.63 1.08a665 665 0 0 1 11.88 60.93c.06 2.55 3.34-3.79 3.35-5.47-.57-3.9-11.48-55.13-11.26-53.96.06-1.74 10.35.55 8.93 2.17 0 0 7.82 42.96 8.38 41.63l2.64-3.64s-7.46-31.38-6.53-37.43c.64-.93 6.42.94 8.26 1.94 2.3 3.09 3.77 14.28 4.74 21.92 2.66 2.03 3.2-3.84 2.99-5.39-1.92-3.04-3.94-14.38-2.42-14.97 1.19-.45 7.82 2.18 9.1 3.31 1.49 1.33 7.27-6.67 5.8-8.05-31.27-11.98-70.73-18.97-100.41-19.44-6.9.02-9.64-.94-20.23-4.77-26.94-9.73-49.22-.03-52.49 3.04-32.9-22.86-69.63-54.79-98.86-75.16-1.37-.91-4.66-1.45-5.02-1.45-4.64 35.46-7.88 76.5-11.83 109.23-1.61 12.96-1.8 13.97-1.2 14.34.5.32 1.53-.2 1.93-.41 9.62-3.54 18.31-1.24 22.91 7.46 2.33 12.42-8.55 20.61-20 14.7-4.26-2.19-4.87-1.76-2.94 2.39 3.36 7.46 13.03 27.1 13.03 27.1.02.01-13.06 26.67-19.67 33.93-6.45-10.41-14.67-20.94-18.24-32.3 5.07-9.91 14.63-22.67 17.65-32.44-.43-.32-3.03-.05-4.85.9-16.72 7.91-19.4-6.99-19.18-12.34.45-10.89 9.93-13.2 23.7-8.12-14.88-98.89-18.06-155.23-14.25-149.14 0 0-17.98-12.85-26.92-21.57l-.8-720.14 215.1.32c21.92 58.79 15.9 129.48 2.78 166.3 23.28 4.25 46.8 9.75 73.37 25-44.88 65.8-115.35 136.92-191.66 182.45-4.33 1.95-18.54-6.91-20.21-15.67-.39-2.03.74-6.04 3.03-5.97 5.6 1.82 11.04 4.32 16.51 6.55 0 0-7.62-19.13-3.94-22.04 2.39-1.57 4.35-2.89 5.88-4.5 5.49-7.08 5.04-15.11-.75-21.28a24 24 0 0 0-6.43-4.76s5.38-14.93 8.08-21.96l-21.18 7c-6.86-9.5-19.46-16.9-28.78-2.75-1.78 3.78-1.4 3.2-14.52-2.6-7.43-3.29-12-4.97-12-4.97 2.77 8.3 6.42 16.08 9.61 25.69-14.6 9.3-11.27 24.99 1.01 29.66l-6.47 21.2s13.8-5.15 21.28-7.15c0 0 6.56 6.6 8.5 12.85 3.33 10.74 10.9 18.53 15.7 22.96-7.98 5.85-11.92 7.82-20.9 12.13l31.01 12.53c-1.93-6.55-6.04-11.42-6.45-19.71-.37-7.1-.77-7.24-5.36-12.05-7.52-6.48-8.65-15.15-12.87-22.23-2.95-1.77-5.3-5.34-7.48-9.36-4.73.45-15.4 5.75-17.4 3.85-2.48-2.64 4.28-16.18 3.53-17.53-5.44-.46-20.7-12.35-2.53-25.59l-5.8-21.54s13.83 6.05 20.46 9.43c4.6-21.52 25.6-11.2 29-1.92 0 0 16.64-5.47 15.6-1.03-.45 3.98-3.16 13.93-3.16 13.93 14.97 13.25 11.87 19.75-.29 28.44-.18 7.02 2.77 17.94 2.77 17.94s-8.47-3.76-14.04-5.34c-2.24 2.23-4.77 6.26-4.35 8.34 3.78 16.75 24.43 21.4 55.03 38.52 1.05-10.82 8.51-25.6 9.36-38.59.52-9.46.85-9.61 7.51-6.59 17.54 12.66 12.18 47.46 5.8 61.73-3.79 8.09-4.41 7.88-11.77 5.53-10.18-3.24-28.2-1.93-38.1 1.43-13.7 5.6-20.17 36.17-20.32 45.46-.24 8.82.44 17.57 5.07 28.47 1.91 6.97-1.61 12.35-7.9 10.48-1.4-.42-4.77-1.7-4.77-1.7l-59.14 30.59 11.14 6.55s-8.21-4.9-3.12-7.55l50.7-26.47c9.46 3.69 8.19 4.44 14.32-1.94 3.67-3.78 5.46-3.85 10.37-3.38 29.9 2.87 43.15-1.49 48.31-14.01.78-1.88.48-1.82 3.54-3.36 5.65-2.2 8.31-6.18 8.6-11.17.19-3.28 1.6-3.72 4.1-6 4.65-4.28 5.6-9.63 2.66-15.14-1.37-2.59-2.43-3.4-1.86-6.09q1.46-6.73-5.02-14.14c-4.98-5.71-4.95-4.75 4.42-13.48 18.42-17.5 34.64-30.9 52.55-46.73 12.25-10.83 10.93-10.06 15.7-5.1 17.54 18.25 24.43 46.7 16.53 71.72-.38 1.17-.54 1.04.38 0 4.96-5.63 5.1-33.95.86-46.5-5.17-15.44-10.18-23.47-27.29-38.58-10.67-9.64-39.74-37.48-39.74-37.48 42.28-36.66 87.82-82.23 113.35-124.13-13.1-14.05-73.85-27-73.85-27 7.56-15.69 22.52-86.16-3.09-164.3l218.24 2.53 7.76.53s1.17-.45 1.8-.61c2.08-.55 3.13.92 2.62 3.26-1.6 5.96-10.35 19.93-16.53 18.77-2.76-1.07-1.98 4.23-3.21 6.43 9.73-1.26 21.14-13.6 24-25.82 1.57-2.57 2.59-3 4.15-2.5 1.8.57 1.35 2.28-.6 8.2-6.1 14.78-18.45 28.52-32.82 27.14l-1.86 5.05c19.38-.31 34.37-18.49 38.8-32.08 3.1-8.08 3.2-9.17 6.32-8.4 2.57 2.38.98 5.8.1 8.61-9.74 31.13-36.5 39.45-49.83 38.1-1.6-.2-1.88 1.3-1.4 3.87 28.63 1.89 51.44-22.78 54.65-43.94 1.57-5.88 4.3-7.89 5.86-5.2.89 2.37.6 4.79.16 7.04-7.82 33.41-43.43 52.38-65.2 46.97-1-.94-2.65 3.67-.28 5.32 43.94-1.66 57.5-24.33 67.52-44.35 11.95 18.02 21.73 36.62 50.37 47.54 0 0 2.86 6.3.6 7.7-1.18.74-3 .4-5.62-.03-34.92-5.63-46.46 27-31.6 75.74 4.06 13.35 2.24 11.3-6.46 19.66-4.14 3.98-6.11 11.03-5.02 11.2 1.48-.84 1.98-3.13 5.6-6.14 1.58-1.3 4.83-2.55 7.22-4.2 6.46-3.75 6.4-6.31 4.08-15.16-1.73-6.59-6.11-26.61-6.12-28.64-.01-3.84.9-3.43 5.7 0 6.7 4.97 10.5 4.62 2.4-1.75q-4.72-3.69-6.14-5.77c-1.29-1.88-.5-3.1 2.12-2.27 12.03 3.77 22.36 3.5 34.04-3.61 1.34 32.15-3.09 80.94-30.03 115.82-20.67 23.21-60.24 5.65-74.88-1.68m31.66-73.9c-.8.04-3.68.64-5.47 1.66-7.93 4.54-6.04 20.66 2.62 22.81 3.48.86 6.65 1.34 12.5-1.46 3.49-1.66 8.37-2.96 9.73-2.39 2.88 1.2 3.8-1.34 4.4-4.2 1.38-6.41-9.13-6.56-17.5.06-10.55 8.36-18.63-3.98-8.7-13.27 3.33-2.14 3.22-3.24 2.42-3.2m-81.97 34.49 8.86 10.24 5.57 24.41c-3.38.57-7.47-1.3-7.47-1.3-2.77-11.04-5.47-22.1-6.96-33.35m120.7 6.14q-.15.01-.3.08c-.38.16-2.02.9-4.3 1.16-1.33.15-3.31-.79-4.74-.7-3.88.24-7.5 1.38-8.47 1.78-1.2.5-2.37.7-3.39.1-2.9-1.7-11.32-1.22-13.88.28-3.04 1.3-6.45 1.31-8.94.02-1.07-.55-2.17-1.95-2.36-1.76-.4.4-2.02 7.3-2.5 9.98 0 .94-.66 2.5-.27 2.66.5.2 2.09-1.24 4.05-2.24 4.03-2.05 8.53-1.9 16.43.04 9.75 2.39 13.56 1.7 19.31-1.24 4.59-2.34 7.38-2.9 10.42-2.07.75.21 2.75 1.25 3.03.99.54-.52-.94-3.41-2.2-6.28-.93-2.07-1.26-2.88-1.9-2.8M534.83 314.2c8.56 8.11 7.92 7.42 13.32 11.43l-.26 7.82s-6.62.15-9.87-.86c-1.03-3.04-5.49-18.32-3.2-18.4m70.49 5.26q.85.61 2.58 1.22c13.64 5.11-.62 3.82-1.98 8.7 0 .43.62.5 1.29.24 4.68-1.84 16.12-3.03 21.32-2.03 6.75 2.28 7.17.7.68-2.68-4.75-1.87 1.01-3.15 2.95-4.78 4.02-2.6 1.25-3.66-3.87-1.2-5.14 2.46-14.27 2.42-18.43.09-1.85-.94-3.64-1.8-4.5-1.86-1.74-.07-.81 1.75-.04 2.3m-53.7 8.76 7.98 6.25-8.17-.79zM370.76 485.05a2.93 2.93 0 0 0-2.92 2.92 2.93 2.93 0 0 0 2.93 2.93 2.93 2.93 0 0 0 0-5.85m10.65 2.95-36.62 17.39 9.68 3.24-.08 10.01 8.91-2.84 3.79 9.36zm1.63 8.19a2.93 2.93 0 0 0-2.93 2.92 2.93 2.93 0 0 0 2.93 2.93 2.93 2.93 0 0 0 2.92-2.93 2.93 2.93 0 0 0-2.92-2.92m-46.43 17.79a2.9 2.9 0 0 0-2.93 2.9 2.93 2.93 0 0 0 2.93 2.93 2.93 2.93 0 0 0 2.93-2.93c0-1.6-1.32-2.9-2.93-2.9m11.26 5.44-41.12 18.88 12.2 3.7-3.23 12.55 9.93-4.17 5.54 8.42zm1.2 8.99a2.93 2.93 0 0 0-2.92 2.92 2.93 2.93 0 0 0 2.93 2.93c1.6 0 2.9-1.32 2.9-2.93a2.9 2.9 0 0 0-2.9-2.92m-81.57 1.88c15.46-.02 32.8 5.86 38.71 19.1 1.57 6.6-4.93 10.55-18.82 6.74-22.95-6.3-27.23-7-23.42-3.1.51.51 1.52 1.77 4.95 2.94 8.65 2.95 25.39 6.36 29.9 5.9 6.17-.82 10.43 2.05 8.9 7.19-1.76 5.84-9.76 8.23-21.8 6.53-12.48-1.76-19.34-3.2-23.48-4.45-5.33-1.6-5.51-1.47-3 2.27 1.32 1.94 1.45 3.5 3.4 3.86 8.23-.46 17 1.11 24.56 1.83 13.57 1.2 15.7 5.06 5.73 10.93-4.73 2.8-18.86 2.03-26.9-.86-5.73-2.07-18.89-5.02-13.82-1.02 1.22.96.8 3.32 2.93 4.07 6.96.96 26.64 2.34 29.7 5.12 1.99 1.8-2.47 6.34-11.65 8.72-13.83 2.62-34.5 1.53-39.97-2.2-10.1-20.6-4.67-54.29 11.16-67.46 5.05-3.95 13.65-6.1 22.92-6.11m90.65 10.74a2.9 2.9 0 0 0-2.91 2.92 2.9 2.9 0 0 0 2.9 2.9 2.9 2.9 0 0 0 2.93-2.9 2.93 2.93 0 0 0-2.92-2.92m12.2 3.12-42.44 21.13 10.73 3.2-2.54 12.34 9.95-4.1 6.02 8.31zm.33 10.34a2.93 2.93 0 0 0-2.92 2.93 2.93 2.93 0 0 0 2.92 2.92 2.93 2.93 0 0 0 0-5.85m24.69 24.93c-18.83 18.31-40.04 32.82-59.41 50.61l4.19-.17 10.56-9.52 297.33-.93-6.94 10.14 2.92 1.25s8.92-13.18 8.31-13.79c-65.32.19-115.75.04-187.41.53-13.06-12.93-26.86-25.05-40.52-37.34zM305 591.16a2.93 2.93 0 0 0-2.93 2.93A2.93 2.93 0 0 0 305 597c1.6 0 2.9-1.31 2.9-2.92a2.9 2.9 0 0 0-2.9-2.93m388.17 2.24c25.68 19.06 56.12 42.44 81.38 56.31 10.1 4.4 9.13 5.9-1.15 10.75-10.1 6.28-26.91 14.37-40.93 21.44-6.08 2.3-8.74-.7-13.04.1-3.11.8-4 1.38-5.86 3.83-3.04 4.01-2.2 3.87-18.45 3.14-16.39-.74-23.15-.37-26.67 1.42-3.39 1.73-9.2 7.63-9.2 10.08 0 2.36-1.85 5.38-5.22 6.4-3.93.95-8.47 4.06-8.28 8.89-1.05 3.64-3.28 5.25-5.25 7.24-4.67 4.71-4.2 8.42-2.85 12.8.63 1.95 1.57 1.5 1.09 7.3-1.11 13.27-2.02 12.15 12.18 21.98l-72.59 63.25c-1.68 1.33-2.18 1.2-3.7.14-8.86-6.57-15.02-17.43-18.57-28.3-12.26-33.78 2.71-61.53 22.61-78.52a316 316 0 0 1 18.74-14.66c37.48-31.96 70.08-77.23 95.76-113.6m-377.34 2.48-41.5 19.6 13.37 2.24-2.56 11.55 9.68-3.67 5.13 9.74zm2.54 9.16a2.93 2.93 0 0 0-2.93 2.92 2.9 2.9 0 0 0 2.93 2.9 2.9 2.9 0 0 0 2.9-2.9 2.9 2.9 0 0 0-2.9-2.92m380.24 12.84-4.7-11.14s-13.12 32.29-15.9 43.23c11.11-5.72 43.65-22.28 43.65-22.28l-13.92-2.59 1.57-12.64zm-474.02 2a2.93 2.93 0 0 0-2.92 2.92 2.93 2.93 0 0 0 2.92 2.93 2.93 2.93 0 0 0 2.93-2.93 2.93 2.93 0 0 0-2.93-2.92m12.72 2.66s-30.88 14.5-44.82 20.74l13.02 2.73-2.3 12.65 11.75-4.58 4.74 12.5zm1.65 9.56c-1.62 0-2.93 1.31-2.93 2.93s1.31 2.9 2.93 2.9a2.91 2.91 0 1 0 0-5.83m436.96 2.1a2.9 2.9 0 0 0-2.92 2.9 2.93 2.93 0 0 0 2.92 2.93 2.9 2.9 0 0 0 2.9-2.92 2.9 2.9 0 0 0-2.9-2.9m50.5 2.64-14.7 40.84 39.74-20-10.79-2.96.06-10.1-8.88 2.58zm-469.75 9.82a2.93 2.93 0 0 0-2.93 2.92 2.93 2.93 0 0 0 2.93 2.93 2.93 2.93 0 0 0 0-5.85m434.74.74a2.9 2.9 0 0 0-2.9 2.92 2.9 2.9 0 0 0 2.9 2.9 2.9 2.9 0 0 0 2.92-2.9 2.93 2.93 0 0 0-2.92-2.92m-422.55 3-42.12 20.54 13.07 3.06-1.43 13.15 10.63-6.03 5.77 11.99zm2.63 8.68c-1.61 0-2.76 1.31-2.76 2.92a2.91 2.91 0 0 0 5.83 0c0-1.6-1.46-2.92-3.07-2.92m437.98 2.58a2.93 2.93 0 0 0-2.93 2.93 2.9 2.9 0 0 0 2.93 2.9 2.9 2.9 0 0 0 2.92-2.9 2.93 2.93 0 0 0-2.92-2.93m-58.04 13.44-3.92-11-15.58 40.32 41.9-19.2-13.29-3.11.23-10.53zm-42.58-8.68c-.48-.03-.9.1-.9.42 0 .93-10.7 11.4-10.7 11.4l-123.69 1.13c.25.02 10.3 2.8 10.3 2.8 16.22 12.96 41.64 35.96 41.64 35.96l30.7-1.23c17.01-16.69 42.56-29.38 53.95-50a2 2 0 0 0-1.3-.48m115.93 8.3a2.93 2.93 0 0 0-2.92 2.93 2.9 2.9 0 0 0 2.92 2.9 2.9 2.9 0 0 0 2.92-2.9 2.9 2.9 0 0 0-2.92-2.92m-95.47 14.08a2.9 2.9 0 0 0-2.9 2.9 2.9 2.9 0 0 0 2.9 2.93 2.93 2.93 0 0 0 2.92-2.93 2.9 2.9 0 0 0-2.92-2.9m62.79 4.22c8.87-.05 17.4.26 19.61 1.94 13.71 11.54 7.21 65.47-10.06 72.28-18.95 4.27-32.06 5.06-48.51-5.8-4.67-2.27-13.92-9.14-12.12-14.82 2.47-6.97 9.24-6.46 28.67-.42 7.1 2.21 11 1.77 12.8.39 1.7-1.3-.52-2.74-4.14-2.75-1.46 0-7.74-1.55-12.99-3.17-7.39-2.27-9.52-2.94-14.3-3.22-8.04-.48-10.38-.8-10.38-5.71 0-9.19 12.78-10.4 36.29-5.01 2.8.64 7.9 1.36 9.15 1.32.9.35-1.79-3.04-2.24-5.07-.85-.72-2.37-1.06-6.37-1.2-15.12-1.48-27.67-2.5-27.95-4.49-1.33-9.72 18.23-12.37 38.5-4.57 5.21 2 5.31 1.18 5.28-.34-.08-2.8-8.8-7.69-21.66-7.56-12.5.13-10.75-6.22-.48-11 3.52-1.63 12.03-.76 20.9-.8m-48.36 10.42a2.9 2.9 0 0 0-2.9 2.92 2.9 2.9 0 0 0 2.9 2.93 2.93 2.93 0 0 0 0-5.85m-45.06 20.18-2.65-10.9-17.02 42.4L622 733.24l-14.18-2.67 1.24-8.92zm-21.9 17.02a2.93 2.93 0 0 0-2.93 2.93 2.93 2.93 0 0 0 2.92 2.92 2.9 2.9 0 0 0 2.91-2.92 2.9 2.9 0 0 0-2.9-2.93m42.81 12.03-3.62-10.3-14.45 36.9 36.68-16.38-10.83-2.95 1.54-11.19zm-29.19.1a2.93 2.93 0 0 0-2.92 2.93 2.93 2.93 0 0 0 2.92 2.93 2.9 2.9 0 0 0 2.9-2.93 2.9 2.9 0 0 0-2.9-2.92m9.4 14.1a2.9 2.9 0 0 0-2.93 2.9 2.93 2.93 0 0 0 2.92 2.93c1.61 0 2.9-1.32 2.9-2.93a2.9 2.9 0 0 0-2.9-2.9m-18.43 8.64-12.38 34.95 34.46-16.68-10.07-3.32s.56-7.86-.4-7.5c-.6.24-7.08 2.05-7.08 2.05zm30.67 4.18a2.9 2.9 0 0 0-2.92 2.9 2.93 2.93 0 0 0 2.92 2.93 2.93 2.93 0 0 0 2.93-2.93 2.9 2.9 0 0 0-2.93-2.9m-45.68 16.81a2.93 2.93 0 0 0-2.93 2.93 2.93 2.93 0 0 0 2.93 2.93 2.93 2.93 0 0 0 2.92-2.93 2.93 2.93 0 0 0-2.92-2.93m13.17 13.53a2.9 2.9 0 0 0-2.92 2.9 2.93 2.93 0 0 0 2.92 2.93 2.93 2.93 0 0 0 2.92-2.93 2.9 2.9 0 0 0-2.92-2.9m-181.74 161c-1.58.24-5.68-3.52-6.48-5.27 2.34-.6 4.75-.16 6.06.93 1.08 1.03 1.85 3.67.42 4.34m12.47-2.53c-.55 4.27 2.1 12 1.6 13.83-1.37.66-8.22-6.7-9.9-8.47-.36-2.45.02-5.54.15-6.95 2.36-.41 6.54-.25 8.15 1.6m12.35 2.12c1.46 9.46 5.63 24.68 4.98 29.81-.62-.5-5.9-5.7-9.8-11.23-1.38-3.31-3.52-14.83-3.33-20.35 2.63-.36 6.16.06 8.15 1.77m-82.7-1.07c-4.21 2.15-9 3.7-15.02 3.67-4.82-.02-13.13-2.52-12.3-1.9 2.2 3.93 7.94 1.86 8.05 4.43-1.43 2.54-5.24 2.3-7.14 4.73-.4.64.57 1.19 3.25.9 8.15-3.7 18.8-3.62 28.54-.42 2.05.42.7-1.54.01-2.06a12 12 0 0 0-5.11-2.11c-8.52-1.52-4.78-2.37.91-4.91 4.18-1.54 5.23-5.3-1.19-2.33m18.45 12.03c-1.14.09-3.97 1.52-7.08 2.78-5.24 2.12-10.1 1.63-17.15-.34-6.13-1.7-8.36-1.23-14.46 1.84-4.05 2.6-8.48 3.32-11.68 1.5-4.16-2.35-4.13-1.54-2.07 4.3.5 1.45-.5 5.87 1.3 6.89 1.38.77 2.97-1.8 4.03-2.17s7.75 2.64 11.48-.66c6.66-2.4 8.65 1.5 13.26 1.12 7.5-2.63 12.17-5.38 18.6-.3.38-1.9 1.87-12.31 4.27-14.78q-.1-.21-.5-.18m-13.64 29.99c-5.38.06-8.3 3.37-15.24 2.74-5.55-.39-7.45 4.53-5.1 8.12 1.66 2.52 3.87 2.98 11.43-.48 3.11-1.43 7.43-4.56 9.96-4.31 7.4.74 9.19 7.89 3.03 13.93-3 1.76-3.02 3.67-2.11 3.7 2.43.1 7.36-2.81 8.48-6.2 3.06-9.28-2.44-17.67-10.45-17.5m24.16 42.77c-7 1.48-17.1 9.52-20.53 14.73-3.22 5.07-6.3 10.81-4.05 13.64 1.84 2.32 4.42 4.58 4.64 5.84.19 1.1-1.31 2.19-2.72 3.76-6.15 6.88-4.69 7.26 3.94 2.8 4.37-2.27 6.4-3.18 9.26-2.43 8.3 2.16 18.66.62 25.7-1.97 3.18-1.16 6.3-2.75 6.54-1.94-12.85 14.13-28.87 10.57-34.59 9.72-.99-.26-1.76-.2-1.76.14 0 .68 1.65 2.18 5.19 3.75 5.9 2.61 20.08-.17 28.95-6.64 17.54-11.47 27.2-22.43 13.38-17.85-6.33 2.1-8.71 1.73-16.4-1.74-11.54-5.22-20.38-6.74-29.94-3.41-12.1 4.22-2.82-5.75 10.8-14.4 2.95-1.88 3.32-4.03 1.6-4m-65.3 29.82-4.05.06c-2.88-9.72-9.86-9.7-12.88.06l-3.37-.23c3.3-12.13 15.78-14.62 20.3.11m71.8.8-3.03.14c-1.84-5.89-8.32-11.07-12.89-1.42l-2.1-.43c3.73-15.42 18.62-6.84 18.02 1.71m-20.22-8.85c1.89 0 2.36 2.14.22 5.63-1.51 2.45-3.3 2.23-5.11.38-1.63-1.63-1.53-1.92.24-3.53 1.89-1.72 3.51-2.49 4.65-2.48m22.34.06c.82-.03 2.38.65 4.13 1.24 4.6 1.55 5.65 2.84 3.77 4.73-1.86 1.85-5.38 2.41-7 1.36-.08-2.32-2.37-4.1-2.45-6.43 0-.62.73-.88 1.55-.9m-72.11.07c3.19-.14 7.47 1.75 7.16 3.59-.34 2.02-3.49 3.33-6.09 3.55-1.73.23-1.66-.48-2.12-1.71-.4-1.1-.93-2.51-1.23-3.61-.71-2.11.65-1.75 2.28-1.82m-21.82.71s-1.8 5.31-2.6 7.13c-6.67-.35-6.04-3.3-2.88-5.43 1.69-1.29 3.4-1.32 5.48-1.7m-5.19 12.64c1.2.02 2.71 1.07 4.81 1.75 5.91 1.9 15.74 1.68 23.4-.09 3.67-.84 5.4-1.98 6.22-1.4 1.43 1.04-.06 4.67-5.36 6.99-6.9 2.55-17.42 3.93-25.4-.14-6.82-3.47-7.58-7.18-3.67-7.11m-1.82 7.61c6.25 4.14 12.52 5.44 20.25 4.72 11.59-.42 13.66-1.85 3.89 3.32-9.02 4.78-22.93 3.89-25.6-1.29-1.54-2.96-.55-6.5 1.46-6.75m56.14 6.93q-.06 0-.1.03c.93 6.25 11.43 11.97 16.47 13.32 10.69 4.74 27.68.05 40.47-5.47 9.34-4.03 12.71-10.11 1.58-6.65-17.9 5.56-40.37 5.98-51.62 1.66-3.66-1.73-6.17-2.91-6.8-2.89m-58.9 23.42c22.4 5.05 49.47 39.6 49.37 54.71h-7.24c-11.01-38.43-39.62-46.75-42.41-49.04-1.29-4.72.32-5.79.27-5.67m-.36 9.73c26.63 11.66 36.1 32.47 40.09 44.98h-7.79c-5.8-17.21-16.22-29.49-32.36-37.13-1.1-2.39.06-7.85.06-7.85m-.04 11.78c13.65 4.02 25.68 21.98 29.1 33.2l-6.82-.04c-4.82-12.52-11.67-20.54-22.54-25.17q-.67-3.54.26-7.99m-.21 12.2c6.4 1.29 17.25 11.25 18.8 21h-6.24c-2.21-6.57-9.03-12.58-12.52-15.03zm.65 10.41c.7-.43 10.25 8.18 8.64 10.59h-8.62c-.1-2.68-.16-10.62-.02-10.59"/><path fill="#d40000" d="M517.81 111.52c-16.24 31.45-99.55 173.09-100.4 178.02l21.34 9.43 103.59-186.73s-21.47-.7-24.53-.72M762.4 229.8l-9.68 13.6 8.24 14.93 8.35-14.77zM381.82 371.92s-29.88 29.68-41.56 43.53c25.1 25.04 73.07 56.48 73.42 104.86l33.07.13 107.06 95.74s96.94.71 98.75.29c1.95-.45 36.39-49.76 36.39-49.76l61.43 44.79s-2.95-48.24-5.27-77.8c-.76-19.76-1.41-31.92 13.04-40.67-19.86-9.46-18.6-26.86-4-39.64-4.82-6.66-12.02-7.89-13.1-31.5-3.04-3.26-5.91-5.17-9.72-7.93l-3.96 3.54c-12.75 11.45-21.43 23.12-22.87 30.72-2.72 14.46 11.97 24.37 20.46 13.8 2.4-2.97 4.53-2.14 4.53 1.75 0 7.88-9.92 12.34-18.31 8.23-1.97-.96-3.7-1.6-3.87-1.42-.3.3 8.33 21.44 10.66 26.1a57 57 0 0 1 6.2 23.71c.33 8.7.16 9.82-3.91 24.86-3.85 14.18-2.04 22.6 4.82 22.6 3.86 0 3.74 3.71-.16 5.07-8.29 2.9-13.43-3.22-13.72-16.26-.18-7.94-.32-8.13-4.39-6.22-14.18 6.67-29.57-5.24-22.9-17.7 1.4-2.63 3.06-1.8 3.92 1.93 1.64 7.02 5.31 10.1 11.95 10.08 15.3-.05 21.7-21.67 12.88-43.44-1.77-4.36-2.66-4.12-4.99 1.4-3.65 8.67-9.77 11.22-14.8 6.18-1.7-1.7-2.51-4.43-1.37-4.57.27-.03 1.95-.1 3.73-.16 8.91-.29 12-8.93 7.81-21.94-3.67-11.43-4.23-13.5-5.33-19.7-1.68-9.57-.5-16.83 4.23-26.12.84-1.64 6.06-7.48 12.56-14.05 6.64-6.7 12.35-11.84 12.35-11.84s-3.36-2.89-7.9-6.3c-9.6-7.21-11.3-8.45-11.3-8.45s-45.55 125.09-42.32 173.82c-5.78 64.2-52.98 46.44-56.46 1.97zm-2.03 18.76c15.56-.26 25.83 20.33 31.69 63.05 1.94 14.16 10.57 33.98 16.83 38.67 15.8 11.82 40.51 2.71 40.53-14.95.03-21.98-30.84-25.24-31.31-3.3-.12 5.17-2.77 5.44-5.31.52-2.27-4.39-.23-12.6 4.19-16.73 2.82-2.66 2.6-3.16-2.8-6.13-18.77-10.37-26.75-25.83-16.72-32.4 4.4-2.88 10.39.76 7.64 4.63-4.3 6.04-4.36 7-.77 12.02 4.09 5.7 8.93 8.55 20.42 11.94 9.65 2.84 11.23 3.38 15.69 5.4 13.04 5.95 19 19.04 14.44 31.75l-2.32 6.57c-.47 1.4.3 1.4 9.48.18 14.6-1.95 30.83 3.27 38.82 12.48 4.3 4.95 7.75 16.08 7.86 25.37.02 1.78.57 5.82 1.24 8.97.68 3.15 1.56 8.47 1.96 11.82 3.83 31.79 30.29 48.04 41.72 25.63 7.2-14.1-9.44-28.21-17.91-15.19-2.98 4.58-6.04 2.47-4.33-2.96 3.33-10.57 16.52-12.36 25.5-3.47 4.87 4.81 7.2 15.72 4.83 22.64-1.23 3.63-1.1 3.86 1.59 2.93 6.04-2.1 16.47-.08 20.21 3.92 8.83 9.44 7.06 20.77-3.8 24.45-4.94 1.65-10.53-.07-12.37-5.85-.8-4.13 2.04-5.31 4.23-1.77 4.1 6.65 13.05 1.3 10.94-6.55-2.4-8.92-10.02-10.81-24.1-5.97-22.38 7.7-29.6 7.06-40.31-3.59-7.65-7.6-10.52-14.16-12.59-28.65-2.27-16-2.49-16.41-6.45-13.04-18.93 16.11-43.95-8.24-27.9-24.24 4.95-4.96 8.6-.64 4.14 4.9-6.52 8.1 1.98 19.38 12.63 16.76 19.38-4.79 15.42-33.15-5.56-39.78-6.39-2.02-23.96-1.18-37.47 1.79-37.72 8.28-54.39-7.82-62.15-59.99-.9-6.1-1.96-10.6-5.55-23.72-4.25-15.57-18.7-24.02-26.58-15.55-6.3 6.75-2.99 15.85 5.77 15.87 8.72.02 6.05 6-3.05 6.81-15.78 1.4-18.53-24.87-3.39-32.4q5.54-2.76 10.39-2.84m-206 9.7 4.89 18.69 19.5 5.51L192 406.8zm50.04 5.58-5.24 16.91 14.78-3.62 4.82-17.65zm160.44 27.7a5.61 5.61 0 1 1 0 11.22 5.61 5.61 0 0 1 0-11.23m-188.03 10.1-15.38 5.38-2.95 13.41L194 458.4zm36.7 4.24-12.56-2.17 3.53 13.85 13.3 5.44zm545.45-1.06-8.07 6.28c23.55 20.48-1.88 40.2-2.66 38.87 17.03 11.27 13.99 29.05 11.78 45.32-4.03 29.04-5.6 56.5-10 86.25 0 0 20.51 14.16 34.16 19.64.26.03.08-174.6.08-174.6zm-290.65 26.3a5.61 5.61 0 0 1 0 11.21 5.61 5.61 0 0 1 0-11.22m-344.38 14.36.7 162.95 33.73-60.31-23.2-26.77 20.05-21.42zm328.43 24.84a5.61 5.61 0 1 1 0 11.22 5.61 5.61 0 0 1 0-11.22m76.57 16.66a5.6 5.6 0 0 1 5.61 5.61 5.6 5.6 0 0 1-5.6 5.62 5.61 5.61 0 0 1 0-11.23m219.35 181.53 24.77 25.43-19.35 24.1 30.47 51.7-.49-159.98zM143.04 657.1l1.18 175.26 26.5 19.32 6.71-6.34c-17.1-18.26-6.88-31.84 6-39.7-22.73-5.3-15.83-35.45-14.47-49.42-.56-25.95 8.95-55.55 6.02-80.5zm152.59 24.36-37.98 52.9s-41.72-31.6-62.75-45.86c2.25 22.83 4.3 51.95 7.09 76.5 6.82 35.86-10.94 36.48-11.1 39.92 28.23 21.42 4.53 41.46.29 40.45 15.03 8.19 13.8 33.06 13.8 33.06l7.12 4.03s2.33-1.41 3.3-1.94c7.63-4.1 20.06-18.73 22.91-28.37 4.83-16.36-9.38-29.95-18.31-17.52-4.4 6.11-7.9 2.03-4.31-5 3.28-6.42 11.86-9.65 17.55-6.6 3.31 1.78 2.57-2.82-2.55-15.7-1.7-4.33-3.1-9.04-5.52-18.6-2.34-9.24-1.43-20.4 2.62-31.74 5.85-16.35 3.78-26.61-5.59-27.5-5-.48-5.54-2.05-1.46-4.35 9.1-5.15 17.9 2.18 17.55 14.6-.2 6.72-.12 6.84 3.42 5.41 17.95-7.2 32.13 11.42 19.58 25.7-3.84 4.37-6.25 1.6-3.73-4.26 3.9-9.06.19-15.52-8.93-15.59-13.24-.1-20.56 18.19-15.35 38.3 1.62 6.27 1.88 6.35 6.27 2.16 3.9-3.72 6.82-4.92 9.84-4.01 6.26 1.87 7.9 8.54 1.9 7.71-10.31-1.42-13.02 9.4-7.2 28.61 7.75 25.5-.09 46.29-22.99 61.07-1.16.75-3 2.19-3 2.19 8.83 7.87 14.48 12.34 26.15 19.45l41.7-168.43s-.71-9.57-1.74-14.07c-.03-45.22 42.15-49.54 55.36-8.5 1.26 3.95 7.97 14.01 7.97 14.01l219.6 194.88s41-39.62 40.44-40.67c-31.14-31.4-73.2-53.59-74.74-103.4-7.46-.21-32.42.25-32.42.25l-106.78-97.94c-33.51.22-63.24-2.18-98.01-1.15m59.83 3.67c5.87-.19 11.78 2.86 11.78 7.75 0 4.22-2.83 5.19-5.17 1.76-3.27-4.78-7.07-5.16-10.94-1.1-10.72 11.27 5.94 21.56 25.08 15.5 11.73-3.7 17.41-4.7 21.7-3.84 18.1 3.63 26.83 15.84 28.38 39.61.78 12.1.76 12.05 5.99 7.26 12.72-11.67 31.12-5.18 33.98 12 1.23 7.37-6.7 16.65-14.25 16.65-2.95 0-2.49-3.1.7-4.61 7.67-3.66 7.98-15.75.53-20.48-9.9-6.27-22.93 3.51-22.77 17.1.2 16.32 12.4 23.84 36.47 22.45 3.52-.2 12.38-.62 19.65-.92 11.5-.49 23.87-2.66 35.59 6.2 12.27 9.75 20.42 29.16 23.9 57.2 5.49 34.5 9.73 43.75 21.32 44.58 6.87.5 12.7-5.36 12.7-12.17 0-4.8-6.34-9.02-11.16-7.43-5.81 1.92-6.98-4.38-1.26-6.77 7.93-3.32 17.62 3.07 19.77 13.04 1.26 5.81-5.3 16.96-12.17 19.74-17.95 7.26-30.7-7.57-34.91-40.74-2.57-15.2-3.99-25.46-8.73-38.47-8.71-23.93-23.02-33.8-38.6-26.64-17.63 8.1-14.13 34.51 4.56 34.32 10.26.81 12.41-6.73 12.63-14.81.23-5.96 6.99-.37 7.57 3.73.55 4.98-3.91 11.14-7.85 14.05-6.36 4.26-4.1 3.99 2.41 5.7 17.5 3.23 30.5 26.38 20.04 34.24-5.44 3.31-11.2-1.57-7.45-6.36 6-7.61-4.14-19.65-22.6-23.69-24.17-5.3-33.8-23.28-25.07-41.77 2.88-6.12 3.13-5.98-8.66-5.31-25.94 1.46-35.15-2.12-43.86-17.15-2.63-4.54-3.79-10.61-4.35-22.66-1-21.59-2.96-34.95-5.68-38.71-13.47-18.63-41.5-13.06-37.99 7.55 1.84 10.82 13.02 14.29 20.65 6.41 5.77-5.95 8.46-.42 2.83 5.81-13.55 15-37.12-2.5-30.12-22.36 1.6-4.54 1.82-4.4-6.87-4.65-19.33-.55-28.52-17.1-16.07-28.87 2.19-2.06 5.23-3.05 8.3-3.14m46.64 71a5.61 5.61 0 1 1 0 11.22 5.61 5.61 0 0 1 0-11.22m77.72 19.92a5.61 5.61 0 0 1 0 11.22 5.61 5.61 0 0 1 0-11.22m-16.69 36.6a5.61 5.61 0 1 1 0 11.22 5.61 5.61 0 0 1 0-11.22m246.99 21.82 3.55 16.6 12.88 3.38-2.01-14.21zm45.04 5.75-.28 9.84 11.45 1.34 4.06-16.96zm-192.29 14.85a5.61 5.61 0 1 1 0 11.22 5.61 5.61 0 0 1 0-11.22m164.49 22.86-13.47 3.73-6.46 18.7 17.23-6.24zm26.33 1.68 1.65 13.85 16.6 7.5-5.62-19.75zM509.21 997.7l-102.98 186.15 28.14-.39 97.2-175.53zm-323.87 45.06-9.1 12.24 8.64 14.2 9.9-14.26z"/><path d="M73.38 45.76c-12.68.05-25.42 8.6-29 25.2-.79 3.71-1.1 10.12-1.38 28.07-.4 26.6-.66 24.45-.66 24.45l-11.4-.28.6 14.8 12.17.1c-.06.07-.27.87.12 9.24.95 20.85 4.2 28.26 16.03 33.86 7.98 3.79 22.76 3.77 29.44-1.48 4.06-2.57 4.46-2.55 9.26.42 10.22 6.3 18.63 2.88 18.63 2.88l-.27-15.14c-16.1-.25-18.25-4.06-14.03-14.53.3-.73.33-2.1.46-3.89 1.19-16.86.71-73.7-1.16-80.48C97.97 53.7 85.3 45.7 73.38 45.76m-1.39 14.9c5.8.03 11.71 3.95 14.39 11.24 2.84 7.72 2.8 7.05 3.63 54.56.4 23.39-.58 23.3-.58 23.3-8.98-11.9-20.34-20.67-32.77-24.8 0 0 .23 1.1 0-21.95-.24-23.8.05-28.92 3.6-35.13 2.8-4.92 7.23-7.24 11.73-7.22m288.32 46.2c18.96 57.49 20.72 114.14 4.27 168.57 9.37.47 50.27 10.96 72.78 24.86-4.16 10.71-67.98 89.2-111.31 124.59 12.31 12.2 25.87 24.38 40.11 37.82 21.55 20.45 29.15 34.52 30.57 61.05-.19 12.82-4.78 28.62-12.93 39.82-6.17 8.46-12.72 14.96-25.85 23.66-12.12 8.02-29.82 25.29-52.1 50.75a596 596 0 0 0-34.68 44.24c-4.49 6.13-17.7 25.25-17.7 25.25-44.1-35.99-91.33-63.74-92.54-63.53 0 0 47.65-25.39 57.67-30.57 7.7 4.94 18.15.72 13.13-10.15-9.64-24.74-2.92-50.2 8.93-67.99 2.83-4.28 9.67-6.78 20.72-7.55 4.8-.31 9.86-.16 14.94-.22 1.83 0 6.77.7 9.48 2.18 9 4.92 10.81-1.4 16.43-22.7 5.58-21.18-3.4-47.97-16.23-48.06-3.02-.02-4.71 1.09-4.09 8.63.47 5.69-.9 8.64-2.36 12.23-3.2 7.82-4.9 15.49-5.92 25.7 1.88.38-11.9-13.7-33.61-19.3-14.11-1.66-21.28-19.23-20.68-19.27 0 0 2.11-4.76 3.96-6.6 4.82 2.3 9.56 5 15.28 6.68 0 0-1.33-7.06-1.83-8.95-2.62-9.82-2.48-11.31 1.3-13.35 9.38-5.05 10.37-14.08 3.05-22.3-1.85-2.1-3.4-3.45-5.89-4.5l4.62-18.44s-4.24.91-7.63 1.94c-9.81 2.99-9.08 3.09-13.26-1.68-9.1-10.37-23-8.4-25.08 3.57a41 41 0 0 1-.85 3.42l-20.93-10.15c.61 4.9 6.05 21.53 6.05 21.53-18.31 14.23-2.84 26.83 2.16 28.16 0 0-4.28 13.61-5.75 19.27l20.66-5.9c1.73 3.93 3.87 6.92 8.16 9.67 1.13 11.62 10.08 21 16.24 26.63 0 0 .9 4.25.36 6.97-1.33 6.75 5.54 17.45 6.7 18.09-28.35-11.6-57.9-25.5-86.42-39.17l1.78 350.6s6.64 5.96 19.82 15.4c6.32 4.53 6.32 4.55 5 9.77-1.73 6.89-1.3 12.15 4.58 57.5 3.1 24 6.5 48.86 9.53 71.18 1.2 8.12 1.37 13.33 1.37 13.33-6.3-2.91-15.46-3.21-20.2 2.11-8.18 9.31-1.64 24.31 10.47 23.99 2.76-.18 4.63-.97 7-2.59 1.64-.88 3.33-.11 3.33-.11l-18.08 31.76 20.82 35.03 20.75-37.47-15.1-29.63s1.48-.17 3.53.86a19 19 0 0 0 6.65 1.9c10.53.09 12.69-4.71 13.8-13.36 0-11.12-8.85-16.16-21.04-11.96-1.9.66-4.02.84-4.02.84L203 878.63l6.86 5.03 2.24-1.22-6-5.11c1.3-19.6-5.16-26.53-12.14-31.28 23.35-13.28 13.23-34.27-2.3-40.73 0 0 10.1-5.9 12.11-12.08 1.73-5.53 1.09-14.3-.87-29.84-1.46-23.97-6.61-73.49-6.61-73.49a3530 3530 0 0 1 61.03 47.39l39.47-54.86 95.13.66s72.3 65.65 108.7 99.12l31.41.28s.34 3.36.66 5.6c2.98 32.4 24.72 54.66 44.52 70.27 8.07 7.25 28.01 26.3 28.01 26.3l-36.96 37.26L341.9 719.75s-1.09-2.95-1.52-4.75c-5.23-21.42-19.42-30.38-32.32-28.87-13.54 1.58-25.08 14.91-24.5 37.6.08 3.51 1.36 9.7 1.36 9.7l-41.36 172.25s-16.54-12.63-25.46-18.7l-1.96 1.15 24.2 18.19 1.8-.78 6.87 5.37.52 3.67c21.18 14.4 57.09 41.29 57.09 41.29 16.95-12.6 34.77-8.38 52.6-3.65 0 0 12.99 4.34 19.88 4.3 35.07.8 66.13 7.61 98.72 19.38l-118.81 210.62 226.33.46c-11.16-44.08-23.02-88.86-1.83-164.05-22.32-4.51-71.95-24.36-71.95-24.36s-.23-1.13 1.86-3.7c9.18-13.13 32.38-48.7 54.12-69.25 2.65-1.9 40.55-38.67 40.92-39.84.2-.65 1.11-3.13 2.6-4.1 3.5-2.33 12.78-11.11 12.78-11.11l-47.42-41.12s-2.1-.21-2.77-.59c-6.62-3.7-18.57-24.35-21.51-38.18-6.77-31.82 5.73-56.97 41.01-82.8 34.44-23.58 99.76-115.14 99.98-117.16 35.22 29.15 62.72 44.25 93.7 63.37-18.72 10.74-33.98 17.92-47.08 25.02-8.5 4.85-9.67 5.86-16.85 3.83-8.14.07-10.92 3.2-8.85 10.22 12.31 19.46 7.02 64.77-9.63 73.5-14.46 7.59-28.5 5.53-40.12 1.23-8.96-2.87-8.85-2.9-12.85 5.23-8.79 18.73-9.35 34.5-1.24 52.46 6.66 14.41 16.56 20.98 17.78 1.55.71-11.42 5.74-24.75 5.58-37.02 10.1 11.15 16.8 16.24 33.37 20.78 11.1 1.73 22.91 15.67 22.55 21.35-3.06 3.09-3.99 7.02-4.48 6.74-5.41-1.76-17.14-6.75-17.14-6.75l5 17.63s-.83.8-3.23 2.03c-11.03 5.62-10.32 20.84 1.26 26.92 2.36 1.24 2.52 1.83 1.52 5.07-1.44 7.23-4.6 12.09-6.3 19.25 0 0 1.57.06 14.78-6.04l5.19-2.4 3.13 3.34c6.84 7.32 15.06 7.27 22.23-.12l3.29-3.39 9.17 4.65c8.65 4.38 10.92 5.29 10.92 5.29s-4.98-19.35-5.9-21.56c-.5-1.2-1.53-2.41-2.27-2.69-1.23-.45-1.04-.74 2.24-3.34 8.33-6.6 9.16-15.69 2.07-22.6-2.7-2.64-3.05-3.19-3.05-3.19l4.31-17.93-17.86 5.92c-2.82-6-7.3-8.73-10.13-9.95-.3-8.1-1.32-16.4-15.22-29.06 4.68-4.27-.89-14.6-5.48-20.78 7.82 2.63 27.39 10.9 27.39 10.9l2.95-.11 9.34 4.47 1.1 1.66s29.38 13.87 42.87 20.36c-.03-.73-.14-15.24-.18-175.01-.02-95.26.14-173.61-.05-174.12-.2-.5-3.43-2.98-6.78-5.5a233 233 0 0 0-15.3-10.83c-6.3-4.2-5.89-4.17-4.58-9.01 1.51-5.57 1.48-13.22-.52-27.55-1.46-10.58-6.8-47.8-10.51-77.82-2.61-21.07-3.23-25.74-3.87-29.13-1.04-8.54.07-12.25-.11-12.38 29.5 12.78 31.84-29.6 2.25-23.88 5.66-11.41 10.43-16.7 15.28-28.9-6.17-13.28-19.83-35.74-19.83-35.74l-21.61 37.64 12.72 26.05c-14.64-2.64-22.4 8.02-19.7 17.57 2.95 8.45 11.05 10.82 18.2 7.42 5.5-2.18 5.5-2.73.61 38.56-1.44 12.21-7.84 69.3-8.73 77.8-.6 5.71-.96 7.3-3.29 6.03-3.15-1.35-4.95-3.33-8.1-5.4l-1.77 1.64a215 215 0 0 1 9.53 8.35c-.78 15.12-.47 23.88 12.11 31.26-22.8 14.3-9.47 36.3 3.93 39.48-7.98 2.06-15.86 12.33-13.95 32.75l6.47 84.13-61.85-45.92-36.3 51.95-95.66.12-107.9-97.35s-23.65-.33-33.35-.57c1.1-.5-2.04-30.09-17.65-49.4-16.98-20.18-55.61-53.49-55.59-53.5l40.58-41.2 227.8 205.03s1.1 5.81 1.67 8.28c7.62 32.37 44.45 34.33 52.27 1.36 1.27-5.33 2.8-17.72 2.23-19.2-.18-.47.96-5.87 2.54-12.02 12.25-48.02 22.68-89.45 34.73-135.56a526 526 0 0 0 3.9-15.7c2-9.36 1.69-9.3 11.49-1.93 6 4.51 8.47 6.13 8.47 6.13l1.9-1.98a868 868 0 0 0-18.23-13.5l.12-3.53c-36.98-26.49-44.6-33.52-66.5-50.87-16.97 14.94-41.23 8.89-56.44 3.6-3.92-1.54-13.54-4.05-13.54-4.05-37.88.05-71.16-7.26-102.59-17.53L592.7 106.85h-46.8l-1.64 1.83H519.9l-.08-1.83zm446.88 709.7c0 .13.02 0 .02 0zM498.44 111.74l16.57.32L416.96 287l-10.43-4.07s.96-.5.94-7.87c0-7.92-1.72-11.3-5.29-15.97-2.98-4.04-4.25-4.27 4.5-3.07 17.87 2.46 30.58-16.98 23.48-32.15-2.75-5.86-2.36-6.21 4.88-6.94 19.94-1.98 27.7-27.28 13.59-39.89-2.92-2.64-1.62-4.32 3.83-3.14 17.25 3.72 30.61-15.41 23.76-30.4-2.23-4.18-.23-4.87 2.93-5.29 14.76-3.46 19.8-15.06 19.3-26.48m-132.17.01 76.76.02c-10.33 15.8 7.91 25.16 10.22 24.05-16.55 9.04-12 21.77-3.42 26.15 8.32 4.25 20.81.43 17.49-17.96l4.1-1.78c4 4.52 7.96 32.5-22.5 28.61-5.42-.7-8.36 4.37-3.83 7.17 24.07 27.67-13.6 39.9-15.24 35.3l-.13-4.68c10.19 1.88 23.23-11.25 11.8-22.92-6.5-6.63-25.35-3.4-22.13 16.73-11.13-16.63-23.29-11.61-26.56-2.83-2.54 6.82.69 16.14 11.8 17.73-12.41 10.39-6.38 21.98 2.14 24.54 9.4 2.83 19.02-1 16.42-18.1.16-1.62 3.44-1.1 3.71-1.19 9.73 24.28-13.52 33.2-26.08 28.2-4.66-1.82-7.09 5.36-2.15 9.01 7.5 5.54 5.19 21.5 4.3 21.66-13.94-5.29-33.92-9.2-33.17-8.9 13.32-52.7 12.46-106.28-3.53-160.8m122.38.01 6.93.03c.1 9.92-4.21 22.13-21.15 24.02.07-2.66-.12-5.18-.8-8 6.35-1.43 14.78.33 15.02-16.05m30.28.55 22.14.1L436.9 297.3l-16.65-8.56zm-54.62 14.02a7.08 7.08 0 1 1 .02 14.16 7.08 7.08 0 0 1-.02-14.16m-217.15 3.25c-16.7 43.23-48.78 69.43-72.13 112.92-24.38 44.22-13.22 82.3 21.22 89.36 18.16 3.73 39.38-13.96 42.1-33.18.64-4.59 1.44-5.89 3.6-5.89 3.16 0 2.8 8 .8 18.85-4.8 28.77-14.68 46.27-22.2 57l59.8-.5c-12.14-14.6-21.47-34.3-23.47-58.62-1.47-13.22-.4-19.04 3.84-16.77 1.4.75 1.75 2.06 2.37 8.9 2.17 23.7 27 36.63 47.06 26.2 27.7-14.65 26.95-42.05 20.58-62-19.14-52.25-61.4-86.6-83.57-136.27M64.4 145.95c7.19 6.1 14.31 12.98 19.21 19.07-6.89 4.93-14.13 5.23-18.57 2.77-5-2.76-7.17-9.17-7.65-19.95-.26-5.97 1.85-6.25 7.01-1.89m8.64 57.17c.2-.05-10.82 22.52-18.92 34.66-5.77 10.67-20 29.26-16.18 44.14 4.4 15.48 20.94 19.42 29.73 7.51 4.12-5.58 5-4.91 4.89 1.33-.1 11.92-6.43 18.7-11.06 24.56l30.2.22c-6.4-7.7-12.16-14.08-12.82-24.52.02-3.93 1.2-6.79 3.95-2.55 3.12 3.04 5.77 8.62 14.27 7.06 8.82-1.58 16.52-13.03 14.75-24.13-2.37-12.9-10.43-25.57-18.54-36.44-6.76-9.08-20.52-31.39-20.27-31.84m346.88 3.85a6.57 6.57 0 0 1 0 13.12 6.56 6.56 0 0 1 0-13.12m342.91 5.23 17.63 30.7-20.11 35.62-16.8-34.15zm-.32 10.45-12.4 20.48 11.26 20.98 12.8-19.94zm.24 8.78 6.42 12.38-7.8 12.57-6.47-13.29zm-17.09 41.6q2.03-.02 4.23.9c11.88 4.96 8.1 23.02-4.59 21.9a13 13 0 0 1-5.47-2.1c-8.8-7.22-3.5-20.73 5.83-20.7m29.03.34c10.4.18 16.65 14.63 5.72 21.4-5.28 2.93-13.17 1.15-16.27-4.07-2.67-4.48-1.51-11.96 4.44-15.83a13 13 0 0 1 6.11-1.5m-14.42 20.61c1.04.09 2.16 5.13 3.2 13.89.38 3.17 1.4 11.1 2.25 17.63 1.63 13.95 3.32 26.94 4.77 40.4.29 2.64 1 8.26 1.58 12.5 6 43.68 7.37 57.63 5.95 61.34-3.79 13.03-21.56 14.02-29 6.46-5.6-5.72-6.43-12-4.22-28.38 1.28-9.45 1.8-14.2 5.55-50.33.88-8.46 2.15-19.71 2.83-25 1.48-14.13 3.24-27.38 5.16-41.31.56-4.99 1.22-7.26 1.93-7.2m-291.1 32.46s56.93 18.76 100.24 17.91c6.35 0 7.39-.06 15.3 2.53 4.7 1.53 12.08 3.6 16.41 4.6 13.36 2.6 25.1 1.86 35.49-2.38 1.63-.66 4.03-2.67 6.45-1.94 1.47.44 3.63 3.38 3.63 3.38-37.93 10.07-126.64 8.22-181.87-15.06zm292.48 5.97c-.24.04-.48.36-.76.8-.92 1.47-.16 11.08 3.29 41.66 6.58 58.4 6.55 59.66-1.43 65.8-3.92 3.01-4.53 4.23-2.64 5.33 1.4.81 1.3.8 4.14.02 6.72-1.87 9.5-7.2 9.44-18.08-.04-8.3-.14-9.3-2.72-29.67a3852 3852 0 0 1-2.73-22.12c-4.32-36.39-5.31-43.95-6.59-43.74m-298.21 6.11c56.67 20.3 115.9 26.05 187.27 15.09 0 0 6.86 4.45 10.32 6.63l-2.4.56 1.08 9.86 12.12-1.94s6.56 5.21 11.44 8.41c-63.65 19.44-166.44 16.09-229.85-12.1-2.41-1.4-3.83-2.5-3.83-2.5a23 23 0 0 1 4.7-7.24l11.6 3.3 3.34-10.55-8.86-3.23zm14.84 12.65-3.7 10.4 16.19 4.8 2.76-10.62zm24.77 6.43-2.15 11.84 16.26 3 2.02-11.52zm26.88 5.55-1.28 11.42 17.24 1.82 1.05-11.56zm118.44.18-14.67 1.6.93 10.06 14.82-1.74zm-25.87 2.9-14.54.96.5 10.54 14.63-.92zm-65.54.22-.01 11.2 14.9.56.18-11.44zm41 1.4-13.75.07-.05 10.65 13.88.06zm-159.37 1.89c1.49-.04 4.87 3.26 6.28 6.95 2.75 7.27 1.48 15.33-2.83 18-5.87 3.62-12.78-2.06-8.73-7.2a7 7 0 0 1 2.56-2.04c3.02-.96 3.73-5.72 2.08-13.95-.24-1.22.06-1.74.64-1.76m21.98 2.78c61.35 20.09 130.97 26.83 202.68 12.15 0 0-33.98 138.8-34.71 138.86zm-30.07.42c3.23 0 3.81 5.49.9 8.4-3.72 3.72-10.81.74-9.34-3.93.44-1.35 6.3-4.47 8.44-4.47m17.63 3.23c.67-.05 1.94 1.28 3.95 3.99 6.88 9.27 7.43 19.64 1.26 24.36-7.23 5.54-12.52-3.05-6.5-10.56 1.56-1.94 1.8-5.53.87-13.48-.33-2.83-.25-4.26.42-4.31m237.89 3.35c.8-.03 2.2.58 5 1.96 4.4 2.15 5.93 5.3 3.81 7.85-3.08 3.7-11.5-3.63-9.92-8.63.25-.76.49-1.16 1.1-1.18m-6.6 4.82c1.1.11 2.86 2.13 4.9 6.24 1.31 2.63 2.08 3.38 4.29 4.18 5.24 1.9 6.22 7.33 1.6 8.94-5.01 1.75-8.74-1.86-11.04-10.66-1.5-5.8-1.17-8.84.24-8.7m-219.45 3.9c.76-.06 2.22 1.65 4.53 5.06 6.85 10.12 4.5 29.55-4.15 34.08-3.8 2-6.46 1.58-9.51-1.48-4.47-4.47-3.37-8 3.26-10.44 5.65-2.08 7.47-8.5 5.73-20.2-.7-4.67-.72-6.98.14-7.03m32.66 3.2c41.9 34.56 79.72 71.6 128.47 114.83 11.58-35.62 28.45-109.57 28.51-109.81-1.84 1.52-81.9 12.87-156.98-5.01m156.98 5q.06-.04.02-.07zm25.99-4.9c.7 0 2.72 5.2 3.86 9.93 1.05 4.3 5.2 11.5 6.8 11.77 8.25 1.4 11.77 6 7.7 10.07-3 3-9.49 1.3-12.61-3.28-5.87-8.62-9.88-28.5-5.75-28.5m-467.48 4.78c4.98.04 9.77 3.18 10.98 9.65 1.4 7.54-2.85 13.02-6.46 12.14-3.92-1.46-5.25-7.67-5.25-7.67s-.93 5.06-2.54 7.61c-3.51 5.37-10.9-2.6-9.58-10.31 1.3-7.54 7.2-11.47 12.85-11.42m298.2 1.98c45.62 6.85 84.88 8.63 139.3 2.72l-25.64 99.58zm-34.47.16c.68.04 2.07 1.26 4.23 3.55 7.09 7.5 9.13 17.9 4.52 23.06-2.8 3.14-4.68 3.5-7.66 1.46-3.81-2.6-4.1-6.53-.6-8.34 3.2-1.66 3.5-5.3.96-12.22-1.9-5.15-2.43-7.58-1.45-7.51m-297.65 2.56 16.67 6.92 5.97 14.08-16.63-4.29zm63.03 1.87-4.95 14.02-12.82 4.8 4.99-15.18zm434.84 2.94c.62 0 1.53 1.77 2.65 5.43 2.75 9.07 3.92 11.37 6.43 12.56 4.1 1.96 4.38 6.92.52 8.68-2.46 1.12-3.26.89-5-1.4-2.73-3.57-4.93-10.4-5.32-16.53-.38-5.75-.07-8.72.72-8.74m-185.57 6.33c.48-.03 1.19.68 2.24 1.93 6.48 7.7 7.18 19.5 1.39 23.04-5.62 3.42-13.48-3.64-8.58-7.72a90 90 0 0 1 2.26-1.8c1.37-1.04 1.48-1.65 1.6-8.33.1-4.97.28-7.06 1.09-7.11m49.2.81 79.8 72.53 18.33-71.74c-31.52 2.83-64.45 1.98-98.13-.79m-196.05 3.65c25.22 26.62 58.2 48.15 66.04 74.62 14.05 36.44 3.75 78.71-29.13 102.9-18.15 13.73-35.93 28.19-50.73 45.64-24.28 25.85-40.48 54.09-56.7 74.58-2.75 3.44-10 14.28-10 14.28s-3.55 4.06-15.4-5.89c-31.47-27.98-64.5-48.27-98.1-67.6l14.22-7.95c28.06 16 62.95 38.77 94.33 65.31 0 0 24.96-36.44 32.92-46.88 11.55-14.99 19.66-24.64 30.41-36.23 27.47-33.9 55.83-45.12 67.63-62.29 17.28-25.15 18.02-54.97 3.8-80.42-14.02-24.29-41.28-40.94-59.38-61.05zm239.31 1.97h31.2s-4.58 3.82-8.1 6.17c-2.2 1.47-4.77 1.27-9.63-.77a900 900 0 0 0-13.47-5.4m35.73 0 7.27.22c-5.44 6.83-11.01 11.23-18.31 17.3-.95.41-1.47.58-3.67-.13-14.9-4.94-28.6-11.2-43.12-17.13l12.95-.06s6.23 1.99 15.58 5.87c10.74 4.45 13.52 5.82 17.65 3.1 4-2.65 7.3-6.65 11.65-9.17m14.73 0-2.6 9.55c-4.36 5.44-13.16 11.7-20.5 17.87-1.73.9-1.67 1.07-9.2-1.86-27.73-10.77-41.14-17.77-41.14-17.77l-5.63-5.03s7.23 2.07 12 3.95a772 772 0 0 0 12.32 4.69c3.53 1.3 11.33 4.61 16.53 6.67 12.01 4.74 11.34 4.88 22.85-5.27 12.45-11 15.37-12.8 15.37-12.8m-420.1.88 12.1 13.86-16.13 13.57-12.18-14.35zm459.17.01c2.79 5.21 4.65 11.37 9.17 15.75 3.4 3.25 4.25 5.75 2.23 7.58-5.26 3.25-6.17-2-7.8-5.44-2.87-6.04-6.37-14.22-3.6-17.89m-437.61 1.39h.94c12.9.2 15.95 19.26 3.8 23.84-4.35 1.64-9.35.9-12.05-1.8-2.63-2.62-2.99-4.83-1.2-6.2 2.8-2 9.47-2.13 9.47-2.13s-6.05-2.05-8.75-3.56c-5.3-3.03-.7-9.81 7.79-10.15m265.7.02q1.09.06 3.77 4.47c6.5 10.75 6.16 31.2-.63 36.38-3.53 2.7-7.93 2.31-10.88-.96-3.89-4.3-2.7-8.66 3.09-11.22 5.58-2.47 6.72-7.98 4.45-21.62q-1.2-7.13.2-7.05m-313.15.34c3.85-.14 7.57 1.37 9.42 4.4 1.37 2.25.7 3.9-1.87 5.02-3.14 1.24-9.09 2.37-9.09 2.37s5.77.95 9.25 2.36c4.38 1.93 4.03 5.47-2.36 8.5-12.3 5.85-23.94-10.13-13.78-19.3a13.3 13.3 0 0 1 8.43-3.35m323.67 7.71q.13-.02.3 0c1.13.14 3.21 1.78 5.3 4.55 7.34 9.72 8.62 24.32 2.37 27.17-6.6 3-11.35-3.2-6.6-8.61 3.37-3.84 2.95-9.46-1.51-20.58-.66-1.62-.5-2.42.14-2.53m158.46.46c.58-.04 1.63 2.3 3.32 7.02 3.74 10.39 6.93 14.74 10.76 14.74 4.83 0 7.36 6.61 3.55 9.28-7.52 5.27-17.37-7.64-18.09-23.72-.22-4.84-.12-7.27.46-7.32m-39.75 5.2-2.23 8.47s-5.12 4.98-8.79 8.15c-5.83 5.04-7.26 6.04-11.86 4.47a586 586 0 0 0-21.46-6.89l-17.05-14.1 38.9 15.18s3.38 1 4.55-.18c5.1-5.09 10.7-9.04 17.94-15.1m36.7 7.93c.5-.11.98.51 1.33 2.06 1.76 7.98 4.31 13.77 6.47 14.67 2.72 1.14 3.77 3.5 2.62 5.9-3.3 6.95-12.02-5.31-12.02-16.92 0-3.3.79-5.53 1.6-5.71m-140.43.56c.47-.03 1.24.68 2.44 1.88 5.39 5.38 7.01 20.25 2.69 24.57-6.25 6.24-12.91-3.04-6.85-9.54 1.6-1.72 1.6-1.84 1.22-9.46-.26-5.3-.29-7.4.5-7.45m-325.94 1.48-4.2 13.95-13.45 3.46 3.14-11.48zm16.1 1.42a5.8 5.8 0 0 1 3.55 1.29c5.48 3.97 5.93 10.74 3.37 15.75-2.45 4.88-7.46 6.28-12.3 5.79-6.29-.7-11.04-5.08-10.7-11.78.1-3.36 1.57-7.09 3.84-8.68 1.6-1.12 2.92-.66 4.3 1.64 1.3 2.25 3.5 7.34 3.5 7.34s.07-5.23.81-7.91c.6-2.14 1.94-3.37 3.63-3.43m10.26 1.22 9.74 3.32 3.85 13.23-10.9-4.23zm555.2 2.46s2.8 1.19 16.09 11.74c3.32 2.64 8.93 7.7 8.93 7.7l-.32 172.57s-26.21-14.17-29.61-17.54c-1.8-1.93-.94-7.35-.3-17.19 3.08-25.84 4.34-45.64 7.65-69.56 2.32-26.66 7.45-34.31-10.4-45.62 19.21-12.06 13.79-30.82 1.73-38.64zm-156.6.66-1.76 7.9c-6.33 10.82-11.99 10.26-21.66 5.25l-11.63-9.88c7.52 1.57 11.57 3.97 18.92 6.29 3.65 1 4.99.36 7.56-1.94 2.95-2.7 5.16-4.7 8.57-7.62m-86.15 4.15c3.93 4.3 4.96 8.53 4.62 19-.76 7.43-.42 12.97-6.53 17.15-2.98 1.95-8.13 1.95-10.44.02-5.52-3.7-2.48-11.1 4.76-11.47 4.57-.08 6.45-15.01 3.86-24.34-.4-1.45-.3-2.4.42-2.47s2.05.74 3.3 2.11m123.49-.56c.88-.01 2.45 2.26 3.38 5.97 1.35 5.37 3.25 8.38 6.22 9.9 3.8 1.94 5.03 5.67 2.6 7.87-4.84 4.39-9.8-.87-11.38-12.08-.08-1.27-2.3-11.54-.82-11.66m103.94 1.84c10.8.17 16.91 7.73 16.9 16.89-.12 6.6-3.73 13.32-10.37 16.1-15.86 4.67-24.52-5.94-24.37-16.27a17.24 17.24 0 0 1 17.84-16.72m-217.99 6c9.08 9.08 9.5 28.5.6 28.5-10.66-3.53-2.34-9.82-2.14-11.46.83-6.69-.7-10.98-2.26-17.23-.7-3.7 2.8-.9 3.8.18m218.57-.88c-1.9-.06-1.77 1.86 1.73 4.87 6.33 5.46 3.23 15.53-4.79 15.57-3.7.02-4.61 2.51-1.39 3.8 12.46 5 20.97-13.93 9.8-21.81-2.33-1.65-4.2-2.4-5.35-2.43m-476.36 2.55c10.02 3.41 13.47 22.51 13.85 29.25.46 11.72-5 30.9-9.87 34.72-12.61 9.92-18.52-25.14-7.73-47.7a14.6 14.6 0 0 0 1.67-8.96c-.43-4.57.34-7.28 2.08-7.31m331.25 1.84s-1.27 5.73-2.61 8.86c-1.56 3.62-2.7 3.73-6.31.64a91 91 0 0 1-5.35-5.3c3.15.5 5.96 2.13 8.64.8 2.84-1.4 5.15-4.05 5.63-5m38.04.3c.71.03 1.62 2.02 2.83 5.97 3.3 10.82 6.18 14.89 10.56 14.89 7.16 0 8.72 8.62 1.96 10.84-2.5.82-3.35.81-6.55-.04-4.83-1.29-11.43-17.56-10.48-25.85.44-3.9.97-5.83 1.68-5.81m-441.19 6.3c2.63-.07 3.66 1.22 5.21 4.42 1.76 3.64 6.37 8.26 10.28 10.28 9.41 4.62 19.33 8.24 28.63 12.88 12.06 6.06 22.87 24.61 15.47 26.55-2.68.62-5.77.65-8.52.4-.9-.47-2.65-2.5-3.88-4.53-5.5-9-15.8-17.82-31.66-21.94-11.19-2.9-21.2-16.68-23.36-23.16-.56-1.68-.58-3 .92-3.43 3.18-.91 5.33-1.44 6.91-1.48m340.13 1.12c.5-.08 1.23.56 2.34 1.75 6.67 7.11 7.5 20.18 1.51 23.88-6.49 4-12.17-2.62-7.08-8.26 2.25-2.48 2.25-2.48 2.25-9.93 0-5.14.15-7.3.98-7.44m96.93 8.3c.8.03 2 2.24 3.45 6.59 2.05 6.17 2.34 6.66 4.69 7.87 3.97 2.06 4.62 5.14 1.7 8.06-5.44 5.44-10.92-3.32-10.94-17.47 0-3.4.4-5.08 1.1-5.05m-87.04.98c.5.04 1.88 1.13 2.96 2.4 8.15 9.68 6.51 32.33-2.59 35.73-3.04 1.13-3.97 1.2-5.85.38-6.78-2.94-5.96-10.1 2.4-14.65 6.25-3.4 1.8-23.77 3.08-23.86m-417.08 7.13 33.68 16.71s9.23 19.44 13.48 26.73c2.92 5.05 8.76 9.93 2.73 13.3-10.13 6.87-15.88 10.78-15.79 15.05.07 3.45 4.37 6.97 10.14 13.77 8.3 9.76 8.21 7.5.68 22.4-5.77 10.44-10.68 34.08-10.68 34.08l-34.02 17.53c10.12-24.18 22.05-44.76 35.4-59.47a158 158 0 0 1-26.97-25.22c6.43-8.6 14.9-15.55 22.73-23.02-15.89-17.96-25.85-35.2-31.38-51.86m425.97.3h.18c1.4.1 4.63 3.6 7.47 9.24 3.66 7.28 4.02 16.44.76 19.7-5.61 5.6-12.92-1.6-7.68-7.58 3.7-2.69 2.7-9.37-.21-16.33-1.35-3.33-1.33-4.9-.52-5.03m-429.7 3.27c8.77 18.62 18.57 33.76 28.61 48.1l-21.91 23a234 234 0 0 0 26.4 26.01c-14.1 15.68-23.34 37.62-32.6 58.35zm504.1.4c.77.06 1.85 2.31 2.95 6.85 1.4 5.72 2.36 7.19 5.7 8.62 5.3 2.27 5.42 7.4.21 9.23-1.9.68-5.47-1.24-6.95-3.74-1.95-3.58-2.95-8.4-2.93-12.8-.3-5.46.17-8.22 1.03-8.16m121.53 3.45c8.28 2.32 11.28 10.62 9.66 26-2.16 20.57-4.7 43.46-6.77 62.35-2.38 21.8-3.76 33.13-4.29 33.98-1.68 2.72-1.95-7.52-.74-18.9 1.86-16.29 2.88-30.55 4.45-46.81 3.52-36.2 2.66-47.63-3.89-50.97-5.06-2.59-7.24-1.06-3.5 2.46 7.12 5.5 6.9 7.8-.72 96.91-.79 9.22-1.1 15.75-1.1 15.75l-9.68-6s-.72-7.65-1.62-19.18c-2.19-21.73-3.47-44.9-4.92-65.72-1.55-22.22 2.6-30 16.4-30.53 2.2-.09 4.64.09 6.72.66M591.7 509.72c1.06 2.94 5.86 24.86-6.44 18.57-3.28-1.85-3.45-4.75-1.04-7.56 2.7-3.15 3.34-7.67 2-14.13-.84-3.93-1.84-7.18-1.84-7.18 2.38.86 7.04 9.53 7.32 10.3m-365.64-6.87c10.4 1.97 21.83 8.04 29.2 15.63 4.56 4.85 4.33 8.77-2.81 9.22-6.88 1.01-7.02 2.13-10.31-.71-1.48-1.16-4.35-4-7.63-4.5-10.37-1.6-15.67-21.01-8.45-19.64m419.87 5.74c1.1 1.76 1.21 5.23 2.13 7.71 1.55 6.94 6.32 12.08 10.6 11.44 2.87-.34 6.84.52 7.27 3.97.83 2.91-.7 5.67-3.85 6.93-3.56 1.43-7.57.55-10.61-2.3-6.4-6.02-10.32-25.65-5.54-27.75m-50.03.27c3.73 1.43 8.5 13.37 9 22.85-.01 6.78-1.06 15.32-6.91 18.55-3.72 1.92-7.56.96-9.24-2.28-2.06-3.99-.53-8.1 3.73-10.02 5.2-2.35 6.9-12.91 3.73-23.22-.18-1.72-2.79-6.6-.31-5.88m-397.35 4.96 27.45 13.9c-4 5.45-7.13 10.51-9.3 16.27-8.72-9.9-13.3-19.98-18.15-30.17m407.66 4.76c.48-.01 2.06 1.5 3.44 2.83 6.85 6.63 9.8 18.68 5.67 23.08-3.31 3.52-9.1 3.28-10.06-.42-.35-1.81 1.58-5.2 2.43-6.83 1.26-2.43 1.49-9.35-.42-14.4-.86-2.28-1.66-4.25-1.06-4.26m-190.69 2.73 31.02 1.06 103.9 93.59-9.75-.22-95.48-87-29.71.08zm-178.7 16.86c-11.83 18.82-15.07 42.54-7.8 63.62 5.53 14.96-6.53 15.85-11.47 6-3.8-7.37-5.99-20.2-4.84-33.85 1.63-22.08 11.82-44.24 19.98-46.9 8.28-2.7 6.47 8.12 4.14 11.13m425.75 45.3c-3.15 14.71-8.99 22.04-17.27 25.1-33.92 12.52-48.7-55.9-17.23-72.25 30-9.97 38.66 27.7 34.5 47.14m-248.94-44.7 29.25.6c26.67 24.26 55.34 46.89 83.87 76.38h-13.8l-5-4.75c-25.79-23.04-44.9-41.85-69.76-63.25l-26.1-.72zm223.18 4.51c-15.82.64-17.1 22.07-16.64 30.19 1.16 11.7 5.82 28.98 20.66 27.61 10.9-1.08 15.94-13.98 14.94-29.48-.93-14.57-6.88-28.33-18.96-28.32m-225.85 7.11 25.67.58c22.61 19.72 46.52 41.14 70.29 64.78h-11.2s-2.94-2.8-3.81-3.69c-19.24-17.39-38.8-36.77-57.44-52.4l-26.63-1.03zm226.27.84c4.49 1.67 5.24 12.6 1.32 17.14-2.69 3.1-8.86-2.78-9.42-10.18-.33-4.52 4.06-8.45 8.1-6.96m-424.2 1.37c-2.07 7.07-3.42 15.02-4.27 23.62l-10.74-13.65zm432.35 13.16a4.74 4.74 0 1 1 0 9.49 4.74 4.74 0 0 1 0-9.49m-215.65 2.38 51.15 48.1-14.56.15-41.95-38.03-26.63-1 5.2-9.08zm198.94.83a4.75 4.75 0 1 1 .01 9.49 4.75 4.75 0 0 1-.01-9.5m60.89.1c28.84 22.42 69.54 52.15 111.82 76.26 0-.08-6.97 5.48-13.38 7.24-32.9-18.14-72.06-43.73-96.31-64.48-22.9 33.7-66.88 95.02-105.98 123.32-24.67 17.65-37.1 39.4-37.02 64.84.07 26.3 9.36 43.43 35.24 64.97 16.7 13.9 34.94 31.64 34.94 31.64l-9.59 8.28c-1.6-.2-28-22.95-54.72-49.77-14.68-14.75-21.2-47.1-18.72-64.56 3.4-23.74 11.32-40.76 33.82-59.09 8.65-6.68 17.38-11.88 25-19.49 69.93-74.8 94.9-119.15 94.9-119.15m-46.8 12.22c2.64 5.43 4.1 12.56-4.19 13.04-4.9.28-7.72-7.89-3.46-15.17 3.22-5.73 6.08-.85 7.65 2.13m-246.44-1.44 27.6.82s27.23 23.73 40.98 36.88h92.49c50.86 0 92.66.2 92.9.44.63.64-6.57 10.3-6.57 10.3l-305.03.18c.06-.04 18.84-16.77 25.57-21.46 11.9-8.3 22.82-16.03 32.06-27.16m-186.92 11.48c2 7.36 3.66 14.87 7.11 21.65l-21.17 11.25c3.89-11.22 8.34-22 14.06-32.9m588.1 61.23C793.32 664 782.3 687.4 769 705.12c-2.65 3.4-4.45 6.05-4.45 6.05l25.94 24.85L768 759.96c12.64 13.16 23.34 33.32 28.96 49.37a199 199 0 0 1-28.55-13.49c-3.56-8.93-7.19-18.4-11.2-26.56-9.19-18.63-9.06-16.8-1.56-22.28 10.99-8.03 14.26-9.89 11.4-13.93-2-2.84-14.97-18.23-15.75-18.71-1.19-.74-.66-3.02 1.55-6.66a207 207 0 0 0 17.49-41.55zm4.9.94.69 156.56c-9.3-18.7-18.97-37.81-29.74-49.75-.4-.81 23.5-24.16 23.5-24.16-8.76-8.12-13.88-12.97-26.12-24.25 11.92-17.18 21.36-39.64 31.67-58.4m-658 5.43 29.75 17.27c-1.58 22.08-3.56 51.07-6.6 80.48-2.56 22.95-3.61 33.52.45 39.9 3.45 4.65 12.74 9.7 12.74 9.7-15.64 6.33-21.67 25-4.14 38.98 0 0-4.26 3.35-6.15 5.37l-24.4-18.25zm465.62 7.91c-7.42 8.31-19.05 20.64-27.97 26.53-11.9 7.86-28.61 22.95-27.81 23.18 0 0-17.51-.09-29.37-.56l-40.91-36.5s1.46-.54-54.23-.09c-71.95.6-130.27-.2-130.27-.2l8.18-11.48zM755.88 674c-4.03 12.95-10.28 24.91-18.2 36.13-1.83-7.96-2.83-16.4-6.66-23.16zm-577.94 4.15 3.57 2.55s-2.13 27.01-2.82 34.92c-1.26 14.6-1.88 27.77-3.15 42.66-2.56 29.55-2.13 33.9 3.67 38.47 4.46 3.33 7.5 1.82 3.54-2.4-2.6-3.36-2.59-3.3-3.38-8.23-.56-3.42-.47-8.53.32-22.4 4.41-78.07 5.33-80.7 5.43-80.72l8.89 5.75c-.5 1.2 8.15 78.7 7.27 97.96-1.03 22.52-31.35 17.54-32.78.83-.6-3.84 5.16-67.1 5.16-67.1zm247.3 4.55 11.91.34 73.41 67.48 25.03.54-2.19 8.52-24.18-.06zm45.53 0h11.52l42.01 38.09 25.87.4-4.93 7.33-25.73-.74zm-14.34.04 62.1 56 21.18 1.1-3.26 7.66-25.1-.7-69.8-63.92zm-59.9.2h12.91l97.1 87.42 25.44.46-.38 7.87-30.63-.14zm326.76 2.48c5.11 1.29 7.64 6.26 11.25 24.67 4.22 21.47-4.91 56.33-16.35 62.87-5.91 4.66-12.35-.28-8.17-6.35 13.64-19.81 15.44-52.24 7.37-70.37-2.56-5.82.08-11.86 5.9-10.82m-411.94 3.23c31.02.37 39.04 64.09 8.52 73.02-19.83 2.93-30.03-15.01-32.91-31.2-3.4-20.13 5.47-42.05 24.39-41.82m-17.06 38.22c1.85 12.77 9.77 27.4 21.29 26.15 15.14-1.65 17.04-21.86 15.54-32.03-1.82-12.28-8.58-23.41-19.4-24.02-16.12-.92-18.86 20.05-17.43 29.9m16.63-24.8c4.33-.07 7.52 5.71 6.34 12.89-.77 4.64-2.54 10.36-7.76 6.48-2.43-2.22-4.61-8.73-4.03-13.6.39-3.2 1.97-5.68 5.45-5.77m427.81 14.73 14.57 16.85-16.55 11.6a78 78 0 0 0 1.98-28.45m-417.25 1.52a4.77 4.77 0 0 1 0 9.52 4.75 4.75 0 1 1 0-9.52m-16.99 2.93a4.75 4.75 0 0 1 4.75 4.75 4.75 4.75 0 1 1-4.75-4.75m9.62 6.13c2.38.72 3.91 2.92 5.19 4.82 3.18 4.73 3.6 10.66 1.33 13.14-4.56 5.43-11.69-.37-10.83-8.74.63-6.14 2.26-9.84 4.31-9.22m40.67 18.6c6.81 0 8.74 8.03 2.87 11.96-3.82 2.55-4.67 10.85-2.3 22.36 1.9 8.3.9 9.59-4.05 2.1-8.47-13.57-6.29-36.43 3.48-36.43m-15.93 4.37c5.98-.23 7.9 4.34 4.41 7.84-2.04 2.26-1.84 8.24.44 13.16 3.22 7.12 2.47 9.27-3.57 2.42-8.33-8.91-8.2-23.15-1.28-23.42m394.99 3.47c6.78 9.01 12.79 20.77 18.27 34.1l-29.39-13.5zm-429.52 36.24c-2.08-2.41-3.1-10.21-4.8-13.54-1.32-4-2.47-6.33-4.63-6.2-12.42 1.06-11.9-10.82-4.77-13.06 14.76-4.64 20.14 30.98 14.2 32.8m61.61-12c-2.1 6.23-.57 9.96-.13 16.6.37 3.03.52 3.82-1.96 1.5-5.89-5.13-9.02-22.68-3.72-25.93 7.14-4.37 9.3 3.01 5.81 7.84m294.48-8.32c2.88-.14 6.15 2.1 7.77 6.23 2.34 5.93 2.12 20.47.95 28.2-1.8 11.86-4.66 22.74-5.84 30.89-4.15 4.94-14.4-12.55-15.37-26.36-1.6-10.94 2.17-33.68 10.58-38.48a5 5 0 0 1 1.9-.48m39.7 1.86c2.57-.12 1.98.75 3.89 2.74 2.9 3.03 4.07 3.77 8.15 5.05 8.43 2.65 17.7 14.4 14.13 17.98-2.82 2.24-10.5-1.99-13.13-2.89l-7.83-2.68c-7.06-2.39-17.22-15.41-14.06-18.04 1.68-1.4 6.84-2.07 8.84-2.16m-20.54 2.16c5.21.05 6.64 1.36 9.63 6.98 4.43 8.33 12.66 14.2 24.6 17.59 15.26 4.65 28.42 13.5 27.78 29.87-3.64.04-7.28.28-10.92 1.39-4.23-11.88-14.73-18.7-23.77-20.75-20.85-4.73-40.2-25.88-34.7-34.28 2.4-1.22 5-.83 7.38-.8m-359.7 1.04 180.13 156.9c-76.03-28.21-145.77-27.6-213.21-17.18zm76.81 10.4c-.34 4.88-7.04 5.92-8.42 7.12-3.37 2.93-2.92 11.39-1.48 21.26 1.1 5.91-.37 5.66-3.49 1.02-5.5-8.22-5.4-22.46-1.74-30.86 4.7-10.8 15.6-5.39 15.13 1.45m-103.59-7.68c6.9.72 8.81 10.12 9.1 16.35 0 8.59-2.44 8.27-3.8 0-.66-3.67-1.8-5.08-4.76-5.97-6.72-2.02-7.15-10.38-.54-10.38m83.71 9.6c-1.77 1.94-1.81 11.05-.2 17.17.9 3.38-.75 3.64-3.04.96-7.46-8.74-8.14-23.57-1.23-26.43 5.63-1.47 7.1 5.4 4.47 8.3m-77.94 17.53c.17 8.72-1.82 9.53-4.45 1.16-.67-1.94-1.86-3.9-2.72-4.49-4.9-3.35-5.77-5.97-2.92-8.81 6.97-5.7 10 9.54 10.1 12.14m26.32-7.7-24.43 104.17c60.12-5.04 87.43-6.1 151.66 6.45zm72.83 1.73c3.68.92 4.95 5.72.66 10.26-1.4 1.8-2.71 4.57-1 11.94 2.34 10.07-1.6 6.84-6.41-2.66-3.08-6.1-1.67-21.66 6.75-19.54m-114.99.32c6.54 0 12.59 10.6 12.69 22.2.07 9.37-1.27 8.7-4.76-.27-2.44-5.92-4.42-8.06-8.87-9.61-8.24-2.87-7.53-12.32.94-12.32m44.14 3 113.13 98.86a480 480 0 0 0-135.97-2.42zm94.15 3.73c8.88 0 12.36 10.96 1.48 14.8-6.48 2.28-3.71 15.4-2.52 23.2.45 2.93-.48 3.13-2.34.51-6.84-10.1-10.66-35.53 3.38-38.5m-11.98 12.3c-1.6 2.55-1.79 5.27-.68 10.2 2.87 10.56 3.62 12.52-2.38 7.15-6.33-6.7-9.09-19.93-3.8-23.85 5.96-4.4 11.32.48 6.86 6.5m-223.54-8.15c10.5-.07 18.13 6.72 17.72 16.2-.44 10.44-6.98 17.03-16.58 17.57-10.72.55-17.34-8-17.58-16.87-.21-7.82 4.77-16.81 16.44-16.9m-.18 4.2c-12.02-.04-16.52 15.8-6.57 23.12 4.26 3.13 7.63 2.25 4.12-1.09-6.6-6.27-3.94-16.66 4.75-18.57 4.3-.94 2.63-3.45-2.3-3.46m146.32 2.68-14.46 70.16c29.6-4.6 65.39-3.19 93.02-.6zm-48.73 2.66c7.2-.36 9.3 10.47 9.36 14.77 0 5.57-.65 8.48-1.68 5.5-2.42-7.03-4.81-10.89-7.41-10.89a7 7 0 0 1-3.75-2.2c-2.56-3.39-.08-7.04 3.48-7.18m50.07 2.81 9.54 8.1c-6.13-2.7-11.36 4.26-11.36 4.26zm98.16 13.24c-2.77 3.48-2.75 10.83-.6 19.38.6 2.39-1.64.62-3.89-2.23-4.27-5.38-6.27-11.68-5.5-16.85.86-13.06 17.44-10.52 10-.3m-150.88-6.25c6.17.7 8.5 13.59 8.36 17.5-.2 4.08-1.14 6.83-1.95 4.35-1.59-5.38-4.87-13.12-7.72-14.9-4.87-3.04-3.49-6.52 1.3-6.95m472.58 14.44c.22 4.54-1.66 9.2-4.46 10.7-2.87 1.53-4.61-.55-6.32-5.78-1.26-3.86-1.7-5.34-1.7-5.34s-1.06 4.82-1.4 5.83c-2.23 6.69-9.5 6.75-12.54-.72-3.24-8.71 5.81-17.64 12.76-17.32 7.71.35 13.26 5.33 13.66 12.63m-412.24-9.73c2.16 0 10.58 3.77 10.58 3.77l8.37 7.4s-7.7-3.34-10.42-4.3c-6.48-2.29-6.35-2.3-11.58 1.97-5.39 4.4-9.81 7.63-9.81 7.63l1.66-9.52s7.88-6.95 11.2-6.95m-54.96 23.39c1.24 10.05-1.58 10.9-4.31 1.3-2.34-8.23-4.64-11.22-8.62-11.22-7.31 1.09-9.77-9.77-3.2-11.95 12.4-3.48 15.6 17.9 16.13 21.87m425.16-22.07 11.44 5.31 2.43 11.85-10.54-2.6zm-256.42 1.1c11.02-3.06 12.38 10.65 3.94 12.67-5.16 1.24-5.12 9.22-3.66 20.82.34 2.64 1.05 5.85.88 6.29-.78 2.1-3.4-1.11-6.93-8.54-5.27-13.55-3.62-28.64 5.77-31.25m314.74-.16-3.18 13.7-9.68-.66-.36-8.4zm-326.03 8.9c-5.3 7.68-.54 14.77.64 20.78.2 3.48-4.3.07-6.9-5.02-5.41-10.6-5.73-19.17-.86-23 6.81-4 9.95 3.15 7.12 7.25m-99.29-1.88c1.88.01 4.41 1.03 9.74 3.08a1277 1277 0 0 1 13.38 5.35l12.36 10.92s-10.85-4-18.4-7.2c-17.03-7.18-14.58-7.41-28.04 2.83a274 274 0 0 0-7.93 6.33l1.64-8.77s5.08-5.05 11.42-9.62c2.73-1.96 3.96-2.94 5.83-2.92m-158.32 4.14c8.71-.24 14.44 6.69 16.53 14.43 1.2 4.49.16 8.62-.08 12.92-6.01 46.07-8.66 88.82-14.19 131.48-.68 2.04-1.42 1.28-2.3-2.39-6.4-38.67-10.57-81.12-15.95-119.45-1.23-14.31-4.93-33.03 13.19-36.69a17 17 0 0 1 2.8-.3m-.52 5.11c-3.84.16-8.39 2.8-10 6.2-3.3 6.94-2.43 21.07 3.82 63.43.53 3.53 1.25 9.41 1.6 13.08 1.11 11.25 2.6 20.18 3.67 21.84 2.06 3.16 2.32-.23.85-11.24a735 735 0 0 1-2.27-19.07c-2.81-20.1-3.42-34.38-5.17-52.71-.87-9.02 2.76-15.66 9.56-17.46 3.68-.97 3.88-2.63.45-3.75a7 7 0 0 0-2.51-.32m576.03.57c12.72.03 17.4 17.84 4.95 24.12-4.62 2.33-12.37 1.23-14.3-2.5-.92-2.89.12-4.57 2.43-5.8 2.8-1.5 6.92-2.78 6.92-2.78s-6.74-1.3-8.63-4.5c-4.1-6.87 3.42-8.42 8.63-8.54m-478.66 19.21c-.14 3.35-1.85 1.97-2.28 0-1.37-4.47-4.23-9.31-6.63-11.24-2.9-2.33-3.6-5.49-1.62-7.45 7.38-6.53 10.5 16.6 10.53 18.7m431.63-19.27c3.26-.1 7.69 1 10.49 3.81 3.61 3.62 3.42 4.98-2.64 7.18-2.95 1.1-4.97 1.95-4.97 1.95s2.73 1.07 4.76 1.64c5.81 1.94 5.5 5.3.17 9.3-7.27 5.42-18.94-1.78-18.8-11.33.1-7.57 4.77-12.37 10.99-12.55m26.86-.06 11.61 12.8-13.57 14.07-12.79-14.02zm-394.91 1.21h.5c3.6.06 9.35 2.5 23.44 8.17l16.7 6.67 12.68 11.22s-17.38-5.45-23.43-8.51c-1.31-.66-4.2-1.9-6.41-2.73a575 575 0 0 1-12.2-4.79c-9.67-3.89-9.78-3.91-13.03-1.18a250 250 0 0 1-7.55 5.93c-2.76 2.1-6.8 5.17-8.98 6.81-2.55 1.95-5.79 4.9-5.79 4.9l2.05-10.83s1.82-1.79 5.08-4.28l10.03-7.67c2.9-2.24 4.42-3.6 6.9-3.71m124.73 9.5c.36 2.25.15 2.68-2.44 5.32-3.27 3.34-3.72 8.82-1.32 15.91.66 1.96 1.46 4.28 1.28 4.46-3.46 3.45-12.55-18.37-10.38-24.87 2.6-7.78 11.14-7.9 12.86-.83m-199.46.95c2.38-.12 5.15 1.69 6.53 5.45 3.77 10.5 1.46 23.38-2.38 11.38-1-2.54-2.72-5.27-4.03-6.66-1.35-1.43-4.37-3.1-4.3-5.43.29-3.06 2.08-4.65 4.18-4.74m77.76.3c1.53.04 3.56.8 7.22 2.3 3.3 1.35 12.6 4.45 17.89 6.5a249 249 0 0 1 16.79 7.34l-18.6-1.04s-6.31-2.1-10.08-3.64c-13.6-5.6-12.85-5.57-19.63-.42-2.42 1.83-5.47 4.8-5.47 4.8l-9.45.53s4.44-4.75 10.86-9.5a169 169 0 0 0 6.34-4.93c1.6-1.33 2.6-2 4.13-1.94m145.47 3.67c5.17-.99 8 3.95 7.68 7.02-.35 3.38-3.49 6.74-8.31 7.68-1.02 3.77-3.9 12.38-2.22 25.23 1.36 6.01-1.2 6.15-3.79.37-4.21-9.35-10.35-37.1 6.64-40.3m-14.77 10.3c-2.2 4.68-2.96 8.46-1.75 14.38 1.35 6.57 1.64 8.2-2.1 4.09-7.23-9.65-8.3-25.01-1.62-26.77 6.43-1.7 7.84 5.28 5.47 8.3M263 871.63c11.3 1.79 14.62 21.02 13.04 29.25-2.99 9.96-2.84 3.23-3.89-.92-2.78-10.02-6-15.48-9.43-16.05-9.26-1.54-7.97-13.58.28-12.28m86.55 3.78a2 2 0 0 1 .54.05c3.72.62 13.67 3.69 9.38 4.72l-14.69.09c-2.84.1 1.86-4.65 4.77-4.86m395.47 3.15c1.42-.13 3.37 1.54 5.66 3.87 5.21 5.32 2.93 13.71-4.13 17.85-11.09 6.5-23.7-5.75-17.62-16.99 3.35-6.17 7.36-5.07 10.78 3.64.62 1.05 0-1.1 1.16-3.74 1.17-2.64 2.73-4.5 4.15-4.63m-18.6.62-3.31 13.39-13.51 6.49 4.93-16.5zm28.1 2.28 10.76.87 5.97 17.39-15.5-6.61zm-254.24 9.83c7.83.33 8.62 7.72 4.13 10.95-2.52 2.41-3.39 5.9-2.87 11.49.23 2.47.73 5.51.7 5.86-.07 1.2-1.06 1.01-2.4-.46-8.26-9-7.16-28.15.44-27.84m-236.73 2.9c4.97 0 10.6 14.2 7.83 19.65-1.75 3.18-3.43 2.4-4.07-1.3-.47-2.7-2.02-6.4-6.02-7.05-5.8-1.85-3.92-11.3 2.26-11.3m251.04 8.6c3.79 1.95 4.14 6.3.72 8.75-2.66 1.9-3.35 3.49-3.76 8.62.86 11.66-5.7 4.25-6.3-6.36-.35-5.77 2.78-14.35 9.34-11.02m-255.2 3.6c3.56 0 7.79 6.38 6.85 10.11-.5 2.96-2.05 2.44-4.22.24a14 14 0 0 0-3.61-1.6c-5.33-1.61-4.44-8.76.98-8.76m101.16 4.9c48.11-.22 98.16 7.42 139.76 24.03l-3.43 6.15-10.92-3.74-3.75 9.9 9 3.42-4.23 9.14c-49.1-16.15-102.04-28.17-190.02-15.15a500 500 0 0 1-12.27-9.04l7.04-1.54-.93-9.78-17.76 3.17-5.2-5.43c27.79-7.13 59.8-10.97 92.71-11.12m161.37 2.15c4.6 0 7.47 5.18 4.09 7.39-2.37 1.55-7.62 1.97-8.68.7-2.18-2.63.92-8.1 4.59-8.1m-168.16 6.05-.2 10.14 14.5-.46.3-9.61zm25.34.23.07 9.95 14.08.47.66-9.76zm-36.84.68-14.24.94.43 9.3 14.13-.63zm63.7 1.54-.36 9.6 14.32 1.58 1.04-9.76zm-90.2.46-14.33 1.82 1.22 9.56 13.92-1.54zm117.89 3.1-1.4 10.02 13.35 1.99 1.73-9.52zm234.47 2.91c6.46 9.03 12.62 16.72 16.91 26.8 5.51 12.97 9.2 29.9 9.2 43.87 0 8.34-5.82 6.66-7-2.03-5.02-36.57-49.03-42.08-66.33-8.29-4.5 9.68-5.35 21.63-2.99 34.96 8.37 47.17 67.82 92.73 86.46 142.22 35-71.73 65.72-82.87 81.65-141.26 12.82-44.88-30.86-78.26-62.54-49.18-5.78 5.32-11.12 15.24-11.74 21.78-1.3 10.51-5.98 8.94-6.43.27-.16-9.12 3.75-26.64 9.27-42.25 2.95-8.23 7.33-18.37 13.25-26.89zm-207.99 2.7-1.32 10.12 13.58 2.89 1.83-9.4zm-96.15 11.67c45.1-.06 86.21 7.71 120.84 20.87 0 0-4.5 9.68-6.08 10.72-24.84-9.91-67.18-19.13-95.79-19.63-10.48-.39-12.8-.67-16.67-2-21.8-7.18-41.05-10.28-58.8.32l-7.26-5.13a408 408 0 0 1 63.76-5.15m493.24 37.72s2.56 3.44 4.13 5.33c6.98 8.41 11.25 23.47 6.66 23.47-1.15 0-1.7-1.06-3.4-2.69-6.25-9.24-18.76-6.01-23.6.82-4.97 7.03-5.51 18.4-1.66 26.73 12.52 25.83 36.54 55.31 36.1 58.69 12.84-28.66 23.37-36.73 32.88-57.71 3.41-10.39 3.45-16.46.8-24.44-3.61-10.9-21.17-15.87-27.38-4.51-2.06 3.46-3.68 4.46-5.07 3.06-2.85-2.84 2.08-18.4 7.85-24.78a51 51 0 0 0 2.93-3.97zm-683.75 20.1c10.32.12 15.23 15.94 4.34 22.58-2.93 1.65-6.77 1.44-9.86.04a11.76 11.76 0 0 1 .8-21.64 12 12 0 0 1 4.72-.98m337.13.52c3.7 2.26 17.33 8.29 17.33 8.29l-95.8 173.18-23.17.18zm-308.97.41c5.74-.64 9.82 4.29 11.3 8.41 2.02 5.62-1.6 15.6-11.72 15.02-11.61-.65-16.81-21.51.42-23.43m329.43 9c2.57 1.42 11.88 2.96 12.68 4.76.35.89-.36 2.66-.56 4.95-.5 5.5.88 11.6 4.2 16.49 5.47 7.58-.44 4.09-5.9 4.04-12.32-3.15-28 13.63-22.04 30.9 1.38 3.82 1.1 4.12-5.49 6.13-14.98 4.56-21.51 20.45-14.32 34.65 3.75 7.4 3.86 7.02-2.73 7.56-18.33 1.53-28.97 17.79-21.28 34.41 1.19 2.57.43 3.28-3.57 4.02-12.5 2.3-18.11 12.76-19.7 24.24l-16.54.16zm15.86 6.12 31.8 8.68c-13.2 44.89-15.02 97.05.86 157.38l-73.1.06c10.15-9.12 6.14-21.71-5.73-24.48 11.51-6.61 11.52-24.2-2.28-26.32-12.13-1.86-18.4 9.67-13.01 21.23l-5.18 1.41s-2.32-2.91-2.86-4.46c-4.57-13.35 5-26.59 21.34-26.55 10.07.03 12.16-2.82 6.6-9.02-9.96-11.06-6.83-26.63 6.17-32.74 5.98-2.82 9.5-.96 9.5-.96l.32 7.34s-2.43.23-4.32.54c-14.35 2.29-11.7 25.17 2.9 24.98 8.03-.12 13.77-6.2 13.77-14.95l.02-6.09c7.37 12.62 20.03 13.52 25.43 3.26 6.35-12.08-5.17-19.67-16.72-18.42 0 0 2.42-1.58 3.96-2.37 12.3-6.32 8.05-24.4-5.54-24.4-9.34 0-14.78 8.68-11.78 17.87.49 1.48 1.63 3.84 1.63 3.84l-5.56 1.41s-1.25-.96-1.82-1.84c-9.52-14.89 5.77-31.29 25.05-27.57 7.06 2.21 6.82-2.67 2.86-7.07-4.25-6.36-7.43-13.55-4.3-20.76m-359.35 6.49 16.7 29.42-18.7 33.87-18.54-31.73zm-1.64 15.31-11.58 15.95 11.34 18.31 10.76-18.53zm-.5 5.99 7.53 10.1-7.59 12.4-7.44-11.64zm344.9 31.77c3.5 0 6.37 2.85 6.37 6.36a6.37 6.37 0 0 1-12.73 0 6.36 6.36 0 0 1 6.36-6.36m346.84 34.99c-4.89.12-10.17 1.55-15.67 4.39-5.92 3.06-5.92 3.05-8.23 1.52-5.64-3.73-7.37-4.61-13.73-4.61-3.94 0-6.67.22-6.67.22l.54 15.23c13.68-.37 17.44 4.28 14.57 12.52-2.98 3.74-2.3 57.47-1.37 78.2-.22 10.18 4.3 19.87 10.56 25.74 9.77 8.67 27.08 8.02 37.13.79 6.7-4.83 9.9-12.92 11.33-21.12.68-16.86.3-33.76.3-50.63l10.83.12-.12-15.27-10.58-.62s.11.44-.34-10.87c.74-23.68-11.41-34.97-27.59-35.61zm-.87 15.35c8.94.68 12.56 4.22 14.62 11.84 1.47 5.43 2.03 11.85.8 13.87-2 3.28-9.73-2.44-19.84-14.78-3.41-4.15-4.92-6.29-4.92-6.29 1.95-3.49 6.1-4.89 9.34-4.64m-16.22 20.5c9.27 7.98 10.59 16.08 32.48 23.77 0 0 .63-.85.25 25.85-.4 29.46-2.16 35.48-11.06 37.93-7.7 2.11-14.95-1.46-18.15-8.93-3.27-7.65-4.06-25.66-3.94-59.91.04-12.44.42-18.71.42-18.71m-374.68 8.91a6.58 6.58 0 1 1 .01 13.17 6.58 6.58 0 0 1-.01-13.17m-9.97 4.48c-.6.25.02 5.97 1.46 8.34-9.5.58-12.01 7.84-12.93 13.97l-8.5-.02c1.41-20.74 19.37-21.2 19.97-22.29"/></g></svg>