<svg clip-rule="evenodd" fill-rule="evenodd" stroke-linejoin="round" stroke-miterlimit="2" viewBox="0 0 934 1300" xmlns="http://www.w3.org/2000/svg"><g fill-rule="nonzero"><path d="m407.3 62.768c0-1.621 8.644-2.702 20.529-2.702 19.718.271 20.259.271 12.695 4.592-7.293 3.782-7.833 5.133-7.833 24.041 0 18.368.27 19.448 5.132 17.017 2.971-1.621 13.506-12.425 23.5-24.04 17.018-19.719 18.908-21.339 29.443-21.339 11.075 0 11.345 0 4.052 3.511-4.322 1.891-16.748 11.885-27.822 22.15l-19.989 18.908 27.282 24.31c14.856 13.506 28.362 24.311 29.713 24.311 1.35 0 2.431 1.35 2.431 2.971s-4.052 2.701-9.184 2.701c-7.564 0-13.776-4.052-34.035-22.69-13.776-12.425-26.201-22.689-27.822-22.689-1.891 0-2.431 6.482-1.08 17.827 2.161 23.5 2.701 24.851 10.264 25.391 3.512.27-2.431 1.081-13.236 2.161-20.799 1.621-30.793.27-18.368-2.701 7.023-1.621 7.023-1.891 7.834-37.006 1.08-43.489-.54-53.753-8.104-53.753-2.971 0-5.402-1.351-5.402-2.971zm155.587 8.103-6.753-5.672 7.023 1.62c3.782 1.081 19.989 4.322 35.385 7.834 15.667 3.241 29.443 6.753 30.523 7.833 1.351 1.081.541 6.483-1.35 11.885l-3.242 9.724-1.62-8.373c-1.621-8.374-9.184-12.426-30.523-16.747-8.914-1.621-8.914-1.621-12.426 14.586-1.62 8.644-3.781 17.557-4.592 19.448-.81 1.891 4.322 4.322 13.236 6.213 19.178 4.322 19.178 4.322 21.069-2.971.81-3.512 2.161-5.673 3.241-4.592 2.161 2.161-4.862 30.523-7.833 30.523-1.351 0-1.891-2.431-.81-5.403 2.161-6.482-4.052-10.534-20.529-12.965l-11.075-1.891-3.782 17.017c-1.89 9.454-2.971 19.179-2.16 21.34 2.431 5.942 34.845 12.155 40.517 7.563 2.161-1.891 4.322-5.403 4.322-7.563 0-1.891 1.35-3.782 2.971-3.782 1.891 0 2.431 2.161 1.351 4.592-.811 2.431-2.431 7.563-3.242 11.345-1.08 3.781-2.431 6.753-3.241 6.753s-16.477-3.512-34.575-7.564c-32.144-7.293-44.839-12.425-31.874-12.425 7.834 0 9.724-4.862 19.449-48.891l7.563-33.764zm-267.145 11.885c15.937-4.862 36.196-3.241 46.46 3.512 18.098 12.155 27.552 42.408 19.448 63.747-9.994 26.201-49.701 42.949-72.931 30.793-24.581-12.695-36.195-47-24.31-71.58 5.132-10.805 19.178-22.69 31.333-26.472zm32.414 9.454c-23.5-15.937-56.994 1.621-56.994 29.713 0 15.127 8.373 34.035 19.988 44.299 9.454 8.644 12.966 9.994 25.391 9.994 12.155 0 15.667-1.35 24.851-9.454 9.724-9.184 10.534-10.804 10.264-26.471 0-19.719-9.184-38.357-23.5-48.081zm363.306 14.316c-9.454-7.293-.27-3.781 27.822 10.265 31.604 15.937 37.006 22.419 30.793 37.816-4.051 9.724-19.178 17.017-29.442 14.316-4.052-.81-7.023-.54-7.023 1.081 0 7.023 9.184 50.511 11.615 55.103 3.241 6.213.81 6.213-8.914 1.081-6.213-3.512-7.834-7.834-12.966-35.385-3.241-17.288-5.132-31.604-4.051-31.604 1.08 0 5.942 1.621 11.074 3.241 7.293 2.702 10.265 2.161 15.937-1.62 10.265-6.483 14.316-16.747 10.535-25.121-3.242-7.293-21.61-17.558-26.472-14.586-1.62 1.08-11.345 18.638-21.339 39.167l-18.368 37.005 6.483 5.133c9.724 7.563 4.322 6.212-14.856-3.512-17.828-8.914-21.61-12.425-9.995-9.454 6.483 1.621 8.104-.81 25.661-35.385 10.265-20.529 18.638-38.627 18.638-40.518 0-1.62-2.431-4.862-5.132-7.023zm-511.059 27.822c19.178-11.615 23.77-12.695 15.666-3.511-4.862 5.132-4.052 6.753 16.477 44.569 11.615 21.609 22.15 42.678 23.23 47 3.512 14.857-8.914 38.357-16.477 31.064-2.431-2.702-1.891-4.592 2.972-7.834 3.511-2.431 6.212-6.483 6.212-8.914 0-4.592-35.655-71.58-45.92-86.707-4.321-6.213-7.023-7.293-13.235-5.942-4.592.81-.54-2.702 11.075-9.725zm173.414 106.156c23.5-11.885 50.512 4.862 50.512 31.604 0 16.747-8.104 27.551-24.041 33.224-9.724 3.241-11.885 5.402-14.046 14.586-2.971 12.966 1.891 41.868 9.995 59.426 10.804 22.689 42.678 52.942 50.782 48.08 1.62-1.08 9.183-11.074 17.017-22.689 35.655-52.673 89.948-81.035 155.857-80.765 45.92 0 81.845 10.805 114.799 34.845 10.535 7.833 15.127 9.454 18.908 7.293 7.293-3.782 21.61-3.241 30.523 1.621 24.041 12.425 23.23 50.782-1.35 62.396-11.615 5.403-19.178 5.403-31.064-.27-10.264-4.862-16.206-12.425-19.178-24.31-2.431-9.724-8.914-11.615-29.442-8.374-33.225 5.403-63.208 26.202-78.604 54.294-8.374 15.666-7.293 19.718 5.402 19.718 3.241 0 15.667 3.512 27.822 7.563 45.38 15.127 88.868 53.213 109.937 95.892 11.075 22.419 19.719 50.511 19.719 63.207 0 4.592 3.241 7.833 11.345 12.155 14.586 7.563 21.069 19.718 18.908 36.466-1.621 15.396-12.966 27.281-28.633 30.253-19.988 3.781-41.327-15.397-41.327-37.276 0-12.696-11.075-16.748-46.73-16.748-34.845 0-54.294 7.294-64.558 23.771-3.512 5.672-11.885 17.017-18.368 25.12-6.753 8.104-12.155 15.397-12.155 16.207 0 .541 9.184 2.702 20.529 4.322 47.54 7.564 76.983 21.339 100.213 46.19 15.396 16.747 26.741 41.868 22.96 51.592-2.432 6.213-12.426 5.673-15.937-1.08-2.701-4.862-24.851-19.989-29.443-19.989-.81 0 2.701 9.184 8.104 20.529 5.402 11.345 11.344 28.362 12.965 37.546 3.512 18.368 1.351 51.322-3.511 57.265-5.133 6.213-10.805 4.322-13.776-4.052-6.213-17.017-25.121-43.218-31.604-43.218-1.08 0 1.351 9.183 5.132 20.528 12.696 37.006 8.104 87.788-10.534 118.044-8.914 14.58-15.127 11.07-17.288-9.73-2.161-19.175-7.833-34.572-16.477-45.647l-5.672-7.023-1.621 7.834c-7.833 34.845-17.557 55.376-34.845 75.096-14.856 16.74-32.414 28.9-38.356 26.47-6.213-2.43-5.943-6.49.81-21.34 3.512-7.83 5.672-18.64 5.672-28.9l.271-16.481-15.937 16.751c-27.552 29.98-57.805 44.84-97.512 47.81-36.466 2.7-83.736-12.16-81.845-25.4.81-5.4 3.241-6.48 17.827-7.83 14.857-1.62 35.656-8.91 35.656-12.69 0-.54-3.782-.54-8.374.54-4.322.81-17.558 0-28.902-1.62-30.524-4.6-62.127-20.803-82.926-42.412-8.914-9.454-15.937-19.178-15.937-21.609 0-7.023 7.293-8.104 19.719-3.242 15.666 6.213 56.724 5.673 56.724-.81 0-.81-5.943-4.862-13.506-8.914-29.443-15.397-65.908-62.937-65.908-86.167 0-9.724 7.293-12.425 15.126-5.132 6.753 6.212 18.908 12.965 18.908 10.804 0-.81-3.781-7.563-8.643-15.126-12.966-20.529-19.719-45.38-19.719-74.282 0-24.04 2.431-31.333 10.265-31.333 1.89 0 5.942 4.321 9.184 9.724 2.971 5.402 10.804 13.235 17.287 17.557 15.667 10.265 38.627 10.535 60.236.27 28.902-13.505 28.632-12.155 6.483-39.166l-19.179-23.771-28.902-6.212c-51.592-10.805-86.977-29.443-117.5-61.857-27.012-28.902-45.38-74.012-45.65-111.288 0-10.534-1.081-12.695-8.374-16.477-11.885-5.942-18.097-19.178-16.477-34.575 1.621-14.316 8.104-22.689 21.61-28.362 16.747-7.023 36.195.54 44.028 17.558 6.483 13.235 5.673 21.609-2.431 33.764-5.402 7.834-6.482 11.885-4.592 15.667 5.133 9.184 26.472 26.471 42.409 34.035 13.776 6.212 19.718 7.293 42.948 7.293 14.857 0 30.523-1.621 34.845-3.512l7.563-3.241-8.103-14.046c-4.592-7.834-11.885-23.5-16.207-34.845-7.563-19.449-8.104-23.5-8.104-63.478.271-38.896.811-44.299 7.834-63.477 8.914-24.58 18.638-42.138 32.954-59.966 9.994-11.885 10.264-13.235 7.023-22.689-5.943-16.748 1.351-35.926 16.477-43.489zm411.927 153.966c-2.971-5.132-9.724-2.431-9.724 3.782 0 4.862-.81 5.402-3.512 2.701-4.592-4.592-10.534-4.322-10.534.81 0 2.431 2.431 4.322 6.213 4.322 5.672 0 5.942.27.81 3.782-2.701 2.161-4.322 5.402-3.241 7.023 3.241 5.132 7.293 4.052 10.264-2.971 1.35-3.512 2.431-4.863 2.701-2.972.27 4.322 11.615 4.862 11.615.811 0-1.621-2.701-4.052-5.942-5.133-5.403-2.161-5.673-2.701-1.621-5.942 2.431-2.161 3.781-4.862 2.971-6.213zm-253.369 472.433c-8.373-12.425-16.477-23.77-17.827-25.391-5.403-5.942-1.621 12.156 8.913 43.489 8.374 25.121 10.805 35.385 9.184 41.598-2.161 8.103-2.431 8.103-5.942-4.862-2.161-7.293-11.885-27.822-21.88-45.38l-18.097-32.144v27.012c0 33.224-3.782 47-15.397 58.075l-9.184 8.644 5.402 8.373c6.213 10.265 4.862 18.098-5.672 34.035l-7.293 11.345 16.747-15.127c19.989-17.827 47.54-36.735 57.265-39.166 9.184-2.161 19.988 5.942 28.902 21.879l7.023 12.695 2.161-18.097c1.08-9.995 4.052-21.069 6.483-24.851 4.592-7.023 4.322-7.563-10.535-23.23-8.103-9.184-21.879-26.471-30.253-38.897zm269.306-187.19c0-2.161-2.161-4.322-4.322-4.322-2.431 0-4.322 2.701-4.322 6.213 0 5.672-.27 5.942-5.132 1.35-5.402-4.862-8.914-3.511-8.914 2.971 0 2.161 1.891 3.782 4.592 3.782 3.782 0 3.782.81.811 4.322-1.891 2.431-2.702 5.132-1.891 5.942 2.701 2.702 11.074-1.35 9.184-4.591-1.081-1.621-.541-2.972 1.08-2.972s3.242 1.351 3.242 2.972c0 3.781 7.563 3.511 9.994-.271 1.08-1.62-.811-3.781-4.052-4.592-6.213-1.35-8.374-6.482-3.241-6.482 1.62 0 2.971-1.891 2.971-4.322zm-619.376-223.926c-1.891-5.133-6.483-5.673-9.184-1.081-1.081 1.891.27 5.132 3.241 7.023 4.592 3.512 4.592 3.782.27 3.782-2.701 0-4.592 1.891-4.592 4.322 0 7.023 5.133 7.563 8.644 1.08l3.512-6.483 2.16 6.213c2.702 7.023 6.753 8.103 9.995 2.971 1.08-1.621 0-4.592-2.431-6.483-4.052-2.971-4.052-3.511.27-6.482 4.052-2.702 4.052-3.512.54-6.213-3.241-2.161-5.132-1.621-7.563 1.351-2.971 3.781-3.512 3.781-4.862 0zm287.133 59.425c-25.931-13.506-66.178 5.943-76.443 37.006-4.051 12.966-2.431 34.035 3.782 46.46 4.592 9.454 4.592 9.454-3.782 17.287-10.534 9.995-16.747 24.581-16.747 39.167 0 12.966 9.454 29.173 36.466 61.587 10.534 12.425 26.741 32.954 36.465 45.649 18.638 24.851 34.845 39.977 45.38 42.679 14.046 3.511 37.816-14.587 56.184-43.219 5.132-7.833 20.259-27.012 33.765-42.408 39.166-45.11 46.73-62.127 37.276-84.276-2.161-5.133-7.834-13.236-12.696-18.098l-8.914-8.644 5.673-12.425c17.827-39.707-11.345-84.817-54.834-84.817-7.293 0-17.287 1.891-21.609 4.052-9.454 4.862-20.799 18.908-25.661 31.334l-3.242 8.373-3.511-8.373c-5.132-11.886-17.828-26.472-27.552-31.334zm-71.851-262.553c1.081-4.052.27-5.402-4.322-5.402-4.862 0-5.942 1.08-4.321 5.942 1.62 5.133 1.08 5.673-3.782 4.052-3.241-.81-6.753-.27-7.833 1.621-2.702 4.592 4.862 8.644 9.454 4.862 2.701-2.431 3.511-1.621 2.701 3.782-.27 4.321.81 6.753 3.781 6.753 2.161 0 4.052-2.161 3.782-4.592-.27-2.702 1.621-4.592 4.322-4.322 2.431.27 4.592-1.621 4.592-4.052 0-2.161-2.431-4.052-5.132-3.782-3.782.27-4.592-.81-3.242-4.862zm45.38 522.405c-6.483-7.293-11.885-7.023-37.006 1.35-14.046 4.862-23.23 6.213-31.334 5.133l-11.344-1.621 10.804 11.075c5.943 5.942 17.558 15.396 25.931 20.799 8.644 5.402 15.667 10.534 15.667 11.615.54 6.212-62.127 42.138-73.472 42.138-13.775.27 36.196 27.011 55.644 29.983 6.753 1.08 12.426 2.16 12.426 2.701 0 3.241-12.696 29.172-17.558 35.925-3.241 4.592-5.132 8.914-4.322 9.994.811.811 12.966 2.161 26.472 2.702 35.385 1.89 42.408-2.161 51.592-28.903 9.184-27.011 11.075-58.615 4.592-73.742l-5.132-11.344-3.512 19.178c-2.161 10.264-5.672 22.69-8.103 27.282-4.862 9.454-19.719 17.287-32.955 17.287h-9.454l6.213-6.483c3.512-3.511 9.454-14.586 13.236-24.58 4.052-9.995 10.534-22.96 14.316-28.903l7.023-10.804-6.213-.271c-3.781-.27-10.534 0-15.396.271-9.454.27-14.857-3.782-9.454-7.294 1.89-1.08 6.212-8.103 9.724-15.936 3.511-7.564 8.914-15.667 11.885-17.828 4.862-3.782 4.862-4.052-.27-9.724zm195.834-28.903c-11.345-7.023-11.885-6.753-15.667 2.431-4.592 10.805-15.396 16.748-40.247 22.15-21.609 4.322-32.144 9.724-19.448 9.724 9.994 0 17.287 5.943 32.684 25.931 9.184 12.155 11.615 17.018 7.833 15.937-2.971-.81-13.236-3.782-22.96-6.483-9.724-2.971-18.368-4.322-19.448-3.511-1.891 2.161 13.506 28.632 22.419 38.356 8.104 8.644 5.133 8.104-22.689-5.132-13.506-6.213-24.581-10.805-25.121-10.534-.27.54 7.833 12.155 17.827 26.201 10.265 14.046 22.42 33.494 27.012 43.218 7.023 14.587 9.454 17.828 15.397 17.828 3.781 0 11.885 2.431 18.097 5.672 5.943 3.242 11.615 5.673 12.426 5.673 6.753 0-5.673-47-16.477-63.207l-7.023-9.995 6.212-1.62c3.512-.811 13.506-1.621 22.42-1.621s16.477-1.351 16.477-2.971c0-1.351-7.833-8.644-17.017-16.207s-16.747-14.586-17.018-15.667c-.54-7.293 26.742-23.5 48.081-28.092l14.586-2.971-5.402-6.213c-2.971-3.241-9.724-12.155-14.586-19.718-5.132-7.564-13.236-16.207-18.368-19.179zm-262.553-449.473c0-3.511-5.672-.27-13.506 8.104-23.23 24.58-41.327 64.827-46.19 103.724-6.482 49.431 11.345 108.047 41.868 138.84 11.075 11.075 12.156 13.236 12.156 27.282 0 8.643 1.08 18.368 2.431 22.149 2.161 5.673.81 8.644-8.914 18.908l-11.345 12.155-5.943-5.942c-12.155-11.345-36.195-19.448-62.937-21.609-38.626-2.702-52.402-12.696-71.58-51.052-4.592-9.184-10.535-23.771-13.236-31.874-5.943-18.098-9.994-21.339-9.994-8.103-.27 62.396 54.293 125.063 130.466 150.454 11.615 3.782 26.471 7.834 32.954 8.914l11.615 1.891 1.08-19.989c1.081-17.287 2.431-22.149 10.535-33.494 8.103-11.615 8.914-14.046 6.213-21.609-4.052-11.345-3.782-34.305.27-48.081 4.592-14.857 22.149-34.305 38.086-42.138 15.667-7.563 41.328-8.374 53.753-1.891 4.592 2.431 12.155 8.374 16.747 12.966l8.104 8.643 12.425-10.804c25.121-22.15 60.236-20.799 87.518 2.971 20.258 17.828 28.902 48.621 21.069 76.443-2.431 9.184-1.891 11.885 7.293 26.741 5.402 9.184 9.994 19.449 9.994 23.23 0 7.563-.54 7.563 12.155 2.161 33.225-13.776 86.438-8.914 112.909 10.265 2.431 1.89 6.483 2.701 9.184 1.62 4.052-1.62 3.782-3.511-1.891-19.988-14.316-39.167-39.977-70.771-68.609-84.277-18.908-9.184-33.495-10.264-45.92-4.051-14.046 7.563-20.259 5.672-23.5-6.753-7.834-29.173-46.73-56.995-75.363-53.753l-8.643 1.08 8.103-16.477c5.943-11.885 8.914-22.69 10.265-38.897 2.701-32.143 14.856-45.919 48.08-55.644 20.259-5.942 65.638-4.051 100.754 4.322 14.586 3.512 26.471 5.132 27.822 3.512 3.781-3.512-31.334-21.069-62.938-31.604-65.908-22.149-126.954-11.615-167.742 29.173-23.77 24.04-42.138 65.098-42.138 95.351 0 7.833-.27 7.833-13.776 6.753-14.586-1.621-42.138 4.862-53.753 12.155-5.672 3.781-6.483 3.781-7.833-.81-4.592-14.317-12.966-29.173-19.719-33.765-26.201-18.638-31.063-29.443-30.523-69.42.27-26.201 6.213-48.621 20.799-75.902 6.213-11.345 11.345-21.34 11.345-21.88zm346.829 754.972c4.862-7.56 10.535-8.64 12.426-2.43.54 1.62-1.621 3.78-4.592 4.86-9.455 2.98-7.294 11.62 14.316 50.79 27.552 50.78 29.442 53.21 38.896 51.05 4.592-1.08.541 2.7-10.804 9.45-19.719 11.89-24.041 12.97-15.937 3.78 4.862-5.13 4.052-7.02-17.288-45.92-24.04-44.3-27.011-56.18-17.017-71.58zm-494.853 23.23c-3.241-6.21-1.62-6.48 8.914-1.08 6.753 3.78 8.374 6.76 9.995 19.18 1.08 8.37 3.511 22.42 5.672 31.33 3.782 17.29 3.512 18.1-8.914 13.51-16.207-6.21-33.224 9.18-27.822 24.58 1.621 4.32 7.293 9.99 13.776 13.24 10.805 5.67 11.075 5.67 15.127.27 6.753-9.19 34.845-66.18 34.845-71.04 0-2.71-2.431-6.49-5.133-8.65-6.212-5.13-3.241-4.32 17.288 4.59 16.207 7.3 21.609 12.97 9.184 9.73-6.753-1.62-8.104.81-26.201 36.73-18.909 37.82-18.909 38.63-13.776 44.3 2.701 3.24 4.321 5.68 3.241 5.68-6.213 0-58.885-29.18-61.316-34.04-8.104-15.13 5.942-32.41 25.931-32.41 5.942 0 11.075-.81 11.075-1.89 0-6.22-9.454-49.98-11.886-54.03zm393.29 45.38c8.103-3.78 15.666-5.13 27.551-4.32 14.046.81 17.828 2.43 26.202 10.54 19.988 19.44 24.31 52.13 9.184 71.85-15.397 20.25-53.754 28.36-72.932 15.66-18.368-12.42-27.822-42.41-19.718-64.01 4.322-11.08 16.477-23.23 29.713-29.72zm44.028 17.29c-11.074-12.43-22.419-16.75-35.655-13.78-28.092 5.95-37.276 33.77-21.339 64.83 11.615 22.69 30.523 30.26 52.132 20.53 26.742-11.88 29.173-44.84 4.862-71.58zm-324.409-12.16c.81-2.97 3.241-4.59 6.213-3.78 2.431.54 18.908 4.05 36.465 7.84 29.983 6.48 40.518 11.07 25.121 11.07-6.213 0-7.293 2.16-12.425 24.85-14.316 62.67-13.776 57.54-5.943 63.75 3.782 3.24 4.862 5.13 2.701 4.32-2.431-.81-18.367-4.05-35.655-7.83-17.017-3.51-32.144-7.3-33.224-8.11-1.351-1.08-.54-6.48 1.35-11.88l3.242-9.73 1.62 8.38c1.621 8.37 12.156 14.04 30.253 16.21 7.023.81 8.374-.28 11.075-10.27 8.104-28.09 8.644-26.2-7.293-29.71-18.908-4.05-18.908-4.05-20.799 3.24-.81 3.51-2.161 5.67-3.241 4.59-2.431-2.43 4.592-30.79 7.563-30.79 1.621 0 1.891 2.7 1.08 5.67-2.16 6.21 3.512 9.45 21.88 12.97l9.724 1.89 3.782-17.29c1.89-9.18 2.971-18.91 2.161-21.07-1.081-2.16-9.725-5.4-19.449-7.56l-17.557-3.78-7.023 8.37c-7.564 8.91-7.293 9.45-1.621-11.35zm179.627 15.13c10.265-.81 19.449-1.89 20.529-2.16.81-.27 2.431.54 3.512 2.16.81 1.35-1.351 2.97-4.863 3.51-6.212.81-6.482 1.89-7.293 39.17-.81 44.3.27 51.05 8.104 51.05 2.971 0 5.672 1.35 5.672 2.7 0 1.62-8.643 2.97-19.988 2.97-21.069 0-24.041-1.35-12.696-5.67 6.483-2.43 7.023-4.05 7.023-22.69 0-10.8-1.08-19.99-2.701-19.99-2.971 0-42.678 42.68-42.678 45.92 0 1.35-5.943 2.43-13.506 2.16h-13.506l9.184-3.51c4.862-1.89 17.828-11.88 28.902-22.15l19.719-19.18-27.012-24.31c-14.856-13.23-28.362-24.31-29.712-24.31-1.351 0-2.431-1.08-2.431-2.7s4.051-2.7 9.183-2.7c7.564 0 13.776 4.05 34.035 22.69 13.776 12.43 26.201 22.42 27.822 22.42s1.891-7.02 1.081-17.56c-2.161-23.5-2.702-24.85-10.265-25.39-3.511-.27 1.621-1.35 11.885-2.43z"/><path d="m393.524 538.442c-9.454 4.592-21.609 17.558-18.908 20.259.81.81 4.862-1.621 9.184-5.673 10.805-10.264 18.638-13.776 30.523-13.776 12.425 0 24.31 5.943 32.414 16.207 7.563 9.725 11.615 6.213 4.052-3.781-12.426-16.747-38.087-22.69-57.265-13.236zm131.277.54c-11.075 6.753-19.719 17.018-17.288 19.449 1.351 1.35 3.241 0 4.862-2.431 4.862-8.644 21.069-16.748 34.305-16.748 12.966 0 21.609 4.592 32.684 17.018 4.592 5.402 6.213 5.942 6.483 2.701 0-4.862-11.885-17.017-21.88-22.15-9.454-4.862-29.442-3.781-39.166 2.161z"/><path d="m402.978 561.942c-3.241 1.351-8.914 5.673-12.695 9.994l-7.293 7.564 10.534-1.891c9.184-1.621 10.535-1.351 11.345 4.592 1.351 9.994 9.184 13.236 16.207 7.023 5.672-5.132 6.213-5.132 11.885 0l6.213 5.402-2.161-9.994c-3.512-17.288-20.529-28.632-34.035-22.69zm135.598 0c-3.241 1.351-8.103 5.402-10.534 9.184-5.402 7.563-6.483 22.42-1.351 17.288 2.161-2.432 4.592-2.432 8.104-.271 6.483 4.052 14.316.811 16.207-6.482 1.35-5.133 3.241-5.943 12.425-4.592 9.724 1.35 10.805 1.08 8.374-3.512-2.701-4.862-19.449-14.586-24.581-14.046-1.35 0-5.132 1.081-8.644 2.431zm-64.017 14.586c-2.161 5.133-7.023 18.638-10.535 29.443-3.781 11.075-9.724 24.581-13.776 30.523-9.454 14.586-7.023 21.609 12.156 34.845 13.776 9.454 16.477 10.265 22.689 7.563 9.455-4.321 29.983-22.959 29.983-27.551 0-1.891-3.511-8.104-7.293-14.046-4.052-5.943-11.345-22.42-15.937-36.736-11.885-35.385-12.425-35.926-17.287-24.041zm54.563 19.989c0 14.316 14.046 27.822 28.903 27.822 5.942 0 5.942 0-1.081-7.563-4.051-4.322-8.103-10.535-9.184-13.776-.81-2.971-5.402-7.023-9.994-8.914-7.833-2.701-8.644-2.701-8.644 2.431z"/><path d="m414.863 595.437c-5.402.81-7.563 2.701-7.563 6.752 0 3.242-3.782 9.455-8.374 14.046l-8.373 8.104h6.753c11.074 0 20.799-5.672 25.391-15.667 4.592-9.994 5.672-15.666 2.161-14.856-1.081 0-5.673.81-9.995 1.621zm-37.006 54.563c-11.074 3.512-15.936 8.103-15.936 15.397 0 9.994 9.454 16.747 26.741 18.097l15.397 1.081 7.293 15.396c8.103 16.207 25.121 32.144 42.138 39.437 14.046 5.673 37.546 5.133 52.132-1.35 15.937-7.293 33.765-26.472 39.437-42.408l4.862-12.966 12.426.81c32.954 2.702 45.919-23.77 16.207-33.494-25.391-8.374-53.753 9.724-39.437 25.661 4.051 4.322 3.511 5.402-5.133 12.155-18.908 14.046-33.764 20.259-53.753 21.339-16.747.811-21.069 0-36.735-7.563-9.995-4.862-21.069-11.345-24.581-14.586-6.483-5.402-6.483-6.213-2.161-11.075 10.805-12.155 1.081-25.391-19.988-27.552-5.943-.54-14.587 0-18.909 1.621zm65.368 58.885c29.713 13.506 67.8 7.564 90.759-14.316 5.133-4.862 9.455-7.833 9.455-6.753 0 5.132-9.184 18.368-19.179 27.822-21.879 20.799-45.109 26.742-66.988 17.018-15.127-6.483-39.978-28.903-46.46-41.328l-4.592-8.644 11.074 9.724c5.943 5.132 17.558 12.696 25.931 16.477z"/></g></svg>