<svg xmlns="http://www.w3.org/2000/svg" fill-rule="evenodd" stroke-linejoin="round" stroke-miterlimit="2" clip-rule="evenodd" viewBox="0 0 934 1300"><g fill-rule="nonzero"><path d="M407.3 62.77c0-1.62 8.64-2.7 20.53-2.7 19.72.27 20.26.27 12.7 4.59-7.3 3.78-7.84 5.13-7.84 24.04 0 18.37.27 19.45 5.13 17.02 2.97-1.63 13.5-12.43 23.5-24.04 17.02-19.72 18.91-21.34 29.45-21.34 11.07 0 11.34 0 4.05 3.5-4.32 1.9-16.75 11.9-27.82 22.16l-20 18.9 27.29 24.32c14.85 13.5 28.36 24.3 29.71 24.3s2.43 1.36 2.43 2.98-4.05 2.7-9.18 2.7c-7.57 0-13.78-4.05-34.04-22.7-13.77-12.42-26.2-22.68-27.82-22.68-1.89 0-2.43 6.48-1.08 17.83 2.16 23.5 2.7 24.85 10.27 25.39 3.5.27-2.44 1.08-13.24 2.16-20.8 1.62-30.8.27-18.37-2.7 7.02-1.62 7.02-1.9 7.84-37 1.08-43.5-.54-53.76-8.1-53.76-2.98 0-5.41-1.35-5.41-2.97m155.59 8.1-6.76-5.67 7.03 1.62c3.78 1.08 19.99 4.32 35.38 7.83 15.67 3.24 29.44 6.76 30.52 7.84 1.36 1.08.55 6.48-1.35 11.88l-3.24 9.72-1.62-8.37c-1.62-8.37-9.18-12.42-30.52-16.75-8.91-1.62-8.91-1.62-12.43 14.6-1.62 8.64-3.78 17.55-4.59 19.44s4.32 4.32 13.24 6.21c19.18 4.32 19.18 4.32 21.07-2.97.8-3.51 2.16-5.67 3.24-4.6 2.16 2.17-4.86 30.53-7.84 30.53-1.35 0-1.89-2.43-.8-5.4 2.16-6.48-4.06-10.54-20.53-12.97l-11.08-1.89-3.78 17.02c-1.9 9.45-2.97 19.18-2.16 21.34 2.43 5.94 34.84 12.16 40.52 7.56 2.16-1.89 4.32-5.4 4.32-7.56 0-1.9 1.35-3.78 2.97-3.78 1.89 0 2.43 2.16 1.35 4.59-.81 2.43-2.43 7.56-3.24 11.35-1.08 3.78-2.43 6.75-3.24 6.75s-16.48-3.51-34.58-7.57c-32.14-7.29-44.84-12.42-31.87-12.42 7.83 0 9.72-4.86 19.45-48.9l7.56-33.76zM295.74 82.76c15.94-4.87 36.2-3.25 46.46 3.5 18.1 12.16 27.55 42.42 19.45 63.76-10 26.2-49.7 42.94-72.93 30.79-24.58-12.7-36.2-47-24.31-71.58 5.13-10.8 19.18-22.7 31.33-26.47m32.42 9.45c-23.5-15.94-57 1.62-57 29.71 0 15.13 8.37 34.04 19.99 44.3 9.45 8.65 12.97 10 25.4 10 12.15 0 15.66-1.35 24.84-9.46 9.73-9.18 10.54-10.8 10.27-26.47 0-19.72-9.19-38.36-23.5-48.08m363.3 14.32c-9.45-7.3-.27-3.79 27.82 10.26 31.6 15.94 37.01 22.42 30.8 37.82-4.05 9.72-19.18 17.01-29.45 14.31-4.05-.8-7.02-.54-7.02 1.08 0 7.03 9.19 50.51 11.62 55.1 3.24 6.22.8 6.22-8.92 1.09-6.21-3.51-7.83-7.84-12.96-35.39-3.24-17.29-5.14-31.6-4.05-31.6s5.94 1.62 11.07 3.24c7.3 2.7 10.26 2.16 15.94-1.62 10.26-6.48 14.31-16.75 10.53-25.12-3.24-7.3-21.6-17.56-26.47-14.59-1.62 1.08-11.35 18.64-21.34 39.17l-18.37 37 6.49 5.14c9.72 7.56 4.32 6.21-14.86-3.51-17.83-8.92-21.61-12.43-10-9.46 6.49 1.62 8.1-.8 25.67-35.38 10.26-20.53 18.63-38.63 18.63-40.52 0-1.62-2.43-4.86-5.13-7.02M180.4 134.35c19.18-11.62 23.77-12.7 15.67-3.51-4.86 5.13-4.05 6.75 16.48 44.57 11.61 21.6 22.15 42.67 23.23 47 3.5 14.85-8.92 38.35-16.48 31.06-2.43-2.7-1.9-4.6 2.97-7.83 3.51-2.43 6.21-6.49 6.21-8.92 0-4.59-35.65-71.58-45.92-86.7-4.32-6.22-7.02-7.3-13.23-5.95-4.6.81-.54-2.7 11.07-9.72M353.82 240.5c23.5-11.88 50.5 4.87 50.5 31.6 0 16.76-8.1 27.56-24.03 33.23-9.73 3.24-11.89 5.4-14.05 14.59-2.97 12.96 1.9 41.87 10 59.42 10.8 22.7 42.67 52.95 50.78 48.08 1.62-1.08 9.18-11.07 17.02-22.68 35.65-52.68 89.94-81.04 155.85-80.77 45.92 0 81.85 10.8 114.8 34.85 10.54 7.83 15.13 9.45 18.91 7.29 7.3-3.78 21.61-3.24 30.52 1.62 24.04 12.42 23.23 50.78-1.35 62.4-11.61 5.4-19.18 5.4-31.06-.27-10.27-4.87-16.2-12.43-19.18-24.31-2.43-9.73-8.91-11.62-29.44-8.38-33.23 5.4-63.2 26.2-78.6 54.3-8.38 15.66-7.3 19.71 5.4 19.71 3.24 0 15.66 3.52 27.82 7.57 45.38 15.12 88.87 53.2 109.94 95.89 11.07 22.42 19.71 50.5 19.71 63.2 0 4.6 3.25 7.84 11.35 12.16 14.59 7.56 21.07 19.72 18.9 36.47-1.61 15.4-12.96 27.28-28.62 30.25-20 3.78-41.33-15.4-41.33-37.28 0-12.7-11.08-16.74-46.73-16.74-34.85 0-54.3 7.29-64.56 23.77-3.51 5.67-11.88 17.01-18.37 25.12-6.75 8.1-12.15 15.4-12.15 16.2 0 .54 9.18 2.7 20.53 4.33 47.54 7.56 76.98 21.33 100.2 46.19 15.4 16.74 26.75 41.86 22.97 51.59-2.43 6.21-12.43 5.67-15.94-1.08-2.7-4.87-24.85-20-29.44-20-.81 0 2.7 9.2 8.1 20.54s11.35 28.36 12.97 37.54c3.51 18.37 1.35 51.33-3.51 57.27-5.14 6.21-10.8 4.32-13.78-4.05-6.21-17.02-25.12-43.22-31.6-43.22-1.08 0 1.35 9.18 5.13 20.53 12.7 37 8.1 87.78-10.53 118.04-8.92 14.58-15.13 11.07-17.3-9.73-2.15-19.17-7.83-34.57-16.47-45.65l-5.67-7.02-1.62 7.83c-7.84 34.85-17.56 55.38-34.85 75.1-14.85 16.74-32.41 28.9-38.35 26.47-6.22-2.43-5.95-6.49.8-21.34 3.52-7.83 5.68-18.64 5.68-28.9l.27-16.48-15.94 16.75c-27.55 29.98-57.8 44.84-97.51 47.81-36.47 2.7-83.74-12.16-81.85-25.4.81-5.4 3.25-6.48 17.83-7.83 14.86-1.62 35.66-8.91 35.66-12.69 0-.54-3.78-.54-8.38.54-4.32.81-17.55 0-28.9-1.62-30.52-4.6-62.13-20.8-82.92-42.41-8.92-9.46-15.94-19.18-15.94-21.61 0-7.02 7.3-8.1 19.72-3.24 15.66 6.21 56.72 5.67 56.72-.81 0-.81-5.94-4.86-13.5-8.92-29.45-15.4-65.91-62.93-65.91-86.16 0-9.73 7.3-12.43 15.12-5.14 6.76 6.22 18.91 12.97 18.91 10.8 0-.8-3.78-7.55-8.64-15.12-12.97-20.53-19.72-45.38-19.72-74.28 0-24.04 2.43-31.33 10.26-31.33 1.9 0 5.95 4.32 9.19 9.72 2.97 5.4 10.8 13.24 17.29 17.56 15.66 10.26 38.62 10.53 60.23.27 28.9-13.5 28.63-12.16 6.48-39.17l-19.17-23.77-28.9-6.21c-51.6-10.8-86.98-29.44-117.5-61.86-27.02-28.9-45.39-74.01-45.66-111.29 0-10.53-1.08-12.7-8.37-16.47-11.89-5.94-18.1-19.18-16.48-34.58 1.62-14.31 8.1-22.69 21.61-28.36 16.75-7.02 36.2.54 44.03 17.56 6.48 13.23 5.67 21.6-2.43 33.76-5.4 7.84-6.48 11.89-4.6 15.67 5.14 9.18 26.48 26.47 42.42 34.03 13.77 6.22 19.71 7.3 42.94 7.3 14.86 0 30.53-1.62 34.85-3.51l7.56-3.25-8.1-14.04c-4.6-7.84-11.89-23.5-16.2-34.85-7.57-19.45-8.11-23.5-8.11-63.47.27-38.9.81-44.3 7.83-63.48 8.92-24.58 18.64-42.14 32.96-59.97 10-11.88 10.26-13.23 7.02-22.69-5.94-16.74 1.35-35.92 16.48-43.49m411.92 153.97c-2.97-5.13-9.72-2.43-9.72 3.78 0 4.86-.81 5.4-3.51 2.7-4.6-4.59-10.54-4.32-10.54.81 0 2.43 2.44 4.33 6.22 4.33 5.67 0 5.94.27.8 3.78-2.7 2.16-4.32 5.4-3.23 7.02 3.24 5.13 7.29 4.05 10.26-2.97 1.35-3.51 2.43-4.86 2.7-2.97.27 4.32 11.62 4.86 11.62.8 0-1.61-2.7-4.04-5.95-5.12-5.4-2.17-5.67-2.7-1.62-5.95 2.43-2.16 3.78-4.86 2.97-6.21M512.38 866.9c-8.38-12.42-16.48-23.77-17.83-25.39-5.4-5.94-1.62 12.16 8.91 43.5 8.38 25.11 10.8 35.38 9.19 41.59-2.17 8.1-2.44 8.1-5.95-4.86-2.16-7.3-11.88-27.82-21.88-45.38l-18.1-32.15v27.02c0 33.22-3.78 47-15.4 58.07l-9.17 8.64 5.4 8.38c6.21 10.26 4.86 18.1-5.68 34.03l-7.29 11.35 16.75-15.13c19.99-17.83 47.54-36.73 57.26-39.17 9.19-2.16 20 5.95 28.9 21.88l7.03 12.7 2.16-18.1c1.08-10 4.05-21.07 6.48-24.85 4.6-7.02 4.32-7.56-10.53-23.23-8.1-9.18-21.88-26.47-30.26-38.9m269.31-187.19a4.65 4.65 0 0 0-4.32-4.32c-2.43 0-4.32 2.7-4.32 6.21 0 5.68-.27 5.95-5.14 1.35-5.4-4.86-8.9-3.5-8.9 2.98 0 2.16 1.88 3.78 4.58 3.78 3.78 0 3.78.8.81 4.32-1.89 2.43-2.7 5.13-1.89 5.94 2.7 2.7 11.08-1.35 9.19-4.59-1.08-1.62-.54-2.97 1.08-2.97s3.24 1.35 3.24 2.97c0 3.78 7.56 3.51 10-.27 1.07-1.62-.82-3.78-4.06-4.6-6.21-1.34-8.37-6.47-3.24-6.47 1.62 0 2.97-1.9 2.97-4.33M162.31 455.8c-1.9-5.14-6.49-5.68-9.19-1.08-1.08 1.89.27 5.13 3.24 7.02 4.6 3.51 4.6 3.78.27 3.78-2.7 0-4.59 1.9-4.59 4.32 0 7.03 5.13 7.57 8.64 1.08l3.52-6.48 2.16 6.21c2.7 7.03 6.75 8.1 10 2.97 1.07-1.62 0-4.59-2.44-6.48-4.05-2.97-4.05-3.51.27-6.48 4.05-2.7 4.05-3.51.54-6.21-3.24-2.17-5.13-1.63-7.56 1.35-2.97 3.78-3.52 3.78-4.87 0m287.14 59.42c-25.93-13.5-66.18 5.94-76.45 37-4.05 12.97-2.43 34.04 3.79 46.47 4.59 9.45 4.59 9.45-3.78 17.28a54.8 54.8 0 0 0-16.75 39.17c0 12.97 9.45 29.17 36.46 61.59 10.54 12.42 26.75 32.95 36.47 45.65 18.64 24.85 34.84 39.97 45.38 42.68 14.04 3.5 37.81-14.59 56.18-43.22 5.13-7.84 20.26-27.01 33.77-42.41 39.16-45.11 46.73-62.13 37.27-84.28-2.16-5.13-7.83-13.23-12.7-18.1l-8.9-8.64 5.67-12.42c17.82-39.71-11.35-84.82-54.84-84.82-7.29 0-17.28 1.9-21.6 4.05-9.46 4.86-20.8 18.91-25.67 31.34l-3.24 8.37-3.51-8.37c-5.13-11.89-17.83-26.48-27.55-31.34m-71.85-262.55c1.08-4.05.27-5.4-4.33-5.4-4.86 0-5.94 1.08-4.32 5.94 1.62 5.13 1.08 5.67-3.78 4.05-3.24-.8-6.75-.27-7.83 1.62-2.7 4.6 4.86 8.65 9.45 4.86 2.7-2.43 3.51-1.62 2.7 3.79-.27 4.32.81 6.75 3.78 6.75 2.17 0 4.06-2.16 3.79-4.6-.27-2.7 1.62-4.58 4.32-4.31a4.12 4.12 0 0 0 4.6-4.06c0-2.16-2.44-4.05-5.14-3.78-3.78.27-4.6-.8-3.24-4.86m45.38 522.4c-6.49-7.29-11.89-7.02-37 1.35-14.06 4.87-23.24 6.22-31.34 5.14l-11.35-1.62 10.8 11.07c5.95 5.94 17.56 15.4 25.94 20.8 8.64 5.4 15.66 10.53 15.66 11.62.54 6.2-62.12 42.13-73.47 42.13-13.77.27 36.2 27.01 55.65 29.99 6.75 1.08 12.42 2.16 12.42 2.7 0 3.24-12.7 29.17-17.56 35.92-3.24 4.6-5.13 8.92-4.32 10 .81.8 12.97 2.16 26.47 2.7 35.39 1.89 42.41-2.16 51.6-28.9 9.18-27.02 11.07-58.62 4.59-73.75l-5.13-11.34-3.52 19.18c-2.16 10.26-5.67 22.69-8.1 27.28-4.86 9.45-19.72 17.29-32.95 17.29h-9.46l6.22-6.49c3.5-3.5 9.45-14.58 13.23-24.58 4.05-10 10.54-22.96 14.32-28.9l7.02-10.8-6.21-.27c-3.78-.27-10.54 0-15.4.27-9.45.27-14.86-3.79-9.45-7.3 1.89-1.08 6.21-8.1 9.72-15.93 3.51-7.57 8.92-15.67 11.89-17.83 4.86-3.78 4.86-4.05-.27-9.73m195.83-28.9c-11.34-7.02-11.88-6.75-15.67 2.43-4.59 10.8-15.4 16.75-40.24 22.15-21.61 4.32-32.15 9.73-19.45 9.73 10 0 17.29 5.94 32.68 25.93 9.19 12.15 11.62 17.02 7.84 15.93-2.98-.8-13.24-3.78-22.96-6.48-9.73-2.97-18.37-4.32-19.45-3.51-1.9 2.16 13.5 28.63 22.42 38.36 8.1 8.64 5.13 8.1-22.7-5.14-13.5-6.2-24.57-10.8-25.11-10.53-.27.54 7.83 12.16 17.82 26.2 10.27 14.05 22.42 33.5 27.02 43.22 7.02 14.59 9.45 17.83 15.4 17.83 3.77 0 11.88 2.43 18.09 5.67 5.94 3.24 11.61 5.67 12.43 5.67 6.75 0-5.68-47-16.48-63.2l-7.02-10 6.2-1.62c3.52-.81 13.51-1.62 22.43-1.62s16.47-1.35 16.47-2.97c0-1.35-7.83-8.65-17.01-16.2s-16.75-14.6-17.02-15.68c-.54-7.29 26.74-23.5 48.08-28.09l14.59-2.97-5.4-6.21c-2.98-3.24-9.73-12.16-14.6-19.72-5.12-7.56-13.23-16.2-18.36-19.18M356.25 296.7c0-3.51-5.67-.27-13.5 8.1-23.24 24.58-41.34 64.83-46.2 103.73-6.48 49.43 11.35 108.04 41.87 138.84 11.07 11.07 12.16 13.23 12.16 27.28 0 8.64 1.08 18.37 2.43 22.15 2.16 5.67.8 8.64-8.92 18.9l-11.34 12.16-5.95-5.94c-12.15-11.35-36.19-19.45-62.93-21.61-38.63-2.7-52.4-12.7-71.58-51.05a298 298 0 0 1-13.24-31.88c-5.94-18.1-10-21.34-10-8.1-.26 62.4 54.3 125.06 130.47 150.45 11.62 3.79 26.48 7.84 32.96 8.92l11.61 1.89 1.08-19.99c1.08-17.29 2.43-22.15 10.54-33.5 8.1-11.6 8.91-14.04 6.21-21.6-4.05-11.35-3.78-34.3.27-48.08 4.6-14.86 22.15-34.3 38.09-42.14 15.66-7.57 41.33-8.38 53.75-1.9 4.6 2.44 12.16 8.38 16.75 12.97l8.1 8.65 12.43-10.8c25.12-22.16 60.23-20.8 87.51 2.96 20.26 17.83 28.9 48.62 21.07 76.45-2.43 9.18-1.89 11.88 7.3 26.74 5.4 9.18 9.99 19.45 9.99 23.23 0 7.56-.54 7.56 12.16 2.16 33.22-13.78 86.43-8.92 112.9 10.26 2.44 1.9 6.49 2.7 9.19 1.62 4.05-1.62 3.78-3.5-1.9-19.99-14.3-39.16-39.97-70.77-68.6-84.27-18.91-9.19-33.5-10.27-45.92-4.05-14.05 7.56-20.26 5.67-23.5-6.76-7.84-29.17-46.73-57-75.36-53.75l-8.65 1.08 8.1-16.48c5.95-11.88 8.92-22.69 10.27-38.9 2.7-32.14 14.86-45.91 48.08-55.64 20.26-5.94 65.64-4.05 100.75 4.32 14.59 3.52 26.47 5.14 27.83 3.52 3.78-3.52-31.34-21.07-62.94-31.6-65.91-22.16-126.96-11.62-167.74 29.17-23.77 24.04-42.14 65.1-42.14 95.35 0 7.83-.27 7.83-13.78 6.75-14.58-1.62-42.14 4.86-53.75 12.15-5.67 3.79-6.48 3.79-7.83-.8-4.6-14.32-12.97-29.18-19.72-33.77-26.2-18.64-31.07-29.44-30.53-69.42.27-26.2 6.22-48.62 20.8-75.9 6.22-11.35 11.35-21.34 11.35-21.88m346.83 754.97c4.86-7.56 10.53-8.64 12.42-2.43.54 1.62-1.62 3.78-4.59 4.86-9.45 2.98-7.3 11.62 14.32 50.79 27.55 50.78 29.44 53.21 38.9 51.05 4.59-1.08.53 2.7-10.81 9.45-19.72 11.89-24.04 12.97-15.94 3.78 4.86-5.13 4.05-7.02-17.29-45.92-24.04-44.3-27-56.18-17.01-71.58m-494.86 23.23c-3.24-6.21-1.62-6.48 8.92-1.08 6.75 3.78 8.37 6.76 10 19.18a349 349 0 0 0 5.66 31.33c3.79 17.29 3.52 18.1-8.9 13.51-16.22-6.21-33.23 9.18-27.83 24.58 1.62 4.32 7.3 9.99 13.77 13.24 10.81 5.67 11.08 5.67 15.13.27 6.76-9.19 34.85-66.18 34.85-71.04 0-2.71-2.43-6.49-5.14-8.65-6.2-5.13-3.24-4.32 17.3 4.59 16.2 7.3 21.6 12.97 9.18 9.73-6.76-1.62-8.1.81-26.2 36.73-18.91 37.82-18.91 38.63-13.78 44.3 2.7 3.24 4.32 5.68 3.24 5.68-6.21 0-58.88-29.18-61.32-34.04-8.1-15.13 5.95-32.41 25.94-32.41 5.94 0 11.07-.81 11.07-1.89 0-6.22-9.45-49.98-11.89-54.03m393.3 45.38c8.1-3.78 15.66-5.13 27.55-4.32 14.04.81 17.82 2.43 26.2 10.54 19.99 19.44 24.3 52.13 9.18 71.85-15.4 20.25-53.75 28.36-72.93 15.66-18.37-12.42-27.82-42.41-19.72-64.01 4.32-11.08 16.48-23.23 29.71-29.72m44.03 17.29c-11.07-12.43-22.42-16.75-35.65-13.78-28.1 5.95-37.28 33.77-21.34 64.83 11.61 22.69 30.52 30.26 52.13 20.53 26.74-11.88 29.17-44.84 4.86-71.58m-324.4-12.16c.8-2.97 3.23-4.59 6.2-3.78 2.44.54 18.91 4.05 36.47 7.84 29.98 6.48 40.52 11.07 25.12 11.07-6.21 0-7.3 2.16-12.42 24.85-14.32 62.67-13.78 57.54-5.95 63.75 3.79 3.24 4.87 5.13 2.7 4.32-2.43-.81-18.36-4.05-35.65-7.83-17.02-3.51-32.14-7.3-33.22-8.11-1.36-1.08-.54-6.48 1.35-11.88l3.24-9.73 1.62 8.38c1.62 8.37 12.15 14.04 30.25 16.21 7.02.81 8.37-.28 11.08-10.27 8.1-28.09 8.64-26.2-7.3-29.71-18.9-4.05-18.9-4.05-20.8 3.24-.8 3.51-2.16 5.67-3.24 4.59-2.43-2.43 4.6-30.79 7.57-30.79 1.62 0 1.89 2.7 1.08 5.67-2.16 6.21 3.5 9.45 21.88 12.97l9.72 1.89 3.78-17.29c1.9-9.18 2.97-18.91 2.16-21.07-1.08-2.16-9.72-5.4-19.45-7.56l-17.55-3.78-7.03 8.37c-7.56 8.91-7.29 9.45-1.62-11.35m179.63 15.13c10.26-.81 19.45-1.89 20.53-2.16.8-.27 2.43.54 3.51 2.16.81 1.35-1.35 2.97-4.86 3.51-6.21.81-6.48 1.89-7.3 39.17-.8 44.3.27 51.05 8.1 51.05 2.98 0 5.68 1.35 5.68 2.7 0 1.62-8.64 2.97-19.99 2.97-21.07 0-24.04-1.35-12.7-5.67 6.49-2.43 7.03-4.05 7.03-22.69 0-10.8-1.08-19.99-2.7-19.99-2.97 0-42.68 42.68-42.68 45.92 0 1.35-5.94 2.43-13.5 2.16h-13.51l9.18-3.51c4.86-1.89 17.83-11.88 28.9-22.15l19.72-19.18-27-24.31c-14.86-13.23-28.37-24.31-29.72-24.31s-2.43-1.08-2.43-2.7 4.05-2.7 9.18-2.7c7.57 0 13.78 4.05 34.04 22.69 13.77 12.43 26.2 22.42 27.82 22.42s1.89-7.02 1.08-17.56c-2.16-23.5-2.7-24.85-10.27-25.39-3.5-.27 1.63-1.35 11.89-2.43"/><path d="M393.52 538.44c-9.45 4.6-21.6 17.56-18.9 20.26.8.81 4.86-1.62 9.18-5.67 10.8-10.27 18.64-13.78 30.52-13.78 12.43 0 24.31 5.95 32.42 16.2 7.56 9.73 11.61 6.22 4.05-3.77-12.43-16.75-38.09-22.7-57.27-13.24m131.28.54c-11.07 6.76-19.72 17.02-17.29 19.45 1.35 1.35 3.24 0 4.87-2.43 4.86-8.64 21.06-16.75 34.3-16.75 12.97 0 21.6 4.6 32.68 17.02 4.6 5.4 6.22 5.94 6.49 2.7 0-4.86-11.89-17.02-21.88-22.15-9.46-4.86-29.45-3.78-39.17 2.16"/><path d="M402.98 561.94c-3.24 1.35-8.92 5.67-12.7 10L383 579.5l10.53-1.9c9.19-1.61 10.54-1.34 11.35 4.6 1.35 10 9.18 13.24 16.2 7.02 5.68-5.13 6.22-5.13 11.9 0l6.2 5.4-2.16-9.99c-3.5-17.29-20.53-28.63-34.03-22.69m135.6 0c-3.25 1.35-8.1 5.4-10.54 9.19-5.4 7.56-6.48 22.42-1.35 17.28 2.16-2.43 4.6-2.43 8.1-.27 6.49 4.06 14.32.81 16.21-6.48 1.35-5.13 3.24-5.94 12.43-4.6 9.72 1.36 10.8 1.09 8.37-3.5-2.7-4.86-19.45-14.59-24.58-14.05-1.35 0-5.13 1.08-8.64 2.43m-64.02 14.59c-2.16 5.13-7.02 18.64-10.54 29.44-3.78 11.08-9.72 24.58-13.77 30.52-9.46 14.59-7.03 21.61 12.15 34.85 13.78 9.45 16.48 10.26 22.7 7.56 9.45-4.32 29.98-22.96 29.98-27.55 0-1.89-3.52-8.1-7.3-14.04-4.05-5.95-11.34-22.42-15.93-36.74-11.89-35.39-12.43-35.93-17.3-24.04m54.57 19.99c0 14.31 14.05 27.82 28.9 27.82 5.95 0 5.95 0-1.08-7.56-4.05-4.33-8.1-10.54-9.18-13.78-.81-2.97-5.4-7.02-10-8.91-7.83-2.7-8.64-2.7-8.64 2.43"/><path d="M414.86 595.44c-5.4.8-7.56 2.7-7.56 6.75 0 3.24-3.78 9.45-8.37 14.04l-8.38 8.1h6.76c11.07 0 20.8-5.66 25.39-15.66s5.67-15.66 2.16-14.85c-1.08 0-5.68.8-10 1.62m-37 54.56c-11.08 3.51-15.94 8.1-15.94 15.4 0 10 9.46 16.74 26.74 18.1l15.4 1.08 7.3 15.4c8.1 16.2 25.11 32.13 42.13 39.43 14.05 5.67 37.55 5.13 52.13-1.35 15.94-7.3 33.77-26.47 39.44-42.41l4.86-12.97 12.43.81c32.95 2.7 45.92-23.77 16.2-33.49-25.39-8.37-53.75 9.72-39.43 25.66 4.05 4.32 3.5 5.4-5.14 12.16-18.9 14.04-33.76 20.25-53.75 21.33-16.75.82-21.07 0-36.73-7.56-10-4.86-21.07-11.34-24.59-14.58-6.48-5.4-6.48-6.22-2.16-11.08 10.8-12.15 1.08-25.39-19.98-27.55-5.95-.54-14.6 0-18.91 1.62m65.36 58.88c29.72 13.51 67.8 7.57 90.76-14.31 5.14-4.86 9.46-7.83 9.46-6.75 0 5.13-9.19 18.36-19.18 27.82-21.88 20.8-45.1 26.74-66.99 17.02-15.12-6.49-39.98-28.9-46.46-41.33l-4.59-8.65 11.07 9.73c5.95 5.13 17.56 12.7 25.94 16.47"/></g></svg>