<svg clip-rule="evenodd" fill-rule="evenodd" stroke-linejoin="round" stroke-miterlimit="2" viewBox="0 0 934 1300" xmlns="http://www.w3.org/2000/svg"><g fill-rule="nonzero"><path d="m407.3 62.768c0 1.62 2.431 2.971 5.402 2.971 7.564 0 9.184 10.264 8.104 53.753-.811 35.115-.811 35.385-7.834 37.006-12.425 2.971-2.431 4.322 18.368 2.701 10.805-1.08 16.748-1.891 13.236-2.161-7.563-.54-8.103-1.891-10.264-25.391-1.351-11.345-.811-17.827 1.08-17.827 1.621 0 14.046 10.264 27.822 22.689 20.259 18.638 26.471 22.69 34.035 22.69 5.132 0 9.184-1.08 9.184-2.701s-1.081-2.971-2.431-2.971c-1.351 0-14.857-10.805-29.713-24.311l-27.282-24.31 19.989-18.908c11.074-10.265 23.5-20.259 27.822-22.15 7.293-3.511 7.023-3.511-4.052-3.511-10.535 0-12.425 1.62-29.443 21.339-9.994 11.615-20.529 22.419-23.5 24.04-4.862 2.431-5.132 1.351-5.132-17.017 0-18.908.54-20.259 7.833-24.041 7.564-4.321 7.023-4.321-12.695-4.592-11.885 0-20.529 1.081-20.529 2.702z"/><path d="m562.887 70.871 7.023 5.673-7.563 33.764c-9.725 44.029-11.615 48.891-19.449 48.891-12.965 0-.27 5.132 31.874 12.425 18.098 4.052 33.765 7.564 34.575 7.564s2.161-2.972 3.241-6.753c.811-3.782 2.431-8.914 3.242-11.345 1.08-2.431.54-4.592-1.351-4.592-1.621 0-2.971 1.891-2.971 3.782 0 2.16-2.161 5.672-4.322 7.563-5.672 4.592-38.086-1.621-40.517-7.563-.811-2.161.27-11.886 2.16-21.34l3.782-17.017 11.075 1.891c16.477 2.431 22.69 6.483 20.529 12.965-1.081 2.972-.541 5.403.81 5.403 2.971 0 9.994-28.362 7.833-30.523-1.08-1.081-2.431 1.08-3.241 4.592-1.891 7.293-1.891 7.293-21.069 2.971-8.914-1.891-14.046-4.322-13.236-6.213.811-1.891 2.972-10.804 4.592-19.448 3.512-16.207 3.512-16.207 12.426-14.586 21.339 4.321 28.902 8.373 30.523 16.747l1.62 8.373 3.242-9.724c1.891-5.402 2.701-10.804 1.35-11.885-1.08-1.08-14.856-4.592-30.523-7.833-15.396-3.512-31.603-6.753-35.385-7.834l-7.023-1.62z"/><path d="m295.742 82.756c-12.155 3.782-26.201 15.667-31.333 26.472-11.885 24.58-.271 58.885 24.31 71.58 23.23 12.156 62.937-4.592 72.931-30.793 8.104-21.339-1.35-51.592-19.448-63.747-10.264-6.753-30.523-8.374-46.46-3.512zm32.414 9.454c14.316 9.724 23.5 28.362 23.5 48.081.27 15.667-.54 17.287-10.264 26.471-9.184 8.104-12.696 9.454-24.851 9.454-12.425 0-15.937-1.35-25.391-9.994-11.615-10.264-19.988-29.172-19.988-44.299 0-28.092 33.494-45.65 56.994-29.713z"/><path d="m691.462 106.526c2.701 2.161 5.132 5.403 5.132 7.023 0 1.891-8.373 19.989-18.638 40.518-17.557 34.575-19.178 37.006-25.661 35.385-11.615-2.971-7.833.54 9.995 9.454 19.178 9.724 24.58 11.075 14.856 3.512l-6.483-5.133 18.368-37.005c9.994-20.529 19.719-38.087 21.339-39.167 4.862-2.972 23.23 7.293 26.472 14.586 3.781 8.374-.27 18.638-10.535 25.121-5.672 3.781-8.644 4.322-15.937 1.62-5.132-1.62-9.994-3.241-11.074-3.241-1.081 0 .81 14.316 4.051 31.604 5.132 27.551 6.753 31.873 12.966 35.385 9.724 5.132 12.155 5.132 8.914-1.081-2.431-4.592-11.615-48.08-11.615-55.103 0-1.621 2.971-1.891 7.023-1.081 10.264 2.701 25.391-4.592 29.442-14.316 6.213-15.397.811-21.879-30.793-37.816-28.092-14.046-37.276-17.558-27.822-10.265z"/><path d="m180.403 134.348c-11.615 7.023-15.667 10.535-11.075 9.725 6.212-1.351 8.914-.271 13.235 5.942 10.265 15.127 45.92 82.115 45.92 86.707 0 2.431-2.701 6.483-6.212 8.914-4.863 3.242-5.403 5.132-2.972 7.834 7.563 7.293 19.989-16.207 16.477-31.064-1.08-4.322-11.615-25.391-23.23-47-20.529-37.816-21.339-39.437-16.477-44.569 8.104-9.184 3.512-8.104-15.666 3.511z"/><path d="m353.817 240.504c-15.126 7.563-22.42 26.741-16.477 43.489 3.241 9.454 2.971 10.804-7.023 22.689-14.316 17.828-24.04 35.386-32.954 59.966-7.023 19.178-7.563 24.581-7.834 63.477 0 39.978.541 44.029 8.104 63.478 4.322 11.345 11.615 27.011 16.207 34.845l8.103 14.046-7.563 3.241c-4.322 1.891-19.988 3.512-34.845 3.512-23.23 0-29.172-1.081-42.948-7.293-15.937-7.564-37.276-24.851-42.409-34.035-1.89-3.782-.81-7.833 4.592-15.667 8.104-12.155 8.914-20.529 2.431-33.764-7.833-17.018-27.281-24.581-44.028-17.558-13.506 5.673-19.989 14.046-21.61 28.362-1.62 15.397 4.592 28.633 16.477 34.575 7.293 3.782 8.374 5.943 8.374 16.477.27 37.276 18.638 82.386 45.65 111.288 30.523 32.414 65.908 51.052 117.5 61.857l28.902 6.212 19.179 23.771c22.149 27.011 22.419 25.661-6.483 39.166-21.609 10.265-44.569 9.995-60.236-.27-6.483-4.322-14.316-12.155-17.287-17.557-3.242-5.403-7.294-9.724-9.184-9.724-7.834 0-10.265 7.293-10.265 31.333 0 28.902 6.753 53.753 19.719 74.282 4.862 7.563 8.643 14.316 8.643 15.126 0 2.161-12.155-4.592-18.908-10.804-7.833-7.293-15.126-4.592-15.126 5.132 0 23.23 36.465 70.77 65.908 86.167 7.563 4.052 13.506 8.104 13.506 8.914 0 6.483-41.058 7.023-56.724.81-12.426-4.862-19.719-3.781-19.719 3.242 0 2.431 7.023 12.155 15.937 21.609 20.799 21.609 52.402 37.812 82.926 42.412 11.344 1.62 24.58 2.43 28.902 1.62 4.592-1.08 8.374-1.08 8.374-.54 0 3.78-20.799 11.07-35.656 12.69-14.586 1.35-17.017 2.43-17.827 7.83-1.891 13.24 45.379 28.1 81.845 25.4 39.707-2.97 69.96-17.83 97.512-47.81l15.937-16.751-.271 16.481c0 10.26-2.16 21.07-5.672 28.9-6.753 14.85-7.023 18.91-.81 21.34 5.942 2.43 23.5-9.73 38.356-26.47 17.288-19.72 27.012-40.251 34.845-75.096l1.621-7.834 5.672 7.023c8.644 11.075 14.316 26.472 16.477 45.647 2.161 20.8 8.374 24.31 17.288 9.73 18.638-30.256 23.23-81.038 10.534-118.044-3.781-11.345-6.212-20.528-5.132-20.528 6.483 0 25.391 26.201 31.604 43.218 2.971 8.374 8.643 10.265 13.776 4.052 4.862-5.943 7.023-38.897 3.511-57.265-1.621-9.184-7.563-26.201-12.965-37.546-5.403-11.345-8.914-20.529-8.104-20.529 4.592 0 26.742 15.127 29.443 19.989 3.511 6.753 13.505 7.293 15.937 1.08 3.781-9.724-7.564-34.845-22.96-51.592-23.23-24.851-52.673-38.626-100.213-46.19-11.345-1.62-20.529-3.781-20.529-4.322 0-.81 5.402-8.103 12.155-16.207 6.483-8.103 14.856-19.448 18.368-25.12 10.264-16.477 29.713-23.771 64.558-23.771 35.655 0 46.73 4.052 46.73 16.748 0 21.879 21.339 41.057 41.327 37.276 15.667-2.972 27.012-14.857 28.633-30.253 2.161-16.748-4.322-28.903-18.908-36.466-8.104-4.322-11.345-7.563-11.345-12.155 0-12.696-8.644-40.788-19.719-63.207-21.069-42.679-64.557-80.765-109.937-95.892-12.155-4.051-24.581-7.563-27.822-7.563-12.695 0-13.776-4.052-5.402-19.718 15.396-28.092 45.379-48.891 78.604-54.294 20.528-3.241 27.011-1.35 29.442 8.374 2.972 11.885 8.914 19.448 19.178 24.31 11.886 5.673 19.449 5.673 31.064.27 24.58-11.614 25.391-49.971 1.35-62.396-8.913-4.862-23.23-5.403-30.523-1.621-3.781 2.161-8.373.54-18.908-7.293-32.954-24.04-68.879-34.845-114.799-34.845-65.909-.27-120.202 28.092-155.857 80.765-7.834 11.615-15.397 21.609-17.017 22.689-8.104 4.862-39.978-25.391-50.782-48.08-8.104-17.558-12.966-46.46-9.995-59.426 2.161-9.184 4.322-11.345 14.046-14.586 15.937-5.673 24.041-16.477 24.041-33.224 0-26.742-27.012-43.489-50.512-31.604zm23.77 12.155c-1.35 4.052-.54 5.132 3.242 4.862 2.701-.27 5.132 1.621 5.132 3.782 0 2.431-2.161 4.322-4.592 4.052-2.701-.27-4.592 1.62-4.322 4.322.27 2.431-1.621 4.592-3.782 4.592-2.971 0-4.051-2.432-3.781-6.753.81-5.403 0-6.213-2.701-3.782-4.592 3.782-12.156-.27-9.454-4.862 1.08-1.891 4.592-2.431 7.833-1.621 4.862 1.621 5.402 1.081 3.782-4.052-1.621-4.862-.541-5.942 4.321-5.942 4.592 0 5.403 1.35 4.322 5.402zm-21.339 44.029c0 .54-5.132 10.535-11.345 21.88-14.586 27.281-20.529 49.701-20.799 75.902-.54 39.977 4.322 50.782 30.523 69.42 6.753 4.592 15.127 19.448 19.719 33.765 1.35 4.591 2.161 4.591 7.833.81 11.615-7.293 39.167-13.776 53.753-12.155 13.506 1.08 13.776 1.08 13.776-6.753 0-30.253 18.368-71.311 42.138-95.351 40.788-40.788 101.834-51.322 167.742-29.173 31.604 10.535 66.719 28.092 62.938 31.604-1.351 1.62-13.236 0-27.822-3.512-35.116-8.373-80.495-10.264-100.754-4.322-33.224 9.725-45.379 23.501-48.08 55.644-1.351 16.207-4.322 27.012-10.265 38.897l-8.103 16.477 8.643-1.08c28.633-3.242 67.529 24.58 75.363 53.753 3.241 12.425 9.454 14.316 23.5 6.753 12.425-6.213 27.012-5.133 45.92 4.051 28.632 13.506 54.293 45.11 68.609 84.277 5.673 16.477 5.943 18.368 1.891 19.988-2.701 1.081-6.753.27-9.184-1.62-26.471-19.179-79.684-24.041-112.909-10.265-12.695 5.402-12.155 5.402-12.155-2.161 0-3.781-4.592-14.046-9.994-23.23-9.184-14.856-9.724-17.557-7.293-26.741 7.833-27.822-.811-58.615-21.069-76.443-27.282-23.77-62.397-25.121-87.518-2.971l-12.425 10.804-8.104-8.643c-4.592-4.592-12.155-10.535-16.747-12.966-12.425-6.483-38.086-5.672-53.753 1.891-15.937 7.833-33.494 27.281-38.086 42.138-4.052 13.776-4.322 36.736-.27 48.081 2.701 7.563 1.89 9.994-6.213 21.609-8.104 11.345-9.454 16.207-10.535 33.494l-1.08 19.989-11.615-1.891c-6.483-1.08-21.339-5.132-32.954-8.914-76.173-25.391-130.736-88.058-130.466-150.454 0-13.236 4.051-9.995 9.994 8.103 2.701 8.103 8.644 22.69 13.236 31.874 19.178 38.356 32.954 48.35 71.58 51.052 26.742 2.161 50.782 10.264 62.937 21.609l5.943 5.942 11.345-12.155c9.724-10.264 11.075-13.235 8.914-18.908-1.351-3.781-2.431-13.506-2.431-22.149 0-14.046-1.081-16.207-12.156-27.282-30.523-30.793-48.35-89.409-41.868-138.84 4.863-38.897 22.96-79.144 46.19-103.724 7.834-8.374 13.506-11.615 13.506-8.104zm409.496 97.782c.81 1.351-.54 4.052-2.971 6.213-4.052 3.241-3.782 3.781 1.621 5.942 3.241 1.081 5.942 3.512 5.942 5.133 0 4.051-11.345 3.511-11.615-.811-.27-1.891-1.351-.54-2.701 2.972-2.971 7.023-7.023 8.103-10.264 2.971-1.081-1.621.54-4.862 3.241-7.023 5.132-3.512 4.862-3.782-.81-3.782-3.782 0-6.213-1.891-6.213-4.322 0-5.132 5.942-5.402 10.534-.81 2.702 2.701 3.512 2.161 3.512-2.701 0-6.213 6.753-8.914 9.724-3.782zm-603.439 61.317c1.35 3.781 1.891 3.781 4.862 0 2.431-2.972 4.322-3.512 7.563-1.351 3.512 2.701 3.512 3.511-.54 6.213-4.322 2.971-4.322 3.511-.27 6.482 2.431 1.891 3.511 4.862 2.431 6.483-3.242 5.132-7.293 4.052-9.995-2.971l-2.16-6.213-3.512 6.483c-3.511 6.483-8.644 5.943-8.644-1.08 0-2.431 1.891-4.322 4.592-4.322 4.322 0 4.322-.27-.27-3.782-2.971-1.891-4.322-5.132-3.241-7.023 2.701-4.592 7.293-4.052 9.184 1.081zm287.133 59.425c9.724 4.862 22.42 19.448 27.552 31.334l3.511 8.373 3.242-8.373c4.862-12.426 16.207-26.472 25.661-31.334 4.322-2.161 14.316-4.052 21.609-4.052 43.489 0 72.661 45.11 54.834 84.817l-5.673 12.425 8.914 8.644c4.862 4.862 10.535 12.965 12.696 18.098 9.454 22.149 1.89 39.166-37.276 84.276-13.506 15.396-28.633 34.575-33.765 42.408-18.368 28.632-42.138 46.73-56.184 43.219-10.535-2.702-26.742-17.828-45.38-42.679-9.724-12.695-25.931-33.224-36.465-45.649-27.012-32.414-36.466-48.621-36.466-61.587 0-14.586 6.213-29.172 16.747-39.167 8.374-7.833 8.374-7.833 3.782-17.287-6.213-12.425-7.833-33.494-3.782-46.46 10.265-31.063 50.512-50.512 76.443-37.006zm332.243 164.501c0 2.431-1.351 4.322-2.971 4.322-5.133 0-2.972 5.132 3.241 6.482 3.241.811 5.132 2.972 4.052 4.592-2.431 3.782-9.994 4.052-9.994.271 0-1.621-1.621-2.972-3.242-2.972s-2.161 1.351-1.08 2.972c1.89 3.241-6.483 7.293-9.184 4.591-.811-.81 0-3.511 1.891-5.942 2.971-3.512 2.971-4.322-.811-4.322-2.701 0-4.592-1.621-4.592-3.782 0-6.482 3.512-7.833 8.914-2.971 4.862 4.592 5.132 4.322 5.132-1.35 0-3.512 1.891-6.213 4.322-6.213 2.161 0 4.322 2.161 4.322 4.322zm-162.88 66.448c5.132 2.972 13.236 11.615 18.368 19.179 4.862 7.563 11.615 16.477 14.586 19.718l5.402 6.213-14.586 2.971c-21.339 4.592-48.621 20.799-48.081 28.092.271 1.081 7.834 8.104 17.018 15.667s17.017 14.856 17.017 16.207c0 1.62-7.563 2.971-16.477 2.971s-18.908.81-22.42 1.621l-6.212 1.62 7.023 9.995c10.804 16.207 23.23 63.207 16.477 63.207-.811 0-6.483-2.431-12.426-5.673-6.212-3.241-14.316-5.672-18.097-5.672-5.943 0-8.374-3.241-15.397-17.828-4.592-9.724-16.747-29.172-27.012-43.218-9.994-14.046-18.097-25.661-17.827-26.201.54-.271 11.615 4.321 25.121 10.534 27.822 13.236 30.793 13.776 22.689 5.132-8.913-9.724-24.31-36.195-22.419-38.356 1.08-.811 9.724.54 19.448 3.511 9.724 2.701 19.989 5.673 22.96 6.483 3.782 1.081 1.351-3.782-7.833-15.937-15.397-19.988-22.69-25.931-32.684-25.931-12.696 0-2.161-5.402 19.448-9.724 24.851-5.402 35.655-11.345 40.247-22.15 3.782-9.184 4.322-9.454 15.667-2.431zm-195.834 28.903c5.132 5.672 5.132 5.942.27 9.724-2.971 2.161-8.374 10.264-11.885 17.828-3.512 7.833-7.834 14.856-9.724 15.936-5.403 3.512 0 7.564 9.454 7.294 4.862-.271 11.615-.541 15.396-.271l6.213.271-7.023 10.804c-3.782 5.943-10.264 18.908-14.316 28.903-3.782 9.994-9.724 21.069-13.236 24.58l-6.213 6.483h9.454c13.236 0 28.093-7.833 32.955-17.287 2.431-4.592 5.942-17.018 8.103-27.282l3.512-19.178 5.132 11.344c6.483 15.127 4.592 46.731-4.592 73.742-9.184 26.742-16.207 30.793-51.592 28.903-13.506-.541-25.661-1.891-26.472-2.702-.81-1.08 1.081-5.402 4.322-9.994 4.862-6.753 17.558-32.684 17.558-35.925 0-.541-5.673-1.621-12.426-2.701-19.448-2.972-69.419-29.713-55.644-29.983 11.345 0 74.012-35.926 73.472-42.138 0-1.081-7.023-6.213-15.667-11.615-8.373-5.403-19.988-14.857-25.931-20.799l-10.804-11.075 11.344 1.621c8.104 1.08 17.288-.271 31.334-5.133 25.121-8.373 30.523-8.643 37.006-1.35zm89.408 91.839c8.374 12.426 22.15 29.713 30.253 38.897 14.857 15.667 15.127 16.207 10.535 23.23-2.431 3.782-5.403 14.856-6.483 24.851l-2.161 18.097-7.023-12.695c-8.914-15.937-19.718-24.04-28.902-21.879-9.725 2.431-37.276 21.339-57.265 39.166l-16.747 15.127 7.293-11.345c10.534-15.937 11.885-23.77 5.672-34.035l-5.402-8.373 9.184-8.644c11.615-11.075 15.397-24.851 15.397-58.075v-27.012l18.097 32.144c9.995 17.558 19.719 38.087 21.88 45.38 3.511 12.965 3.781 12.965 5.942 4.862 1.621-6.213-.81-16.477-9.184-41.598-10.534-31.333-14.316-49.431-8.913-43.489 1.35 1.621 9.454 12.966 17.827 25.391z"/><path d="m703.077 1051.66c-9.994 15.4-7.023 27.28 17.017 71.58 21.34 38.9 22.15 40.79 17.288 45.92-8.104 9.19-3.782 8.11 15.937-3.78 11.345-6.75 15.396-10.53 10.804-9.45-9.454 2.16-11.344-.27-38.896-51.05-21.61-39.17-23.771-47.81-14.316-50.79 2.971-1.08 5.132-3.24 4.592-4.86-1.891-6.21-7.564-5.13-12.426 2.43z"/><path d="m208.224 1074.89c2.432 4.05 11.886 47.81 11.886 54.03 0 1.08-5.133 1.89-11.075 1.89-19.989 0-34.035 17.28-25.931 32.41 2.431 4.86 55.103 34.04 61.316 34.04 1.08 0-.54-2.44-3.241-5.68-5.133-5.67-5.133-6.48 13.776-44.3 18.097-35.92 19.448-38.35 26.201-36.73 12.425 3.24 7.023-2.43-9.184-9.73-20.529-8.91-23.5-9.72-17.288-4.59 2.702 2.16 5.133 5.94 5.133 8.65 0 4.86-28.092 61.85-34.845 71.04-4.052 5.4-4.322 5.4-15.127-.27-6.483-3.25-12.155-8.92-13.776-13.24-5.402-15.4 11.615-30.79 27.822-24.58 12.426 4.59 12.696 3.78 8.914-13.51-2.161-8.91-4.592-22.96-5.672-31.33-1.621-12.42-3.242-15.4-9.995-19.18-10.534-5.4-12.155-5.13-8.914 1.08z"/><path d="m601.514 1120.27c-13.236 6.49-25.391 18.64-29.713 29.72-8.104 21.6 1.35 51.59 19.718 64.01 19.178 12.7 57.535 4.59 72.932-15.66 15.126-19.72 10.804-52.41-9.184-71.85-8.374-8.11-12.156-9.73-26.202-10.54-11.885-.81-19.448.54-27.551 4.32zm44.028 17.29c24.311 26.74 21.88 59.7-4.862 71.58-21.609 9.73-40.517 2.16-52.132-20.53-15.937-31.06-6.753-58.88 21.339-64.83 13.236-2.97 24.581 1.35 35.655 13.78z"/><path d="m321.133 1125.4c-5.672 20.8-5.943 20.26 1.621 11.35l7.023-8.37 17.557 3.78c9.724 2.16 18.368 5.4 19.449 7.56.81 2.16-.271 11.89-2.161 21.07l-3.782 17.29-9.724-1.89c-18.368-3.52-24.04-6.76-21.88-12.97.811-2.97.541-5.67-1.08-5.67-2.971 0-9.994 28.36-7.563 30.79 1.08 1.08 2.431-1.08 3.241-4.59 1.891-7.29 1.891-7.29 20.799-3.24 15.937 3.51 15.397 1.62 7.293 29.71-2.701 9.99-4.052 11.08-11.075 10.27-18.097-2.17-28.632-7.84-30.253-16.21l-1.62-8.38-3.242 9.73c-1.89 5.4-2.701 10.8-1.35 11.88 1.08.81 16.207 4.6 33.224 8.11 17.288 3.78 33.224 7.02 35.655 7.83 2.161.81 1.081-1.08-2.701-4.32-7.833-6.21-8.373-1.08 5.943-63.75 5.132-22.69 6.212-24.85 12.425-24.85 15.397 0 4.862-4.59-25.121-11.07-17.557-3.79-34.034-7.3-36.465-7.84-2.972-.81-5.403.81-6.213 3.78z"/><path d="m500.76 1140.53c-10.264 1.08-15.396 2.16-11.885 2.43 7.563.54 8.104 1.89 10.265 25.39.81 10.54.54 17.56-1.081 17.56s-14.046-9.99-27.822-22.42c-20.259-18.64-26.471-22.69-34.035-22.69-5.132 0-9.183 1.08-9.183 2.7s1.08 2.7 2.431 2.7c1.35 0 14.856 11.08 29.712 24.31l27.012 24.31-19.719 19.18c-11.074 10.27-24.04 20.26-28.902 22.15l-9.184 3.51h13.506c7.563.27 13.506-.81 13.506-2.16 0-3.24 39.707-45.92 42.678-45.92 1.621 0 2.701 9.19 2.701 19.99 0 18.64-.54 20.26-7.023 22.69-11.345 4.32-8.373 5.67 12.696 5.67 11.345 0 19.988-1.35 19.988-2.97 0-1.35-2.701-2.7-5.672-2.7-7.834 0-8.914-6.75-8.104-51.05.811-37.28 1.081-38.36 7.293-39.17 3.512-.54 5.673-2.16 4.863-3.51-1.081-1.62-2.702-2.43-3.512-2.16-1.08.27-10.264 1.35-20.529 2.16z"/><path d="m393.524 538.442c-9.454 4.592-21.609 17.558-18.908 20.259.81.81 4.862-1.621 9.184-5.673 10.805-10.264 18.638-13.776 30.523-13.776 12.425 0 24.31 5.943 32.414 16.207 7.563 9.725 11.615 6.213 4.052-3.781-12.426-16.747-38.087-22.69-57.265-13.236z"/><path d="m524.801 538.982c-11.075 6.753-19.719 17.018-17.288 19.449 1.351 1.35 3.241 0 4.862-2.431 4.862-8.644 21.069-16.748 34.305-16.748 12.966 0 21.609 4.592 32.684 17.018 4.592 5.402 6.213 5.942 6.483 2.701 0-4.862-11.885-17.017-21.88-22.15-9.454-4.862-29.442-3.781-39.166 2.161z"/><path d="m402.978 561.942c-3.241 1.351-8.914 5.673-12.695 9.994l-7.293 7.564 10.534-1.891c9.184-1.621 10.535-1.351 11.345 4.592 1.351 9.994 9.184 13.236 16.207 7.023 5.672-5.132 6.213-5.132 11.885 0l6.213 5.402-2.161-9.994c-3.512-17.288-20.529-28.632-34.035-22.69z"/><path d="m538.576 561.942c-3.241 1.351-8.103 5.402-10.534 9.184-5.402 7.563-6.483 22.42-1.351 17.288 2.161-2.432 4.592-2.432 8.104-.271 6.483 4.052 14.316.811 16.207-6.482 1.35-5.133 3.241-5.943 12.425-4.592 9.724 1.35 10.805 1.08 8.374-3.512-2.701-4.862-19.449-14.586-24.581-14.046-1.35 0-5.132 1.081-8.644 2.431z"/><path d="m474.559 576.528c-2.161 5.133-7.023 18.638-10.535 29.443-3.781 11.075-9.724 24.581-13.776 30.523-9.454 14.586-7.023 21.609 12.156 34.845 13.776 9.454 16.477 10.265 22.689 7.563 9.455-4.321 29.983-22.959 29.983-27.551 0-1.891-3.511-8.104-7.293-14.046-4.052-5.943-11.345-22.42-15.937-36.736-11.885-35.385-12.425-35.926-17.287-24.041z"/><path d="m529.122 596.517c0 14.316 14.046 27.822 28.903 27.822 5.942 0 5.942 0-1.081-7.563-4.051-4.322-8.103-10.535-9.184-13.776-.81-2.971-5.402-7.023-9.994-8.914-7.833-2.701-8.644-2.701-8.644 2.431z"/><path d="m414.863 595.437c-5.402.81-7.563 2.701-7.563 6.752 0 3.242-3.782 9.455-8.374 14.046l-8.373 8.104h6.753c11.074 0 20.799-5.672 25.391-15.667 4.592-9.994 5.672-15.666 2.161-14.856-1.081 0-5.673.81-9.995 1.621z"/><path d="m377.857 650c-11.074 3.512-15.936 8.103-15.936 15.397 0 9.994 9.454 16.747 26.741 18.097l15.397 1.081 7.293 15.396c8.103 16.207 25.121 32.144 42.138 39.437 14.046 5.673 37.546 5.133 52.132-1.35 15.937-7.293 33.765-26.472 39.437-42.408l4.862-12.966 12.426.81c32.954 2.702 45.919-23.77 16.207-33.494-25.391-8.374-53.753 9.724-39.437 25.661 4.051 4.322 3.511 5.402-5.133 12.155-18.908 14.046-33.764 20.259-53.753 21.339-16.747.811-21.069 0-36.735-7.563-9.995-4.862-21.069-11.345-24.581-14.586-6.483-5.402-6.483-6.213-2.161-11.075 10.805-12.155 1.081-25.391-19.988-27.552-5.943-.54-14.587 0-18.909 1.621zm65.368 58.885c29.713 13.506 67.8 7.564 90.759-14.316 5.133-4.862 9.455-7.833 9.455-6.753 0 5.132-9.184 18.368-19.179 27.822-21.879 20.799-45.109 26.742-66.988 17.018-15.127-6.483-39.978-28.903-46.46-41.328l-4.592-8.644 11.074 9.724c5.943 5.132 17.558 12.696 25.931 16.477z"/></g></svg>